<svg xmlns="http://www.w3.org/2000/svg" width="167" height="167" viewBox="0 0 167 167">
  <g id="Group_6571" data-name="Group 6571" transform="translate(8377 19537)">
    <rect id="Rectangle_2461" data-name="Rectangle 2461" width="167" height="167" transform="translate(-8377 -19537)" fill="none" opacity="0.707"/>
    <path id="Path_5" data-name="Path 5" d="M-770.451-311.444v-61.879c-9.814-24.325-33.713,8.962-33.713,8.962v52.491h-31.154v-96.873h31.58v18.35c3.84-5.121,15.363-18.35,33.713-18.35,2.132.075,6.7.536,7.766,1.2a31.156,31.156,0,0,1,23.387,30.379v65.72Zm-109.248-.427v-96.873h31.579v96.873Zm0-125.465A15.363,15.363,0,0,1-864.338-452.7a15.362,15.362,0,0,1,15.363,15.363,15.363,15.363,0,0,1-15.363,15.363A15.364,15.364,0,0,1-879.7-437.336Z" transform="translate(-7484.3 -19071.301)" fill="#127bb6"/>
  </g>
</svg>

