<svg xmlns="http://www.w3.org/2000/svg" width="200" height="60" viewBox="0 0 810.534 187.016">
  <path id="Union_2" data-name="Union 2" d="M325.3,160.907a9.171,9.171,0,0,1,4.3-12.3,9.33,9.33,0,0,1,12.3,4.1,28.28,28.28,0,0,0,53.7-11.8v-10.2a47.924,47.924,0,0,1-28.2,9.6,46.642,46.642,0,1,1,46.4-46.5v46.6a46.629,46.629,0,0,1-88.5,20.5Zm13.9-67.3a28.2,28.2,0,1,0,28.2-28.2A28.2,28.2,0,0,0,339.2,93.606Zm90.2,67.3a9.089,9.089,0,0,1,4.3-12.3,9.329,9.329,0,0,1,12.3,4.1,28.28,28.28,0,0,0,53.7-11.8v-10.2a48.15,48.15,0,0,1-28.2,9.6,46.6,46.6,0,1,1,0-93.2c25.5,0,46.4,20.9,46.5,46.7v46.6a46.78,46.78,0,0,1-46.6,46.6h-.358A46.272,46.272,0,0,1,429.4,160.907Zm13.9-67.3a28.2,28.2,0,1,0,28.2-28.2A28.2,28.2,0,0,0,443.3,93.606ZM0,94.706a70.7,70.7,0,1,1,70.7,70.7A70.7,70.7,0,0,1,0,94.706Zm5.7,0a65,65,0,1,0,65-65A65,65,0,0,0,5.7,94.706Zm40.612,57.5a62.6,62.6,0,1,1,24.288,4.9A62.357,62.357,0,0,1,46.311,152.2ZM26,97.206H51.9v34l38.6-34h24.9v-27.9H26Zm159.8,35.7a25.682,25.682,0,0,1-7.8-18.8v-58.3h-9.6a8.571,8.571,0,0,1-6-2.5,8,8,0,0,1-2.5-6v-.2a8.8,8.8,0,0,1,2.5-6.1,8.1,8.1,0,0,1,6-2.6H178V8.506a8.8,8.8,0,0,1,2.5-6.1,7.92,7.92,0,0,1,6-2.4h.3a8.469,8.469,0,0,1,6,2.4,8.377,8.377,0,0,1,2.5,6.1v29.5h.7v.3h16.2a8.259,8.259,0,0,1,6,2.6,8.38,8.38,0,0,1,2.5,6.1v.2a8.57,8.57,0,0,1-2.5,6,8,8,0,0,1-6,2.5H196v.4h-.7v57.8a8.751,8.751,0,0,0,2.7,6.5,9.069,9.069,0,0,0,6.6,2.8h7.5a9.585,9.585,0,0,1,6.1,2.6,8.22,8.22,0,0,1,2.5,6.1v.2a8.569,8.569,0,0,1-2.5,6,8.1,8.1,0,0,1-6,2.6h-7.5l-.308,0A26.057,26.057,0,0,1,185.8,132.907Zm552.2,5.4a9,9,0,0,1-1.7-12.8l24.5-31.8-24.5-31.8a9.25,9.25,0,0,1,1.7-13,9,9,0,0,1,12.8,1.7l21.7,28,21.7-28a8.83,8.83,0,0,1,12.7-1.7,9.261,9.261,0,0,1,1.7,13l-24.5,31.8,24.5,31.8a9,9,0,0,1-1.7,12.8,8.661,8.661,0,0,1-5.5,2,9.3,9.3,0,0,1-7.2-3.5l-21.7-28-21.7,28a9,9,0,0,1-12.8,1.5Zm-105.6-44.6a46.6,46.6,0,1,1,46.6,46.6A46.6,46.6,0,0,1,632.4,93.706Zm18.4-.1a28.2,28.2,0,1,0,28.2-28.2A28.2,28.2,0,0,0,650.8,93.606Zm-350.4,46.4c-3.7,0-8.9-4-8.9-9.3-8,6.8-16.9,9.3-27.5,9.3-26.1,0-46.9-19.5-46.9-45.6a46.65,46.65,0,0,1,46.9-46.9c26.1,0,45.6,20.8,45.7,46.8v36.4a9,9,0,0,1-8.994,9.305C300.6,140.011,300.5,140.009,300.4,140.006Zm-65.2-45.7c0,15.7,13.2,27.5,28.8,27.5s27.5-11.8,27.5-27.4-11.9-28.9-27.5-28.9A29.2,29.2,0,0,0,235.2,94.307Zm339.722,45.6H574.9c-25.6,0-46.5-21.2-46.5-46.6v-83.3a9.2,9.2,0,1,1,18.4,0v46.2a46.853,46.853,0,0,1,28.2-9.4,46.1,46.1,0,0,1,46.5,46.5,46.576,46.576,0,0,1-46.574,46.6ZM546.8,93.307a28.2,28.2,0,1,0,28.2-28.2A28.2,28.2,0,0,0,546.8,93.307Z" transform="translate(0 0)" fill="#fff"/>
</svg>
