<?xml version="1.0" encoding="utf-8"?>
<!-- Generator: Adobe Illustrator 24.0.1, SVG Export Plug-In . SVG Version: 6.00 Build 0)  -->
<svg version="1.1" id="Layer_1" xmlns="http://www.w3.org/2000/svg" xmlns:xlink="http://www.w3.org/1999/xlink" x="0px" y="0px"
	 viewBox="0 0 141.5 141.5" style="enable-background:new 0 0 141.5 141.5;" xml:space="preserve">
<style type="text/css">
	.st0{fill:url(#SVGID_1_);}
	.st1{fill:url(#SVGID_2_);}
	.st2{fill:#FFFFFF;}
</style>
<title>rights</title>
<g id="Layer_2_1_">
	<g id="Layer_1-2">
		
			<linearGradient id="SVGID_1_" gradientUnits="userSpaceOnUse" x1="70.73" y1="199.75" x2="70.73" y2="-40.14" gradientTransform="matrix(1 0 0 -1 0 144)">
			<stop  offset="0" style="stop-color:#61F7A5"/>
			<stop  offset="2.000000e-02" style="stop-color:#5FF5A3"/>
			<stop  offset="0.31" style="stop-color:#3DE086"/>
			<stop  offset="0.58" style="stop-color:#24D071"/>
			<stop  offset="0.82" style="stop-color:#15C665"/>
			<stop  offset="1" style="stop-color:#10C360"/>
		</linearGradient>
		<path class="st0" d="M70.7,141.5C31.7,141.5,0,109.8,0,70.7S31.7,0,70.7,0s70.7,31.7,70.7,70.7l0,0l0,0
			C141.4,109.8,109.8,141.4,70.7,141.5z M70.7,5.8c-35.9,0-65,29.1-65,65s29.1,65,65,65s65-29.1,65-65S106.6,5.8,70.7,5.8L70.7,5.8z
			"/>
		
			<linearGradient id="SVGID_2_" gradientUnits="userSpaceOnUse" x1="70.57" y1="199.75" x2="70.57" y2="-40.14" gradientTransform="matrix(1 0 0 -1 0 144)">
			<stop  offset="0" style="stop-color:#61F7A5"/>
			<stop  offset="2.000000e-02" style="stop-color:#5FF5A3"/>
			<stop  offset="0.31" style="stop-color:#3DE086"/>
			<stop  offset="0.58" style="stop-color:#24D071"/>
			<stop  offset="0.82" style="stop-color:#15C665"/>
			<stop  offset="1" style="stop-color:#10C360"/>
		</linearGradient>
		<path class="st1" d="M133,70.7c0,34.5-28,62.4-62.4,62.4s-62.4-28-62.4-62.4c0-34.5,28-62.4,62.4-62.4l0,0
			C105,8.3,133,36.3,133,70.7L133,70.7z"/>
		<g id="Path_731">
			<path class="st2" d="M89.4,91.9c-0.6,0.5-1.4,0.5-2,0l-3.9-4.1c-0.5-0.6-0.4-1.5,0.2-2l0,0c0.5-0.4,1.3-0.4,1.8,0l3.1,3.1
				l9.2-9.2c0.5-0.6,1.4-0.6,2,0c0,0,0,0,0,0l0,0l0,0c0.5,0.6,0.5,1.4,0,2L89.4,91.9z"/>
			<path class="st2" d="M88.3,93.3c-0.6,0-1.2-0.2-1.7-0.7l-3.9-4.1c-0.9-1-0.8-2.5,0.2-3.4l0.1-0.1c0.9-0.7,2.1-0.7,3,0l2.4,2.5
				l8.6-8.5c0.9-0.9,2.4-0.9,3.3,0c0,0,0,0,0,0c0.9,0.9,0.9,2.4,0,3.4L90,92.6C89.6,93.1,89,93.3,88.3,93.3z M84.6,86.4
				c-0.1,0-0.2,0-0.3,0.1c-0.1,0.1-0.2,0.2-0.2,0.3c0,0.1,0,0.2,0.1,0.3l3.8,4c0.2,0.2,0.5,0.2,0.6,0L99.1,81c0.2-0.2,0.2-0.5,0-0.7
				c-0.2-0.2-0.4-0.2-0.6,0l-9.9,9.9l-3.7-3.8C84.7,86.5,84.7,86.5,84.6,86.4z"/>
		</g>
		<g id="Subtraction_2">
			<path class="st2" d="M90.2,111L90.2,111l-3-1.2c-3-1.2-5.7-3-8.1-5.2H31.3V89.9c0-6.2,2.3-12.3,6.3-17c4.2-4.9,9.9-8.2,16.2-9.6
				C45.7,60.7,40.7,52.4,42.2,44c2-8.4,9.6-14.2,18.2-14c8.6-0.2,16.2,5.7,18.1,14.1c1.5,8.5-3.4,16.7-11.6,19.4
				c4.2,0.9,8.2,2.7,11.6,5.3l11.6-6l20.1,9.8v13.8c0,5-1.6,10-4.5,14.1c-3,4.2-7.2,7.5-12.1,9.3L90.2,111z M90.2,68.4l-14.4,7.4
				v10.7c0.1,8,5.1,15.1,12.6,18l1.8,0.7l2.1-0.8c7.5-2.8,12.5-10,12.7-18V76L90.2,68.4z"/>
		</g>
	</g>
</g>
</svg>
