<svg xmlns="http://www.w3.org/2000/svg" width="170" height="170" viewBox="0 0 170 170">
  <g id="Group_4811" data-name="Group 4811" transform="translate(-1903.905 13899.116)">
    <path id="Path_5369" data-name="Path 5369" d="M85,0A85,85,0,1,1,0,85,85,85,0,0,1,85,0Z" transform="translate(1903.905 -13899.116)" fill="#f5f6f7"/>
    <g id="Group_4808" data-name="Group 4808" transform="translate(1907.682 -13899.009)">
      <g id="Group_4746" data-name="Group 4746" transform="translate(3.839 0.652)">
        <g id="Group_4743" data-name="Group 4743" transform="translate(11.317 3.22)">
          <g id="Group_4742" data-name="Group 4742">
            <path id="Path_5336" data-name="Path 5336" d="M169.524,29.263a32.863,32.863,0,0,1-2.817,4.24,9.334,9.334,0,0,0-1.483,4.21c-.178,1.156-.593,2.046-1.987,2.253-2.609.385-1.868-1.779-2.461-3.351-.682-1.809-2.135-3.2-3.143-4.833C154.7,27.158,155.558,18,161.607,16.038,168.278,13.9,171.658,24.578,169.524,29.263Z" transform="translate(-156.004 -15.759)" fill="#eac5b0"/>
          </g>
        </g>
        <g id="Group_4744" data-name="Group 4744" transform="translate(8.31 5.047)">
          <path id="Path_5337" data-name="Path 5337" d="M151.8,29.12a3.336,3.336,0,0,0-2.135.593c-.563.5-.5,1.6.237,1.72.682.119,1.542-.593,1.957-.089.237.3.03.741-.148,1.1a6.581,6.581,0,0,0-.593,4.3c-.267.267-.712,0-.949-.267a13.422,13.422,0,0,1-2.758-4.537,2.662,2.662,0,0,1-1.008.978,3.4,3.4,0,0,0-.059-1.957c-.563-2.342-.949-5.1.682-7a6.13,6.13,0,0,1,3.558-1.868,18.576,18.576,0,0,1,4.062-.119c.563.03,1.275.148,1.423.682a6.241,6.241,0,0,0-3.2,2.7C152.634,25.74,151.863,29.12,151.8,29.12Z" transform="translate(-145.862 -21.921)" fill="#212940"/>
        </g>
        <g id="Group_4745" data-name="Group 4745" transform="translate(0 0)">
          <path id="Path_5338" data-name="Path 5338" d="M134.756,11.512c-.059.03-.089.059-.148.089a5.374,5.374,0,0,1-1.809,1.156c-1.008.267-2.076-.208-3.054.148-1.1.385-1.838,1.69-2.639,2.491a11.665,11.665,0,0,1-4.715,2.758,12.542,12.542,0,0,1-2.758.5,4.394,4.394,0,0,1-1.394,0c-.563-.148-.534-.415.059-.593,1.868-.593,2.431-3.2,2.283-4.922-.119-1.364-.593-2.787-.059-4.062A4.707,4.707,0,0,1,122.6,7.064c.919-.623,1.9-.445,2.935-.741,1.067-.3,1.957-1.156,3.054-1.364,1.156-.237,2.313.3,3.469.5a7.375,7.375,0,0,0,2.906-.03,13.024,13.024,0,0,1,2.55-.534,4.156,4.156,0,0,1,3.232,1.868,8.674,8.674,0,0,1,1.394,5.96c.059-.3-.949-1.394-1.156-1.631a2.635,2.635,0,0,0-1.66-1.038A6.954,6.954,0,0,0,134.756,11.512Z" transform="translate(-117.835 -4.899)" fill="#212940"/>
        </g>
      </g>
      <g id="Group_4747" data-name="Group 4747" transform="translate(58.978 24.492)">
        <path id="Path_5339" data-name="Path 5339" d="M307.144,85.3a1.261,1.261,0,0,1,.326.059c.919.326,1.186,1.038,1.957,1.631.356.267,1.364-.148,1.334.741-.03.326-.178,1.127-.237,1.838a6.334,6.334,0,0,0,1.1,3.351c2.431,3.884,5.871,7,9.34,9.963a1.738,1.738,0,0,0,.652.415,1.655,1.655,0,0,0,1.275-.445,36.466,36.466,0,0,1,5.663-3.173,13.224,13.224,0,0,1,5.6-1.364,5.84,5.84,0,0,1,4.922,2.609,4.622,4.622,0,0,1,.237,4.181c-1.483,3.262-6.731,3.113-9.785,3.588a61.015,61.015,0,0,1-8.688.771,3.2,3.2,0,0,1-1.067-.119,2.557,2.557,0,0,1-.89-.712A129.15,129.15,0,0,1,309.4,97.279c-.83-1.067-.978-2.461-1.749-3.44-.5-.623-1.334-.771-1.927-1.275a7.249,7.249,0,0,1-1.6-1.957c-.741-1.334-.059-2.758.385-4.033a1.77,1.77,0,0,1,.415-.771,2.325,2.325,0,0,1,1.394-.474A7.234,7.234,0,0,1,307.144,85.3Z" transform="translate(-303.791 -85.3)" fill="#eac5b0"/>
      </g>
      <g id="Group_4748" data-name="Group 4748" transform="translate(63.339 28.827)">
        <path id="Path_5340" data-name="Path 5340" d="M341.213,121.351a37.418,37.418,0,0,1-7.5.148,8.478,8.478,0,0,1-2.58-.5,9.743,9.743,0,0,1-3.2-2.52c-3.38-3.558-6.82-7.146-9.429-11.327,1.216-.741,2.461-1.453,3.677-2.194a1.218,1.218,0,0,1,.771-.267,1.438,1.438,0,0,1,.89.5c2.165,2.105,4.3,4.21,6.464,6.316a2.5,2.5,0,0,0,1.156.771,2.442,2.442,0,0,0,1.038-.119c5.9-1.69,11.149-6.049,16.456-9.014,2.609-1.483,5.337-2.965,8.332-3.2,6.4-.5,10.23,7.027,5.456,11.653A37.469,37.469,0,0,1,341.213,121.351Z" transform="translate(-318.5 -99.919)" fill="#d8e4f2"/>
      </g>
      <g id="Group_4764" data-name="Group 4764" transform="translate(78.239 64.41)">
        <g id="Group_4754" data-name="Group 4754" transform="translate(5.597 77.738)">
          <g id="Group_4753" data-name="Group 4753">
            <g id="Group_4750" data-name="Group 4750" transform="translate(5.359)">
              <g id="Group_4749" data-name="Group 4749">
                <path id="Path_5341" data-name="Path 5341" d="M410.029,482.841l.119,7.294-4.329.059L405.7,482.1Z" transform="translate(-405.7 -482.1)" fill="#eac5b0"/>
              </g>
            </g>
            <g id="Group_4752" data-name="Group 4752" transform="translate(0 6.938)">
              <g id="Group_4751" data-name="Group 4751">
                <path id="Path_5342" data-name="Path 5342" d="M393.491,505.5l3.766,1.245,1.127,1.216-.178,2.847-10.17.8h0a2.269,2.269,0,0,1,1.127-3.44l.474-.148Z" transform="translate(-387.628 -505.5)" fill="#212940"/>
              </g>
            </g>
          </g>
        </g>
        <g id="Group_4763" data-name="Group 4763" transform="translate(17.392 4.727)">
          <g id="Group_4762" data-name="Group 4762">
            <g id="Group_4760" data-name="Group 4760" transform="translate(24.756 66.755)">
              <g id="Group_4759" data-name="Group 4759">
                <g id="Group_4756" data-name="Group 4756">
                  <g id="Group_4755" data-name="Group 4755">
                    <path id="Path_5343" data-name="Path 5343" d="M515.17,461l2.876,6.7-3.973,1.69-3.173-7.413Z" transform="translate(-510.9 -461)" fill="#eac5b0"/>
                  </g>
                </g>
                <g id="Group_4758" data-name="Group 4758" transform="translate(0.19 6.377)">
                  <g id="Group_4757" data-name="Group 4757">
                    <path id="Path_5344" data-name="Path 5344" d="M514.582,484.669a3.835,3.835,0,0,1,.5-.445c.474-.356,4.329-2.4,4.655-1.483a1.283,1.283,0,0,1,.03.474,37.016,37.016,0,0,1-1.838,7.769c-.385,1.067-.978,2.253-2.076,2.52a3.15,3.15,0,0,1-1.483-.089,13.285,13.285,0,0,1-2.105-.652,1.133,1.133,0,0,1-.652-.445c-.267-.474.208-1.038.682-1.275.474-.267,1.068-.445,1.3-.919a1.446,1.446,0,0,0,.119-.712C513.782,487.6,513.485,485.885,514.582,484.669Z" transform="translate(-511.54 -482.506)" fill="#212940"/>
                  </g>
                </g>
              </g>
            </g>
            <g id="Group_4761" data-name="Group 4761">
              <path id="Path_5345" data-name="Path 5345" d="M429.3,275.818c1.423,6.494,5.456,11.149,9.785,15.893a209.519,209.519,0,0,1,13.966,17.138c1.868-.771,3.736-1.572,5.634-2.342-1.571-9.1-5.9-17.465-9.251-26.093-2.313-5.99-4.211-12.305-4.3-18.8-.059-3.232.741-6.167,1.156-9.281.5-3.884.534-7.858,1.008-11.742.148-1.3.237-2.847-.771-3.706a3.468,3.468,0,0,0-1.6-.652C423.581,232.141,426.606,263.512,429.3,275.818Z" transform="translate(-427.409 -235.868)" fill="#314f8f"/>
            </g>
          </g>
        </g>
        <path id="Path_5346" data-name="Path 5346" d="M405.416,230.622a44.494,44.494,0,0,0-1.216-10.615,78.085,78.085,0,0,0-18.918,1.572c-5.871,1.186-9.518,2.461-9.577,8.836-.089,11.712-4.655,21.675-6.612,32.913-1.156,6.523.83,12.394,3.024,18.443a203.978,203.978,0,0,1,6.4,21.141c2.046,0,4.062-.03,6.108-.03,2.016-9.014,1.186-18.384,1.334-27.635.119-6.434.771-12.987,3.143-19.007,2.58-6.612,6.316-3.973,10.615-7.828C403.9,244.618,405.386,237.412,405.416,230.622Z" transform="translate(-368.753 -219.926)" fill="#314f8f"/>
      </g>
      <g id="Group_4765" data-name="Group 4765" transform="translate(83.235 28.526)">
        <path id="Path_5347" data-name="Path 5347" d="M410.359,100.445a17.364,17.364,0,0,1,1.838,1.779l1.572,1.66c1.809,1.927,2.7,4.774,3.469,7.235,4.062,12.958,5.545,30.719,2.906,44.24-10.022.86-21.645-1.66-31.638-3.024a3.336,3.336,0,0,1-2.58-1.186,3.374,3.374,0,0,1-.326-1.72c0-8.6,1.809-17.82,3.529-26.271a93.992,93.992,0,0,1,2.728-10.586c1.216-3.677,2.55-7.62,5.367-10.408,2.995-2.965,8.777-4.448,12.542-2.105A2.542,2.542,0,0,1,410.359,100.445Z" transform="translate(-385.6 -98.905)" fill="#d8e4f2"/>
      </g>
      <g id="Group_4779" data-name="Group 4779" transform="translate(90.209 2.046)">
        <g id="Group_4767" data-name="Group 4767" transform="translate(9.218 5.328)">
          <g id="Group_4766" data-name="Group 4766">
            <path id="Path_5348" data-name="Path 5348" d="M447.885,52.1c.267-1.156.208-2.52.356-3.529a5.07,5.07,0,0,0,.682-.385c4.181-2.669,11.208-17.02.059-20.222-10.111-2.906-9.607,11-7.62,16.812a8.787,8.787,0,0,0,1.453,2.758c.445.563.563.445.5,1.1-.089.978-.86,1.809-.979,2.817a15.652,15.652,0,0,0,.712,5.07c1.245-.8,2.461-1.631,3.706-2.431A3.117,3.117,0,0,0,447.885,52.1Z" transform="translate(-440.207 -27.569)" fill="#eac5b0"/>
          </g>
        </g>
        <g id="Group_4778" data-name="Group 4778" transform="translate(0 0)">
          <g id="Group_4770" data-name="Group 4770" transform="translate(7.387 11.117)">
            <g id="Group_4769" data-name="Group 4769">
              <g id="Group_4768" data-name="Group 4768">
                <path id="Path_5349" data-name="Path 5349" d="M434.646,53.263a22.136,22.136,0,0,0,2.58,5.248,36.779,36.779,0,0,1,1.245-10.17,1.146,1.146,0,0,0,0-.771.814.814,0,0,0-.623-.326C433.549,46.3,433.549,50.031,434.646,53.263Z" transform="translate(-434.033 -47.094)" fill="#212940"/>
              </g>
            </g>
          </g>
          <g id="Group_4777" data-name="Group 4777">
            <g id="Group_4773" data-name="Group 4773" transform="translate(19.179 5.828)">
              <g id="Group_4772" data-name="Group 4772">
                <g id="Group_4771" data-name="Group 4771">
                  <path id="Path_5350" data-name="Path 5350" d="M473.8,45.873c.682.949,2.194.712,3.232.178a11.5,11.5,0,0,0,5.93-12.187c-.8-3.973-5.812-6.968-6.82-2.046-.356,1.749.712,4.181.474,6.108A27.916,27.916,0,0,1,473.8,45.873Z" transform="translate(-473.8 -29.254)" fill="#212940"/>
                </g>
              </g>
            </g>
            <g id="Group_4776" data-name="Group 4776">
              <g id="Group_4775" data-name="Group 4775">
                <g id="Group_4774" data-name="Group 4774">
                  <path id="Path_5351" data-name="Path 5351" d="M417.149,11.676c-.474.178-.978.385-1.512.593a3.021,3.021,0,0,1-2.965-.059c-.326-.178-2.461-2.194-1.927-2.609-3.41,2.758-.593,6.82.682,9.666.86,1.927,1.038,4.655,2.965,5.9,2.135,1.394,3.588-.356,5.515-1.156,1.69-.682,3.529-1.067,5.278-1.69,2.876-1.038,7.146-2.817,6.2-6.642-1.1-4.448-5.634-5.574-9.666-5.219A16.1,16.1,0,0,0,417.149,11.676Z" transform="translate(-409.119 -9.6)" fill="#212940"/>
                </g>
              </g>
            </g>
          </g>
        </g>
      </g>
      <path id="Path_5352" data-name="Path 5352" d="M436.423,127.082c-.474,2.935-.474,5.93-.89,8.9-.237,1.631-.593,3.2-.89,4.8A113.544,113.544,0,0,0,433.28,154.6c-.059.919-.119,1.838-.178,2.728a4.9,4.9,0,0,0,0,2.076c.3.563,1.008.623,1.542.83a7.946,7.946,0,0,1,2.135,1.3,3.525,3.525,0,0,0,2.224-2.7,11.575,11.575,0,0,0,0-3.647,126.768,126.768,0,0,1,.623-32.142,1.082,1.082,0,0,0,1.275-.593,3.352,3.352,0,0,0,.148-1.542,20.368,20.368,0,0,1-2.669-.03c-1.483-.059-1.9.267-1.9,1.9.712.356.593,1.394.385,2.165Q436.6,126.014,436.423,127.082Z" transform="translate(-335.694 -85.837)" fill="#314f8f"/>
      <g id="Group_4790" data-name="Group 4790" transform="translate(0.584 64.764)">
        <g id="Group_4784" data-name="Group 4784" transform="translate(19.256 0)">
          <g id="Group_4783" data-name="Group 4783" transform="translate(12.246 58.051)">
            <g id="Group_4782" data-name="Group 4782">
              <g id="Group_4780" data-name="Group 4780">
                <path id="Path_5353" data-name="Path 5353" d="M217.992,444.357a20.776,20.776,0,0,0,2.7-.267c.474-8.9-.385-18.236-.741-27.19l-6.849.356a80.8,80.8,0,0,1,3.41,14.707C216.569,432.793,217.844,444.357,217.992,444.357Z" transform="translate(-213.1 -416.9)" fill="#eac5b0"/>
              </g>
              <g id="Group_4781" data-name="Group 4781" transform="translate(3.348 25.481)">
                <path id="Path_5354" data-name="Path 5354" d="M228.9,502.855a1.4,1.4,0,0,1,1.275.5,3.1,3.1,0,0,0,.623.623,2.019,2.019,0,0,0,.83.208c1.66.178,5.456.089,3.44,2.846-1.838,2.52-6.731,1.512-9.548.83-.178-.059-.385-.059-.5-.208a1.29,1.29,0,0,1-.3-.563c-.326-1.186-.771-2.639.682-3.143.623-.208,1.186.208,1.838-.03C227.773,503.715,228.336,502.944,228.9,502.855Z" transform="translate(-224.39 -502.837)" fill="#022e54"/>
              </g>
            </g>
          </g>
          <path id="Path_5355" data-name="Path 5355" d="M196.024,284.568l-14-.267q-5.649-26.953-9.963-54.173a9.313,9.313,0,0,1-.03-4.24c.771-2.58,3.529-4.062,6.167-4.537,4.122-.771,11.683.3,13.788,4.566,2.224,4.507,1.868,12.6,2.4,17.583A311.475,311.475,0,0,1,196.024,284.568Z" transform="translate(-171.799 -221.12)" fill="#314f8f"/>
        </g>
        <g id="Group_4789" data-name="Group 4789" transform="translate(0 0)">
          <g id="Group_4788" data-name="Group 4788" transform="translate(0 58.051)">
            <g id="Group_4787" data-name="Group 4787">
              <g id="Group_4785" data-name="Group 4785" transform="translate(6.871)">
                <path id="Path_5356" data-name="Path 5356" d="M132.868,444.357a20.776,20.776,0,0,1-2.7-.267c-.474-8.9.385-18.236.741-27.19l6.849.356a80.8,80.8,0,0,0-3.41,14.707C134.291,432.793,132.986,444.357,132.868,444.357Z" transform="translate(-130.03 -416.9)" fill="#eac5b0"/>
              </g>
              <g id="Group_4786" data-name="Group 4786" transform="translate(0 25.481)">
                <path id="Path_5357" data-name="Path 5357" d="M113.6,502.855a1.4,1.4,0,0,0-1.275.5,3.1,3.1,0,0,1-.623.623,2.019,2.019,0,0,1-.83.208c-1.66.178-5.456.089-3.44,2.846,1.838,2.52,6.731,1.512,9.548.83.178-.059.385-.059.5-.208a1.291,1.291,0,0,0,.3-.563c.326-1.186.771-2.639-.682-3.143-.623-.208-1.186.208-1.838-.03C114.7,503.715,114.164,502.944,113.6,502.855Z" transform="translate(-106.858 -502.837)" fill="#022e54"/>
              </g>
            </g>
          </g>
          <path id="Path_5358" data-name="Path 5358" d="M115.42,284.568l14-.267q5.649-26.953,9.963-54.173a9.313,9.313,0,0,0,.03-4.24c-.771-2.58-3.529-4.062-6.167-4.537-4.122-.771-11.683.3-13.788,4.566-2.224,4.507-1.868,12.6-2.4,17.583A306.473,306.473,0,0,0,115.42,284.568Z" transform="translate(-112.798 -221.12)" fill="#022d55"/>
        </g>
      </g>
      <g id="Group_4793" data-name="Group 4793" transform="translate(25.148 0)">
        <g id="Group_4791" data-name="Group 4791" transform="translate(10.525 0)">
          <path id="Path_5359" data-name="Path 5359" d="M235.991,3.738c-.059.059-.119.148-.178.208-.356.741-.119,1.334-.267,2.165-.059.356-.949.712-.385,1.245.208.208.771.593,1.216,1.008a5.469,5.469,0,0,1,1.3,2.728,38.578,38.578,0,0,1,.059,11.683,1.791,1.791,0,0,1-.178.652,1.444,1.444,0,0,1-1.067.474,30.617,30.617,0,0,0-5.4,1.364,11.3,11.3,0,0,0-4.27,2.431,5.071,5.071,0,0,0-1.542,4.507,3.9,3.9,0,0,0,2.313,2.728c2.847,1.156,6.019-2.016,8.184-3.5a55.143,55.143,0,0,0,5.871-4.626,2.307,2.307,0,0,0,.593-.712,2.19,2.19,0,0,0,.148-.978,112.818,112.818,0,0,0-.771-12.631c-.119-1.156-.83-2.105-.949-3.173-.059-.682.385-1.275.445-1.927a5.9,5.9,0,0,0-.148-2.165c-.326-1.245-1.572-1.749-2.609-2.283a1.357,1.357,0,0,0-.712-.237,1.829,1.829,0,0,0-1.127.534C236.347,3.412,236.169,3.56,235.991,3.738Z" transform="translate(-225.198 -2.7)" fill="#eac5b0"/>
        </g>
        <g id="Group_4792" data-name="Group 4792" transform="translate(0 9.963)">
          <path id="Path_5360" data-name="Path 5360" d="M211.345,57.412c1.838-1.275,3.529-2.728,5.308-4.181a2.734,2.734,0,0,0,.83-.919,3.252,3.252,0,0,0,.208-1.067,100.633,100.633,0,0,0-.326-14.944l-4.774.356c-.059,2.342-.089,4.715-.148,7.057a3.694,3.694,0,0,1-.415,2.046,3.887,3.887,0,0,1-1.9,1.364,14.131,14.131,0,0,1-6.434,1.1,41.863,41.863,0,0,0-11.949,1.838,2.873,2.873,0,0,0-1.868,1.216,2.959,2.959,0,0,0-.178,1.245,27.964,27.964,0,0,0,.415,5.9c.326,1.542,1.275,4.329,2.787,5.13,1.483.771,4.062-.03,5.634-.385,3.291,0,6.968-2.461,9.755-3.944A17.615,17.615,0,0,0,211.345,57.412Z" transform="translate(-189.7 -36.3)" fill="#a1bdeb"/>
        </g>
      </g>
      <g id="Group_4794" data-name="Group 4794" transform="translate(3.858 24.077)">
        <path id="Path_5361" data-name="Path 5361" d="M129.227,89.5c-1.008,1.275-2.283,2.372-3.291,3.706a34.2,34.2,0,0,0-4.922,9.162c-2.995,8.391-3.054,17.346-3.084,26.123,0,2.935-.03,5.841-.03,8.777,0,2.876.237,3.5,3.38,3.113,5.782-.712,11.8-1.9,17.049-4.477,2.491-1.216,4.833-2.758,7.442-3.736,3.8-1.394,7.709-.771,11.475-1.69A89.541,89.541,0,0,1,153.6,116.25c-.86-5.248-1.66-10.971-2.906-16.13a42.521,42.521,0,0,0-3.617-8.866,32.586,32.586,0,0,0-1.749-3.143,11.3,11.3,0,0,0-1.186-1.483c-.326-.326-.623-.89-1.038-1.038a30.411,30.411,0,0,0-3.617-.83c-.208-.237-.059-.712-.356-.83a.737.737,0,0,0-.237-.03c-1.72.119-3.44.267-5.13.385a2.585,2.585,0,0,0,.089.949.939.939,0,0,1-.208.89,1.465,1.465,0,0,1-.534.237c-.059.03-.119.03-.178.059a7.444,7.444,0,0,0-3.588,2.935A.812.812,0,0,1,129.227,89.5Z" transform="translate(-117.9 -83.9)" fill="#a1bdeb"/>
      </g>
      <g id="Group_4803" data-name="Group 4803" transform="translate(9.018 38.517)">
        <g id="Group_4802" data-name="Group 4802" transform="translate(0 0)">
          <g id="Group_4795" data-name="Group 4795">
            <circle id="Ellipse_184" data-name="Ellipse 184" cx="54.44" cy="54.44" r="54.44" fill="#3f60b2"/>
          </g>
          <g id="Group_4796" data-name="Group 4796" transform="translate(7.265 7.265)">
            <circle id="Ellipse_185" data-name="Ellipse 185" cx="47.175" cy="47.175" r="47.175" fill="#fff"/>
          </g>
          <g id="Group_4798" data-name="Group 4798" transform="translate(31.164 11.386)" opacity="0.07">
            <g id="Group_4797" data-name="Group 4797">
              <path id="Path_5362" data-name="Path 5362" d="M282.386,171A47.174,47.174,0,0,1,240.4,255.328,47.176,47.176,0,1,0,282.386,171Z" transform="translate(-240.4 -171)" fill="#2f4862"/>
            </g>
          </g>
          <g id="Group_4801" data-name="Group 4801" transform="translate(43.588 27.932)">
            <g id="Group_4799" data-name="Group 4799" transform="translate(7.638 12.709)">
              <path id="Path_5363" data-name="Path 5363" d="M308.1,284.588l.563,1.779a.9.9,0,0,0,1.127.593L352.876,273.2a.9.9,0,0,0,.593-1.127l-.563-1.779a.9.9,0,0,0-1.127-.593L308.7,283.461A.9.9,0,0,0,308.1,284.588Z" transform="translate(-308.062 -269.662)" fill="#3f60b2"/>
            </g>
            <g id="Group_4800" data-name="Group 4800">
              <path id="Path_5364" data-name="Path 5364" d="M293.776,249.751l-7.947-21.764a1.81,1.81,0,0,0-2.342-1.067h0a1.81,1.81,0,0,0-1.067,2.342l7.947,21.764a3.572,3.572,0,0,0-.623,3.558,3.63,3.63,0,1,0,4.033-4.833Z" transform="translate(-282.302 -226.802)" fill="#212940"/>
            </g>
          </g>
        </g>
      </g>
      <g id="Group_4805" data-name="Group 4805" transform="translate(0 25.695)">
        <g id="Group_4804" data-name="Group 4804" transform="translate(0.949 11.846)">
          <path id="Path_5365" data-name="Path 5365" d="M126.536,159.224a.806.806,0,0,0,0-.267c-.119-.83-.682-1.156-1.008-1.927-.148-.326.356-1.127-.385-1.245-.267-.03-.979-.059-1.572-.148a5.263,5.263,0,0,1-2.609-1.512,23.925,23.925,0,0,1-2.758-2.995,48.709,48.709,0,0,1-4.6-7.383,12.774,12.774,0,0,0,6.434-11.5,3.207,3.207,0,0,0-.326-1.394,2.394,2.394,0,0,0-.89-.83c-3.706-2.254-5.663,1.334-7.383,4.181a42.5,42.5,0,0,0-2.847,5.545c-1.127,2.669-.237,5.011,1.3,7.354a42.527,42.527,0,0,0,5.485,7.116,31.971,31.971,0,0,0,3.351,2.639c1.127.86.682,1.3,1.512,2.313a12.394,12.394,0,0,0,1.334,1.69c.978.83,2.283.534,3.44.385a1.428,1.428,0,0,0,.712-.208,1.973,1.973,0,0,0,.623-1.067C126.417,159.728,126.476,159.461,126.536,159.224Z" transform="translate(-108.089 -129.308)" fill="#eac5b0"/>
        </g>
        <path id="Path_5366" data-name="Path 5366" d="M118.887,90.408a30.246,30.246,0,0,0-10.7,13.254c-1.008,2.372-2.669,4.24-3.113,6.849a13.923,13.923,0,0,0,1.008,7.828c1.838,4.21,5.337,7.472,8.984,10.289.83-1.245,1.631-2.461,2.461-3.706a1.271,1.271,0,0,0,.3-.712,1.508,1.508,0,0,0-.267-.771c-1.156-2.105-2.342-4.21-3.5-6.316a4.083,4.083,0,0,1-.534-1.364c-.119-1.364,1.3-2.431,1.512-3.766a4.434,4.434,0,0,1,.385.326c-.119-.089,7.591-8.362,8.035-8.866,1.69-1.927,3.44-3.944,4.151-6.4A5.77,5.77,0,0,0,118.887,90.408Z" transform="translate(-104.887 -89.357)" fill="#a1bdeb"/>
      </g>
      <g id="Group_4807" data-name="Group 4807" transform="translate(105.654 63.15)">
        <g id="Group_4806" data-name="Group 4806" transform="translate(0 0)">
          <path id="Path_5367" data-name="Path 5367" d="M461.859,233.3a1.2,1.2,0,0,1-.148-.267c-.326-.919.059-1.572.03-2.55-.03-.415-.979-.978-.267-1.512.267-.208.978-.563,1.572-.978a6.55,6.55,0,0,0,1.927-2.965c.712-2.105.267-8.48,3.024-9.192,6.464-1.66.474,10.526.178,11.712-.178.771.237,1.512.237,2.313a7.175,7.175,0,0,1-.5,2.491c-.563,1.394-2.076,1.779-3.38,2.254a1.479,1.479,0,0,1-.86.148,2.525,2.525,0,0,1-1.245-.771A5.708,5.708,0,0,1,461.859,233.3Z" transform="translate(-461.21 -215.677)" fill="#eac5b0"/>
        </g>
      </g>
      <path id="Path_5368" data-name="Path 5368" d="M474.545,119.23c.237.326.474.8.83,1.334,1.927,2.876,2.758,7.265,3.44,10.615a49.113,49.113,0,0,1-.415,21.586.8.8,0,0,1-1.156.712c-1.6-.326-3.2-.652-4.833-.978a1.9,1.9,0,0,1-.978-.385c-.5-.445-.445-1.275-.356-1.957a54.068,54.068,0,0,0,.178-13.491c-.237-2.105-1.334-4.715-1.186-6.82.119-1.868,1.216-3.914,1.364-5.96.089-1.245.237-3.054,1.1-4.033C473.715,118.607,474.1,118.607,474.545,119.23Z" transform="translate(-361.777 -84.389)" fill="#d8e4f2"/>
    </g>
  </g>
</svg>
