<svg width="24" height="24" viewBox="0 0 24 24" fill="none" xmlns="http://www.w3.org/2000/svg">
<path d="M17.6846 13.9074C17.0965 13.3268 16.3624 13.3268 15.7781 13.9074C15.3323 14.3494 14.8866 14.7913 14.4484 15.2408C14.3285 15.3644 14.2274 15.3906 14.0813 15.3082C13.7929 15.1509 13.4857 15.0236 13.2086 14.8513C11.9163 14.0385 10.8338 12.9934 9.87496 11.8173C9.39926 11.233 8.976 10.6075 8.6801 9.90329C8.62017 9.76096 8.63141 9.66732 8.74752 9.5512C9.19325 9.12045 9.62774 8.67847 10.066 8.23649C10.6765 7.6222 10.6765 6.90304 10.0622 6.28501C9.71389 5.93292 9.36555 5.58832 9.01721 5.23624C8.65763 4.87665 8.30179 4.51333 7.93846 4.15749C7.3504 3.58441 6.61626 3.58441 6.03194 4.16124C5.58246 4.60322 5.15172 5.05644 4.69475 5.49094C4.27149 5.89172 4.05799 6.3824 4.01304 6.95548C3.94188 7.88814 4.17036 8.76836 4.49249 9.62611C5.15172 11.4015 6.15555 12.9785 7.37287 14.4243C9.01721 16.3795 10.9799 17.9264 13.276 19.0426C14.3098 19.5445 15.381 19.9303 16.5459 19.994C17.3475 20.039 18.0442 19.8367 18.6023 19.2112C18.9843 18.7842 19.4151 18.3946 19.8196 17.9864C20.4189 17.3796 20.4226 16.6454 19.8271 16.0461C19.1154 15.3307 18.4 14.619 17.6846 13.9074Z" fill="black"/>
</svg>
