<svg width="24" height="24" viewBox="0 0 24 24" fill="none" xmlns="http://www.w3.org/2000/svg">
<g clip-path="url(#clip0_255_7884)">
<path d="M16.6846 14.9074C16.0965 14.3268 15.3624 14.3268 14.7781 14.9074C14.3323 15.3494 13.8866 15.7913 13.4484 16.2408C13.3285 16.3644 13.2274 16.3906 13.0813 16.3082C12.7929 16.1509 12.4857 16.0236 12.2086 15.8513C10.9163 15.0385 9.83384 13.9934 8.87496 12.8173C8.39926 12.233 7.976 11.6075 7.6801 10.9033C7.62017 10.761 7.63141 10.6673 7.74752 10.5512C8.19325 10.1205 8.62774 9.67847 9.06598 9.23649C9.67652 8.6222 9.67652 7.90304 9.06224 7.28501C8.71389 6.93292 8.36555 6.58832 8.01721 6.23624C7.65763 5.87665 7.30179 5.51333 6.93846 5.15749C6.3504 4.58441 5.61626 4.58441 5.03194 5.16124C4.58246 5.60322 4.15172 6.05644 3.69475 6.49094C3.27149 6.89172 3.05799 7.3824 3.01304 7.95548C2.94188 8.88814 3.17036 9.76836 3.49249 10.6261C4.15172 12.4015 5.15555 13.9785 6.37287 15.4243C8.01721 17.3795 9.97992 18.9264 12.276 20.0426C13.3098 20.5445 14.381 20.9303 15.5459 20.994C16.3475 21.039 17.0442 20.8367 17.6023 20.2112C17.9843 19.7842 18.4151 19.3946 18.8196 18.9864C19.4189 18.3796 19.4226 17.6454 18.8271 17.0461C18.1154 16.3307 17.4 15.619 16.6846 14.9074Z" fill="black"/>
<path d="M15.969 11.9221L17.3511 11.6861C17.1338 10.4164 16.5345 9.26646 15.6244 8.35253C14.6617 7.3899 13.4444 6.78311 12.1035 6.59583L11.9087 7.98545C12.9462 8.13153 13.8901 8.59974 14.6355 9.34512C15.3397 10.0493 15.8004 10.9408 15.969 11.9221Z" fill="#B3B3B3"/>
<path d="M18.1302 5.9141C16.5346 4.31846 14.5157 3.31089 12.2871 3L12.0923 4.38963C14.0175 4.65931 15.763 5.53205 17.1414 6.90669C18.4486 8.21392 19.3064 9.86574 19.6173 11.6824L20.9994 11.4464C20.6361 9.34135 19.6435 7.43108 18.1302 5.9141Z" fill="#B3B3B3"/>
</g>
<defs>
<clipPath id="clip0_255_7884">
<rect width="18" height="18" fill="white" transform="translate(3 3)"/>
</clipPath>
</defs>
</svg>
