<svg xmlns="http://www.w3.org/2000/svg" width="88" height="88" viewBox="0 0 88 88">
  <g id="Group_6551" data-name="Group 6551" transform="translate(3256 9501)">
    <rect id="Rectangle_312" data-name="Rectangle 312" width="88" height="88" transform="translate(-3256 -9501)" fill="none"/>
    <path id="Path_1" data-name="Path 1" d="M11.5,67.73A11.523,11.523,0,0,1,0,56.219V40.171H8.417V56.219a3.064,3.064,0,0,0,3.064,3.06H71.043a3.06,3.06,0,0,0,3.06-3.06V40.171h8.451V56.219A11.5,11.5,0,0,1,71.068,67.725ZM37.066,53.26V14.418L23.384,28.1l-.6-.593L17.424,22.12l.6-.589L38.3,1.241a4.209,4.209,0,0,1,5.972,0L65.159,22.124,59.187,28.1,45.513,14.418V53.26Z" transform="translate(-3253.102 -9490.568)" fill="#313a53"/>
  </g>
</svg>
