<svg id="Layer_1" data-name="Layer 1" xmlns="http://www.w3.org/2000/svg" width="48" height="48" viewBox="0 0 48 48"><defs><style>.cls-1{fill:#f7f7f7;}.cls-2{fill:#1ed75f;}.cls-3{fill:#fff;}</style></defs><rect class="cls-1" width="48" height="48"/><path class="cls-2" d="M24.276,10.227A13.734,13.734,0,1,0,38.01,23.961,13.774,13.774,0,0,0,24.276,10.227Z"/><path class="cls-3" d="M30.594,30.072a.817.817,0,0,1-1.168.275c-3.227-1.991-7.279-2.4-12.086-1.3a.849.849,0,1,1-.412-1.648c5.219-1.167,9.751-.686,13.322,1.511A.822.822,0,0,1,30.594,30.072ZM32.242,26.3a1.036,1.036,0,0,1-1.442.343A17.8,17.8,0,0,0,17.134,25.06a1.043,1.043,0,0,1-.618-1.992,20.09,20.09,0,0,1,15.451,1.854A.971.971,0,0,1,32.242,26.3Zm.137-3.846c-4.395-2.609-11.742-2.884-15.931-1.579a1.26,1.26,0,1,1-.756-2.4c4.876-1.442,12.91-1.167,17.992,1.854a1.327,1.327,0,0,1,.48,1.786A1.439,1.439,0,0,1,32.379,22.45Z"/></svg>