<svg height="60" width="60" xmlns="http://www.w3.org/2000/svg">
				<path d="M 0 0 L 2 0 L 2 2 L 0 2 Z" fill="#000000" transform="matrix(1,0,0,1,0,0)"></path>
				<path d="M 0 0 L 2 0 L 2 2 L 0 2 Z" fill="#000000" transform="matrix(1,0,0,1,2,0)"></path>
				<path d="M 0 0 L 2 0 L 2 2 L 0 2 Z" fill="#000000" transform="matrix(1,0,0,1,4,0)"></path>
				<path d="M 0 0 L 2 0 L 2 2 L 0 2 Z" fill="#000000" transform="matrix(1,0,0,1,6,0)"></path>
				<path d="M 0 0 L 2 0 L 2 2 L 0 2 Z" fill="#000000" transform="matrix(1,0,0,1,8,0)"></path>
				<path d="M 0 0 L 2 0 L 2 2 L 0 2 Z" fill="#000000" transform="matrix(1,0,0,1,12,0)"></path>
				<path d="M 0 0 L 3 0 L 3 2 L 0 2 Z" fill="#FFFFFF" transform="matrix(1,0,0,1,14,0)"></path>
				<path d="M 0 0 L 2 0 L 2 2 L 0 2 Z" fill="#FFFFFF" transform="matrix(1,0,0,1,17,0)"></path>
				<path d="M 0 0 L 2 0 L 2 2 L 0 2 Z" fill="#FFFFFF" transform="matrix(1,0,0,1,19,0)"></path>
				<path d="M 0 0 L 2 0 L 2 2 L 0 2 Z" fill="#000000" transform="matrix(1,0,0,1,21,0)"></path>
				<path d="M 0 0 L 2 0 L 2 2 L 0 2 Z" fill="#000000" transform="matrix(1,0,0,1,23,0)"></path>
				<path d="M 0 0 L 2 0 L 2 2 L 0 2 Z" fill="#000000" transform="matrix(1,0,0,1,29,0)"></path>
				<path d="M 0 0 L 2 0 L 2 2 L 0 2 Z" fill="#000000" transform="matrix(1,0,0,1,31,0)"></path>
				<path d="M 0 0 L 2 0 L 2 2 L 0 2 Z" fill="#FFFFFF" transform="matrix(1,0,0,1,33,0)"></path>
				<path d="M 0 0 L 2 0 L 2 2 L 0 2 Z" fill="#000000" transform="matrix(1,0,0,1,35,0)"></path>
				<path d="M 0 0 L 2 0 L 2 2 L 0 2 Z" fill="#000000" transform="matrix(1,0,0,1,37,0)"></path>
				<path d="M 0 0 L 2 0 L 2 2 L 0 2 Z" fill="#000000" transform="matrix(1,0,0,1,39,0)"></path>
				<path d="M 0 0 L 2 0 L 2 2 L 0 2 Z" fill="#000000" transform="matrix(1,0,0,1,41,0)"></path>
				<path d="M 0 0 L 3 0 L 3 2 L 0 2 Z" fill="#FFFFFF" transform="matrix(1,0,0,1,43,0)"></path>
				<path d="M 0 0 L 2 0 L 2 2 L 0 2 Z" fill="#000000" transform="matrix(1,0,0,1,46,0)"></path>
				<path d="M 0 0 L 2 0 L 2 2 L 0 2 Z" fill="#000000" transform="matrix(1,0,0,1,48,0)"></path>
				<path d="M 0 0 L 2 0 L 2 2 L 0 2 Z" fill="#000000" transform="matrix(1,0,0,1,50,0)"></path>
				<path d="M 0 0 L 2 0 L 2 2 L 0 2 Z" fill="#000000" transform="matrix(1,0,0,1,52,0)"></path>
				<path d="M 0 0 L 2 0 L 2 2 L 0 2 Z" fill="#000000" transform="matrix(1,0,0,1,54,0)"></path>
				<path d="M 0 0 L 2 0 L 2 2 L 0 2 Z" fill="#000000" transform="matrix(1,0,0,1,56,0)"></path>
				<path d="M 0 0 L 2 0 L 2 2 L 0 2 Z" fill="#000000" transform="matrix(1,0,0,1,58,0)"></path>
				<path d="M 0 0 L 2 0 L 2 2 L 0 2 Z" fill="#000000" transform="matrix(1,0,0,1,0,2)"></path>
				<path d="M 0 0 L 2 0 L 2 2 L 0 2 Z" fill="#FFFFFF" transform="matrix(1,0,0,1,2,2)"></path>
				<path d="M 0 0 L 2 0 L 2 2 L 0 2 Z" fill="#FFFFFF" transform="matrix(1,0,0,1,4,2)"></path>
				<path d="M 0 0 L 2 0 L 2 2 L 0 2 Z" fill="#FFFFFF" transform="matrix(1,0,0,1,6,2)"></path>
				<path d="M 0 0 L 2 0 L 2 2 L 0 2 Z" fill="#FFFFFF" transform="matrix(1,0,0,1,8,2)"></path>
				<path d="M 0 0 L 2 0 L 2 2 L 0 2 Z" fill="#FFFFFF" transform="matrix(1,0,0,1,10,2)"></path>
				<path d="M 0 0 L 2 0 L 2 2 L 0 2 Z" fill="#000000" transform="matrix(1,0,0,1,12,2)"></path>
				<path d="M 0 0 L 3 0 L 3 2 L 0 2 Z" fill="#FFFFFF" transform="matrix(1,0,0,1,14,2)"></path>
				<path d="M 0 0 L 2 0 L 2 2 L 0 2 Z" fill="#000000" transform="matrix(1,0,0,1,17,2)"></path>
				<path d="M 0 0 L 2 0 L 2 2 L 0 2 Z" fill="#000000" transform="matrix(1,0,0,1,19,2)"></path>
				<path d="M 0 0 L 2 0 L 2 2 L 0 2 Z" fill="#FFFFFF" transform="matrix(1,0,0,1,21,2)"></path>
				<path d="M 0 0 L 2 0 L 2 2 L 0 2 Z" fill="#000000" transform="matrix(1,0,0,1,23,2)"></path>
				<path d="M 0 0 L 2 0 L 2 2 L 0 2 Z" fill="#000000" transform="matrix(1,0,0,1,25,2)"></path>
				<path d="M 0 0 L 2 0 L 2 2 L 0 2 Z" fill="#FFFFFF" transform="matrix(1,0,0,1,27,2)"></path>
				<path d="M 0 0 L 2 0 L 2 2 L 0 2 Z" fill="#FFFFFF" transform="matrix(1,0,0,1,29,2)"></path>
				<path d="M 0 0 L 2 0 L 2 2 L 0 2 Z" fill="#000000" transform="matrix(1,0,0,1,31,2)"></path>
				<path d="M 0 0 L 2 0 L 2 2 L 0 2 Z" fill="#FFFFFF" transform="matrix(1,0,0,1,33,2)"></path>
				<path d="M 0 0 L 2 0 L 2 2 L 0 2 Z" fill="#FFFFFF" transform="matrix(1,0,0,1,35,2)"></path>
				<path d="M 0 0 L 2 0 L 2 2 L 0 2 Z" fill="#000000" transform="matrix(1,0,0,1,37,2)"></path>
				<path d="M 0 0 L 2 0 L 2 2 L 0 2 Z" fill="#FFFFFF" transform="matrix(1,0,0,1,39,2)"></path>
				<path d="M 0 0 L 2 0 L 2 2 L 0 2 Z" fill="#FFFFFF" transform="matrix(1,0,0,1,41,2)"></path>
				<path d="M 0 0 L 3 0 L 3 2 L 0 2 Z" fill="#FFFFFF" transform="matrix(1,0,0,1,43,2)"></path>
				<path d="M 0 0 L 2 0 L 2 2 L 0 2 Z" fill="#000000" transform="matrix(1,0,0,1,46,2)"></path>
				<path d="M 0 0 L 2 0 L 2 2 L 0 2 Z" fill="#FFFFFF" transform="matrix(1,0,0,1,48,2)"></path>
				<path d="M 0 0 L 2 0 L 2 2 L 0 2 Z" fill="#FFFFFF" transform="matrix(1,0,0,1,50,2)"></path>
				<path d="M 0 0 L 2 0 L 2 2 L 0 2 Z" fill="#FFFFFF" transform="matrix(1,0,0,1,52,2)"></path>
				<path d="M 0 0 L 2 0 L 2 2 L 0 2 Z" fill="#FFFFFF" transform="matrix(1,0,0,1,54,2)"></path>
				<path d="M 0 0 L 2 0 L 2 2 L 0 2 Z" fill="#FFFFFF" transform="matrix(1,0,0,1,56,2)"></path>
				<path d="M 0 0 L 2 0 L 2 2 L 0 2 Z" fill="#000000" transform="matrix(1,0,0,1,58,2)"></path>
				<path d="M 0 0 L 2 0 L 2 2 L 0 2 Z" fill="#000000" transform="matrix(1,0,0,1,0,4)"></path>
				<path d="M 0 0 L 2 0 L 2 2 L 0 2 Z" fill="#FFFFFF" transform="matrix(1,0,0,1,2,4)"></path>
				<path d="M 0 0 L 2 0 L 2 2 L 0 2 Z" fill="#000000" transform="matrix(1,0,0,1,4,4)"></path>
				<path d="M 0 0 L 2 0 L 2 2 L 0 2 Z" fill="#000000" transform="matrix(1,0,0,1,6,4)"></path>
				<path d="M 0 0 L 2 0 L 2 2 L 0 2 Z" fill="#000000" transform="matrix(1,0,0,1,8,4)"></path>
				<path d="M 0 0 L 2 0 L 2 2 L 0 2 Z" fill="#000000" transform="matrix(1,0,0,1,17,4)"></path>
				<path d="M 0 0 L 2 0 L 2 2 L 0 2 Z" fill="#FFFFFF" transform="matrix(1,0,0,1,19,4)"></path>
				<path d="M 0 0 L 2 0 L 2 2 L 0 2 Z" fill="#FFFFFF" transform="matrix(1,0,0,1,21,4)"></path>
				<path d="M 0 0 L 2 0 L 2 2 L 0 2 Z" fill="#000000" transform="matrix(1,0,0,1,23,4)"></path>
				<path d="M 0 0 L 2 0 L 2 2 L 0 2 Z" fill="#FFFFFF" transform="matrix(1,0,0,1,25,4)"></path>
				<path d="M 0 0 L 2 0 L 2 2 L 0 2 Z" fill="#FFFFFF" transform="matrix(1,0,0,1,27,4)"></path>
				<path d="M 0 0 L 2 0 L 2 2 L 0 2 Z" fill="#000000" transform="matrix(1,0,0,1,29,4)"></path>
				<path d="M 0 0 L 2 0 L 2 2 L 0 2 Z" fill="#000000" transform="matrix(1,0,0,1,31,4)"></path>
				<path d="M 0 0 L 2 0 L 2 2 L 0 2 Z" fill="#000000" transform="matrix(1,0,0,1,33,4)"></path>
				<path d="M 0 0 L 2 0 L 2 2 L 0 2 Z" fill="#000000" transform="matrix(1,0,0,1,35,4)"></path>
				<path d="M 0 0 L 2 0 L 2 2 L 0 2 Z" fill="#000000" transform="matrix(1,0,0,1,37,4)"></path>
				<path d="M 0 0 L 2 0 L 2 2 L 0 2 Z" fill="#FFFFFF" transform="matrix(1,0,0,1,39,4)"></path>
				<path d="M 0 0 L 2 0 L 2 2 L 0 2 Z" fill="#FFFFFF" transform="matrix(1,0,0,1,41,4)"></path>
				<path d="M 0 0 L 2 0 L 2 2 L 0 2 Z" fill="#FFFFFF" transform="matrix(1,0,0,1,48,4)"></path>
				<path d="M 0 0 L 2 0 L 2 2 L 0 2 Z" fill="#000000" transform="matrix(1,0,0,1,50,4)"></path>
				<path d="M 0 0 L 2 0 L 2 2 L 0 2 Z" fill="#000000" transform="matrix(1,0,0,1,52,4)"></path>
				<path d="M 0 0 L 2 0 L 2 2 L 0 2 Z" fill="#000000" transform="matrix(1,0,0,1,54,4)"></path>
				<path d="M 0 0 L 2 0 L 2 2 L 0 2 Z" fill="#FFFFFF" transform="matrix(1,0,0,1,56,4)"></path>
				<path d="M 0 0 L 2 0 L 2 2 L 0 2 Z" fill="#000000" transform="matrix(1,0,0,1,58,4)"></path>
				<path d="M 0 0 L 2 0 L 2 2 L 0 2 Z" fill="#000000" transform="matrix(1,0,0,1,0,6)"></path>
				<path d="M 0 0 L 2 0 L 2 2 L 0 2 Z" fill="#FFFFFF" transform="matrix(1,0,0,1,2,6)"></path>
				<path d="M 0 0 L 2 0 L 2 2 L 0 2 Z" fill="#000000" transform="matrix(1,0,0,1,4,6)"></path>
				<path d="M 0 0 L 2 0 L 2 2 L 0 2 Z" fill="#000000" transform="matrix(1,0,0,1,6,6)"></path>
				<path d="M 0 0 L 2 0 L 2 2 L 0 2 Z" fill="#000000" transform="matrix(1,0,0,1,8,6)"></path>
				<path d="M 0 0 L 2 0 L 2 2 L 0 2 Z" fill="#FFFFFF" transform="matrix(1,0,0,1,10,6)"></path>
				<path d="M 0 0 L 2 0 L 2 2 L 0 2 Z" fill="#000000" transform="matrix(1,0,0,1,12,6)"></path>
				<path d="M 0 0 L 3 0 L 3 2 L 0 2 Z" fill="#FFFFFF" transform="matrix(1,0,0,1,14,6)"></path>
				<path d="M 0 0 L 2 0 L 2 2 L 0 2 Z" fill="#FFFFFF" transform="matrix(1,0,0,1,17,6)"></path>
				<path d="M 0 0 L 2 0 L 2 2 L 0 2 Z" fill="#000000" transform="matrix(1,0,0,1,19,6)"></path>
				<path d="M 0 0 L 2 0 L 2 2 L 0 2 Z" fill="#FFFFFF" transform="matrix(1,0,0,1,21,6)"></path>
				<path d="M 0 0 L 2 0 L 2 2 L 0 2 Z" fill="#000000" transform="matrix(1,0,0,1,23,6)"></path>
				<path d="M 0 0 L 2 0 L 2 2 L 0 2 Z" fill="#000000" transform="matrix(1,0,0,1,25,6)"></path>
				<path d="M 0 0 L 2 0 L 2 2 L 0 2 Z" fill="#FFFFFF" transform="matrix(1,0,0,1,27,6)"></path>
				<path d="M 0 0 L 2 0 L 2 2 L 0 2 Z" fill="#000000" transform="matrix(1,0,0,1,29,6)"></path>
				<path d="M 0 0 L 2 0 L 2 2 L 0 2 Z" fill="#000000" transform="matrix(1,0,0,1,31,6)"></path>
				<path d="M 0 0 L 2 0 L 2 2 L 0 2 Z" fill="#000000" transform="matrix(1,0,0,1,33,6)"></path>
				<path d="M 0 0 L 2 0 L 2 2 L 0 2 Z" fill="#FFFFFF" transform="matrix(1,0,0,1,35,6)"></path>
				<path d="M 0 0 L 2 0 L 2 2 L 0 2 Z" fill="#000000" transform="matrix(1,0,0,1,37,6)"></path>
				<path d="M 0 0 L 2 0 L 2 2 L 0 2 Z" fill="#FFFFFF" transform="matrix(1,0,0,1,39,6)"></path>
				<path d="M 0 0 L 2 0 L 2 2 L 0 2 Z" fill="#000000" transform="matrix(1,0,0,1,41,6)"></path>
				<path d="M 0 0 L 3 0 L 3 2 L 0 2 Z" fill="#FFFFFF" transform="matrix(1,0,0,1,43,6)"></path>
				<path d="M 0 0 L 2 0 L 2 2 L 0 2 Z" fill="#000000" transform="matrix(1,0,0,1,46,6)"></path>
				<path d="M 0 0 L 2 0 L 2 2 L 0 2 Z" fill="#FFFFFF" transform="matrix(1,0,0,1,48,6)"></path>
				<path d="M 0 0 L 2 0 L 2 2 L 0 2 Z" fill="#000000" transform="matrix(1,0,0,1,50,6)"></path>
				<path d="M 0 0 L 2 0 L 2 2 L 0 2 Z" fill="#000000" transform="matrix(1,0,0,1,52,6)"></path>
				<path d="M 0 0 L 2 0 L 2 2 L 0 2 Z" fill="#000000" transform="matrix(1,0,0,1,54,6)"></path>
				<path d="M 0 0 L 2 0 L 2 2 L 0 2 Z" fill="#FFFFFF" transform="matrix(1,0,0,1,56,6)"></path>
				<path d="M 0 0 L 2 0 L 2 2 L 0 2 Z" fill="#000000" transform="matrix(1,0,0,1,58,6)"></path>
				<path d="M 0 0 L 2 0 L 2 2 L 0 2 Z" fill="#000000" transform="matrix(1,0,0,1,0,8)"></path>
				<path d="M 0 0 L 2 0 L 2 2 L 0 2 Z" fill="#FFFFFF" transform="matrix(1,0,0,1,2,8)"></path>
				<path d="M 0 0 L 2 0 L 2 2 L 0 2 Z" fill="#000000" transform="matrix(1,0,0,1,4,8)"></path>
				<path d="M 0 0 L 2 0 L 2 2 L 0 2 Z" fill="#000000" transform="matrix(1,0,0,1,6,8)"></path>
				<path d="M 0 0 L 2 0 L 2 2 L 0 2 Z" fill="#000000" transform="matrix(1,0,0,1,8,8)"></path>
				<path d="M 0 0 L 2 0 L 2 2 L 0 2 Z" fill="#FFFFFF" transform="matrix(1,0,0,1,10,8)"></path>
				<path d="M 0 0 L 2 0 L 2 2 L 0 2 Z" fill="#000000" transform="matrix(1,0,0,1,12,8)"></path>
				<path d="M 0 0 L 3 0 L 3 2 L 0 2 Z" fill="#FFFFFF" transform="matrix(1,0,0,1,14,8)"></path>
				<path d="M 0 0 L 2 0 L 2 2 L 0 2 Z" fill="#000000" transform="matrix(1,0,0,1,17,8)"></path>
				<path d="M 0 0 L 2 0 L 2 2 L 0 2 Z" fill="#000000" transform="matrix(1,0,0,1,19,8)"></path>
				<path d="M 0 0 L 2 0 L 2 2 L 0 2 Z" fill="#FFFFFF" transform="matrix(1,0,0,1,21,8)"></path>
				<path d="M 0 0 L 2 0 L 2 2 L 0 2 Z" fill="#000000" transform="matrix(1,0,0,1,23,8)"></path>
				<path d="M 0 0 L 2 0 L 2 2 L 0 2 Z" fill="#FFFFFF" transform="matrix(1,0,0,1,25,8)"></path>
				<path d="M 0 0 L 2 0 L 2 2 L 0 2 Z" fill="#000000" transform="matrix(1,0,0,1,27,8)"></path>
				<path d="M 0 0 L 2 0 L 2 2 L 0 2 Z" fill="#FFFFFF" transform="matrix(1,0,0,1,29,8)"></path>
				<path d="M 0 0 L 2 0 L 2 2 L 0 2 Z" fill="#000000" transform="matrix(1,0,0,1,31,8)"></path>
				<path d="M 0 0 L 2 0 L 2 2 L 0 2 Z" fill="#000000" transform="matrix(1,0,0,1,33,8)"></path>
				<path d="M 0 0 L 2 0 L 2 2 L 0 2 Z" fill="#FFFFFF" transform="matrix(1,0,0,1,41,8)"></path>
				<path d="M 0 0 L 3 0 L 3 2 L 0 2 Z" fill="#FFFFFF" transform="matrix(1,0,0,1,43,8)"></path>
				<path d="M 0 0 L 2 0 L 2 2 L 0 2 Z" fill="#000000" transform="matrix(1,0,0,1,46,8)"></path>
				<path d="M 0 0 L 2 0 L 2 2 L 0 2 Z" fill="#FFFFFF" transform="matrix(1,0,0,1,48,8)"></path>
				<path d="M 0 0 L 2 0 L 2 2 L 0 2 Z" fill="#000000" transform="matrix(1,0,0,1,50,8)"></path>
				<path d="M 0 0 L 2 0 L 2 2 L 0 2 Z" fill="#000000" transform="matrix(1,0,0,1,52,8)"></path>
				<path d="M 0 0 L 2 0 L 2 2 L 0 2 Z" fill="#000000" transform="matrix(1,0,0,1,54,8)"></path>
				<path d="M 0 0 L 2 0 L 2 2 L 0 2 Z" fill="#FFFFFF" transform="matrix(1,0,0,1,56,8)"></path>
				<path d="M 0 0 L 2 0 L 2 2 L 0 2 Z" fill="#000000" transform="matrix(1,0,0,1,58,8)"></path>
				<path d="M 0 0 L 2 0 L 2 2 L 0 2 Z" fill="#000000" transform="matrix(1,0,0,1,0,10)"></path>
				<path d="M 0 0 L 2 0 L 2 2 L 0 2 Z" fill="#FFFFFF" transform="matrix(1,0,0,1,2,10)"></path>
				<path d="M 0 0 L 2 0 L 2 2 L 0 2 Z" fill="#FFFFFF" transform="matrix(1,0,0,1,4,10)"></path>
				<path d="M 0 0 L 2 0 L 2 2 L 0 2 Z" fill="#FFFFFF" transform="matrix(1,0,0,1,6,10)"></path>
				<path d="M 0 0 L 2 0 L 2 2 L 0 2 Z" fill="#FFFFFF" transform="matrix(1,0,0,1,8,10)"></path>
				<path d="M 0 0 L 2 0 L 2 2 L 0 2 Z" fill="#FFFFFF" transform="matrix(1,0,0,1,10,10)"></path>
				<path d="M 0 0 L 2 0 L 2 2 L 0 2 Z" fill="#000000" transform="matrix(1,0,0,1,12,10)"></path>
				<path d="M 0 0 L 3 0 L 3 2 L 0 2 Z" fill="#FFFFFF" transform="matrix(1,0,0,1,14,10)"></path>
				<path d="M 0 0 L 2 0 L 2 2 L 0 2 Z" fill="#000000" transform="matrix(1,0,0,1,17,10)"></path>
				<path d="M 0 0 L 2 0 L 2 2 L 0 2 Z" fill="#FFFFFF" transform="matrix(1,0,0,1,19,10)"></path>
				<path d="M 0 0 L 2 0 L 2 2 L 0 2 Z" fill="#000000" transform="matrix(1,0,0,1,21,10)"></path>
				<path d="M 0 0 L 2 0 L 2 2 L 0 2 Z" fill="#FFFFFF" transform="matrix(1,0,0,1,23,10)"></path>
				<path d="M 0 0 L 2 0 L 2 2 L 0 2 Z" fill="#FFFFFF" transform="matrix(1,0,0,1,25,10)"></path>
				<path d="M 0 0 L 2 0 L 2 2 L 0 2 Z" fill="#000000" transform="matrix(1,0,0,1,27,10)"></path>
				<path d="M 0 0 L 2 0 L 2 2 L 0 2 Z" fill="#FFFFFF" transform="matrix(1,0,0,1,29,10)"></path>
				<path d="M 0 0 L 2 0 L 2 2 L 0 2 Z" fill="#000000" transform="matrix(1,0,0,1,31,10)"></path>
				<path d="M 0 0 L 2 0 L 2 2 L 0 2 Z" fill="#FFFFFF" transform="matrix(1,0,0,1,33,10)"></path>
				<path d="M 0 0 L 2 0 L 2 2 L 0 2 Z" fill="#000000" transform="matrix(1,0,0,1,35,10)"></path>
				<path d="M 0 0 L 2 0 L 2 2 L 0 2 Z" fill="#FFFFFF" transform="matrix(1,0,0,1,37,10)"></path>
				<path d="M 0 0 L 2 0 L 2 2 L 0 2 Z" fill="#000000" transform="matrix(1,0,0,1,39,10)"></path>
				<path d="M 0 0 L 2 0 L 2 2 L 0 2 Z" fill="#FFFFFF" transform="matrix(1,0,0,1,41,10)"></path>
				<path d="M 0 0 L 3 0 L 3 2 L 0 2 Z" fill="#FFFFFF" transform="matrix(1,0,0,1,43,10)"></path>
				<path d="M 0 0 L 2 0 L 2 2 L 0 2 Z" fill="#000000" transform="matrix(1,0,0,1,46,10)"></path>
				<path d="M 0 0 L 2 0 L 2 2 L 0 2 Z" fill="#FFFFFF" transform="matrix(1,0,0,1,48,10)"></path>
				<path d="M 0 0 L 2 0 L 2 2 L 0 2 Z" fill="#FFFFFF" transform="matrix(1,0,0,1,50,10)"></path>
				<path d="M 0 0 L 2 0 L 2 2 L 0 2 Z" fill="#FFFFFF" transform="matrix(1,0,0,1,52,10)"></path>
				<path d="M 0 0 L 2 0 L 2 2 L 0 2 Z" fill="#FFFFFF" transform="matrix(1,0,0,1,54,10)"></path>
				<path d="M 0 0 L 2 0 L 2 2 L 0 2 Z" fill="#FFFFFF" transform="matrix(1,0,0,1,56,10)"></path>
				<path d="M 0 0 L 2 0 L 2 2 L 0 2 Z" fill="#000000" transform="matrix(1,0,0,1,10,12)"></path>
				<path d="M 0 0 L 2 0 L 2 2 L 0 2 Z" fill="#000000" transform="matrix(1,0,0,1,12,12)"></path>
				<path d="M 0 0 L 3 0 L 3 2 L 0 2 Z" fill="#FFFFFF" transform="matrix(1,0,0,1,14,12)"></path>
				<path d="M 0 0 L 2 0 L 2 2 L 0 2 Z" fill="#000000" transform="matrix(1,0,0,1,17,12)"></path>
				<path d="M 0 0 L 2 0 L 2 2 L 0 2 Z" fill="#FFFFFF" transform="matrix(1,0,0,1,19,12)"></path>
				<path d="M 0 0 L 2 0 L 2 2 L 0 2 Z" fill="#000000" transform="matrix(1,0,0,1,21,12)"></path>
				<path d="M 0 0 L 2 0 L 2 2 L 0 2 Z" fill="#000000" transform="matrix(1,0,0,1,0,12)"></path>
				<path d="M 0 0 L 2 0 L 2 2 L 0 2 Z" fill="#000000" transform="matrix(1,0,0,1,2,12)"></path>
				<path d="M 0 0 L 2 0 L 2 2 L 0 2 Z" fill="#000000" transform="matrix(1,0,0,1,4,12)"></path>
				<path d="M 0 0 L 2 0 L 2 2 L 0 2 Z" fill="#000000" transform="matrix(1,0,0,1,6,12)"></path>
				<path d="M 0 0 L 2 0 L 2 2 L 0 2 Z" fill="#000000" transform="matrix(1,0,0,1,8,12)"></path>
				<path d="M 0 0 L 2 0 L 2 2 L 0 2 Z" fill="#FFFFFF" transform="matrix(1,0,0,1,23,12)"></path>
				<path d="M 0 0 L 2 0 L 2 2 L 0 2 Z" fill="#000000" transform="matrix(1,0,0,1,25,12)"></path>
				<path d="M 0 0 L 2 0 L 2 2 L 0 2 Z" fill="#FFFFFF" transform="matrix(1,0,0,1,27,12)"></path>
				<path d="M 0 0 L 2 0 L 2 2 L 0 2 Z" fill="#000000" transform="matrix(1,0,0,1,29,12)"></path>
				<path d="M 0 0 L 2 0 L 2 2 L 0 2 Z" fill="#FFFFFF" transform="matrix(1,0,0,1,35,8)"></path>
				<path d="M 0 0 L 2 0 L 2 2 L 0 2 Z" fill="#000000" transform="matrix(1,0,0,1,37,8)"></path>
				<path d="M 0 0 L 2 0 L 2 2 L 0 2 Z" fill="#FFFFFF" transform="matrix(1,0,0,1,39,8)"></path>
				<path d="M 0 0 L 2 0 L 2 2 L 0 2 Z" fill="#FFFFFF" transform="matrix(1,0,0,1,31,12)"></path>
				<path d="M 0 0 L 2 0 L 2 2 L 0 2 Z" fill="#000000" transform="matrix(1,0,0,1,33,12)"></path>
				<path d="M 0 0 L 2 0 L 2 2 L 0 2 Z" fill="#FFFFFF" transform="matrix(1,0,0,1,35,12)"></path>
				<path d="M 0 0 L 2 0 L 2 2 L 0 2 Z" fill="#000000" transform="matrix(1,0,0,1,37,12)"></path>
				<path d="M 0 0 L 2 0 L 2 2 L 0 2 Z" fill="#FFFFFF" transform="matrix(1,0,0,1,39,12)"></path>
				<path d="M 0 0 L 2 0 L 2 2 L 0 2 Z" fill="#000000" transform="matrix(1,0,0,1,41,12)"></path>
				<path d="M 0 0 L 3 0 L 3 2 L 0 2 Z" fill="#FFFFFF" transform="matrix(1,0,0,1,43,12)"></path>
				<path d="M 0 0 L 2 0 L 2 2 L 0 2 Z" fill="#000000" transform="matrix(1,0,0,1,46,12)"></path>
				<path d="M 0 0 L 2 0 L 2 2 L 0 2 Z" fill="#000000" transform="matrix(1,0,0,1,48,12)"></path>
				<path d="M 0 0 L 2 0 L 2 2 L 0 2 Z" fill="#000000" transform="matrix(1,0,0,1,50,12)"></path>
				<path d="M 0 0 L 2 0 L 2 2 L 0 2 Z" fill="#000000" transform="matrix(1,0,0,1,52,12)"></path>
				<path d="M 0 0 L 2 0 L 2 2 L 0 2 Z" fill="#000000" transform="matrix(1,0,0,1,54,12)"></path>
				<path d="M 0 0 L 2 0 L 2 2 L 0 2 Z" fill="#000000" transform="matrix(1,0,0,1,56,12)"></path>
				<path d="M 0 0 L 2 0 L 2 2 L 0 2 Z" fill="#000000" transform="matrix(1,0,0,1,58,12)"></path>
				<path d="M 0 0 L 2 0 L 2 3 L 0 3 Z" fill="#FFFFFF" transform="matrix(1,0,0,1,0,14)"></path>
				<path d="M 0 0 L 2 0 L 2 3 L 0 3 Z" fill="#FFFFFF" transform="matrix(1,0,0,1,2,14)"></path>
				<path d="M 0 0 L 3 0 L 3 3 L 0 3 Z" fill="#FFFFFF" transform="matrix(1,0,0,1,14,14)"></path>
				<path d="M 0 0 L 2 0 L 2 3 L 0 3 Z" fill="#000000" transform="matrix(1,0,0,1,17,14)"></path>
				<path d="M 0 0 L 2 0 L 2 3 L 0 3 Z" fill="#FFFFFF" transform="matrix(1,0,0,1,19,14)"></path>
				<path d="M 0 0 L 2 0 L 2 3 L 0 3 Z" fill="#000000" transform="matrix(1,0,0,1,21,14)"></path>
				<path d="M 0 0 L 2 0 L 2 3 L 0 3 Z" fill="#FFFFFF" transform="matrix(1,0,0,1,23,14)"></path>
				<path d="M 0 0 L 2 0 L 2 3 L 0 3 Z" fill="#FFFFFF" transform="matrix(1,0,0,1,27,14)"></path>
				<path d="M 0 0 L 2 0 L 2 3 L 0 3 Z" fill="#FFFFFF" transform="matrix(1,0,0,1,29,14)"></path>
				<path d="M 0 0 L 2 0 L 2 3 L 0 3 Z" fill="#FFFFFF" transform="matrix(1,0,0,1,31,14)"></path>
				<path d="M 0 0 L 2 0 L 2 3 L 0 3 Z" fill="#FFFFFF" transform="matrix(1,0,0,1,33,14)"></path>
				<path d="M 0 0 L 2 0 L 2 3 L 0 3 Z" fill="#000000" transform="matrix(1,0,0,1,35,14)"></path>
				<path d="M 0 0 L 2 0 L 2 3 L 0 3 Z" fill="#000000" transform="matrix(1,0,0,1,37,14)"></path>
				<path d="M 0 0 L 2 0 L 2 3 L 0 3 Z" fill="#000000" transform="matrix(1,0,0,1,39,14)"></path>
				<path d="M 0 0 L 2 0 L 2 3 L 0 3 Z" fill="#000000" transform="matrix(1,0,0,1,41,14)"></path>
				<path d="M 0 0 L 3 0 L 3 3 L 0 3 Z" fill="#FFFFFF" transform="matrix(1,0,0,1,43,14)"></path>
				<path d="M 0 0 L 2 0 L 2 3 L 0 3 Z" fill="#FFFFFF" transform="matrix(1,0,0,1,46,14)"></path>
				<path d="M 0 0 L 2 0 L 2 3 L 0 3 Z" fill="#FFFFFF" transform="matrix(1,0,0,1,48,14)"></path>
				<path d="M 0 0 L 2 0 L 2 3 L 0 3 Z" fill="#FFFFFF" transform="matrix(1,0,0,1,50,14)"></path>
				<path d="M 0 0 L 2 0 L 2 3 L 0 3 Z" fill="#FFFFFF" transform="matrix(1,0,0,1,52,14)"></path>
				<path d="M 0 0 L 2 0 L 2 3 L 0 3 Z" fill="#FFFFFF" transform="matrix(1,0,0,1,54,14)"></path>
				<path d="M 0 0 L 2 0 L 2 3 L 0 3 Z" fill="#FFFFFF" transform="matrix(1,0,0,1,56,14)"></path>
				<path d="M 0 0 L 2 0 L 2 3 L 0 3 Z" fill="#FFFFFF" transform="matrix(1,0,0,1,58,14)"></path>
				<path d="M 0 0 L 2 0 L 2 2 L 0 2 Z" fill="#000000" transform="matrix(1,0,0,1,0,17)"></path>
				<path d="M 0 0 L 2 0 L 2 2 L 0 2 Z" fill="#000000" transform="matrix(1,0,0,1,2,17)"></path>
				<path d="M 0 0 L 2 0 L 2 2 L 0 2 Z" fill="#FFFFFF" transform="matrix(1,0,0,1,4,17)"></path>
				<path d="M 0 0 L 2 0 L 2 2 L 0 2 Z" fill="#000000" transform="matrix(1,0,0,1,6,17)"></path>
				<path d="M 0 0 L 2 0 L 2 2 L 0 2 Z" fill="#FFFFFF" transform="matrix(1,0,0,1,8,17)"></path>
				<path d="M 0 0 L 2 0 L 2 2 L 0 2 Z" fill="#FFFFFF" transform="matrix(1,0,0,1,10,17)"></path>
				<path d="M 0 0 L 2 0 L 2 2 L 0 2 Z" fill="#000000" transform="matrix(1,0,0,1,12,17)"></path>
				<path d="M 0 0 L 3 0 L 3 2 L 0 2 Z" fill="#000000" transform="matrix(1,0,0,1,14,17)"></path>
				<path d="M 0 0 L 2 0 L 2 2 L 0 2 Z" fill="#FFFFFF" transform="matrix(1,0,0,1,17,17)"></path>
				<path d="M 0 0 L 2 0 L 2 2 L 0 2 Z" fill="#FFFFFF" transform="matrix(1,0,0,1,19,17)"></path>
				<path d="M 0 0 L 2 0 L 2 2 L 0 2 Z" fill="#FFFFFF" transform="matrix(1,0,0,1,21,17)"></path>
				<path d="M 0 0 L 2 0 L 2 2 L 0 2 Z" fill="#000000" transform="matrix(1,0,0,1,23,17)"></path>
				<path d="M 0 0 L 2 0 L 2 2 L 0 2 Z" fill="#FFFFFF" transform="matrix(1,0,0,1,25,17)"></path>
				<path d="M 0 0 L 2 0 L 2 2 L 0 2 Z" fill="#000000" transform="matrix(1,0,0,1,27,17)"></path>
				<path d="M 0 0 L 2 0 L 2 2 L 0 2 Z" fill="#000000" transform="matrix(1,0,0,1,29,17)"></path>
				<path d="M 0 0 L 2 0 L 2 2 L 0 2 Z" fill="#000000" transform="matrix(1,0,0,1,31,17)"></path>
				<path d="M 0 0 L 2 0 L 2 2 L 0 2 Z" fill="#000000" transform="matrix(1,0,0,1,33,17)"></path>
				<path d="M 0 0 L 2 0 L 2 2 L 0 2 Z" fill="#FFFFFF" transform="matrix(1,0,0,1,35,17)"></path>
				<path d="M 0 0 L 2 0 L 2 2 L 0 2 Z" fill="#FFFFFF" transform="matrix(1,0,0,1,37,17)"></path>
				<path d="M 0 0 L 2 0 L 2 2 L 0 2 Z" fill="#000000" transform="matrix(1,0,0,1,39,17)"></path>
				<path d="M 0 0 L 2 0 L 2 2 L 0 2 Z" fill="#FFFFFF" transform="matrix(1,0,0,1,41,17)"></path>
				<path d="M 0 0 L 3 0 L 3 2 L 0 2 Z" fill="#FFFFFF" transform="matrix(1,0,0,1,43,17)"></path>
				<path d="M 0 0 L 2 0 L 2 2 L 0 2 Z" fill="#000000" transform="matrix(1,0,0,1,46,17)"></path>
				<path d="M 0 0 L 2 0 L 2 2 L 0 2 Z" fill="#000000" transform="matrix(1,0,0,1,48,17)"></path>
				<path d="M 0 0 L 2 0 L 2 2 L 0 2 Z" fill="#000000" transform="matrix(1,0,0,1,50,17)"></path>
				<path d="M 0 0 L 2 0 L 2 2 L 0 2 Z" fill="#FFFFFF" transform="matrix(1,0,0,1,52,17)"></path>
				<path d="M 0 0 L 2 0 L 2 2 L 0 2 Z" fill="#000000" transform="matrix(1,0,0,1,54,17)"></path>
				<path d="M 0 0 L 2 0 L 2 2 L 0 2 Z" fill="#000000" transform="matrix(1,0,0,1,56,17)"></path>
				<path d="M 0 0 L 2 0 L 2 2 L 0 2 Z" fill="#FFFFFF" transform="matrix(1,0,0,1,58,17)"></path>
				<path d="M 0 0 L 2 0 L 2 2 L 0 2 Z" fill="#000000" transform="matrix(1,0,0,1,0,19)"></path>
				<path d="M 0 0 L 2 0 L 2 2 L 0 2 Z" fill="#000000" transform="matrix(1,0,0,1,2,19)"></path>
				<path d="M 0 0 L 2 0 L 2 2 L 0 2 Z" fill="#000000" transform="matrix(1,0,0,1,4,19)"></path>
				<path d="M 0 0 L 2 0 L 2 2 L 0 2 Z" fill="#FFFFFF" transform="matrix(1,0,0,1,6,19)"></path>
				<path d="M 0 0 L 2 0 L 2 2 L 0 2 Z" fill="#FFFFFF" transform="matrix(1,0,0,1,8,19)"></path>
				<path d="M 0 0 L 2 0 L 2 2 L 0 2 Z" fill="#000000" transform="matrix(1,0,0,1,10,19)"></path>
				<path d="M 0 0 L 2 0 L 2 2 L 0 2 Z" fill="#FFFFFF" transform="matrix(1,0,0,1,12,19)"></path>
				<path d="M 0 0 L 3 0 L 3 2 L 0 2 Z" fill="#FFFFFF" transform="matrix(1,0,0,1,14,19)"></path>
				<path d="M 0 0 L 2 0 L 2 2 L 0 2 Z" fill="#000000" transform="matrix(1,0,0,1,17,19)"></path>
				<path d="M 0 0 L 2 0 L 2 2 L 0 2 Z" fill="#000000" transform="matrix(1,0,0,1,19,19)"></path>
				<path d="M 0 0 L 2 0 L 2 2 L 0 2 Z" fill="#FFFFFF" transform="matrix(1,0,0,1,21,19)"></path>
				<path d="M 0 0 L 2 0 L 2 2 L 0 2 Z" fill="#FFFFFF" transform="matrix(1,0,0,1,23,19)"></path>
				<path d="M 0 0 L 2 0 L 2 2 L 0 2 Z" fill="#000000" transform="matrix(1,0,0,1,25,19)"></path>
				<path d="M 0 0 L 2 0 L 2 2 L 0 2 Z" fill="#000000" transform="matrix(1,0,0,1,27,19)"></path>
				<path d="M 0 0 L 2 0 L 2 2 L 0 2 Z" fill="#FFFFFF" transform="matrix(1,0,0,1,29,19)"></path>
				<path d="M 0 0 L 2 0 L 2 2 L 0 2 Z" fill="#FFFFFF" transform="matrix(1,0,0,1,31,19)"></path>
				<path d="M 0 0 L 2 0 L 2 2 L 0 2 Z" fill="#000000" transform="matrix(1,0,0,1,33,19)"></path>
				<path d="M 0 0 L 2 0 L 2 2 L 0 2 Z" fill="#FFFFFF" transform="matrix(1,0,0,1,35,19)"></path>
				<path d="M 0 0 L 2 0 L 2 2 L 0 2 Z" fill="#FFFFFF" transform="matrix(1,0,0,1,37,19)"></path>
				<path d="M 0 0 L 2 0 L 2 2 L 0 2 Z" fill="#FFFFFF" transform="matrix(1,0,0,1,39,19)"></path>
				<path d="M 0 0 L 2 0 L 2 2 L 0 2 Z" fill="#000000" transform="matrix(1,0,0,1,41,19)"></path>
				<path d="M 0 0 L 3 0 L 3 2 L 0 2 Z" fill="#000000" transform="matrix(1,0,0,1,43,19)"></path>
				<path d="M 0 0 L 2 0 L 2 2 L 0 2 Z" fill="#000000" transform="matrix(1,0,0,1,46,19)"></path>
				<path d="M 0 0 L 2 0 L 2 2 L 0 2 Z" fill="#FFFFFF" transform="matrix(1,0,0,1,48,19)"></path>
				<path d="M 0 0 L 2 0 L 2 2 L 0 2 Z" fill="#FFFFFF" transform="matrix(1,0,0,1,50,19)"></path>
				<path d="M 0 0 L 2 0 L 2 2 L 0 2 Z" fill="#000000" transform="matrix(1,0,0,1,52,19)"></path>
				<path d="M 0 0 L 2 0 L 2 2 L 0 2 Z" fill="#FFFFFF" transform="matrix(1,0,0,1,56,19)"></path>
				<path d="M 0 0 L 2 0 L 2 2 L 0 2 Z" fill="#000000" transform="matrix(1,0,0,1,58,19)"></path>
				<path d="M 0 0 L 2 0 L 2 2 L 0 2 Z" fill="#000000" transform="matrix(1,0,0,1,0,21)"></path>
				<path d="M 0 0 L 2 0 L 2 2 L 0 2 Z" fill="#000000" transform="matrix(1,0,0,1,2,21)"></path>
				<path d="M 0 0 L 2 0 L 2 2 L 0 2 Z" fill="#FFFFFF" transform="matrix(1,0,0,1,4,21)"></path>
				<path d="M 0 0 L 2 0 L 2 2 L 0 2 Z" fill="#FFFFFF" transform="matrix(1,0,0,1,10,21)"></path>
				<path d="M 0 0 L 2 0 L 2 2 L 0 2 Z" fill="#000000" transform="matrix(1,0,0,1,12,21)"></path>
				<path d="M 0 0 L 3 0 L 3 2 L 0 2 Z" fill="#000000" transform="matrix(1,0,0,1,14,21)"></path>
				<path d="M 0 0 L 2 0 L 2 2 L 0 2 Z" fill="#FFFFFF" transform="matrix(1,0,0,1,17,21)"></path>
				<path d="M 0 0 L 2 0 L 2 2 L 0 2 Z" fill="#FFFFFF" transform="matrix(1,0,0,1,19,21)"></path>
				<path d="M 0 0 L 2 0 L 2 2 L 0 2 Z" fill="#FFFFFF" transform="matrix(1,0,0,1,21,21)"></path>
				<path d="M 0 0 L 2 0 L 2 2 L 0 2 Z" fill="#FFFFFF" transform="matrix(1,0,0,1,23,21)"></path>
				<path d="M 0 0 L 2 0 L 2 2 L 0 2 Z" fill="#000000" transform="matrix(1,0,0,1,25,21)"></path>
				<path d="M 0 0 L 2 0 L 2 2 L 0 2 Z" fill="#000000" transform="matrix(1,0,0,1,27,21)"></path>
				<path d="M 0 0 L 2 0 L 2 2 L 0 2 Z" fill="#FFFFFF" transform="matrix(1,0,0,1,29,21)"></path>
				<path d="M 0 0 L 2 0 L 2 2 L 0 2 Z" fill="#FFFFFF" transform="matrix(1,0,0,1,31,21)"></path>
				<path d="M 0 0 L 2 0 L 2 2 L 0 2 Z" fill="#000000" transform="matrix(1,0,0,1,33,21)"></path>
				<path d="M 0 0 L 2 0 L 2 2 L 0 2 Z" fill="#000000" transform="matrix(1,0,0,1,35,21)"></path>
				<path d="M 0 0 L 2 0 L 2 2 L 0 2 Z" fill="#FFFFFF" transform="matrix(1,0,0,1,37,21)"></path>
				<path d="M 0 0 L 2 0 L 2 2 L 0 2 Z" fill="#000000" transform="matrix(1,0,0,1,39,21)"></path>
				<path d="M 0 0 L 2 0 L 2 2 L 0 2 Z" fill="#000000" transform="matrix(1,0,0,1,41,21)"></path>
				<path d="M 0 0 L 3 0 L 3 2 L 0 2 Z" fill="#000000" transform="matrix(1,0,0,1,43,21)"></path>
				<path d="M 0 0 L 2 0 L 2 2 L 0 2 Z" fill="#FFFFFF" transform="matrix(1,0,0,1,46,21)"></path>
				<path d="M 0 0 L 2 0 L 2 2 L 0 2 Z" fill="#000000" transform="matrix(1,0,0,1,48,21)"></path>
				<path d="M 0 0 L 2 0 L 2 2 L 0 2 Z" fill="#FFFFFF" transform="matrix(1,0,0,1,50,21)"></path>
				<path d="M 0 0 L 2 0 L 2 2 L 0 2 Z" fill="#000000" transform="matrix(1,0,0,1,56,21)"></path>
				<path d="M 0 0 L 2 0 L 2 2 L 0 2 Z" fill="#FFFFFF" transform="matrix(1,0,0,1,58,21)"></path>
				<path d="M 0 0 L 2 0 L 2 2 L 0 2 Z" fill="#000000" transform="matrix(1,0,0,1,0,23)"></path>
				<path d="M 0 0 L 2 0 L 2 2 L 0 2 Z" fill="#FFFFFF" transform="matrix(1,0,0,1,2,23)"></path>
				<path d="M 0 0 L 2 0 L 2 2 L 0 2 Z" fill="#FFFFFF" transform="matrix(1,0,0,1,4,23)"></path>
				<path d="M 0 0 L 2 0 L 2 2 L 0 2 Z" fill="#000000" transform="matrix(1,0,0,1,6,23)"></path>
				<path d="M 0 0 L 2 0 L 2 2 L 0 2 Z" fill="#000000" transform="matrix(1,0,0,1,8,23)"></path>
				<path d="M 0 0 L 2 0 L 2 2 L 0 2 Z" fill="#FFFFFF" transform="matrix(1,0,0,1,10,23)"></path>
				<path d="M 0 0 L 2 0 L 2 2 L 0 2 Z" fill="#FFFFFF" transform="matrix(1,0,0,1,12,23)"></path>
				<path d="M 0 0 L 3 0 L 3 2 L 0 2 Z" fill="#FFFFFF" transform="matrix(1,0,0,1,14,23)"></path>
				<path d="M 0 0 L 2 0 L 2 2 L 0 2 Z" fill="#000000" transform="matrix(1,0,0,1,17,23)"></path>
				<path d="M 0 0 L 2 0 L 2 2 L 0 2 Z" fill="#000000" transform="matrix(1,0,0,1,19,23)"></path>
				<path d="M 0 0 L 2 0 L 2 2 L 0 2 Z" fill="#000000" transform="matrix(1,0,0,1,21,23)"></path>
				<path d="M 0 0 L 2 0 L 2 2 L 0 2 Z" fill="#FFFFFF" transform="matrix(1,0,0,1,23,23)"></path>
				<path d="M 0 0 L 2 0 L 2 2 L 0 2 Z" fill="#000000" transform="matrix(1,0,0,1,25,23)"></path>
				<path d="M 0 0 L 2 0 L 2 2 L 0 2 Z" fill="#000000" transform="matrix(1,0,0,1,27,23)"></path>
				<path d="M 0 0 L 2 0 L 2 2 L 0 2 Z" fill="#FFFFFF" transform="matrix(1,0,0,1,29,23)"></path>
				<path d="M 0 0 L 2 0 L 2 2 L 0 2 Z" fill="#FFFFFF" transform="matrix(1,0,0,1,31,23)"></path>
				<path d="M 0 0 L 2 0 L 2 2 L 0 2 Z" fill="#000000" transform="matrix(1,0,0,1,33,23)"></path>
				<path d="M 0 0 L 2 0 L 2 2 L 0 2 Z" fill="#FFFFFF" transform="matrix(1,0,0,1,35,23)"></path>
				<path d="M 0 0 L 2 0 L 2 2 L 0 2 Z" fill="#000000" transform="matrix(1,0,0,1,37,23)"></path>
				<path d="M 0 0 L 2 0 L 2 2 L 0 2 Z" fill="#FFFFFF" transform="matrix(1,0,0,1,39,23)"></path>
				<path d="M 0 0 L 2 0 L 2 2 L 0 2 Z" fill="#000000" transform="matrix(1,0,0,1,41,23)"></path>
				<path d="M 0 0 L 3 0 L 3 2 L 0 2 Z" fill="#FFFFFF" transform="matrix(1,0,0,1,43,23)"></path>
				<path d="M 0 0 L 2 0 L 2 2 L 0 2 Z" fill="#FFFFFF" transform="matrix(1,0,0,1,46,23)"></path>
				<path d="M 0 0 L 2 0 L 2 2 L 0 2 Z" fill="#000000" transform="matrix(1,0,0,1,48,23)"></path>
				<path d="M 0 0 L 2 0 L 2 2 L 0 2 Z" fill="#FFFFFF" transform="matrix(1,0,0,1,50,23)"></path>
				<path d="M 0 0 L 2 0 L 2 2 L 0 2 Z" fill="#FFFFFF" transform="matrix(1,0,0,1,52,23)"></path>
				<path d="M 0 0 L 2 0 L 2 2 L 0 2 Z" fill="#000000" transform="matrix(1,0,0,1,54,23)"></path>
				<path d="M 0 0 L 2 0 L 2 2 L 0 2 Z" fill="#000000" transform="matrix(1,0,0,1,56,23)"></path>
				<path d="M 0 0 L 2 0 L 2 2 L 0 2 Z" fill="#FFFFFF" transform="matrix(1,0,0,1,58,23)"></path>
				<path d="M 0 0 L 2 0 L 2 2 L 0 2 Z" fill="#FFFFFF" transform="matrix(1,0,0,1,0,25)"></path>
				<path d="M 0 0 L 2 0 L 2 2 L 0 2 Z" fill="#FFFFFF" transform="matrix(1,0,0,1,2,25)"></path>
				<path d="M 0 0 L 2 0 L 2 2 L 0 2 Z" fill="#FFFFFF" transform="matrix(1,0,0,1,4,25)"></path>
				<path d="M 0 0 L 2 0 L 2 2 L 0 2 Z" fill="#000000" transform="matrix(1,0,0,1,6,25)"></path>
				<path d="M 0 0 L 2 0 L 2 2 L 0 2 Z" fill="#FFFFFF" transform="matrix(1,0,0,1,8,25)"></path>
				<path d="M 0 0 L 2 0 L 2 2 L 0 2 Z" fill="#000000" transform="matrix(1,0,0,1,10,25)"></path>
				<path d="M 0 0 L 2 0 L 2 2 L 0 2 Z" fill="#000000" transform="matrix(1,0,0,1,12,25)"></path>
				<path d="M 0 0 L 3 0 L 3 2 L 0 2 Z" fill="#FFFFFF" transform="matrix(1,0,0,1,14,25)"></path>
				<path d="M 0 0 L 2 0 L 2 2 L 0 2 Z" fill="#000000" transform="matrix(1,0,0,1,17,25)"></path>
				<path d="M 0 0 L 2 0 L 2 2 L 0 2 Z" fill="#FFFFFF" transform="matrix(1,0,0,1,19,25)"></path>
				<path d="M 0 0 L 2 0 L 2 2 L 0 2 Z" fill="#000000" transform="matrix(1,0,0,1,21,25)"></path>
				<path d="M 0 0 L 2 0 L 2 2 L 0 2 Z" fill="#FFFFFF" transform="matrix(1,0,0,1,23,25)"></path>
				<path d="M 0 0 L 2 0 L 2 2 L 0 2 Z" fill="#FFFFFF" transform="matrix(1,0,0,1,25,25)"></path>
				<path d="M 0 0 L 2 0 L 2 2 L 0 2 Z" fill="#000000" transform="matrix(1,0,0,1,27,25)"></path>
				<path d="M 0 0 L 2 0 L 2 2 L 0 2 Z" fill="#000000" transform="matrix(1,0,0,1,29,25)"></path>
				<path d="M 0 0 L 2 0 L 2 2 L 0 2 Z" fill="#000000" transform="matrix(1,0,0,1,31,25)"></path>
				<path d="M 0 0 L 2 0 L 2 2 L 0 2 Z" fill="#000000" transform="matrix(1,0,0,1,33,25)"></path>
				<path d="M 0 0 L 2 0 L 2 2 L 0 2 Z" fill="#000000" transform="matrix(1,0,0,1,35,25)"></path>
				<path d="M 0 0 L 2 0 L 2 2 L 0 2 Z" fill="#FFFFFF" transform="matrix(1,0,0,1,37,25)"></path>
				<path d="M 0 0 L 2 0 L 2 2 L 0 2 Z" fill="#FFFFFF" transform="matrix(1,0,0,1,39,25)"></path>
				<path d="M 0 0 L 2 0 L 2 2 L 0 2 Z" fill="#000000" transform="matrix(1,0,0,1,41,25)"></path>
				<path d="M 0 0 L 3 0 L 3 2 L 0 2 Z" fill="#000000" transform="matrix(1,0,0,1,43,25)"></path>
				<path d="M 0 0 L 2 0 L 2 2 L 0 2 Z" fill="#000000" transform="matrix(1,0,0,1,46,25)"></path>
				<path d="M 0 0 L 2 0 L 2 2 L 0 2 Z" fill="#FFFFFF" transform="matrix(1,0,0,1,48,25)"></path>
				<path d="M 0 0 L 2 0 L 2 2 L 0 2 Z" fill="#FFFFFF" transform="matrix(1,0,0,1,50,25)"></path>
				<path d="M 0 0 L 2 0 L 2 2 L 0 2 Z" fill="#000000" transform="matrix(1,0,0,1,52,25)"></path>
				<path d="M 0 0 L 2 0 L 2 2 L 0 2 Z" fill="#FFFFFF" transform="matrix(1,0,0,1,54,25)"></path>
				<path d="M 0 0 L 2 0 L 2 2 L 0 2 Z" fill="#000000" transform="matrix(1,0,0,1,56,25)"></path>
				<path d="M 0 0 L 2 0 L 2 2 L 0 2 Z" fill="#000000" transform="matrix(1,0,0,1,58,25)"></path>
				<path d="M 0 0 L 2 0 L 2 2 L 0 2 Z" fill="#FFFFFF" transform="matrix(1,0,0,1,0,27)"></path>
				<path d="M 0 0 L 2 0 L 2 2 L 0 2 Z" fill="#000000" transform="matrix(1,0,0,1,2,27)"></path>
				<path d="M 0 0 L 2 0 L 2 2 L 0 2 Z" fill="#FFFFFF" transform="matrix(1,0,0,1,4,27)"></path>
				<path d="M 0 0 L 2 0 L 2 2 L 0 2 Z" fill="#000000" transform="matrix(1,0,0,1,6,27)"></path>
				<path d="M 0 0 L 2 0 L 2 2 L 0 2 Z" fill="#000000" transform="matrix(1,0,0,1,8,27)"></path>
				<path d="M 0 0 L 2 0 L 2 2 L 0 2 Z" fill="#000000" transform="matrix(1,0,0,1,10,27)"></path>
				<path d="M 0 0 L 2 0 L 2 2 L 0 2 Z" fill="#FFFFFF" transform="matrix(1,0,0,1,12,27)"></path>
				<path d="M 0 0 L 3 0 L 3 2 L 0 2 Z" fill="#000000" transform="matrix(1,0,0,1,14,27)"></path>
				<path d="M 0 0 L 2 0 L 2 2 L 0 2 Z" fill="#000000" transform="matrix(1,0,0,1,17,27)"></path>
				<path d="M 0 0 L 2 0 L 2 2 L 0 2 Z" fill="#000000" transform="matrix(1,0,0,1,19,27)"></path>
				<path d="M 0 0 L 2 0 L 2 2 L 0 2 Z" fill="#FFFFFF" transform="matrix(1,0,0,1,21,27)"></path>
				<path d="M 0 0 L 2 0 L 2 2 L 0 2 Z" fill="#FFFFFF" transform="matrix(1,0,0,1,23,27)"></path>
				<path d="M 0 0 L 2 0 L 2 2 L 0 2 Z" fill="#000000" transform="matrix(1,0,0,1,25,27)"></path>
				<path d="M 0 0 L 2 0 L 2 2 L 0 2 Z" fill="#000000" transform="matrix(1,0,0,1,27,27)"></path>
				<path d="M 0 0 L 2 0 L 2 2 L 0 2 Z" fill="#FFFFFF" transform="matrix(1,0,0,1,29,27)"></path>
				<path d="M 0 0 L 2 0 L 2 2 L 0 2 Z" fill="#FFFFFF" transform="matrix(1,0,0,1,31,27)"></path>
				<path d="M 0 0 L 2 0 L 2 2 L 0 2 Z" fill="#FFFFFF" transform="matrix(1,0,0,1,33,27)"></path>
				<path d="M 0 0 L 2 0 L 2 2 L 0 2 Z" fill="#FFFFFF" transform="matrix(1,0,0,1,35,27)"></path>
				<path d="M 0 0 L 2 0 L 2 2 L 0 2 Z" fill="#000000" transform="matrix(1,0,0,1,41,27)"></path>
				<path d="M 0 0 L 3 0 L 3 2 L 0 2 Z" fill="#FFFFFF" transform="matrix(1,0,0,1,43,27)"></path>
				<path d="M 0 0 L 2 0 L 2 2 L 0 2 Z" fill="#FFFFFF" transform="matrix(1,0,0,1,46,27)"></path>
				<path d="M 0 0 L 2 0 L 2 2 L 0 2 Z" fill="#FFFFFF" transform="matrix(1,0,0,1,48,27)"></path>
				<path d="M 0 0 L 2 0 L 2 2 L 0 2 Z" fill="#FFFFFF" transform="matrix(1,0,0,1,50,27)"></path>
				<path d="M 0 0 L 2 0 L 2 2 L 0 2 Z" fill="#FFFFFF" transform="matrix(1,0,0,1,52,27)"></path>
				<path d="M 0 0 L 2 0 L 2 2 L 0 2 Z" fill="#FFFFFF" transform="matrix(1,0,0,1,54,27)"></path>
				<path d="M 0 0 L 2 0 L 2 2 L 0 2 Z" fill="#FFFFFF" transform="matrix(1,0,0,1,56,27)"></path>
				<path d="M 0 0 L 2 0 L 2 2 L 0 2 Z" fill="#FFFFFF" transform="matrix(1,0,0,1,58,27)"></path>
				<path d="M 0 0 L 2 0 L 2 2 L 0 2 Z" fill="#000000" transform="matrix(1,0,0,1,0,29)"></path>
				<path d="M 0 0 L 2 0 L 2 2 L 0 2 Z" fill="#FFFFFF" transform="matrix(1,0,0,1,2,29)"></path>
				<path d="M 0 0 L 2 0 L 2 2 L 0 2 Z" fill="#000000" transform="matrix(1,0,0,1,4,29)"></path>
				<path d="M 0 0 L 2 0 L 2 2 L 0 2 Z" fill="#FFFFFF" transform="matrix(1,0,0,1,6,29)"></path>
				<path d="M 0 0 L 2 0 L 2 2 L 0 2 Z" fill="#FFFFFF" transform="matrix(1,0,0,1,8,29)"></path>
				<path d="M 0 0 L 2 0 L 2 2 L 0 2 Z" fill="#FFFFFF" transform="matrix(1,0,0,1,10,29)"></path>
				<path d="M 0 0 L 2 0 L 2 2 L 0 2 Z" fill="#000000" transform="matrix(1,0,0,1,12,29)"></path>
				<path d="M 0 0 L 3 0 L 3 2 L 0 2 Z" fill="#FFFFFF" transform="matrix(1,0,0,1,14,29)"></path>
				<path d="M 0 0 L 2 0 L 2 2 L 0 2 Z" fill="#000000" transform="matrix(1,0,0,1,17,29)"></path>
				<path d="M 0 0 L 2 0 L 2 2 L 0 2 Z" fill="#000000" transform="matrix(1,0,0,1,19,29)"></path>
				<path d="M 0 0 L 2 0 L 2 2 L 0 2 Z" fill="#FFFFFF" transform="matrix(1,0,0,1,21,29)"></path>
				<path d="M 0 0 L 2 0 L 2 2 L 0 2 Z" fill="#000000" transform="matrix(1,0,0,1,23,29)"></path>
				<path d="M 0 0 L 2 0 L 2 2 L 0 2 Z" fill="#FFFFFF" transform="matrix(1,0,0,1,25,29)"></path>
				<path d="M 0 0 L 2 0 L 2 2 L 0 2 Z" fill="#000000" transform="matrix(1,0,0,1,29,29)"></path>
				<path d="M 0 0 L 2 0 L 2 2 L 0 2 Z" fill="#FFFFFF" transform="matrix(1,0,0,1,31,29)"></path>
				<path d="M 0 0 L 2 0 L 2 2 L 0 2 Z" fill="#FFFFFF" transform="matrix(1,0,0,1,33,29)"></path>
				<path d="M 0 0 L 2 0 L 2 2 L 0 2 Z" fill="#000000" transform="matrix(1,0,0,1,35,29)"></path>
				<path d="M 0 0 L 2 0 L 2 2 L 0 2 Z" fill="#FFFFFF" transform="matrix(1,0,0,1,37,29)"></path>
				<path d="M 0 0 L 2 0 L 2 2 L 0 2 Z" fill="#FFFFFF" transform="matrix(1,0,0,1,39,29)"></path>
				<path d="M 0 0 L 2 0 L 2 2 L 0 2 Z" fill="#000000" transform="matrix(1,0,0,1,41,29)"></path>
				<path d="M 0 0 L 3 0 L 3 2 L 0 2 Z" fill="#000000" transform="matrix(1,0,0,1,43,29)"></path>
				<path d="M 0 0 L 2 0 L 2 2 L 0 2 Z" fill="#000000" transform="matrix(1,0,0,1,46,29)"></path>
				<path d="M 0 0 L 2 0 L 2 2 L 0 2 Z" fill="#000000" transform="matrix(1,0,0,1,48,29)"></path>
				<path d="M 0 0 L 2 0 L 2 2 L 0 2 Z" fill="#000000" transform="matrix(1,0,0,1,50,29)"></path>
				<path d="M 0 0 L 2 0 L 2 2 L 0 2 Z" fill="#000000" transform="matrix(1,0,0,1,52,29)"></path>
				<path d="M 0 0 L 2 0 L 2 2 L 0 2 Z" fill="#000000" transform="matrix(1,0,0,1,54,29)"></path>
				<path d="M 0 0 L 2 0 L 2 2 L 0 2 Z" fill="#000000" transform="matrix(1,0,0,1,56,29)"></path>
				<path d="M 0 0 L 2 0 L 2 2 L 0 2 Z" fill="#000000" transform="matrix(1,0,0,1,58,29)"></path>
				<path d="M 0 0 L 2 0 L 2 2 L 0 2 Z" fill="#FFFFFF" transform="matrix(1,0,0,1,0,31)"></path>
				<path d="M 0 0 L 2 0 L 2 2 L 0 2 Z" fill="#000000" transform="matrix(1,0,0,1,2,31)"></path>
				<path d="M 0 0 L 2 0 L 2 2 L 0 2 Z" fill="#000000" transform="matrix(1,0,0,1,4,31)"></path>
				<path d="M 0 0 L 2 0 L 2 2 L 0 2 Z" fill="#FFFFFF" transform="matrix(1,0,0,1,10,31)"></path>
				<path d="M 0 0 L 2 0 L 2 2 L 0 2 Z" fill="#FFFFFF" transform="matrix(1,0,0,1,12,31)"></path>
				<path d="M 0 0 L 2 0 L 2 2 L 0 2 Z" fill="#000000" transform="matrix(1,0,0,1,21,31)"></path>
				<path d="M 0 0 L 2 0 L 2 2 L 0 2 Z" fill="#000000" transform="matrix(1,0,0,1,23,31)"></path>
				<path d="M 0 0 L 2 0 L 2 2 L 0 2 Z" fill="#000000" transform="matrix(1,0,0,1,25,31)"></path>
				<path d="M 0 0 L 2 0 L 2 2 L 0 2 Z" fill="#000000" transform="matrix(1,0,0,1,27,31)"></path>
				<path d="M 0 0 L 2 0 L 2 2 L 0 2 Z" fill="#000000" transform="matrix(1,0,0,1,29,31)"></path>
				<path d="M 0 0 L 2 0 L 2 2 L 0 2 Z" fill="#FFFFFF" transform="matrix(1,0,0,1,31,31)"></path>
				<path d="M 0 0 L 2 0 L 2 2 L 0 2 Z" fill="#000000" transform="matrix(1,0,0,1,33,31)"></path>
				<path d="M 0 0 L 2 0 L 2 2 L 0 2 Z" fill="#000000" transform="matrix(1,0,0,1,35,31)"></path>
				<path d="M 0 0 L 2 0 L 2 2 L 0 2 Z" fill="#000000" transform="matrix(1,0,0,1,37,31)"></path>
				<path d="M 0 0 L 2 0 L 2 2 L 0 2 Z" fill="#FFFFFF" transform="matrix(1,0,0,1,39,31)"></path>
				<path d="M 0 0 L 2 0 L 2 2 L 0 2 Z" fill="#000000" transform="matrix(1,0,0,1,41,31)"></path>
				<path d="M 0 0 L 3 0 L 3 2 L 0 2 Z" fill="#000000" transform="matrix(1,0,0,1,43,31)"></path>
				<path d="M 0 0 L 2 0 L 2 2 L 0 2 Z" fill="#FFFFFF" transform="matrix(1,0,0,1,46,31)"></path>
				<path d="M 0 0 L 2 0 L 2 2 L 0 2 Z" fill="#FFFFFF" transform="matrix(1,0,0,1,48,31)"></path>
				<path d="M 0 0 L 2 0 L 2 2 L 0 2 Z" fill="#FFFFFF" transform="matrix(1,0,0,1,50,31)"></path>
				<path d="M 0 0 L 2 0 L 2 2 L 0 2 Z" fill="#000000" transform="matrix(1,0,0,1,52,31)"></path>
				<path d="M 0 0 L 2 0 L 2 2 L 0 2 Z" fill="#FFFFFF" transform="matrix(1,0,0,1,54,31)"></path>
				<path d="M 0 0 L 2 0 L 2 2 L 0 2 Z" fill="#000000" transform="matrix(1,0,0,1,56,31)"></path>
				<path d="M 0 0 L 2 0 L 2 2 L 0 2 Z" fill="#FFFFFF" transform="matrix(1,0,0,1,58,31)"></path>
				<path d="M 0 0 L 2 0 L 2 2 L 0 2 Z" fill="#FFFFFF" transform="matrix(1,0,0,1,0,33)"></path>
				<path d="M 0 0 L 2 0 L 2 2 L 0 2 Z" fill="#000000" transform="matrix(1,0,0,1,2,33)"></path>
				<path d="M 0 0 L 2 0 L 2 2 L 0 2 Z" fill="#FFFFFF" transform="matrix(1,0,0,1,4,33)"></path>
				<path d="M 0 0 L 2 0 L 2 2 L 0 2 Z" fill="#FFFFFF" transform="matrix(1,0,0,1,6,33)"></path>
				<path d="M 0 0 L 2 0 L 2 2 L 0 2 Z" fill="#FFFFFF" transform="matrix(1,0,0,1,8,33)"></path>
				<path d="M 0 0 L 2 0 L 2 2 L 0 2 Z" fill="#FFFFFF" transform="matrix(1,0,0,1,10,33)"></path>
				<path d="M 0 0 L 2 0 L 2 2 L 0 2 Z" fill="#000000" transform="matrix(1,0,0,1,12,33)"></path>
				<path d="M 0 0 L 3 0 L 3 2 L 0 2 Z" fill="#FFFFFF" transform="matrix(1,0,0,1,14,33)"></path>
				<path d="M 0 0 L 2 0 L 2 2 L 0 2 Z" fill="#000000" transform="matrix(1,0,0,1,17,33)"></path>
				<path d="M 0 0 L 2 0 L 2 2 L 0 2 Z" fill="#FFFFFF" transform="matrix(1,0,0,1,19,33)"></path>
				<path d="M 0 0 L 2 0 L 2 2 L 0 2 Z" fill="#FFFFFF" transform="matrix(1,0,0,1,21,33)"></path>
				<path d="M 0 0 L 2 0 L 2 2 L 0 2 Z" fill="#000000" transform="matrix(1,0,0,1,23,33)"></path>
				<path d="M 0 0 L 2 0 L 2 2 L 0 2 Z" fill="#FFFFFF" transform="matrix(1,0,0,1,25,33)"></path>
				<path d="M 0 0 L 2 0 L 2 2 L 0 2 Z" fill="#FFFFFF" transform="matrix(1,0,0,1,27,33)"></path>
				<path d="M 0 0 L 2 0 L 2 2 L 0 2 Z" fill="#FFFFFF" transform="matrix(1,0,0,1,29,33)"></path>
				<path d="M 0 0 L 2 0 L 2 2 L 0 2 Z" fill="#000000" transform="matrix(1,0,0,1,31,33)"></path>
				<path d="M 0 0 L 2 0 L 2 2 L 0 2 Z" fill="#000000" transform="matrix(1,0,0,1,33,33)"></path>
				<path d="M 0 0 L 2 0 L 2 2 L 0 2 Z" fill="#000000" transform="matrix(1,0,0,1,35,33)"></path>
				<path d="M 0 0 L 2 0 L 2 2 L 0 2 Z" fill="#000000" transform="matrix(1,0,0,1,37,33)"></path>
				<path d="M 0 0 L 2 0 L 2 2 L 0 2 Z" fill="#000000" transform="matrix(1,0,0,1,39,33)"></path>
				<path d="M 0 0 L 2 0 L 2 2 L 0 2 Z" fill="#000000" transform="matrix(1,0,0,1,41,33)"></path>
				<path d="M 0 0 L 3 0 L 3 2 L 0 2 Z" fill="#FFFFFF" transform="matrix(1,0,0,1,43,33)"></path>
				<path d="M 0 0 L 2 0 L 2 2 L 0 2 Z" fill="#FFFFFF" transform="matrix(1,0,0,1,46,33)"></path>
				<path d="M 0 0 L 2 0 L 2 2 L 0 2 Z" fill="#FFFFFF" transform="matrix(1,0,0,1,48,33)"></path>
				<path d="M 0 0 L 2 0 L 2 2 L 0 2 Z" fill="#FFFFFF" transform="matrix(1,0,0,1,50,33)"></path>
				<path d="M 0 0 L 2 0 L 2 2 L 0 2 Z" fill="#FFFFFF" transform="matrix(1,0,0,1,52,33)"></path>
				<path d="M 0 0 L 2 0 L 2 2 L 0 2 Z" fill="#FFFFFF" transform="matrix(1,0,0,1,54,33)"></path>
				<path d="M 0 0 L 2 0 L 2 2 L 0 2 Z" fill="#000000" transform="matrix(1,0,0,1,56,33)"></path>
				<path d="M 0 0 L 2 0 L 2 2 L 0 2 Z" fill="#FFFFFF" transform="matrix(1,0,0,1,58,33)"></path>
				<path d="M 0 0 L 2 0 L 2 2 L 0 2 Z" fill="#FFFFFF" transform="matrix(1,0,0,1,0,35)"></path>
				<path d="M 0 0 L 2 0 L 2 2 L 0 2 Z" fill="#000000" transform="matrix(1,0,0,1,2,35)"></path>
				<path d="M 0 0 L 2 0 L 2 2 L 0 2 Z" fill="#000000" transform="matrix(1,0,0,1,4,35)"></path>
				<path d="M 0 0 L 2 0 L 2 2 L 0 2 Z" fill="#FFFFFF" transform="matrix(1,0,0,1,6,35)"></path>
				<path d="M 0 0 L 2 0 L 2 2 L 0 2 Z" fill="#000000" transform="matrix(1,0,0,1,8,35)"></path>
				<path d="M 0 0 L 2 0 L 2 2 L 0 2 Z" fill="#000000" transform="matrix(1,0,0,1,10,35)"></path>
				<path d="M 0 0 L 2 0 L 2 2 L 0 2 Z" fill="#FFFFFF" transform="matrix(1,0,0,1,12,35)"></path>
				<path d="M 0 0 L 3 0 L 3 2 L 0 2 Z" fill="#000000" transform="matrix(1,0,0,1,14,35)"></path>
				<path d="M 0 0 L 2 0 L 2 2 L 0 2 Z" fill="#FFFFFF" transform="matrix(1,0,0,1,17,35)"></path>
				<path d="M 0 0 L 2 0 L 2 2 L 0 2 Z" fill="#FFFFFF" transform="matrix(1,0,0,1,19,35)"></path>
				<path d="M 0 0 L 2 0 L 2 2 L 0 2 Z" fill="#000000" transform="matrix(1,0,0,1,21,35)"></path>
				<path d="M 0 0 L 2 0 L 2 2 L 0 2 Z" fill="#000000" transform="matrix(1,0,0,1,23,35)"></path>
				<path d="M 0 0 L 2 0 L 2 2 L 0 2 Z" fill="#FFFFFF" transform="matrix(1,0,0,1,25,35)"></path>
				<path d="M 0 0 L 2 0 L 2 2 L 0 2 Z" fill="#000000" transform="matrix(1,0,0,1,27,35)"></path>
				<path d="M 0 0 L 2 0 L 2 2 L 0 2 Z" fill="#FFFFFF" transform="matrix(1,0,0,1,29,35)"></path>
				<path d="M 0 0 L 2 0 L 2 2 L 0 2 Z" fill="#FFFFFF" transform="matrix(1,0,0,1,31,35)"></path>
				<path d="M 0 0 L 2 0 L 2 2 L 0 2 Z" fill="#FFFFFF" transform="matrix(1,0,0,1,33,35)"></path>
				<path d="M 0 0 L 2 0 L 2 2 L 0 2 Z" fill="#000000" transform="matrix(1,0,0,1,35,35)"></path>
				<path d="M 0 0 L 2 0 L 2 2 L 0 2 Z" fill="#FFFFFF" transform="matrix(1,0,0,1,37,35)"></path>
				<path d="M 0 0 L 2 0 L 2 2 L 0 2 Z" fill="#FFFFFF" transform="matrix(1,0,0,1,39,35)"></path>
				<path d="M 0 0 L 2 0 L 2 2 L 0 2 Z" fill="#FFFFFF" transform="matrix(1,0,0,1,41,35)"></path>
				<path d="M 0 0 L 3 0 L 3 2 L 0 2 Z" fill="#000000" transform="matrix(1,0,0,1,43,35)"></path>
				<path d="M 0 0 L 2 0 L 2 2 L 0 2 Z" fill="#000000" transform="matrix(1,0,0,1,46,35)"></path>
				<path d="M 0 0 L 2 0 L 2 2 L 0 2 Z" fill="#000000" transform="matrix(1,0,0,1,48,35)"></path>
				<path d="M 0 0 L 2 0 L 2 2 L 0 2 Z" fill="#FFFFFF" transform="matrix(1,0,0,1,50,35)"></path>
				<path d="M 0 0 L 2 0 L 2 2 L 0 2 Z" fill="#000000" transform="matrix(1,0,0,1,52,35)"></path>
				<path d="M 0 0 L 2 0 L 2 2 L 0 2 Z" fill="#FFFFFF" transform="matrix(1,0,0,1,54,35)"></path>
				<path d="M 0 0 L 2 0 L 2 2 L 0 2 Z" fill="#FFFFFF" transform="matrix(1,0,0,1,56,35)"></path>
				<path d="M 0 0 L 2 0 L 2 2 L 0 2 Z" fill="#000000" transform="matrix(1,0,0,1,58,35)"></path>
				<path d="M 0 0 L 2 0 L 2 2 L 0 2 Z" fill="#000000" transform="matrix(1,0,0,1,0,37)"></path>
				<path d="M 0 0 L 2 0 L 2 2 L 0 2 Z" fill="#FFFFFF" transform="matrix(1,0,0,1,2,37)"></path>
				<path d="M 0 0 L 2 0 L 2 2 L 0 2 Z" fill="#FFFFFF" transform="matrix(1,0,0,1,4,37)"></path>
				<path d="M 0 0 L 2 0 L 2 2 L 0 2 Z" fill="#FFFFFF" transform="matrix(1,0,0,1,6,37)"></path>
				<path d="M 0 0 L 2 0 L 2 2 L 0 2 Z" fill="#000000" transform="matrix(1,0,0,1,8,37)"></path>
				<path d="M 0 0 L 2 0 L 2 2 L 0 2 Z" fill="#000000" transform="matrix(1,0,0,1,10,37)"></path>
				<path d="M 0 0 L 2 0 L 2 2 L 0 2 Z" fill="#000000" transform="matrix(1,0,0,1,12,37)"></path>
				<path d="M 0 0 L 3 0 L 3 2 L 0 2 Z" fill="#FFFFFF" transform="matrix(1,0,0,1,14,37)"></path>
				<path d="M 0 0 L 2 0 L 2 2 L 0 2 Z" fill="#FFFFFF" transform="matrix(1,0,0,1,17,37)"></path>
				<path d="M 0 0 L 2 0 L 2 2 L 0 2 Z" fill="#FFFFFF" transform="matrix(1,0,0,1,19,37)"></path>
				<path d="M 0 0 L 2 0 L 2 2 L 0 2 Z" fill="#FFFFFF" transform="matrix(1,0,0,1,21,37)"></path>
				<path d="M 0 0 L 2 0 L 2 2 L 0 2 Z" fill="#FFFFFF" transform="matrix(1,0,0,1,23,37)"></path>
				<path d="M 0 0 L 2 0 L 2 2 L 0 2 Z" fill="#000000" transform="matrix(1,0,0,1,25,37)"></path>
				<path d="M 0 0 L 2 0 L 2 2 L 0 2 Z" fill="#FFFFFF" transform="matrix(1,0,0,1,27,37)"></path>
				<path d="M 0 0 L 2 0 L 2 2 L 0 2 Z" fill="#FFFFFF" transform="matrix(1,0,0,1,29,37)"></path>
				<path d="M 0 0 L 2 0 L 2 2 L 0 2 Z" fill="#FFFFFF" transform="matrix(1,0,0,1,31,37)"></path>
				<path d="M 0 0 L 2 0 L 2 2 L 0 2 Z" fill="#FFFFFF" transform="matrix(1,0,0,1,33,37)"></path>
				<path d="M 0 0 L 2 0 L 2 2 L 0 2 Z" fill="#000000" transform="matrix(1,0,0,1,35,37)"></path>
				<path d="M 0 0 L 2 0 L 2 2 L 0 2 Z" fill="#FFFFFF" transform="matrix(1,0,0,1,37,37)"></path>
				<path d="M 0 0 L 2 0 L 2 2 L 0 2 Z" fill="#FFFFFF" transform="matrix(1,0,0,1,39,37)"></path>
				<path d="M 0 0 L 2 0 L 2 2 L 0 2 Z" fill="#FFFFFF" transform="matrix(1,0,0,1,41,37)"></path>
				<path d="M 0 0 L 3 0 L 3 2 L 0 2 Z" fill="#000000" transform="matrix(1,0,0,1,43,37)"></path>
				<path d="M 0 0 L 2 0 L 2 2 L 0 2 Z" fill="#FFFFFF" transform="matrix(1,0,0,1,46,37)"></path>
				<path d="M 0 0 L 2 0 L 2 2 L 0 2 Z" fill="#000000" transform="matrix(1,0,0,1,48,37)"></path>
				<path d="M 0 0 L 2 0 L 2 2 L 0 2 Z" fill="#000000" transform="matrix(1,0,0,1,50,37)"></path>
				<path d="M 0 0 L 2 0 L 2 2 L 0 2 Z" fill="#FFFFFF" transform="matrix(1,0,0,1,52,37)"></path>
				<path d="M 0 0 L 2 0 L 2 2 L 0 2 Z" fill="#FFFFFF" transform="matrix(1,0,0,1,54,37)"></path>
				<path d="M 0 0 L 2 0 L 2 2 L 0 2 Z" fill="#000000" transform="matrix(1,0,0,1,56,37)"></path>
				<path d="M 0 0 L 2 0 L 2 2 L 0 2 Z" fill="#000000" transform="matrix(1,0,0,1,58,37)"></path>
				<path d="M 0 0 L 2 0 L 2 2 L 0 2 Z" fill="#FFFFFF" transform="matrix(1,0,0,1,0,39)"></path>
				<path d="M 0 0 L 2 0 L 2 2 L 0 2 Z" fill="#FFFFFF" transform="matrix(1,0,0,1,2,39)"></path>
				<path d="M 0 0 L 2 0 L 2 2 L 0 2 Z" fill="#000000" transform="matrix(1,0,0,1,4,39)"></path>
				<path d="M 0 0 L 2 0 L 2 2 L 0 2 Z" fill="#FFFFFF" transform="matrix(1,0,0,1,6,39)"></path>
				<path d="M 0 0 L 2 0 L 2 2 L 0 2 Z" fill="#FFFFFF" transform="matrix(1,0,0,1,8,39)"></path>
				<path d="M 0 0 L 2 0 L 2 2 L 0 2 Z" fill="#000000" transform="matrix(1,0,0,1,10,39)"></path>
				<path d="M 0 0 L 2 0 L 2 2 L 0 2 Z" fill="#FFFFFF" transform="matrix(1,0,0,1,12,39)"></path>
				<path d="M 0 0 L 3 0 L 3 2 L 0 2 Z" fill="#FFFFFF" transform="matrix(1,0,0,1,14,39)"></path>
				<path d="M 0 0 L 2 0 L 2 2 L 0 2 Z" fill="#000000" transform="matrix(1,0,0,1,17,39)"></path>
				<path d="M 0 0 L 2 0 L 2 2 L 0 2 Z" fill="#FFFFFF" transform="matrix(1,0,0,1,19,39)"></path>
				<path d="M 0 0 L 2 0 L 2 2 L 0 2 Z" fill="#FFFFFF" transform="matrix(1,0,0,1,21,39)"></path>
				<path d="M 0 0 L 2 0 L 2 2 L 0 2 Z" fill="#000000" transform="matrix(1,0,0,1,23,39)"></path>
				<path d="M 0 0 L 2 0 L 2 2 L 0 2 Z" fill="#000000" transform="matrix(1,0,0,1,25,39)"></path>
				<path d="M 0 0 L 2 0 L 2 2 L 0 2 Z" fill="#FFFFFF" transform="matrix(1,0,0,1,27,39)"></path>
				<path d="M 0 0 L 2 0 L 2 2 L 0 2 Z" fill="#000000" transform="matrix(1,0,0,1,29,39)"></path>
				<path d="M 0 0 L 2 0 L 2 2 L 0 2 Z" fill="#000000" transform="matrix(1,0,0,1,31,39)"></path>
				<path d="M 0 0 L 2 0 L 2 2 L 0 2 Z" fill="#FFFFFF" transform="matrix(1,0,0,1,33,39)"></path>
				<path d="M 0 0 L 2 0 L 2 2 L 0 2 Z" fill="#000000" transform="matrix(1,0,0,1,39,39)"></path>
				<path d="M 0 0 L 2 0 L 2 2 L 0 2 Z" fill="#000000" transform="matrix(1,0,0,1,41,39)"></path>
				<path d="M 0 0 L 3 0 L 3 2 L 0 2 Z" fill="#000000" transform="matrix(1,0,0,1,43,39)"></path>
				<path d="M 0 0 L 2 0 L 2 2 L 0 2 Z" fill="#FFFFFF" transform="matrix(1,0,0,1,46,39)"></path>
				<path d="M 0 0 L 2 0 L 2 2 L 0 2 Z" fill="#000000" transform="matrix(1,0,0,1,48,39)"></path>
				<path d="M 0 0 L 2 0 L 2 2 L 0 2 Z" fill="#000000" transform="matrix(1,0,0,1,50,39)"></path>
				<path d="M 0 0 L 2 0 L 2 2 L 0 2 Z" fill="#FFFFFF" transform="matrix(1,0,0,1,52,39)"></path>
				<path d="M 0 0 L 2 0 L 2 2 L 0 2 Z" fill="#FFFFFF" transform="matrix(1,0,0,1,54,39)"></path>
				<path d="M 0 0 L 2 0 L 2 2 L 0 2 Z" fill="#000000" transform="matrix(1,0,0,1,56,39)"></path>
				<path d="M 0 0 L 2 0 L 2 2 L 0 2 Z" fill="#000000" transform="matrix(1,0,0,1,58,39)"></path>
				<path d="M 0 0 L 2 0 L 2 2 L 0 2 Z" fill="#000000" transform="matrix(1,0,0,1,0,41)"></path>
				<path d="M 0 0 L 2 0 L 2 2 L 0 2 Z" fill="#FFFFFF" transform="matrix(1,0,0,1,2,41)"></path>
				<path d="M 0 0 L 2 0 L 2 2 L 0 2 Z" fill="#000000" transform="matrix(1,0,0,1,6,41)"></path>
				<path d="M 0 0 L 2 0 L 2 2 L 0 2 Z" fill="#000000" transform="matrix(1,0,0,1,8,41)"></path>
				<path d="M 0 0 L 2 0 L 2 2 L 0 2 Z" fill="#FFFFFF" transform="matrix(1,0,0,1,10,41)"></path>
				<path d="M 0 0 L 2 0 L 2 2 L 0 2 Z" fill="#000000" transform="matrix(1,0,0,1,12,41)"></path>
				<path d="M 0 0 L 3 0 L 3 2 L 0 2 Z" fill="#FFFFFF" transform="matrix(1,0,0,1,14,41)"></path>
				<path d="M 0 0 L 2 0 L 2 2 L 0 2 Z" fill="#000000" transform="matrix(1,0,0,1,17,41)"></path>
				<path d="M 0 0 L 2 0 L 2 2 L 0 2 Z" fill="#000000" transform="matrix(1,0,0,1,19,41)"></path>
				<path d="M 0 0 L 2 0 L 2 2 L 0 2 Z" fill="#000000" transform="matrix(1,0,0,1,21,41)"></path>
				<path d="M 0 0 L 2 0 L 2 2 L 0 2 Z" fill="#000000" transform="matrix(1,0,0,1,23,41)"></path>
				<path d="M 0 0 L 2 0 L 2 2 L 0 2 Z" fill="#000000" transform="matrix(1,0,0,1,25,41)"></path>
				<path d="M 0 0 L 2 0 L 2 2 L 0 2 Z" fill="#000000" transform="matrix(1,0,0,1,27,41)"></path>
				<path d="M 0 0 L 2 0 L 2 2 L 0 2 Z" fill="#000000" transform="matrix(1,0,0,1,29,41)"></path>
				<path d="M 0 0 L 2 0 L 2 2 L 0 2 Z" fill="#FFFFFF" transform="matrix(1,0,0,1,31,41)"></path>
				<path d="M 0 0 L 2 0 L 2 2 L 0 2 Z" fill="#FFFFFF" transform="matrix(1,0,0,1,33,41)"></path>
				<path d="M 0 0 L 2 0 L 2 2 L 0 2 Z" fill="#FFFFFF" transform="matrix(1,0,0,1,35,41)"></path>
				<path d="M 0 0 L 2 0 L 2 2 L 0 2 Z" fill="#000000" transform="matrix(1,0,0,1,37,41)"></path>
				<path d="M 0 0 L 2 0 L 2 2 L 0 2 Z" fill="#FFFFFF" transform="matrix(1,0,0,1,39,41)"></path>
				<path d="M 0 0 L 2 0 L 2 2 L 0 2 Z" fill="#000000" transform="matrix(1,0,0,1,41,41)"></path>
				<path d="M 0 0 L 3 0 L 3 2 L 0 2 Z" fill="#000000" transform="matrix(1,0,0,1,43,41)"></path>
				<path d="M 0 0 L 2 0 L 2 2 L 0 2 Z" fill="#000000" transform="matrix(1,0,0,1,46,41)"></path>
				<path d="M 0 0 L 2 0 L 2 2 L 0 2 Z" fill="#000000" transform="matrix(1,0,0,1,48,41)"></path>
				<path d="M 0 0 L 2 0 L 2 2 L 0 2 Z" fill="#000000" transform="matrix(1,0,0,1,50,41)"></path>
				<path d="M 0 0 L 2 0 L 2 2 L 0 2 Z" fill="#FFFFFF" transform="matrix(1,0,0,1,52,41)"></path>
				<path d="M 0 0 L 2 0 L 2 2 L 0 2 Z" fill="#000000" transform="matrix(1,0,0,1,54,41)"></path>
				<path d="M 0 0 L 2 0 L 2 2 L 0 2 Z" fill="#FFFFFF" transform="matrix(1,0,0,1,56,41)"></path>
				<path d="M 0 0 L 2 0 L 2 2 L 0 2 Z" fill="#FFFFFF" transform="matrix(1,0,0,1,58,41)"></path>
				<path d="M 0 0 L 2 0 L 2 3 L 0 3 Z" fill="#FFFFFF" transform="matrix(1,0,0,1,0,43)"></path>
				<path d="M 0 0 L 2 0 L 2 3 L 0 3 Z" fill="#FFFFFF" transform="matrix(1,0,0,1,2,43)"></path>
				<path d="M 0 0 L 2 0 L 2 3 L 0 3 Z" fill="#FFFFFF" transform="matrix(1,0,0,1,4,43)"></path>
				<path d="M 0 0 L 2 0 L 2 3 L 0 3 Z" fill="#FFFFFF" transform="matrix(1,0,0,1,6,43)"></path>
				<path d="M 0 0 L 2 0 L 2 3 L 0 3 Z" fill="#FFFFFF" transform="matrix(1,0,0,1,8,43)"></path>
				<path d="M 0 0 L 2 0 L 2 3 L 0 3 Z" fill="#FFFFFF" transform="matrix(1,0,0,1,10,43)"></path>
				<path d="M 0 0 L 2 0 L 2 3 L 0 3 Z" fill="#FFFFFF" transform="matrix(1,0,0,1,12,43)"></path>
				<path d="M 0 0 L 3 0 L 3 3 L 0 3 Z" fill="#FFFFFF" transform="matrix(1,0,0,1,14,43)"></path>
				<path d="M 0 0 L 2 0 L 2 3 L 0 3 Z" fill="#000000" transform="matrix(1,0,0,1,17,43)"></path>
				<path d="M 0 0 L 2 0 L 2 3 L 0 3 Z" fill="#FFFFFF" transform="matrix(1,0,0,1,19,43)"></path>
				<path d="M 0 0 L 2 0 L 2 3 L 0 3 Z" fill="#000000" transform="matrix(1,0,0,1,21,43)"></path>
				<path d="M 0 0 L 2 0 L 2 3 L 0 3 Z" fill="#FFFFFF" transform="matrix(1,0,0,1,23,43)"></path>
				<path d="M 0 0 L 2 0 L 2 3 L 0 3 Z" fill="#000000" transform="matrix(1,0,0,1,25,43)"></path>
				<path d="M 0 0 L 2 0 L 2 3 L 0 3 Z" fill="#000000" transform="matrix(1,0,0,1,27,43)"></path>
				<path d="M 0 0 L 2 0 L 2 3 L 0 3 Z" fill="#000000" transform="matrix(1,0,0,1,29,43)"></path>
				<path d="M 0 0 L 2 0 L 2 3 L 0 3 Z" fill="#FFFFFF" transform="matrix(1,0,0,1,31,43)"></path>
				<path d="M 0 0 L 2 0 L 2 3 L 0 3 Z" fill="#FFFFFF" transform="matrix(1,0,0,1,33,43)"></path>
				<path d="M 0 0 L 2 0 L 2 3 L 0 3 Z" fill="#000000" transform="matrix(1,0,0,1,35,43)"></path>
				<path d="M 0 0 L 2 0 L 2 3 L 0 3 Z" fill="#000000" transform="matrix(1,0,0,1,37,43)"></path>
				<path d="M 0 0 L 2 0 L 2 3 L 0 3 Z" fill="#000000" transform="matrix(1,0,0,1,39,43)"></path>
				<path d="M 0 0 L 2 0 L 2 3 L 0 3 Z" fill="#000000" transform="matrix(1,0,0,1,41,43)"></path>
				<path d="M 0 0 L 3 0 L 3 3 L 0 3 Z" fill="#FFFFFF" transform="matrix(1,0,0,1,43,43)"></path>
				<path d="M 0 0 L 2 0 L 2 3 L 0 3 Z" fill="#FFFFFF" transform="matrix(1,0,0,1,46,43)"></path>
				<path d="M 0 0 L 2 0 L 2 3 L 0 3 Z" fill="#FFFFFF" transform="matrix(1,0,0,1,48,43)"></path>
				<path d="M 0 0 L 2 0 L 2 3 L 0 3 Z" fill="#000000" transform="matrix(1,0,0,1,50,43)"></path>
				<path d="M 0 0 L 2 0 L 2 3 L 0 3 Z" fill="#FFFFFF" transform="matrix(1,0,0,1,52,43)"></path>
				<path d="M 0 0 L 2 0 L 2 3 L 0 3 Z" fill="#000000" transform="matrix(1,0,0,1,54,43)"></path>
				<path d="M 0 0 L 2 0 L 2 3 L 0 3 Z" fill="#000000" transform="matrix(1,0,0,1,56,43)"></path>
				<path d="M 0 0 L 2 0 L 2 3 L 0 3 Z" fill="#000000" transform="matrix(1,0,0,1,58,43)"></path>
				<path d="M 0 0 L 2 0 L 2 2 L 0 2 Z" fill="#000000" transform="matrix(1,0,0,1,0,46)"></path>
				<path d="M 0 0 L 2 0 L 2 2 L 0 2 Z" fill="#000000" transform="matrix(1,0,0,1,2,46)"></path>
				<path d="M 0 0 L 2 0 L 2 2 L 0 2 Z" fill="#000000" transform="matrix(1,0,0,1,4,46)"></path>
				<path d="M 0 0 L 2 0 L 2 2 L 0 2 Z" fill="#000000" transform="matrix(1,0,0,1,6,46)"></path>
				<path d="M 0 0 L 2 0 L 2 2 L 0 2 Z" fill="#000000" transform="matrix(1,0,0,1,8,46)"></path>
				<path d="M 0 0 L 2 0 L 2 2 L 0 2 Z" fill="#000000" transform="matrix(1,0,0,1,10,46)"></path>
				<path d="M 0 0 L 2 0 L 2 2 L 0 2 Z" fill="#000000" transform="matrix(1,0,0,1,12,46)"></path>
				<path d="M 0 0 L 3 0 L 3 2 L 0 2 Z" fill="#FFFFFF" transform="matrix(1,0,0,1,14,46)"></path>
				<path d="M 0 0 L 2 0 L 2 2 L 0 2 Z" fill="#000000" transform="matrix(1,0,0,1,17,46)"></path>
				<path d="M 0 0 L 2 0 L 2 2 L 0 2 Z" fill="#FFFFFF" transform="matrix(1,0,0,1,19,46)"></path>
				<path d="M 0 0 L 2 0 L 2 2 L 0 2 Z" fill="#000000" transform="matrix(1,0,0,1,21,46)"></path>
				<path d="M 0 0 L 2 0 L 2 2 L 0 2 Z" fill="#FFFFFF" transform="matrix(1,0,0,1,23,46)"></path>
				<path d="M 0 0 L 2 0 L 2 2 L 0 2 Z" fill="#FFFFFF" transform="matrix(1,0,0,1,25,46)"></path>
				<path d="M 0 0 L 2 0 L 2 2 L 0 2 Z" fill="#000000" transform="matrix(1,0,0,1,27,46)"></path>
				<path d="M 0 0 L 2 0 L 2 2 L 0 2 Z" fill="#000000" transform="matrix(1,0,0,1,29,46)"></path>
				<path d="M 0 0 L 2 0 L 2 2 L 0 2 Z" fill="#FFFFFF" transform="matrix(1,0,0,1,31,46)"></path>
				<path d="M 0 0 L 2 0 L 2 2 L 0 2 Z" fill="#000000" transform="matrix(1,0,0,1,33,46)"></path>
				<path d="M 0 0 L 2 0 L 2 2 L 0 2 Z" fill="#FFFFFF" transform="matrix(1,0,0,1,35,46)"></path>
				<path d="M 0 0 L 2 0 L 2 2 L 0 2 Z" fill="#FFFFFF" transform="matrix(1,0,0,1,37,46)"></path>
				<path d="M 0 0 L 2 0 L 2 2 L 0 2 Z" fill="#FFFFFF" transform="matrix(1,0,0,1,39,46)"></path>
				<path d="M 0 0 L 2 0 L 2 2 L 0 2 Z" fill="#000000" transform="matrix(1,0,0,1,41,46)"></path>
				<path d="M 0 0 L 3 0 L 3 2 L 0 2 Z" fill="#FFFFFF" transform="matrix(1,0,0,1,43,46)"></path>
				<path d="M 0 0 L 2 0 L 2 2 L 0 2 Z" fill="#000000" transform="matrix(1,0,0,1,46,46)"></path>
				<path d="M 0 0 L 2 0 L 2 2 L 0 2 Z" fill="#FFFFFF" transform="matrix(1,0,0,1,48,46)"></path>
				<path d="M 0 0 L 2 0 L 2 2 L 0 2 Z" fill="#000000" transform="matrix(1,0,0,1,50,46)"></path>
				<path d="M 0 0 L 2 0 L 2 2 L 0 2 Z" fill="#FFFFFF" transform="matrix(1,0,0,1,52,46)"></path>
				<path d="M 0 0 L 2 0 L 2 2 L 0 2 Z" fill="#FFFFFF" transform="matrix(1,0,0,1,54,46)"></path>
				<path d="M 0 0 L 2 0 L 2 2 L 0 2 Z" fill="#000000" transform="matrix(1,0,0,1,56,46)"></path>
				<path d="M 0 0 L 2 0 L 2 2 L 0 2 Z" fill="#FFFFFF" transform="matrix(1,0,0,1,58,46)"></path>
				<path d="M 0 0 L 2 0 L 2 2 L 0 2 Z" fill="#000000" transform="matrix(1,0,0,1,0,48)"></path>
				<path d="M 0 0 L 2 0 L 2 2 L 0 2 Z" fill="#FFFFFF" transform="matrix(1,0,0,1,2,48)"></path>
				<path d="M 0 0 L 2 0 L 2 2 L 0 2 Z" fill="#FFFFFF" transform="matrix(1,0,0,1,4,48)"></path>
				<path d="M 0 0 L 2 0 L 2 2 L 0 2 Z" fill="#FFFFFF" transform="matrix(1,0,0,1,6,48)"></path>
				<path d="M 0 0 L 2 0 L 2 2 L 0 2 Z" fill="#FFFFFF" transform="matrix(1,0,0,1,8,48)"></path>
				<path d="M 0 0 L 3 0 L 3 2 L 0 2 Z" fill="#FFFFFF" transform="matrix(1,0,0,1,14,48)"></path>
				<path d="M 0 0 L 2 0 L 2 2 L 0 2 Z" fill="#FFFFFF" transform="matrix(1,0,0,1,17,48)"></path>
				<path d="M 0 0 L 2 0 L 2 2 L 0 2 Z" fill="#000000" transform="matrix(1,0,0,1,19,48)"></path>
				<path d="M 0 0 L 2 0 L 2 2 L 0 2 Z" fill="#FFFFFF" transform="matrix(1,0,0,1,21,48)"></path>
				<path d="M 0 0 L 2 0 L 2 2 L 0 2 Z" fill="#FFFFFF" transform="matrix(1,0,0,1,23,48)"></path>
				<path d="M 0 0 L 2 0 L 2 2 L 0 2 Z" fill="#FFFFFF" transform="matrix(1,0,0,1,25,48)"></path>
				<path d="M 0 0 L 2 0 L 2 2 L 0 2 Z" fill="#000000" transform="matrix(1,0,0,1,27,48)"></path>
				<path d="M 0 0 L 2 0 L 2 2 L 0 2 Z" fill="#000000" transform="matrix(1,0,0,1,29,48)"></path>
				<path d="M 0 0 L 2 0 L 2 2 L 0 2 Z" fill="#FFFFFF" transform="matrix(1,0,0,1,31,48)"></path>
				<path d="M 0 0 L 2 0 L 2 2 L 0 2 Z" fill="#FFFFFF" transform="matrix(1,0,0,1,33,48)"></path>
				<path d="M 0 0 L 2 0 L 2 2 L 0 2 Z" fill="#FFFFFF" transform="matrix(1,0,0,1,35,48)"></path>
				<path d="M 0 0 L 2 0 L 2 2 L 0 2 Z" fill="#000000" transform="matrix(1,0,0,1,37,48)"></path>
				<path d="M 0 0 L 2 0 L 2 2 L 0 2 Z" fill="#FFFFFF" transform="matrix(1,0,0,1,39,48)"></path>
				<path d="M 0 0 L 2 0 L 2 2 L 0 2 Z" fill="#000000" transform="matrix(1,0,0,1,41,48)"></path>
				<path d="M 0 0 L 3 0 L 3 2 L 0 2 Z" fill="#FFFFFF" transform="matrix(1,0,0,1,43,48)"></path>
				<path d="M 0 0 L 2 0 L 2 2 L 0 2 Z" fill="#FFFFFF" transform="matrix(1,0,0,1,46,48)"></path>
				<path d="M 0 0 L 2 0 L 2 2 L 0 2 Z" fill="#FFFFFF" transform="matrix(1,0,0,1,48,48)"></path>
				<path d="M 0 0 L 2 0 L 2 2 L 0 2 Z" fill="#000000" transform="matrix(1,0,0,1,50,48)"></path>
				<path d="M 0 0 L 2 0 L 2 2 L 0 2 Z" fill="#000000" transform="matrix(1,0,0,1,52,48)"></path>
				<path d="M 0 0 L 2 0 L 2 2 L 0 2 Z" fill="#000000" transform="matrix(1,0,0,1,54,48)"></path>
				<path d="M 0 0 L 2 0 L 2 2 L 0 2 Z" fill="#FFFFFF" transform="matrix(1,0,0,1,56,48)"></path>
				<path d="M 0 0 L 2 0 L 2 2 L 0 2 Z" fill="#000000" transform="matrix(1,0,0,1,58,48)"></path>
				<path d="M 0 0 L 2 0 L 2 2 L 0 2 Z" fill="#000000" transform="matrix(1,0,0,1,0,50)"></path>
				<path d="M 0 0 L 2 0 L 2 2 L 0 2 Z" fill="#FFFFFF" transform="matrix(1,0,0,1,2,50)"></path>
				<path d="M 0 0 L 2 0 L 2 2 L 0 2 Z" fill="#000000" transform="matrix(1,0,0,1,4,50)"></path>
				<path d="M 0 0 L 2 0 L 2 2 L 0 2 Z" fill="#000000" transform="matrix(1,0,0,1,6,50)"></path>
				<path d="M 0 0 L 2 0 L 2 2 L 0 2 Z" fill="#000000" transform="matrix(1,0,0,1,8,50)"></path>
				<path d="M 0 0 L 2 0 L 2 2 L 0 2 Z" fill="#FFFFFF" transform="matrix(1,0,0,1,10,50)"></path>
				<path d="M 0 0 L 2 0 L 2 2 L 0 2 Z" fill="#000000" transform="matrix(1,0,0,1,12,50)"></path>
				<path d="M 0 0 L 3 0 L 3 2 L 0 2 Z" fill="#FFFFFF" transform="matrix(1,0,0,1,14,50)"></path>
				<path d="M 0 0 L 2 0 L 2 2 L 0 2 Z" fill="#FFFFFF" transform="matrix(1,0,0,1,17,50)"></path>
				<path d="M 0 0 L 2 0 L 2 2 L 0 2 Z" fill="#FFFFFF" transform="matrix(1,0,0,1,19,50)"></path>
				<path d="M 0 0 L 2 0 L 2 2 L 0 2 Z" fill="#000000" transform="matrix(1,0,0,1,21,50)"></path>
				<path d="M 0 0 L 2 0 L 2 2 L 0 2 Z" fill="#FFFFFF" transform="matrix(1,0,0,1,23,50)"></path>
				<path d="M 0 0 L 2 0 L 2 2 L 0 2 Z" fill="#000000" transform="matrix(1,0,0,1,25,50)"></path>
				<path d="M 0 0 L 2 0 L 2 2 L 0 2 Z" fill="#000000" transform="matrix(1,0,0,1,27,50)"></path>
				<path d="M 0 0 L 2 0 L 2 2 L 0 2 Z" fill="#FFFFFF" transform="matrix(1,0,0,1,29,50)"></path>
				<path d="M 0 0 L 2 0 L 2 2 L 0 2 Z" fill="#FFFFFF" transform="matrix(1,0,0,1,31,50)"></path>
				<path d="M 0 0 L 2 0 L 2 2 L 0 2 Z" fill="#FFFFFF" transform="matrix(1,0,0,1,33,50)"></path>
				<path d="M 0 0 L 2 0 L 2 2 L 0 2 Z" fill="#000000" transform="matrix(1,0,0,1,35,50)"></path>
				<path d="M 0 0 L 2 0 L 2 2 L 0 2 Z" fill="#000000" transform="matrix(1,0,0,1,37,50)"></path>
				<path d="M 0 0 L 2 0 L 2 2 L 0 2 Z" fill="#FFFFFF" transform="matrix(1,0,0,1,39,50)"></path>
				<path d="M 0 0 L 2 0 L 2 2 L 0 2 Z" fill="#000000" transform="matrix(1,0,0,1,41,50)"></path>
				<path d="M 0 0 L 3 0 L 3 2 L 0 2 Z" fill="#000000" transform="matrix(1,0,0,1,43,50)"></path>
				<path d="M 0 0 L 2 0 L 2 2 L 0 2 Z" fill="#000000" transform="matrix(1,0,0,1,46,50)"></path>
				<path d="M 0 0 L 2 0 L 2 2 L 0 2 Z" fill="#000000" transform="matrix(1,0,0,1,48,50)"></path>
				<path d="M 0 0 L 2 0 L 2 2 L 0 2 Z" fill="#000000" transform="matrix(1,0,0,1,50,50)"></path>
				<path d="M 0 0 L 2 0 L 2 2 L 0 2 Z" fill="#FFFFFF" transform="matrix(1,0,0,1,52,50)"></path>
				<path d="M 0 0 L 2 0 L 2 2 L 0 2 Z" fill="#FFFFFF" transform="matrix(1,0,0,1,54,50)"></path>
				<path d="M 0 0 L 2 0 L 2 2 L 0 2 Z" fill="#FFFFFF" transform="matrix(1,0,0,1,56,50)"></path>
				<path d="M 0 0 L 2 0 L 2 2 L 0 2 Z" fill="#000000" transform="matrix(1,0,0,1,58,50)"></path>
				<path d="M 0 0 L 2 0 L 2 2 L 0 2 Z" fill="#000000" transform="matrix(1,0,0,1,0,52)"></path>
				<path d="M 0 0 L 2 0 L 2 2 L 0 2 Z" fill="#FFFFFF" transform="matrix(1,0,0,1,2,52)"></path>
				<path d="M 0 0 L 2 0 L 2 2 L 0 2 Z" fill="#000000" transform="matrix(1,0,0,1,4,52)"></path>
				<path d="M 0 0 L 2 0 L 2 2 L 0 2 Z" fill="#000000" transform="matrix(1,0,0,1,6,52)"></path>
				<path d="M 0 0 L 2 0 L 2 2 L 0 2 Z" fill="#000000" transform="matrix(1,0,0,1,8,52)"></path>
				<path d="M 0 0 L 2 0 L 2 2 L 0 2 Z" fill="#FFFFFF" transform="matrix(1,0,0,1,10,52)"></path>
				<path d="M 0 0 L 2 0 L 2 2 L 0 2 Z" fill="#000000" transform="matrix(1,0,0,1,12,52)"></path>
				<path d="M 0 0 L 3 0 L 3 2 L 0 2 Z" fill="#FFFFFF" transform="matrix(1,0,0,1,14,52)"></path>
				<path d="M 0 0 L 2 0 L 2 2 L 0 2 Z" fill="#000000" transform="matrix(1,0,0,1,17,52)"></path>
				<path d="M 0 0 L 2 0 L 2 2 L 0 2 Z" fill="#000000" transform="matrix(1,0,0,1,19,52)"></path>
				<path d="M 0 0 L 2 0 L 2 2 L 0 2 Z" fill="#000000" transform="matrix(1,0,0,1,21,52)"></path>
				<path d="M 0 0 L 2 0 L 2 2 L 0 2 Z" fill="#FFFFFF" transform="matrix(1,0,0,1,23,52)"></path>
				<path d="M 0 0 L 2 0 L 2 2 L 0 2 Z" fill="#000000" transform="matrix(1,0,0,1,25,52)"></path>
				<path d="M 0 0 L 2 0 L 2 2 L 0 2 Z" fill="#000000" transform="matrix(1,0,0,1,27,52)"></path>
				<path d="M 0 0 L 2 0 L 2 2 L 0 2 Z" fill="#FFFFFF" transform="matrix(1,0,0,1,29,52)"></path>
				<path d="M 0 0 L 2 0 L 2 2 L 0 2 Z" fill="#FFFFFF" transform="matrix(1,0,0,1,31,52)"></path>
				<path d="M 0 0 L 2 0 L 2 2 L 0 2 Z" fill="#000000" transform="matrix(1,0,0,1,33,52)"></path>
				<path d="M 0 0 L 2 0 L 2 2 L 0 2 Z" fill="#000000" transform="matrix(1,0,0,1,35,52)"></path>
				<path d="M 0 0 L 2 0 L 2 2 L 0 2 Z" fill="#000000" transform="matrix(1,0,0,1,37,52)"></path>
				<path d="M 0 0 L 2 0 L 2 2 L 0 2 Z" fill="#000000" transform="matrix(1,0,0,1,39,52)"></path>
				<path d="M 0 0 L 2 0 L 2 2 L 0 2 Z" fill="#FFFFFF" transform="matrix(1,0,0,1,41,52)"></path>
				<path d="M 0 0 L 3 0 L 3 2 L 0 2 Z" fill="#FFFFFF" transform="matrix(1,0,0,1,43,52)"></path>
				<path d="M 0 0 L 2 0 L 2 2 L 0 2 Z" fill="#000000" transform="matrix(1,0,0,1,46,52)"></path>
				<path d="M 0 0 L 2 0 L 2 2 L 0 2 Z" fill="#000000" transform="matrix(1,0,0,1,48,52)"></path>
				<path d="M 0 0 L 2 0 L 2 2 L 0 2 Z" fill="#000000" transform="matrix(1,0,0,1,50,52)"></path>
				<path d="M 0 0 L 2 0 L 2 2 L 0 2 Z" fill="#000000" transform="matrix(1,0,0,1,52,52)"></path>
				<path d="M 0 0 L 2 0 L 2 2 L 0 2 Z" fill="#000000" transform="matrix(1,0,0,1,54,52)"></path>
				<path d="M 0 0 L 2 0 L 2 2 L 0 2 Z" fill="#FFFFFF" transform="matrix(1,0,0,1,56,52)"></path>
				<path d="M 0 0 L 2 0 L 2 2 L 0 2 Z" fill="#FFFFFF" transform="matrix(1,0,0,1,58,52)"></path>
				<path d="M 0 0 L 2 0 L 2 2 L 0 2 Z" fill="#000000" transform="matrix(1,0,0,1,0,54)"></path>
				<path d="M 0 0 L 2 0 L 2 2 L 0 2 Z" fill="#FFFFFF" transform="matrix(1,0,0,1,2,54)"></path>
				<path d="M 0 0 L 2 0 L 2 2 L 0 2 Z" fill="#000000" transform="matrix(1,0,0,1,4,54)"></path>
				<path d="M 0 0 L 2 0 L 2 2 L 0 2 Z" fill="#000000" transform="matrix(1,0,0,1,6,54)"></path>
				<path d="M 0 0 L 2 0 L 2 2 L 0 2 Z" fill="#000000" transform="matrix(1,0,0,1,8,54)"></path>
				<path d="M 0 0 L 2 0 L 2 2 L 0 2 Z" fill="#FFFFFF" transform="matrix(1,0,0,1,10,54)"></path>
				<path d="M 0 0 L 2 0 L 2 2 L 0 2 Z" fill="#000000" transform="matrix(1,0,0,1,12,54)"></path>
				<path d="M 0 0 L 3 0 L 3 2 L 0 2 Z" fill="#FFFFFF" transform="matrix(1,0,0,1,14,54)"></path>
				<path d="M 0 0 L 2 0 L 2 2 L 0 2 Z" fill="#FFFFFF" transform="matrix(1,0,0,1,17,54)"></path>
				<path d="M 0 0 L 2 0 L 2 2 L 0 2 Z" fill="#000000" transform="matrix(1,0,0,1,19,54)"></path>
				<path d="M 0 0 L 2 0 L 2 2 L 0 2 Z" fill="#000000" transform="matrix(1,0,0,1,21,54)"></path>
				<path d="M 0 0 L 2 0 L 2 2 L 0 2 Z" fill="#000000" transform="matrix(1,0,0,1,23,54)"></path>
				<path d="M 0 0 L 2 0 L 2 2 L 0 2 Z" fill="#FFFFFF" transform="matrix(1,0,0,1,25,54)"></path>
				<path d="M 0 0 L 2 0 L 2 2 L 0 2 Z" fill="#FFFFFF" transform="matrix(1,0,0,1,27,54)"></path>
				<path d="M 0 0 L 2 0 L 2 2 L 0 2 Z" fill="#000000" transform="matrix(1,0,0,1,29,54)"></path>
				<path d="M 0 0 L 2 0 L 2 2 L 0 2 Z" fill="#FFFFFF" transform="matrix(1,0,0,1,31,54)"></path>
				<path d="M 0 0 L 2 0 L 2 2 L 0 2 Z" fill="#000000" transform="matrix(1,0,0,1,33,54)"></path>
				<path d="M 0 0 L 2 0 L 2 2 L 0 2 Z" fill="#FFFFFF" transform="matrix(1,0,0,1,35,54)"></path>
				<path d="M 0 0 L 2 0 L 2 2 L 0 2 Z" fill="#000000" transform="matrix(1,0,0,1,37,54)"></path>
				<path d="M 0 0 L 2 0 L 2 2 L 0 2 Z" fill="#FFFFFF" transform="matrix(1,0,0,1,39,54)"></path>
				<path d="M 0 0 L 2 0 L 2 2 L 0 2 Z" fill="#FFFFFF" transform="matrix(1,0,0,1,41,54)"></path>
				<path d="M 0 0 L 3 0 L 3 2 L 0 2 Z" fill="#000000" transform="matrix(1,0,0,1,43,54)"></path>
				<path d="M 0 0 L 2 0 L 2 2 L 0 2 Z" fill="#FFFFFF" transform="matrix(1,0,0,1,46,54)"></path>
				<path d="M 0 0 L 2 0 L 2 2 L 0 2 Z" fill="#FFFFFF" transform="matrix(1,0,0,1,48,54)"></path>
				<path d="M 0 0 L 2 0 L 2 2 L 0 2 Z" fill="#000000" transform="matrix(1,0,0,1,50,54)"></path>
				<path d="M 0 0 L 2 0 L 2 2 L 0 2 Z" fill="#000000" transform="matrix(1,0,0,1,52,54)"></path>
				<path d="M 0 0 L 2 0 L 2 2 L 0 2 Z" fill="#000000" transform="matrix(1,0,0,1,54,54)"></path>
				<path d="M 0 0 L 2 0 L 2 2 L 0 2 Z" fill="#FFFFFF" transform="matrix(1,0,0,1,56,54)"></path>
				<path d="M 0 0 L 2 0 L 2 2 L 0 2 Z" fill="#000000" transform="matrix(1,0,0,1,58,54)"></path>
				<path d="M 0 0 L 2 0 L 2 2 L 0 2 Z" fill="#000000" transform="matrix(1,0,0,1,0,56)"></path>
				<path d="M 0 0 L 2 0 L 2 2 L 0 2 Z" fill="#FFFFFF" transform="matrix(1,0,0,1,2,56)"></path>
				<path d="M 0 0 L 2 0 L 2 2 L 0 2 Z" fill="#FFFFFF" transform="matrix(1,0,0,1,4,56)"></path>
				<path d="M 0 0 L 2 0 L 2 2 L 0 2 Z" fill="#FFFFFF" transform="matrix(1,0,0,1,6,56)"></path>
				<path d="M 0 0 L 2 0 L 2 2 L 0 2 Z" fill="#FFFFFF" transform="matrix(1,0,0,1,8,56)"></path>
				<path d="M 0 0 L 2 0 L 2 2 L 0 2 Z" fill="#FFFFFF" transform="matrix(1,0,0,1,10,56)"></path>
				<path d="M 0 0 L 2 0 L 2 2 L 0 2 Z" fill="#000000" transform="matrix(1,0,0,1,12,56)"></path>
				<path d="M 0 0 L 3 0 L 3 2 L 0 2 Z" fill="#FFFFFF" transform="matrix(1,0,0,1,14,56)"></path>
				<path d="M 0 0 L 2 0 L 2 2 L 0 2 Z" fill="#000000" transform="matrix(1,0,0,1,17,56)"></path>
				<path d="M 0 0 L 2 0 L 2 2 L 0 2 Z" fill="#000000" transform="matrix(1,0,0,1,19,56)"></path>
				<path d="M 0 0 L 2 0 L 2 2 L 0 2 Z" fill="#000000" transform="matrix(1,0,0,1,21,56)"></path>
				<path d="M 0 0 L 2 0 L 2 2 L 0 2 Z" fill="#FFFFFF" transform="matrix(1,0,0,1,23,56)"></path>
				<path d="M 0 0 L 2 0 L 2 2 L 0 2 Z" fill="#000000" transform="matrix(1,0,0,1,25,56)"></path>
				<path d="M 0 0 L 2 0 L 2 2 L 0 2 Z" fill="#000000" transform="matrix(1,0,0,1,27,56)"></path>
				<path d="M 0 0 L 2 0 L 2 2 L 0 2 Z" fill="#FFFFFF" transform="matrix(1,0,0,1,29,56)"></path>
				<path d="M 0 0 L 2 0 L 2 2 L 0 2 Z" fill="#FFFFFF" transform="matrix(1,0,0,1,31,56)"></path>
				<path d="M 0 0 L 2 0 L 2 2 L 0 2 Z" fill="#000000" transform="matrix(1,0,0,1,33,56)"></path>
				<path d="M 0 0 L 2 0 L 2 2 L 0 2 Z" fill="#000000" transform="matrix(1,0,0,1,35,56)"></path>
				<path d="M 0 0 L 2 0 L 2 2 L 0 2 Z" fill="#FFFFFF" transform="matrix(1,0,0,1,37,56)"></path>
				<path d="M 0 0 L 2 0 L 2 2 L 0 2 Z" fill="#000000" transform="matrix(1,0,0,1,39,56)"></path>
				<path d="M 0 0 L 2 0 L 2 2 L 0 2 Z" fill="#000000" transform="matrix(1,0,0,1,41,56)"></path>
				<path d="M 0 0 L 3 0 L 3 2 L 0 2 Z" fill="#FFFFFF" transform="matrix(1,0,0,1,43,56)"></path>
				<path d="M 0 0 L 2 0 L 2 2 L 0 2 Z" fill="#FFFFFF" transform="matrix(1,0,0,1,46,56)"></path>
				<path d="M 0 0 L 2 0 L 2 2 L 0 2 Z" fill="#FFFFFF" transform="matrix(1,0,0,1,48,56)"></path>
				<path d="M 0 0 L 2 0 L 2 2 L 0 2 Z" fill="#000000" transform="matrix(1,0,0,1,50,56)"></path>
				<path d="M 0 0 L 2 0 L 2 2 L 0 2 Z" fill="#FFFFFF" transform="matrix(1,0,0,1,52,56)"></path>
				<path d="M 0 0 L 2 0 L 2 2 L 0 2 Z" fill="#FFFFFF" transform="matrix(1,0,0,1,54,56)"></path>
				<path d="M 0 0 L 2 0 L 2 2 L 0 2 Z" fill="#000000" transform="matrix(1,0,0,1,56,56)"></path>
				<path d="M 0 0 L 2 0 L 2 2 L 0 2 Z" fill="#FFFFFF" transform="matrix(1,0,0,1,58,56)"></path>
				<path d="M 0 0 L 2 0 L 2 2 L 0 2 Z" fill="#000000" transform="matrix(1,0,0,1,0,58)"></path>
				<path d="M 0 0 L 2 0 L 2 2 L 0 2 Z" fill="#000000" transform="matrix(1,0,0,1,2,58)"></path>
				<path d="M 0 0 L 2 0 L 2 2 L 0 2 Z" fill="#000000" transform="matrix(1,0,0,1,4,58)"></path>
				<path d="M 0 0 L 2 0 L 2 2 L 0 2 Z" fill="#000000" transform="matrix(1,0,0,1,6,58)"></path>
				<path d="M 0 0 L 2 0 L 2 2 L 0 2 Z" fill="#000000" transform="matrix(1,0,0,1,8,58)"></path>
				<path d="M 0 0 L 2 0 L 2 2 L 0 2 Z" fill="#000000" transform="matrix(1,0,0,1,10,58)"></path>
				<path d="M 0 0 L 2 0 L 2 2 L 0 2 Z" fill="#000000" transform="matrix(1,0,0,1,12,58)"></path>
				<path d="M 0 0 L 3 0 L 3 2 L 0 2 Z" fill="#FFFFFF" transform="matrix(1,0,0,1,14,58)"></path>
				<path d="M 0 0 L 2 0 L 2 2 L 0 2 Z" fill="#000000" transform="matrix(1,0,0,1,17,58)"></path>
				<path d="M 0 0 L 2 0 L 2 2 L 0 2 Z" fill="#000000" transform="matrix(1,0,0,1,19,58)"></path>
				<path d="M 0 0 L 2 0 L 2 2 L 0 2 Z" fill="#000000" transform="matrix(1,0,0,1,21,58)"></path>
				<path d="M 0 0 L 2 0 L 2 2 L 0 2 Z" fill="#000000" transform="matrix(1,0,0,1,23,58)"></path>
				<path d="M 0 0 L 2 0 L 2 2 L 0 2 Z" fill="#000000" transform="matrix(1,0,0,1,25,58)"></path>
				<path d="M 0 0 L 2 0 L 2 2 L 0 2 Z" fill="#FFFFFF" transform="matrix(1,0,0,1,27,58)"></path>
				<path d="M 0 0 L 2 0 L 2 2 L 0 2 Z" fill="#FFFFFF" transform="matrix(1,0,0,1,29,58)"></path>
				<path d="M 0 0 L 2 0 L 2 2 L 0 2 Z" fill="#FFFFFF" transform="matrix(1,0,0,1,31,58)"></path>
				<path d="M 0 0 L 2 0 L 2 2 L 0 2 Z" fill="#000000" transform="matrix(1,0,0,1,33,58)"></path>
				<path d="M 0 0 L 2 0 L 2 2 L 0 2 Z" fill="#000000" transform="matrix(1,0,0,1,35,58)"></path>
				<path d="M 0 0 L 2 0 L 2 2 L 0 2 Z" fill="#FFFFFF" transform="matrix(1,0,0,1,39,58)"></path>
				<path d="M 0 0 L 2 0 L 2 2 L 0 2 Z" fill="#000000" transform="matrix(1,0,0,1,41,58)"></path>
				<path d="M 0 0 L 3 0 L 3 2 L 0 2 Z" fill="#FFFFFF" transform="matrix(1,0,0,1,43,58)"></path>
				<path d="M 0 0 L 2 0 L 2 2 L 0 2 Z" fill="#FFFFFF" transform="matrix(1,0,0,1,46,58)"></path>
				<path d="M 0 0 L 2 0 L 2 2 L 0 2 Z" fill="#000000" transform="matrix(1,0,0,1,48,58)"></path>
				<path d="M 0 0 L 2 0 L 2 2 L 0 2 Z" fill="#000000" transform="matrix(1,0,0,1,50,58)"></path>
				<path d="M 0 0 L 2 0 L 2 2 L 0 2 Z" fill="#FFFFFF" transform="matrix(1,0,0,1,52,58)"></path>
				<path d="M 0 0 L 2 0 L 2 2 L 0 2 Z" fill="#FFFFFF" transform="matrix(1,0,0,1,54,58)"></path>
				<path d="M 0 0 L 2 0 L 2 2 L 0 2 Z" fill="#000000" transform="matrix(1,0,0,1,56,58)"></path>
				<path d="M 0 0 L 2 0 L 2 2 L 0 2 Z" fill="#FFFFFF" transform="matrix(1,0,0,1,58,58)"></path>
			</svg>