<svg xmlns="http://www.w3.org/2000/svg" width="400" height="400" viewBox="0 0 400 400">
  <g id="Group_35" data-name="Group 35" transform="translate(-10804 7779)">
    <rect id="Rectangle_23" data-name="Rectangle 23" width="400" height="400" transform="translate(10804 -7779)" fill="none"/>
    <path id="iconmonstr-vk-1" d="M219.358,238.224c10.15,0,14.3-6.766,14.183-15.249-.517-31.949,11.9-49.148,34.315-26.732,24.8,24.8,29.932,41.982,60.048,41.982h53.331c13.466,0,18.766-4.333,18.766-11.133,0-14.383-23.682-39.765-43.748-58.4-28.1-26.082-29.415-26.7-5.216-58.1,30.015-38.982,69.28-88.93,34.549-88.93H319.237c-12.866,0-13.8,7.25-18.383,18.049-16.583,39.115-48.1,89.78-60.064,82.03-12.516-8.083-6.783-40.1-5.833-87.68.25-12.566.183-21.182-19.016-25.649A134.492,134.492,0,0,0,185.792,5c-37.882,0-64.014,15.883-49.165,18.649,26.182,4.883,23.666,61.531,17.566,86-10.633,42.6-50.6-33.732-67.247-71.747C82.93,28.766,81.7,21.666,67.364,21.666H13.116C4.916,21.666,0,24.333,0,30.266c0,10.033,49.331,112,96.429,162.827,45.931,49.581,91.33,45.131,122.928,45.131Z" transform="translate(10804 -7701)" fill="#1c8ce4"/>
  </g>
</svg>
