<svg width="50" height="42" viewBox="0 0 50 42" fill="none" xmlns="http://www.w3.org/2000/svg">
<g id="respect (1)">
<path id="Path" fill-rule="evenodd" clip-rule="evenodd" d="M45.6799 4.40342C45.4973 4.2208 45.2463 4.11719 44.9894 4.11719C44.7315 4.11719 44.4806 4.2208 44.2979 4.40342C44.1163 4.58496 44.0127 4.83604 44.0127 5.09385C44.0127 5.35068 44.1163 5.60273 44.2979 5.78437C44.4805 5.96602 44.7314 6.07051 44.9894 6.07051C45.2462 6.07051 45.4973 5.96611 45.6799 5.78437C45.8615 5.60273 45.965 5.35078 45.965 5.09385C45.965 4.83604 45.8615 4.58496 45.6799 4.40342Z" fill="#323232"/>
<path id="Path_2" fill-rule="evenodd" clip-rule="evenodd" d="M23.2492 27.4054C23.0667 27.2228 22.8156 27.1191 22.5587 27.1191C22.3009 27.1191 22.0498 27.2228 21.8672 27.4054C21.6856 27.5869 21.582 27.838 21.582 28.0958C21.582 28.3526 21.6856 28.6046 21.8672 28.7863C22.0498 28.968 22.3008 29.0725 22.5587 29.0725C22.8155 29.0725 23.0666 28.9681 23.2492 28.7863C23.4309 28.6047 23.5344 28.3527 23.5344 28.0958C23.5345 27.838 23.431 27.5869 23.2492 27.4054Z" fill="#323232"/>
<path id="Shape" fill-rule="evenodd" clip-rule="evenodd" d="M46.7135 7.28145C47.1821 7.01484 47.7786 7.17871 48.0452 7.64766C51.3795 13.511 50.3734 20.9409 45.5979 25.7154L43.704 27.6094C43.625 27.6883 43.5356 27.7499 43.4406 27.7962C43.2613 28.2314 42.9955 28.6393 42.6425 28.9923C41.9474 29.6874 41.0231 30.0702 40.0401 30.0702C39.9904 30.0702 39.941 30.0686 39.8916 30.0666C39.9309 31.0574 39.5737 32.0611 38.8189 32.8159C38.1238 33.511 37.1996 33.8938 36.2166 33.8938C36.1669 33.8938 36.1175 33.8922 36.0681 33.8902C36.1073 34.8811 35.7502 35.8848 34.9954 36.6395C34.2779 37.3571 33.3354 37.7158 32.3929 37.7158C32.3314 37.7158 32.2699 37.7141 32.2086 37.711C32.2584 38.714 31.9014 39.7336 31.1371 40.4979C30.442 41.193 29.5178 41.5758 28.5348 41.5758C27.5518 41.5758 26.6275 41.193 25.9324 40.4978L24.0888 38.6543L22.7238 40.0193C22.0288 40.7145 21.1046 41.0973 20.1215 41.0973C19.1386 41.0973 18.2144 40.7145 17.5191 40.0193C16.764 39.2641 16.4068 38.2596 16.4465 37.2683C16.397 37.2702 16.3475 37.2718 16.2979 37.2718C15.3556 37.2718 14.4132 36.9131 13.6956 36.1956C13.0004 35.5005 12.6176 34.5763 12.6176 33.5933C12.6176 33.5436 12.6192 33.4941 12.6212 33.4447C12.5723 33.4467 12.5232 33.4482 12.4743 33.4482C11.5318 33.4483 10.5896 33.0896 9.87197 32.3721C9.17686 31.677 8.79404 30.7527 8.79404 29.7697C8.79404 29.72 8.7957 29.6706 8.79766 29.6212C8.74873 29.6231 8.69971 29.6247 8.65078 29.6247C7.7083 29.6247 6.76611 29.2661 6.04844 28.5485C5.40361 27.9038 5.04961 27.0772 4.98428 26.2323C4.90918 26.1898 4.83809 26.1375 4.77402 26.0735L4.40596 25.7055C1.56475 22.8642 0 19.0866 0 15.0685C0 11.0504 1.56465 7.27256 4.40596 4.43135C7.24727 1.59014 11.0248 0.0253906 15.043 0.0253906C18.752 0.0253906 22.2552 1.35947 25.007 3.79902C27.2471 1.81543 29.9798 0.565332 32.9653 0.167773C36.1556 -0.257129 39.454 0.364258 42.2536 1.91689C42.7253 2.17852 42.8956 2.77305 42.634 3.24473C42.3724 3.7165 41.7778 3.88652 41.3062 3.6251C36.2305 0.809668 29.8151 1.71338 25.7059 5.82275L18.9816 12.5469C18.1069 13.4215 18.1069 14.8446 18.9816 15.7192C19.8562 16.5939 21.2794 16.5939 22.154 15.7192L25.0993 12.7739C25.2826 12.5908 25.531 12.4879 25.7899 12.4879H29.6373C30.9159 12.4879 32.118 11.9899 33.0222 11.0858L34.9468 9.16113C35.3283 8.77979 35.9466 8.77979 36.328 9.16113C36.7094 9.54248 36.7094 10.1609 36.328 10.5423L34.4034 12.467C33.8711 12.9993 33.2647 13.4301 32.6085 13.7529L42.6433 23.7876C43.0209 24.1651 43.298 24.6055 43.477 25.0749L44.2175 24.3344C48.3726 20.1794 49.2483 13.7146 46.3474 8.61318C46.0807 8.14434 46.2446 7.54805 46.7135 7.28145ZM7.42959 27.1673C7.75586 27.4936 8.18955 27.6731 8.65088 27.6731C9.1123 27.6731 9.5459 27.4935 9.87207 27.1674L11.5551 25.4843C12.2285 24.8109 12.2285 23.7153 11.5551 23.0419C11.2289 22.7156 10.7951 22.536 10.3339 22.536C9.87256 22.536 9.43877 22.7156 9.1126 23.0419L7.42959 24.7249C7.10332 25.0511 6.92373 25.4849 6.92373 25.9461C6.92373 26.4074 7.10342 26.8411 7.42959 27.1673ZM11.2534 30.991C10.9271 30.6648 10.7476 30.2311 10.7476 29.7698C10.7476 29.3085 10.9271 28.8748 11.2534 28.5486L12.9365 26.8655V26.8654C13.2627 26.5393 13.6964 26.3596 14.1577 26.3596C14.6189 26.3596 15.0527 26.5392 15.3789 26.8654C16.0523 27.5389 16.0523 28.6345 15.3789 29.3078L13.6959 30.9909C13.0224 31.6643 11.9265 31.6643 11.2534 30.991ZM14.5711 33.5934C14.5711 34.0546 14.7507 34.4884 15.077 34.8146C15.7504 35.488 16.846 35.488 17.5193 34.8146L19.2024 33.1314C19.8759 32.4581 19.8759 31.3625 19.2024 30.689C18.8763 30.3627 18.4426 30.1831 17.9813 30.1831C17.5199 30.1831 17.0862 30.3628 16.7601 30.689V30.6891L15.077 32.3722C14.7507 32.6983 14.5711 33.132 14.5711 33.5934ZM23.0261 36.9552L21.343 38.6384C21.0168 38.9646 20.5831 39.1442 20.1218 39.1442C19.6605 39.1442 19.2268 38.9646 18.9006 38.6384C18.2271 37.9648 18.2271 36.8692 18.9006 36.1959L20.5837 34.5128V34.5127C20.9099 34.1865 21.3436 34.0068 21.8049 34.0068C22.2661 34.0068 22.6999 34.1864 23.0261 34.5127C23.3523 34.8389 23.5319 35.2727 23.5319 35.7339C23.532 36.1954 23.3523 36.629 23.0261 36.9552ZM40.0408 28.117C40.502 28.117 40.9358 27.9374 41.262 27.6111C41.9354 26.9379 41.9354 25.8422 41.2626 25.1685L30.4811 14.3871C30.2033 14.4216 29.9222 14.441 29.6379 14.441H26.1952L23.5358 17.1004C22.7177 17.9186 21.643 18.3275 20.5684 18.3275C19.4937 18.3275 18.419 17.9185 17.6009 17.1004C16.8083 16.3077 16.3718 15.2539 16.3718 14.1329C16.3718 13.012 16.8083 11.9582 17.6009 11.1655L23.6025 5.16387C21.2254 3.10313 18.2209 1.97852 15.0436 1.97852C11.5473 1.97852 8.25996 3.34014 5.7877 5.8124C3.31523 8.28467 1.95371 11.5719 1.95371 15.0683C1.95371 18.4298 3.21289 21.5975 5.50693 24.0341C5.65654 23.7882 5.83652 23.5559 6.04883 23.3436L7.73184 21.6605C9.1668 20.2257 11.5019 20.2256 12.9368 21.6605C13.6916 22.4153 14.0487 23.419 14.0095 24.4099C14.0589 24.4079 14.1083 24.4062 14.158 24.4062C15.1409 24.4062 16.0651 24.7891 16.7604 25.4842C17.5151 26.239 17.8723 27.2427 17.833 28.2335C17.8824 28.2315 17.9318 28.2299 17.9815 28.2299C18.9645 28.2299 19.8887 28.6127 20.5839 29.3078C21.3387 30.0626 21.6957 31.0663 21.6565 32.0571C21.706 32.0552 21.7554 32.0535 21.8051 32.0535C22.788 32.0535 23.7122 32.4363 24.4074 33.1314C25.1025 33.8266 25.4854 34.7508 25.4854 35.7338C25.4854 36.1898 25.402 36.6329 25.2442 37.0467L27.3142 39.1165C27.6403 39.4428 28.074 39.6224 28.5354 39.6224C28.9966 39.6224 29.4304 39.4428 29.7565 39.1165C30.43 38.4432 30.43 37.3476 29.7565 36.674L24.3169 31.2346C23.9355 30.8531 23.9355 30.2347 24.3169 29.8533C24.6984 29.4721 25.3167 29.4721 25.6981 29.8533L26.8576 31.0128C26.9476 31.0583 27.032 31.1181 27.1072 31.1932L31.1725 35.2584C31.8456 35.9318 32.9414 35.9318 33.6149 35.2584C34.2883 34.5851 34.2883 33.4894 33.6148 32.8158L29.5496 28.7508L29.5487 28.7498L25.7259 24.9271C25.3445 24.5456 25.3445 23.9271 25.7259 23.5458C26.1074 23.1646 26.7257 23.1646 27.1071 23.5458L34.996 31.4346C35.3222 31.7608 35.7559 31.9404 36.2172 31.9404C36.6784 31.9404 37.1122 31.7608 37.4384 31.4346C38.1118 30.7612 38.1118 29.6656 37.4384 28.9921L29.5495 21.1034C29.1682 20.7221 29.1682 20.1036 29.5495 19.7223C29.9311 19.3409 30.5493 19.3409 30.9308 19.7223L34.754 23.5455L34.7545 23.546L38.8196 27.6111C39.1458 27.9374 39.5795 28.117 40.0408 28.117Z" fill="#323232"/>
</g>
</svg>
