<svg width="48" height="50" viewBox="0 0 48 50" fill="none" xmlns="http://www.w3.org/2000/svg">
<g id="post (1)">
<path id="Shape" fill-rule="evenodd" clip-rule="evenodd" d="M22.195 0H21.8285C20.3393 0 19.0789 1.19899 19.0789 2.68819V5.27767L11.2668 3.00256C11.0473 2.93858 10.8114 2.96485 10.6118 3.07585C10.4118 3.18728 10.2652 3.3737 10.2038 3.594L0.0395141 38.624C-0.0909767 39.0854 0.175089 39.5658 0.63562 39.6993L35.6669 49.8699C36.1253 50.0034 36.6057 49.7416 36.7426 49.284L37.8272 45.5531H46.6061C47.0916 45.5498 47.486 45.16 47.4954 44.6744V8.19762C47.4954 7.71845 47.0853 7.37527 46.6061 7.37527H26.1966L24.9357 6.95245V2.68819C24.9357 1.19899 23.6842 0 22.195 0ZM20.8142 2.68819C20.8142 2.15606 21.296 1.73536 21.8285 1.73536H22.195C22.7275 1.73536 23.2004 2.15606 23.2004 2.68819V6.44828L20.8142 5.78142V2.68819ZM45.76 18.2937L38.3314 43.8178H45.76V18.2937ZM45.76 9.11063V13.0033L32.1737 9.11063H45.76ZM35.3279 47.9609L45.0245 14.5976L24.9357 8.75941V14.1756C24.9357 15.6733 23.7215 16.8871 22.2242 16.8871C20.7265 16.8871 19.5127 15.6733 19.5127 14.1756V10.5706C19.5127 10.0914 19.9012 9.70292 20.3804 9.70292C20.8596 9.70292 21.2481 10.0914 21.2481 10.5706V14.1756C21.2481 14.715 21.6849 15.1518 22.2242 15.1518C22.7631 15.1518 23.2004 14.715 23.2004 14.1756V8.25524L11.6629 4.91077L1.95917 38.2749L35.3279 47.9609Z" fill="#323232"/>
</g>
</svg>
