<svg xmlns="http://www.w3.org/2000/svg" xmlns:xlink="http://www.w3.org/1999/xlink" width="226" height="202" viewBox="0 0 226 202">
  <defs>
    <clipPath id="clip-path">
      <ellipse id="Ellipse_54" data-name="Ellipse 54" cx="99" cy="98.5" rx="99" ry="98.5" transform="translate(-0.246 0)" fill="#f7f8f8"/>
    </clipPath>
    <clipPath id="clip-path-3">
      <rect id="Rectangle_168" data-name="Rectangle 168" width="174.077" height="263.866" fill="none"/>
    </clipPath>
    <clipPath id="clip-Artboard_27">
      <rect width="226" height="202"/>
    </clipPath>
  </defs>
  <g id="Artboard_27" data-name="Artboard – 27" clip-path="url(#clip-Artboard_27)">
    <g id="Group_52" data-name="Group 52" transform="translate(-5222.163 -371.133)">
      <ellipse id="Ellipse_53" data-name="Ellipse 53" cx="99" cy="98.5" rx="99" ry="98.5" transform="translate(5222.163 372.133)" fill="#f7f8f8"/>
      <g id="Mask_Group_13" data-name="Mask Group 13" transform="translate(5222.41 372.133)" clip-path="url(#clip-path)">
        <g id="Group_49" data-name="Group 49" transform="translate(14.212 -51.302)">
          <g id="Group_48" data-name="Group 48" clip-path="url(#clip-path-3)">
            <g id="Group_47" data-name="Group 47">
              <g id="Group_46" data-name="Group 46" clip-path="url(#clip-path-3)">
                <path id="Path_170" data-name="Path 170" d="M71.4,141.456l-4.314,11.767a5.907,5.907,0,0,1-4.68,3.927L5.124,165.825c-3.7.56-5.882,4.353-4.882,8.471l20.054,82.6c1,4.118,4.808,7,8.5,6.443l136.357-20.655c3.7-.56,5.881-4.353,4.881-8.471l-24.164-99.523c-1-4.118-4.807-7-8.5-6.444l-61.293,9.286a5.907,5.907,0,0,0-4.68,3.927" transform="translate(0 -0.857)" fill="#445a65"/>
                <rect id="Rectangle_165" data-name="Rectangle 165" width="5.036" height="1" transform="matrix(0.989, -0.149, 0.149, 0.989, 42.853, 262.876)" fill="#407bff"/>
                <g id="Group_45" data-name="Group 45" transform="translate(19.543 73.834)">
                  <path id="Path_171" data-name="Path 171" d="M78.343,84.847l-23.749,45.7,62.084-11.6Z" transform="translate(-31.094 -34.749)" fill="#7bc16e"/>
                  <path id="Path_172" data-name="Path 172" d="M78.343,84.847l-23.749,45.7,62.084-11.6Z" transform="translate(-2.041 -46.634)" fill="#87d878"/>
                  <path id="Icon_material-photo-size-select-actual" data-name="Icon material-photo-size-select-actual" d="M99.506,0H9.951C4.975,0,0,4.975,0,9.951V79.6a9.98,9.98,0,0,0,9.951,9.951H99.506c4.975,0,9.951-4.975,9.951-9.951V9.951C109.457,4.975,104.481,0,99.506,0ZM19.9,69.654,37.315,47.265,49.753,62.241,67.167,39.8,89.556,69.654Z" transform="matrix(0.985, -0.174, 0.174, 0.985, 0, 19.007)" fill="#cce8ff"/>
                  <ellipse id="Ellipse_55" data-name="Ellipse 55" cx="10" cy="11.5" rx="10" ry="11.5" transform="translate(44.999 27.469)" fill="#fed989"/>
                </g>
                <rect id="Rectangle_166" data-name="Rectangle 166" width="17.589" height="1" transform="translate(53.412 261.272) rotate(-8.573)" fill="#407bff"/>
                <path id="Path_173" data-name="Path 173" d="M96.606,150.935,90.12,161.758a7.62,7.62,0,0,1-5.308,3.653l-57.279,8.678a7.717,7.717,0,0,0-6.392,7.814l3.329,75.329a5.971,5.971,0,0,0,6.993,5.787l136.356-20.655a7.719,7.719,0,0,0,6.393-7.815l-4.01-90.766A5.972,5.972,0,0,0,163.207,138l-61.292,9.285a7.621,7.621,0,0,0-5.309,3.653" transform="translate(-0.141 -0.922)" fill="#607986"/>
              </g>
            </g>
          </g>
        </g>
      </g>
      <g id="_1download" data-name="1download" transform="translate(5369.731 490.466)">
        <path id="Path_174" data-name="Path 174" d="M64.771,15.045a8.622,8.622,0,0,1-5.56-4.153C56.824,6.577,51.17,0,38.861,0S20.9,6.577,18.511,10.892a8.622,8.622,0,0,1-5.56,4.153,16.963,16.963,0,0,0,4.222,33.443H60.548a16.963,16.963,0,0,0,4.222-33.443Zm0,0" transform="translate(-0.001 0)" fill="#dbe8fc"/>
        <path id="Path_175" data-name="Path 175" d="M25.075,26.716C35.763,19.99,39.559,7,40.86.06q-.969-.059-2-.06C26.552,0,20.9,6.577,18.511,10.893a8.624,8.624,0,0,1-5.56,4.153,16.955,16.955,0,0,0,3.1,33.406C15.222,41.891,15.972,32.443,25.075,26.716Zm0,0" transform="translate(-0.001 0)" fill="#cee1ff"/>
        <path id="Path_176" data-name="Path 176" d="M206.258,267.393a6.651,6.651,0,0,0-9.407-.063l-3.552,3.505V246.117a6.652,6.652,0,1,0-13.3,0v24.718l-3.552-3.505a6.652,6.652,0,1,0-9.344,9.47l14.876,14.677a6.652,6.652,0,0,0,9.343,0L206.195,276.8A6.651,6.651,0,0,0,206.258,267.393Zm0,0" transform="translate(-146.366 -211.727)" fill="#fd3d4c"/>
        <path id="Path_180" data-name="Path 180" d="M241.224,270.836v-24.58a6.741,6.741,0,0,0-6.464-6.787,6.652,6.652,0,0,0-6.838,6.649v24.718l4.285,3.9a3.513,3.513,0,0,0,4.732,0Zm0,0" transform="translate(-194.292 -211.727)" fill="#fd3d4c"/>
      </g>
    </g>
  </g>
</svg>
