<?xml version="1.0" encoding="utf-8"?>
<!-- Generator: Adobe Illustrator 19.0.0, SVG Export Plug-In . SVG Version: 6.00 Build 0)  -->
<svg version="1.1" id="Layer_1" xmlns="http://www.w3.org/2000/svg" xmlns:xlink="http://www.w3.org/1999/xlink" x="0px" y="0px"
	 viewBox="0 0 200 250" style="enable-background:new 0 0 200 250;" xml:space="preserve">
<style type="text/css">
	.st0{fill:#F2F2F2;}
	.st1{fill:#FFFFFF;stroke:#587BC9;stroke-miterlimit:10;}
	.st2{fill:none;stroke:#587BC9;stroke-miterlimit:10;}
	.st3{fill:#F3F4F6;stroke:#587BC9;stroke-miterlimit:10;}
	.st4{fill:#587BC9;}
</style>
<path id="XMLID_15_" class="st0" d="M21.4,227.1c0,0-28.5,13.2-5,18.2s121,1.7,131.4,1.2c10.3-0.4,26.9-6.6,35.9-13.2
	c9.1-6.6,18.2-11.2,3.3-17.8s-61.6,8.7-61.6,8.7s-97.1-2.5-101.2,0.8C20.2,228.3,21.4,227.1,21.4,227.1z"/>
<polyline id="XMLID_4_" class="st1" points="181.7,166.3 182.1,226.2 151.1,238.6 23.5,238.6 23.5,175.4 "/>
<path id="XMLID_1_" class="st2" d="M54.9,138.6l17.8-20.2l125.6-0.4l-16.5,21.1l16.5,16.9l-29.7,11.6L150,150.2l-17.4,21.9
	L5.3,171.3l17.8-19.4L9.4,136.6c0,0-2.9-2.9,1.7-5.4c4.5-2.5,23.5-9.1,23.5-9.1s4.1-0.8,5.4,1.2C41.2,125.4,54.9,138.6,54.9,138.6z"
	/>
<line id="XMLID_6_" class="st2" x1="150.3" y1="156" x2="150.7" y2="234.1"/>
<path id="XMLID_5_" class="st2" d="M68.9,216.3c0,0,16.9-16.9,35.5-1.7"/>
<polygon id="XMLID_7_" class="st3" points="24.7,151 150.3,151.9 180.5,139.1 54.9,138.6 "/>
<line id="XMLID_9_" class="st2" x1="55.3" y1="144" x2="55.3" y2="149.8"/>
<line id="XMLID_10_" class="st2" x1="141.2" y1="173.8" x2="141.2" y2="189.5"/>
<line id="XMLID_11_" class="st2" x1="141.2" y1="191.9" x2="141.2" y2="194.8"/>
<line id="XMLID_12_" class="st2" x1="141.6" y1="196.9" x2="141.6" y2="206.8"/>
<circle id="XMLID_8_" class="st4" cx="73.9" cy="199" r="2.1"/>
<circle id="XMLID_14_" class="st4" cx="103.6" cy="199" r="2.1"/>
<line id="XMLID_16_" class="st2" x1="156.9" y1="207.8" x2="173.2" y2="203.4"/>
<line id="XMLID_17_" class="st2" x1="157.5" y1="213.6" x2="171.8" y2="209.2"/>
<path id="XMLID_3_" class="st2" d="M179.4,12.8c0,0-63.6-17.8-101.6,0s-25.6,50.1,10.3,57c40.9,7.8,109.5-8.1,81.8-24.4
	c-35.1-20.7-103.1-2.1-98.3,27.7c4.5,28.1,46.8,29,63.6,26.9c19.4-2.5,30.6-14.9-1.7-18.2S79.9,87.1,79,108.2
	c-0.8,19.8,37.6,26.9,51.6,18.2s-25.9-22.5-36.8-5C84,137.6,105,149.5,123.2,145"/>
</svg>
