<?xml version="1.0" encoding="utf-8"?>
<!-- Generator: Adobe Illustrator 19.0.0, SVG Export Plug-In . SVG Version: 6.00 Build 0)  -->
<svg version="1.1" id="Layer_1" xmlns="http://www.w3.org/2000/svg" xmlns:xlink="http://www.w3.org/1999/xlink" x="0px" y="0px"
	 viewBox="-3 -51 512 512" style="enable-background:new -3 -51 512 512;" xml:space="preserve">
<style type="text/css">
	.st0{fill:#999999;}
</style>
<g>
	<g>
		<g>
			<path class="st0" d="M505.9,442.8l-67.1-67.1h6.3c23.5,0,42.7-19.1,42.7-42.7V98.3c0-23.5-19.1-42.7-42.7-42.7h-50.8
				c-5.6,0-11.1-2.3-15.1-6.3L333.9,4.2C326-3.8,315-8.3,303.8-8.3H202.3C191-8.3,180-3.8,172.1,4.2l-45.3,45.3
				c-2.6,2.6-5.8,4.1-9.3,5.1L15.2-47.9C11-52,4.3-52,0.1-47.9S-4-37,0.1-32.8l88.5,88.5H61c-23.5,0-42.7,19.1-42.7,42.7V333
				c0,23.5,19.1,42.7,42.7,42.7h347.6l82.2,82.2c2.1,2.1,4.8,3.1,7.5,3.1s5.5-1,7.5-3.1C510,453.7,510,447,505.9,442.8z M61,354.3
				c-11.8,0-21.3-9.6-21.3-21.3V98.3C39.7,86.6,49.2,77,61,77h48.9l60.9,60.9c-15,18.4-24.5,41.6-24.5,67.1
				c0,58.8,47.9,106.7,106.7,106.7c25.6,0,48.7-9.4,67.1-24.5l67.1,67.1L61,354.3L61,354.3z M305,272.1
				c-14.5,11.2-32.4,18.2-52,18.2c-47.1,0-85.3-38.3-85.3-85.3c0-19.7,7-37.6,18.2-52.1L305,272.1z M201,137.9
				c14.5-11.2,32.4-18.2,52-18.2c47.1,0,85.3,38.3,85.3,85.3c0,19.7-7,37.6-18.2,52.1L201,137.9z M335.2,272.1
				c15-18.4,24.5-41.6,24.5-67.1c0-58.8-47.9-106.7-106.7-106.7c-25.6,0-48.7,9.4-67.1,24.5l-52.1-52.1c2.9-1.8,5.7-3.8,8.1-6.2
				l45.3-45.3c4-4,9.5-6.3,15.1-6.3h101.5c5.6,0,11.1,2.3,15.1,6.3l45.3,45.3C372,72.4,383,77,394.2,77H445
				c11.8,0,21.3,9.6,21.3,21.3V333c0,11.8-9.6,21.3-21.3,21.3h-27.6L335.2,272.1z"/>
			<circle class="st0" cx="423.7" cy="119.7" r="21.3"/>
		</g>
	</g>
</g>
</svg>
