<svg width="582" height="136" viewBox="0 0 582 136" fill="none" xmlns="http://www.w3.org/2000/svg">
<path fill-rule="evenodd" clip-rule="evenodd" d="M154.734 58.7392C172.589 59.7861 190.467 61.4001 201.48 62.5681C202.03 62.6264 202.428 63.1188 202.369 63.668C202.311 64.2172 201.819 64.6152 201.27 64.557C190.283 63.3917 172.436 61.7806 154.616 60.7358C136.775 59.6897 119.036 59.2165 108.225 60.3075C86.5059 62.4994 28.13 75.5298 1.60453 81.7858C1.067 81.9126 0.528464 81.5796 0.401686 81.0421C0.274909 80.5045 0.607895 79.966 1.14543 79.8392C27.6199 73.5952 86.1441 60.5257 108.025 58.3176C119.014 57.2086 136.9 57.6937 154.734 58.7392ZM108.058 67.8147C126.144 66.609 176.56 69.6506 199.448 71.3151C199.998 71.3552 200.412 71.8342 200.372 72.385C200.332 72.9359 199.853 73.3499 199.302 73.3099C176.357 71.6411 126.106 68.616 108.192 69.8103C99.2766 70.4046 79.6863 74.0948 58.7366 78.4912C37.8201 82.8807 15.6414 87.9536 1.60595 91.2855C1.0686 91.4131 0.529583 91.0809 0.402022 90.5435C0.274461 90.0062 0.606661 89.4671 1.14401 89.3396C15.1919 86.0047 37.3882 80.9277 58.3259 76.5338C79.2304 72.1469 98.9733 68.4204 108.058 67.8147Z" fill="#737574"/>
<path fill-rule="evenodd" clip-rule="evenodd" d="M427.266 58.7392C409.411 59.7861 391.533 61.4001 380.52 62.5681C379.97 62.6264 379.572 63.1188 379.631 63.668C379.689 64.2172 380.181 64.6152 380.73 64.557C391.717 63.3917 409.564 61.7806 427.384 60.7358C445.225 59.6897 462.964 59.2165 473.775 60.3075C495.494 62.4994 553.87 75.5298 580.395 81.7858C580.933 81.9126 581.472 81.5796 581.598 81.0421C581.725 80.5045 581.392 79.966 580.855 79.8392C554.38 73.5952 495.856 60.5257 473.975 58.3176C462.986 57.2086 445.1 57.6937 427.266 58.7392ZM473.942 67.8147C455.856 66.609 405.44 69.6506 382.552 71.3151C382.002 71.3552 381.588 71.8342 381.628 72.385C381.668 72.9359 382.147 73.3499 382.698 73.3099C405.643 71.6411 455.894 68.616 473.808 69.8103C482.723 70.4046 502.314 74.0948 523.263 78.4912C544.18 82.8807 566.359 87.9536 580.394 91.2855C580.931 91.4131 581.47 91.0809 581.598 90.5435C581.726 90.0062 581.393 89.4671 580.856 89.3396C566.808 86.0047 544.612 80.9277 523.674 76.5338C502.77 72.1469 483.027 68.4204 473.942 67.8147Z" fill="#737574"/>
<path d="M196.875 68.1875C196.875 62.7337 201.296 58.3125 206.75 58.3125H221.125V78.0625H206.75C201.296 78.0625 196.875 73.6413 196.875 68.1875Z" fill="white"/>
<path fill-rule="evenodd" clip-rule="evenodd" d="M219.125 60.3125H206.75C202.401 60.3125 198.875 63.8383 198.875 68.1875C198.875 72.5367 202.401 76.0625 206.75 76.0625H219.125V60.3125ZM206.75 58.3125C201.296 58.3125 196.875 62.7337 196.875 68.1875C196.875 73.6413 201.296 78.0625 206.75 78.0625H221.125V58.3125H206.75Z" fill="#737574"/>
<path d="M385.875 68.1875C385.875 62.7337 381.454 58.3125 376 58.3125H361.625V78.0625H376C381.454 78.0625 385.875 73.6413 385.875 68.1875Z" fill="white"/>
<path fill-rule="evenodd" clip-rule="evenodd" d="M363.625 60.3125H376C380.349 60.3125 383.875 63.8383 383.875 68.1875C383.875 72.5367 380.349 76.0625 376 76.0625H363.625V60.3125ZM376 58.3125C381.454 58.3125 385.875 62.7337 385.875 68.1875C385.875 73.6413 381.454 78.0625 376 78.0625H361.625V58.3125H376Z" fill="#737574"/>
<path d="M218.875 56.5625C218.875 52.6965 222.009 49.5625 225.875 49.5625H233.125V87.3125H225.875C222.009 87.3125 218.875 84.1785 218.875 80.3125V56.5625Z" fill="#C4C4C4"/>
<path d="M218.875 56.5625C218.875 52.6965 222.009 49.5625 225.875 49.5625H233.125V87.3125H225.875C222.009 87.3125 218.875 84.1785 218.875 80.3125V56.5625Z" fill="white"/>
<path fill-rule="evenodd" clip-rule="evenodd" d="M231.125 51.5625H225.875C223.114 51.5625 220.875 53.8011 220.875 56.5625V80.3125C220.875 83.0739 223.114 85.3125 225.875 85.3125H231.125V51.5625ZM225.875 49.5625C222.009 49.5625 218.875 52.6965 218.875 56.5625V80.3125C218.875 84.1785 222.009 87.3125 225.875 87.3125H233.125V49.5625H225.875Z" fill="#737574"/>
<path d="M363.375 55.5625C363.375 51.6965 360.241 48.5625 356.375 48.5625H349.125V86.3125H356.375C360.241 86.3125 363.375 83.1785 363.375 79.3125V55.5625Z" fill="white"/>
<path fill-rule="evenodd" clip-rule="evenodd" d="M351.125 50.5625H356.375C359.136 50.5625 361.375 52.8011 361.375 55.5625V79.3125C361.375 82.0739 359.136 84.3125 356.375 84.3125H351.125V50.5625ZM356.375 48.5625C360.241 48.5625 363.375 51.6965 363.375 55.5625V79.3125C363.375 83.1785 360.241 86.3125 356.375 86.3125H349.125V48.5625H356.375Z" fill="#737574"/>
<path d="M231.625 44.3125C231.625 40.4465 234.759 37.3125 238.625 37.3125H265.375V99.0625H238.625C234.759 99.0625 231.625 95.9285 231.625 92.0625V44.3125Z" fill="white"/>
<path fill-rule="evenodd" clip-rule="evenodd" d="M263.375 39.3125H238.625C235.864 39.3125 233.625 41.5511 233.625 44.3125V92.0625C233.625 94.8239 235.864 97.0625 238.625 97.0625H263.375V39.3125ZM238.625 37.3125C234.759 37.3125 231.625 40.4465 231.625 44.3125V92.0625C231.625 95.9285 234.759 99.0625 238.625 99.0625H265.375V37.3125H238.625Z" fill="#737574"/>
<path d="M262.875 41.0625C262.875 37.7488 265.561 35.0625 268.875 35.0625C272.189 35.0625 274.875 37.7488 274.875 41.0625V96.3125C274.875 99.6262 272.189 102.312 268.875 102.312C265.561 102.312 262.875 99.6262 262.875 96.3125V41.0625Z" fill="white"/>
<path fill-rule="evenodd" clip-rule="evenodd" d="M272.875 96.3125V41.0625C272.875 38.8534 271.084 37.0625 268.875 37.0625C266.666 37.0625 264.875 38.8534 264.875 41.0625V96.3125C264.875 98.5216 266.666 100.312 268.875 100.312C271.084 100.312 272.875 98.5216 272.875 96.3125ZM268.875 35.0625C265.561 35.0625 262.875 37.7488 262.875 41.0625V96.3125C262.875 99.6262 265.561 102.312 268.875 102.312C272.189 102.312 274.875 99.6262 274.875 96.3125V41.0625C274.875 37.7488 272.189 35.0625 268.875 35.0625Z" fill="#737574"/>
<path d="M287.625 53.4062C287.625 50.6966 289.822 48.5 292.531 48.5H309.969C312.678 48.5 314.875 50.6966 314.875 53.4062C314.875 56.1159 312.678 58.3125 309.969 58.3125H292.531C289.822 58.3125 287.625 56.1159 287.625 53.4062Z" fill="white"/>
<path fill-rule="evenodd" clip-rule="evenodd" d="M309.969 50.5H292.531C290.926 50.5 289.625 51.8012 289.625 53.4062C289.625 55.0113 290.926 56.3125 292.531 56.3125H309.969C311.574 56.3125 312.875 55.0113 312.875 53.4062C312.875 51.8012 311.574 50.5 309.969 50.5ZM292.531 48.5C289.822 48.5 287.625 50.6966 287.625 53.4062C287.625 56.1159 289.822 58.3125 292.531 58.3125H309.969C312.678 58.3125 314.875 56.1159 314.875 53.4062C314.875 50.6966 312.678 48.5 309.969 48.5H292.531Z" fill="#737574"/>
<path d="M287.625 81.1562C287.625 78.4466 289.822 76.25 292.531 76.25H309.969C312.678 76.25 314.875 78.4466 314.875 81.1562C314.875 83.8659 312.678 86.0625 309.969 86.0625H292.531C289.822 86.0625 287.625 83.8659 287.625 81.1562Z" fill="white"/>
<path fill-rule="evenodd" clip-rule="evenodd" d="M309.969 78.25H292.531C290.926 78.25 289.625 79.5512 289.625 81.1562C289.625 82.7613 290.926 84.0625 292.531 84.0625H309.969C311.574 84.0625 312.875 82.7613 312.875 81.1562C312.875 79.5512 311.574 78.25 309.969 78.25ZM292.531 76.25C289.822 76.25 287.625 78.4466 287.625 81.1562C287.625 83.8659 289.822 86.0625 292.531 86.0625H309.969C312.678 86.0625 314.875 83.8659 314.875 81.1562C314.875 78.4466 312.678 76.25 309.969 76.25H292.531Z" fill="#737574"/>
<path d="M309.625 46.3125C309.625 41.3419 313.654 37.3125 318.625 37.3125H341.375V98.0625H318.625C313.654 98.0625 309.625 94.0331 309.625 89.0625V46.3125Z" fill="white"/>
<path fill-rule="evenodd" clip-rule="evenodd" d="M339.375 39.3125H318.625C314.759 39.3125 311.625 42.4465 311.625 46.3125V89.0625C311.625 92.9285 314.759 96.0625 318.625 96.0625H339.375V39.3125ZM318.625 37.3125C313.654 37.3125 309.625 41.3419 309.625 46.3125V89.0625C309.625 94.0331 313.654 98.0625 318.625 98.0625H341.375V37.3125H318.625Z" fill="#737574"/>
<path d="M309.75 62.7812H320.094C322.803 62.7812 325 64.9779 325 67.6875C325 70.3971 322.803 72.5938 320.094 72.5938H309.75V62.7812Z" fill="white"/>
<path fill-rule="evenodd" clip-rule="evenodd" d="M320.094 64.7812H311.75V70.5938H320.094C321.699 70.5938 323 69.2926 323 67.6875C323 66.0824 321.699 64.7812 320.094 64.7812ZM309.75 62.7812V72.5938H320.094C322.803 72.5938 325 70.3971 325 67.6875C325 64.9779 322.803 62.7812 320.094 62.7812H309.75Z" fill="#737574"/>
<path d="M338.875 41.0625C338.875 37.7488 341.561 35.0625 344.875 35.0625C348.189 35.0625 350.875 37.7488 350.875 41.0625V96.3125C350.875 99.6262 348.189 102.312 344.875 102.312C341.561 102.312 338.875 99.6262 338.875 96.3125V41.0625Z" fill="white"/>
<path fill-rule="evenodd" clip-rule="evenodd" d="M348.875 96.3125V41.0625C348.875 38.8534 347.084 37.0625 344.875 37.0625C342.666 37.0625 340.875 38.8534 340.875 41.0625V96.3125C340.875 98.5216 342.666 100.312 344.875 100.312C347.084 100.312 348.875 98.5216 348.875 96.3125ZM344.875 35.0625C341.561 35.0625 338.875 37.7488 338.875 41.0625V96.3125C338.875 99.6262 341.561 102.312 344.875 102.312C348.189 102.312 350.875 99.6262 350.875 96.3125V41.0625C350.875 37.7488 348.189 35.0625 344.875 35.0625Z" fill="#737574"/>
<path fill-rule="evenodd" clip-rule="evenodd" d="M225.375 79.6875L225.375 55.6875L227.375 55.6875L227.375 79.6875L225.375 79.6875Z" fill="#737574"/>
<path fill-rule="evenodd" clip-rule="evenodd" d="M354.625 79.6875L354.625 55.6875L356.625 55.6875L356.625 79.6875L354.625 79.6875Z" fill="#737574"/>
<path fill-rule="evenodd" clip-rule="evenodd" d="M256.75 59.1875H241.5V57.1875H256.75V59.1875Z" fill="#737574"/>
<path fill-rule="evenodd" clip-rule="evenodd" d="M256.75 65.1875H241.5V63.1875H256.75V65.1875Z" fill="#737574"/>
<path fill-rule="evenodd" clip-rule="evenodd" d="M256.75 71.1875H241.5V69.1875H256.75V71.1875Z" fill="#737574"/>
<path fill-rule="evenodd" clip-rule="evenodd" d="M256.75 77.1875H241.5V75.1875H256.75V77.1875Z" fill="#737574"/>
<path fill-rule="evenodd" clip-rule="evenodd" d="M289.875 21.5L289.875 0.875L291.875 0.875L291.875 21.5L289.875 21.5Z" fill="#737574"/>
<path fill-rule="evenodd" clip-rule="evenodd" d="M289.875 114.75L289.875 135.375L291.875 135.375L291.875 114.75L289.875 114.75Z" fill="#737574"/>
<path fill-rule="evenodd" clip-rule="evenodd" d="M305.875 28.875L320.25 15.25L321.626 16.7015L307.251 30.3265L305.875 28.875Z" fill="#737574"/>
<path fill-rule="evenodd" clip-rule="evenodd" d="M305.875 107.375L320.25 121L321.626 119.548L307.251 105.923L305.875 107.375Z" fill="#737574"/>
<path fill-rule="evenodd" clip-rule="evenodd" d="M274.375 30.375L260 15.25L261.45 13.8722L275.825 28.9972L274.375 30.375Z" fill="#737574"/>
<path fill-rule="evenodd" clip-rule="evenodd" d="M274.375 105.875L260 121L261.45 122.378L275.825 107.253L274.375 105.875Z" fill="#737574"/>
</svg>
