<svg width="112" height="139" viewBox="0 0 112 139" fill="none" xmlns="http://www.w3.org/2000/svg">
<g clip-path="url(#clip0_706_535)">
<path d="M9.53399 0.492188H102.813C107.532 0.492188 111.355 4.71953 111.355 9.92241V99.8783C111.355 103.28 109.705 106.413 107.032 108.079L60.4128 137.258C57.7875 138.899 54.5754 138.899 51.966 137.242L5.30665 107.896C2.63383 106.207 1 103.09 1 99.7038V9.92241C1 4.71159 4.81492 0.492188 9.53399 0.492188Z" fill="white"/>
<path d="M31.8266 55.8213V47.4403H37.1957V48.713H33.3449V50.9883H36.8274V52.261H33.3449V55.8213H31.8266ZM40.2659 55.9481C39.8676 55.9481 39.5088 55.8772 39.1896 55.7354C38.8732 55.5908 38.6222 55.378 38.4367 55.097C38.2539 54.816 38.1625 54.4695 38.1625 54.0575C38.1625 53.7029 38.228 53.4096 38.3589 53.1777C38.4899 52.9458 38.6686 52.7603 38.895 52.6211C39.1214 52.482 39.3765 52.377 39.6602 52.306C39.9467 52.2324 40.2427 52.1792 40.5483 52.1464C40.9166 52.1082 41.2153 52.0741 41.4445 52.0441C41.6736 52.0114 41.8401 51.9623 41.9437 51.8968C42.0501 51.8286 42.1033 51.7236 42.1033 51.5817V51.5572C42.1033 51.2489 42.0119 51.0102 41.8291 50.841C41.6464 50.6719 41.3831 50.5873 41.0393 50.5873C40.6765 50.5873 40.3887 50.6664 40.1759 50.8246C39.9658 50.9829 39.8239 51.1698 39.7503 51.3853L38.3671 51.1888C38.4762 50.8069 38.6563 50.4877 38.9073 50.2313C39.1583 49.9721 39.4652 49.7784 39.828 49.6502C40.1909 49.5192 40.5919 49.4537 41.0312 49.4537C41.334 49.4537 41.6354 49.4892 41.9355 49.5601C42.2356 49.6311 42.5098 49.7484 42.7581 49.9121C43.0064 50.073 43.2055 50.2926 43.3556 50.5709C43.5083 50.8492 43.5847 51.197 43.5847 51.6144V55.8213H42.1606V54.9578H42.1115C42.0215 55.1324 41.8946 55.2961 41.7309 55.4489C41.57 55.5989 41.3667 55.7203 41.1212 55.8131C40.8784 55.9031 40.5933 55.9481 40.2659 55.9481ZM40.6506 54.8596C40.9479 54.8596 41.2058 54.801 41.424 54.6836C41.6423 54.5636 41.8101 54.4054 41.9274 54.2089C42.0474 54.0125 42.1074 53.7983 42.1074 53.5665V52.8258C42.061 52.8639 41.9819 52.8994 41.8701 52.9322C41.7609 52.9649 41.6382 52.9935 41.5018 53.0181C41.3654 53.0426 41.2303 53.0645 41.0966 53.0836C40.963 53.1027 40.847 53.119 40.7488 53.1327C40.5278 53.1627 40.33 53.2118 40.1554 53.28C39.9808 53.3482 39.843 53.4437 39.7421 53.5665C39.6412 53.6865 39.5907 53.842 39.5907 54.033C39.5907 54.3058 39.6903 54.5118 39.8894 54.6509C40.0886 54.79 40.3423 54.8596 40.6506 54.8596ZM46.5557 47.4403V55.8213H45.0743V47.4403H46.5557ZM49.5605 47.4403V55.8213H48.0791V47.4403H49.5605ZM53.9259 55.8213V54.7246L56.8355 51.8723C57.1137 51.5913 57.3456 51.3416 57.5312 51.1234C57.7167 50.9051 57.8558 50.6937 57.9486 50.4891C58.0413 50.2845 58.0877 50.0662 58.0877 49.8343C58.0877 49.5697 58.0277 49.3432 57.9076 49.155C57.7876 48.964 57.6225 48.8167 57.4125 48.713C57.2024 48.6094 56.9637 48.5575 56.6963 48.5575C56.4208 48.5575 56.1793 48.6148 55.972 48.7294C55.7647 48.8413 55.6037 49.0009 55.4891 49.2082C55.3773 49.4155 55.3213 49.6624 55.3213 49.9489H53.8768C53.8768 49.4169 53.9982 48.9545 54.241 48.5616C54.4838 48.1688 54.818 47.8646 55.2436 47.649C55.6719 47.4335 56.163 47.3258 56.7168 47.3258C57.2788 47.3258 57.7726 47.4308 58.1982 47.6409C58.6238 47.8509 58.9539 48.1387 59.1885 48.5043C59.4259 48.8699 59.5445 49.2873 59.5445 49.7566C59.5445 50.0703 59.4845 50.3786 59.3645 50.6814C59.2445 50.9842 59.033 51.3198 58.7302 51.6881C58.4301 52.0564 58.0086 52.5025 57.4657 53.0263L56.0211 54.4954V54.5527H59.6714V55.8213H53.9259ZM64.1811 55.9809C63.5072 55.9809 62.9288 55.8104 62.446 55.4694C61.9658 55.1256 61.5961 54.6304 61.337 53.9839C61.0805 53.3346 60.9523 52.5529 60.9523 51.639C60.955 50.7251 61.0846 49.9475 61.3411 49.3064C61.6002 48.6626 61.9699 48.1715 62.4501 47.8332C62.9329 47.4949 63.51 47.3258 64.1811 47.3258C64.8522 47.3258 65.4292 47.4949 65.9121 47.8332C66.395 48.1715 66.7647 48.6626 67.0211 49.3064C67.2803 49.9503 67.4099 50.7278 67.4099 51.639C67.4099 52.5557 67.2803 53.3387 67.0211 53.988C66.7647 54.6345 66.395 55.1283 65.9121 55.4694C65.4319 55.8104 64.8549 55.9809 64.1811 55.9809ZM64.1811 54.7C64.7049 54.7 65.1182 54.4422 65.421 53.9266C65.7266 53.4082 65.8794 52.6457 65.8794 51.639C65.8794 50.9733 65.8098 50.414 65.6707 49.9612C65.5315 49.5083 65.3351 49.1673 65.0814 48.9381C64.8277 48.7062 64.5276 48.5903 64.1811 48.5903C63.66 48.5903 63.248 48.8494 62.9452 49.3678C62.6424 49.8834 62.4896 50.6405 62.4869 51.639C62.4842 52.3074 62.551 52.8694 62.6874 53.325C62.8265 53.7806 63.023 54.1244 63.2767 54.3563C63.5304 54.5854 63.8319 54.7 64.1811 54.7ZM68.7695 55.8213V54.7246L71.6791 51.8723C71.9574 51.5913 72.1893 51.3416 72.3748 51.1234C72.5603 50.9051 72.6995 50.6937 72.7922 50.4891C72.885 50.2845 72.9314 50.0662 72.9314 49.8343C72.9314 49.5697 72.8713 49.3432 72.7513 49.155C72.6313 48.964 72.4662 48.8167 72.2561 48.713C72.0461 48.6094 71.8074 48.5575 71.54 48.5575C71.2644 48.5575 71.023 48.6148 70.8157 48.7294C70.6083 48.8413 70.4474 49.0009 70.3328 49.2082C70.2209 49.4155 70.165 49.6624 70.165 49.9489H68.7204C68.7204 49.4169 68.8418 48.9545 69.0846 48.5616C69.3274 48.1688 69.6616 47.8646 70.0872 47.649C70.5156 47.4335 71.0066 47.3258 71.5605 47.3258C72.1225 47.3258 72.6163 47.4308 73.0419 47.6409C73.4674 47.8509 73.7976 48.1387 74.0322 48.5043C74.2695 48.8699 74.3882 49.2873 74.3882 49.7566C74.3882 50.0703 74.3282 50.3786 74.2081 50.6814C74.0881 50.9842 73.8767 51.3198 73.5738 51.6881C73.2737 52.0564 72.8522 52.5025 72.3093 53.0263L70.8648 54.4954V54.5527H74.5151V55.8213H68.7695ZM75.9269 55.8213V54.7246L78.8365 51.8723C79.1148 51.5913 79.3467 51.3416 79.5322 51.1234C79.7177 50.9051 79.8568 50.6937 79.9496 50.4891C80.0423 50.2845 80.0887 50.0662 80.0887 49.8343C80.0887 49.5697 80.0287 49.3432 79.9087 49.155C79.7886 48.964 79.6236 48.8167 79.4135 48.713C79.2034 48.6094 78.9647 48.5575 78.6974 48.5575C78.4218 48.5575 78.1804 48.6148 77.973 48.7294C77.7657 48.8413 77.6047 49.0009 77.4901 49.2082C77.3783 49.4155 77.3224 49.6624 77.3224 49.9489H75.8778C75.8778 49.4169 75.9992 48.9545 76.242 48.5616C76.4848 48.1688 76.819 47.8646 77.2446 47.649C77.6729 47.4335 78.164 47.3258 78.7178 47.3258C79.2798 47.3258 79.7736 47.4308 80.1992 47.6409C80.6248 47.8509 80.9549 48.1387 81.1895 48.5043C81.4269 48.8699 81.5456 49.2873 81.5456 49.7566C81.5456 50.0703 81.4856 50.3786 81.3655 50.6814C81.2455 50.9842 81.034 51.3198 80.7312 51.6881C80.4311 52.0564 80.0096 52.5025 79.4667 53.0263L78.0221 54.4954V54.5527H81.6724V55.8213H75.9269Z" fill="#2B2B2B"/>
<path d="M40.8145 0.492188V19.9792C40.8145 28.2039 47.9368 34.8661 56.7166 34.8661C65.4965 34.8661 72.6187 28.2039 72.6187 19.9792V0.492188" fill="#474D56"/>
<path d="M9.36018 0.492188H102.64C107.359 0.492188 111.182 4.71953 111.182 9.92241V99.8783C111.182 103.28 109.524 106.413 106.859 108.079L60.2389 137.258C57.6137 138.899 54.4016 138.899 51.7922 137.242L5.13283 107.896C2.46001 106.207 0.826184 103.09 0.826184 99.7038V9.92241C0.818253 4.71159 4.6411 0.492188 9.36018 0.492188Z" stroke="#474D56" stroke-width="0.991403" stroke-miterlimit="10"/>
<path d="M57.0202 26.4593C57.1788 26.4593 57.3454 26.4593 57.512 26.4355C57.972 26.3879 58.432 26.3562 58.8841 26.2769C60.1372 26.0548 61.3031 25.5948 62.3897 24.9286C62.5641 24.8175 62.7386 24.7065 62.9052 24.5875C62.9924 24.5241 63.0004 24.4844 62.9528 24.3892C62.9369 24.3654 62.9211 24.3337 62.9052 24.3099C62.3659 23.374 61.8186 22.4302 61.2793 21.4943C61.1445 21.2643 61.0176 21.0423 60.8827 20.8123C60.8272 20.725 60.8034 20.7171 60.7162 20.7805C60.6924 20.7964 60.6686 20.8123 60.6527 20.8281C60.2562 21.1295 59.8358 21.3912 59.3837 21.6054C58.4796 22.0257 57.5357 22.1923 56.5443 22.0971C55.9971 22.0416 55.4736 21.9068 54.9581 21.7244C52.8246 20.955 51.3494 18.9484 51.2066 16.6484C51.1749 16.1646 51.2066 15.6808 51.3018 15.197C51.6032 13.698 52.3567 12.4924 53.586 11.5883C54.5695 10.8665 55.6719 10.4937 56.8933 10.4541C56.9885 10.4541 57.0519 10.4065 57.0916 10.3193C57.2185 10.0417 57.3533 9.77198 57.4802 9.49438C57.964 8.47919 58.4558 7.45606 58.9396 6.44086C59.003 6.30603 58.9872 6.27431 58.8603 6.25844C58.4716 6.20293 58.0751 6.14741 57.6864 6.10775C57.1154 6.06016 56.5443 6.07603 55.9812 6.13948C55.3626 6.20293 54.7519 6.32983 54.1491 6.50431C52.9991 6.83742 51.9363 7.35295 50.9687 8.06676C50.1201 8.70126 49.3983 9.47059 48.7797 10.3272C47.6852 11.8421 46.9952 13.5076 46.8524 15.3794C46.8048 16.0297 46.8207 16.6801 46.8921 17.3225C46.9634 17.9253 47.0903 18.5281 47.2569 19.115C47.8835 21.2961 49.0969 23.0806 50.9211 24.4289C52.7294 25.7772 54.7836 26.4196 57.044 26.4672L57.0202 26.4593ZM64.1504 23.5168C64.19 23.4534 64.2218 23.4058 64.2456 23.3582C65.0228 22.0099 65.8001 20.6695 66.5773 19.3212C66.6329 19.226 66.6487 19.1388 66.5853 19.0357C65.8001 17.6794 65.0149 16.3232 64.2376 14.967C64.1742 14.8559 64.0949 14.8083 63.968 14.8083C62.4055 14.8083 60.851 14.8083 59.2885 14.8083C59.1537 14.8083 59.0744 14.8559 59.003 14.967C58.2178 16.3311 57.4326 17.6953 56.6475 19.0515C56.6316 19.0833 56.6237 19.115 56.6157 19.1626H56.7426C58.3051 19.1626 59.8675 19.1626 61.43 19.1626C61.5648 19.1626 61.6679 19.2102 61.7314 19.3291C62.5166 20.6933 63.3017 22.0575 64.0869 23.4216C64.1028 23.4534 64.1266 23.4772 64.1583 23.5168H64.1504ZM60.8193 9.0661C60.8748 8.97885 60.9224 8.89161 60.9779 8.8123C61.3824 8.18573 61.9852 7.96366 62.6197 8.08262C62.9686 8.14607 63.1828 8.37608 63.2145 8.70126C63.2383 8.96299 63.1273 9.17713 62.929 9.33576C62.7783 9.45473 62.6038 9.56576 62.4293 9.66094C62.0248 9.86715 61.6124 10.0734 61.2396 10.3431C60.7241 10.7238 60.3434 11.1917 60.1372 11.8024C59.9865 12.2545 59.9468 12.7303 59.9389 13.2062C59.9389 13.3411 59.9548 13.3569 60.0896 13.3569C61.2476 13.3569 62.4134 13.3569 63.5714 13.3569C63.849 13.3569 64.1187 13.3569 64.3963 13.3569C64.5073 13.3569 64.5311 13.3331 64.5311 13.2221C64.5311 13.0635 64.5311 12.9048 64.5311 12.7462C64.5311 12.5876 64.5311 12.421 64.5311 12.2624C64.5311 12.1434 64.4994 12.1196 64.3883 12.1117C64.3645 12.1117 64.3407 12.1117 64.309 12.1117C63.4207 12.1117 62.5324 12.1117 61.6441 12.1117C61.5093 12.1117 61.4776 12.0721 61.5172 11.9452C61.6045 11.6596 61.7869 11.4376 62.0486 11.2869C62.4214 11.0727 62.81 10.8744 63.1907 10.6682C63.5 10.5017 63.7776 10.3034 64.0235 10.0575C64.4121 9.66887 64.5707 9.193 64.5549 8.65367C64.539 8.12228 64.3328 7.66227 63.9045 7.34502C63.1669 6.79777 62.35 6.67087 61.4696 6.9326C60.8193 7.12295 60.3275 7.51158 59.9865 8.09849C59.9548 8.15401 59.931 8.20952 59.9865 8.26504C60.2562 8.5347 60.5258 8.80437 60.8034 9.07403L60.8193 9.0661Z" fill="white"/>
<path d="M57.0184 26.4594C54.758 26.4197 52.7038 25.7694 50.8955 24.4211C49.0713 23.0648 47.8579 21.2882 47.2313 19.1072C47.0647 18.5202 46.9378 17.9254 46.8665 17.3147C46.7871 16.6643 46.7713 16.0219 46.8268 15.3716C46.9696 13.4998 47.6596 11.8263 48.7541 10.3194C49.3727 9.46277 50.0945 8.69345 50.9431 8.05895C51.9028 7.34514 52.9735 6.82961 54.1235 6.4965C54.7263 6.32201 55.337 6.19511 55.9556 6.13166C56.5267 6.06821 57.0898 6.05235 57.6608 6.09994C58.0574 6.13166 58.446 6.19511 58.8347 6.25063C58.9616 6.26649 58.9774 6.30615 58.914 6.43305C58.4302 7.44824 57.9384 8.47137 57.4546 9.48657C57.3198 9.76416 57.1929 10.0338 57.066 10.3114C57.0264 10.3987 56.9629 10.4383 56.8677 10.4463C55.6463 10.478 54.5359 10.8508 53.5604 11.5804C52.339 12.4846 51.5776 13.6981 51.2762 15.1891C51.181 15.665 51.1493 16.1488 51.181 16.6405C51.3317 18.9406 52.8069 20.9472 54.9325 21.7165C55.448 21.9069 55.9794 22.0417 56.5188 22.0893C57.5102 22.1845 58.454 22.0179 59.3581 21.5976C59.8102 21.3834 60.2306 21.1296 60.6271 20.8203C60.6509 20.8044 60.6747 20.7886 60.6906 20.7727C60.7778 20.7172 60.8016 20.7172 60.8571 20.8044C60.992 21.0344 61.1189 21.2565 61.2537 21.4865C61.793 22.4224 62.3403 23.3662 62.8796 24.3021C62.8955 24.3259 62.9113 24.3576 62.9272 24.3814C62.9748 24.4766 62.9748 24.5162 62.8796 24.5797C62.713 24.6987 62.5385 24.8097 62.3641 24.9207C61.2775 25.5949 60.1116 26.047 58.8585 26.269C58.4064 26.3484 57.9464 26.3801 57.4864 26.4277C57.3198 26.4435 57.1532 26.4435 56.9946 26.4515L57.0184 26.4594Z" fill="white"/>
<path d="M64.149 23.5161C64.1173 23.4765 64.0935 23.4527 64.0776 23.421C63.2925 22.0568 62.5073 20.6926 61.7221 19.3284C61.6507 19.2095 61.5555 19.1619 61.4207 19.1619C59.8582 19.1619 58.2958 19.1619 56.7333 19.1619H56.6064C56.6223 19.1222 56.6223 19.0826 56.6382 19.0509C57.4233 17.6867 58.2085 16.3304 58.9937 14.9663C59.0572 14.8473 59.1444 14.8076 59.2793 14.8076C60.8417 14.8076 62.3962 14.8076 63.9587 14.8076C64.0856 14.8076 64.1649 14.8552 64.2283 14.9663C65.0135 16.3225 65.7908 17.6787 66.576 19.035C66.6394 19.1381 66.6236 19.2253 66.568 19.3205C65.7908 20.6609 65.0135 22.0092 64.2363 23.3575C64.2125 23.4051 64.1807 23.4527 64.1411 23.5161H64.149Z" fill="white"/>
<path d="M60.8176 9.06601C60.54 8.78842 60.2704 8.52669 60.0007 8.25703C59.9452 8.20151 59.961 8.14599 60.0007 8.09047C60.3417 7.50356 60.8335 7.11493 61.4838 6.92458C62.3642 6.67078 63.1811 6.79768 63.9187 7.33701C64.347 7.65425 64.5532 8.10633 64.5691 8.64566C64.5849 9.18498 64.4263 9.66085 64.0377 10.0495C63.7918 10.2954 63.5063 10.4937 63.2049 10.6602C62.8242 10.8664 62.4435 11.0647 62.0628 11.2789C61.809 11.4295 61.6266 11.6437 61.5314 11.9371C61.4918 12.064 61.5235 12.1037 61.6583 12.1037C62.5466 12.1037 63.4349 12.1037 64.3232 12.1037C64.347 12.1037 64.3708 12.1037 64.4025 12.1037C64.5136 12.1037 64.5453 12.1354 64.5453 12.2544C64.5453 12.413 64.5453 12.5796 64.5453 12.7382C64.5453 12.8968 64.5453 13.0554 64.5453 13.2141C64.5453 13.3251 64.5215 13.3489 64.4105 13.3489C64.1329 13.3489 63.8632 13.3489 63.5856 13.3489C62.4277 13.3489 61.2618 13.3489 60.1038 13.3489C59.961 13.3489 59.9531 13.333 59.9531 13.1982C59.9531 12.7223 60.0007 12.2544 60.1514 11.7944C60.3497 11.1837 60.7383 10.7157 61.2538 10.335C61.6266 10.0654 62.0311 9.85913 62.4435 9.65292C62.618 9.56568 62.7846 9.45464 62.9432 9.32774C63.1415 9.16912 63.2525 8.95497 63.2287 8.69324C63.197 8.36806 62.9749 8.13806 62.6339 8.07461C61.9994 7.95564 61.3966 8.17772 60.9921 8.80428C60.9366 8.88359 60.889 8.97084 60.8335 9.05808L60.8176 9.06601Z" fill="white"/>
<path d="M36.3715 83.0001V81.0431H29.9115V77.5091H36.2385V75.5521H29.9115V72.2841H36.3715V70.3271H27.6885V83.0001H36.3715Z" fill="#2B2B2B"/>
<path d="M46.2155 83.0007V76.9017C46.2155 74.4507 44.4295 73.5957 42.3775 73.5957C40.9145 73.5957 39.5845 74.0517 38.5205 75.0777L39.3565 76.4647C40.1355 75.6667 41.0475 75.2867 42.0735 75.2867C43.3275 75.2867 44.2205 75.9327 44.2205 76.9967V78.3647C43.5365 77.5857 42.4915 77.1867 41.2375 77.1867C39.7365 77.1867 38.0645 78.0607 38.0645 80.1887C38.0645 82.2027 39.7555 83.2287 41.2375 83.2287C42.4535 83.2287 43.5365 82.7917 44.2205 81.9937V83.0007H46.2155ZM42.0355 81.8607C40.9145 81.8607 40.0595 81.2147 40.0595 80.2077C40.0595 79.2197 40.9145 78.5547 42.0355 78.5547C42.8905 78.5547 43.7455 78.8777 44.2205 79.5047V80.9107C43.7455 81.5377 42.8905 81.8607 42.0355 81.8607Z" fill="#2B2B2B"/>
<path d="M51.9555 83.2287C54.4255 83.2287 55.7745 81.9937 55.7745 80.3597C55.7745 76.7117 50.2265 77.9277 50.2265 76.3127C50.2265 75.6667 50.8725 75.1727 51.9175 75.1727C53.0765 75.1727 54.0835 75.6667 54.6345 76.2747L55.4705 74.8687C54.6535 74.1467 53.4755 73.5957 51.9175 73.5957C49.5995 73.5957 48.3075 74.8687 48.3075 76.3697C48.3075 79.9037 53.8555 78.6117 53.8555 80.4167C53.8555 81.1387 53.2285 81.6327 52.0315 81.6327C50.8535 81.6327 49.5805 81.0247 48.9345 80.3597L48.0225 81.7847C48.9725 82.7157 50.3785 83.2287 51.9555 83.2287Z" fill="#2B2B2B"/>
<path d="M58.7711 72.7024C59.4551 72.7024 60.0061 72.1514 60.0061 71.4674C60.0061 70.7834 59.4551 70.2324 58.7711 70.2324C58.0871 70.2324 57.5361 70.7834 57.5361 71.4674C57.5361 72.1514 58.0871 72.7024 58.7711 72.7024ZM59.7591 83.0004V73.8234H57.7641V83.0004H59.7591Z" fill="#2B2B2B"/>
<path d="M66.6029 83.2287C68.0469 83.2287 69.3959 82.7537 70.3269 81.8797L69.4149 80.5687C68.7499 81.2337 67.7049 81.5947 66.7929 81.5947C65.0639 81.5947 64.0379 80.4357 63.8859 79.0677H70.9539V78.5737C70.9539 75.6857 69.2059 73.5957 66.4509 73.5957C63.7339 73.5957 61.7959 75.7427 61.7959 78.4027C61.7959 81.3097 63.8289 83.2287 66.6029 83.2287ZM69.0349 77.6427H63.8669C63.9429 76.5407 64.7409 75.2297 66.4319 75.2297C68.2369 75.2297 68.9779 76.5597 69.0349 77.6427Z" fill="#2B2B2B"/>
<path d="M76.0766 83.2287C78.5466 83.2287 79.8956 81.9937 79.8956 80.3597C79.8956 76.7117 74.3476 77.9277 74.3476 76.3127C74.3476 75.6667 74.9936 75.1727 76.0386 75.1727C77.1976 75.1727 78.2046 75.6667 78.7556 76.2747L79.5916 74.8687C78.7746 74.1467 77.5966 73.5957 76.0386 73.5957C73.7206 73.5957 72.4286 74.8687 72.4286 76.3697C72.4286 79.9037 77.9766 78.6117 77.9766 80.4167C77.9766 81.1387 77.3496 81.6327 76.1526 81.6327C74.9746 81.6327 73.7016 81.0247 73.0556 80.3597L72.1436 81.7847C73.0936 82.7157 74.4996 83.2287 76.0766 83.2287Z" fill="#2B2B2B"/>
<path d="M84.6592 83.2284C85.5712 83.2284 86.1602 82.9624 86.5212 82.6394L86.0462 81.1194C85.8942 81.2904 85.5522 81.4614 85.1722 81.4614C84.6022 81.4614 84.2982 80.9864 84.2982 80.3594V75.5524H86.1602V73.8234H84.2982V71.3154H82.3032V73.8234H80.7832V75.5524H82.3032V80.8534C82.3032 82.3924 83.1012 83.2284 84.6592 83.2284Z" fill="#2B2B2B"/>
<path d="M33.0215 102.228C33.9335 102.228 34.5225 101.962 34.8835 101.639L34.4085 100.119C34.2565 100.29 33.9145 100.461 33.5345 100.461C32.9645 100.461 32.6605 99.9864 32.6605 99.3594V94.5524H34.5225V92.8234H32.6605V90.3154H30.6655V92.8234H29.1455V94.5524H30.6655V99.8534C30.6655 101.392 31.4635 102.228 33.0215 102.228Z" fill="#2B2B2B"/>
<path d="M40.4757 102.229C43.4017 102.229 45.1877 100.025 45.1877 97.4027C45.1877 94.7617 43.4017 92.5957 40.4757 92.5957C37.5497 92.5957 35.7637 94.7617 35.7637 97.4027C35.7637 100.025 37.5497 102.229 40.4757 102.229ZM40.4757 100.462C38.7847 100.462 37.8347 99.0367 37.8347 97.4027C37.8347 95.7877 38.7847 94.3627 40.4757 94.3627C42.1857 94.3627 43.1167 95.7877 43.1167 97.4027C43.1167 99.0367 42.1857 100.462 40.4757 100.462Z" fill="#2B2B2B"/>
<path d="M57.6717 102.228C61.3577 102.228 63.1627 100.119 63.1627 96.9841V89.3271H60.9017V96.9271C60.9017 98.9411 59.7807 100.252 57.6717 100.252C55.5627 100.252 54.4417 98.9411 54.4417 96.9271V89.3271H52.1807V96.9841C52.1807 100.119 54.0047 102.228 57.6717 102.228Z" fill="#2B2B2B"/>
<path d="M68.9516 102.229C71.4216 102.229 72.7706 100.994 72.7706 99.3597C72.7706 95.7117 67.2226 96.9277 67.2226 95.3127C67.2226 94.6667 67.8686 94.1727 68.9136 94.1727C70.0726 94.1727 71.0796 94.6667 71.6306 95.2747L72.4666 93.8687C71.6496 93.1467 70.4716 92.5957 68.9136 92.5957C66.5956 92.5957 65.3036 93.8687 65.3036 95.3697C65.3036 98.9037 70.8516 97.6117 70.8516 99.4167C70.8516 100.139 70.2246 100.633 69.0276 100.633C67.8496 100.633 66.5766 100.025 65.9306 99.3597L65.0186 100.785C65.9686 101.716 67.3746 102.229 68.9516 102.229Z" fill="#2B2B2B"/>
<path d="M79.016 102.229C80.46 102.229 81.809 101.754 82.74 100.88L81.828 99.5687C81.163 100.234 80.118 100.595 79.206 100.595C77.477 100.595 76.451 99.4357 76.299 98.0677H83.367V97.5737C83.367 94.6857 81.619 92.5957 78.864 92.5957C76.147 92.5957 74.209 94.7427 74.209 97.4027C74.209 100.31 76.242 102.229 79.016 102.229ZM81.448 96.6427H76.28C76.356 95.5407 77.154 94.2297 78.845 94.2297C80.65 94.2297 81.391 95.5597 81.448 96.6427Z" fill="#2B2B2B"/>
</g>
<defs>
<clipPath id="clip0_706_535">
<rect width="112" height="139" fill="white"/>
</clipPath>
</defs>
</svg>
