<svg width="191" height="213" viewBox="0 0 191 213" fill="none" xmlns="http://www.w3.org/2000/svg">
<g clip-path="url(#clip0_232_67)">
<path d="M15.5449 165.483L96.2258 206.507L173.843 165.483V5.06201H15.5449V165.483Z" fill="white"/>
<path d="M175.477 5.67407L13.9111 168.341L97.6558 209.772L175.477 169.973V5.67407Z" fill="#F2F3F2"/>
<path d="M10.2344 58.5375V168.955L13.094 170.383L93.7748 211.407L96.2259 212.632L98.6769 211.407L176.498 170.383L179.358 168.955V-0.242798H10.2344V58.5375ZM15.545 165.893V5.0637H174.047V165.893L96.2259 206.917L15.545 165.893Z" fill="#DCDEDC"/>
<path d="M94.796 7.717C95.613 7.717 96.4301 7.717 97.2471 7.9211L94.796 12.6154C91.1194 12.4113 87.8513 15.2687 87.6471 18.9424C87.4428 22.6162 90.3024 25.8818 93.979 26.0859H94.796C96.4301 26.0859 98.0641 25.4736 99.29 24.4531L101.945 28.9432C99.902 30.3719 97.4513 31.1883 94.796 31.1883C88.2598 31.3924 82.745 26.4941 82.5407 19.9629C82.3364 13.4318 87.2386 7.9211 93.7747 7.717H94.796ZM103.17 17.7178L106.234 22.8203L103.17 27.7187L100.311 22.8203H94.3875L97.4513 17.7178H103.17ZM98.2683 15.8809C98.2683 15.0646 98.4726 14.2482 98.8811 13.6359C99.29 13.0236 100.107 12.4113 100.719 12.0031L101.128 11.799C101.945 11.3908 102.149 11.1867 102.149 10.7785C102.149 10.3703 101.536 9.9621 101.128 9.9621C100.311 9.9621 99.698 10.3703 99.29 11.1867L98.2683 10.1662C98.4726 9.758 98.8811 9.3498 99.29 8.9416C99.902 8.5334 100.515 8.5334 101.128 8.5334C101.741 8.5334 102.558 8.7375 102.966 9.1457C103.375 9.5539 103.783 10.1662 103.783 10.7785C103.783 11.799 103.17 12.6154 101.945 13.0236L101.332 13.4318C100.719 13.84 100.311 14.0441 100.107 14.6564H103.783V16.085L98.2683 15.8809ZM94.796 41.3933L114.2 30.3719V-0.242798H75.1875V30.1678L94.796 41.3933Z" fill="#FF492C"/>
<path d="M33.8051 104.458C33.669 104.458 33.5668 104.39 33.4987 104.254L30.7004 98.029C30.6596 97.975 30.6119 97.947 30.5575 97.947H28.4741C28.3924 97.947 28.3515 97.988 28.3515 98.07V104.193C28.3515 104.261 28.3243 104.322 28.2698 104.377C28.229 104.431 28.1677 104.458 28.086 104.458H25.4511C25.383 104.458 25.3217 104.431 25.2672 104.377C25.2128 104.322 25.1855 104.261 25.1855 104.193V89.008C25.1855 88.94 25.2128 88.879 25.2672 88.824C25.3217 88.77 25.383 88.743 25.4511 88.743H31.8851C32.8383 88.743 33.6826 88.94 34.4179 89.335C35.1396 89.716 35.6979 90.267 36.0928 90.988C36.4877 91.709 36.6851 92.539 36.6851 93.478C36.6851 94.498 36.4332 95.369 35.9294 96.09C35.4119 96.825 34.697 97.342 33.7847 97.641C33.7166 97.669 33.6962 97.716 33.7234 97.784L36.7872 104.152C36.8145 104.206 36.8281 104.247 36.8281 104.275C36.8281 104.397 36.7464 104.458 36.583 104.458H33.8051ZM28.4741 91.457C28.3924 91.457 28.3515 91.498 28.3515 91.58V95.417C28.3515 95.485 28.3924 95.519 28.4741 95.519H31.4153C32.0417 95.519 32.5524 95.335 32.9473 94.968C33.3421 94.587 33.5396 94.097 33.5396 93.498C33.5396 92.899 33.3421 92.41 32.9473 92.029C32.5524 91.648 32.0417 91.457 31.4153 91.457H28.4741ZM48.8383 97.498C48.9336 98.07 48.9677 98.709 48.9404 99.417C48.9268 99.594 48.8247 99.682 48.6341 99.682H41.7098C41.6145 99.682 41.5804 99.716 41.6077 99.784C41.6485 100.084 41.7302 100.383 41.8528 100.682C42.2477 101.526 43.0443 101.948 44.2426 101.948C45.1958 101.934 45.9515 101.546 46.5098 100.784C46.5643 100.689 46.6324 100.642 46.7141 100.642C46.7549 100.642 46.8094 100.669 46.8775 100.723L48.4911 102.336C48.5592 102.404 48.5932 102.465 48.5932 102.519C48.5932 102.56 48.566 102.621 48.5115 102.703C48.0213 103.315 47.3813 103.791 46.5915 104.132C45.8153 104.472 44.9643 104.642 44.0383 104.642C42.7447 104.642 41.6553 104.349 40.7702 103.764C39.8715 103.179 39.2315 102.363 38.8502 101.315C38.537 100.567 38.3804 99.587 38.3804 98.376C38.3804 97.546 38.4894 96.818 38.7073 96.192C39.0613 95.131 39.6672 94.287 40.5251 93.661C41.383 93.036 42.4043 92.723 43.589 92.723C45.0868 92.723 46.2919 93.158 47.2043 94.029C48.103 94.886 48.6477 96.043 48.8383 97.498ZM43.6094 95.457C42.6698 95.457 42.0502 95.9 41.7507 96.784C41.6826 96.975 41.6281 97.213 41.5872 97.498C41.5872 97.58 41.6281 97.621 41.7098 97.621H45.5907C45.6724 97.621 45.6996 97.58 45.6724 97.498C45.6043 97.063 45.5702 96.852 45.5702 96.866C45.4341 96.417 45.1958 96.07 44.8553 95.825C44.5149 95.58 44.0996 95.457 43.6094 95.457ZM58.0502 93.192C58.0502 93.11 58.0775 93.042 58.1319 92.988C58.1864 92.947 58.2545 92.927 58.3362 92.927H60.9507C61.0324 92.927 61.1004 92.947 61.1549 92.988C61.1958 93.042 61.2162 93.11 61.2162 93.192V108.356C61.2162 108.438 61.1958 108.506 61.1549 108.561C61.1004 108.615 61.0324 108.642 60.9507 108.642H58.3362C58.2545 108.642 58.1864 108.615 58.1319 108.561C58.0775 108.506 58.0502 108.438 58.0502 108.356V103.56C58.0502 103.519 58.0366 103.492 58.0094 103.479C57.9821 103.465 57.9549 103.479 57.9277 103.519C57.3285 104.268 56.4911 104.642 55.4153 104.642C54.3124 104.642 53.3932 104.363 52.6579 103.805C51.909 103.234 51.3643 102.472 51.0238 101.519C50.7515 100.73 50.6153 99.791 50.6153 98.703C50.6153 97.696 50.7447 96.798 51.0034 96.009C51.3302 94.988 51.8749 94.185 52.6375 93.6C53.3864 93.029 54.2851 92.743 55.3336 92.743C56.4366 92.743 57.3013 93.151 57.9277 93.968C57.9549 94.008 57.9821 94.022 58.0094 94.008C58.0366 93.995 58.0502 93.968 58.0502 93.927V93.192ZM57.5396 101.029C57.8664 100.471 58.0298 99.689 58.0298 98.682C58.0298 97.73 57.88 96.975 57.5804 96.417C57.2128 95.777 56.6885 95.457 56.0077 95.457C55.2724 95.457 54.7209 95.777 54.3532 96.417C54.04 97.015 53.8834 97.764 53.8834 98.662C53.8834 99.669 54.0672 100.465 54.4349 101.05C54.8162 101.635 55.3472 101.927 56.0281 101.927C56.6953 101.927 57.1992 101.628 57.5396 101.029ZM70.3873 93.192C70.3873 93.11 70.4145 93.042 70.469 92.988C70.5234 92.947 70.5847 92.927 70.6528 92.927H73.2877C73.3694 92.927 73.4375 92.947 73.4919 92.988C73.5328 93.042 73.5532 93.11 73.5532 93.192V104.193C73.5532 104.261 73.5328 104.322 73.4919 104.377C73.4375 104.431 73.3694 104.458 73.2877 104.458H70.6528C70.5847 104.458 70.5234 104.431 70.469 104.377C70.4145 104.322 70.3873 104.261 70.3873 104.193V103.417C70.3873 103.376 70.3736 103.356 70.3464 103.356C70.3192 103.342 70.2919 103.356 70.2647 103.397C69.6655 104.213 68.7328 104.621 67.4664 104.621C66.3362 104.621 65.4034 104.275 64.6681 103.581C63.9328 102.9 63.5651 101.934 63.5651 100.682V93.192C63.5651 93.11 63.5924 93.042 63.6468 92.988C63.7013 92.947 63.7626 92.927 63.8307 92.927H66.4451C66.5132 92.927 66.5745 92.947 66.629 92.988C66.6834 93.042 66.7107 93.11 66.7107 93.192V99.907C66.7107 100.506 66.8741 100.989 67.2009 101.356C67.5141 101.737 67.9566 101.927 68.5285 101.927C69.0324 101.927 69.4545 101.771 69.7949 101.458C70.1217 101.159 70.3192 100.757 70.3873 100.254V93.192ZM77.5975 91.62C77.0936 91.62 76.6715 91.45 76.3311 91.11C75.9907 90.77 75.8204 90.348 75.8204 89.845C75.8204 89.314 75.9907 88.885 76.3311 88.559C76.6579 88.232 77.08 88.069 77.5975 88.069C78.1285 88.069 78.5575 88.232 78.8843 88.559C79.2111 88.885 79.3745 89.314 79.3745 89.845C79.3745 90.348 79.2111 90.77 78.8843 91.11C78.5438 91.45 78.1149 91.62 77.5975 91.62ZM76.2494 104.458C76.1813 104.458 76.12 104.431 76.0655 104.377C76.0111 104.322 75.9838 104.261 75.9838 104.193V93.172C75.9838 93.09 76.0111 93.022 76.0655 92.967C76.12 92.913 76.1813 92.886 76.2494 92.886H78.8843C78.966 92.886 79.0273 92.913 79.0681 92.967C79.1226 93.022 79.1498 93.09 79.1498 93.172V104.193C79.1498 104.261 79.1226 104.322 79.0681 104.377C79.0273 104.431 78.966 104.458 78.8843 104.458H76.2494ZM87.3813 92.763C87.9124 92.763 88.3413 92.865 88.6681 93.07C88.777 93.138 88.8179 93.253 88.7907 93.416L88.3209 95.968C88.3072 96.145 88.2051 96.199 88.0145 96.131C87.783 96.049 87.5175 96.009 87.2179 96.009C87.0953 96.009 86.9319 96.029 86.7277 96.07C86.183 96.111 85.7268 96.308 85.3592 96.662C84.9779 97.015 84.7873 97.485 84.7873 98.07V104.193C84.7873 104.261 84.7668 104.322 84.726 104.377C84.6715 104.431 84.6034 104.458 84.5217 104.458H81.8868C81.8187 104.458 81.7575 104.431 81.703 104.377C81.6485 104.322 81.6213 104.261 81.6213 104.193V93.192C81.6213 93.11 81.6485 93.042 81.703 92.988C81.7575 92.947 81.8187 92.927 81.8868 92.927H84.5217C84.6034 92.927 84.6715 92.947 84.726 92.988C84.7668 93.042 84.7873 93.11 84.7873 93.192V94.049C84.7873 94.09 84.8077 94.117 84.8485 94.131C84.8758 94.144 84.8962 94.138 84.9098 94.11C85.5226 93.212 86.3464 92.763 87.3813 92.763ZM100.168 97.498C100.249 98.07 100.277 98.709 100.249 99.417C100.236 99.594 100.14 99.682 99.963 99.682H93.0187C92.9234 99.682 92.8962 99.716 92.937 99.784C92.9779 100.084 93.0596 100.383 93.1821 100.682C93.5634 101.526 94.3532 101.948 95.5515 101.948C96.5183 101.934 97.2741 101.546 97.8187 100.784C97.8868 100.689 97.9549 100.642 98.023 100.642C98.0775 100.642 98.1319 100.669 98.1864 100.723L99.8 102.336C99.882 102.404 99.923 102.465 99.923 102.519C99.923 102.56 99.889 102.621 99.82 102.703C99.33 103.315 98.697 103.791 97.9209 104.132C97.1447 104.472 96.2868 104.642 95.3472 104.642C94.0672 104.642 92.9779 104.349 92.0792 103.764C91.1941 103.179 90.5541 102.363 90.1592 101.315C89.846 100.567 89.6894 99.587 89.6894 98.376C89.6894 97.546 89.8051 96.818 90.0366 96.192C90.377 95.131 90.9762 94.287 91.8341 93.661C92.6919 93.036 93.7132 92.723 94.8979 92.723C96.3958 92.723 97.6009 93.158 98.5132 94.029C99.412 94.886 99.963 96.043 100.168 97.498ZM94.9183 95.457C93.9787 95.457 93.3592 95.9 93.0596 96.784C93.0051 96.975 92.9507 97.213 92.8962 97.498C92.8962 97.58 92.937 97.621 93.0187 97.621H96.8996C96.9949 97.621 97.029 97.58 97.0017 97.498C96.92 97.063 96.8792 96.852 96.8792 96.866C96.743 96.417 96.5115 96.07 96.1847 95.825C95.8443 95.58 95.4221 95.457 94.9183 95.457ZM115.017 92.743C116.188 92.743 117.1 93.097 117.754 93.804C118.408 94.498 118.734 95.485 118.734 96.764V104.193C118.734 104.261 118.714 104.322 118.673 104.377C118.619 104.431 118.551 104.458 118.469 104.458H115.854C115.773 104.458 115.705 104.431 115.65 104.377C115.596 104.322 115.569 104.261 115.569 104.193V97.458C115.569 96.845 115.412 96.356 115.099 95.988C114.786 95.634 114.37 95.457 113.853 95.457C113.322 95.457 112.893 95.634 112.566 95.988C112.239 96.356 112.076 96.839 112.076 97.437V104.193C112.076 104.261 112.049 104.322 111.994 104.377C111.94 104.431 111.878 104.458 111.81 104.458H109.196C109.114 104.458 109.053 104.431 109.012 104.377C108.957 104.322 108.93 104.261 108.93 104.193V97.458C108.93 96.859 108.767 96.376 108.44 96.009C108.1 95.641 107.671 95.457 107.153 95.457C106.677 95.457 106.275 95.6 105.948 95.886C105.621 96.172 105.431 96.566 105.376 97.07V104.193C105.376 104.261 105.349 104.322 105.294 104.377C105.24 104.431 105.179 104.458 105.111 104.458H102.476C102.408 104.458 102.346 104.431 102.292 104.377C102.237 104.322 102.21 104.261 102.21 104.193V93.192C102.21 93.11 102.237 93.042 102.292 92.988C102.346 92.947 102.408 92.927 102.476 92.927H105.111C105.179 92.927 105.24 92.947 105.294 92.988C105.349 93.042 105.376 93.11 105.376 93.192V94.07C105.376 94.11 105.39 94.138 105.417 94.151C105.444 94.165 105.478 94.151 105.519 94.11C106.132 93.199 107.078 92.743 108.358 92.743C109.107 92.743 109.768 92.899 110.34 93.212C110.898 93.525 111.327 93.974 111.626 94.559C111.667 94.641 111.715 94.641 111.769 94.559C112.11 93.947 112.559 93.491 113.117 93.192C113.676 92.893 114.309 92.743 115.017 92.743ZM131.133 97.498C131.214 98.07 131.242 98.709 131.214 99.417C131.201 99.594 131.106 99.682 130.929 99.682H123.984C123.889 99.682 123.854 99.716 123.882 99.784C123.936 100.084 124.018 100.383 124.127 100.682C124.522 101.526 125.318 101.948 126.517 101.948C127.47 101.934 128.226 101.546 128.784 100.784C128.852 100.689 128.92 100.642 128.988 100.642C129.029 100.642 129.083 100.669 129.152 100.723L130.765 102.336C130.833 102.404 130.867 102.465 130.867 102.519C130.867 102.56 130.84 102.621 130.786 102.703C130.295 103.315 129.662 103.791 128.886 104.132C128.096 104.472 127.238 104.642 126.312 104.642C125.032 104.642 123.943 104.349 123.044 103.764C122.159 103.179 121.519 102.363 121.124 101.315C120.811 100.567 120.654 99.587 120.654 98.376C120.654 97.546 120.763 96.818 120.981 96.192C121.335 95.131 121.941 94.287 122.799 93.661C123.657 93.036 124.678 92.723 125.863 92.723C127.361 92.723 128.566 93.158 129.478 94.029C130.377 94.886 130.929 96.043 131.133 97.498ZM125.883 95.457C124.944 95.457 124.324 95.9 124.025 96.784C123.97 96.975 123.916 97.213 123.861 97.498C123.861 97.58 123.902 97.621 123.984 97.621H127.865C127.96 97.621 127.987 97.58 127.946 97.498C127.878 97.063 127.844 96.852 127.844 96.866C127.708 96.417 127.47 96.07 127.129 95.825C126.803 95.58 126.387 95.457 125.883 95.457ZM139.18 92.743C140.379 92.743 141.346 93.11 142.081 93.845C142.816 94.58 143.184 95.573 143.184 96.825V104.193C143.184 104.261 143.157 104.322 143.102 104.377C143.061 104.431 143 104.458 142.918 104.458H140.283C140.215 104.458 140.154 104.431 140.1 104.377C140.045 104.322 140.018 104.261 140.018 104.193V97.478C140.018 96.879 139.848 96.39 139.507 96.009C139.18 95.641 138.738 95.457 138.18 95.457C137.621 95.457 137.179 95.641 136.852 96.009C136.511 96.39 136.341 96.879 136.341 97.478V104.193C136.341 104.261 136.314 104.322 136.26 104.377C136.205 104.431 136.144 104.458 136.076 104.458H133.441C133.359 104.458 133.298 104.431 133.257 104.377C133.203 104.322 133.175 104.261 133.175 104.193V93.192C133.175 93.11 133.203 93.042 133.257 92.988C133.298 92.947 133.359 92.927 133.441 92.927H136.076C136.144 92.927 136.205 92.947 136.26 92.988C136.314 93.042 136.341 93.11 136.341 93.192V93.968C136.341 94.022 136.355 94.056 136.382 94.07C136.409 94.083 136.43 94.076 136.443 94.049C137.056 93.178 137.969 92.743 139.18 92.743ZM152.089 95.192C152.089 95.26 152.062 95.321 152.008 95.376C151.953 95.43 151.892 95.457 151.824 95.457H149.659C149.591 95.457 149.557 95.491 149.557 95.56V100.335C149.557 100.825 149.652 101.193 149.843 101.438C150.047 101.669 150.374 101.785 150.823 101.785H151.579C151.647 101.785 151.708 101.812 151.763 101.866C151.817 101.921 151.844 101.982 151.844 102.05V104.193C151.844 104.356 151.756 104.451 151.579 104.479C150.939 104.506 150.489 104.519 150.231 104.519C148.978 104.519 148.045 104.315 147.432 103.907C146.82 103.499 146.506 102.723 146.493 101.58V95.56C146.493 95.491 146.452 95.457 146.37 95.457H145.104C145.022 95.457 144.954 95.43 144.9 95.376C144.859 95.321 144.838 95.26 144.838 95.192V93.192C144.838 93.11 144.859 93.042 144.9 92.988C144.954 92.947 145.022 92.927 145.104 92.927H146.37C146.452 92.927 146.493 92.886 146.493 92.804V90.131C146.493 90.062 146.52 90.001 146.574 89.947C146.629 89.892 146.69 89.865 146.758 89.865H149.271C149.352 89.865 149.42 89.892 149.475 89.947C149.529 90.001 149.557 90.062 149.557 90.131V92.804C149.557 92.886 149.591 92.927 149.659 92.927H151.824C151.892 92.927 151.953 92.947 152.008 92.988C152.062 93.042 152.089 93.11 152.089 93.192V95.192ZM158.605 104.621C157.597 104.621 156.719 104.479 155.97 104.193C155.221 103.907 154.643 103.513 154.234 103.009C153.826 102.492 153.621 101.914 153.621 101.274V101.05C153.621 100.968 153.649 100.9 153.703 100.846C153.744 100.805 153.805 100.784 153.887 100.784H156.379C156.447 100.784 156.508 100.805 156.563 100.846C156.617 100.9 156.644 100.968 156.644 101.05V101.07C156.644 101.397 156.828 101.676 157.196 101.907C157.563 102.138 158.026 102.254 158.585 102.254C159.089 102.254 159.497 102.152 159.81 101.948C160.123 101.744 160.28 101.499 160.28 101.213C160.28 100.941 160.151 100.737 159.892 100.601C159.62 100.465 159.177 100.322 158.564 100.172C157.856 99.995 157.298 99.825 156.889 99.662C155.936 99.322 155.174 98.914 154.602 98.437C154.03 97.961 153.744 97.274 153.744 96.376C153.744 95.274 154.18 94.396 155.051 93.743C155.909 93.09 157.046 92.763 158.462 92.763C159.429 92.763 160.266 92.913 160.974 93.212C161.696 93.525 162.254 93.961 162.649 94.519C163.058 95.063 163.262 95.689 163.262 96.396C163.262 96.478 163.235 96.539 163.18 96.58C163.126 96.634 163.058 96.662 162.976 96.662H160.586C160.505 96.662 160.437 96.634 160.382 96.58C160.328 96.539 160.3 96.478 160.3 96.396C160.3 96.07 160.137 95.791 159.81 95.56C159.47 95.342 159.02 95.233 158.462 95.233C157.972 95.233 157.57 95.321 157.257 95.498C156.944 95.675 156.787 95.92 156.787 96.233C156.787 96.532 156.937 96.757 157.237 96.907C157.55 97.056 158.067 97.22 158.789 97.396C158.952 97.437 159.136 97.485 159.34 97.539C159.558 97.594 159.783 97.655 160.014 97.723C161.077 98.036 161.914 98.437 162.527 98.927C163.14 99.431 163.446 100.152 163.446 101.091C163.446 102.193 163.01 103.057 162.139 103.683C161.267 104.309 160.089 104.621 158.605 104.621ZM49.4307 73.823C49.3353 73.8639 49.3353 73.9047 49.4307 73.9455C50.8468 74.6803 51.5549 75.898 51.5549 77.5989C51.5549 79.0548 51.0579 80.1569 50.0638 80.9053C49.0834 81.64 47.7898 82.007 46.183 82.007H40.3617C40.2936 82.007 40.2324 81.9802 40.1779 81.9257C40.1234 81.8713 40.0962 81.8101 40.0962 81.7421V66.5571C40.0962 66.4891 40.1234 66.4279 40.1779 66.3735C40.2324 66.319 40.2936 66.2918 40.3617 66.2918H45.9992C49.5532 66.2918 51.3302 67.7273 51.3302 70.5983C51.3302 72.095 50.697 73.1699 49.4307 73.823ZM43.3847 69.0063C43.303 69.0063 43.2621 69.0471 43.2621 69.1288V72.6189C43.2621 72.7005 43.303 72.7413 43.3847 72.7413H45.9992C46.7073 72.7413 47.2587 72.5712 47.6536 72.2311C48.0349 71.9045 48.2255 71.4623 48.2255 70.9044C48.2255 70.3194 48.0349 69.8567 47.6536 69.5166C47.2587 69.1764 46.7073 69.0063 45.9992 69.0063H43.3847ZM46.183 79.2725C46.8775 79.2725 47.4153 79.0956 47.7966 78.7418C48.1915 78.388 48.389 77.905 48.389 77.2927C48.389 76.6804 48.1915 76.1974 47.7966 75.8436C47.4153 75.4898 46.8707 75.313 46.1626 75.313H43.3847C43.303 75.313 43.2621 75.3538 43.2621 75.4354V79.15C43.2621 79.2316 43.303 79.2725 43.3847 79.2725H46.183ZM64.0553 75.0476C64.137 75.6191 64.1643 76.2586 64.137 76.9662C64.1234 77.143 64.0281 77.2315 63.8511 77.2315H56.9064C56.8111 77.2315 56.777 77.2655 56.8043 77.3335C56.8587 77.6329 56.9473 77.9322 57.0698 78.2316C57.4511 79.0752 58.2409 79.497 59.4392 79.497C60.406 79.4834 61.1617 79.0956 61.7064 78.3336C61.7745 78.2384 61.8426 78.1907 61.9107 78.1907C61.9515 78.1907 62.006 78.218 62.0741 78.2724L63.6877 79.8848C63.7694 79.9528 63.8102 80.014 63.8102 80.0685C63.8102 80.1093 63.7762 80.1705 63.7081 80.2521C63.2179 80.8644 62.5847 81.3407 61.8085 81.6808C61.0187 82.021 60.1609 82.191 59.2349 82.191C57.9549 82.191 56.8655 81.8985 55.9668 81.3135C55.0817 80.7284 54.4417 79.912 54.0468 78.8643C53.7336 78.1159 53.577 77.1362 53.577 75.9253C53.577 75.0953 53.6928 74.3673 53.9243 73.7414C54.2647 72.6801 54.8638 71.8365 55.7217 71.2106C56.5796 70.5847 57.6009 70.2717 58.7855 70.2717C60.2834 70.2717 61.4885 70.7071 62.4009 71.578C63.2996 72.4352 63.8511 73.5917 64.0553 75.0476ZM58.806 73.0066C57.8664 73.0066 57.2468 73.4489 56.9473 74.3333C56.8928 74.5238 56.8383 74.7619 56.7838 75.0476C56.7838 75.1293 56.8247 75.1701 56.9064 75.1701H60.7873C60.8826 75.1701 60.9166 75.1293 60.8894 75.0476C60.8077 74.6122 60.7668 74.4013 60.7668 74.4149C60.6307 73.9659 60.3924 73.6189 60.0519 73.374C59.7251 73.1291 59.3098 73.0066 58.806 73.0066ZM70.5507 82.171C69.543 82.171 68.6647 82.028 67.9158 81.7421C67.1668 81.4563 66.5881 81.0617 66.1796 80.5583C65.7575 80.0412 65.5464 79.463 65.5464 78.8234V78.5989C65.5464 78.5173 65.5736 78.4493 65.6281 78.3948C65.6826 78.354 65.7507 78.3336 65.8324 78.3336H68.3243C68.3924 78.3336 68.4536 78.354 68.5081 78.3948C68.5626 78.4493 68.5898 78.5173 68.5898 78.5989V78.6194C68.5898 78.9459 68.7736 79.2248 69.1413 79.4562C69.509 79.6875 69.9651 79.8031 70.5098 79.8031C71.0272 79.8031 71.4426 79.7011 71.7558 79.497C72.069 79.2929 72.2255 79.048 72.2255 78.7622C72.2255 78.4901 72.0894 78.286 71.817 78.1499C71.5447 78.0139 71.1021 77.871 70.4894 77.7213C69.7949 77.5444 69.2434 77.3744 68.8349 77.2111C67.8817 76.8709 67.1192 76.4627 66.5472 75.9865C65.9753 75.5103 65.6894 74.8231 65.6894 73.9251C65.6894 72.823 66.1183 71.9453 66.9762 71.2922C67.8341 70.6391 68.9779 70.3126 70.4077 70.3126C71.3609 70.3126 72.1983 70.4622 72.92 70.7616C73.6417 71.0745 74.2 71.5099 74.5949 72.0678C74.9898 72.6121 75.1872 73.238 75.1872 73.9455C75.1872 74.0271 75.16 74.0884 75.1055 74.1292C75.0647 74.1836 75.0034 74.2108 74.9217 74.2108H72.5115C72.4434 74.2108 72.3821 74.1836 72.3277 74.1292C72.2732 74.0884 72.246 74.0271 72.246 73.9455C72.246 73.6189 72.0758 73.34 71.7353 73.1087C71.4085 72.891 70.966 72.7821 70.4077 72.7821C69.9175 72.7821 69.5158 72.8706 69.2026 73.0475C68.8758 73.2244 68.7124 73.4693 68.7124 73.7822C68.7124 74.0816 68.869 74.3061 69.1821 74.4557C69.4953 74.6054 70.006 74.7687 70.7141 74.9456L71.286 75.0885L71.96 75.2721C73.0221 75.5851 73.8596 75.9865 74.4724 76.4763C75.0851 76.9798 75.3915 77.7009 75.3915 78.6398C75.3915 79.7419 74.9558 80.6059 74.0843 81.2318C73.1992 81.8577 72.0213 82.171 70.5507 82.171ZM83.8272 72.7413C83.8272 72.8094 83.8 72.8706 83.7456 72.925C83.6911 72.9794 83.623 73.0066 83.5413 73.0066H81.3966C81.3149 73.0066 81.2741 73.0407 81.2741 73.1087V77.8846C81.2741 78.3744 81.3762 78.7418 81.5804 78.9867C81.7847 79.218 82.1115 79.3337 82.5609 79.3337H83.2962C83.3779 79.3337 83.446 79.3609 83.5004 79.4153C83.5549 79.4698 83.5821 79.531 83.5821 79.599V81.7421C83.5821 81.9053 83.4868 82.001 83.2962 82.028C82.6698 82.055 82.2204 82.069 81.9481 82.069C80.709 82.069 79.783 81.8645 79.1702 81.4563C78.5575 81.0481 78.2443 80.2726 78.2307 79.1296V73.1087C78.2307 73.0407 78.1898 73.0066 78.1081 73.0066H76.8417C76.76 73.0066 76.6919 72.9794 76.6375 72.925C76.583 72.8706 76.5558 72.8094 76.5558 72.7413V70.7412C76.5558 70.6595 76.583 70.5915 76.6375 70.5371C76.6919 70.4962 76.76 70.4758 76.8417 70.4758H78.1081C78.1898 70.4758 78.2307 70.435 78.2307 70.3534V67.6797C78.2307 67.6116 78.2579 67.5504 78.3124 67.496C78.3532 67.4416 78.4145 67.4143 78.4962 67.4143H81.0085C81.0902 67.4143 81.1583 67.4416 81.2128 67.496C81.2536 67.5504 81.2741 67.6116 81.2741 67.6797V70.3534C81.2741 70.435 81.3149 70.4758 81.3966 70.4758H83.5413C83.623 70.4758 83.6911 70.4962 83.7456 70.5371C83.8 70.5915 83.8272 70.6595 83.8272 70.7412V72.7413ZM100.535 66.4755C100.617 66.353 100.719 66.2918 100.842 66.2918H103.477C103.558 66.2918 103.626 66.319 103.681 66.3735C103.722 66.4279 103.742 66.4891 103.742 66.5571V81.7421C103.742 81.8101 103.722 81.8713 103.681 81.9257C103.626 81.9802 103.558 82.007 103.477 82.007H100.842C100.774 82.007 100.712 81.9802 100.658 81.9257C100.603 81.8713 100.576 81.8101 100.576 81.7421V71.8433C100.576 71.7753 100.563 71.7412 100.535 71.7412C100.508 71.7412 100.481 71.7684 100.454 71.8229L98.0638 75.5375C97.9958 75.6599 97.8936 75.7212 97.7575 75.7212H96.4298C96.2936 75.7212 96.1847 75.6599 96.103 75.5375L93.7336 71.8229C93.7064 71.7684 93.6724 71.748 93.6315 71.7616C93.6043 71.7616 93.5907 71.7957 93.5907 71.8637V81.7421C93.5907 81.8101 93.5634 81.8713 93.5089 81.9257C93.4545 81.9802 93.3932 82.007 93.3251 82.007H90.6902C90.6221 82.007 90.5609 81.9802 90.5064 81.9257C90.4519 81.8713 90.4247 81.8101 90.4247 81.7421V66.5571C90.4247 66.4891 90.4519 66.4279 90.5064 66.3735C90.5609 66.319 90.6221 66.2918 90.6902 66.2918H93.3251C93.4613 66.2918 93.5634 66.353 93.6315 66.4755L97.0017 71.7004C97.0562 71.7957 97.1038 71.7957 97.1447 71.7004L100.535 66.4755ZM116.508 75.0476C116.603 75.6191 116.637 76.2586 116.61 76.9662C116.583 77.143 116.481 77.2315 116.304 77.2315H109.359C109.277 77.2315 109.25 77.2655 109.277 77.3335C109.318 77.6329 109.4 77.9322 109.523 78.2316C109.917 79.0752 110.714 79.497 111.912 79.497C112.866 79.4834 113.621 79.0956 114.18 78.3336C114.234 78.2384 114.302 78.1907 114.384 78.1907C114.425 78.1907 114.472 78.218 114.527 78.2724L116.161 79.8848C116.229 79.9528 116.263 80.014 116.263 80.0685C116.263 80.1093 116.236 80.1705 116.181 80.2521C115.677 80.8644 115.037 81.3407 114.261 81.6808C113.485 82.021 112.634 82.191 111.708 82.191C110.414 82.191 109.325 81.8985 108.44 81.3135C107.541 80.7284 106.901 79.912 106.52 78.8643C106.207 78.1159 106.05 77.1362 106.05 75.9253C106.05 75.0953 106.159 74.3673 106.377 73.7414C106.717 72.6801 107.323 71.8365 108.195 71.2106C109.053 70.5847 110.074 70.2717 111.259 70.2717C112.757 70.2717 113.955 70.7071 114.854 71.578C115.766 72.4352 116.317 73.5917 116.508 75.0476ZM111.279 73.0066C110.34 73.0066 109.72 73.4489 109.42 74.3333C109.352 74.5238 109.298 74.7619 109.257 75.0476C109.257 75.1293 109.291 75.1701 109.359 75.1701H113.26C113.342 75.1701 113.369 75.1293 113.342 75.0476C113.274 74.6122 113.24 74.4013 113.24 74.4149C113.104 73.9659 112.866 73.6189 112.525 73.374C112.185 73.1291 111.769 73.0066 111.279 73.0066ZM128.784 75.0476C128.866 75.6191 128.893 76.2586 128.866 76.9662C128.852 77.143 128.757 77.2315 128.58 77.2315H121.635C121.54 77.2315 121.512 77.2655 121.553 77.3335C121.594 77.6329 121.676 77.9322 121.798 78.2316C122.18 79.0752 122.969 79.497 124.168 79.497C125.134 79.4834 125.89 79.0956 126.435 78.3336C126.503 78.2384 126.571 78.1907 126.639 78.1907C126.694 78.1907 126.748 78.218 126.803 78.2724L128.416 79.8848C128.498 79.9528 128.539 80.014 128.539 80.0685C128.539 80.1093 128.505 80.1705 128.437 80.2521C127.946 80.8644 127.313 81.3407 126.537 81.6808C125.761 82.021 124.903 82.191 123.963 82.191C122.683 82.191 121.594 81.8985 120.695 81.3135C119.81 80.7284 119.17 79.912 118.775 78.8643C118.462 78.1159 118.306 77.1362 118.306 75.9253C118.306 75.0953 118.421 74.3673 118.653 73.7414C118.993 72.6801 119.592 71.8365 120.45 71.2106C121.308 70.5847 122.329 70.2717 123.514 70.2717C125.012 70.2717 126.217 70.7071 127.129 71.578C128.028 72.4352 128.58 73.5917 128.784 75.0476ZM123.534 73.0066C122.595 73.0066 121.975 73.4489 121.676 74.3333C121.621 74.5238 121.567 74.7619 121.512 75.0476C121.512 75.1293 121.553 75.1701 121.635 75.1701H125.516C125.611 75.1701 125.645 75.1293 125.618 75.0476C125.536 74.6122 125.495 74.4013 125.495 74.4149C125.359 73.9659 125.128 73.6189 124.801 73.374C124.46 73.1291 124.038 73.0066 123.534 73.0066ZM137.179 72.7413C137.179 72.8094 137.152 72.8706 137.097 72.925C137.056 72.9794 136.995 73.0066 136.913 73.0066H134.748C134.68 73.0066 134.646 73.0407 134.646 73.1087V77.8846C134.646 78.3744 134.748 78.7418 134.952 78.9867C135.157 79.218 135.483 79.3337 135.933 79.3337H136.668C136.736 79.3337 136.797 79.3609 136.852 79.4153C136.906 79.4698 136.934 79.531 136.934 79.599V81.7421C136.934 81.9053 136.845 82.001 136.668 82.028C136.042 82.055 135.592 82.069 135.32 82.069C134.081 82.069 133.148 81.8645 132.522 81.4563C131.909 81.0481 131.596 80.2726 131.582 79.1296V73.1087C131.582 73.0407 131.548 73.0066 131.48 73.0066H130.193C130.125 73.0066 130.064 72.9794 130.009 72.925C129.955 72.8706 129.928 72.8094 129.928 72.7413V70.7412C129.928 70.6595 129.955 70.5915 130.009 70.5371C130.064 70.4962 130.125 70.4758 130.193 70.4758H131.48C131.548 70.4758 131.582 70.435 131.582 70.3534V67.6797C131.582 67.6116 131.609 67.5504 131.664 67.496C131.718 67.4416 131.78 67.4143 131.848 67.4143H134.38C134.449 67.4143 134.51 67.4416 134.564 67.496C134.619 67.5504 134.646 67.6116 134.646 67.6797V70.3534C134.646 70.435 134.68 70.4758 134.748 70.4758H136.913C136.995 70.4758 137.056 70.4962 137.097 70.5371C137.152 70.5915 137.179 70.6595 137.179 70.7412V72.7413ZM143.694 82.171C142.7 82.171 141.822 82.028 141.06 81.7421C140.311 81.4563 139.732 81.0617 139.323 80.5583C138.915 80.0412 138.711 79.463 138.711 78.8234V78.5989C138.711 78.5173 138.738 78.4493 138.792 78.3948C138.847 78.354 138.908 78.3336 138.976 78.3336H141.468C141.55 78.3336 141.618 78.354 141.672 78.3948C141.713 78.4493 141.734 78.5173 141.734 78.5989V78.6194C141.734 78.9459 141.917 79.2248 142.285 79.4562C142.653 79.6875 143.116 79.8031 143.674 79.8031C144.178 79.8031 144.593 79.7011 144.92 79.497C145.233 79.2929 145.39 79.048 145.39 78.7622C145.39 78.4901 145.254 78.286 144.981 78.1499C144.709 78.0139 144.266 77.871 143.654 77.7213C142.946 77.5444 142.394 77.3744 141.999 77.2111C141.032 76.8709 140.263 76.4627 139.691 75.9865C139.133 75.5103 138.854 74.8231 138.854 73.9251C138.854 72.823 139.283 71.9453 140.14 71.2922C140.998 70.6391 142.142 70.3126 143.572 70.3126C144.525 70.3126 145.363 70.4622 146.084 70.7616C146.806 71.0745 147.364 71.5099 147.759 72.0678C148.154 72.6121 148.352 73.238 148.352 73.9455C148.352 74.0271 148.324 74.0884 148.27 74.1292C148.215 74.1836 148.154 74.2108 148.086 74.2108H145.676C145.594 74.2108 145.533 74.1836 145.492 74.1292C145.437 74.0884 145.41 74.0271 145.41 73.9455C145.41 73.6189 145.24 73.34 144.9 73.1087C144.559 72.891 144.117 72.7821 143.572 72.7821C143.068 72.7821 142.66 72.8706 142.346 73.0475C142.033 73.2244 141.877 73.4693 141.877 73.7822C141.877 74.0816 142.033 74.3061 142.346 74.4557C142.646 74.6054 143.157 74.7687 143.878 74.9456C144.042 74.9864 144.226 75.034 144.43 75.0885C144.648 75.1429 144.872 75.2041 145.104 75.2721C146.18 75.5851 147.024 75.9865 147.637 76.4763C148.249 76.9798 148.556 77.7009 148.556 78.6398C148.556 79.7419 148.113 80.6059 147.228 81.2318C146.357 81.8577 145.179 82.171 143.694 82.171Z" fill="#252530"/>
<path d="M68.1186 172.75C68.0778 172.791 68.0642 172.832 68.0778 172.873C68.105 172.914 68.1459 172.934 68.2003 172.934H76.2276C76.3229 172.934 76.4046 172.968 76.4727 173.036C76.5544 173.104 76.5952 173.186 76.5952 173.281V176.159C76.5952 176.254 76.5544 176.336 76.4727 176.404C76.4046 176.472 76.3229 176.506 76.2276 176.506H62.9101C62.8012 176.506 62.7127 176.472 62.6446 176.404C62.5765 176.336 62.5425 176.254 62.5425 176.159V173.424C62.5425 173.247 62.6038 173.097 62.7263 172.975C63.6931 172.036 64.6803 171.009 65.688 169.893C66.6957 168.777 67.3289 168.083 67.5876 167.811C68.1323 167.158 68.6906 166.532 69.2625 165.934C71.0599 163.947 71.9586 162.471 71.9586 161.505C71.9586 160.811 71.7135 160.239 71.2233 159.79C70.7331 159.355 70.0931 159.137 69.3033 159.137C68.5135 159.137 67.8735 159.355 67.3833 159.79C66.8795 160.239 66.6276 160.831 66.6276 161.566V162.301C66.6276 162.396 66.5935 162.477 66.5255 162.545C66.4574 162.614 66.3757 162.648 66.2803 162.648H62.7876C62.6923 162.648 62.6106 162.614 62.5425 162.545C62.4608 162.477 62.4199 162.396 62.4199 162.301V160.913C62.488 159.851 62.8284 158.906 63.4412 158.076C64.054 157.259 64.8642 156.633 65.8718 156.198C66.8931 155.763 68.0369 155.545 69.3033 155.545C70.7059 155.545 71.9246 155.81 72.9595 156.341C73.9944 156.858 74.791 157.559 75.3493 158.443C75.9212 159.341 76.2072 160.328 76.2072 161.403C76.2072 162.233 75.9961 163.083 75.574 163.954C75.1655 164.825 74.5459 165.763 73.7152 166.77C73.1025 167.532 72.442 168.294 71.734 169.056C71.0259 169.805 69.9706 170.886 68.568 172.301L68.1186 172.75ZM86.2157 176.832C84.0369 176.832 82.3212 176.227 81.0684 175.016C79.802 173.805 79.1689 172.152 79.1689 170.056V162.239C79.1689 160.185 79.802 158.559 81.0684 157.361C82.3212 156.15 84.0369 155.545 86.2157 155.545C88.3808 155.545 90.1033 156.15 91.3833 157.361C92.6497 158.559 93.2829 160.185 93.2829 162.239V170.056C93.2829 172.152 92.6497 173.805 91.3833 175.016C90.1033 176.227 88.3808 176.832 86.2157 176.832ZM86.2157 173.261C87.1008 173.261 87.802 172.989 88.3195 172.444C88.8506 171.9 89.1161 171.172 89.1161 170.26V162.117C89.1161 161.219 88.8506 160.498 88.3195 159.953C87.802 159.409 87.1008 159.137 86.2157 159.137C85.3442 159.137 84.6497 159.409 84.1323 159.953C83.6012 160.498 83.3357 161.219 83.3357 162.117V170.26C83.3357 171.172 83.6012 171.9 84.1323 172.444C84.6497 172.989 85.3442 173.261 86.2157 173.261ZM101.576 172.75C101.535 172.791 101.528 172.832 101.555 172.873C101.569 172.914 101.61 172.934 101.678 172.934H109.705C109.8 172.934 109.882 172.968 109.95 173.036C110.018 173.104 110.052 173.186 110.052 173.281V176.159C110.052 176.254 110.018 176.336 109.95 176.404C109.882 176.472 109.8 176.506 109.705 176.506H96.3672C96.2718 176.506 96.1901 176.472 96.1221 176.404C96.054 176.336 96.0199 176.254 96.0199 176.159V173.424C96.0199 173.247 96.0744 173.097 96.1833 172.975C97.1638 172.036 98.151 171.009 99.145 169.893C100.153 168.777 100.786 168.083 101.045 167.811C101.603 167.158 102.168 166.532 102.74 165.934C104.537 163.947 105.436 162.471 105.436 161.505C105.436 160.811 105.191 160.239 104.701 159.79C104.197 159.355 103.55 159.137 102.76 159.137C101.971 159.137 101.331 159.355 100.84 159.79C100.35 160.239 100.105 160.831 100.105 161.566V162.301C100.105 162.396 100.071 162.477 100.003 162.545C99.935 162.614 99.846 162.648 99.737 162.648H96.2446C96.1493 162.648 96.0676 162.614 95.9995 162.545C95.9314 162.477 95.8974 162.396 95.8974 162.301V160.913C95.9518 159.851 96.2855 158.906 96.8982 158.076C97.511 157.259 98.328 156.633 99.349 156.198C100.371 155.763 101.508 155.545 102.76 155.545C104.163 155.545 105.382 155.81 106.417 156.341C107.465 156.858 108.268 157.559 108.827 158.443C109.385 159.341 109.664 160.328 109.664 161.403C109.664 162.233 109.46 163.083 109.051 163.954C108.629 164.825 108.003 165.763 107.172 166.77C106.56 167.532 105.899 168.294 105.191 169.056C104.483 169.805 103.428 170.886 102.025 172.301L101.576 172.75ZM124.983 166.627C125.378 167.525 125.576 168.566 125.576 169.75C125.576 170.825 125.399 171.812 125.045 172.71C124.568 173.975 123.771 174.961 122.655 175.669C121.538 176.39 120.217 176.751 118.692 176.751C117.194 176.751 115.88 176.377 114.75 175.628C113.62 174.866 112.803 173.846 112.299 172.567C112.027 171.805 111.87 170.975 111.829 170.077C111.829 169.845 111.945 169.73 112.177 169.73H115.69C115.921 169.73 116.037 169.845 116.037 170.077C116.119 170.73 116.228 171.213 116.364 171.526C116.541 172.043 116.834 172.444 117.242 172.73C117.637 173.016 118.114 173.159 118.672 173.159C119.775 173.159 120.537 172.676 120.959 171.71C121.232 171.124 121.368 170.437 121.368 169.648C121.368 168.709 121.218 167.947 120.919 167.362C120.469 166.437 119.714 165.974 118.651 165.974C118.434 165.974 118.202 166.036 117.957 166.158C117.725 166.294 117.439 166.478 117.099 166.709C117.017 166.764 116.942 166.791 116.874 166.791C116.752 166.791 116.663 166.736 116.609 166.627L114.852 164.158C114.811 164.103 114.791 164.035 114.791 163.954C114.791 163.831 114.832 163.736 114.914 163.668L119.611 159.545C119.652 159.504 119.673 159.464 119.673 159.423C119.659 159.382 119.625 159.362 119.571 159.362H112.605C112.51 159.362 112.422 159.328 112.34 159.26C112.272 159.191 112.238 159.11 112.238 159.015V156.137C112.238 156.042 112.272 155.96 112.34 155.892C112.422 155.824 112.51 155.79 112.605 155.79H124.942C125.051 155.79 125.14 155.824 125.208 155.892C125.276 155.96 125.31 156.042 125.31 156.137V159.402C125.31 159.552 125.242 159.702 125.106 159.851L121.225 163.403C121.184 163.444 121.171 163.478 121.184 163.505C121.184 163.546 121.225 163.566 121.307 163.566C123.022 163.906 124.248 164.927 124.983 166.627Z" fill="#252530"/>
<path d="M183.723 113.643H6.83793L0.301758 127.93L6.83793 142.217H183.723L190.055 127.93L183.723 113.643Z" fill="#FFD200"/>
<path d="M63.2113 135.89C63.0615 135.89 62.9662 135.822 62.9254 135.686L59.2079 121.869L59.1875 121.787C59.1875 121.665 59.2624 121.603 59.4122 121.603H61.4139C61.5637 121.603 61.659 121.671 61.6998 121.807L64.0284 131.114C64.042 131.155 64.0624 131.176 64.0896 131.176C64.1169 131.176 64.1373 131.155 64.1509 131.114L66.3773 121.807C66.4181 121.671 66.5067 121.603 66.6428 121.603H68.6037C68.7535 121.603 68.8488 121.671 68.8896 121.807L71.259 131.135C71.2726 131.176 71.293 131.196 71.3203 131.196C71.3475 131.196 71.3679 131.176 71.3815 131.135L73.6692 121.807C73.7101 121.671 73.8054 121.603 73.9552 121.603H75.8547C76.0454 121.603 76.1203 121.692 76.0794 121.869L72.5458 135.686C72.505 135.822 72.4096 135.89 72.2598 135.89H70.3603C70.2105 135.89 70.1152 135.822 70.0743 135.686L67.6845 125.951C67.6709 125.91 67.6505 125.883 67.6232 125.869C67.596 125.869 67.5756 125.896 67.562 125.951L65.2743 135.686C65.2335 135.822 65.145 135.89 65.0088 135.89H63.2113ZM78.3467 135.89C78.2786 135.89 78.2173 135.863 78.1628 135.809C78.122 135.768 78.1015 135.713 78.1015 135.645V121.848C78.1015 121.78 78.122 121.726 78.1628 121.685C78.2173 121.631 78.2786 121.603 78.3467 121.603H80.2258C80.2939 121.603 80.3484 121.631 80.3892 121.685C80.4437 121.726 80.4709 121.78 80.4709 121.848V135.645C80.4709 135.713 80.4437 135.768 80.3892 135.809C80.3484 135.863 80.2939 135.89 80.2258 135.89H78.3467ZM91.7662 121.848C91.7662 121.78 91.7867 121.726 91.8275 121.685C91.882 121.631 91.9432 121.603 92.0113 121.603H93.8905C93.9586 121.603 94.013 121.631 94.0539 121.685C94.1084 121.726 94.1356 121.78 94.1356 121.848V135.645C94.1356 135.713 94.1084 135.768 94.0539 135.809C94.013 135.863 93.9586 135.89 93.8905 135.89H92.0726C91.9364 135.89 91.8411 135.836 91.7867 135.727L85.9041 126.093C85.8769 126.053 85.8496 126.032 85.8224 126.032C85.7952 126.046 85.7815 126.08 85.7815 126.134L85.8224 135.645C85.8224 135.713 85.7952 135.768 85.7407 135.809C85.6998 135.863 85.6454 135.89 85.5773 135.89H83.6981C83.6301 135.89 83.5688 135.863 83.5143 135.809C83.4735 135.768 83.453 135.713 83.453 135.645V121.848C83.453 121.78 83.4735 121.726 83.5143 121.685C83.5688 121.631 83.6301 121.603 83.6981 121.603H85.516C85.6522 121.603 85.7475 121.658 85.802 121.767L91.6641 131.4C91.6913 131.441 91.7186 131.454 91.7458 131.441C91.773 131.441 91.7867 131.414 91.7867 131.359L91.7662 121.848ZM106.513 121.603C106.582 121.603 106.636 121.631 106.677 121.685C106.731 121.726 106.759 121.78 106.759 121.848V123.42C106.759 123.488 106.731 123.542 106.677 123.583C106.636 123.638 106.582 123.665 106.513 123.665H102.755C102.687 123.665 102.653 123.699 102.653 123.767V135.645C102.653 135.713 102.633 135.768 102.592 135.809C102.537 135.863 102.476 135.89 102.408 135.89H100.529C100.461 135.89 100.406 135.863 100.365 135.809C100.311 135.768 100.284 135.713 100.284 135.645V123.767C100.284 123.699 100.25 123.665 100.182 123.665H96.5662C96.4981 123.665 96.4369 123.638 96.3824 123.583C96.3415 123.542 96.3211 123.488 96.3211 123.42V121.848C96.3211 121.78 96.3415 121.726 96.3824 121.685C96.4369 121.631 96.4981 121.603 96.5662 121.603H106.513ZM118.626 123.399C118.626 123.467 118.599 123.522 118.544 123.563C118.503 123.617 118.449 123.644 118.381 123.644H111.416C111.348 123.644 111.313 123.678 111.313 123.746V127.563C111.313 127.631 111.348 127.665 111.416 127.665H116.093C116.161 127.665 116.222 127.685 116.277 127.726C116.318 127.781 116.338 127.842 116.338 127.91V129.461C116.338 129.529 116.318 129.59 116.277 129.645C116.222 129.686 116.161 129.706 116.093 129.706H111.416C111.348 129.706 111.313 129.74 111.313 129.808V133.747C111.313 133.815 111.348 133.849 111.416 133.849H118.381C118.449 133.849 118.503 133.876 118.544 133.931C118.599 133.972 118.626 134.026 118.626 134.094V135.645C118.626 135.713 118.599 135.768 118.544 135.809C118.503 135.863 118.449 135.89 118.381 135.89H109.189C109.121 135.89 109.06 135.863 109.005 135.809C108.965 135.768 108.944 135.713 108.944 135.645V121.848C108.944 121.78 108.965 121.726 109.005 121.685C109.06 121.631 109.121 121.603 109.189 121.603H118.381C118.449 121.603 118.503 121.631 118.544 121.685C118.599 121.726 118.626 121.78 118.626 121.848V123.399ZM129.063 135.89C128.927 135.89 128.832 135.829 128.777 135.707L126.081 129.828C126.054 129.774 126.013 129.747 125.959 129.747H123.508C123.439 129.747 123.405 129.781 123.405 129.849V135.645C123.405 135.713 123.378 135.768 123.324 135.809C123.283 135.863 123.228 135.89 123.16 135.89H121.281C121.213 135.89 121.152 135.863 121.097 135.809C121.056 135.768 121.036 135.713 121.036 135.645V121.848C121.036 121.78 121.056 121.726 121.097 121.685C121.152 121.631 121.213 121.603 121.281 121.603H126.898C127.729 121.603 128.464 121.773 129.104 122.114C129.744 122.467 130.241 122.957 130.595 123.583C130.949 124.223 131.126 124.951 131.126 125.767C131.126 126.706 130.881 127.502 130.391 128.155C129.914 128.822 129.247 129.284 128.389 129.543C128.362 129.543 128.342 129.556 128.328 129.584C128.314 129.611 128.314 129.638 128.328 129.665L131.208 135.604C131.235 135.659 131.249 135.7 131.249 135.727C131.249 135.836 131.174 135.89 131.024 135.89H129.063ZM123.508 123.644C123.439 123.644 123.405 123.678 123.405 123.746V127.808C123.405 127.876 123.439 127.91 123.508 127.91H126.571C127.225 127.91 127.756 127.713 128.165 127.318C128.559 126.937 128.757 126.427 128.757 125.787C128.757 125.148 128.559 124.631 128.165 124.236C127.756 123.842 127.225 123.644 126.571 123.644H123.508Z" fill="#242530"/>
</g>
<defs>
<clipPath id="clip0_232_67">
<rect width="191" height="213" fill="white"/>
</clipPath>
</defs>
</svg>
