<svg width="94" height="106" viewBox="0 0 94 106" fill="none" xmlns="http://www.w3.org/2000/svg">
<g clip-path="url(#clip0_232_58)">
<path d="M8.1 80.9L47.6 101L85.6 80.9V2.29999H8.1V80.9Z" fill="white"/>
<path d="M86.4 2.60001L7.3 82.3L48.3 102.6L86.4 83.1V2.60001Z" fill="#F2F3F2"/>
<path d="M5.5 28.5V82.6L6.9 83.3L46.4 103.4L47.6 104L48.8 103.4L86.9 83.3L88.3 82.6V-0.299988H5.5V28.5ZM8.1 81.1V2.30001H85.7V81.1L47.6 101.2L8.1 81.1Z" fill="#DCDEDC"/>
<path d="M46.9 3.60001C47.3 3.60001 47.7 3.60001 48.1 3.70001L46.9 6.00001C45.1 5.90001 43.5 7.30001 43.4 9.10001C43.3 10.9 44.7 12.5 46.5 12.6H46.9C47.7 12.6 48.5 12.3 49.1 11.8L50.4 14C49.4 14.7 48.2 15.1 46.9 15.1C43.7 15.2 41 12.8 40.9 9.60001C40.8 6.40001 43.2 3.70001 46.4 3.60001H46.9V3.60001ZM51 8.50001L52.5 11L51 13.4L49.6 11H46.7L48.2 8.50001H51ZM48.6 7.60001C48.6 7.20001 48.7 6.80001 48.9 6.50001C49.1 6.20001 49.5 5.90001 49.8 5.70001L50 5.60001C50.4 5.40001 50.5 5.30001 50.5 5.10001C50.5 4.90001 50.2 4.70001 50 4.70001C49.6 4.70001 49.3 4.90001 49.1 5.30001L48.6 4.80001C48.7 4.60001 48.9 4.40001 49.1 4.20001C49.4 4.00001 49.7 4.00001 50 4.00001C50.3 4.00001 50.7 4.10001 50.9 4.30001C51.1 4.50001 51.3 4.80001 51.3 5.10001C51.3 5.60001 51 6.00001 50.4 6.20001L50.1 6.40001C49.8 6.60001 49.6 6.70001 49.5 7.00001H51.3V7.70001L48.6 7.60001V7.60001ZM46.9 20.1L56.4 14.7V-0.299988H37.3V14.6L46.9 20.1Z" fill="#FF492C"/>
<path d="M90.2 55.5H3.6L0.400002 62.5L3.6 69.5H90.2L93.3 62.5L90.2 55.5Z" fill="#FFD200"/>
<path d="M32.99 40.5C33.0367 40.5 33.08 40.5167 33.12 40.55C33.1533 40.59 33.17 40.6333 33.17 40.68V42.15C33.17 42.1967 33.1533 42.24 33.12 42.28C33.08 42.3133 33.0367 42.33 32.99 42.33H30.3C30.2533 42.33 30.23 42.3567 30.23 42.41V50.82C30.23 50.8733 30.2133 50.9167 30.18 50.95C30.14 50.9833 30.0967 51 30.05 51H28.29C28.2433 51 28.2033 50.9833 28.17 50.95C28.13 50.9167 28.11 50.8733 28.11 50.82V42.41C28.11 42.3567 28.0867 42.33 28.04 42.33H25.43C25.3833 42.33 25.34 42.3133 25.3 42.28C25.2667 42.24 25.25 42.1967 25.25 42.15V40.68C25.25 40.6333 25.2667 40.59 25.3 40.55C25.34 40.5167 25.3833 40.5 25.43 40.5H32.99ZM36.53 51.12C35.69 51.12 34.97 50.9 34.37 50.46C33.77 50.02 33.36 49.42 33.14 48.66C33 48.1933 32.93 47.6833 32.93 47.13C32.93 46.5433 33 46.0133 33.14 45.54C33.3733 44.8 33.7867 44.22 34.38 43.8C34.9867 43.38 35.7067 43.17 36.54 43.17C37.3667 43.17 38.07 43.3767 38.65 43.79C39.23 44.21 39.6367 44.79 39.87 45.53C40.0367 46.03 40.12 46.5533 40.12 47.1C40.12 47.64 40.0467 48.1467 39.9 48.62C39.6867 49.4 39.28 50.01 38.68 50.45C38.0867 50.8967 37.37 51.12 36.53 51.12V51.12ZM36.53 49.31C36.8633 49.31 37.1433 49.21 37.37 49.01C37.6033 48.81 37.77 48.5333 37.87 48.18C37.95 47.86 37.99 47.51 37.99 47.13C37.99 46.71 37.95 46.3567 37.87 46.07C37.7567 45.73 37.5867 45.4633 37.36 45.27C37.1267 45.0833 36.8467 44.99 36.52 44.99C36.18 44.99 35.8967 45.0833 35.67 45.27C35.4433 45.4633 35.28 45.73 35.18 46.07C35.1 46.3033 35.06 46.6567 35.06 47.13C35.06 47.5833 35.0967 47.9333 35.17 48.18C35.2633 48.5333 35.43 48.81 35.67 49.01C35.9033 49.21 36.19 49.31 36.53 49.31ZM48.42 51.12C47.6533 51.12 46.9767 50.97 46.39 50.67C45.81 50.37 45.3567 49.9467 45.03 49.4C44.7033 48.8533 44.54 48.2267 44.54 47.52V40.68C44.54 40.6333 44.5567 40.59 44.59 40.55C44.63 40.5167 44.6733 40.5 44.72 40.5H46.47C46.5233 40.5 46.5667 40.5167 46.6 40.55C46.64 40.59 46.66 40.6333 46.66 40.68V47.54C46.66 48.0667 46.82 48.4933 47.14 48.82C47.4667 49.1467 47.8933 49.31 48.42 49.31C48.9533 49.31 49.3833 49.1467 49.71 48.82C50.0367 48.4933 50.2 48.0667 50.2 47.54V40.68C50.2 40.6333 50.2167 40.59 50.25 40.55C50.2833 40.5167 50.3267 40.5 50.38 40.5H52.13C52.1833 40.5 52.2267 40.5167 52.26 40.55C52.2933 40.59 52.31 40.6333 52.31 40.68V47.52C52.31 48.2267 52.1467 48.8533 51.82 49.4C51.5 49.9467 51.0467 50.37 50.46 50.67C49.8733 50.97 49.1933 51.12 48.42 51.12V51.12ZM56.99 51.1C56.3233 51.1 55.74 51.0067 55.24 50.82C54.74 50.6333 54.35 50.37 54.07 50.03C53.7967 49.69 53.66 49.3033 53.66 48.87V48.72C53.66 48.6733 53.6767 48.63 53.71 48.59C53.7433 48.5567 53.7867 48.54 53.84 48.54H55.51C55.5567 48.54 55.5967 48.5567 55.63 48.59C55.67 48.63 55.69 48.6733 55.69 48.72V48.73C55.69 48.9567 55.81 49.1467 56.05 49.3C56.2967 49.4533 56.6033 49.53 56.97 49.53C57.3167 49.53 57.5933 49.4633 57.8 49.33C58.0067 49.19 58.11 49.0233 58.11 48.83C58.11 48.65 58.0233 48.5133 57.85 48.42C57.6633 48.3333 57.3667 48.24 56.96 48.14C56.4933 48.02 56.1233 47.9033 55.85 47.79C55.21 47.57 54.7 47.3 54.32 46.98C53.94 46.66 53.75 46.2 53.75 45.6C53.75 44.86 54.0367 44.2733 54.61 43.84C55.1833 43.4067 55.9467 43.19 56.9 43.19C57.54 43.19 58.1 43.29 58.58 43.49C59.06 43.6967 59.4333 43.9867 59.7 44.36C59.9667 44.7267 60.1 45.1467 60.1 45.62C60.1 45.6667 60.08 45.7067 60.04 45.74C60.0067 45.7733 59.9667 45.79 59.92 45.79H58.31C58.2633 45.79 58.22 45.7733 58.18 45.74C58.1467 45.7067 58.13 45.6667 58.13 45.62C58.13 45.4 58.0167 45.2133 57.79 45.06C57.57 44.9067 57.2733 44.83 56.9 44.83C56.5667 44.83 56.2967 44.8933 56.09 45.02C55.8833 45.14 55.78 45.3033 55.78 45.51C55.78 45.71 55.88 45.86 56.08 45.96C56.2867 46.06 56.63 46.1667 57.11 46.28L57.49 46.37C57.63 46.4033 57.7767 46.4467 57.93 46.5C58.6433 46.7133 59.2033 46.9833 59.61 47.31C60.0233 47.6433 60.23 48.1233 60.23 48.75C60.23 49.49 59.9367 50.0667 59.35 50.48C58.7633 50.8933 57.9767 51.1 56.99 51.1V51.1ZM68.27 46.35C68.33 46.73 68.35 47.1533 68.33 47.62C68.3167 47.7467 68.25 47.81 68.13 47.81H63.5C63.44 47.81 63.42 47.8333 63.44 47.88C63.4733 48.08 63.5267 48.28 63.6 48.48C63.86 49.04 64.3933 49.32 65.2 49.32C65.84 49.3133 66.3433 49.0533 66.71 48.54C66.75 48.48 66.7967 48.45 66.85 48.45C66.8767 48.45 66.91 48.47 66.95 48.51L68.03 49.57C68.0767 49.6233 68.1 49.67 68.1 49.71C68.1 49.73 68.0833 49.77 68.05 49.83C67.7167 50.2433 67.29 50.56 66.77 50.78C66.25 51.0067 65.68 51.12 65.06 51.12C64.2 51.12 63.4733 50.9267 62.88 50.54C62.2867 50.1467 61.86 49.6 61.6 48.9C61.3867 48.4 61.28 47.7467 61.28 46.94C61.28 46.3867 61.3567 45.9 61.51 45.48C61.7367 44.7733 62.1367 44.21 62.71 43.79C63.2833 43.37 63.9667 43.16 64.76 43.16C65.76 43.16 66.5633 43.45 67.17 44.03C67.7767 44.61 68.1433 45.3833 68.27 46.35V46.35ZM64.78 44.99C64.1467 44.99 63.73 45.2833 63.53 45.87C63.49 46.0033 63.4533 46.1633 63.42 46.35C63.42 46.3967 63.4467 46.42 63.5 46.42H66.1C66.16 46.42 66.18 46.3967 66.16 46.35C66.1067 46.0633 66.08 45.9233 66.08 45.93C65.9933 45.63 65.8367 45.3967 65.61 45.23C65.3833 45.07 65.1067 44.99 64.78 44.99V44.99ZM29.87 27.13C29.87 27.1833 29.85 27.2267 29.81 27.26C29.7767 27.2933 29.7367 27.31 29.69 27.31H24.76C24.7133 27.31 24.69 27.3367 24.69 27.39V29.71C24.69 29.7633 24.7133 29.79 24.76 29.79H27.99C28.0367 29.79 28.08 29.8067 28.12 29.84C28.1533 29.88 28.17 29.9233 28.17 29.97V31.42C28.17 31.4733 28.1533 31.5167 28.12 31.55C28.08 31.59 28.0367 31.61 27.99 31.61H24.76C24.7133 31.61 24.69 31.6333 24.69 31.68V34.11C24.69 34.1633 24.7133 34.19 24.76 34.19H29.69C29.7367 34.19 29.7767 34.2067 29.81 34.24C29.85 34.2733 29.87 34.3133 29.87 34.36V35.82C29.87 35.8733 29.85 35.9167 29.81 35.95C29.7767 35.9833 29.7367 36 29.69 36H22.75C22.7033 36 22.6633 35.9833 22.63 35.95C22.59 35.9167 22.57 35.8733 22.57 35.82V25.68C22.57 25.6333 22.59 25.59 22.63 25.55C22.6633 25.5167 22.7033 25.5 22.75 25.5H29.69C29.7367 25.5 29.7767 25.5167 29.81 25.55C29.85 25.59 29.87 25.6333 29.87 25.68V27.13ZM34.28 28.17C34.9267 28.17 35.5067 28.2833 36.02 28.51C36.5267 28.7367 36.9233 29.0433 37.21 29.43C37.49 29.8233 37.63 30.26 37.63 30.74V35.82C37.63 35.8733 37.6133 35.9167 37.58 35.95C37.5467 35.9833 37.5033 36 37.45 36H35.7C35.6467 36 35.6033 35.9833 35.57 35.95C35.5367 35.9167 35.52 35.8733 35.52 35.82V35.33C35.52 35.2967 35.51 35.2767 35.49 35.27C35.47 35.2567 35.45 35.2667 35.43 35.3C35.01 35.8467 34.3333 36.12 33.4 36.12C32.62 36.12 31.9933 35.93 31.52 35.55C31.0333 35.17 30.79 34.61 30.79 33.87C30.79 33.1033 31.0633 32.5067 31.61 32.08C32.1433 31.6533 32.91 31.44 33.91 31.44H35.45C35.4967 31.44 35.52 31.4167 35.52 31.37V31.04C35.52 30.7067 35.42 30.4467 35.22 30.26C35.02 30.08 34.72 29.99 34.32 29.99C34.0133 29.99 33.7567 30.0433 33.55 30.15C33.3433 30.2633 33.21 30.42 33.15 30.62C33.1233 30.7267 33.0567 30.7767 32.95 30.77L31.14 30.53C31.02 30.51 30.9633 30.4633 30.97 30.39C31.0167 29.97 31.1867 29.59 31.48 29.25C31.7733 28.91 32.1633 28.6467 32.65 28.46C33.13 28.2667 33.6733 28.17 34.28 28.17V28.17ZM33.97 34.55C34.4033 34.55 34.77 34.4333 35.07 34.2C35.37 33.9667 35.52 33.67 35.52 33.31V32.77C35.52 32.7233 35.4967 32.7 35.45 32.7H34.37C33.9167 32.7 33.5633 32.7867 33.31 32.96C33.0567 33.1267 32.93 33.3667 32.93 33.68C32.93 33.9467 33.0233 34.1567 33.21 34.31C33.3967 34.47 33.65 34.55 33.97 34.55ZM42.2 36.1C41.5267 36.1 40.94 36.0067 40.44 35.82C39.94 35.6333 39.5533 35.37 39.28 35.03C39 34.69 38.86 34.3033 38.86 33.87V33.72C38.86 33.6733 38.88 33.63 38.92 33.59C38.9533 33.5567 38.9933 33.54 39.04 33.54H40.71C40.7633 33.54 40.8067 33.5567 40.84 33.59C40.8733 33.63 40.89 33.6733 40.89 33.72V33.73C40.89 33.9567 41.0133 34.1467 41.26 34.3C41.5 34.4533 41.8067 34.53 42.18 34.53C42.52 34.53 42.7933 34.4633 43 34.33C43.2133 34.19 43.32 34.0233 43.32 33.83C43.32 33.65 43.23 33.5133 43.05 33.42C42.87 33.3333 42.5733 33.24 42.16 33.14C41.6933 33.02 41.3233 32.9033 41.05 32.79C40.41 32.57 39.9 32.3 39.52 31.98C39.14 31.66 38.95 31.2 38.95 30.6C38.95 29.86 39.24 29.2733 39.82 28.84C40.3933 28.4067 41.1567 28.19 42.11 28.19C42.75 28.19 43.31 28.29 43.79 28.49C44.2633 28.6967 44.6333 28.9867 44.9 29.36C45.1667 29.7267 45.3 30.1467 45.3 30.62C45.3 30.6667 45.2833 30.7067 45.25 30.74C45.2167 30.7733 45.1733 30.79 45.12 30.79H43.52C43.4667 30.79 43.4233 30.7733 43.39 30.74C43.3567 30.7067 43.34 30.6667 43.34 30.62C43.34 30.4 43.2267 30.2133 43 30.06C42.7733 29.9067 42.4767 29.83 42.11 29.83C41.7767 29.83 41.5033 29.8933 41.29 30.02C41.0833 30.14 40.98 30.3033 40.98 30.51C40.98 30.71 41.0833 30.86 41.29 30.96C41.49 31.06 41.8333 31.1667 42.32 31.28C42.4267 31.3067 42.55 31.3367 42.69 31.37C42.83 31.4033 42.98 31.4467 43.14 31.5C43.8533 31.7133 44.4133 31.9833 44.82 32.31C45.2267 32.6433 45.43 33.1233 45.43 33.75C45.43 34.49 45.14 35.0667 44.56 35.48C43.9733 35.8933 43.1867 36.1 42.2 36.1V36.1ZM47.79 27.42C47.45 27.42 47.1667 27.3067 46.94 27.08C46.72 26.86 46.61 26.58 46.61 26.24C46.61 25.8867 46.72 25.6 46.94 25.38C47.16 25.16 47.4433 25.05 47.79 25.05C48.1433 25.05 48.4267 25.16 48.64 25.38C48.8667 25.6 48.98 25.8867 48.98 26.24C48.98 26.58 48.8667 26.86 48.64 27.08C48.4133 27.3067 48.13 27.42 47.79 27.42ZM46.89 36C46.8433 36 46.8 35.9833 46.76 35.95C46.7267 35.9167 46.71 35.8733 46.71 35.82V28.46C46.71 28.4067 46.7267 28.3633 46.76 28.33C46.8 28.2967 46.8433 28.28 46.89 28.28H48.64C48.6933 28.28 48.7367 28.2967 48.77 28.33C48.8033 28.3633 48.82 28.4067 48.82 28.46V35.82C48.82 35.8733 48.8033 35.9167 48.77 35.95C48.7367 35.9833 48.6933 36 48.64 36H46.89ZM57.3 31.35C57.36 31.73 57.38 32.1533 57.36 32.62C57.3533 32.7467 57.29 32.81 57.17 32.81H52.53C52.47 32.81 52.45 32.8333 52.47 32.88C52.5033 33.08 52.56 33.28 52.64 33.48C52.9 34.04 53.4267 34.32 54.22 34.32C54.86 34.3133 55.3667 34.0533 55.74 33.54C55.78 33.48 55.8267 33.45 55.88 33.45C55.9067 33.45 55.94 33.47 55.98 33.51L57.06 34.57C57.1133 34.6233 57.14 34.67 57.14 34.71C57.14 34.73 57.1167 34.77 57.07 34.83C56.7433 35.2433 56.32 35.56 55.8 35.78C55.28 36.0067 54.71 36.12 54.09 36.12C53.23 36.12 52.5033 35.9267 51.91 35.54C51.3167 35.1467 50.8867 34.6 50.62 33.9C50.4133 33.4 50.31 32.7467 50.31 31.94C50.31 31.3867 50.3867 30.9 50.54 30.48C50.7667 29.7733 51.1667 29.21 51.74 28.79C52.32 28.37 53.0033 28.16 53.79 28.16C54.79 28.16 55.5933 28.45 56.2 29.03C56.8067 29.61 57.1733 30.3833 57.3 31.35V31.35ZM53.8 29.99C53.1733 29.99 52.76 30.2833 52.56 30.87C52.52 31.0033 52.4867 31.1633 52.46 31.35C52.46 31.3967 52.4833 31.42 52.53 31.42H55.13C55.1833 31.42 55.2 31.3967 55.18 31.35C55.1333 31.0633 55.11 30.9233 55.11 30.93C55.0167 30.63 54.86 30.3967 54.64 30.23C54.4133 30.07 54.1333 29.99 53.8 29.99V29.99ZM61.64 36.1C60.9667 36.1 60.38 36.0067 59.88 35.82C59.38 35.6333 58.9933 35.37 58.72 35.03C58.4467 34.69 58.31 34.3033 58.31 33.87V33.72C58.31 33.6733 58.3267 33.63 58.36 33.59C58.3933 33.5567 58.4367 33.54 58.49 33.54H60.15C60.2033 33.54 60.2467 33.5567 60.28 33.59C60.3133 33.63 60.33 33.6733 60.33 33.72V33.73C60.33 33.9567 60.4533 34.1467 60.7 34.3C60.9467 34.4533 61.2533 34.53 61.62 34.53C61.96 34.53 62.2367 34.4633 62.45 34.33C62.6567 34.19 62.76 34.0233 62.76 33.83C62.76 33.65 62.67 33.5133 62.49 33.42C62.31 33.3333 62.0167 33.24 61.61 33.14C61.1367 33.02 60.7667 32.9033 60.5 32.79C59.86 32.57 59.35 32.3 58.97 31.98C58.59 31.66 58.4 31.2 58.4 30.6C58.4 29.86 58.6867 29.2733 59.26 28.84C59.8333 28.4067 60.5967 28.19 61.55 28.19C62.19 28.19 62.75 28.29 63.23 28.49C63.71 28.6967 64.08 28.9867 64.34 29.36C64.6067 29.7267 64.74 30.1467 64.74 30.62C64.74 30.6667 64.7233 30.7067 64.69 30.74C64.6567 30.7733 64.6133 30.79 64.56 30.79H62.96C62.9067 30.79 62.8633 30.7733 62.83 30.74C62.7967 30.7067 62.78 30.6667 62.78 30.62C62.78 30.4 62.6667 30.2133 62.44 30.06C62.2133 29.9067 61.9167 29.83 61.55 29.83C61.2167 29.83 60.9467 29.8933 60.74 30.02C60.5267 30.14 60.42 30.3033 60.42 30.51C60.42 30.71 60.5233 30.86 60.73 30.96C60.9367 31.06 61.28 31.1667 61.76 31.28C61.8667 31.3067 61.99 31.3367 62.13 31.37C62.27 31.4033 62.42 31.4467 62.58 31.5C63.2933 31.7133 63.8533 31.9833 64.26 32.31C64.6733 32.6433 64.88 33.1233 64.88 33.75C64.88 34.49 64.5867 35.0667 64 35.48C63.4133 35.8933 62.6267 36.1 61.64 36.1V36.1ZM70.5 29.81C70.5 29.8567 70.4833 29.8967 70.45 29.93C70.4167 29.97 70.3733 29.99 70.32 29.99H68.88C68.8333 29.99 68.81 30.0133 68.81 30.06V33.24C68.81 33.5667 68.8767 33.8133 69.01 33.98C69.1433 34.14 69.36 34.22 69.66 34.22H70.16C70.2067 34.22 70.2467 34.2367 70.28 34.27C70.32 34.3033 70.34 34.3467 70.34 34.4V35.82C70.34 35.9333 70.28 35.9967 70.16 36.01C69.74 36.03 69.44 36.04 69.26 36.04C68.4267 36.04 67.8067 35.9033 67.4 35.63C66.9867 35.3567 66.7767 34.84 66.77 34.08V30.06C66.77 30.0133 66.7433 29.99 66.69 29.99H65.84C65.7867 29.99 65.7433 29.97 65.71 29.93C65.6767 29.8967 65.66 29.8567 65.66 29.81V28.47C65.66 28.4233 65.6767 28.38 65.71 28.34C65.7433 28.3067 65.7867 28.29 65.84 28.29H66.69C66.7433 28.29 66.77 28.2633 66.77 28.21V26.43C66.77 26.3833 66.7867 26.34 66.82 26.3C66.8533 26.2667 66.8967 26.25 66.95 26.25H68.63C68.6767 26.25 68.7167 26.2667 68.75 26.3C68.79 26.34 68.81 26.3833 68.81 26.43V28.21C68.81 28.2633 68.8333 28.29 68.88 28.29H70.32C70.3733 28.29 70.4167 28.3067 70.45 28.34C70.4833 28.38 70.5 28.4233 70.5 28.47V29.81V29.81Z" fill="#252530"/>
<path d="M31.2 66.4C31.1267 66.4 31.08 66.3667 31.06 66.3L29.24 59.53L29.23 59.49C29.23 59.43 29.2667 59.4 29.34 59.4H30.32C30.3933 59.4 30.44 59.4333 30.46 59.5L31.6 64.06C31.6067 64.08 31.6167 64.09 31.63 64.09C31.6433 64.09 31.6533 64.08 31.66 64.06L32.75 59.5C32.77 59.4333 32.8133 59.4 32.88 59.4H33.84C33.9133 59.4 33.96 59.4333 33.98 59.5L35.14 64.07C35.1467 64.09 35.1567 64.1 35.17 64.1C35.1833 64.1 35.1933 64.09 35.2 64.07L36.32 59.5C36.34 59.4333 36.3867 59.4 36.46 59.4H37.39C37.4833 59.4 37.52 59.4433 37.5 59.53L35.77 66.3C35.75 66.3667 35.7033 66.4 35.63 66.4H34.7C34.6267 66.4 34.58 66.3667 34.56 66.3L33.39 61.53C33.3833 61.51 33.3733 61.4967 33.36 61.49C33.3467 61.49 33.3367 61.5033 33.33 61.53L32.21 66.3C32.19 66.3667 32.1467 66.4 32.08 66.4H31.2V66.4ZM38.61 66.4C38.5767 66.4 38.5467 66.3867 38.52 66.36C38.5 66.34 38.49 66.3133 38.49 66.28V59.52C38.49 59.4867 38.5 59.46 38.52 59.44C38.5467 59.4133 38.5767 59.4 38.61 59.4H39.53C39.5633 59.4 39.59 59.4133 39.61 59.44C39.6367 59.46 39.65 59.4867 39.65 59.52V66.28C39.65 66.3133 39.6367 66.34 39.61 66.36C39.59 66.3867 39.5633 66.4 39.53 66.4H38.61ZM45.18 59.52C45.18 59.4867 45.19 59.46 45.21 59.44C45.2367 59.4133 45.2667 59.4 45.3 59.4H46.22C46.2533 59.4 46.28 59.4133 46.3 59.44C46.3267 59.46 46.34 59.4867 46.34 59.52V66.28C46.34 66.3133 46.3267 66.34 46.3 66.36C46.28 66.3867 46.2533 66.4 46.22 66.4H45.33C45.2633 66.4 45.2167 66.3733 45.19 66.32L42.31 61.6C42.2967 61.58 42.2833 61.57 42.27 61.57C42.2567 61.5767 42.25 61.5933 42.25 61.62L42.27 66.28C42.27 66.3133 42.2567 66.34 42.23 66.36C42.21 66.3867 42.1833 66.4 42.15 66.4H41.23C41.1967 66.4 41.1667 66.3867 41.14 66.36C41.12 66.34 41.11 66.3133 41.11 66.28V59.52C41.11 59.4867 41.12 59.46 41.14 59.44C41.1667 59.4133 41.1967 59.4 41.23 59.4H42.12C42.1867 59.4 42.2333 59.4267 42.26 59.48L45.13 64.2C45.1433 64.22 45.1567 64.2267 45.17 64.22C45.1833 64.22 45.19 64.2067 45.19 64.18L45.18 59.52V59.52ZM52.4 59.4C52.4333 59.4 52.46 59.4133 52.48 59.44C52.5067 59.46 52.52 59.4867 52.52 59.52V60.29C52.52 60.3233 52.5067 60.35 52.48 60.37C52.46 60.3967 52.4333 60.41 52.4 60.41H50.56C50.5267 60.41 50.51 60.4267 50.51 60.46V66.28C50.51 66.3133 50.5 66.34 50.48 66.36C50.4533 66.3867 50.4233 66.4 50.39 66.4H49.47C49.4367 66.4 49.41 66.3867 49.39 66.36C49.3633 66.34 49.35 66.3133 49.35 66.28V60.46C49.35 60.4267 49.3333 60.41 49.3 60.41H47.53C47.4967 60.41 47.4667 60.3967 47.44 60.37C47.42 60.35 47.41 60.3233 47.41 60.29V59.52C47.41 59.4867 47.42 59.46 47.44 59.44C47.4667 59.4133 47.4967 59.4 47.53 59.4H52.4V59.4ZM58.33 60.28C58.33 60.3133 58.3167 60.34 58.29 60.36C58.27 60.3867 58.2433 60.4 58.21 60.4H54.8C54.7667 60.4 54.75 60.4167 54.75 60.45V62.32C54.75 62.3533 54.7667 62.37 54.8 62.37H57.09C57.1233 62.37 57.1533 62.38 57.18 62.4C57.2 62.4267 57.21 62.4567 57.21 62.49V63.25C57.21 63.2833 57.2 63.3133 57.18 63.34C57.1533 63.36 57.1233 63.37 57.09 63.37H54.8C54.7667 63.37 54.75 63.3867 54.75 63.42V65.35C54.75 65.3833 54.7667 65.4 54.8 65.4H58.21C58.2433 65.4 58.27 65.4133 58.29 65.44C58.3167 65.46 58.33 65.4867 58.33 65.52V66.28C58.33 66.3133 58.3167 66.34 58.29 66.36C58.27 66.3867 58.2433 66.4 58.21 66.4H53.71C53.6767 66.4 53.6467 66.3867 53.62 66.36C53.6 66.34 53.59 66.3133 53.59 66.28V59.52C53.59 59.4867 53.6 59.46 53.62 59.44C53.6467 59.4133 53.6767 59.4 53.71 59.4H58.21C58.2433 59.4 58.27 59.4133 58.29 59.44C58.3167 59.46 58.33 59.4867 58.33 59.52V60.28V60.28ZM63.44 66.4C63.3733 66.4 63.3267 66.37 63.3 66.31L61.98 63.43C61.9667 63.4033 61.9467 63.39 61.92 63.39H60.72C60.6867 63.39 60.67 63.4067 60.67 63.44V66.28C60.67 66.3133 60.6567 66.34 60.63 66.36C60.61 66.3867 60.5833 66.4 60.55 66.4H59.63C59.5967 66.4 59.5667 66.3867 59.54 66.36C59.52 66.34 59.51 66.3133 59.51 66.28V59.52C59.51 59.4867 59.52 59.46 59.54 59.44C59.5667 59.4133 59.5967 59.4 59.63 59.4H62.38C62.7867 59.4 63.1467 59.4833 63.46 59.65C63.7733 59.8233 64.0167 60.0633 64.19 60.37C64.3633 60.6833 64.45 61.04 64.45 61.44C64.45 61.9 64.33 62.29 64.09 62.61C63.8567 62.9367 63.53 63.1633 63.11 63.29C63.0967 63.29 63.0867 63.2967 63.08 63.31C63.0733 63.3233 63.0733 63.3367 63.08 63.35L64.49 66.26C64.5033 66.2867 64.51 66.3067 64.51 66.32C64.51 66.3733 64.4733 66.4 64.4 66.4H63.44V66.4ZM60.72 60.4C60.6867 60.4 60.67 60.4167 60.67 60.45V62.44C60.67 62.4733 60.6867 62.49 60.72 62.49H62.22C62.54 62.49 62.8 62.3933 63 62.2C63.1933 62.0133 63.29 61.7633 63.29 61.45C63.29 61.1367 63.1933 60.8833 63 60.69C62.8 60.4967 62.54 60.4 62.22 60.4H60.72V60.4Z" fill="#242530"/>
<path d="M34.03 84.46C34.01 84.48 34.0033 84.5 34.01 84.52C34.0233 84.54 34.0433 84.55 34.07 84.55H38C38.0467 84.55 38.0867 84.5667 38.12 84.6C38.16 84.6333 38.18 84.6733 38.18 84.72V86.13C38.18 86.1767 38.16 86.2167 38.12 86.25C38.0867 86.2833 38.0467 86.3 38 86.3H31.48C31.4267 86.3 31.3833 86.2833 31.35 86.25C31.3167 86.2167 31.3 86.1767 31.3 86.13V84.79C31.3 84.7033 31.33 84.63 31.39 84.57C31.8633 84.11 32.3467 83.6067 32.84 83.06C33.3333 82.5133 33.6433 82.1733 33.77 82.04C34.0367 81.72 34.31 81.4133 34.59 81.12C35.47 80.1467 35.91 79.4233 35.91 78.95C35.91 78.61 35.79 78.33 35.55 78.11C35.31 77.8967 34.9967 77.79 34.61 77.79C34.2233 77.79 33.91 77.8967 33.67 78.11C33.4233 78.33 33.3 78.62 33.3 78.98V79.34C33.3 79.3867 33.2833 79.4267 33.25 79.46C33.2167 79.4933 33.1767 79.51 33.13 79.51H31.42C31.3733 79.51 31.3333 79.4933 31.3 79.46C31.26 79.4267 31.24 79.3867 31.24 79.34V78.66C31.2733 78.14 31.44 77.6767 31.74 77.27C32.04 76.87 32.4367 76.5633 32.93 76.35C33.43 76.1367 33.99 76.03 34.61 76.03C35.2967 76.03 35.8933 76.16 36.4 76.42C36.9067 76.6733 37.2967 77.0167 37.57 77.45C37.85 77.89 37.99 78.3733 37.99 78.9C37.99 79.3067 37.8867 79.7233 37.68 80.15C37.48 80.5767 37.1767 81.0367 36.77 81.53C36.47 81.9033 36.1467 82.2767 35.8 82.65C35.4533 83.0167 34.9367 83.5467 34.25 84.24L34.03 84.46V84.46ZM42.89 86.46C41.8233 86.46 40.9833 86.1633 40.37 85.57C39.75 84.9767 39.44 84.1667 39.44 83.14V79.31C39.44 78.3033 39.75 77.5067 40.37 76.92C40.9833 76.3267 41.8233 76.03 42.89 76.03C43.95 76.03 44.7933 76.3267 45.42 76.92C46.04 77.5067 46.35 78.3033 46.35 79.31V83.14C46.35 84.1667 46.04 84.9767 45.42 85.57C44.7933 86.1633 43.95 86.46 42.89 86.46ZM42.89 84.71C43.3233 84.71 43.6667 84.5767 43.92 84.31C44.18 84.0433 44.31 83.6867 44.31 83.24V79.25C44.31 78.81 44.18 78.4567 43.92 78.19C43.6667 77.9233 43.3233 77.79 42.89 77.79C42.4633 77.79 42.1233 77.9233 41.87 78.19C41.61 78.4567 41.48 78.81 41.48 79.25V83.24C41.48 83.6867 41.61 84.0433 41.87 84.31C42.1233 84.5767 42.4633 84.71 42.89 84.71ZM50.41 84.46C50.39 84.48 50.3867 84.5 50.4 84.52C50.4067 84.54 50.4267 84.55 50.46 84.55H54.39C54.4367 84.55 54.4767 84.5667 54.51 84.6C54.5433 84.6333 54.56 84.6733 54.56 84.72V86.13C54.56 86.1767 54.5433 86.2167 54.51 86.25C54.4767 86.2833 54.4367 86.3 54.39 86.3H47.86C47.8133 86.3 47.7733 86.2833 47.74 86.25C47.7067 86.2167 47.69 86.1767 47.69 86.13V84.79C47.69 84.7033 47.7167 84.63 47.77 84.57C48.25 84.11 48.7333 83.6067 49.22 83.06C49.7133 82.5133 50.0233 82.1733 50.15 82.04C50.4233 81.72 50.7 81.4133 50.98 81.12C51.86 80.1467 52.3 79.4233 52.3 78.95C52.3 78.61 52.18 78.33 51.94 78.11C51.6933 77.8967 51.3767 77.79 50.99 77.79C50.6033 77.79 50.29 77.8967 50.05 78.11C49.81 78.33 49.69 78.62 49.69 78.98V79.34C49.69 79.3867 49.6733 79.4267 49.64 79.46C49.6067 79.4933 49.5633 79.51 49.51 79.51H47.8C47.7533 79.51 47.7133 79.4933 47.68 79.46C47.6467 79.4267 47.63 79.3867 47.63 79.34V78.66C47.6567 78.14 47.82 77.6767 48.12 77.27C48.42 76.87 48.82 76.5633 49.32 76.35C49.82 76.1367 50.3767 76.03 50.99 76.03C51.6767 76.03 52.2733 76.16 52.78 76.42C53.2933 76.6733 53.6867 77.0167 53.96 77.45C54.2333 77.89 54.37 78.3733 54.37 78.9C54.37 79.3067 54.27 79.7233 54.07 80.15C53.8633 80.5767 53.5567 81.0367 53.15 81.53C52.85 81.9033 52.5267 82.2767 52.18 82.65C51.8333 83.0167 51.3167 83.5467 50.63 84.24L50.41 84.46V84.46ZM61.87 81.46C62.0633 81.9 62.16 82.41 62.16 82.99C62.16 83.5167 62.0733 84 61.9 84.44C61.6667 85.06 61.2767 85.5433 60.73 85.89C60.1833 86.2433 59.5367 86.42 58.79 86.42C58.0567 86.42 57.4133 86.2367 56.86 85.87C56.3067 85.4967 55.9067 84.9967 55.66 84.37C55.5267 83.9967 55.45 83.59 55.43 83.15C55.43 83.0367 55.4867 82.98 55.6 82.98H57.32C57.4333 82.98 57.49 83.0367 57.49 83.15C57.53 83.47 57.5833 83.7067 57.65 83.86C57.7367 84.1133 57.88 84.31 58.08 84.45C58.2733 84.59 58.5067 84.66 58.78 84.66C59.32 84.66 59.6933 84.4233 59.9 83.95C60.0333 83.6633 60.1 83.3267 60.1 82.94C60.1 82.48 60.0267 82.1067 59.88 81.82C59.66 81.3667 59.29 81.14 58.77 81.14C58.6633 81.14 58.55 81.17 58.43 81.23C58.3167 81.2967 58.1767 81.3867 58.01 81.5C57.97 81.5267 57.9333 81.54 57.9 81.54C57.84 81.54 57.7967 81.5133 57.77 81.46L56.91 80.25C56.89 80.2233 56.88 80.19 56.88 80.15C56.88 80.09 56.9 80.0433 56.94 80.01L59.24 77.99C59.26 77.97 59.27 77.95 59.27 77.93C59.2633 77.91 59.2467 77.9 59.22 77.9H55.81C55.7633 77.9 55.72 77.8833 55.68 77.85C55.6467 77.8167 55.63 77.7767 55.63 77.73V76.32C55.63 76.2733 55.6467 76.2333 55.68 76.2C55.72 76.1667 55.7633 76.15 55.81 76.15H61.85C61.9033 76.15 61.9467 76.1667 61.98 76.2C62.0133 76.2333 62.03 76.2733 62.03 76.32V77.92C62.03 77.9933 61.9967 78.0667 61.93 78.14L60.03 79.88C60.01 79.9 60.0033 79.9167 60.01 79.93C60.01 79.95 60.03 79.96 60.07 79.96C60.91 80.1267 61.51 80.6267 61.87 81.46Z" fill="#252530"/>
</g>
<defs>
<clipPath id="clip0_232_58">
<rect width="94" height="106" fill="white"/>
</clipPath>
</defs>
</svg>
