<svg width="65" height="120" viewBox="0 0 65 120" fill="none" xmlns="http://www.w3.org/2000/svg">
<path d="M0 0H65V119.017L32.5 104.886L0 119.017V0Z" fill="url(#paint0_linear_506_431)"/>
<path d="M40.8851 80.0341C42.3466 82.5608 43.7919 85.0589 45.236 87.5543C38.8411 92.4319 28.8918 93.0214 21.5265 87.4044C13.0506 80.9353 11.6576 69.8972 16.1954 61.9515C21.4146 52.8122 31.1813 50.791 37.4697 52.2731C37.2997 52.6412 33.5334 60.4256 33.5334 60.4256C33.5334 60.4256 33.2356 60.4451 33.0672 60.4483C31.2085 60.5268 29.8241 60.9577 28.3403 61.722C26.7123 62.5683 25.3172 63.799 24.2769 65.3065C23.2366 66.814 22.5827 68.5524 22.3724 70.3697C22.153 72.2128 22.4088 74.0812 23.1157 75.7984C23.7134 77.2502 24.5588 78.5395 25.6921 79.6281C27.4308 81.2996 29.4997 82.3346 31.898 82.6772C34.1691 83.002 36.3532 82.6805 38.3999 81.6558C39.1676 81.272 39.8207 80.8482 40.5841 80.2668C40.6813 80.204 40.7677 80.1245 40.8851 80.0341Z" fill="white"/>
<path d="M40.8996 57.8741C40.5285 57.5104 40.1846 57.1748 39.8423 56.837C39.638 56.6356 39.4414 56.4261 39.2322 56.2297C39.1572 56.1587 39.0692 56.0619 39.0692 56.0619C39.0692 56.0619 39.1404 55.9114 39.1708 55.8497C39.5712 55.0491 40.1988 54.4639 40.9431 53.9984C41.7662 53.4798 42.7252 53.2158 43.6988 53.2401C44.9447 53.2644 46.103 53.5735 47.0805 54.406C47.802 55.0204 48.172 55.7999 48.2372 56.7304C48.3459 58.3001 47.6939 59.5023 46.3991 60.3413C45.6385 60.835 44.8181 61.2166 43.9955 61.6686C43.5418 61.9181 43.1539 62.1374 42.7105 62.5888C42.3204 63.0419 42.3014 63.469 42.3014 63.469L48.1948 63.4614V66.0764H39.098C39.098 66.0764 39.098 65.8978 39.098 65.8236C39.0632 64.5386 39.2137 63.3293 39.8043 62.1623C40.3476 61.0916 41.1919 60.3078 42.2063 59.7042C42.9876 59.2393 43.8102 58.8436 44.5931 58.3808C45.0762 58.0955 45.4174 57.6771 45.4146 57.0703C45.4146 56.5496 45.0343 56.0868 44.491 55.9422C43.2098 55.598 41.9059 56.1474 41.2278 57.3155C41.1289 57.486 41.0279 57.6554 40.8996 57.8741Z" fill="white"/>
<path d="M52.2986 77.2545L47.3321 68.7096H37.5039L32.5054 77.3427H42.4058L47.2914 85.8471L52.2986 77.2545Z" fill="white"/>
<path d="M32.7438 19.8284L34.4534 25.09H39.9857L35.5099 28.3418L37.2195 33.6033L32.7438 30.3515L28.268 33.6033L29.9776 28.3418L25.5019 25.09H31.0342L32.7438 19.8284Z" fill="white"/>
<path d="M46.2468 29.603L47.5635 33.6553H51.8244L48.3772 36.1598L49.6939 40.2122L46.2468 37.7077L42.7996 40.2122L44.1163 36.1598L40.6691 33.6553H44.9301L46.2468 29.603Z" fill="white"/>
<path d="M19.1627 29.603L17.846 33.6553H13.5851L17.0322 36.1598L15.7156 40.2122L19.1627 37.7077L22.6099 40.2122L21.2932 36.1598L24.7403 33.6553H20.4794L19.1627 29.603Z" fill="white"/>
<path d="M57.1014 37.4226L58.1987 40.7996H61.7494L58.8768 42.8867L59.9741 46.2637L57.1014 44.1766L54.2288 46.2637L55.326 42.8867L52.4534 40.7996H56.0042L57.1014 37.4226Z" fill="white"/>
<path d="M8.30806 37.4226L7.21082 40.7996H3.66004L6.53268 42.8867L5.43543 46.2637L8.30806 44.1766L11.1807 46.2637L10.0834 42.8867L12.9561 40.7996H9.40531L8.30806 37.4226Z" fill="white"/>
<defs>
<linearGradient id="paint0_linear_506_431" x1="32.5" y1="0" x2="32.5" y2="119.017" gradientUnits="userSpaceOnUse">
<stop stop-color="#FC492C"/>
<stop offset="0.0572917" stop-color="#FF8A77"/>
<stop offset="0.145833" stop-color="#FC492C"/>
<stop offset="1" stop-color="#FC492C"/>
</linearGradient>
</defs>
</svg>
