<svg width="94" height="104" viewBox="0 0 94 104" fill="none" xmlns="http://www.w3.org/2000/svg">
<g clip-path="url(#clip0_230_23)">
<path d="M8.10001 80.9L47.6 101L85.6 80.9V2.29999H8.10001V80.9Z" fill="white"/>
<path d="M86.4 2.60001L7.3 82.3L48.3 102.6L86.4 83.1V2.60001Z" fill="#F2F3F2"/>
<path d="M5.5 28.5V82.6L6.9 83.3L46.4 103.4L47.6 104L48.8 103.4L86.9 83.3L88.3 82.6V-0.299988H5.5V28.5ZM8.1 81.1V2.30001H85.7V81.1L47.6 101.2L8.1 81.1Z" fill="#DCDEDC"/>
<path d="M46.9 3.60001C47.3 3.60001 47.7 3.60001 48.1 3.70001L46.9 6.00001C45.1 5.90001 43.5 7.30001 43.4 9.10001C43.3 10.9 44.7 12.5 46.5 12.6H46.9C47.7 12.6 48.5 12.3 49.1 11.8L50.4 14C49.4 14.7 48.2 15.1 46.9 15.1C43.7 15.2 41 12.8 40.9 9.60001C40.8 6.40001 43.2 3.70001 46.4 3.60001H46.9V3.60001ZM51 8.50001L52.5 11L51 13.4L49.6 11H46.7L48.2 8.50001H51ZM48.6 7.60001C48.6 7.20001 48.7 6.80001 48.9 6.50001C49.1 6.20001 49.5 5.90001 49.8 5.70001L50 5.60001C50.4 5.40001 50.5 5.30001 50.5 5.10001C50.5 4.90001 50.2 4.70001 50 4.70001C49.6 4.70001 49.3 4.90001 49.1 5.30001L48.6 4.80001C48.7 4.60001 48.9 4.40001 49.1 4.20001C49.4 4.00001 49.7 4.00001 50 4.00001C50.3 4.00001 50.7 4.10001 50.9 4.30001C51.1 4.50001 51.3 4.80001 51.3 5.10001C51.3 5.60001 51 6.00001 50.4 6.20001L50.1 6.40001C49.8 6.60001 49.6 6.70001 49.5 7.00001H51.3V7.70001L48.6 7.60001V7.60001ZM46.9 20.1L56.4 14.7V-0.299988H37.3V14.6L46.9 20.1Z" fill="#FF492C"/>
<path d="M90.2 55.5H3.59999L0.399994 62.5L3.59999 69.5H90.2L93.3 62.5L90.2 55.5Z" fill="#5A39A2"/>
<path d="M20.91 51C20.8433 51 20.7933 50.9667 20.76 50.9L19.39 47.85C19.37 47.8233 19.3467 47.81 19.32 47.81H18.3C18.26 47.81 18.24 47.83 18.24 47.87V50.87C18.24 50.9033 18.2267 50.9333 18.2 50.96C18.18 50.9867 18.15 51 18.11 51H16.82C16.7867 51 16.7567 50.9867 16.73 50.96C16.7033 50.9333 16.69 50.9033 16.69 50.87V43.43C16.69 43.3967 16.7033 43.3667 16.73 43.34C16.7567 43.3133 16.7867 43.3 16.82 43.3H19.97C20.4367 43.3 20.85 43.3967 21.21 43.59C21.5633 43.7767 21.8367 44.0467 22.03 44.4C22.2233 44.7533 22.32 45.16 22.32 45.62C22.32 46.12 22.1967 46.5467 21.95 46.9C21.6967 47.26 21.3467 47.5133 20.9 47.66C20.8667 47.6733 20.8567 47.6967 20.87 47.73L22.37 50.85C22.3833 50.8767 22.39 50.8967 22.39 50.91C22.39 50.97 22.35 51 22.27 51H20.91V51ZM18.3 44.63C18.26 44.63 18.24 44.65 18.24 44.69V46.57C18.24 46.6033 18.26 46.62 18.3 46.62H19.74C20.0467 46.62 20.2967 46.53 20.49 46.35C20.6833 46.1633 20.78 45.9233 20.78 45.63C20.78 45.3367 20.6833 45.0967 20.49 44.91C20.2967 44.7233 20.0467 44.63 19.74 44.63H18.3ZM28.27 47.59C28.3167 47.87 28.3333 48.1833 28.32 48.53C28.3133 48.6167 28.2633 48.66 28.17 48.66H24.78C24.7333 48.66 24.7167 48.6767 24.73 48.71C24.75 48.8567 24.79 49.0033 24.85 49.15C25.0433 49.5633 25.4333 49.77 26.02 49.77C26.4867 49.7633 26.8567 49.5733 27.13 49.2C27.1567 49.1533 27.19 49.13 27.23 49.13C27.25 49.13 27.2767 49.1433 27.31 49.17L28.1 49.96C28.1333 49.9933 28.15 50.0233 28.15 50.05C28.15 50.07 28.1367 50.1 28.11 50.14C27.87 50.44 27.5567 50.6733 27.17 50.84C26.79 51.0067 26.3733 51.09 25.92 51.09C25.2867 51.09 24.7533 50.9467 24.32 50.66C23.88 50.3733 23.5667 49.9733 23.38 49.46C23.2267 49.0933 23.15 48.6133 23.15 48.02C23.15 47.6133 23.2033 47.2567 23.31 46.95C23.4833 46.43 23.78 46.0167 24.2 45.71C24.62 45.4033 25.12 45.25 25.7 45.25C26.4333 45.25 27.0233 45.4633 27.47 45.89C27.91 46.31 28.1767 46.8767 28.27 47.59V47.59ZM25.71 46.59C25.25 46.59 24.9467 46.8067 24.8 47.24C24.7667 47.3333 24.74 47.45 24.72 47.59C24.72 47.63 24.74 47.65 24.78 47.65H26.68C26.72 47.65 26.7333 47.63 26.72 47.59C26.6867 47.3767 26.67 47.2733 26.67 47.28C26.6033 47.06 26.4867 46.89 26.32 46.77C26.1533 46.65 25.95 46.59 25.71 46.59V46.59ZM31.76 51.09C31.1733 51.09 30.6667 50.9433 30.24 50.65C29.8067 50.3567 29.5 49.9533 29.32 49.44C29.1933 49.0733 29.13 48.64 29.13 48.14C29.13 47.6467 29.1933 47.22 29.32 46.86C29.4933 46.3667 29.7967 45.9767 30.23 45.69C30.6633 45.4033 31.1733 45.26 31.76 45.26C32.3467 45.26 32.8633 45.4067 33.31 45.7C33.75 45.9933 34.0433 46.3633 34.19 46.81C34.25 46.9833 34.28 47.1167 34.28 47.21V47.23C34.28 47.2967 34.2433 47.3367 34.17 47.35L32.9 47.54H32.88C32.8133 47.54 32.77 47.5033 32.75 47.43L32.72 47.25C32.6667 47.0567 32.5533 46.9 32.38 46.78C32.2 46.6533 31.99 46.59 31.75 46.59C31.5167 46.59 31.32 46.65 31.16 46.77C30.9933 46.8833 30.8767 47.0433 30.81 47.25C30.73 47.47 30.69 47.77 30.69 48.15C30.69 48.53 30.7267 48.83 30.8 49.05C30.8667 49.27 30.9833 49.4433 31.15 49.57C31.3167 49.6967 31.5167 49.76 31.75 49.76C31.9767 49.76 32.1767 49.7 32.35 49.58C32.5233 49.4533 32.6433 49.2867 32.71 49.08C32.7167 49.06 32.72 49.0367 32.72 49.01C32.7267 49.0033 32.73 48.9933 32.73 48.98C32.7367 48.8867 32.7867 48.85 32.88 48.87L34.15 49.06C34.2233 49.08 34.26 49.1233 34.26 49.19C34.26 49.2433 34.2367 49.3533 34.19 49.52C34.0367 50.0067 33.74 50.39 33.3 50.67C32.8533 50.95 32.34 51.09 31.76 51.09V51.09ZM37.61 51.09C36.9967 51.09 36.47 50.9267 36.03 50.6C35.59 50.28 35.29 49.84 35.13 49.28C35.0233 48.94 34.97 48.5667 34.97 48.16C34.97 47.7267 35.0233 47.34 35.13 47C35.2967 46.4533 35.6 46.0267 36.04 45.72C36.48 45.4133 37.0067 45.26 37.62 45.26C38.2267 45.26 38.74 45.41 39.16 45.71C39.5867 46.0167 39.89 46.4433 40.07 46.99C40.1833 47.3567 40.24 47.74 40.24 48.14C40.24 48.5333 40.19 48.9033 40.09 49.25C39.93 49.8233 39.63 50.2733 39.19 50.6C38.7567 50.9267 38.23 51.09 37.61 51.09V51.09ZM37.61 49.76C37.8567 49.76 38.0633 49.6867 38.23 49.54C38.3967 49.3933 38.5167 49.19 38.59 48.93C38.65 48.6967 38.68 48.44 38.68 48.16C38.68 47.8533 38.65 47.5933 38.59 47.38C38.51 47.1333 38.3867 46.94 38.22 46.8C38.0533 46.66 37.8467 46.59 37.6 46.59C37.3533 46.59 37.1467 46.66 36.98 46.8C36.8133 46.94 36.6933 47.1333 36.62 47.38C36.5667 47.56 36.54 47.82 36.54 48.16C36.54 48.4933 36.5633 48.75 36.61 48.93C36.6833 49.19 36.8067 49.3933 36.98 49.54C37.1533 49.6867 37.3633 49.76 37.61 49.76V49.76ZM47.51 45.26C48.0833 45.26 48.5333 45.4333 48.86 45.78C49.18 46.12 49.34 46.6033 49.34 47.23V50.87C49.34 50.9033 49.3267 50.9333 49.3 50.96C49.2733 50.9867 49.2433 51 49.21 51H47.92C47.88 51 47.85 50.9867 47.83 50.96C47.8033 50.9333 47.79 50.9033 47.79 50.87V47.57C47.79 47.27 47.7133 47.03 47.56 46.85C47.4067 46.6767 47.2 46.59 46.94 46.59C46.6867 46.59 46.4767 46.6767 46.31 46.85C46.15 47.03 46.07 47.2667 46.07 47.56V50.87C46.07 50.9033 46.0567 50.9333 46.03 50.96C46.01 50.9867 45.98 51 45.94 51H44.66C44.6267 51 44.5967 50.9867 44.57 50.96C44.5433 50.9333 44.53 50.9033 44.53 50.87V47.57C44.53 47.2767 44.45 47.04 44.29 46.86C44.13 46.68 43.92 46.59 43.66 46.59C43.4267 46.59 43.23 46.66 43.07 46.8C42.9167 46.94 42.8233 47.1333 42.79 47.38V50.87C42.79 50.9033 42.78 50.9333 42.76 50.96C42.7333 50.9867 42.7 51 42.66 51H41.38C41.34 51 41.3067 50.9867 41.28 50.96C41.2533 50.9333 41.24 50.9033 41.24 50.87V45.48C41.24 45.44 41.2533 45.4067 41.28 45.38C41.3067 45.36 41.34 45.35 41.38 45.35H42.66C42.7 45.35 42.7333 45.36 42.76 45.38C42.78 45.4067 42.79 45.44 42.79 45.48V45.91C42.79 45.93 42.8 45.9433 42.82 45.95C42.8333 45.9567 42.8467 45.95 42.86 45.93C43.16 45.4833 43.6267 45.26 44.26 45.26C44.6267 45.26 44.9467 45.3367 45.22 45.49C45.4933 45.6433 45.7033 45.8633 45.85 46.15C45.87 46.19 45.8967 46.19 45.93 46.15C46.09 45.85 46.3067 45.6267 46.58 45.48C46.86 45.3333 47.17 45.26 47.51 45.26V45.26ZM56.7 45.26C57.2733 45.26 57.72 45.4333 58.04 45.78C58.36 46.12 58.52 46.6033 58.52 47.23V50.87C58.52 50.9033 58.51 50.9333 58.49 50.96C58.4633 50.9867 58.43 51 58.39 51H57.11C57.07 51 57.0367 50.9867 57.01 50.96C56.9833 50.9333 56.97 50.9033 56.97 50.87V47.57C56.97 47.27 56.8933 47.03 56.74 46.85C56.5867 46.6767 56.3833 46.59 56.13 46.59C55.87 46.59 55.66 46.6767 55.5 46.85C55.34 47.03 55.26 47.2667 55.26 47.56V50.87C55.26 50.9033 55.2467 50.9333 55.22 50.96C55.1933 50.9867 55.16 51 55.12 51H53.85C53.81 51 53.78 50.9867 53.76 50.96C53.7333 50.9333 53.72 50.9033 53.72 50.87V47.57C53.72 47.2767 53.6367 47.04 53.47 46.86C53.31 46.68 53.1033 46.59 52.85 46.59C52.6167 46.59 52.42 46.66 52.26 46.8C52.1 46.94 52.0067 47.1333 51.98 47.38V50.87C51.98 50.9033 51.9667 50.9333 51.94 50.96C51.9133 50.9867 51.8833 51 51.85 51H50.56C50.52 51 50.49 50.9867 50.47 50.96C50.4433 50.9333 50.43 50.9033 50.43 50.87V45.48C50.43 45.44 50.4433 45.4067 50.47 45.38C50.49 45.36 50.52 45.35 50.56 45.35H51.85C51.8833 45.35 51.9133 45.36 51.94 45.38C51.9667 45.4067 51.98 45.44 51.98 45.48V45.91C51.98 45.93 51.9867 45.9433 52 45.95C52.0133 45.9567 52.0267 45.95 52.04 45.93C52.3467 45.4833 52.8133 45.26 53.44 45.26C53.8067 45.26 54.1267 45.3367 54.4 45.49C54.68 45.6433 54.8933 45.8633 55.04 46.15C55.06 46.19 55.0833 46.19 55.11 46.15C55.2767 45.85 55.4967 45.6267 55.77 45.48C56.0433 45.3333 56.3533 45.26 56.7 45.26V45.26ZM64.58 47.59C64.6267 47.87 64.6433 48.1833 64.63 48.53C64.6233 48.6167 64.5767 48.66 64.49 48.66H61.09C61.0433 48.66 61.0267 48.6767 61.04 48.71C61.0667 48.8567 61.1067 49.0033 61.16 49.15C61.3533 49.5633 61.7433 49.77 62.33 49.77C62.7967 49.7633 63.1667 49.5733 63.44 49.2C63.4667 49.1533 63.5 49.13 63.54 49.13C63.56 49.13 63.5867 49.1433 63.62 49.17L64.41 49.96C64.4433 49.9933 64.46 50.0233 64.46 50.05C64.46 50.07 64.4467 50.1 64.42 50.14C64.18 50.44 63.8667 50.6733 63.48 50.84C63.1 51.0067 62.6833 51.09 62.23 51.09C61.6033 51.09 61.07 50.9467 60.63 50.66C60.1967 50.3733 59.8833 49.9733 59.69 49.46C59.5367 49.0933 59.46 48.6133 59.46 48.02C59.46 47.6133 59.5133 47.2567 59.62 46.95C59.7933 46.43 60.09 46.0167 60.51 45.71C60.93 45.4033 61.43 45.25 62.01 45.25C62.7433 45.25 63.3333 45.4633 63.78 45.89C64.22 46.31 64.4867 46.8767 64.58 47.59ZM62.02 46.59C61.56 46.59 61.2567 46.8067 61.11 47.24C61.0833 47.3333 61.0567 47.45 61.03 47.59C61.03 47.63 61.05 47.65 61.09 47.65H62.99C63.0367 47.65 63.05 47.63 63.03 47.59C62.9967 47.3767 62.98 47.2733 62.98 47.28C62.9133 47.06 62.7967 46.89 62.63 46.77C62.47 46.65 62.2667 46.59 62.02 46.59V46.59ZM68.53 45.26C69.1167 45.26 69.59 45.44 69.95 45.8C70.31 46.16 70.49 46.6467 70.49 47.26V50.87C70.49 50.9033 70.4767 50.9333 70.45 50.96C70.4233 50.9867 70.3933 51 70.36 51H69.07C69.0367 51 69.0067 50.9867 68.98 50.96C68.9533 50.9333 68.94 50.9033 68.94 50.87V47.58C68.94 47.2867 68.8567 47.0467 68.69 46.86C68.53 46.68 68.3133 46.59 68.04 46.59C67.7667 46.59 67.5467 46.68 67.38 46.86C67.22 47.0467 67.14 47.2867 67.14 47.58V50.87C67.14 50.9033 67.1267 50.9333 67.1 50.96C67.0733 50.9867 67.04 51 67 51H65.72C65.68 51 65.6467 50.9867 65.62 50.96C65.6 50.9333 65.59 50.9033 65.59 50.87V45.48C65.59 45.44 65.6 45.4067 65.62 45.38C65.6467 45.36 65.68 45.35 65.72 45.35H67C67.04 45.35 67.0733 45.36 67.1 45.38C67.1267 45.4067 67.14 45.44 67.14 45.48V45.86C67.14 45.8867 67.1467 45.9033 67.16 45.91C67.1733 45.9167 67.1833 45.9133 67.19 45.9C67.49 45.4733 67.9367 45.26 68.53 45.26ZM75.08 43.43C75.08 43.3967 75.0933 43.3667 75.12 43.34C75.1467 43.3133 75.1767 43.3 75.21 43.3H76.5C76.5333 43.3 76.5633 43.3133 76.59 43.34C76.6167 43.3667 76.63 43.3967 76.63 43.43V50.87C76.63 50.9033 76.6167 50.9333 76.59 50.96C76.5633 50.9867 76.5333 51 76.5 51H75.21C75.1767 51 75.1467 50.9867 75.12 50.96C75.0933 50.9333 75.08 50.9033 75.08 50.87V50.51C75.08 50.4833 75.0733 50.47 75.06 50.47C75.04 50.4633 75.0233 50.4667 75.01 50.48C74.7033 50.8867 74.2833 51.09 73.75 51.09C73.2367 51.09 72.7933 50.9467 72.42 50.66C72.0533 50.3733 71.7867 49.98 71.62 49.48C71.5 49.1 71.44 48.6567 71.44 48.15C71.44 47.63 71.5067 47.1767 71.64 46.79C71.8067 46.3167 72.07 45.9433 72.43 45.67C72.7967 45.3967 73.2467 45.26 73.78 45.26C74.3067 45.26 74.7167 45.4433 75.01 45.81C75.0233 45.83 75.04 45.8367 75.06 45.83C75.0733 45.8233 75.08 45.81 75.08 45.79V43.43V43.43ZM74.85 49.28C74.9967 49.0133 75.07 48.6433 75.07 48.17C75.07 47.6833 74.99 47.3 74.83 47.02C74.6567 46.7333 74.41 46.59 74.09 46.59C73.7433 46.59 73.4833 46.7333 73.31 47.02C73.1233 47.3067 73.03 47.6933 73.03 48.18C73.03 48.62 73.1067 48.9867 73.26 49.28C73.4467 49.6 73.72 49.76 74.08 49.76C74.4067 49.76 74.6633 49.6 74.85 49.28ZM26.08 40C26.0467 40 26.0167 39.9867 25.99 39.96C25.9633 39.9333 25.95 39.9033 25.95 39.87V32.43C25.95 32.3967 25.9633 32.3667 25.99 32.34C26.0167 32.3133 26.0467 32.3 26.08 32.3H27.37C27.41 32.3 27.44 32.3133 27.46 32.34C27.4867 32.3667 27.5 32.3967 27.5 32.43V38.61C27.5 38.65 27.52 38.67 27.56 38.67H31.15C31.19 38.67 31.2233 38.6833 31.25 38.71C31.2767 38.7367 31.29 38.7667 31.29 38.8V39.87C31.29 39.9033 31.2767 39.9333 31.25 39.96C31.2233 39.9867 31.19 40 31.15 40H26.08V40ZM32.98 33.71C32.7333 33.71 32.5267 33.6267 32.36 33.46C32.1933 33.2933 32.11 33.0867 32.11 32.84C32.11 32.58 32.19 32.37 32.35 32.21C32.51 32.05 32.72 31.97 32.98 31.97C33.2333 31.97 33.4433 32.05 33.61 32.21C33.77 32.37 33.85 32.58 33.85 32.84C33.85 33.0867 33.7667 33.2933 33.6 33.46C33.4333 33.6267 33.2267 33.71 32.98 33.71V33.71ZM32.32 40C32.28 40 32.25 39.9867 32.23 39.96C32.2033 39.9333 32.19 39.9033 32.19 39.87V34.47C32.19 34.43 32.2033 34.3967 32.23 34.37C32.25 34.3433 32.28 34.33 32.32 34.33H33.61C33.6433 34.33 33.6733 34.3433 33.7 34.37C33.7267 34.3967 33.74 34.43 33.74 34.47V39.87C33.74 39.9033 33.7267 39.9333 33.7 39.96C33.6733 39.9867 33.6433 40 33.61 40H32.32ZM35.08 40C35.0467 40 35.0167 39.9867 34.99 39.96C34.9633 39.9333 34.95 39.9033 34.95 39.87V32.43C34.95 32.3967 34.9633 32.3667 34.99 32.34C35.0167 32.3133 35.0467 32.3 35.08 32.3H36.37C36.4033 32.3 36.4333 32.3133 36.46 32.34C36.4867 32.3667 36.5 32.3967 36.5 32.43V36.14C36.5 36.16 36.5067 36.1733 36.52 36.18C36.5333 36.18 36.55 36.1733 36.57 36.16L38.06 34.42C38.1133 34.3733 38.17 34.35 38.23 34.35H39.69C39.7633 34.35 39.8 34.3733 39.8 34.42C39.8 34.4467 39.79 34.4767 39.77 34.51L38.37 36.28C38.3567 36.3133 38.3533 36.34 38.36 36.36L40 39.85C40.0133 39.8767 40.02 39.8967 40.02 39.91C40.02 39.97 39.98 40 39.9 40H38.55C38.4767 40 38.4233 39.9667 38.39 39.9L37.3 37.33C37.2933 37.3167 37.28 37.3067 37.26 37.3C37.2467 37.2933 37.2367 37.3 37.23 37.32L36.52 38.2C36.5067 38.2267 36.5 38.2467 36.5 38.26V39.87C36.5 39.9033 36.4867 39.9333 36.46 39.96C36.4333 39.9867 36.4033 40 36.37 40H35.08V40ZM45.31 36.59C45.3567 36.87 45.37 37.1833 45.35 37.53C45.3433 37.6167 45.2967 37.66 45.21 37.66H41.81C41.77 37.66 41.7567 37.6767 41.77 37.71C41.79 37.8567 41.83 38.0033 41.89 38.15C42.0833 38.5633 42.4733 38.77 43.06 38.77C43.5267 38.7633 43.8967 38.5733 44.17 38.2C44.1967 38.1533 44.23 38.13 44.27 38.13C44.29 38.13 44.3133 38.1433 44.34 38.17L45.13 38.96C45.17 38.9933 45.19 39.0233 45.19 39.05C45.19 39.07 45.1767 39.1 45.15 39.14C44.9033 39.44 44.59 39.6733 44.21 39.84C43.83 40.0067 43.4133 40.09 42.96 40.09C42.3267 40.09 41.7933 39.9467 41.36 39.66C40.92 39.3733 40.6067 38.9733 40.42 38.46C40.26 38.0933 40.18 37.6133 40.18 37.02C40.18 36.6133 40.2367 36.2567 40.35 35.95C40.5167 35.43 40.8133 35.0167 41.24 34.71C41.66 34.4033 42.16 34.25 42.74 34.25C43.4733 34.25 44.06 34.4633 44.5 34.89C44.9467 35.31 45.2167 35.8767 45.31 36.59V36.59ZM42.75 35.59C42.2833 35.59 41.9767 35.8067 41.83 36.24C41.8033 36.3333 41.78 36.45 41.76 36.59C41.76 36.63 41.7767 36.65 41.81 36.65H43.72C43.76 36.65 43.7733 36.63 43.76 36.59C43.72 36.3767 43.7 36.2733 43.7 36.28C43.64 36.06 43.5267 35.89 43.36 35.77C43.1933 35.65 42.99 35.59 42.75 35.59V35.59ZM46.44 40C46.4067 40 46.3767 39.9867 46.35 39.96C46.3233 39.9333 46.31 39.9033 46.31 39.87V32.43C46.31 32.3967 46.3233 32.3667 46.35 32.34C46.3767 32.3133 46.4067 32.3 46.44 32.3H47.73C47.77 32.3 47.8 32.3133 47.82 32.34C47.8467 32.3667 47.86 32.3967 47.86 32.43V39.87C47.86 39.9033 47.8467 39.9333 47.82 39.96C47.8 39.9867 47.77 40 47.73 40H46.44ZM48.96 42.19C48.94 42.19 48.9233 42.1767 48.91 42.15C48.8967 42.1233 48.89 42.0933 48.89 42.06V41.04C48.89 41.0067 48.9 40.9767 48.92 40.95C48.9467 40.9233 48.98 40.91 49.02 40.91C49.3267 40.9033 49.57 40.88 49.75 40.84C49.93 40.7933 50.0733 40.7067 50.18 40.58C50.2867 40.46 50.37 40.2767 50.43 40.03C50.4367 40.0167 50.4367 39.9967 50.43 39.97L48.62 34.49C48.6133 34.4767 48.61 34.4567 48.61 34.43C48.61 34.3633 48.65 34.33 48.73 34.33H50.11C50.19 34.33 50.24 34.37 50.26 34.45L51.18 38.01C51.1933 38.03 51.2067 38.04 51.22 38.04C51.2333 38.04 51.2433 38.03 51.25 38.01L52.17 34.45C52.1967 34.37 52.25 34.33 52.33 34.33H53.67C53.7167 34.33 53.7467 34.3433 53.76 34.37C53.78 34.3967 53.7833 34.4367 53.77 34.49L51.87 40.21C51.6833 40.7433 51.4967 41.1433 51.31 41.41C51.1167 41.6767 50.8467 41.8733 50.5 42C50.16 42.1267 49.6733 42.19 49.04 42.19H48.96V42.19ZM62.15 32.3C62.19 32.3 62.2233 32.3133 62.25 32.34C62.27 32.3667 62.28 32.3967 62.28 32.43V33.51C62.28 33.55 62.27 33.58 62.25 33.6C62.2233 33.6267 62.19 33.64 62.15 33.64H60.18C60.1467 33.64 60.13 33.66 60.13 33.7V39.87C60.13 39.9033 60.1167 39.9333 60.09 39.96C60.0633 39.9867 60.0333 40 60 40H58.71C58.67 40 58.64 39.9867 58.62 39.96C58.5933 39.9333 58.58 39.9033 58.58 39.87V33.7C58.58 33.66 58.56 33.64 58.52 33.64H56.61C56.57 33.64 56.5367 33.6267 56.51 33.6C56.49 33.58 56.48 33.55 56.48 33.51V32.43C56.48 32.3967 56.49 32.3667 56.51 32.34C56.5367 32.3133 56.57 32.3 56.61 32.3H62.15ZM64.75 40.09C64.13 40.09 63.6 39.9267 63.16 39.6C62.72 39.28 62.42 38.84 62.26 38.28C62.16 37.94 62.11 37.5667 62.11 37.16C62.11 36.7267 62.16 36.34 62.26 36C62.4267 35.4533 62.7333 35.0267 63.18 34.72C63.6133 34.4133 64.14 34.26 64.76 34.26C65.36 34.26 65.8733 34.41 66.3 34.71C66.7267 35.0167 67.0267 35.4433 67.2 35.99C67.32 36.3567 67.38 36.74 67.38 37.14C67.38 37.5333 67.3267 37.9033 67.22 38.25C67.06 38.8233 66.7633 39.2733 66.33 39.6C65.89 39.9267 65.3633 40.09 64.75 40.09V40.09ZM64.75 38.76C64.99 38.76 65.1933 38.6867 65.36 38.54C65.5333 38.3933 65.6567 38.19 65.73 37.93C65.79 37.6967 65.82 37.44 65.82 37.16C65.82 36.8533 65.79 36.5933 65.73 36.38C65.65 36.1333 65.5233 35.94 65.35 35.8C65.1833 35.66 64.98 35.59 64.74 35.59C64.4867 35.59 64.28 35.66 64.12 35.8C63.9533 35.94 63.8333 36.1333 63.76 36.38C63.7 36.56 63.67 36.82 63.67 37.16C63.67 37.4933 63.6967 37.75 63.75 37.93C63.8233 38.19 63.9467 38.3933 64.12 38.54C64.2867 38.6867 64.4967 38.76 64.75 38.76ZM23.04 29.09C22.48 29.09 21.9833 28.98 21.55 28.76C21.1233 28.54 20.79 28.23 20.55 27.83C20.3167 27.43 20.2 26.97 20.2 26.45V21.43C20.2 21.3967 20.21 21.3667 20.23 21.34C20.2567 21.3133 20.29 21.3 20.33 21.3H21.61C21.65 21.3 21.6833 21.3133 21.71 21.34C21.7367 21.3667 21.75 21.3967 21.75 21.43V26.46C21.75 26.8467 21.8667 27.16 22.1 27.4C22.34 27.64 22.6533 27.76 23.04 27.76C23.4333 27.76 23.75 27.64 23.99 27.4C24.2233 27.16 24.34 26.8467 24.34 26.46V21.43C24.34 21.3967 24.3533 21.3667 24.38 21.34C24.4067 21.3133 24.4367 21.3 24.47 21.3H25.76C25.8 21.3 25.8333 21.3133 25.86 21.34C25.88 21.3667 25.89 21.3967 25.89 21.43V26.45C25.89 26.97 25.7733 27.43 25.54 27.83C25.3 28.23 24.9667 28.54 24.54 28.76C24.1067 28.98 23.6067 29.09 23.04 29.09V29.09ZM29.33 29.08C28.8367 29.08 28.4067 29.01 28.04 28.87C27.6733 28.73 27.39 28.5367 27.19 28.29C26.9833 28.0367 26.88 27.7533 26.88 27.44V27.33C26.88 27.29 26.8933 27.2567 26.92 27.23C26.9467 27.21 26.98 27.2 27.02 27.2H28.24C28.2733 27.2 28.3033 27.21 28.33 27.23C28.3567 27.2567 28.37 27.29 28.37 27.33V27.34C28.37 27.5 28.46 27.6367 28.64 27.75C28.82 27.8633 29.0433 27.92 29.31 27.92C29.5633 27.92 29.7667 27.87 29.92 27.77C30.0733 27.67 30.15 27.55 30.15 27.41C30.15 27.2767 30.0833 27.1767 29.95 27.11C29.8167 27.0433 29.6 26.9733 29.3 26.9C28.96 26.8133 28.69 26.73 28.49 26.65C28.0233 26.4833 27.65 26.2833 27.37 26.05C27.09 25.8167 26.95 25.48 26.95 25.04C26.95 24.5 27.16 24.07 27.58 23.75C28 23.43 28.56 23.27 29.26 23.27C29.7267 23.27 30.1367 23.3433 30.49 23.49C30.8433 23.6433 31.1167 23.8567 31.31 24.13C31.5033 24.3967 31.6 24.7033 31.6 25.05C31.6 25.09 31.5867 25.12 31.56 25.14C31.54 25.1667 31.51 25.18 31.47 25.18H30.29C30.2567 25.18 30.2267 25.1667 30.2 25.14C30.1733 25.12 30.16 25.09 30.16 25.05C30.16 24.89 30.0767 24.7533 29.91 24.64C29.75 24.5333 29.5333 24.48 29.26 24.48C29.02 24.48 28.8233 24.5233 28.67 24.61C28.5167 24.6967 28.44 24.8167 28.44 24.97C28.44 25.1167 28.5133 25.2267 28.66 25.3C28.8133 25.3733 29.0633 25.4533 29.41 25.54C29.4967 25.56 29.59 25.5833 29.69 25.61L30.02 25.7C30.54 25.8533 30.95 26.05 31.25 26.29C31.55 26.5367 31.7 26.89 31.7 27.35C31.7 27.89 31.4867 28.3133 31.06 28.62C30.6267 28.9267 30.05 29.08 29.33 29.08V29.08ZM37.6 25.59C37.64 25.87 37.6533 26.1833 37.64 26.53C37.6333 26.6167 37.5867 26.66 37.5 26.66H34.1C34.0533 26.66 34.04 26.6767 34.06 26.71C34.08 26.8567 34.12 27.0033 34.18 27.15C34.3667 27.5633 34.7533 27.77 35.34 27.77C35.8133 27.7633 36.1833 27.5733 36.45 27.2C36.4833 27.1533 36.5167 27.13 36.55 27.13C36.5767 27.13 36.6033 27.1433 36.63 27.17L37.42 27.96C37.46 27.9933 37.48 28.0233 37.48 28.05C37.48 28.07 37.4633 28.1 37.43 28.14C37.19 28.44 36.88 28.6733 36.5 28.84C36.12 29.0067 35.7 29.09 35.24 29.09C34.6133 29.09 34.08 28.9467 33.64 28.66C33.2067 28.3733 32.8933 27.9733 32.7 27.46C32.5467 27.0933 32.47 26.6133 32.47 26.02C32.47 25.6133 32.5267 25.2567 32.64 24.95C32.8067 24.43 33.1 24.0167 33.52 23.71C33.94 23.4033 34.44 23.25 35.02 23.25C35.7533 23.25 36.3433 23.4633 36.79 23.89C37.2367 24.31 37.5067 24.8767 37.6 25.59V25.59ZM35.03 24.59C34.57 24.59 34.2667 24.8067 34.12 25.24C34.0933 25.3333 34.0667 25.45 34.04 25.59C34.04 25.63 34.06 25.65 34.1 25.65H36C36.0467 25.65 36.0633 25.63 36.05 25.59C36.01 25.3767 35.99 25.2733 35.99 25.28C35.9233 25.06 35.81 24.89 35.65 24.77C35.4833 24.65 35.2767 24.59 35.03 24.59ZM41.42 23.27C41.68 23.27 41.8867 23.32 42.04 23.42C42.1 23.4533 42.1233 23.51 42.11 23.59L41.88 24.84C41.8733 24.9267 41.82 24.9533 41.72 24.92C41.6133 24.88 41.4867 24.86 41.34 24.86C41.28 24.86 41.2 24.87 41.1 24.89C40.8333 24.91 40.6067 25.0067 40.42 25.18C40.24 25.3533 40.15 25.5833 40.15 25.87V28.87C40.15 28.9033 40.1367 28.9333 40.11 28.96C40.0833 28.9867 40.0533 29 40.02 29H38.73C38.6967 29 38.6667 28.9867 38.64 28.96C38.6133 28.9333 38.6 28.9033 38.6 28.87V23.48C38.6 23.44 38.6133 23.4067 38.64 23.38C38.6667 23.36 38.6967 23.35 38.73 23.35H40.02C40.0533 23.35 40.0833 23.36 40.11 23.38C40.1367 23.4067 40.15 23.44 40.15 23.48V23.9C40.15 23.92 40.1567 23.9333 40.17 23.94C40.1833 23.9467 40.1967 23.9433 40.21 23.93C40.51 23.49 40.9133 23.27 41.42 23.27ZM44.98 29.08C44.4867 29.08 44.0567 29.01 43.69 28.87C43.3233 28.73 43.04 28.5367 42.84 28.29C42.64 28.0367 42.54 27.7533 42.54 27.44V27.33C42.54 27.29 42.5533 27.2567 42.58 27.23C42.6 27.21 42.63 27.2 42.67 27.2H43.89C43.9233 27.2 43.9533 27.21 43.98 27.23C44.0067 27.2567 44.02 27.29 44.02 27.33V27.34C44.02 27.5 44.11 27.6367 44.29 27.75C44.47 27.8633 44.6967 27.92 44.97 27.92C45.2167 27.92 45.4167 27.87 45.57 27.77C45.7233 27.67 45.8 27.55 45.8 27.41C45.8 27.2767 45.7367 27.1767 45.61 27.11C45.4767 27.0433 45.26 26.9733 44.96 26.9C44.6133 26.8133 44.34 26.73 44.14 26.65C43.6733 26.4833 43.3 26.2833 43.02 26.05C42.74 25.8167 42.6 25.48 42.6 25.04C42.6 24.5 42.8133 24.07 43.24 23.75C43.66 23.43 44.2167 23.27 44.91 23.27C45.3833 23.27 45.7933 23.3433 46.14 23.49C46.4933 23.6433 46.7667 23.8567 46.96 24.13C47.16 24.3967 47.26 24.7033 47.26 25.05C47.26 25.09 47.2467 25.12 47.22 25.14C47.1933 25.1667 47.16 25.18 47.12 25.18H45.95C45.91 25.18 45.8767 25.1667 45.85 25.14C45.8233 25.12 45.81 25.09 45.81 25.05C45.81 24.89 45.73 24.7533 45.57 24.64C45.4033 24.5333 45.1833 24.48 44.91 24.48C44.67 24.48 44.4733 24.5233 44.32 24.61C44.1667 24.6967 44.09 24.8167 44.09 24.97C44.09 25.1167 44.1633 25.2267 44.31 25.3C44.4633 25.3733 44.7167 25.4533 45.07 25.54C45.15 25.56 45.24 25.5833 45.34 25.61C45.4467 25.6367 45.5567 25.6667 45.67 25.7C46.19 25.8533 46.6 26.05 46.9 26.29C47.2 26.5367 47.35 26.89 47.35 27.35C47.35 27.89 47.1367 28.3133 46.71 28.62C46.2833 28.9267 45.7067 29.08 44.98 29.08V29.08ZM55.49 21.39C55.53 21.33 55.5833 21.3 55.65 21.3H56.94C56.9733 21.3 57.0033 21.3133 57.03 21.34C57.0567 21.3667 57.07 21.3967 57.07 21.43V28.87C57.07 28.9033 57.0567 28.9333 57.03 28.96C57.0033 28.9867 56.9733 29 56.94 29H55.65C55.61 29 55.58 28.9867 55.56 28.96C55.5333 28.9333 55.52 28.9033 55.52 28.87V24.02C55.52 23.9867 55.51 23.97 55.49 23.97C55.4767 23.97 55.4633 23.9833 55.45 24.01L54.28 25.83C54.2467 25.89 54.1967 25.92 54.13 25.92H53.48C53.4133 25.92 53.3633 25.89 53.33 25.83L52.16 24.01C52.1467 23.9833 52.1333 23.9733 52.12 23.98C52.1067 23.98 52.1 23.9967 52.1 24.03V28.87C52.1 28.9033 52.0867 28.9333 52.06 28.96C52.0333 28.9867 52 29 51.96 29H50.68C50.64 29 50.6067 28.9867 50.58 28.96C50.5533 28.9333 50.54 28.9033 50.54 28.87V21.43C50.54 21.3967 50.5533 21.3667 50.58 21.34C50.6067 21.3133 50.64 21.3 50.68 21.3H51.96C52.0267 21.3 52.08 21.33 52.12 21.39L53.77 23.95C53.79 23.9967 53.81 23.9967 53.83 23.95L55.49 21.39V21.39ZM60.81 29.09C60.19 29.09 59.66 28.9267 59.22 28.6C58.78 28.28 58.48 27.84 58.32 27.28C58.22 26.94 58.17 26.5667 58.17 26.16C58.17 25.7267 58.22 25.34 58.32 25C58.4867 24.4533 58.7933 24.0267 59.24 23.72C59.6733 23.4133 60.2 23.26 60.82 23.26C61.42 23.26 61.9333 23.41 62.36 23.71C62.7867 24.0167 63.0867 24.4433 63.26 24.99C63.38 25.3567 63.44 25.74 63.44 26.14C63.44 26.5333 63.3867 26.9033 63.28 27.25C63.12 27.8233 62.8233 28.2733 62.39 28.6C61.95 28.9267 61.4233 29.09 60.81 29.09V29.09ZM60.81 27.76C61.05 27.76 61.2533 27.6867 61.42 27.54C61.5933 27.3933 61.7167 27.19 61.79 26.93C61.85 26.6967 61.88 26.44 61.88 26.16C61.88 25.8533 61.85 25.5933 61.79 25.38C61.71 25.1333 61.5833 24.94 61.41 24.8C61.2433 24.66 61.04 24.59 60.8 24.59C60.5467 24.59 60.34 24.66 60.18 24.8C60.0133 24.94 59.8933 25.1333 59.82 25.38C59.76 25.56 59.73 25.82 59.73 26.16C59.73 26.4933 59.7567 26.75 59.81 26.93C59.8833 27.19 60.0067 27.3933 60.18 27.54C60.3467 27.6867 60.5567 27.76 60.81 27.76V27.76ZM66.69 29.08C66.2033 29.08 65.7767 29.01 65.41 28.87C65.0433 28.73 64.7567 28.5367 64.55 28.29C64.35 28.0367 64.25 27.7533 64.25 27.44V27.33C64.25 27.29 64.2633 27.2567 64.29 27.23C64.3167 27.21 64.3467 27.2 64.38 27.2H65.6C65.64 27.2 65.6733 27.21 65.7 27.23C65.7267 27.2567 65.74 27.29 65.74 27.33V27.34C65.74 27.5 65.83 27.6367 66.01 27.75C66.19 27.8633 66.4133 27.92 66.68 27.92C66.9333 27.92 67.1367 27.87 67.29 27.77C67.4433 27.67 67.52 27.55 67.52 27.41C67.52 27.2767 67.4533 27.1767 67.32 27.11C67.1867 27.0433 66.97 26.9733 66.67 26.9C66.3233 26.8133 66.0533 26.73 65.86 26.65C65.3867 26.4833 65.0133 26.2833 64.74 26.05C64.46 25.8167 64.32 25.48 64.32 25.04C64.32 24.5 64.53 24.07 64.95 23.75C65.37 23.43 65.93 23.27 66.63 23.27C67.0967 23.27 67.5067 23.3433 67.86 23.49C68.2133 23.6433 68.4867 23.8567 68.68 24.13C68.8733 24.3967 68.97 24.7033 68.97 25.05C68.97 25.09 68.9567 25.12 68.93 25.14C68.9033 25.1667 68.8733 25.18 68.84 25.18H67.66C67.6267 25.18 67.5967 25.1667 67.57 25.14C67.5433 25.12 67.53 25.09 67.53 25.05C67.53 24.89 67.4467 24.7533 67.28 24.64C67.1133 24.5333 66.8967 24.48 66.63 24.48C66.3833 24.48 66.1833 24.5233 66.03 24.61C65.8767 24.6967 65.8 24.8167 65.8 24.97C65.8 25.1167 65.8767 25.2267 66.03 25.3C66.1767 25.3733 66.4267 25.4533 66.78 25.54L67.06 25.61L67.39 25.7C67.91 25.8533 68.32 26.05 68.62 26.29C68.92 26.5367 69.07 26.89 69.07 27.35C69.07 27.89 68.8567 28.3133 68.43 28.62C67.9967 28.9267 67.4167 29.08 66.69 29.08V29.08ZM73.19 24.46C73.19 24.4933 73.18 24.5233 73.16 24.55C73.1333 24.5767 73.1 24.59 73.06 24.59H72.01C71.97 24.59 71.95 24.6067 71.95 24.64V26.98C71.95 27.22 72 27.4 72.1 27.52C72.2 27.6333 72.36 27.69 72.58 27.69H72.94C72.98 27.69 73.01 27.7033 73.03 27.73C73.0567 27.7567 73.07 27.7867 73.07 27.82V28.87C73.07 28.95 73.0267 28.9967 72.94 29.01C72.6333 29.0233 72.4133 29.03 72.28 29.03C71.6733 29.03 71.22 28.93 70.92 28.73C70.62 28.53 70.4667 28.15 70.46 27.59V24.64C70.46 24.6067 70.44 24.59 70.4 24.59H69.77C69.7367 24.59 69.7067 24.5767 69.68 24.55C69.6533 24.5233 69.64 24.4933 69.64 24.46V23.48C69.64 23.44 69.6533 23.4067 69.68 23.38C69.7067 23.36 69.7367 23.35 69.77 23.35H70.4C70.44 23.35 70.46 23.33 70.46 23.29V21.98C70.46 21.9467 70.47 21.9167 70.49 21.89C70.5167 21.8633 70.55 21.85 70.59 21.85H71.82C71.8533 21.85 71.8833 21.8633 71.91 21.89C71.9367 21.9167 71.95 21.9467 71.95 21.98V23.29C71.95 23.33 71.97 23.35 72.01 23.35H73.06C73.1 23.35 73.1333 23.36 73.16 23.38C73.18 23.4067 73.19 23.44 73.19 23.48V24.46V24.46Z" fill="#252530"/>
<path d="M16.9 66.48C16.38 66.48 15.9267 66.3967 15.54 66.23C15.1533 66.0633 14.8533 65.83 14.64 65.53C14.4333 65.23 14.33 64.8767 14.33 64.47V64.22C14.33 64.1867 14.3433 64.1566 14.37 64.13C14.39 64.11 14.4167 64.1 14.45 64.1H15.34C15.3733 64.1 15.4033 64.11 15.43 64.13C15.45 64.1566 15.46 64.1867 15.46 64.22V64.41C15.46 64.7167 15.5967 64.97 15.87 65.17C16.1433 65.3766 16.5167 65.48 16.99 65.48C17.3967 65.48 17.7033 65.3933 17.91 65.22C18.1167 65.0467 18.22 64.8233 18.22 64.55C18.22 64.3633 18.1633 64.2033 18.05 64.07C17.9367 63.9433 17.7767 63.8267 17.57 63.72C17.3567 63.6133 17.04 63.48 16.62 63.32C16.1467 63.1467 15.7633 62.9833 15.47 62.83C15.1767 62.6767 14.9333 62.4666 14.74 62.2C14.54 61.94 14.44 61.6133 14.44 61.22C14.44 60.6333 14.6533 60.17 15.08 59.83C15.5067 59.49 16.0767 59.32 16.79 59.32C17.29 59.32 17.7333 59.4067 18.12 59.58C18.5 59.7533 18.7967 59.9966 19.01 60.31C19.2233 60.6166 19.33 60.9733 19.33 61.38V61.55C19.33 61.5833 19.3167 61.6133 19.29 61.64C19.27 61.66 19.2433 61.67 19.21 61.67H18.31C18.2767 61.67 18.25 61.66 18.23 61.64C18.2033 61.6133 18.19 61.5833 18.19 61.55V61.44C18.19 61.1267 18.0633 60.8633 17.81 60.65C17.55 60.43 17.1933 60.32 16.74 60.32C16.3733 60.32 16.09 60.3967 15.89 60.55C15.6833 60.7033 15.58 60.92 15.58 61.2C15.58 61.4 15.6333 61.5633 15.74 61.69C15.8467 61.8167 16.0067 61.93 16.22 62.03C16.4333 62.1367 16.7633 62.27 17.21 62.43C17.6833 62.61 18.0633 62.7733 18.35 62.92C18.63 63.0666 18.8733 63.27 19.08 63.53C19.28 63.7967 19.38 64.1266 19.38 64.52C19.38 65.12 19.1567 65.5966 18.71 65.95C18.27 66.3033 17.6667 66.48 16.9 66.48V66.48ZM25.91 61.21C26.4233 61.21 26.8267 61.3633 27.12 61.67C27.4067 61.9833 27.55 62.4167 27.55 62.97V66.28C27.55 66.3133 27.54 66.34 27.52 66.36C27.4933 66.3867 27.4633 66.4 27.43 66.4H26.52C26.4867 66.4 26.46 66.3867 26.44 66.36C26.4133 66.34 26.4 66.3133 26.4 66.28V63.21C26.4 62.9033 26.32 62.66 26.16 62.48C25.9933 62.3 25.7733 62.21 25.5 62.21C25.2267 62.21 25.0033 62.3 24.83 62.48C24.6567 62.66 24.57 62.9 24.57 63.2V66.28C24.57 66.3133 24.56 66.34 24.54 66.36C24.5133 66.3867 24.4833 66.4 24.45 66.4H23.54C23.5067 66.4 23.4767 66.3867 23.45 66.36C23.43 66.34 23.42 66.3133 23.42 66.28V63.21C23.42 62.9033 23.3367 62.66 23.17 62.48C23.0033 62.3 22.7833 62.21 22.51 62.21C22.2567 62.21 22.0467 62.2833 21.88 62.43C21.72 62.5767 21.6267 62.7767 21.6 63.03V66.28C21.6 66.3133 21.59 66.34 21.57 66.36C21.5433 66.3867 21.5133 66.4 21.48 66.4H20.56C20.5267 66.4 20.5 66.3867 20.48 66.36C20.4533 66.34 20.44 66.3133 20.44 66.28V61.41C20.44 61.3767 20.4533 61.3467 20.48 61.32C20.5 61.3 20.5267 61.29 20.56 61.29H21.48C21.5133 61.29 21.5433 61.3 21.57 61.32C21.59 61.3467 21.6 61.3767 21.6 61.41V61.74C21.6 61.76 21.6067 61.7733 21.62 61.78C21.6333 61.7867 21.6467 61.78 21.66 61.76C21.8067 61.5733 21.9867 61.4366 22.2 61.35C22.42 61.2566 22.6633 61.21 22.93 61.21C23.2567 61.21 23.5433 61.2767 23.79 61.41C24.0367 61.5433 24.2267 61.7366 24.36 61.99C24.38 62.0166 24.4033 62.0166 24.43 61.99C24.5767 61.7233 24.78 61.5267 25.04 61.4C25.3 61.2733 25.59 61.21 25.91 61.21V61.21ZM30.68 61.21C31.1 61.21 31.47 61.2833 31.79 61.43C32.11 61.5767 32.3567 61.7767 32.53 62.03C32.7033 62.29 32.79 62.5833 32.79 62.91V66.28C32.79 66.3133 32.78 66.34 32.76 66.36C32.7333 66.3867 32.7033 66.4 32.67 66.4H31.75C31.7167 66.4 31.69 66.3867 31.67 66.36C31.6433 66.34 31.63 66.3133 31.63 66.28V65.96C31.63 65.94 31.6233 65.9266 31.61 65.92C31.5967 65.92 31.5833 65.9267 31.57 65.94C31.2433 66.3 30.77 66.48 30.15 66.48C29.65 66.48 29.24 66.3533 28.92 66.1C28.5933 65.8466 28.43 65.47 28.43 64.97C28.43 64.45 28.6133 64.0433 28.98 63.75C29.34 63.4633 29.85 63.32 30.51 63.32H31.58C31.6133 63.32 31.63 63.3033 31.63 63.27V63.03C31.63 62.77 31.5533 62.5666 31.4 62.42C31.2467 62.28 31.0167 62.21 30.71 62.21C30.4567 62.21 30.2533 62.2566 30.1 62.35C29.94 62.4366 29.84 62.56 29.8 62.72C29.78 62.8 29.7333 62.8333 29.66 62.82L28.69 62.7C28.6567 62.6933 28.63 62.6833 28.61 62.67C28.5833 62.65 28.5733 62.6266 28.58 62.6C28.6333 62.1933 28.8533 61.86 29.24 61.6C29.62 61.34 30.1 61.21 30.68 61.21V61.21ZM30.44 65.56C30.7667 65.56 31.0467 65.4733 31.28 65.3C31.5133 65.1267 31.63 64.9067 31.63 64.64V64.17C31.63 64.1366 31.6133 64.12 31.58 64.12H30.74C30.3867 64.12 30.11 64.1867 29.91 64.32C29.7033 64.4533 29.6 64.6433 29.6 64.89C29.6 65.1033 29.68 65.2666 29.84 65.38C29.9933 65.5 30.1933 65.56 30.44 65.56V65.56ZM34.07 66.4C34.0367 66.4 34.01 66.3867 33.99 66.36C33.9633 66.34 33.95 66.3133 33.95 66.28V59.52C33.95 59.4866 33.9633 59.46 33.99 59.44C34.01 59.4133 34.0367 59.4 34.07 59.4H34.99C35.0233 59.4 35.0533 59.4133 35.08 59.44C35.1 59.46 35.11 59.4866 35.11 59.52V66.28C35.11 66.3133 35.1 66.34 35.08 66.36C35.0533 66.3867 35.0233 66.4 34.99 66.4H34.07ZM36.46 66.4C36.4267 66.4 36.4 66.3867 36.38 66.36C36.3533 66.34 36.34 66.3133 36.34 66.28V59.52C36.34 59.4866 36.3533 59.46 36.38 59.44C36.4 59.4133 36.4267 59.4 36.46 59.4H37.38C37.4133 59.4 37.4433 59.4133 37.47 59.44C37.49 59.46 37.5 59.4866 37.5 59.52V66.28C37.5 66.3133 37.49 66.34 37.47 66.36C37.4433 66.3867 37.4133 66.4 37.38 66.4H36.46ZM44.75 62.75C44.71 62.77 44.71 62.79 44.75 62.81C45.43 63.13 45.77 63.68 45.77 64.46C45.77 65.0933 45.56 65.5767 45.14 65.91C44.7133 66.2367 44.16 66.4 43.48 66.4H40.96C40.9267 66.4 40.9 66.3867 40.88 66.36C40.8533 66.34 40.84 66.3133 40.84 66.28V59.52C40.84 59.4866 40.8533 59.46 40.88 59.44C40.9 59.4133 40.9267 59.4 40.96 59.4H43.4C44.1267 59.4 44.6867 59.5567 45.08 59.87C45.4733 60.1833 45.67 60.6567 45.67 61.29C45.67 61.99 45.3633 62.4767 44.75 62.75V62.75ZM42.05 60.4C42.0167 60.4 42 60.4166 42 60.45V62.3C42 62.3333 42.0167 62.35 42.05 62.35H43.4C43.7533 62.35 44.0333 62.2666 44.24 62.1C44.44 61.9266 44.54 61.69 44.54 61.39C44.54 61.0833 44.44 60.84 44.24 60.66C44.0333 60.4867 43.7533 60.4 43.4 60.4H42.05V60.4ZM43.48 65.39C43.8267 65.39 44.1033 65.2967 44.31 65.11C44.51 64.9233 44.61 64.67 44.61 64.35C44.61 64.0233 44.5067 63.77 44.3 63.59C44.0933 63.4033 43.8133 63.31 43.46 63.31H42.05C42.0167 63.31 42 63.3267 42 63.36V65.34C42 65.3733 42.0167 65.39 42.05 65.39H43.48V65.39ZM49.88 61.41C49.88 61.3767 49.89 61.3467 49.91 61.32C49.9367 61.3 49.9667 61.29 50 61.29H50.91C50.9433 61.29 50.9733 61.3 51 61.32C51.02 61.3467 51.03 61.3767 51.03 61.41V66.28C51.03 66.3133 51.02 66.34 51 66.36C50.9733 66.3867 50.9433 66.4 50.91 66.4H50C49.9667 66.4 49.9367 66.3867 49.91 66.36C49.89 66.34 49.88 66.3133 49.88 66.28V65.96C49.88 65.94 49.8733 65.9266 49.86 65.92C49.8467 65.9133 49.8333 65.92 49.82 65.94C49.5467 66.2933 49.1367 66.47 48.59 66.47C48.0833 66.47 47.66 66.3233 47.32 66.03C46.9733 65.7367 46.8 65.32 46.8 64.78V61.41C46.8 61.3767 46.81 61.3467 46.83 61.32C46.8567 61.3 46.8867 61.29 46.92 61.29H47.84C47.8733 61.29 47.9033 61.3 47.93 61.32C47.95 61.3467 47.96 61.3767 47.96 61.41V64.45C47.96 64.7633 48.0433 65.0133 48.21 65.2C48.37 65.3866 48.5967 65.48 48.89 65.48C49.19 65.48 49.43 65.3866 49.61 65.2C49.79 65.0133 49.88 64.7633 49.88 64.45V61.41V61.41ZM54.17 66.46C53.75 66.46 53.38 66.3966 53.06 66.27C52.7467 66.15 52.5033 65.98 52.33 65.76C52.1567 65.5467 52.07 65.3067 52.07 65.04V64.95C52.07 64.9166 52.08 64.8867 52.1 64.86C52.1267 64.84 52.1567 64.83 52.19 64.83H53.07C53.1033 64.83 53.13 64.84 53.15 64.86C53.1767 64.8867 53.19 64.9166 53.19 64.95V64.97C53.19 65.1367 53.28 65.2833 53.46 65.41C53.6467 65.53 53.88 65.59 54.16 65.59C54.4267 65.59 54.6433 65.5367 54.81 65.43C54.9767 65.3167 55.06 65.1767 55.06 65.01C55.06 64.8567 54.99 64.74 54.85 64.66C54.7167 64.5867 54.4967 64.5066 54.19 64.42L53.81 64.3C53.47 64.2 53.1833 64.0933 52.95 63.98C52.7167 63.8667 52.52 63.71 52.36 63.51C52.2 63.3167 52.12 63.0667 52.12 62.76C52.12 62.2933 52.3033 61.9233 52.67 61.65C53.0367 61.37 53.52 61.23 54.12 61.23C54.5267 61.23 54.8833 61.2933 55.19 61.42C55.4967 61.5533 55.7333 61.7333 55.9 61.96C56.0667 62.1933 56.15 62.4567 56.15 62.75C56.15 62.7833 56.1367 62.8133 56.11 62.84C56.09 62.86 56.0633 62.87 56.03 62.87H55.18C55.1467 62.87 55.1167 62.86 55.09 62.84C55.07 62.8133 55.06 62.7833 55.06 62.75C55.06 62.5767 54.9733 62.4333 54.8 62.32C54.6333 62.2 54.4033 62.14 54.11 62.14C53.85 62.14 53.6367 62.1867 53.47 62.28C53.31 62.38 53.23 62.5167 53.23 62.69C53.23 62.85 53.3067 62.97 53.46 63.05C53.62 63.1367 53.8833 63.23 54.25 63.33L54.47 63.39C54.8233 63.4967 55.12 63.6033 55.36 63.71C55.6 63.8233 55.8033 63.9766 55.97 64.17C56.1367 64.37 56.22 64.6267 56.22 64.94C56.22 65.4133 56.0333 65.7833 55.66 66.05C55.2867 66.3233 54.79 66.46 54.17 66.46V66.46ZM57.86 60.59C57.6533 60.59 57.4833 60.5233 57.35 60.39C57.2167 60.2567 57.15 60.0866 57.15 59.88C57.15 59.6733 57.2167 59.5033 57.35 59.37C57.4833 59.2367 57.6533 59.17 57.86 59.17C58.0667 59.17 58.2367 59.2367 58.37 59.37C58.5033 59.5033 58.57 59.6733 58.57 59.88C58.57 60.0866 58.5033 60.2567 58.37 60.39C58.2367 60.5233 58.0667 60.59 57.86 60.59ZM57.38 66.4C57.3467 66.4 57.3167 66.3867 57.29 66.36C57.27 66.34 57.26 66.3133 57.26 66.28V61.4C57.26 61.3667 57.27 61.34 57.29 61.32C57.3167 61.2933 57.3467 61.28 57.38 61.28H58.3C58.3333 61.28 58.36 61.2933 58.38 61.32C58.4067 61.34 58.42 61.3667 58.42 61.4V66.28C58.42 66.3133 58.4067 66.34 58.38 66.36C58.36 66.3867 58.3333 66.4 58.3 66.4H57.38V66.4ZM62.2 61.21C62.74 61.21 63.17 61.37 63.49 61.69C63.8167 62.01 63.98 62.4467 63.98 63V66.28C63.98 66.3133 63.9667 66.34 63.94 66.36C63.92 66.3867 63.8933 66.4 63.86 66.4H62.94C62.9067 66.4 62.8767 66.3867 62.85 66.36C62.83 66.34 62.82 66.3133 62.82 66.28V63.24C62.82 62.9333 62.7333 62.6833 62.56 62.49C62.3867 62.3033 62.1567 62.21 61.87 62.21C61.5833 62.21 61.35 62.3033 61.17 62.49C60.9967 62.6766 60.91 62.9233 60.91 63.23V66.28C60.91 66.3133 60.8967 66.34 60.87 66.36C60.85 66.3867 60.8233 66.4 60.79 66.4H59.87C59.8367 66.4 59.8067 66.3867 59.78 66.36C59.76 66.34 59.75 66.3133 59.75 66.28V61.41C59.75 61.3767 59.76 61.3467 59.78 61.32C59.8067 61.3 59.8367 61.29 59.87 61.29H60.79C60.8233 61.29 60.85 61.3 60.87 61.32C60.8967 61.3467 60.91 61.3767 60.91 61.41V61.73C60.91 61.75 60.9167 61.7633 60.93 61.77C60.9433 61.7766 60.9533 61.77 60.96 61.75C61.2333 61.39 61.6467 61.21 62.2 61.21V61.21ZM69.46 63.27C69.4867 63.4366 69.5 63.6233 69.5 63.83L69.49 64.14C69.49 64.22 69.45 64.26 69.37 64.26H66.24C66.2067 64.26 66.19 64.2766 66.19 64.31C66.21 64.53 66.24 64.68 66.28 64.76C66.44 65.24 66.83 65.4833 67.45 65.49C67.9033 65.49 68.2633 65.3033 68.53 64.93C68.5567 64.89 68.59 64.87 68.63 64.87C68.6567 64.87 68.68 64.88 68.7 64.9L69.32 65.41C69.38 65.4567 69.39 65.51 69.35 65.57C69.1433 65.8633 68.8667 66.09 68.52 66.25C68.18 66.41 67.8 66.49 67.38 66.49C66.86 66.49 66.4167 66.3733 66.05 66.14C65.69 65.9067 65.4267 65.58 65.26 65.16C65.1067 64.8 65.03 64.3 65.03 63.66C65.03 63.2733 65.07 62.96 65.15 62.72C65.2833 62.2533 65.5333 61.8833 65.9 61.61C66.2733 61.3433 66.72 61.21 67.24 61.21C68.5533 61.21 69.2933 61.8966 69.46 63.27V63.27ZM67.24 62.21C66.9933 62.21 66.7867 62.2733 66.62 62.4C66.46 62.52 66.3467 62.69 66.28 62.91C66.24 63.0233 66.2133 63.17 66.2 63.35C66.1867 63.3833 66.2 63.4 66.24 63.4H68.27C68.3033 63.4 68.32 63.3833 68.32 63.35C68.3067 63.1833 68.2867 63.0567 68.26 62.97C68.2 62.73 68.08 62.5433 67.9 62.41C67.7267 62.2767 67.5067 62.21 67.24 62.21ZM72.38 66.46C71.96 66.46 71.59 66.3966 71.27 66.27C70.9567 66.15 70.7133 65.98 70.54 65.76C70.3667 65.5467 70.28 65.3067 70.28 65.04V64.95C70.28 64.9166 70.29 64.8867 70.31 64.86C70.3367 64.84 70.3667 64.83 70.4 64.83H71.28C71.3133 64.83 71.34 64.84 71.36 64.86C71.3867 64.8867 71.4 64.9166 71.4 64.95V64.97C71.4 65.1367 71.49 65.2833 71.67 65.41C71.8567 65.53 72.09 65.59 72.37 65.59C72.6367 65.59 72.8533 65.5367 73.02 65.43C73.1867 65.3167 73.27 65.1767 73.27 65.01C73.27 64.8567 73.2 64.74 73.06 64.66C72.9267 64.5867 72.7067 64.5066 72.4 64.42L72.02 64.3C71.68 64.2 71.3933 64.0933 71.16 63.98C70.9267 63.8667 70.73 63.71 70.57 63.51C70.41 63.3167 70.33 63.0667 70.33 62.76C70.33 62.2933 70.5133 61.9233 70.88 61.65C71.2467 61.37 71.73 61.23 72.33 61.23C72.7367 61.23 73.0933 61.2933 73.4 61.42C73.7067 61.5533 73.9433 61.7333 74.11 61.96C74.2767 62.1933 74.36 62.4567 74.36 62.75C74.36 62.7833 74.3467 62.8133 74.32 62.84C74.3 62.86 74.2733 62.87 74.24 62.87H73.39C73.3567 62.87 73.3267 62.86 73.3 62.84C73.28 62.8133 73.27 62.7833 73.27 62.75C73.27 62.5767 73.1833 62.4333 73.01 62.32C72.8433 62.2 72.6133 62.14 72.32 62.14C72.06 62.14 71.8467 62.1867 71.68 62.28C71.52 62.38 71.44 62.5167 71.44 62.69C71.44 62.85 71.5167 62.97 71.67 63.05C71.83 63.1367 72.0933 63.23 72.46 63.33L72.68 63.39C73.0333 63.4967 73.33 63.6033 73.57 63.71C73.81 63.8233 74.0133 63.9766 74.18 64.17C74.3467 64.37 74.43 64.6267 74.43 64.94C74.43 65.4133 74.2433 65.7833 73.87 66.05C73.4967 66.3233 73 66.46 72.38 66.46V66.46ZM77.21 66.46C76.79 66.46 76.42 66.3966 76.1 66.27C75.7867 66.15 75.5433 65.98 75.37 65.76C75.1967 65.5467 75.11 65.3067 75.11 65.04V64.95C75.11 64.9166 75.12 64.8867 75.14 64.86C75.1667 64.84 75.1967 64.83 75.23 64.83H76.11C76.1433 64.83 76.17 64.84 76.19 64.86C76.2167 64.8867 76.23 64.9166 76.23 64.95V64.97C76.23 65.1367 76.32 65.2833 76.5 65.41C76.6867 65.53 76.92 65.59 77.2 65.59C77.4667 65.59 77.6833 65.5367 77.85 65.43C78.0167 65.3167 78.1 65.1767 78.1 65.01C78.1 64.8567 78.03 64.74 77.89 64.66C77.7567 64.5867 77.5367 64.5066 77.23 64.42L76.85 64.3C76.51 64.2 76.2233 64.0933 75.99 63.98C75.7567 63.8667 75.56 63.71 75.4 63.51C75.24 63.3167 75.16 63.0667 75.16 62.76C75.16 62.2933 75.3433 61.9233 75.71 61.65C76.0767 61.37 76.56 61.23 77.16 61.23C77.5667 61.23 77.9233 61.2933 78.23 61.42C78.5367 61.5533 78.7733 61.7333 78.94 61.96C79.1067 62.1933 79.19 62.4567 79.19 62.75C79.19 62.7833 79.1767 62.8133 79.15 62.84C79.13 62.86 79.1033 62.87 79.07 62.87H78.22C78.1867 62.87 78.1567 62.86 78.13 62.84C78.11 62.8133 78.1 62.7833 78.1 62.75C78.1 62.5767 78.0133 62.4333 77.84 62.32C77.6733 62.2 77.4433 62.14 77.15 62.14C76.89 62.14 76.6767 62.1867 76.51 62.28C76.35 62.38 76.27 62.5167 76.27 62.69C76.27 62.85 76.3467 62.97 76.5 63.05C76.66 63.1367 76.9233 63.23 77.29 63.33L77.51 63.39C77.8633 63.4967 78.16 63.6033 78.4 63.71C78.64 63.8233 78.8433 63.9766 79.01 64.17C79.1767 64.37 79.26 64.6267 79.26 64.94C79.26 65.4133 79.0733 65.7833 78.7 66.05C78.3267 66.3233 77.83 66.46 77.21 66.46V66.46Z" fill="white"/>
<path d="M31.16 80.5C31.0867 80.5 31.04 80.4667 31.02 80.4L29.25 73.63L29.24 73.59C29.24 73.53 29.2767 73.5 29.35 73.5H30.59C30.6567 73.5 30.7 73.5333 30.72 73.6L31.67 77.67C31.6767 77.6967 31.6867 77.71 31.7 77.71C31.7133 77.71 31.7233 77.6967 31.73 77.67L32.65 73.61C32.67 73.5367 32.7133 73.5 32.78 73.5H33.99C34.0633 73.5 34.11 73.5333 34.13 73.6L35.13 77.67C35.1367 77.69 35.1467 77.7033 35.16 77.71C35.1733 77.71 35.1833 77.6967 35.19 77.67L36.11 73.61C36.13 73.5367 36.1733 73.5 36.24 73.5H37.42C37.5133 73.5 37.55 73.5433 37.53 73.63L35.89 80.4C35.87 80.4667 35.8233 80.5 35.75 80.5H34.56C34.4933 80.5 34.45 80.4667 34.43 80.4L33.41 76.07C33.4033 76.0433 33.3933 76.03 33.38 76.03C33.3667 76.03 33.3567 76.0433 33.35 76.07L32.4 80.39C32.3867 80.4633 32.3433 80.5 32.27 80.5H31.16V80.5ZM38.5 80.5C38.4667 80.5 38.4367 80.4867 38.41 80.46C38.39 80.44 38.38 80.4133 38.38 80.38V73.62C38.38 73.5867 38.39 73.56 38.41 73.54C38.4367 73.5133 38.4667 73.5 38.5 73.5H39.67C39.7033 73.5 39.73 73.5133 39.75 73.54C39.7767 73.56 39.79 73.5867 39.79 73.62V80.38C39.79 80.4133 39.7767 80.44 39.75 80.46C39.73 80.4867 39.7033 80.5 39.67 80.5H38.5ZM45.03 73.62C45.03 73.5867 45.04 73.56 45.06 73.54C45.0867 73.5133 45.1167 73.5 45.15 73.5H46.32C46.3533 73.5 46.38 73.5133 46.4 73.54C46.4267 73.56 46.44 73.5867 46.44 73.62V80.38C46.44 80.4133 46.4267 80.44 46.4 80.46C46.38 80.4867 46.3533 80.5 46.32 80.5H45.19C45.1233 80.5 45.0767 80.4733 45.05 80.42L42.46 76.14C42.4467 76.12 42.4333 76.1133 42.42 76.12C42.4067 76.12 42.4 76.1333 42.4 76.16L42.42 80.38C42.42 80.4133 42.4067 80.44 42.38 80.46C42.36 80.4867 42.3333 80.5 42.3 80.5H41.13C41.0967 80.5 41.0667 80.4867 41.04 80.46C41.02 80.44 41.01 80.4133 41.01 80.38V73.62C41.01 73.5867 41.02 73.56 41.04 73.54C41.0667 73.5133 41.0967 73.5 41.13 73.5H42.26C42.3267 73.5 42.3733 73.5267 42.4 73.58L44.98 77.84C44.9933 77.86 45.0067 77.8667 45.02 77.86C45.0333 77.86 45.04 77.8467 45.04 77.82L45.03 73.62V73.62ZM52.49 73.5C52.5233 73.5 52.55 73.5133 52.57 73.54C52.5967 73.56 52.61 73.5867 52.61 73.62V74.6C52.61 74.6333 52.5967 74.66 52.57 74.68C52.55 74.7067 52.5233 74.72 52.49 74.72H50.7C50.6667 74.72 50.65 74.7367 50.65 74.77V80.38C50.65 80.4133 50.6367 80.44 50.61 80.46C50.59 80.4867 50.5633 80.5 50.53 80.5H49.36C49.3267 80.5 49.2967 80.4867 49.27 80.46C49.25 80.44 49.24 80.4133 49.24 80.38V74.77C49.24 74.7367 49.2233 74.72 49.19 74.72H47.45C47.4167 74.72 47.3867 74.7067 47.36 74.68C47.34 74.66 47.33 74.6333 47.33 74.6V73.62C47.33 73.5867 47.34 73.56 47.36 73.54C47.3867 73.5133 47.4167 73.5 47.45 73.5H52.49ZM58.37 74.59C58.37 74.6233 58.36 74.65 58.34 74.67C58.3133 74.6967 58.2833 74.71 58.25 74.71H54.97C54.9367 74.71 54.92 74.7267 54.92 74.76V76.31C54.92 76.3433 54.9367 76.36 54.97 76.36H57.12C57.1533 76.36 57.18 76.37 57.2 76.39C57.2267 76.4167 57.24 76.4467 57.24 76.48V77.45C57.24 77.4833 57.2267 77.5133 57.2 77.54C57.18 77.56 57.1533 77.57 57.12 77.57H54.97C54.9367 77.57 54.92 77.5867 54.92 77.62V79.24C54.92 79.2733 54.9367 79.29 54.97 79.29H58.25C58.2833 79.29 58.3133 79.3 58.34 79.32C58.36 79.3467 58.37 79.3767 58.37 79.41V80.38C58.37 80.4133 58.36 80.44 58.34 80.46C58.3133 80.4867 58.2833 80.5 58.25 80.5H53.63C53.5967 80.5 53.5667 80.4867 53.54 80.46C53.52 80.44 53.51 80.4133 53.51 80.38V73.62C53.51 73.5867 53.52 73.56 53.54 73.54C53.5667 73.5133 53.5967 73.5 53.63 73.5H58.25C58.2833 73.5 58.3133 73.5133 58.34 73.54C58.36 73.56 58.37 73.5867 58.37 73.62V74.59ZM63.19 80.5C63.1233 80.5 63.0767 80.47 63.05 80.41L61.8 77.64C61.7867 77.6133 61.7667 77.6 61.74 77.6H60.81C60.7767 77.6 60.76 77.6167 60.76 77.65V80.38C60.76 80.4133 60.7467 80.44 60.72 80.46C60.7 80.4867 60.6733 80.5 60.64 80.5H59.47C59.4367 80.5 59.4067 80.4867 59.38 80.46C59.36 80.44 59.35 80.4133 59.35 80.38V73.62C59.35 73.5867 59.36 73.56 59.38 73.54C59.4067 73.5133 59.4367 73.5 59.47 73.5H62.33C62.7567 73.5 63.13 73.5867 63.45 73.76C63.7767 73.9333 64.0267 74.18 64.2 74.5C64.38 74.82 64.47 75.19 64.47 75.61C64.47 76.0633 64.3567 76.45 64.13 76.77C63.9033 77.0967 63.5867 77.3267 63.18 77.46C63.1467 77.4733 63.1367 77.4967 63.15 77.53L64.51 80.36C64.5233 80.3867 64.53 80.4067 64.53 80.42C64.53 80.4733 64.4933 80.5 64.42 80.5H63.19V80.5ZM60.81 74.71C60.7767 74.71 60.76 74.7267 60.76 74.76V76.47C60.76 76.5033 60.7767 76.52 60.81 76.52H62.12C62.4 76.52 62.6267 76.4367 62.8 76.27C62.98 76.1033 63.07 75.8867 63.07 75.62C63.07 75.3533 62.98 75.1333 62.8 74.96C62.6267 74.7933 62.4 74.71 62.12 74.71H60.81V74.71ZM38.06 88.63C38.0467 88.6433 38.0433 88.6567 38.05 88.67C38.0567 88.6833 38.07 88.69 38.09 88.69H40.8C40.8333 88.69 40.8633 88.7 40.89 88.72C40.91 88.7467 40.92 88.7767 40.92 88.81V89.78C40.92 89.8133 40.91 89.84 40.89 89.86C40.8633 89.8867 40.8333 89.9 40.8 89.9H36.3C36.2667 89.9 36.2367 89.8867 36.21 89.86C36.19 89.84 36.18 89.8133 36.18 89.78V88.86C36.18 88.8 36.2 88.75 36.24 88.71C36.5667 88.39 36.9 88.0433 37.24 87.67C37.58 87.29 37.7933 87.0533 37.88 86.96C38.0667 86.74 38.2567 86.53 38.45 86.33C39.0567 85.6567 39.36 85.1567 39.36 84.83C39.36 84.5967 39.2767 84.4033 39.11 84.25C38.9433 84.1033 38.7267 84.03 38.46 84.03C38.1933 84.03 37.9767 84.1033 37.81 84.25C37.6433 84.4033 37.56 84.6033 37.56 84.85V85.1C37.56 85.1333 37.5467 85.1633 37.52 85.19C37.5 85.21 37.4733 85.22 37.44 85.22H36.26C36.2267 85.22 36.2 85.21 36.18 85.19C36.1533 85.1633 36.14 85.1333 36.14 85.1V84.63C36.16 84.27 36.2733 83.95 36.48 83.67C36.6867 83.3967 36.96 83.1867 37.3 83.04C37.6467 82.8933 38.0333 82.82 38.46 82.82C38.9333 82.82 39.3467 82.9067 39.7 83.08C40.0467 83.26 40.3167 83.5 40.51 83.8C40.6967 84.1 40.79 84.4333 40.79 84.8C40.79 85.08 40.72 85.3667 40.58 85.66C40.44 85.9533 40.23 86.27 39.95 86.61C39.7433 86.87 39.52 87.1267 39.28 87.38C39.04 87.6333 38.6833 88 38.21 88.48L38.06 88.63V88.63ZM44.17 90.01C43.4367 90.01 42.8567 89.8033 42.43 89.39C42.0033 88.9833 41.79 88.4267 41.79 87.72V85.08C41.79 84.3867 42.0033 83.8367 42.43 83.43C42.8567 83.0233 43.4367 82.82 44.17 82.82C44.9033 82.82 45.4867 83.0233 45.92 83.43C46.3467 83.8367 46.56 84.3867 46.56 85.08V87.72C46.56 88.4267 46.3467 88.9833 45.92 89.39C45.4867 89.8033 44.9033 90.01 44.17 90.01ZM44.17 88.8C44.47 88.8 44.71 88.7067 44.89 88.52C45.0633 88.34 45.15 88.0967 45.15 87.79V85.04C45.15 84.7333 45.0633 84.49 44.89 84.31C44.71 84.1233 44.47 84.03 44.17 84.03C43.8767 84.03 43.6433 84.1233 43.47 84.31C43.29 84.49 43.2 84.7333 43.2 85.04V87.79C43.2 88.0967 43.29 88.34 43.47 88.52C43.6433 88.7067 43.8767 88.8 44.17 88.8ZM49.36 88.63C49.3467 88.6433 49.3433 88.6567 49.35 88.67C49.3567 88.6833 49.37 88.69 49.39 88.69H52.1C52.1333 88.69 52.1633 88.7 52.19 88.72C52.21 88.7467 52.22 88.7767 52.22 88.81V89.78C52.22 89.8133 52.21 89.84 52.19 89.86C52.1633 89.8867 52.1333 89.9 52.1 89.9H47.6C47.5667 89.9 47.54 89.8867 47.52 89.86C47.4933 89.84 47.48 89.8133 47.48 89.78V88.86C47.48 88.8 47.5 88.75 47.54 88.71C47.8667 88.39 48.2 88.0433 48.54 87.67C48.88 87.29 49.0933 87.0533 49.18 86.96C49.3667 86.74 49.5567 86.53 49.75 86.33C50.3567 85.6567 50.66 85.1567 50.66 84.83C50.66 84.5967 50.5767 84.4033 50.41 84.25C50.2433 84.1033 50.0267 84.03 49.76 84.03C49.4933 84.03 49.2767 84.1033 49.11 84.25C48.9433 84.4033 48.86 84.6033 48.86 84.85V85.1C48.86 85.1333 48.85 85.1633 48.83 85.19C48.8033 85.21 48.7733 85.22 48.74 85.22H47.56C47.5267 85.22 47.5 85.21 47.48 85.19C47.4533 85.1633 47.44 85.1333 47.44 85.1V84.63C47.46 84.27 47.5733 83.95 47.78 83.67C47.9867 83.3967 48.2633 83.1867 48.61 83.04C48.95 82.8933 49.3333 82.82 49.76 82.82C50.2333 82.82 50.6467 82.9067 51 83.08C51.3467 83.26 51.6167 83.5 51.81 83.8C51.9967 84.1 52.09 84.4333 52.09 84.8C52.09 85.08 52.02 85.3667 51.88 85.66C51.74 85.9533 51.53 86.27 51.25 86.61C51.0433 86.87 50.82 87.1267 50.58 87.38C50.34 87.6333 49.9833 88 49.51 88.48L49.36 88.63V88.63ZM57.26 86.56C57.3933 86.8667 57.46 87.22 57.46 87.62C57.46 87.98 57.4 88.3133 57.28 88.62C57.12 89.0467 56.8533 89.38 56.48 89.62C56.1 89.86 55.6533 89.98 55.14 89.98C54.6333 89.98 54.19 89.8533 53.81 89.6C53.4233 89.3467 53.1467 89.0033 52.98 88.57C52.8867 88.31 52.8333 88.03 52.82 87.73C52.82 87.65 52.86 87.61 52.94 87.61H54.12C54.2 87.61 54.24 87.65 54.24 87.73C54.2667 87.95 54.3033 88.1133 54.35 88.22C54.41 88.3933 54.51 88.5267 54.65 88.62C54.7833 88.72 54.9433 88.77 55.13 88.77C55.5033 88.77 55.76 88.6067 55.9 88.28C55.9933 88.08 56.04 87.8467 56.04 87.58C56.04 87.2667 55.99 87.01 55.89 86.81C55.7367 86.4967 55.48 86.34 55.12 86.34C55.0467 86.34 54.97 86.36 54.89 86.4C54.81 86.4467 54.7133 86.51 54.6 86.59C54.5733 86.61 54.5467 86.62 54.52 86.62C54.48 86.62 54.45 86.6 54.43 86.56L53.84 85.73C53.8267 85.71 53.82 85.6867 53.82 85.66C53.82 85.62 53.8333 85.5867 53.86 85.56L55.45 84.17C55.4633 84.1567 55.47 84.1433 55.47 84.13C55.4633 84.1167 55.45 84.11 55.43 84.11H53.08C53.0467 84.11 53.02 84.0967 53 84.07C52.9733 84.05 52.96 84.0233 52.96 83.99V83.02C52.96 82.9867 52.9733 82.96 53 82.94C53.02 82.9133 53.0467 82.9 53.08 82.9H57.25C57.2833 82.9 57.3133 82.9133 57.34 82.94C57.36 82.96 57.37 82.9867 57.37 83.02V84.12C57.37 84.1733 57.3467 84.2233 57.3 84.27L55.99 85.47C55.9767 85.4833 55.9733 85.4967 55.98 85.51C55.98 85.5233 55.9933 85.53 56.02 85.53C56.6 85.6433 57.0133 85.9867 57.26 86.56V86.56Z" fill="#252530"/>
</g>
<defs>
<clipPath id="clip0_230_23">
<rect width="94" height="104" fill="white"/>
</clipPath>
</defs>
</svg>
