<svg id="Layer_1" data-name="Layer 1" xmlns="http://www.w3.org/2000/svg" width="108" height="108" viewBox="0 0 108 108"><defs><style>.cls-1{fill:#ff4051;}</style></defs><path class="cls-1" d="M54,12.24A41.76,41.76,0,1,0,95.76,54,41.8,41.8,0,0,0,54,12.24Zm0,78.19A36.43,36.43,0,1,1,90.43,54,36.47,36.47,0,0,1,54,90.43Z"/><path class="cls-1" d="M38.2,50.31a5.54,5.54,0,1,0-5.54-5.54A5.55,5.55,0,0,0,38.2,50.31Z"/><path class="cls-1" d="M69.8,50.31a5.54,5.54,0,1,0-5.55-5.54A5.55,5.55,0,0,0,69.8,50.31Z"/><path class="cls-1" d="M73.28,56.5a2.67,2.67,0,0,0-2.67,2.66C70.61,68,63.47,74.71,54,74.71S37.39,68,37.39,59.16a2.67,2.67,0,0,0-5.34,0C32.05,71.07,41.49,80,54,80s22-9,22-20.88A2.67,2.67,0,0,0,73.28,56.5Z"/></svg>