<svg width="24" height="24" viewBox="0 0 24 24" fill="none" xmlns="http://www.w3.org/2000/svg">
<g clip-path="url(#clip0_263_10682)">
<path d="M16.6848 14.9072C16.0968 14.3267 15.3626 14.3267 14.7783 14.9072C14.3326 15.3492 13.8869 15.7912 13.4486 16.2407C13.3288 16.3643 13.2276 16.3905 13.0815 16.3081C12.7931 16.1508 12.486 16.0234 12.2088 15.8511C10.9166 15.0383 9.83408 13.9933 8.8752 12.8172C8.3995 12.2329 7.97625 11.6073 7.68034 10.9032C7.62041 10.7608 7.63165 10.6672 7.74777 10.5511C8.19349 10.1203 8.62799 9.67835 9.06623 9.23636C9.67676 8.62208 9.67676 7.90292 9.06248 7.28489C8.71414 6.9328 8.36579 6.5882 8.01745 6.23611C7.65787 5.87653 7.30204 5.51321 6.93871 5.15737C6.35065 4.58429 5.6165 4.58429 5.03218 5.16112C4.58271 5.6031 4.15196 6.05632 3.69499 6.49082C3.27174 6.8916 3.05824 7.38228 3.01329 7.95536C2.94212 8.88802 3.17061 9.76824 3.49273 10.626C4.15196 12.4014 5.15579 13.9783 6.37312 15.4241C8.01745 17.3794 9.98016 18.9263 12.2762 20.0425C13.31 20.5444 14.3813 20.9302 15.5462 20.9939C16.3477 21.0388 17.0444 20.8366 17.6025 20.2111C17.9846 19.7841 18.4153 19.3945 18.8198 18.9862C19.4191 18.3794 19.4229 17.6453 18.8273 17.046C18.1157 16.3306 17.4003 15.6189 16.6848 14.9072Z" fill="white"/>
<path d="M15.9694 11.922L17.3516 11.686C17.1343 10.4162 16.535 9.26634 15.6248 8.3524C14.6622 7.38978 13.4449 6.78298 12.104 6.5957L11.9092 7.98533C12.9467 8.13141 13.8906 8.59962 14.636 9.345C15.3402 10.0492 15.8009 10.9406 15.9694 11.922Z" fill="white"/>
<path d="M18.1306 5.9141C16.535 4.31846 14.5161 3.31089 12.2874 3L12.0927 4.38963C14.0179 4.65931 15.7634 5.53205 17.1418 6.90669C18.449 8.21392 19.3067 9.86574 19.6176 11.6824L20.9998 11.4464C20.6364 9.34135 19.6438 7.43108 18.1306 5.9141Z" fill="white"/>
</g>
<defs>
<clipPath id="clip0_263_10682">
<rect width="18" height="18" fill="white" transform="translate(3 3)"/>
</clipPath>
</defs>
</svg>
