<svg xmlns="http://www.w3.org/2000/svg" width="402.943" height="80" viewBox="0 0 402.943 80">
  <g id="Group_7288" data-name="Group 7288" transform="translate(-0.801 -0.5)">
    <g id="Group_7277" data-name="Group 7277" transform="translate(79.529 0.5)">
      <path id="Path_7112" data-name="Path 7112" d="M36.591,68.872,68.414,5.889c.663-1.326,1.1-1.989,1.768-1.989H70.4c.663,0,.884.663,1.768,1.989l32.044,63.2c.663,1.1,0,1.989-1.326,1.989H93.607c-1.326,0-1.768-.442-2.652-1.989L84.989,56.718H55.817L49.85,69.093c-.884,1.547-1.326,1.989-2.652,1.989H37.917c-1.326,0-1.768-1.1-1.326-2.21m44.42-22.541-10.387-22.1H70.4l-10.387,22.1Z" transform="translate(-36.425 3.614)" fill="#333"/>
      <path id="Path_7113" data-name="Path 7113" d="M66.338,3.8A2.283,2.283,0,0,1,68.99,5.789L87.775,45.347,104.128,5.789a2.226,2.226,0,0,1,.221-.663c.442-.884.663-1.1,1.326-1.1h1.547c.663,0,.884.442,1.326,1.1.221.221.221.442.442.663l16.133,39.558L144.128,5.789c.442-1.547,1.1-1.989,2.431-1.989h9.724c1.547,0,1.768.442,1.1,1.989l-31.381,63.2c-.663,1.326-.884,1.989-1.547,1.989h-.884c-.663,0-.884-.663-1.547-1.989L106.338,30.319,90.648,68.993c-.663,1.326-.884,1.989-1.547,1.989h-.884c-.663,0-.884-.663-1.547-1.989L55.73,5.789c-.663-1.547-.663-1.989.884-1.989h9.724Z" transform="translate(-13.576 3.493)" fill="#333"/>
      <path id="Path_7114" data-name="Path 7114" d="M120.951,11.7c15.47,0,23.425,12.376,23.425,26.519,0,1.768-.221,2.21-1.989,2.21H107.913c1.326,8.177,7.735,11.713,13.7,11.713a27.263,27.263,0,0,0,12.6-3.315,4.413,4.413,0,0,1,1.768-.663c.442,0,.663.221,1.326.884l2.873,3.536c.884,1.326,1.1,1.768.221,2.652-4.42,4.42-12.155,6.63-19.006,6.63A25,25,0,0,1,96.2,36.893c0-13.7,11.05-25.193,24.751-25.193m11.713,20.773c-.663-5.746-4.42-11.492-11.934-11.492-6.409,0-11.271,5.083-12.6,11.492Z" transform="translate(35.899 13.051)" fill="#333"/>
      <path id="Path_7115" data-name="Path 7115" d="M131.571,33.428c1.326-2.431,6.63-8.177,15.47-8.177,12.6,0,21.657,11.271,21.657,24.972,0,13.26-8.84,24.972-21.657,24.972-8.84,0-13.923-4.641-17.459-8.84L128.256,72.1c-.884,1.326-1.326,1.989-2.431,1.989h-3.536c-1.547,0-1.989-.442-1.989-1.989l.221-69.613c0-1.547.442-1.989,1.989-1.989H129.8c1.547,0,1.989.442,1.989,1.989Zm25.856,16.8c0-8.177-5.525-14.807-12.818-14.807-7.514,0-13.039,6.851-13.039,14.807,0,8.177,5.525,15.028,13.039,15.028,7.293-.221,12.818-6.63,12.818-15.028" transform="translate(65.059 -0.5)" fill="#333"/>
      <path id="Path_7116" data-name="Path 7116" d="M169.051,11.7c15.47,0,23.425,12.376,23.425,26.519,0,1.768-.221,2.21-1.989,2.21H156.013c1.326,8.177,7.735,11.713,13.7,11.713a27.263,27.263,0,0,0,12.6-3.315,4.413,4.413,0,0,1,1.768-.663c.442,0,.663.221,1.326.884l2.873,3.536c.884,1.326,1.1,1.768.221,2.652-4.42,4.42-12.155,6.63-19.006,6.63A25,25,0,0,1,144.3,36.893c0-13.7,11.05-25.193,24.751-25.193m11.713,20.773c-.663-5.746-4.42-11.492-11.934-11.492-6.409,0-11.271,5.083-12.6,11.492Z" transform="translate(94.098 13.051)" fill="#333"/>
      <path id="Path_7117" data-name="Path 7117" d="M179.571,37.856V59.293c0,1.547-.442,1.989-1.989,1.989h-7.293c-1.547,0-1.989-.442-1.989-1.989V15.315c0-1.547.442-1.989,1.989-1.989h3.536c1.326,0,1.768.663,2.431,1.989l2.21,6.851C181.118,17.3,187.968,12,199.239,12c1.768,0,1.989.663,1.768,1.768l-1.1,7.293c-.221,1.547-.663,1.989-2.21,1.989-10.608.442-18.122,7.293-18.122,14.807" transform="translate(123.137 13.414)" fill="#333"/>
    </g>
    <g id="Group_7278" data-name="Group 7278" transform="translate(0.8 3.815)">
      <path id="Path_7118" data-name="Path 7118" d="M45,2a6.22,6.22,0,0,0-4.641,2.21A75.478,75.478,0,0,0,25.551,38.243c-1.989,10.387-1.1,23.646,2.431,36.022.663,2.431,1.989,4.42,11.934,4.42h0c26.961,0,39.116-10.608,39.116-38.232h0C79.032,13.271,67.54,2,45,2m-.663,73.149a3.232,3.232,0,0,1-4.42-1.326h0a51.139,51.139,0,0,1-5.083-33.812,53.283,53.283,0,0,1,16.8-30.055h0a3.407,3.407,0,0,1,4.641.221,3.212,3.212,0,0,1-.221,4.641h0a44.64,44.64,0,0,0-14.586,26.3,46.726,46.726,0,0,0,4.42,29.613h0v.221a3.408,3.408,0,0,1-1.547,4.2M64.667,26.088h0c-5.525,4.42-9.5,10.166-10.829,17.017a27.078,27.078,0,0,0,3.536,19.448h0v.221a1.773,1.773,0,0,1-.884,2.652,2.447,2.447,0,0,1-3.094-.884h0a30.116,30.116,0,0,1-3.978-21.878A33.824,33.824,0,0,1,61.573,23.215h0l.221-.221a2.349,2.349,0,0,1,3.094.221,1.888,1.888,0,0,1-.221,2.873M12.734,69.4A1.475,1.475,0,0,1,10.3,70.729C4.336,65.425.8,58.575.8,40.232h0C.8,16.586,10.082,6.42,22.678,3.1a1.334,1.334,0,0,1,1.547,1.989A90.587,90.587,0,0,0,12.513,36.033,94.029,94.029,0,0,0,12.734,69.4Z" transform="translate(-0.8 -2)" fill="#246be8"/>
    </g>
  </g>
</svg>
