<svg xmlns="http://www.w3.org/2000/svg" width="459.752" height="80" viewBox="0 0 459.752 80">
  <g id="Group_7289" data-name="Group 7289" transform="translate(-15516 -6529.605)">
    <path id="Path_7048" data-name="Path 7048" d="M17.3,17.125H2.276V-25.256H17.424a22.539,22.539,0,0,1,11.009,2.535,17.3,17.3,0,0,1,7.108,7.274,24.058,24.058,0,0,1,2.494,11.34A24.232,24.232,0,0,1,35.541,7.275a17.286,17.286,0,0,1-7.139,7.3A22.781,22.781,0,0,1,17.3,17.125ZM11.236,9.448h5.691A14.365,14.365,0,0,0,23.621,8.03a9.062,9.062,0,0,0,4.1-4.408A18.6,18.6,0,0,0,29.1-4.107a18.4,18.4,0,0,0-1.376-7.677,9.027,9.027,0,0,0-4.087-4.387,14.389,14.389,0,0,0-6.684-1.407H11.236Zm33.255,7.677V-14.661h8.816V17.125Zm4.449-35.883a4.769,4.769,0,0,1-3.373-1.314,4.166,4.166,0,0,1-1.407-3.156,4.145,4.145,0,0,1,1.407-3.135,4.743,4.743,0,0,1,3.352-1.314A4.759,4.759,0,0,1,52.3-26.363a4.158,4.158,0,0,1,1.4,3.135,4.18,4.18,0,0,1-1.4,3.156A4.733,4.733,0,0,1,48.941-18.758ZM86.79-5.6l-8.071.5a4.244,4.244,0,0,0-.89-1.873,4.885,4.885,0,0,0-1.79-1.345A6.3,6.3,0,0,0,73.4-8.825a6.519,6.519,0,0,0-3.456.859A2.591,2.591,0,0,0,68.538-5.68a2.449,2.449,0,0,0,.911,1.925,7.227,7.227,0,0,0,3.125,1.262l5.753,1.159a14.262,14.262,0,0,1,6.912,3.063,7.209,7.209,0,0,1,2.276,5.546,8.689,8.689,0,0,1-1.831,5.484,11.961,11.961,0,0,1-5.008,3.673,19.013,19.013,0,0,1-7.315,1.314q-6.312,0-10.047-2.638a10.2,10.2,0,0,1-4.377-7.191l8.671-.455a4.417,4.417,0,0,0,1.9,2.928,8.077,8.077,0,0,0,7.605.1,2.732,2.732,0,0,0,1.438-2.328A2.461,2.461,0,0,0,77.54,6.188,7.386,7.386,0,0,0,74.477,5l-5.5-1.1A13.122,13.122,0,0,1,62.05.673a7.99,7.99,0,0,1-2.266-5.856A8.527,8.527,0,0,1,61.45-10.46a10.572,10.572,0,0,1,4.7-3.415,19.249,19.249,0,0,1,7.108-1.2q6.022,0,9.488,2.545A9.842,9.842,0,0,1,86.79-5.6Zm6.291,34.642V-14.661h8.691v5.339h.393a11.687,11.687,0,0,1,1.687-2.618,8.877,8.877,0,0,1,2.9-2.235,9.874,9.874,0,0,1,4.46-.9,12,12,0,0,1,6.415,1.811,12.647,12.647,0,0,1,4.7,5.443,20.814,20.814,0,0,1,1.759,9.1,21.109,21.109,0,0,1-1.707,8.971,12.749,12.749,0,0,1-4.635,5.525,11.9,11.9,0,0,1-6.55,1.873,10.115,10.115,0,0,1-4.356-.848,8.927,8.927,0,0,1-2.928-2.142,10.648,10.648,0,0,1-1.738-2.618H101.9v17.01ZM101.71,1.232a14.147,14.147,0,0,0,.786,4.946,7.273,7.273,0,0,0,2.276,3.28,6.181,6.181,0,0,0,7.264-.021A7.343,7.343,0,0,0,114.3,6.126a14.206,14.206,0,0,0,.776-4.894,14.045,14.045,0,0,0-.766-4.842,7.214,7.214,0,0,0-2.256-3.27,5.717,5.717,0,0,0-3.663-1.18,5.779,5.779,0,0,0-3.632,1.138A7.1,7.1,0,0,0,102.5-3.693,13.973,13.973,0,0,0,101.71,1.232Zm37.042-26.488V17.125h-8.816V-25.256Zm16.1,42.981a13.136,13.136,0,0,1-5.422-1.066,8.57,8.57,0,0,1-3.756-3.166A9.38,9.38,0,0,1,144.3,8.247a9.267,9.267,0,0,1,.973-4.449A7.875,7.875,0,0,1,147.92.9a12.832,12.832,0,0,1,3.818-1.656,28.749,28.749,0,0,1,4.5-.786q2.773-.29,4.47-.548a6.243,6.243,0,0,0,2.463-.776,1.728,1.728,0,0,0,.766-1.531v-.124a3.825,3.825,0,0,0-1.231-3.042,5.133,5.133,0,0,0-3.487-1.076,6.212,6.212,0,0,0-3.787,1.045,4.905,4.905,0,0,0-1.862,2.618l-8.153-.662a11.151,11.151,0,0,1,2.442-5.018,11.844,11.844,0,0,1,4.708-3.27,18.026,18.026,0,0,1,6.695-1.149,20.459,20.459,0,0,1,5.08.621,13.4,13.4,0,0,1,4.325,1.925,9.415,9.415,0,0,1,2.99,3.342,10.15,10.15,0,0,1,1.1,4.873V17.125h-8.36V12.717h-.248a8.84,8.84,0,0,1-2.049,2.618,9.24,9.24,0,0,1-3.083,1.759A12.554,12.554,0,0,1,154.853,17.725Zm2.525-6.084a7.33,7.33,0,0,0,3.435-.776,6.007,6.007,0,0,0,2.338-2.1,5.442,5.442,0,0,0,.848-3V2.391a4.508,4.508,0,0,1-1.128.486q-.714.217-1.6.393t-1.78.31q-.89.135-1.614.238a10.906,10.906,0,0,0-2.711.724,4.376,4.376,0,0,0-1.8,1.335,3.321,3.321,0,0,0-.642,2.08,3.162,3.162,0,0,0,1.314,2.742A5.6,5.6,0,0,0,157.377,11.641Zm26.509,17.342a17.966,17.966,0,0,1-3.135-.259,12.938,12.938,0,0,1-2.411-.631l1.987-6.6a7.964,7.964,0,0,0,3.942.383,3.768,3.768,0,0,0,2.535-2.494l.517-1.345-11.4-32.7h9.271l6.581,23.343h.331l6.643-23.343,9.333.041L195.723,20.56A14.834,14.834,0,0,1,193.312,25a10.234,10.234,0,0,1-3.839,2.939A13.532,13.532,0,0,1,183.886,28.983Zm68.559-54.239h8.961V2.267a14.825,14.825,0,0,1-2.2,8.112,14.812,14.812,0,0,1-6.156,5.411,20.708,20.708,0,0,1-9.209,1.935,20.759,20.759,0,0,1-9.23-1.935,14.741,14.741,0,0,1-6.146-5.411,14.878,14.878,0,0,1-2.194-8.112V-25.256h8.961V1.5a8.586,8.586,0,0,0,1.066,4.3A7.624,7.624,0,0,0,239.3,8.765a9.212,9.212,0,0,0,4.532,1.076,9.2,9.2,0,0,0,4.542-1.076,7.642,7.642,0,0,0,3-2.959,8.586,8.586,0,0,0,1.066-4.3Zm16.328,42.381V-25.256h16.721a18.135,18.135,0,0,1,8.205,1.707,12.057,12.057,0,0,1,5.194,4.822,14.427,14.427,0,0,1,1.79,7.315,13.828,13.828,0,0,1-1.821,7.253A11.8,11.8,0,0,1,293.6.487,19.521,19.521,0,0,1,285.266,2.1h-11.2V-5.1h9.747a11.192,11.192,0,0,0,4.263-.7,5.122,5.122,0,0,0,2.535-2.111,6.733,6.733,0,0,0,.838-3.5,7.005,7.005,0,0,0-.838-3.559,5.318,5.318,0,0,0-2.545-2.2,10.643,10.643,0,0,0-4.294-.755h-6.043V17.125ZM291.661-2.162l10.533,19.287H292.3L282-2.162Zm15.355,19.287V-25.256h8.961V9.737h18.169v7.388Z" transform="translate(15641.605 6568.922)" fill="#2b2b2b"/>
    <path id="_6518734_display_electronic_screen_smart_tv_icon" data-name="6518734_display_electronic_screen_smart_tv_icon" d="M99.156,5H11.906A10.906,10.906,0,0,0,1,15.906v47.26A10.906,10.906,0,0,0,11.906,74.073h9.379l-4.69,4.69a3.65,3.65,0,0,0,5.162,5.162l9.888-9.852H79.416L89.3,83.925a3.65,3.65,0,1,0,5.162-5.162l-4.69-4.69h9.379a10.906,10.906,0,0,0,10.906-10.906V15.906A10.906,10.906,0,0,0,99.156,5Zm3.635,58.166A3.635,3.635,0,0,1,99.156,66.8H11.906a3.635,3.635,0,0,1-3.635-3.635V15.906a3.635,3.635,0,0,1,3.635-3.635h87.25a3.635,3.635,0,0,1,3.635,3.635Z" transform="translate(15515 6524.605)" fill="#2b2b2b"/>
  </g>
</svg>
