<svg xmlns="http://www.w3.org/2000/svg" width="441" height="225" viewBox="0 0 441 225">
  <g id="Group_7297" data-name="Group 7297" transform="translate(-367 -273)">
    <path id="Rectangle_2771" data-name="Rectangle 2771" d="M8,0H433a8,8,0,0,1,8,8V225a0,0,0,0,1,0,0H0a0,0,0,0,1,0,0V8A8,8,0,0,1,8,0Z" transform="translate(367 273)" fill="#7e72af"/>
    <g id="Group_7291" data-name="Group 7291" transform="translate(-74 -35)">
      <g id="Rectangle_2677" data-name="Rectangle 2677" transform="translate(615 385)" fill="none" stroke="#fff" stroke-width="3">
        <rect width="93" height="71" rx="8" stroke="none"/>
        <rect x="1.5" y="1.5" width="90" height="68" rx="6.5" fill="none"/>
      </g>
      <g id="browser-_1_" transform="translate(637.613 404.953)">
        <path id="Path_7020" data-name="Path 7020" d="M227.694-327.152c-.2.329-8.084,30.131-8,30.2a6.465,6.465,0,0,0,1.23.4c.83.215,1.13.257,1.188.129.215-.6,8.069-30.06,8.012-30.1A10.533,10.533,0,0,0,227.694-327.152Z" transform="translate(-201.424 327.16)" fill="#fff"/>
        <path id="Path_7021" data-name="Path 7021" d="M98.324-302.662c-3.477,3.477-6.324,6.4-6.324,6.467s2.89,3.033,6.438,6.581l6.438,6.438.93-.93.93-.93-5.508-5.508c-3.033-3.033-5.508-5.58-5.508-5.651s2.461-2.6,5.465-5.608l5.48-5.48-.858-.859a4.813,4.813,0,0,0-1-.858C104.734-309,101.815-306.153,98.324-302.662Z" transform="translate(-91.999 311.598)" fill="#fff"/>
        <path id="Path_7022" data-name="Path 7022" d="M317.93-308.142l-.858.859,5.48,5.48c3,3,5.466,5.537,5.466,5.608s-2.475,2.618-5.508,5.651L317-285.035l.93.93.93.93,6.438-6.438c3.548-3.548,6.438-6.5,6.438-6.581,0-.186-12.619-12.805-12.805-12.805A4.814,4.814,0,0,0,317.93-308.142Z" transform="translate(-284.807 311.598)" fill="#fff"/>
      </g>
    </g>
  </g>
</svg>
