<svg xmlns="http://www.w3.org/2000/svg" width="457.922" height="80" viewBox="0 0 457.922 80">
  <g id="Group_7265" data-name="Group 7265" transform="translate(-15781 -7727)">
    <path id="Path_7049" data-name="Path 7049" d="M2.276,13.52V-26H28.905v6.889H10.631v9.417h16.9V-2.8h-16.9V6.631H28.982V13.52Zm33.132,0V-16.12h7.834v5.229h.347A8.222,8.222,0,0,1,46.677-15a8.821,8.821,0,0,1,5.172-1.505,8.758,8.758,0,0,1,5.191,1.515,7.222,7.222,0,0,1,2.856,4.1H60.2a7.919,7.919,0,0,1,3.29-4.081,10.2,10.2,0,0,1,5.644-1.534,9.051,9.051,0,0,1,6.744,2.634q2.6,2.634,2.6,7.458V13.52h-8.2V-4.792a4.853,4.853,0,0,0-1.312-3.7,4.6,4.6,0,0,0-3.28-1.235,4.419,4.419,0,0,0-3.493,1.418A5.429,5.429,0,0,0,60.938-4.58v18.1h-7.97V-4.966a4.8,4.8,0,0,0-1.245-3.473,4.333,4.333,0,0,0-3.271-1.293,4.528,4.528,0,0,0-2.46.685,4.832,4.832,0,0,0-1.727,1.91,6.131,6.131,0,0,0-.637,2.866V13.52Zm49.708,0V-26h8.22v14.858h.251a10.9,10.9,0,0,1,1.573-2.441,8.278,8.278,0,0,1,2.7-2.084,9.208,9.208,0,0,1,4.158-.839A11.188,11.188,0,0,1,108-14.817a11.793,11.793,0,0,1,4.38,5.075,19.409,19.409,0,0,1,1.64,8.481A19.684,19.684,0,0,1,112.431,7.1a11.888,11.888,0,0,1-4.322,5.152A11.1,11.1,0,0,1,102,14a9.432,9.432,0,0,1-4.062-.791,8.325,8.325,0,0,1-2.73-2,9.929,9.929,0,0,1-1.621-2.441h-.367V13.52ZM93.163-1.3A13.192,13.192,0,0,0,93.9,3.312a6.782,6.782,0,0,0,2.123,3.059A5.3,5.3,0,0,0,99.4,7.461a5.271,5.271,0,0,0,3.4-1.11,6.847,6.847,0,0,0,2.113-3.087,13.247,13.247,0,0,0,.724-4.564,13.1,13.1,0,0,0-.714-4.515,6.726,6.726,0,0,0-2.1-3.049,5.331,5.331,0,0,0-3.416-1.1A5.389,5.389,0,0,0,96.009-8.9,6.624,6.624,0,0,0,93.9-5.892,13.029,13.029,0,0,0,93.163-1.3Zm39.828,15.4a15.716,15.716,0,0,1-7.863-1.862,12.6,12.6,0,0,1-5.065-5.287,17.417,17.417,0,0,1-1.775-8.114,17.327,17.327,0,0,1,1.775-8.027,13.1,13.1,0,0,1,5.008-5.384,14.533,14.533,0,0,1,7.593-1.93,15.687,15.687,0,0,1,5.471.936,12.331,12.331,0,0,1,4.438,2.808,12.789,12.789,0,0,1,2.962,4.7A18.768,18.768,0,0,1,146.6-1.454V.8H121.568V-4.291h17.29a6.3,6.3,0,0,0-.772-3.145,5.616,5.616,0,0,0-2.132-2.152,6.221,6.221,0,0,0-3.155-.782,6.328,6.328,0,0,0-3.309.859,6.159,6.159,0,0,0-2.248,2.3,6.54,6.54,0,0,0-.83,3.194V.823a8.244,8.244,0,0,0,.82,3.8,5.87,5.87,0,0,0,2.325,2.47,7.023,7.023,0,0,0,3.57.868,7.774,7.774,0,0,0,2.509-.386,5.206,5.206,0,0,0,1.949-1.158,5.034,5.034,0,0,0,1.235-1.891l7.6.5a10.364,10.364,0,0,1-2.364,4.776,11.876,11.876,0,0,1-4.593,3.165A17.26,17.26,0,0,1,132.992,14.1Zm29.891-.1a11.1,11.1,0,0,1-6.107-1.746A11.888,11.888,0,0,1,152.452,7.1a19.684,19.684,0,0,1-1.592-8.365,19.408,19.408,0,0,1,1.64-8.481,11.817,11.817,0,0,1,4.371-5.075,11.173,11.173,0,0,1,5.992-1.688,9.208,9.208,0,0,1,4.158.839,8.278,8.278,0,0,1,2.7,2.084,10.9,10.9,0,0,1,1.573,2.441h.251V-26h8.2V13.52h-8.1V8.773H171.3a10.563,10.563,0,0,1-1.631,2.441,8.215,8.215,0,0,1-2.721,2A9.432,9.432,0,0,1,162.882,14Zm2.605-6.542a5.263,5.263,0,0,0,3.367-1.09,6.882,6.882,0,0,0,2.123-3.059A13.037,13.037,0,0,0,171.72-1.3a13.029,13.029,0,0,0-.733-4.593,6.592,6.592,0,0,0-2.123-3.01,5.4,5.4,0,0,0-3.377-1.061,5.331,5.331,0,0,0-3.416,1.1,6.727,6.727,0,0,0-2.1,3.049,13.1,13.1,0,0,0-.714,4.515,13.246,13.246,0,0,0,.724,4.564,6.882,6.882,0,0,0,2.1,3.087A5.261,5.261,0,0,0,165.487,7.461Zm68.619-19.625h-8.452a8.362,8.362,0,0,0-.946-2.923,7.455,7.455,0,0,0-1.833-2.19,8.086,8.086,0,0,0-2.576-1.389,9.98,9.98,0,0,0-3.155-.482,9.424,9.424,0,0,0-5.345,1.515,9.808,9.808,0,0,0-3.531,4.4,17.5,17.5,0,0,0-1.254,7,17.646,17.646,0,0,0,1.264,7.1A9.563,9.563,0,0,0,211.819,5.2a9.514,9.514,0,0,0,5.268,1.467,10.517,10.517,0,0,0,3.116-.444,8.069,8.069,0,0,0,2.557-1.3,7.456,7.456,0,0,0,1.862-2.094A8.317,8.317,0,0,0,225.654.013l8.452.039a15.317,15.317,0,0,1-1.631,5.239,15.824,15.824,0,0,1-3.493,4.5,16.348,16.348,0,0,1-5.21,3.126,19.084,19.084,0,0,1-6.821,1.148,18.6,18.6,0,0,1-9.446-2.393,16.9,16.9,0,0,1-6.561-6.928,23.189,23.189,0,0,1-2.4-10.98,23,23,0,0,1,2.431-11,17.007,17.007,0,0,1,6.6-6.918,18.554,18.554,0,0,1,9.378-2.383,20.358,20.358,0,0,1,6.378.965,16.267,16.267,0,0,1,5.22,2.808,14.725,14.725,0,0,1,3.715,4.506A16.878,16.878,0,0,1,234.106-12.164ZM253.345,14.1a15.071,15.071,0,0,1-7.767-1.92,12.976,12.976,0,0,1-5.046-5.364,17.223,17.223,0,0,1-1.775-8,17.312,17.312,0,0,1,1.775-8.037,12.976,12.976,0,0,1,5.046-5.364,15.071,15.071,0,0,1,7.767-1.92,15.071,15.071,0,0,1,7.767,1.92,12.976,12.976,0,0,1,5.046,5.364,17.312,17.312,0,0,1,1.775,8.037,17.224,17.224,0,0,1-1.775,8,12.976,12.976,0,0,1-5.046,5.364A15.071,15.071,0,0,1,253.345,14.1Zm.039-6.368A5.083,5.083,0,0,0,256.8,6.564a7.18,7.18,0,0,0,2.074-3.194,14.006,14.006,0,0,0,.7-4.612,14.006,14.006,0,0,0-.7-4.612,7.25,7.25,0,0,0-2.074-3.2,5.057,5.057,0,0,0-3.415-1.177,5.2,5.2,0,0,0-3.464,1.177,7.133,7.133,0,0,0-2.1,3.2,14.006,14.006,0,0,0-.7,4.612,14.006,14.006,0,0,0,.7,4.612,7.066,7.066,0,0,0,2.1,3.194A5.224,5.224,0,0,0,253.384,7.731ZM284.22,14a11.1,11.1,0,0,1-6.107-1.746A11.888,11.888,0,0,1,273.79,7.1,19.684,19.684,0,0,1,272.2-1.261a19.408,19.408,0,0,1,1.64-8.481,11.817,11.817,0,0,1,4.371-5.075,11.173,11.173,0,0,1,5.992-1.688,9.208,9.208,0,0,1,4.158.839,8.278,8.278,0,0,1,2.7,2.084,10.9,10.9,0,0,1,1.573,2.441h.251V-26h8.2V13.52h-8.1V8.773h-.347A10.562,10.562,0,0,1,291,11.214a8.215,8.215,0,0,1-2.721,2A9.432,9.432,0,0,1,284.22,14Zm2.605-6.542a5.263,5.263,0,0,0,3.367-1.09,6.882,6.882,0,0,0,2.123-3.059,13.037,13.037,0,0,0,.743-4.612,13.029,13.029,0,0,0-.733-4.593A6.592,6.592,0,0,0,290.2-8.9a5.4,5.4,0,0,0-3.377-1.061,5.331,5.331,0,0,0-3.416,1.1,6.727,6.727,0,0,0-2.1,3.049,13.1,13.1,0,0,0-.714,4.515,13.246,13.246,0,0,0,.724,4.564,6.882,6.882,0,0,0,2.1,3.087A5.261,5.261,0,0,0,286.825,7.461Zm34.5,6.638a15.716,15.716,0,0,1-7.863-1.862A12.6,12.6,0,0,1,308.4,6.95a17.416,17.416,0,0,1-1.775-8.114A17.327,17.327,0,0,1,308.4-9.192a13.1,13.1,0,0,1,5.007-5.384A14.533,14.533,0,0,1,321-16.505a15.687,15.687,0,0,1,5.471.936,12.33,12.33,0,0,1,4.438,2.808,12.789,12.789,0,0,1,2.962,4.7,18.768,18.768,0,0,1,1.061,6.609V.8H309.9V-4.291h17.29a6.3,6.3,0,0,0-.772-3.145,5.616,5.616,0,0,0-2.132-2.152,6.221,6.221,0,0,0-3.155-.782,6.329,6.329,0,0,0-3.309.859,6.159,6.159,0,0,0-2.248,2.3,6.541,6.541,0,0,0-.83,3.194V.823a8.244,8.244,0,0,0,.82,3.8,5.87,5.87,0,0,0,2.325,2.47,7.023,7.023,0,0,0,3.57.868,7.774,7.774,0,0,0,2.509-.386,5.206,5.206,0,0,0,1.949-1.158,5.034,5.034,0,0,0,1.235-1.891l7.6.5a10.364,10.364,0,0,1-2.364,4.776A11.876,11.876,0,0,1,327.8,12.97,17.26,17.26,0,0,1,321.328,14.1Z" transform="translate(15903.99 7772.348)" fill="#2b2b2b"/>
    <g id="Group_7262" data-name="Group 7262" transform="translate(15781 7727)">
      <g id="Rectangle_2757" data-name="Rectangle 2757" fill="none" stroke="#2b2b2b" stroke-width="4">
        <rect width="105.66" height="80" rx="8" stroke="none"/>
        <rect x="2" y="2" width="101.66" height="76" rx="6" fill="none"/>
      </g>
      <g id="browser-_1_" transform="translate(25.66 24.151)">
        <path id="Path_7020" data-name="Path 7020" d="M228.772-327.151c-.227.373-9.173,34.191-9.076,34.273a7.333,7.333,0,0,0,1.4.455c.942.243,1.283.292,1.348.146.244-.682,9.157-34.11,9.092-34.159A11.951,11.951,0,0,0,228.772-327.151Z" transform="translate(-198.963 327.161)" fill="#2b2b2b" stroke="#2b2b2b" stroke-width="2"/>
        <path id="Path_7021" data-name="Path 7021" d="M99.176-301.808C95.231-297.863,92-294.551,92-294.469c0,.1,3.28,3.442,7.306,7.468l7.306,7.306,1.055-1.055,1.055-1.055-6.251-6.251c-3.442-3.442-6.251-6.332-6.251-6.413s2.792-2.955,6.2-6.364l6.218-6.218-.974-.974a5.461,5.461,0,0,0-1.136-.974C106.45-309,103.137-305.769,99.176-301.808Z" transform="translate(-92 311.948)" fill="#2b2b2b" stroke="#2b2b2b" stroke-width="2"/>
        <path id="Path_7022" data-name="Path 7022" d="M318.055-308.026l-.974.974,6.218,6.218c3.409,3.409,6.2,6.283,6.2,6.364s-2.809,2.971-6.251,6.413L317-281.806l1.055,1.055,1.055,1.055L326.417-287c4.026-4.026,7.306-7.371,7.306-7.468,0-.211-14.32-14.531-14.531-14.531A5.461,5.461,0,0,0,318.055-308.026Z" transform="translate(-280.471 311.948)" fill="#2b2b2b" stroke="#2b2b2b" stroke-width="2"/>
      </g>
    </g>
  </g>
</svg>
