<svg xmlns="http://www.w3.org/2000/svg" width="309.074" height="80" viewBox="0 0 309.074 80">
  <g id="Group_7287" data-name="Group 7287" transform="translate(-15801.147 -7534)">
    <path id="Path_7055" data-name="Path 7055" d="M36.719-8.172a11.424,11.424,0,0,0-1.477-3.243,9.471,9.471,0,0,0-2.316-2.4,10.339,10.339,0,0,0-3.1-1.515,13.25,13.25,0,0,0-3.843-.526,12.258,12.258,0,0,0-6.9,1.953,12.786,12.786,0,0,0-4.62,5.671A22.3,22.3,0,0,0,12.807.841a22.877,22.877,0,0,0,1.628,9.114,12.655,12.655,0,0,0,4.607,5.721,12.483,12.483,0,0,0,7.036,1.966,13.9,13.9,0,0,0,6.3-1.315,9.35,9.35,0,0,0,4.006-3.718,11.161,11.161,0,0,0,1.39-5.684l2.2.326H26.754V-.911H48.212v6.46a22.467,22.467,0,0,1-2.854,11.605A19.345,19.345,0,0,1,37.5,24.616a24.4,24.4,0,0,1-11.468,2.617,24.633,24.633,0,0,1-12.67-3.192,21.887,21.887,0,0,1-8.5-9.089A30.192,30.192,0,0,1,1.815.942a31.862,31.862,0,0,1,1.815-11.13,23.628,23.628,0,0,1,5.1-8.3,22.072,22.072,0,0,1,7.637-5.183,24.746,24.746,0,0,1,9.44-1.778,25.271,25.271,0,0,1,8.113,1.264,21.981,21.981,0,0,1,6.673,3.568,19.4,19.4,0,0,1,4.77,5.471,18.744,18.744,0,0,1,2.379,6.973Zm19.43,34.7V-11.928H66.315v6.785h.451a10.669,10.669,0,0,1,4.006-5.333,11.445,11.445,0,0,1,6.71-1.953,11.364,11.364,0,0,1,6.735,1.966,9.371,9.371,0,0,1,3.706,5.321h.4a10.276,10.276,0,0,1,4.269-5.3,13.234,13.234,0,0,1,7.324-1.991,11.745,11.745,0,0,1,8.751,3.418q3.368,3.418,3.368,9.677V26.531H101.394V2.769a6.3,6.3,0,0,0-1.7-4.807,5.969,5.969,0,0,0-4.257-1.6A5.734,5.734,0,0,0,90.9-1.8a7.044,7.044,0,0,0-1.628,4.845V26.531H78.934V2.544a6.225,6.225,0,0,0-1.615-4.507A5.623,5.623,0,0,0,73.075-3.64a5.875,5.875,0,0,0-3.192.889A6.269,6.269,0,0,0,67.642-.273a7.956,7.956,0,0,0-.826,3.718V26.531Zm75.266.726a15.893,15.893,0,0,1-6.56-1.289,10.369,10.369,0,0,1-4.545-3.831,11.349,11.349,0,0,1-1.665-6.347,11.212,11.212,0,0,1,1.177-5.383,9.529,9.529,0,0,1,3.2-3.505,15.526,15.526,0,0,1,4.62-2,34.785,34.785,0,0,1,5.446-.951q3.355-.351,5.408-.664a7.553,7.553,0,0,0,2.98-.939,2.091,2.091,0,0,0,.926-1.853V.341a4.628,4.628,0,0,0-1.49-3.681,6.211,6.211,0,0,0-4.219-1.3,7.517,7.517,0,0,0-4.582,1.264A5.935,5.935,0,0,0,129.863-.21L120-1.011a13.492,13.492,0,0,1,2.955-6.072,14.331,14.331,0,0,1,5.7-3.956,21.811,21.811,0,0,1,8.1-1.39,24.755,24.755,0,0,1,6.147.751,16.208,16.208,0,0,1,5.233,2.329,11.392,11.392,0,0,1,3.618,4.044,12.28,12.28,0,0,1,1.327,5.9v25.94H142.958V21.2h-.3a10.7,10.7,0,0,1-2.479,3.167,11.18,11.18,0,0,1-3.731,2.128A15.19,15.19,0,0,1,131.415,27.257ZM134.47,19.9a8.87,8.87,0,0,0,4.156-.939,7.269,7.269,0,0,0,2.829-2.541,6.585,6.585,0,0,0,1.027-3.631V8.7a5.454,5.454,0,0,1-1.365.588q-.864.263-1.94.476t-2.153.376q-1.077.163-1.953.288a13.2,13.2,0,0,0-3.28.876,5.3,5.3,0,0,0-2.178,1.615,4.018,4.018,0,0,0-.776,2.516,3.826,3.826,0,0,0,1.59,3.318A6.773,6.773,0,0,0,134.47,19.9Zm26.892,6.635V-11.928h10.666V26.531Zm5.383-43.417a5.77,5.77,0,0,1-4.081-1.59,5.041,5.041,0,0,1-1.7-3.818,5.015,5.015,0,0,1,1.7-3.793,5.739,5.739,0,0,1,4.056-1.59,5.758,5.758,0,0,1,4.094,1.59,5.031,5.031,0,0,1,1.69,3.793,5.058,5.058,0,0,1-1.69,3.818A5.727,5.727,0,0,1,166.745-16.886Zm24.463-7.862V26.531H180.541V-24.748Z" transform="translate(15919.014 7576.091)" fill="#2b2b2b"/>
    <g id="_7115264_new_logo_gmail_icon" data-name="7115264_new_logo_gmail_icon" transform="translate(15801.146 7534)">
      <path id="Path_7050" data-name="Path 7050" d="M56.136,57.333,7.795,26.57A11.427,11.427,0,1,1,20.065,7.288L55.53,29.858,87.373,7.567a11.428,11.428,0,1,1,13.105,18.725Z" transform="translate(-2.5 -5.5)" fill="#ea4435"/>
      <path id="Path_7051" data-name="Path 7051" d="M7.619,0H22.856V68.569A11.428,11.428,0,0,1,11.428,80h0A11.428,11.428,0,0,1,0,68.569V7.619A7.619,7.619,0,0,1,7.619,0Z" transform="translate(102.854 80) rotate(180)" fill="#00ac47"/>
      <path id="Path_7052" data-name="Path 7052" d="M46.191,15.265c-.034-.229-.031-.462-.078-.69-.073-.35-.209-.673-.314-1.01a11.171,11.171,0,0,0-.365-1.14c-.076-.181-.194-.34-.28-.516a11.365,11.365,0,0,0-.821-1.465c-.152-.221-.343-.41-.511-.619a11.538,11.538,0,0,0-.935-1.085c-.253-.246-.542-.453-.818-.675a11.5,11.5,0,0,0-.914-.707c-.3-.2-.633-.349-.952-.518-.337-.176-.667-.367-1.017-.507s-.7-.223-1.054-.327a10.868,10.868,0,0,0-1.069-.3,11.635,11.635,0,0,0-1.36-.137c-.289-.02-.576-.071-.866-.069a11.343,11.343,0,0,0-1.607.162c-.214.032-.43.029-.643.074q-1.078.329-2.15.678c-.2.084-.368.208-.558.3A11.051,11.051,0,0,0,23.5,16.92v21.95l17.98-12.587A11,11,0,0,0,46.19,15.264Z" transform="translate(56.496 -5.491)" fill="#ffba00"/>
      <path id="Path_7053" data-name="Path 7053" d="M13.928,5.5h0A11.428,11.428,0,0,1,25.356,16.928V85.5H10.119A7.619,7.619,0,0,1,2.5,77.879V16.928A11.428,11.428,0,0,1,13.928,5.5Z" transform="translate(-2.5 -5.5)" fill="#4285f4"/>
      <path id="Path_7054" data-name="Path 7054" d="M2.664,15.267c.034-.229.031-.462.078-.69.073-.35.209-.673.314-1.01a11.166,11.166,0,0,1,.365-1.14c.076-.181.194-.34.28-.516a11.321,11.321,0,0,1,.821-1.465c.152-.221.343-.41.511-.619a11.532,11.532,0,0,1,.935-1.085c.253-.246.542-.453.818-.675A11.431,11.431,0,0,1,7.7,7.359c.3-.2.633-.349.952-.518a11.331,11.331,0,0,1,1.017-.51c.339-.136.7-.223,1.054-.327a10.838,10.838,0,0,1,1.069-.3,11.643,11.643,0,0,1,1.36-.137c.29-.02.576-.071.866-.069a11.338,11.338,0,0,1,1.607.162c.214.032.43.029.644.074a11.068,11.068,0,0,1,1.089.338,11.107,11.107,0,0,1,1.061.34c.2.084.368.208.558.3a11.33,11.33,0,0,1,1.425.8,11.406,11.406,0,0,1,4.95,9.4v21.95L7.372,26.285A11.006,11.006,0,0,1,2.664,15.267Z" transform="translate(-2.496 -5.493)" fill="#c52528"/>
    </g>
  </g>
</svg>
