<svg xmlns="http://www.w3.org/2000/svg" width="75.839" height="51.076" viewBox="0 0 75.839 51.076">
  <g id="Group_6626" data-name="Group 6626" transform="translate(0.006 0)">
    <g id="Group_6624" data-name="Group 6624" transform="translate(-0.006 16.056)">
      <g id="Group_6623" data-name="Group 6623" transform="translate(0 0)">
        <path id="Path_6786" data-name="Path 6786" d="M186.28,407.682l-3.466-11.3h-.089q.187,3.447.187,4.6v6.7h-2.728v-14.4h4.156l3.408,11.01h.059l3.614-11.01h4.156v14.4h-2.846v-6.815q0-.483.01-1.113t.138-3.348h-.089l-3.713,11.276Z" transform="translate(-180.184 -392.36)" fill="#2b2b2b"/>
        <path id="Path_6787" data-name="Path 6787" d="M316.96,387.445q0-1.467,1.635-1.467t1.635,1.467a1.438,1.438,0,0,1-.414,1.093,1.713,1.713,0,0,1-1.221.384Q316.96,388.922,316.96,387.445Zm3.132,13.857h-3V390.291h3Z" transform="translate(-299.672 -385.977)" fill="#2b2b2b"/>
        <path id="Path_6788" data-name="Path 6788" d="M362.018,418.456a4.845,4.845,0,0,1,1.014.089l-.227,2.817a3.441,3.441,0,0,0-.886-.1,3.2,3.2,0,0,0-2.245.739,2.679,2.679,0,0,0-.8,2.068v5.6h-3V418.662h2.275l.443,1.852h.148a4.113,4.113,0,0,1,1.379-1.487,3.414,3.414,0,0,1,1.9-.571Z" transform="translate(-333.666 -414.35)" fill="#2b2b2b"/>
        <path id="a" d="M419.519,429.533l-.581-1.5h-.079a4.474,4.474,0,0,1-1.566,1.33,5.069,5.069,0,0,1-2.088.364,3.4,3.4,0,0,1-2.5-.906,3.491,3.491,0,0,1-.906-2.58,2.9,2.9,0,0,1,1.221-2.58,7.1,7.1,0,0,1,3.7-.926l1.911-.059V422.2a1.5,1.5,0,0,0-1.714-1.674,7.81,7.81,0,0,0-3.1.8l-.995-2.029a8.951,8.951,0,0,1,4.215-.995,5.251,5.251,0,0,1,3.4.965,3.567,3.567,0,0,1,1.182,2.935v7.337Zm-.886-5.1-1.162.039a3.721,3.721,0,0,0-1.95.473,1.485,1.485,0,0,0-.64,1.32q0,1.27,1.458,1.27a2.291,2.291,0,0,0,1.664-.6,2.1,2.1,0,0,0,.63-1.6Z" transform="translate(-382.522 -414.211)" fill="#2b2b2b"/>
        <path id="Path_6789" data-name="Path 6789" d="M502.98,429.884q-5.141,0-5.141-5.643a6,6,0,0,1,1.4-4.284,5.237,5.237,0,0,1,4.008-1.487,7.641,7.641,0,0,1,3.427.748l-.886,2.324q-.709-.286-1.32-.463a4.148,4.148,0,0,0-1.221-.187q-2.344,0-2.344,3.329,0,3.23,2.344,3.23a5.452,5.452,0,0,0,1.605-.227,5.929,5.929,0,0,0,1.477-.729v2.57a4.831,4.831,0,0,1-1.477.64,8.214,8.214,0,0,1-1.871.177Z" transform="translate(-457.688 -414.362)" fill="#2b2b2b"/>
      </g>
      <path id="Path_6790" data-name="Path 6790" d="M419.519,429.533l-.581-1.5h-.079a4.474,4.474,0,0,1-1.566,1.33,5.069,5.069,0,0,1-2.088.364,3.4,3.4,0,0,1-2.5-.906,3.491,3.491,0,0,1-.906-2.58,2.9,2.9,0,0,1,1.221-2.58,7.1,7.1,0,0,1,3.7-.926l1.911-.059V422.2a1.5,1.5,0,0,0-1.714-1.674,7.81,7.81,0,0,0-3.1.8l-.995-2.029a8.951,8.951,0,0,1,4.215-.995,5.251,5.251,0,0,1,3.4.965,3.567,3.567,0,0,1,1.182,2.935v7.337Zm-.886-5.1-1.162.039a3.721,3.721,0,0,0-1.95.473,1.485,1.485,0,0,0-.64,1.32q0,1.27,1.458,1.27a2.291,2.291,0,0,0,1.664-.6,2.1,2.1,0,0,0,.63-1.6Z" transform="translate(-362.697 -414.211)" fill="#2b2b2b"/>
      <path id="Path_6791" data-name="Path 6791" d="M663.042,426.413a3.026,3.026,0,0,1-1.182,2.58,5.792,5.792,0,0,1-3.516.886,10.742,10.742,0,0,1-2.048-.167,7.545,7.545,0,0,1-1.586-.473v-2.482a10.506,10.506,0,0,0,1.881.66,7.7,7.7,0,0,0,1.851.266q1.635,0,1.635-.945a.772.772,0,0,0-.217-.571,2.956,2.956,0,0,0-.749-.5q-.532-.286-1.418-.66a9.059,9.059,0,0,1-1.871-.985,2.847,2.847,0,0,1-.867-1.034,3.519,3.519,0,0,1-.266-1.448,2.607,2.607,0,0,1,1.133-2.265,5.539,5.539,0,0,1,3.23-.808,9.156,9.156,0,0,1,3.871.867l-.906,2.167q-.827-.355-1.546-.581a4.856,4.856,0,0,0-1.467-.227q-1.33,0-1.33.719a.847.847,0,0,0,.423.7,11.929,11.929,0,0,0,1.881.876,8.718,8.718,0,0,1,1.891.975,2.884,2.884,0,0,1,.886,1.044,3.208,3.208,0,0,1,.286,1.408Z" transform="translate(-594.713 -414.359)" fill="#2b2b2b"/>
      <path id="Path_6792" data-name="Path 6792" d="M725.468,412.7a6.512,6.512,0,0,0,1.891-.345v2.236a6.742,6.742,0,0,1-2.758.5,3.4,3.4,0,0,1-2.629-.906,4,4,0,0,1-.817-2.738v-5.308h-1.438v-1.27l1.654-1,.867-2.324h1.92v2.344h3.082v2.255h-3.082v5.308a1.181,1.181,0,0,0,.355.945,1.438,1.438,0,0,0,.955.305Z" transform="translate(-651.521 -399.578)" fill="#2b2b2b"/>
    </g>
    <g id="b" transform="translate(21.208 0)">
      <path id="Path_6793" data-name="Path 6793" d="M394.237,324a12.326,12.326,0,0,0-8.437,3.423,2.046,2.046,0,1,0,2.792,2.991c3.565-3.329,7.724-3.329,11.289,0a2.046,2.046,0,1,0,2.792-2.991A12.326,12.326,0,0,0,394.237,324Z" transform="translate(-380.456 -315.774)" fill="#2b2b2b"/>
      <path id="Path_6794" data-name="Path 6794" d="M361.8,258.95a20.227,20.227,0,0,0-13.051,4.871,2.046,2.046,0,1,0,2.633,3.133c6.361-5.345,14.476-5.345,20.837,0a2.046,2.046,0,1,0,2.632-3.133A20.227,20.227,0,0,0,361.8,258.95Z" transform="translate(-348.016 -258.95)" fill="#2b2b2b"/>
    </g>
    <g id="Group_6625" data-name="Group 6625" transform="translate(21.208 35.89)">
      <path id="Path_6795" data-name="Path 6795" d="M394.237-372.132a12.326,12.326,0,0,1-8.437-3.423,2.046,2.046,0,0,1-.1-2.892,2.046,2.046,0,0,1,2.892-.1c3.565,3.329,7.724,3.329,11.289,0a2.046,2.046,0,0,1,2.892.1,2.046,2.046,0,0,1-.1,2.892,12.326,12.326,0,0,1-8.437,3.423Z" transform="translate(-380.456 379.097)" fill="#2b2b2b"/>
      <path id="Path_6796" data-name="Path 6796" d="M361.8-317.584a20.227,20.227,0,0,1-13.051-4.871,2.046,2.046,0,0,1-.25-2.883,2.046,2.046,0,0,1,2.883-.25c6.361,5.345,14.476,5.345,20.837,0a2.046,2.046,0,0,1,2.882.25,2.046,2.046,0,0,1-.25,2.883,20.228,20.228,0,0,1-13.051,4.871Z" transform="translate(-348.016 332.77)" fill="#2b2b2b"/>
    </g>
  </g>
</svg>
