<svg xmlns="http://www.w3.org/2000/svg" width="83.736" height="27.912" viewBox="0 0 83.736 27.912">
  <g id="Group_7193" data-name="Group 7193" transform="translate(-45.9 -263)">
    <path id="Path_7086" data-name="Path 7086" d="M122.517,272.3H117.4V293h5.117Z" transform="translate(-16.063 -2.089)" fill="#252525"/>
    <path id="Path_7087" data-name="Path 7087" d="M87.5,272.3h5.272l5.117,12.173,5.195-12.173h5.195L99.518,293H96.106Z" transform="translate(-9.346 -2.089)" fill="#252525" fill-rule="evenodd"/>
    <path id="Path_7088" data-name="Path 7088" d="M50.63,263h5.117l6.435,19.461L68.617,263h5.117l4.652,27.912H73.269l-2.946-17.678-5.815,17.678H59.856l-5.815-17.678-3.024,17.678H45.9Z" fill="#252525" fill-rule="evenodd"/>
    <path id="Path_7089" data-name="Path 7089" d="M119.028,265.553l2.4,1.706-2.4,1.706Zm-1.628,4.342h5.117V264.7H117.4Z" transform="translate(-16.063 -0.382)" fill="#2275b4"/>
    <path id="Path_7090" data-name="Path 7090" d="M132.327,279.976,126.9,272.3h5.427Z" transform="translate(-18.198 -2.089)" fill="#252525" fill-rule="evenodd"/>
    <path id="Path_7091" data-name="Path 7091" d="M132.327,296.776H126.9l5.427-7.676Z" transform="translate(-18.198 -5.864)" fill="#252525" fill-rule="evenodd"/>
    <path id="Path_7092" data-name="Path 7092" d="M144.1,286.5l6.9,9.614h-6.2l-3.8-5.35Z" transform="translate(-21.366 -5.28)" fill="#252525" fill-rule="evenodd"/>
    <path id="Path_7093" data-name="Path 7093" d="M151,272.278l-6.9,9.614L141,277.55l3.8-5.35H151Z" transform="translate(-21.366 -2.067)" fill="#252525" fill-rule="evenodd"/>
    <path id="Path_7094" data-name="Path 7094" d="M134.9,272.3V293l7.366-10.312Z" transform="translate(-19.995 -2.089)" fill="#2275b4"/>
  </g>
</svg>
