<svg xmlns="http://www.w3.org/2000/svg" xmlns:xlink="http://www.w3.org/1999/xlink" width="94.516" height="38.205" viewBox="0 0 94.516 38.205">
  <defs>
    <linearGradient id="linear-gradient" x1="37.826" y1="-70.339" x2="38.823" y2="-70.339" gradientUnits="objectBoundingBox">
      <stop offset="0" stop-color="#656565"/>
      <stop offset="1" stop-color="#010101"/>
    </linearGradient>
    <linearGradient id="linear-gradient-2" x1="37.826" y1="-73.592" x2="38.823" y2="-73.592" xlink:href="#linear-gradient"/>
    <linearGradient id="linear-gradient-3" x1="37.826" y1="-68.714" x2="38.823" y2="-68.714" gradientUnits="objectBoundingBox">
      <stop offset="0" stop-color="#9f1c20"/>
      <stop offset="1" stop-color="#ed2224"/>
    </linearGradient>
    <linearGradient id="linear-gradient-4" x1="37.826" y1="-71.966" x2="38.823" y2="-71.966" xlink:href="#linear-gradient-3"/>
    <linearGradient id="linear-gradient-5" x1="37.826" y1="-75.217" x2="38.823" y2="-75.217" xlink:href="#linear-gradient-3"/>
  </defs>
  <g id="Group_7203" data-name="Group 7203" transform="translate(-40.824 -319.543)">
    <g id="Group_7202" data-name="Group 7202" transform="translate(40.825 319.543)">
      <path id="Path_7138" data-name="Path 7138" d="M36.266,300.681S58.3,302.893,58.3,306.553v-8.82s0-3.686-22.038-5.872v8.82Z" transform="translate(-36.266 -285.989)" fill="url(#linear-gradient)"/>
      <path id="Path_7139" data-name="Path 7139" d="M36.266,315.8S58.3,318.007,58.3,321.667v-8.82s0-3.686-22.038-5.872v8.82Z" transform="translate(-36.266 -289.334)" fill="url(#linear-gradient-2)"/>
      <path id="Path_7140" data-name="Path 7140" d="M58.3,284.321v8.82s0,3.686-22.038,5.872v-8.82S58.3,288.006,58.3,284.321" transform="translate(-36.266 -284.321)" fill="url(#linear-gradient-3)"/>
      <path id="Path_7141" data-name="Path 7141" d="M36.266,305.306S58.3,303.095,58.3,299.434v8.82s0,3.686-22.038,5.872v-8.82Z" transform="translate(-36.266 -287.665)" fill="url(#linear-gradient-4)"/>
      <path id="Path_7142" data-name="Path 7142" d="M36.266,329.208v-8.82S58.3,318.176,58.3,314.515v8.82s0,3.686-22.038,5.872" transform="translate(-36.266 -291.003)" fill="url(#linear-gradient-5)"/>
    </g>
    <path id="Path_7143" data-name="Path 7143" d="M80.1,350.122l.934-3.971a26.864,26.864,0,0,0,3.115.857,10.906,10.906,0,0,0,3.193-.078,1.249,1.249,0,0,0,1.09-1.168,1.208,1.208,0,0,0-.779-1.324l-2.025-.934-2.648-1.246a5.045,5.045,0,0,1-2.725-4.672,5.242,5.242,0,0,1,3.037-4.672,9.515,9.515,0,0,1,5.685-.934,37.806,37.806,0,0,1,3.816.857l-1.09,3.971a16.617,16.617,0,0,0-3.271-.779,5.986,5.986,0,0,0-2.336.234,1.167,1.167,0,0,0-.234,2.18,11.1,11.1,0,0,0,2.18,1.012c.934.467,1.947.779,2.881,1.324a5.351,5.351,0,0,1-.311,9.344,11.272,11.272,0,0,1-6.152,1.09,11.992,11.992,0,0,1-4.361-1.09Zm40.726.857h-4.361l-.389-1.168a5.041,5.041,0,0,1-3.816,1.48,4.25,4.25,0,0,1-4.361-3.115,4.562,4.562,0,0,1,2.18-5.217,12.035,12.035,0,0,1,4.906-1.246h.623c-.078-.779-.545-1.168-1.48-1.246a8.455,8.455,0,0,0-4.516.934l-.934-3.271a29.167,29.167,0,0,1,3.5-.934,16.3,16.3,0,0,1,4.361.078,4.844,4.844,0,0,1,3.971,4.984c.078,1.791.078,3.66.078,5.451.078,1.012.078,2.336.234,3.271Zm-4.984-6.23a3.9,3.9,0,0,0-2.492.467,1.212,1.212,0,0,0-.7,1.4,1.522,1.522,0,0,0,.623,1.012,1.748,1.748,0,0,0,2.492-1.246,11.5,11.5,0,0,0,.078-1.635Zm28.189,6.152h-4.361l-.389-1.168a5.041,5.041,0,0,1-3.816,1.48A4.25,4.25,0,0,1,131.1,348.1a4.562,4.562,0,0,1,2.18-5.217,12.035,12.035,0,0,1,4.906-1.246h.623c-.078-.779-.545-1.168-1.48-1.246a8.455,8.455,0,0,0-4.516.934l-.934-3.271a29.155,29.155,0,0,1,3.5-.934,16.3,16.3,0,0,1,4.361.078,4.844,4.844,0,0,1,3.971,4.984c.078,1.791.078,3.66.078,5.451.078,1.09.078,2.414.234,3.271Zm-4.984-6.23a3.9,3.9,0,0,0-2.492.467,1.212,1.212,0,0,0-.7,1.4,1.522,1.522,0,0,0,.623,1.012,1.748,1.748,0,0,0,2.492-1.246,5.488,5.488,0,0,0,.078-1.635Zm-33.328-3.582c-1.791-.389-3.5-.7-4.75,1.012a3.8,3.8,0,0,0,0,4.049c1.246,1.713,3.037,1.4,4.906,1.09.156,1.09.467,3.66.467,3.66l-.234.078c-3.426.934-7.4.234-9.189-1.791a7.164,7.164,0,0,1-1.246-7.32,6.568,6.568,0,0,1,5.3-4.594,9.514,9.514,0,0,1,4.906.156,3.373,3.373,0,0,1,.389.078l-.545,3.582Zm18.066-9.889h4.828v19.7h-4.828Z" transform="translate(-8.692 -2.58)" fill="#231f20"/>
  </g>
</svg>
