<svg xmlns="http://www.w3.org/2000/svg" width="560.867" height="80" viewBox="0 0 560.867 80">
  <g id="logo-color" transform="translate(0.002 -0.92)">
    <path id="Path_7088" data-name="Path 7088" d="M144.932,26.079c-5.7,0-9.35,1.876-9.35,5.222s3.835,4.815,9.534,5.409c8.1.688,18.608,2.064,18.608,13.039,0,7.817-7.394,13.382-18.7,13.382-7.132,0-13.986-1.563-20.024-7.817l4.806-6.254a21.263,21.263,0,0,0,15.141,6.254c4.9,0,9.7-1.469,9.7-5.409s-3.744-5.237-10.243-5.832c-8.2-.688-17.9-3.127-17.9-12.507S136.583,18.7,144.762,18.7a26.98,26.98,0,0,1,16.944,5.565L156.9,29.847a19.333,19.333,0,0,0-11.968-3.768Zm49.152,28.828c4.621,0,9.982-1.563,12.739-4.549l5.977,5.565c-4.544,4.894-12.123,7.207-18.885,7.207-14.433,0-23.691-8.661-23.691-22.215,0-12.867,9.612-22.216,23.506-22.216,12.924,0,21.826,7.286,21.826,21.887,0,1.188-.093,2.486-.185,3.768H179.79c.771,6.6,6.162,10.553,14.295,10.553ZM193.731,26.6c-6.671,0-12.462,3.517-13.864,10.38H206.5C205.976,30.191,201.355,26.6,193.731,26.6Zm64.309,11.74c0-7.285-4.282-11.49-11.845-11.49a12.126,12.126,0,0,0-8.875,3.755,12.5,12.5,0,0,0-3.447,9.111v22.4h-9.243V19.731h8.38l.539,5.91A19.035,19.035,0,0,1,248.321,18.7c10.6,0,18.884,6.348,18.884,19.558V62.116h-9.241l.077-23.78Zm65.188,23.78h-8.641l-.54-6.708a17.642,17.642,0,0,1-15.218,7.723c-12.739,0-22.442-8.145-22.442-22.215,0-14.415,9.518-22.216,22.258-22.216,5.345,0,12.554,2.486,15.4,7.552V2.143h9.243l-.062,59.972Zm-37.677-21.2c0,8.582,6.054,13.992,13.864,13.992a13.947,13.947,0,0,0,0-27.891c-7.81,0-13.864,5.316-13.864,13.9Zm54.775-39.9a5.221,5.221,0,0,1,4.03,1.424,5.385,5.385,0,0,1,1.669,3.985,5.709,5.709,0,0,1-11.4,0A5.385,5.385,0,0,1,336.3,2.442a5.221,5.221,0,0,1,4.03-1.424Zm4.544,61.1h-9.243V19.732h9.243Zm45.764-23.78c0-7.285-4.267-11.49-11.846-11.49a12.11,12.11,0,0,0-8.88,3.751,12.485,12.485,0,0,0-3.442,9.115v22.4h-9.242V19.731h8.364l.539,5.91A19.066,19.066,0,0,1,380.914,18.7c10.6,0,18.885,6.348,18.885,19.558V62.116h-9.243l.078-23.78Zm30.191-11.663c2.85-5.066,10.074-7.973,15.4-7.973,12.646,0,22.273,7.817,22.273,22.216,0,14.07-10.336,22.215-22.35,22.215-5.53,0-11.846-2.313-15.327-7.723l-.524,6.708h-8.641V2.143H420.9l-.077,24.53Zm.539,14.243a13.9,13.9,0,0,0,4.075,10.059,13.477,13.477,0,0,0,9.988,3.933c8.026,0,13.864-5.409,13.864-13.992s-5.868-13.9-13.864-13.9a13.491,13.491,0,0,0-9.951,3.906,13.908,13.908,0,0,0-4.112,9.993Zm56.454,21.2h-9.242V2.143h9.243V62.116ZM499.1,42.808c0,7.207,4.19,12.179,11.938,12.179a11.988,11.988,0,0,0,8.81-3.73,12.36,12.36,0,0,0,3.39-9.059V19.731h9.165V62.115h-8.271l-.54-5.846a18.81,18.81,0,0,1-15.142,6.863c-10.782,0-18.484-7.457-18.484-20.245V19.732h9.165Zm66.975,12.1c4.621,0,9.966-1.563,12.739-4.549l5.961,5.565c-4.544,4.894-12.107,7.207-18.885,7.207-14.418,0-23.691-8.661-23.691-22.215,0-12.867,9.628-22.216,23.521-22.216,12.909,0,21.812,7.286,21.812,21.887,0,1.188-.092,2.486-.169,3.768H551.739c.817,6.6,6.238,10.553,14.34,10.553ZM565.726,26.6c-6.686,0-12.477,3.517-13.864,10.38h26.617c-.555-6.785-5.192-10.38-12.754-10.38Z" transform="translate(-26.672 -0.017)" fill="#091e3f"/>
    <path id="Path_7089" data-name="Path 7089" d="M67.031,58.18A15.875,15.875,0,0,1,57.7,65.5,21.336,21.336,0,0,0,42.36,38.818a15.724,15.724,0,0,1,18.887-2.347A15.96,15.96,0,0,1,67.031,58.18M37.3,75.441a15.818,15.818,0,0,1-10.966-4.464,21.068,21.068,0,0,0,5.546-2.236,21.44,21.44,0,0,0,9.76-24.459A15.895,15.895,0,0,1,37.3,75.441M7.573,58.18A16.02,16.02,0,0,1,5.94,46.411a21.4,21.4,0,0,0,4.694,3.7,21.034,21.034,0,0,0,10.59,2.859A21.267,21.267,0,0,0,36.579,46.4,15.945,15.945,0,0,1,29.159,64a15.64,15.64,0,0,1-7.874,2.125A15.8,15.8,0,0,1,7.572,58.18m0-34.522a15.875,15.875,0,0,1,9.336-7.321A21.33,21.33,0,0,0,32.234,43.018,15.834,15.834,0,0,1,7.572,23.658M37.3,6.4a15.807,15.807,0,0,1,10.962,4.46,21.359,21.359,0,0,0-15.309,26.7A15.9,15.9,0,0,1,37.3,6.4M67.031,23.658a16.013,16.013,0,0,1,1.63,11.784,21.238,21.238,0,0,0-4.69-3.714,21.122,21.122,0,0,0-25.952,3.729,15.929,15.929,0,0,1,7.427-17.616,15.754,15.754,0,0,1,21.586,5.817m4.717-2.737a21.124,21.124,0,0,0-12.9-9.957,21.339,21.339,0,0,0-3.961-.67,21.169,21.169,0,0,0-35.154,0,21.363,21.363,0,0,0-19,26.845,21.657,21.657,0,0,0,1.4,3.784,21.558,21.558,0,0,0,.719,20A21.228,21.228,0,0,0,19.707,71.535a21.172,21.172,0,0,0,35.166.012A21.359,21.359,0,0,0,72.462,40.93a21.561,21.561,0,0,0-.715-20.009" transform="translate(0 0)" fill="#0092ff" fill-rule="evenodd"/>
  </g>
</svg>
