<svg xmlns="http://www.w3.org/2000/svg" width="109" height="27.944" viewBox="0 0 109 27.944">
  <g id="Group_6630" data-name="Group 6630" transform="translate(-1302 -161)">
    <text id="SmartTV" transform="translate(1379 182)" fill="#545454" font-size="16" font-family="HelveticaNeue-Medium, Helvetica Neue" font-weight="500"><tspan x="-31.704" y="0">SmartTV</tspan></text>
    <g id="Smart_TV" data-name="Smart TV" transform="translate(1301.156 154)">
      <path id="Path_6800" data-name="Path 6800" d="M1,7V25.619H36.687V7ZM19.053,22.516a.777.777,0,1,1,.741-.811A.777.777,0,0,1,19.053,22.516Zm2.118-2.739a.776.776,0,0,1-1.094.047,1.552,1.552,0,0,0-1.156-.411c-.985.039-.993.776-1.645.776a.776.776,0,0,1-.574-1.3C18.727,16.674,22.21,18.583,21.171,19.777Zm2.1-2.281a.776.776,0,0,1-1.094,0A4.655,4.655,0,0,0,18.8,16.31c-2.552.109-2.995,1.746-3.8,1.746a.776.776,0,0,1-.574-1.3c3.825-4.143,10.225-.776,8.813.745Z" fill="#e27d48"/>
      <path id="Path_6801" data-name="Path 6801" d="M7,36.1h9.31v1.552c-.24,0,.683-.171-7.913,1.552a.78.78,0,0,0,.155,1.552c.116,0-.465.109,7.836-1.552,9.573,0,6.067-.31,15.283,1.552a.791.791,0,0,0,.31-1.552l-7.758-1.552c-.217-.047-.155.326-.155-1.552H38.032V33H7Z" transform="translate(-1.345 -5.829)" fill="#545454"/>
      <rect id="Rectangle_2498" data-name="Rectangle 2498" width="3" height="3" transform="translate(0.844 27.262)" fill="#545454"/>
    </g>
  </g>
</svg>
