<svg xmlns="http://www.w3.org/2000/svg" xmlns:xlink="http://www.w3.org/1999/xlink" width="960" height="1762" viewBox="0 0 960 1762">
  <defs>
    <linearGradient id="linear-gradient" x1="0.5" x2="0.5" y2="1.402" gradientUnits="objectBoundingBox">
      <stop offset="0" stop-color="#260b3e"/>
      <stop offset="1" stop-color="#210937"/>
    </linearGradient>
    <clipPath id="clip-path">
      <rect id="Rectangle_203" data-name="Rectangle 203" width="960" height="1762" transform="translate(958 -5)" fill="url(#linear-gradient)"/>
    </clipPath>
    <linearGradient id="linear-gradient-2" x1="0.5" x2="0.5" y2="1" gradientUnits="objectBoundingBox">
      <stop offset="0" stop-color="#fff"/>
      <stop offset="1" stop-color="#fff" stop-opacity="0"/>
    </linearGradient>
  </defs>
  <g id="Mask_Group_6" data-name="Mask Group 6" transform="translate(-958 5)" clip-path="url(#clip-path)">
    <path id="Path_5195" data-name="Path 5195" d="M1040.3,109.825c37.639-54.942,140.586-46.8,188.272,14.9L2389.037,1626.07c49.141,63.576,3.011,135.9-82.37,129.146l-2076.425-164.3c-85.381-6.756-144.69-87.425-105.9-144.043Z" transform="translate(748.546 1471.74) rotate(-104)" opacity="0.05" fill="url(#linear-gradient-2)"/>
    <path id="Path_5196" data-name="Path 5196" d="M483.811,75.137c34.4-48.9,117.89-40.968,160.841,15.281l516.6,676.554c49.061,64.251,9.389,141.327-68.914,133.888L161.956,812.466c-78.3-7.439-131.223-93.312-91.927-149.169Z" transform="matrix(-0.259, -0.966, 0.966, -0.259, 1063.636, 1867.044)" opacity="0.05" fill="url(#linear-gradient-2)"/>
  </g>
</svg>
