<svg id="Pricing-new" xmlns="http://www.w3.org/2000/svg" width="77.873" height="53.455" viewBox="0 0 77.873 53.455">
  <g id="Pricing-logué">
    <g id="Group-20">
      <path id="Fill-1" d="M28.4,16.332a5.361,5.361,0,0,1-.972,3.128h2.043V3.735H22.947v6.423c3.526,1.091,5.456,3.348,5.456,6.174" transform="translate(18.06 2.939)" fill="#81698d" fill-rule="evenodd"/>
      <path id="Fill-3" d="M27.727,12.536a15.235,15.235,0,0,1,3.891.62c-2.22-.389-5.662.175-7.441,1.573V22.4h6.529V13.674a8.268,8.268,0,0,1,3.131,1.268V22.4h1.419a7.044,7.044,0,0,1-5.984,2.08v.314h0c6.206.489,8.833-2.447,8.833-5.75,0-3.89-3.657-6.165-7.4-6.628V6.674H24.176v5.8c-4.225.847-8.363,3.352-8.363,7.5,0,6.387,8.946,10.343,16.737,10.343,11.832,0,20.939-5.7,20.939-13.713C53.49,6.917,40.341,0,30.015,0,18.182,0,9.471,7.5,9.471,15.509c0,4.147,2.336,7.621,5.279,10.043l.221-.146a11.643,11.643,0,0,1-4.433-9.082c.616-8.765,11.446-13.7,21.085-13.7,6.817,0,19.062,1.571,19.062,12.939,0,5.93-6.352,13.641-19.7,13.641-6.831,0-12.138-3.651-12.138-8.9,0-4.541,3.565-7.77,8.875-7.77" transform="translate(7.455)" fill="#81698d" fill-rule="evenodd"/>
      <path id="Fill-5" d="M9.9,37.47v-.9h2.288V28.832H6.08v7.742H8.427v.9H0v-.9H2.142V20.8H0v-.9H8.427v.9H6.08v6.99h6.111V20.8H9.9v-.9h8.341v.9H16.1V36.574h2.142v.9Z" transform="translate(0 15.667)" fill="#81698d" fill-rule="evenodd"/>
      <path id="Fill-7" d="M10.965,37.47v-.9h2.055v-10.8H10.965v-.9h5.85v11.7h1.911v.9Zm1.882-15.483H16.67V19.906H12.847Z" transform="translate(8.63 15.667)" fill="#81698d" fill-rule="evenodd"/>
      <path id="Fill-9" d="M15.77,38.488v-.9h2.113V19.509H15.77v-.9h5.937v18.98h2v.9Z" transform="translate(12.412 14.649)" fill="#81698d" fill-rule="evenodd"/>
      <path id="Fill-11" d="M25.862,37.483c-2.086,0-3.215-1.069-3.215-2.715V25.783H20.591v-.9h2.056v-5c1.159,0,2.374.03,3.562,0v5h2.953v.9H26.21v10.8h3.012v.9Z" transform="translate(16.206 15.654)" fill="#81698d" fill-rule="evenodd"/>
      <path id="Fill-13" d="M35.447,24.887a2.6,2.6,0,0,0-2.578-1.59c-2.983,0-3.041,3.062-3.041,5.721,0,3.582.32,4.217.55,4.651A2.694,2.694,0,0,0,32.9,35.055c2.984,0,2.984-3.206,2.954-6.153-.029-3.207-.232-3.611-.405-4.015m4.141,6.789a6.738,6.738,0,0,1-6.6,4.1c-4.865,0-7.356-3.323-7.356-6.7,0-4.68,4.17-6.615,7.269-6.615,2.751,0,6.748,1.646,7.067,6.412a6.577,6.577,0,0,1-.376,2.8" transform="translate(20.172 17.677)" fill="#81698d" fill-rule="evenodd"/>
      <path id="Fill-16" d="M43.457,35.472v-.9h1.679V27.153c0-1.676,0-3.323-1.852-3.323a3.7,3.7,0,0,0-3.157,2.745,10.118,10.118,0,0,0-.117,2.456v5.546h1.912v.9H34.16v-.9h2.056v-10.8H34.16v-.9h5.85v1.907a5.068,5.068,0,0,1,2.4-1.877,5.929,5.929,0,0,1,2.288-.463,6.311,6.311,0,0,1,1.738.23c2.433.724,2.549,2.571,2.549,3.9v8h2v.9Z" transform="translate(26.886 17.664)" fill="#81698d" fill-rule="evenodd"/>
    </g>
  </g>
</svg>
