<svg xmlns="http://www.w3.org/2000/svg" xmlns:xlink="http://www.w3.org/1999/xlink" width="85" height="85" viewBox="0 0 85 85">
  <defs>
    <filter id="Rectangle_2802" x="0" y="0" width="85" height="85" filterUnits="userSpaceOnUse">
      <feOffset dy="1" input="SourceAlpha"/>
      <feGaussianBlur stdDeviation="1.5" result="blur"/>
      <feFlood flood-opacity="0.161"/>
      <feComposite operator="in" in2="blur"/>
      <feComposite in="SourceGraphic"/>
    </filter>
  </defs>
  <g id="Group_7501" data-name="Group 7501" transform="translate(4.816 3.5)">
    <g transform="matrix(1, 0, 0, 1, -4.82, -3.5)" filter="url(#Rectangle_2802)">
      <rect id="Rectangle_2802-2" data-name="Rectangle 2802" width="76" height="76" rx="8" transform="translate(4.5 3.5)" fill="#fff"/>
    </g>
    <g id="_7115264_new_logo_gmail_icon" data-name="7115264_new_logo_gmail_icon" transform="translate(17.478 22.284)">
      <path id="Path_7050" data-name="Path 7050" d="M23.574,25.865,4.58,13.778A4.49,4.49,0,1,1,9.4,6.2L23.336,15.07,35.847,6.312A4.49,4.49,0,1,1,41,13.669Z" transform="translate(-2.5 -5.5)" fill="#ea4435"/>
      <path id="Path_7051" data-name="Path 7051" d="M2.993,0H8.98V26.941a4.49,4.49,0,0,1-4.49,4.49h0A4.49,4.49,0,0,1,0,26.941V2.993A2.993,2.993,0,0,1,2.993,0Z" transform="translate(40.412 31.432) rotate(180)" fill="#00ac47"/>
      <path id="Path_7052" data-name="Path 7052" d="M32.415,9.338c-.013-.09-.012-.182-.031-.271-.029-.137-.082-.264-.123-.4a4.388,4.388,0,0,0-.143-.448c-.03-.071-.076-.134-.11-.2a4.465,4.465,0,0,0-.322-.575c-.06-.087-.135-.161-.2-.243a4.533,4.533,0,0,0-.367-.426c-.1-.1-.213-.178-.321-.265a4.519,4.519,0,0,0-.359-.278c-.119-.078-.249-.137-.374-.2s-.262-.144-.4-.2-.275-.088-.414-.129a4.27,4.27,0,0,0-.42-.116,4.571,4.571,0,0,0-.534-.054c-.114-.008-.226-.028-.34-.027a4.457,4.457,0,0,0-.631.064c-.084.013-.169.012-.253.029q-.424.129-.845.266c-.077.033-.145.082-.219.119A4.342,4.342,0,0,0,23.5,9.989v8.624l7.065-4.946a4.322,4.322,0,0,0,1.85-4.329Z" transform="translate(7.931 -5.498)" fill="#ffba00"/>
      <path id="Path_7053" data-name="Path 7053" d="M6.99,5.5h0a4.49,4.49,0,0,1,4.49,4.49V36.931H5.493A2.993,2.993,0,0,1,2.5,33.938V9.99A4.49,4.49,0,0,1,6.99,5.5Z" transform="translate(-2.5 -5.5)" fill="#4285f4"/>
      <path id="Path_7054" data-name="Path 7054" d="M2.565,9.339c.013-.09.012-.182.031-.271.029-.137.082-.264.123-.4a4.387,4.387,0,0,1,.143-.448c.03-.071.076-.134.11-.2A4.448,4.448,0,0,1,3.3,7.445c.06-.087.135-.161.2-.243a4.531,4.531,0,0,1,.367-.426c.1-.1.213-.178.321-.265a4.491,4.491,0,0,1,.359-.278c.119-.078.249-.137.374-.2a4.452,4.452,0,0,1,.4-.2c.133-.054.275-.088.414-.129a4.258,4.258,0,0,1,.42-.116,4.574,4.574,0,0,1,.534-.054c.114-.008.226-.028.34-.027a4.455,4.455,0,0,1,.631.064c.084.013.169.012.253.029a4.349,4.349,0,0,1,.428.133,4.364,4.364,0,0,1,.417.134c.077.033.144.082.219.119a4.452,4.452,0,0,1,.56.314A4.482,4.482,0,0,1,11.48,9.989v8.624L4.415,13.668A4.324,4.324,0,0,1,2.565,9.339Z" transform="translate(-2.499 -5.499)" fill="#c52528"/>
    </g>
  </g>
</svg>
