<svg xmlns="http://www.w3.org/2000/svg" xmlns:xlink="http://www.w3.org/1999/xlink" width="78" height="77" viewBox="0 0 78 77">
  <defs>
    <filter id="Rectangle_2802" x="0" y="0" width="78" height="77" filterUnits="userSpaceOnUse">
      <feOffset dy="1" input="SourceAlpha"/>
      <feGaussianBlur stdDeviation="1.5" result="blur"/>
      <feFlood flood-opacity="0.161"/>
      <feComposite operator="in" in2="blur"/>
      <feComposite in="SourceGraphic"/>
    </filter>
  </defs>
  <g id="Group_7499" data-name="Group 7499" transform="translate(4.251 3.651)">
    <g transform="matrix(1, 0, 0, 1, -4.25, -3.65)" filter="url(#Rectangle_2802)">
      <rect id="Rectangle_2802-2" data-name="Rectangle 2802" width="69" height="68" rx="8" transform="translate(4.5 3.5)" fill="#fff"/>
    </g>
    <g id="Group_7177" data-name="Group 7177" transform="translate(15.239 12.665)">
      <path id="Path_6961" data-name="Path 6961" d="M36.43,90.56,39.9,129.679l15.64,4.333,15.705-4.333,3.466-39.1Zm30.709,12.79H48.808l.433,4.909H66.7l-1.3,14.731-9.8,2.721v.026l-9.839-2.747-.689-7.543h4.813l.338,3.834,5.355,1.434,5.364-1.43.563-6.23H44.857l-1.3-14.492H67.59Z" transform="translate(-36.43 -90.56)" fill="#e44d26"/>
      <path id="Path_6962" data-name="Path 6962" d="M80.612,160.174l-.009,0-.013,0Z" transform="translate(-61.458 -130.011)" fill="#e44d26"/>
      <line id="Line_257" data-name="Line 257" y1="0.004" x2="0.022" transform="translate(19.132 35.141)" fill="#e44d26"/>
      <path id="Path_6963" data-name="Path 6963" d="M86.537,142.48h-5.9v7.66l5.333-1.43Z" transform="translate(-61.486 -119.985)" fill="#f16529"/>
      <path id="Path_6964" data-name="Path 6964" d="M80.64,97.97v4.783h12l-.442,4.8H80.64v4.909H91.762L90.44,127.18l-9.8,2.721v4.978l12.673-3.535L96.3,97.97Z" transform="translate(-61.486 -94.76)" fill="#f16529"/>
    </g>
  </g>
</svg>
