<svg xmlns="http://www.w3.org/2000/svg" xmlns:xlink="http://www.w3.org/1999/xlink" width="84" height="85" viewBox="0 0 84 85">
  <defs>
    <filter id="Rectangle_2802" x="0" y="0" width="84" height="85" filterUnits="userSpaceOnUse">
      <feOffset dy="1" input="SourceAlpha"/>
      <feGaussianBlur stdDeviation="1.5" result="blur"/>
      <feFlood flood-opacity="0.161"/>
      <feComposite operator="in" in2="blur"/>
      <feComposite in="SourceGraphic"/>
    </filter>
    <linearGradient id="linear-gradient" x1="0.523" y1="12.747" x2="0.523" y2="11.333" gradientUnits="objectBoundingBox">
      <stop offset="0" stop-color="#efc119"/>
      <stop offset="0.331" stop-color="#92c84e"/>
      <stop offset="0.486" stop-color="#71bf5b"/>
      <stop offset="0.751" stop-color="#15b158"/>
      <stop offset="0.903" stop-color="#23ac69"/>
      <stop offset="1" stop-color="#23ac69"/>
    </linearGradient>
  </defs>
  <g id="Group_7498" data-name="Group 7498" transform="translate(4.045 3.5)">
    <g transform="matrix(1, 0, 0, 1, -4.04, -3.5)" filter="url(#Rectangle_2802)">
      <rect id="Rectangle_2802-2" data-name="Rectangle 2802" width="75" height="76" rx="8" transform="translate(4.5 3.5)" fill="#fff"/>
    </g>
    <g id="Group_7526" data-name="Group 7526" transform="translate(6.709 30.374)">
      <path id="Path_7133" data-name="Path 7133" d="M.76,6.938,10.46.512a1.354,1.354,0,0,1,1.362,0l9.7,6.426a.774.774,0,0,1,0,1.392l-1.3.857a10.755,10.755,0,0,0-18.175,0L.745,8.33A.778.778,0,0,1,.76,6.938Zm10.373-.076a8.121,8.121,0,0,0-6.854,3.794l2.234,1.484a5.377,5.377,0,0,1,9.21,0l2.234-1.484a8.009,8.009,0,0,0-6.823-3.794Zm0,5.37a2.747,2.747,0,0,0-2.371,1.392l1.5.979a1.359,1.359,0,0,0,.872.321A1.328,1.328,0,0,0,12,14.6l1.5-.979A2.722,2.722,0,0,0,11.133,12.231Z" transform="translate(0 0)" fill="url(#linear-gradient)"/>
      <path id="Path_7134" data-name="Path 7134" d="M57.962,11.9l2.433,3.488H58.681l-1.836-2.708v2.708H55.453V8.474h1.392v2.754l1.744-2.754H60.2ZM62.8,8.489H61.4V15.4h3.565V14.012h-2.2L62.8,8.489Zm6.288-.245,2.907,7.16H70.431l-.275-.75H67.861l-.275.75H66.009l2.907-7.16Zm.566,5.11-.627-1.79-.643,1.79Zm4.3-1.025-1.423-3.84h-1.56l2.907,7.16h.138l2.907-7.16H75.342ZM77.973,15.4h1.392V8.489H77.973Zm6.915-6.915-1.408,2.387L82.073,8.489H80.39l2.4,3.794V15.4h1.377V12.283l2.417-3.794Zm8.843,3.335a3.58,3.58,0,1,1-3.58-3.58A3.58,3.58,0,0,1,93.731,11.824Zm-1.346,0a2.227,2.227,0,1,0-.652,1.582,2.234,2.234,0,0,0,.652-1.582Z" transform="translate(-29.985 -4.305)" fill="#171a1d"/>
    </g>
  </g>
</svg>
