<svg xmlns="http://www.w3.org/2000/svg" xmlns:xlink="http://www.w3.org/1999/xlink" width="85" height="85" viewBox="0 0 85 85">
  <defs>
    <filter id="Rectangle_2802" x="0" y="0" width="85" height="85" filterUnits="userSpaceOnUse">
      <feOffset dy="1" input="SourceAlpha"/>
      <feGaussianBlur stdDeviation="1.5" result="blur"/>
      <feFlood flood-opacity="0.161"/>
      <feComposite operator="in" in2="blur"/>
      <feComposite in="SourceGraphic"/>
    </filter>
  </defs>
  <g id="Group_7500" data-name="Group 7500" transform="translate(4.5 3.5)">
    <g transform="matrix(1, 0, 0, 1, -4.5, -3.5)" filter="url(#Rectangle_2802)">
      <rect id="Rectangle_2802-2" data-name="Rectangle 2802" width="76" height="76" rx="8" transform="translate(4.5 3.5)" fill="#fff"/>
    </g>
    <g id="Group_7525" data-name="Group 7525" transform="translate(15 14.307)">
      <path id="Path_7060" data-name="Path 7060" d="M175.761,194.4a3.917,3.917,0,0,1,1.005,0,3.436,3.436,0,0,0,.049-1.9c-.241-1.154-.568-1.853-1.242-1.744s-.7.945-.458,2.1a3.905,3.905,0,0,0,.646,1.548" transform="translate(-141.382 -171.478)" fill="#231f20" fill-rule="evenodd"/>
      <path id="Path_7061" data-name="Path 7061" d="M162,197.987c.482.212.779.352.9.23.075-.077.052-.223-.063-.411a2.838,2.838,0,0,0-1.248-1,3.4,3.4,0,0,0-3.309.4c-.323.237-.629.564-.585.763.014.064.063.113.176.129a20.575,20.575,0,0,1,2.268-.506,3.95,3.95,0,0,1,1.866.4" transform="translate(-133.409 -174.152)" fill="#231f20" fill-rule="evenodd"/>
      <path id="Path_7062" data-name="Path 7062" d="M162.6,200.238a2.277,2.277,0,0,0-1.2.5.769.769,0,0,0-.306.479.146.146,0,0,0,.048.115.151.151,0,0,0,.1.039,1.922,1.922,0,0,0,.46-.128,4.009,4.009,0,0,1,2.024-.21c.316.036.466.055.535-.053a.178.178,0,0,0-.018-.2,1.829,1.829,0,0,0-1.648-.539" transform="translate(-134.983 -175.85)" fill="#231f20" fill-rule="evenodd"/>
      <path id="Path_7063" data-name="Path 7063" d="M172.339,202.962a.773.773,0,0,0,1.05-.184c.153-.311-.069-.734-.5-.943a.773.773,0,0,0-1.05.184c-.153.312.069.734.5.943" transform="translate(-139.916 -176.54)" fill="#231f20" fill-rule="evenodd"/>
      <path id="Path_7064" data-name="Path 7064" d="M177.346,199.576c-.347-.006-.634.375-.642.85s.267.866.613.872.634-.375.642-.85-.267-.866-.613-.871" transform="translate(-142.179 -175.552)" fill="#231f20" fill-rule="evenodd"/>
      <path id="Path_7065" data-name="Path 7065" d="M129.942,210.784c-.086-.108-.228-.075-.365-.043a1.305,1.305,0,0,1-.323.046.7.7,0,0,1-.592-.3,1.1,1.1,0,0,1,.025-1.018l.081-.185a3.01,3.01,0,0,0,.221-2.663,2.359,2.359,0,0,0-1.806-1.313,2.321,2.321,0,0,0-1.989.717,2.861,2.861,0,0,0-.739,2.4c.054.149.14.19.2.2.13.017.323-.078.444-.4l.034-.106a3.193,3.193,0,0,1,.319-.749,1.365,1.365,0,0,1,.869-.6,1.391,1.391,0,0,1,1.062.2,1.359,1.359,0,0,1,.515,1.638,3.821,3.821,0,0,0-.269,1.457,1.446,1.446,0,0,0,1.292,1.492,1.1,1.1,0,0,0,1.041-.518.222.222,0,0,0-.023-.252" transform="translate(-118.065 -178.186)" fill="#231f20" fill-rule="evenodd"/>
      <path id="Path_7066" data-name="Path 7066" d="M129.8,168.622a21.513,21.513,0,0,1,6.036-4.932.078.078,0,0,1,.105.107,5.817,5.817,0,0,0-.561,1.368.082.082,0,0,0,.126.086,11.757,11.757,0,0,1,5.3-1.871.084.084,0,0,1,.056.149,4.5,4.5,0,0,0-.834.836.081.081,0,0,0,.064.129,10.383,10.383,0,0,1,4.43,1.161c.082.046.024.206-.069.185a18.031,18.031,0,0,0-8.025.022,18.439,18.439,0,0,0-6.516,2.88.082.082,0,0,1-.11-.121Zm9.018,20.271h0v0Zm7.467.881a.145.145,0,0,0,.085-.144.136.136,0,0,0-.149-.122,17.277,17.277,0,0,1-7.514-.764c.4-1.292,1.455-.826,3.053-.7a22.316,22.316,0,0,0,7.37-.8,16.883,16.883,0,0,0,5.511-2.741,11.112,11.112,0,0,1,.77,2.625,1.282,1.282,0,0,1,.808.148c.348.214.6.659.428,1.809a10.015,10.015,0,0,1-2.8,5.5,11.557,11.557,0,0,1-3.366,2.516,14.153,14.153,0,0,1-2.2.928c-5.786,1.89-11.709-.188-13.618-4.649a7.113,7.113,0,0,1-.383-1.054,9.253,9.253,0,0,1,2.036-8.688h0a.785.785,0,0,0,.269-.517.917.917,0,0,0-.208-.492c-.756-1.1-3.372-2.963-2.847-6.576a4.925,4.925,0,0,1,4.764-4.315l.536.031c.917.054,1.717.172,2.472.2a4.943,4.943,0,0,0,3.746-1.25,2.9,2.9,0,0,1,1.434-.811,1.74,1.74,0,0,1,.548-.054,1.81,1.81,0,0,1,.922.295c1.079.718,1.232,2.457,1.288,3.729.032.726.12,2.483.15,2.987.068,1.153.372,1.316.985,1.518.345.114.665.2,1.137.331a6.416,6.416,0,0,1,2.809,1.331,1.767,1.767,0,0,1,.513,1c.168,1.229-.954,2.746-3.925,4.126a19.942,19.942,0,0,1-9.91,1.586l-.954-.108c-2.177-.293-3.42,2.521-2.113,4.449.842,1.243,3.137,2.051,5.432,2.052,5.263,0,9.308-2.247,10.813-4.188l.12-.171c.074-.112.013-.173-.079-.11-1.229.841-6.69,4.181-12.531,3.176a7.811,7.811,0,0,1-1.358-.369,2.438,2.438,0,0,1-1.724-1.8c4.714,1.458,7.682.08,7.682.08Zm-25.891-11.2a6.277,6.277,0,0,0-3.968,2.531,10.779,10.779,0,0,1-1.686-1.625c-1.41-2.679,1.539-7.886,3.6-10.827,5.093-7.268,13.07-12.769,16.762-11.771.6.17,2.589,2.475,2.589,2.475a52,52,0,0,0-7.114,4.9,32.3,32.3,0,0,0-10.184,14.314Zm2.755,12.291a3.888,3.888,0,0,1-.757.053A5.891,5.891,0,0,1,117,186c-.293-2.911,1.195-5.151,3.828-5.682a4.464,4.464,0,0,1,1.105-.079c1.476.081,3.65,1.214,4.146,4.428.44,2.847-.259,5.745-2.928,6.2Zm33.413-5.155c-.021-.075-.159-.578-.348-1.184a9.553,9.553,0,0,0-.385-1.033,3.739,3.739,0,0,0,.671-2.727,3.453,3.453,0,0,0-1-1.949,8.158,8.158,0,0,0-3.542-1.754l-.9-.251c0-.037-.047-2.127-.086-3.025a10.355,10.355,0,0,0-.4-2.659,7.119,7.119,0,0,0-1.841-3.287c2.247-2.329,3.65-4.9,3.647-7.1-.006-4.233-5.206-5.515-11.613-2.861l-1.358.576c-.006-.006-2.454-2.408-2.491-2.44-7.305-6.372-30.146,19.016-22.844,25.183l1.6,1.352a7.842,7.842,0,0,0-.444,3.622,7.133,7.133,0,0,0,2.465,4.581,7.5,7.5,0,0,0,4.836,1.947c2.842,6.549,9.335,10.566,16.948,10.793,8.167.243,15.022-3.589,17.895-10.473a14.43,14.43,0,0,0,.985-4.582c0-1.931-1.092-2.731-1.787-2.731" transform="translate(-112.645 -155.001)" fill="#231f20" fill-rule="evenodd"/>
    </g>
  </g>
</svg>
