<svg xmlns="http://www.w3.org/2000/svg" xmlns:xlink="http://www.w3.org/1999/xlink" width="77" height="77" viewBox="0 0 77 77">
  <defs>
    <filter id="Rectangle_2802" x="0" y="0" width="77" height="77" filterUnits="userSpaceOnUse">
      <feOffset dy="1" input="SourceAlpha"/>
      <feGaussianBlur stdDeviation="1.5" result="blur"/>
      <feFlood flood-opacity="0.161"/>
      <feComposite operator="in" in2="blur"/>
      <feComposite in="SourceGraphic"/>
    </filter>
  </defs>
  <g id="Group_7498" data-name="Group 7498" transform="translate(4.002 3.651)">
    <g transform="matrix(1, 0, 0, 1, -4, -3.65)" filter="url(#Rectangle_2802)">
      <rect id="Rectangle_2802-2" data-name="Rectangle 2802" width="68" height="68" rx="8" transform="translate(4.5 3.5)" fill="#fff"/>
    </g>
    <g id="Group_7502" data-name="Group 7502" transform="translate(10.862 25.14)">
      <path id="Path_6977" data-name="Path 6977" d="M245.437,87.974c-.919.458-1.317,1.316-1.317,3.643a3.65,3.65,0,0,1,1.2-.735,4.957,4.957,0,0,0,1.193-.658c.8-.591.915-1.317.915-2.572A4.481,4.481,0,0,0,245.437,87.974Z" transform="translate(-218.194 -87.621)" fill="#fbbd71"/>
      <path id="Path_6978" data-name="Path 6978" d="M117.566,88.4a3.339,3.339,0,0,0-.994,1.79L114,100.046l-2.112-8.066a6.879,6.879,0,0,0-1.193-2.647,3.48,3.48,0,0,0-2.45-1,3.625,3.625,0,0,0-2.45,1,6.88,6.88,0,0,0-1.193,2.647l-1.989,8.066-2.572-9.858a3.617,3.617,0,0,0-.994-1.79,4.188,4.188,0,0,0-3.107-.857l4.9,18.443a5.848,5.848,0,0,0,2.388-.261c1.05-.535,1.592-.919,2.189-3.443.6-2.25,2.189-8.8,2.311-9.259.061-.2.2-.8.6-.8s.535.535.6.8c.138.458,1.715,7.009,2.311,9.259.658,2.509,1.116,2.908,2.189,3.443a5.84,5.84,0,0,0,2.387.261l4.866-18.443A4.261,4.261,0,0,0,117.566,88.4Z" transform="translate(-95.94 -87.511)"/>
      <path id="Path_6979" data-name="Path 6979" d="M247.345,104.65a3.645,3.645,0,0,1-1,.857c-.458.261-.856.4-1.316.658-.8.4-.994.8-.994,1.4v1.193h0V120.07a4.441,4.441,0,0,0,2.051-.261c1.05-.535,1.255-1.05,1.255-3.305V105.385h0Z" transform="translate(-218.128 -101.65)"/>
      <path id="Path_6980" data-name="Path 6980" d="M282.58,96.8l6.216-9.2s-2.572-.458-3.9.735a11.09,11.09,0,0,0-1.715,2.112l-2.255,3.312c-.136.2-.259.336-.458.336a.6.6,0,0,1-.458-.336l-2.25-3.307a19.224,19.224,0,0,0-1.715-2.112c-1.316-1.193-3.9-.735-3.9-.735l6.015,9.184L272,105.963s2.708.336,4.04-.857a10.579,10.579,0,0,0,1.653-1.989l2.25-3.305c.137-.2.259-.338.458-.338a.6.6,0,0,1,.458.338l2.25,3.305a14.163,14.163,0,0,0,1.653,1.989c1.316,1.193,3.965.857,3.965.857Z" transform="translate(-241.196 -87.505)"/>
    </g>
  </g>
</svg>
