<svg xmlns="http://www.w3.org/2000/svg" xmlns:xlink="http://www.w3.org/1999/xlink" width="77" height="77" viewBox="0 0 77 77">
  <defs>
    <filter id="Rectangle_2802" x="0" y="0" width="77" height="77" filterUnits="userSpaceOnUse">
      <feOffset dy="1" input="SourceAlpha"/>
      <feGaussianBlur stdDeviation="1.5" result="blur"/>
      <feFlood flood-opacity="0.161"/>
      <feComposite operator="in" in2="blur"/>
      <feComposite in="SourceGraphic"/>
    </filter>
  </defs>
  <g id="Group_7500" data-name="Group 7500" transform="translate(4.5 3.65)">
    <g transform="matrix(1, 0, 0, 1, -4.5, -3.65)" filter="url(#Rectangle_2802)">
      <rect id="Rectangle_2802-2" data-name="Rectangle 2802" width="68" height="68" rx="8" transform="translate(4.5 3.5)" fill="#fff"/>
    </g>
    <g id="Group_7177" data-name="Group 7177" transform="translate(12.61 12.665)">
      <path id="Path_6962" data-name="Path 6962" d="M80.612,160.174H80.59Z" transform="translate(-58.947 -130.011)" fill="#e44d26"/>
      <line id="Line_257" data-name="Line 257" y1="0.004" x2="0.022" transform="translate(21.643 35.141)" fill="#e44d26"/>
      <path id="Path_7341" data-name="Path 7341" d="M190.32,99.125a18.637,18.637,0,0,0,10.5,16.775l-8.878-24.36a18.567,18.567,0,0,0-1.627,7.585Z" transform="translate(-187.23 -77.4)" fill="#464342"/>
      <path id="Path_7342" data-name="Path 7342" d="M225.456,84.218a9.839,9.839,0,0,0-1.538-5.141c-.946-1.534-1.83-2.833-1.83-4.372a3.227,3.227,0,0,1,3.129-3.306h.239a18.639,18.639,0,0,0-28.156,3.51h1.2c1.949,0,4.964-.234,4.964-.234a.769.769,0,1,1,.119,1.534s-1.008.119-2.13.177l6.763,20.223,4.08-12.231-2.9-7.956c-1-.057-1.954-.177-1.954-.177a.772.772,0,0,1,.119-1.538s3.094.239,4.906.239c1.949,0,4.968-.239,4.968-.239a.774.774,0,0,1,.119,1.538s-1.012.119-2.135.177l6.736,20.033,1.861-6.188C224.82,87.666,225.456,85.814,225.456,84.218Z" transform="translate(-191.125 -63.434)" fill="#464342"/>
      <path id="Path_7343" data-name="Path 7343" d="M226.161,112.38l-5.591,16.249a18.63,18.63,0,0,0,11.453-.3,1.984,1.984,0,0,1-.133-.256Z" transform="translate(-204.109 -89.028)" fill="#464342"/>
      <path id="Path_7344" data-name="Path 7344" d="M260.664,88.47a14.378,14.378,0,0,1,.124,1.914,17.656,17.656,0,0,1-1.414,6.679L253.68,113.52A18.645,18.645,0,0,0,260.664,88.47Z" transform="translate(-222.585 -75.687)" fill="#464342"/>
      <g id="Path_1" data-name="Path 1" transform="translate(0.39 0.185)" fill="none">
        <path d="M21.5,0A21.5,21.5,0,1,1,0,21.5,21.5,21.5,0,0,1,21.5,0Z" stroke="none"/>
        <path d="M 21.5 1 C 18.73208045959473 1 16.0474796295166 1.541881561279297 13.52078056335449 2.610580444335938 C 11.07978057861328 3.643039703369141 8.887321472167969 5.121299743652344 7.004310607910156 7.004310607910156 C 5.121299743652344 8.887321472167969 3.643039703369141 11.07978057861328 2.610580444335938 13.52078056335449 C 1.541881561279297 16.0474796295166 1 18.73208045959473 1 21.5 C 1 24.26791954040527 1.541881561279297 26.9525203704834 2.610580444335938 29.47922134399414 C 3.643039703369141 31.92021942138672 5.121299743652344 34.11267852783203 7.004310607910156 35.99568939208984 C 8.887321472167969 37.87870025634766 11.07978057861328 39.35696029663086 13.52078056335449 40.38941955566406 C 16.0474796295166 41.4581184387207 18.73208045959473 42 21.5 42 C 24.26791954040527 42 26.9525203704834 41.4581184387207 29.47922134399414 40.38941955566406 C 31.92021942138672 39.35696029663086 34.11267852783203 37.87870025634766 35.99568939208984 35.99568939208984 C 37.87870025634766 34.11267852783203 39.35696029663086 31.92021942138672 40.38941955566406 29.47922134399414 C 41.4581184387207 26.9525203704834 42 24.26791954040527 42 21.5 C 42 18.73208045959473 41.4581184387207 16.0474796295166 40.38941955566406 13.52078056335449 C 39.35696029663086 11.07978057861328 37.87870025634766 8.887321472167969 35.99568939208984 7.004310607910156 C 34.11267852783203 5.121299743652344 31.92021942138672 3.643039703369141 29.47922134399414 2.610580444335938 C 26.9525203704834 1.541881561279297 24.26791954040527 1 21.5 1 M 21.5 0 C 33.37411880493164 0 43 9.625881195068359 43 21.5 C 43 33.37411880493164 33.37411880493164 43 21.5 43 C 9.625881195068359 43 0 33.37411880493164 0 21.5 C 0 9.625881195068359 9.625881195068359 0 21.5 0 Z" stroke="none" fill="#464342"/>
      </g>
    </g>
  </g>
</svg>
