<svg xmlns="http://www.w3.org/2000/svg" xmlns:xlink="http://www.w3.org/1999/xlink" width="276.104" height="185.396" viewBox="0 0 276.104 185.396">
  <defs>
    <filter id="Rectangle_2942" x="83.946" y="33.188" width="114.122" height="92.999" filterUnits="userSpaceOnUse">
      <feOffset dy="-8" input="SourceAlpha"/>
      <feGaussianBlur stdDeviation="6" result="blur"/>
      <feFlood flood-color="#dedede" flood-opacity="0.29"/>
      <feComposite operator="in" in2="blur"/>
      <feComposite in="SourceGraphic"/>
    </filter>
    <filter id="Path_6808" x="80.03" y="64.704" width="122.101" height="91.523" filterUnits="userSpaceOnUse">
      <feOffset dy="-3" input="SourceAlpha"/>
      <feGaussianBlur stdDeviation="6" result="blur-2"/>
      <feFlood flood-color="#b11a27" flood-opacity="0.365"/>
      <feComposite operator="in" in2="blur-2"/>
      <feComposite in="SourceGraphic"/>
    </filter>
  </defs>
  <g id="Group_7649" data-name="Group 7649" transform="translate(596.366 11100.672)">
    <path id="Path_6691" data-name="Path 6691" d="M2308.752,374.407l-5.4,14.488a1.064,1.064,0,0,1-1.37.627l-25.179-9.38a1.065,1.065,0,0,1-.626-1.371l5.4-14.488a1.065,1.065,0,0,1,1.37-.627l25.179,9.38A1.065,1.065,0,0,1,2308.752,374.407Z" transform="translate(-2629.081 -11429.072)" fill="#ff4051"/>
    <path id="Path_6692" data-name="Path 6692" d="M2347.372,374.408l-.3.8-14.542,3.966a3.4,3.4,0,0,1-3.78-1.371l-8.726-13.061.171-.458a1.065,1.065,0,0,1,1.371-.627l25.177,9.38A1.066,1.066,0,0,1,2347.372,374.408Z" transform="translate(-2667.7 -11429.072)" fill="#ffd3d7"/>
    <path id="Path_6730" data-name="Path 6730" d="M239.136,365.037l-2.471,4.047,21.268,14.51Z" transform="translate(-813.136 -11430.346)" fill="#ff4051"/>
    <path id="Path_6731" data-name="Path 6731" d="M218.477,438.881l1.287,4.64,21.228,4.344Z" transform="translate(-797.141 -11499.018)" fill="#ff8892"/>
    <path id="Path_6732" data-name="Path 6732" d="M151.449,397.958l-35.866-12.225,12.4-4.362Z" transform="translate(-706.652 -11444.711)" fill="#ffb2b9"/>
    <path id="Path_6733" data-name="Path 6733" d="M257.158,341.03l18.8,18.556-11-21.848Z" transform="translate(-831.158 -11406.338)" fill="#fdb2b9"/>
    <path id="Path_6787" data-name="Path 6787" d="M2399.528,1368.863l-2.887-4.066-4.948.616a.552.552,0,0,1-.511-.877l2.975-4-2.115-4.516a.552.552,0,0,1,.675-.757l4.726,1.592,3.641-3.407a.552.552,0,0,1,.928.409l-.054,4.986,4.365,2.41a.552.552,0,0,1-.1,1.009l-4.759,1.489-.944,4.9a.551.551,0,0,1-.991.215Z" transform="translate(-2730.182 -12318.109)" fill="#ffbfc5"/>
    <path id="Path_6788" data-name="Path 6788" d="M78.331,1048.132l-2.281-3.213-3.91.487a.436.436,0,0,1-.4-.692l2.351-3.162-1.671-3.568a.436.436,0,0,1,.534-.6l3.734,1.258,2.877-2.692a.436.436,0,0,1,.734.323l-.043,3.94,3.45,1.9a.436.436,0,0,1-.081.8l-3.76,1.177-.745,3.869a.436.436,0,0,1-.784.169Z" transform="translate(-668.016 -12023.999)" fill="#ffcbcf"/>
    <path id="Path_6789" data-name="Path 6789" d="M437.155,624.591l-4.964-.472-2.769,4.148a.552.552,0,0,1-1-.186l-1.085-4.867-4.8-1.35a.552.552,0,0,1-.131-1.006l4.294-2.536-.2-4.983a.551.551,0,0,1,.916-.436l3.739,3.3,4.678-1.729a.551.551,0,0,1,.7.737l-1.984,4.575,3.09,3.914a.551.551,0,0,1-.485.891Z" transform="translate(-976.247 -11651.938)" fill="#fdb2b9"/>
    <path id="Path_6790" data-name="Path 6790" d="M900.417,84.925l-2.939-3L893.446,83.1a.464.464,0,0,1-.541-.661l1.942-3.722-2.357-3.473a.464.464,0,0,1,.461-.718l4.139.7,2.575-3.316a.464.464,0,0,1,.826.217l.616,4.152,3.948,1.425a.464.464,0,0,1,.049.852l-3.759,1.869-.135,4.2a.464.464,0,0,1-.8.311Z" transform="translate(-1397.282 -11172.396)" fill="#ffb1b8"/>
    <path id="Path_6791" data-name="Path 6791" d="M2095.909,605.538l-4.187-.3-2.248,3.545a.464.464,0,0,1-.843-.137l-1.009-4.075-4.066-1.042a.464.464,0,0,1-.13-.844l3.563-2.219-.265-4.189a.464.464,0,0,1,.762-.385l3.211,2.7,3.9-1.547a.464.464,0,0,1,.6.606l-1.58,3.889,2.677,3.233a.464.464,0,0,1-.39.76Z" transform="translate(-2459.434 -11637.003)" fill="#ffbfc5"/>
    <path id="Path_6795" data-name="Path 6795" d="M701.02,1528.39l-10.138,3.258a2.522,2.522,0,0,1-3.169-1.628l-3.258-10.138a2.522,2.522,0,0,1,1.628-3.169l2.419-.777a1.081,1.081,0,0,1,.661,2.058l-2.42.777a.358.358,0,0,0-.231.45l3.257,10.138a.358.358,0,0,0,.45.231l10.138-3.257a.358.358,0,0,0,.231-.45l-3.257-10.138a.358.358,0,0,0-.45-.231l-2.308.741a1.081,1.081,0,0,1-.661-2.058l2.308-.741a2.521,2.521,0,0,1,3.169,1.628l3.258,10.138A2.522,2.522,0,0,1,701.02,1528.39Z" transform="translate(-1206.833 -12458.853)" fill="#ffd8db"/>
    <path id="Path_6796" data-name="Path 6796" d="M706.451,1466.29l-3.944-2.619a1.08,1.08,0,0,0-1.628.575l-1.365,4.324a1.081,1.081,0,1,0,2.061.651l.43-1.362,3.823,11.9a1.081,1.081,0,0,0,2.057-.661l-3.782-11.771,1.153.765a1.081,1.081,0,1,0,1.2-1.8Z" transform="translate(-1220.138 -12415.018)" fill="#fed8db"/>
    <path id="Path_6797" data-name="Path 6797" d="M1052.133,1551.289a5.062,5.062,0,1,1-5.062-5.062,5.062,5.062,0,0,1,5.062,5.062Z" transform="translate(-1528.845 -12487.779)" fill="#fff"/>
    <path id="Path_6798" data-name="Path 6798" d="M1717.855,202.127a4.127,4.127,0,1,1-4.127-4.127,4.127,4.127,0,0,1,4.127,4.127Z" transform="translate(-2115.95 -11283.447)" fill="#ffe3e6"/>
    <path id="Path_6799" data-name="Path 6799" d="M978.825,1691.688a3.732,3.732,0,1,1,3.732-3.732A3.732,3.732,0,0,1,978.825,1691.688Zm0-6.035a2.3,2.3,0,1,0,2.3,2.3A2.3,2.3,0,0,0,978.825,1685.653Z" transform="translate(-1469.998 -12609.138)" fill="#fff"/>
    <path id="Path_6800" data-name="Path 6800" d="M2282.2,863.753a6.09,6.09,0,1,1,6.09-6.09A6.09,6.09,0,0,1,2282.2,863.753Zm0-9.847a3.758,3.758,0,1,0,3.758,3.758A3.757,3.757,0,0,0,2282.2,853.906Z" transform="translate(-2629.081 -11861.955)" fill="#ff4051"/>
    <path id="Path_6848" data-name="Path 6848" d="M1131.3,821.327a3,3,0,1,1,3-3A3,3,0,0,1,1131.3,821.327Zm0-5.324a2.329,2.329,0,1,0,2.329,2.329A2.329,2.329,0,0,0,1131.3,816Z" transform="translate(-1604.738 -11830.086)" fill="#edf1ff"/>
    <path id="Path_6849" data-name="Path 6849" d="M1466.5,913.693a3.51,3.51,0,1,1,3.509-3.51,3.51,3.51,0,0,1-3.509,3.51Zm0-6.238a2.728,2.728,0,1,0,2.728,2.728,2.728,2.728,0,0,0-2.728-2.728Z" transform="translate(-1862.15 -11828.97)" fill="#ff9fa7"/>
    <path id="Path_6850" data-name="Path 6850" d="M1121.392,778.167a1.631,1.631,0,1,1,1.631-1.631A1.631,1.631,0,0,1,1121.392,778.167Zm0-2.662a1.031,1.031,0,1,0,1.031,1.031A1.031,1.031,0,0,0,1121.392,775.5Z" transform="translate(-1597.223 -11794.528)" fill="#edf1ff"/>
    <path id="Path_6851" data-name="Path 6851" d="M1516.961,870.747a1.911,1.911,0,1,1,1.911-1.911,1.911,1.911,0,0,1-1.911,1.911Zm0-3.119a1.208,1.208,0,1,0,1.208,1.208A1.208,1.208,0,0,0,1516.961,867.628Z" transform="translate(-1907.933 -11794.012)" fill="#ffb1b8"/>
    <path id="Path_6852" data-name="Path 6852" d="M1535.46,912.075a1.331,1.331,0,1,1-1.331-1.331A1.331,1.331,0,0,1,1535.46,912.075Z" transform="translate(-1923.541 -11832.548)" fill="#ff4051"/>
    <path id="Path_6853" data-name="Path 6853" d="M1697.73,898.622a1.794,1.794,0,1,1,1.794-1.794A1.794,1.794,0,0,1,1697.73,898.622Zm0-3.119a1.325,1.325,0,1,0,1.325,1.325A1.325,1.325,0,0,0,1697.73,895.5Z" transform="translate(-2067.011 -11818.733)" fill="#edf1ff"/>
    <path id="Path_6854" data-name="Path 6854" d="M1470.468,242.218a2.49,2.49,0,1,1,2.49-2.49A2.49,2.49,0,0,1,1470.468,242.218Zm0-4.237a1.747,1.747,0,1,0,1.747,1.747,1.747,1.747,0,0,0-1.747-1.747Z" transform="translate(-1903.457 -11317.956)" fill="#ffe3e6"/>
    <g id="Group_7648" data-name="Group 7648" transform="translate(-498.396 -11054.864)">
      <path id="Path_6801" data-name="Path 6801" d="M1087.276,233.695l-35.5,29.218a8.587,8.587,0,0,0-2.756,6.3V298.91l86.1-1.126V269.217a8.587,8.587,0,0,0-2.756-6.3l-35.5-29.218A7.06,7.06,0,0,0,1087.276,233.695Z" transform="translate(-1048.96 -229.481)" fill="#ff4051"/>
      <g transform="matrix(1, 0, 0, 1, -97.97, -45.81)" filter="url(#Rectangle_2942)">
        <rect id="Rectangle_2942-2" data-name="Rectangle 2942" width="78.122" height="56.999" transform="translate(101.95 59.19)" fill="#fff"/>
      </g>
      <path id="Path_6802" data-name="Path 6802" d="M1156.791,446.874h57.727c1.594,0,2.887.812,2.887,1.813v1.282c0,1-1.293,1.813-2.887,1.813h-57.728c-1.594,0-2.887-.812-2.887-1.813v-1.282C1153.9,447.686,1155.2,446.874,1156.791,446.874Z" transform="translate(-1142.516 -418.609)" fill="#fff0f2"/>
      <path id="Path_6803" data-name="Path 6803" d="M1213.6,526.07h-54.753a5.1,5.1,0,0,1-2.2-.479c-1.581-.772-2.736-1.69-2.736-2.777v-.124c0-1.321,1.705-2.392,3.809-2.392H1213.6c2.1,0,3.809,1.071,3.809,2.392v.124C1217.4,524.136,1215.7,525.207,1213.6,526.07Z" transform="translate(-1142.516 -483.182)" fill="#fff0f2"/>
      <path id="Path_6804" data-name="Path 6804" d="M1156.79,598.17h57.727c1.595,0,2.887.812,2.887,1.813v1.282c0,1-1.293,1.813-2.887,1.813H1156.79c-1.594,0-2.887-.812-2.887-1.813v-1.282C1153.9,598.981,1155.2,598.17,1156.79,598.17Z" transform="translate(-1142.516 -551.664)" fill="#fff0f2"/>
      <path id="Path_6805" data-name="Path 6805" d="M1157.38,674.46h56.547c1.92,0,3.477.977,3.477,2.183v1.545c0,1.206-1.557,2.183-3.477,2.183H1157.38c-1.92,0-3.477-.978-3.477-2.183v-1.545C1153.9,675.437,1155.46,674.46,1157.38,674.46Z" transform="translate(-1142.516 -618.756)" fill="#fff0f2"/>
      <g transform="matrix(1, 0, 0, 1, -97.97, -45.81)" filter="url(#Path_6808)">
        <path id="Path_6808-2" data-name="Path 6808" d="M1135.121,598.865h-86.1V543.342l43.05,24.2,43.05-24.2Z" transform="translate(-950.99 -457.64)" fill="#ff4051"/>
      </g>
      <path id="Path_6829" data-name="Path 6829" d="M1087.276,689.829l-38.256,35.384h86.1l-38.257-35.384C1094.158,687.327,1091.208,685,1087.276,689.829Z" transform="translate(-1048.96 -629.795)" fill="#ff4051"/>
      <path id="Path_6856" data-name="Path 6856" d="M-606.45-12232.428l3.481,1.953-37.349,34.486Z" transform="translate(640.318 12291.329)" fill="#981d28"/>
      <path id="Path_6857" data-name="Path 6857" d="M-636.837-12232.428l-3.481,1.953,37.349,34.486Z" transform="translate(689.095 12291.406)" fill="#981d28"/>
      <g id="Group_7647" data-name="Group 7647" transform="translate(71.45 0)">
        <ellipse id="Ellipse_451" data-name="Ellipse 451" cx="8.81" cy="8.81" rx="8.81" ry="8.81" transform="translate(0 7.495)" fill="#ff4051"/>
        <g id="Group_4425" data-name="Group 4425" transform="translate(2.517 10.012)">
          <rect id="Rectangle_2094" data-name="Rectangle 2094" width="15.104" height="15.104" transform="translate(0 0)" fill="none" opacity="0"/>
          <path id="Path_5216" data-name="Path 5216" d="M40.911,9.947l-.634-.634V6.853a3,3,0,0,0-2.212-3.107V3.412a.737.737,0,0,0-1.475,0v.334a2.989,2.989,0,0,0-2.212,3.107V9.311l-.636.636a.492.492,0,0,0,.345.841H40.56a.492.492,0,0,0,.352-.841ZM39.294,9.8H35.359V6.853a1.98,1.98,0,1,1,3.933,0Zm-1.966,2.458a.986.986,0,0,0,.983-.983H36.344a.984.984,0,0,0,.981.981Z" transform="translate(-30.888 -1.05)" fill="#fff"/>
        </g>
        <rect id="Rectangle_2943" data-name="Rectangle 2943" width="2.028" height="6.084" rx="1.014" transform="translate(8.671 0.593) rotate(-17)" fill="#ff4051"/>
        <rect id="Rectangle_2944" data-name="Rectangle 2944" width="2.028" height="6.084" rx="1.014" transform="translate(17.19 0.264) rotate(35)" fill="#ff4051"/>
        <rect id="Rectangle_2945" data-name="Rectangle 2945" width="2.028" height="6.084" rx="1.014" transform="translate(22.004 7.678) rotate(89)" fill="#ff4051"/>
        <ellipse id="Ellipse_452" data-name="Ellipse 452" cx="2.028" cy="2.028" rx="2.028" ry="2.028" transform="translate(22.074 15.606)" fill="#ffbac0"/>
      </g>
    </g>
  </g>
</svg>
