<?xml version="1.0" encoding="utf-8"?>
<!-- Generator: Adobe Illustrator 19.0.0, SVG Export Plug-In . SVG Version: 6.00 Build 0)  -->
<svg version="1.1" id="Layer_1" xmlns="http://www.w3.org/2000/svg" xmlns:xlink="http://www.w3.org/1999/xlink" x="0px" y="0px"
	 viewBox="0 0 970 620" style="enable-background:new 0 0 970 620;" xml:space="preserve">
<style type="text/css">
	.st0{fill:#EAC5B0;}
	.st1{fill:#3F60B2;}
	.st2{fill:#E5D1BD;}
	.st3{fill:#212940;}
	.st4{fill:#D8E4F2;}
	.st5{fill:#314F8F;}
	.st6{fill:#A1BDEB;}
	.st7{fill:#FFFFFF;}
	.st8{opacity:7.000000e-002;}
	.st9{fill:#2F4862;}
	.st10{fill:#587BC9;}
	.st11{fill:#F7F7F8;}
	.st12{opacity:0.1;fill:#212940;}
</style>
<g>
	<g>
		<g>
			<path class="st0" d="M254.3,277.2c-0.2-0.2-0.4-0.5-0.7-0.7c-2.5-1.5-4.7-0.9-7.5-1.7c-1.2-0.4-2.2-3.5-4.2-1.8
				c-0.8,0.7-2.4,2.5-4,3.9c-2.3,2.1-6.5,3.3-10,3.6c-13.7,1.3-27.4-1.1-40.9-3.9c-0.8-0.2-1.6-0.3-2.2-0.8
				c-1.1-0.9-1.2-2.5-1.3-3.9c-0.4-6.5-1.4-13-2.9-19.3c-1.4-5.6-3.3-11.3-7-15.8c-3.7-4.5-9.5-7.6-15.2-6.9
				c-4.3,0.5-8.3,3.3-10.3,7.2c-5,9.6,5,21.8,9.4,29.9c4.2,7.7,8.9,15.1,14.2,22.1c0.6,0.9,1.3,1.8,2.3,2.3c1,0.6,2.2,0.7,3.3,0.8
				c14.8,1.5,29.6,1.8,44.5,1.7c4.1,0,7.7-2.2,11.4-2.2c2.4,0,4.3,1.8,6.6,2.3c2.3,0.5,5.3,0.6,7.6,0.2c4.5-0.7,6.7-4.9,8.9-8.4
				c0.6-0.9,0.9-1.4,1-2.4c0.1-1.6-0.7-2.8-1.4-4.2C255.4,278.7,254.9,277.9,254.3,277.2z"/>
		</g>
		<g>
			<path class="st1" d="M151.9,269.1c4.4,4.4,9.1,8.2,12.5,13.7c2.4,3.8,4.3,8.1,8.1,10.6c2.9,1.9,6.5,2.4,10,2.8
				c2.7,0.3,5.5,0.5,8.2,0.7c1.4-6.4,2.8-12.9,4.2-19.3c-2.6-1-5.4-1.6-8.2-1.6c-3.2-19.9-5.3-39.8-8.2-59.7
				c-1.3-8.9-2.8-18.2-7.7-25.8c-10.6-16.2-35.5-11.4-37.8,8.4c-1.7,15.5,0.6,31.5,5.7,46.1c2.3,6.4,5,14.4,9.3,19.7
				C149.3,266.3,150.6,267.7,151.9,269.1z"/>
		</g>
	</g>
	<g>
		<path class="st2" d="M64.2,572.4c-3.1,0.2-6-0.9-9-1.2c0.1-10.7,1.3-21,3.6-31.5c4.7,5.2,8.7,2.2,8.5,12
			C67.2,554.8,63.6,567.5,64.2,572.4z"/>
		<path class="st3" d="M54.5,565.8c-3.6-1.3-4.4,7.2-4.4,9.2c0,1.2,0.1,2.4-0.2,3.6c-0.3,1.3-1.2,2.3-2,3.4
			c-1.7,2.2-3.4,4.3-5.2,6.5c-0.8,1-1.6,2-2,3.1c-1,2.9,0.7,6.3,3.4,7.7c9.5,4.8,18.2-6.8,20.3-14.5c0.3-1.2,0.5-2.4,0.8-3.6
			c0.5-2.5,2.4-7.9,1.4-10.3c-1.1-2.8-4.6-0.8-6.9-1.8C57.6,568.1,55.9,566.3,54.5,565.8z"/>
	</g>
	<path class="st4" d="M122.2,396.1c-8.9,24.2-19.1,47.9-25,73.2c-7.2,31.3-18.9,61.8-24.9,93.2c-3.9,0.1-7.7,0-11.6-0.5
		c-4.4-0.5-11.4-1.7-13-6.5c-0.8-2.5,0-6.5,0.2-9c0.4-8.2,1-16.3,1.6-24.5c1.7-23.1,2.9-46.5,7.1-69.2c4.5-23.9,8.7-48,12.7-71.9
		c2-12.4,4.5-24.7,7.6-36.8c0.8-3.1,9.1-35.4,10.7-35.2c19.2,3.1,37.2,9.4,54,19.4c1.6,1,3.2,2.1,3.8,3.8c0.6,1.7,0.1,3.2-0.5,4.8
		c-5,14.9-11.7,28.8-17,43.7C126.1,385.7,124.2,390.9,122.2,396.1z"/>
	<g>
		<path class="st2" d="M123.9,570.6c2.9,1.1,6,0.9,9,1.5c3-10.3,5-20.4,5.9-31.2c-6.1,3.6-8.9-0.5-11.7,8.9
			C126.2,553,125.9,566.2,123.9,570.6z"/>
		<path class="st3" d="M135.9,569.1c0,5.8,4.6,12,7.1,17.3c0.3,0.6,0.6,1.3,0.6,1.9c0,1-0.6,1.9-1.2,2.7c-0.8,1.1-1.7,2.3-3,2.8
			c-1.3,0.5-2.7,0.3-4.1,0c-2.3-0.5-4.5-1.1-6.7-1.8c-0.5-0.2-1.1-0.4-1.6-0.7c-0.5-0.4-0.8-1.1-1.2-1.7c-1.6-3.1-2.9-5.4-2.8-8.9
			c0.1-3.6,0.5-7.3-0.1-10.9c-0.3-1.7-0.8-4,0.7-4.9c1.1-0.7,3.3,0.3,4.5,0.5c2.2,0.4,4.2,0.2,6.3,1.4c0.4,0.2,0.8,0.5,1.1,0.9
			C135.9,568.1,135.9,568.6,135.9,569.1z"/>
	</g>
	<path class="st4" d="M120.9,385.1c1.3,25.8,4,51.4,2.1,77.3c-2.4,32-0.4,64.6-4,96.4c3.7,1.3,7.4,2.3,11.2,3
		c4.4,0.8,11.4,1.8,14.3-2.4c1.5-2.1,1.9-6.2,2.5-8.6c2.1-7.9,3.9-15.9,5.8-23.9c5.2-22.5,11.1-45.2,13.8-68.2
		c2.9-24.2,5.9-48.4,9.3-72.4c1.7-12.4,3-24.9,3.7-37.4c0.2-3.2,1.9-36.5,0.3-36.7c-19.3-2.8-38.4-2.1-57.3,2.4
		c-1.8,0.4-3.7,1.1-4.7,2.5c-1.1,1.5-1,3-1,4.7c0.4,15.7,2.6,31,3.3,46.7C120.3,374,120.6,379.5,120.9,385.1z"/>
	<path class="st1" d="M110.1,178.5c-0.3,0.1-0.6,0.2-0.9,0.3c-5.2,2-9.6,5.5-13.9,9c-6.5,5.2-9.7,7.5-12.2,15.3
		c-2.3,7.2-3.8,14.8-5.2,22.3c-7.3,38.2-8.7,76.2-14,114.7c-1.4,10.5-2.5,22.8,5.2,30c13.7-10.7,31-11.3,47.7-11.3
		c11.7,0,23.1-3.8,34.9-2.5c11.2,1.2,21-1.6,32.4-0.8c2.7,0.2,6.2,0.1,7.3-2.4c-3.9-11.8-3.9-24.5-4.8-36.9
		c-2.3-32.1-12.9-62.9-17.2-94.8c-1.5-10.8-2.2-28.8-10.6-37c-9.1-8.9-29.9-9.1-41.6-7.4C114.7,177.2,112.3,177.7,110.1,178.5z"/>
	<path class="st4" d="M140,214.3c-1.5-1-3-2.1-4.6-3.1c3.1-3.1,6.1-6.1,9.2-9.2c1.3-1.3,2.6-2.6,3.3-4.3c0.8-1.8,0.8-3.8,0.7-5.8
		c0-2.7-0.1-5.5-1.2-8c-2-4.5-8.8-7.1-13.5-6.9c-5.1,0.2-10.1,2.4-14.7,4.5c-1.5,0.7-3,1.4-4.1,2.6c-2.5,2.5-3,6.5-2.1,9.9
		c1,3.4,3.1,6.4,5.4,9.1c2.3,2.7,4.7,5.3,6.4,8.5c-4.1,2.4-8.2,4.7-12.4,7.1c-0.6,0.3-1.2,0.7-1.3,1.3c-0.1,0.6,0.2,1.2,0.5,1.7
		c4.3,6.8,9.3,15.9,9.3,24.1c0.1,9.9,0.9,20,1.3,29.9c0.8,20.7,1.1,41.5,0.8,62.3c-0.1,4.8-0.2,9.6-0.3,14.3
		c5.3,0.3,10.7,0.3,16-0.2c1.1-0.1,2.4-0.3,3.2-1c1-1,1.1-2.5,1.2-3.9c0.1-3.5,0.1-7,0.1-10.4c-0.2-20.5-2.2-40.9-3.2-61.4
		c-0.9-17.4-3.2-37.9,8.2-52.6c0.3-0.4,0.7-0.9,0.7-1.5c0-0.9-0.8-1.5-1.5-2C145.1,217.7,142.6,216,140,214.3z"/>
	<g>
		<g>
			<g>
				<g>
					<path class="st0" d="M122.8,178.9c0.2,0.4,0.5,0.7,0.8,1.1c1.4,1.3,3.2,2.1,5.1,2.4c2.5,0.4,5-0.1,7.4-0.5
						c3.3-0.6,3.2-2.6,3.7-5.6c0.3-1.6,0.4-3.3,0.5-5c0.1-0.9-0.3-4.2,0.3-4.8c0.4-0.4,2-0.3,2.7-0.7c1.1-0.6,2-1.6,2.7-2.7
						c1.1-1.7,1.7-3.6,2.2-5.5c1-3.3,2-6.6,3-9.9c1-3.4,2.1-6.8,2.4-10.3c0.5-5.3-0.4-12.8-4.4-16.7c-3.7-3.5-9-4.8-13.9-5.4
						c-6.5-0.8-13.2,0.4-18.8,3.8c-2.3,1.4-4.4,3.2-5.7,5.7c-2.1,3.8-1.9,8.6-1.7,13c0.2,4.1,0.4,8.2,0.6,12.3
						c0.2,4.7,0.8,10.2,4.4,12.7c1.9,1.4,4.3,1.7,6,3.4c2,2.2,1.9,5.5,2,8.2C122.2,176.1,122.1,177.6,122.8,178.9z"/>
				</g>
				<path class="st3" d="M143.3,125.8c0.2,0.4,0.4,0.8,0.6,1.2c0.8,2.2,0.2,4.6,1,6.8c1.2,3.5,5.2,5.5,5.8,9.2
					c0.5,2.9-1.5,5.8-1.7,8.7c-0.2,3.3,1.9,6.3,1.6,9.6c-0.3,2.8-2.1,6.7-3.7,9c0.5-0.7,5.2-0.4,6.4-1.2c1.9-1.1,2.1-1.9,2.6-3.8
					c0.5-1.9,0.1-3.8,1-5.8c1.1-2.4,3.2-4.2,4-6.8c1-3.5-0.8-7.2-0.7-10.9c0.2-5.5,5-10.8,3.3-16.1c-1-3.1-4-5.1-5.7-7.9
					c-1.3-2.1-1.8-4.6-2.6-6.9c-0.9-2.3-2.4-4.6-4.8-5.3c-1.3-0.4-2.7-0.2-4.1-0.5c-2.3-0.4-4.3-2-6.5-2.8
					c-3.2-1.1-8.9,2.2-10.8,4.9c-1.9,2.7-0.9,5,1,7.4C133,118.7,140.6,121.3,143.3,125.8z"/>
			</g>
			<path class="st3" d="M99.9,109.4c-1.9,1.4-4.3,2.4-6.1,4.1c-3.4,3.2-4.1,8.4-4.2,13.1c-0.1,4.2-1.9,7.9-1.5,12.3
				c0.3,2.9,1.6,5.9,3.9,7.6c3,2.2,7.6,2.5,9,5.9c1.4,3.7-2.4,8.4-0.1,11.6c1.3,1.8,3.8,2,5.7,3.2c2.1,1.3,3.1,3.7,4.4,5.8
				c1.3,2.1,3.2,4.2,5.6,4.3c0.1-3.7,0.2-6.7-1.4-10.1c-0.9-2-3.7-5.7-1.6-7.8c1.3-1.8,4.5-2.4,4.5-4.6c0-1-0.7-1.9-1.3-2.8
				c-2.2-3.4-2.5-7.9-0.9-11.7c1.5-3.8,4.6-6.8,8.3-8.5c4.3-2.1,3.6-3.1,4.8-7.2c1.1-3.8,3.3-4.6,6.7-6c3-1.2,4-2,5.1-4.8
				c0.8-2.1,1.8-4.6,0.6-6.9c-0.9-1.8-2.7-3.2-4.3-4.4c-3.5-2.6-7.3-5.4-11.7-5.1c-2.4,0.2-4.7,1.3-7.1,1.4
				c-1.6,0.1-3.2-0.3-4.8-0.3c-2.7-0.1-5.6,0.7-7.8,2.4c-2.2,1.6-2.2,3.4-3.4,5.7C101.8,107.8,100.9,108.6,99.9,109.4z"/>
			<path class="st3" d="M109.6,94c0.4-2.6,0.2-6-2.3-6.9c-1.4-0.5-2.9,0-4.3-0.2c-3-0.6-4-4.3-5.6-6.9c-0.2-0.4-0.5-0.8-0.9-1
				c-0.6-0.3-1.3,0-1.9,0c-3,0.4-5.3-2.6-8.1-3.7c-3.5-1.3-7.9,0.9-9,4.5c-0.4,1.5-0.4,3.1-0.8,4.5c-1.6,6-10.5,8.6-10.7,14.8
				c-0.2,4.2,4,8.2,2.4,12.1c-1,2.5-4.2,4.2-3.9,6.9c0.2,1.7,2.1,2.9,3.8,2.9c1.7,0,3.3-1,4.6-2.1c2.1-1.8,3.6-4.1,5.6-6
				s4.6-3.5,7.3-3.1c2.6,0.3,5,2.4,7.7,1.9c2.1-0.4,3.7-2.2,5.7-2.8c1.9-0.5,3.9,0.3,5.9,0.4c2,0.1,4.4-0.9,4.5-2.9
				c0-0.5-0.1-1,0-1.4c0.4-1.3,2.6-1.2,3-2.5c-1-1.6-2.5-1-3.2-3.1C108.9,97.8,109.3,95.7,109.6,94z"/>
		</g>
	</g>
	<g>
		<g>
			<g>
				<path class="st0" d="M356.6,133.3c-2.4,5.2-6.3,9.5-9.5,14.3c-3.1,4.6-4.2,8.8-5,14.2c-0.6,3.9-2,6.9-6.7,7.6
					c-8.8,1.3-6.3-6-8.3-11.3c-2.3-6.1-7.2-10.8-10.6-16.3c-9.9-15.6-7-46.5,13.4-53.1C352.4,81.5,363.8,117.5,356.6,133.3z"/>
			</g>
		</g>
		<g>
			<path class="st3" d="M320.9,118.2c-2.5,0.1-5.3,0.3-7.2,2c-1.9,1.7-1.7,5.4,0.8,5.8c2.3,0.4,5.2-2,6.6-0.3c0.8,1,0.1,2.5-0.5,3.7
				c-2.3,4.5-3,9.7-2,14.5c-0.9,0.9-2.4,0-3.2-0.9c-4.1-4.4-7.2-9.6-9.3-15.3c-0.8,1.4-2,2.5-3.4,3.3c0.8-2.1,0.3-4.4-0.2-6.6
				c-1.9-7.9-3.2-17.2,2.3-23.6c3-3.5,7.4-5.4,12-6.3c4.5-0.8,9.1-0.6,13.7-0.4c1.9,0.1,4.3,0.5,4.8,2.3c-4.3,1.7-8.7,5-10.8,9.1
				C323.7,106.8,321.1,118.2,320.9,118.2z"/>
		</g>
		<g>
			<path class="st3" d="M329.9,99.2c-0.2,0.1-0.3,0.2-0.5,0.3c-1.9,1.5-3.8,3.3-6.1,3.9c-3.4,0.9-7-0.7-10.3,0.5
				c-3.7,1.3-6.2,5.7-8.9,8.4c-4.4,4.3-10,7.5-15.9,9.3c-3,0.9-6.2,1.5-9.3,1.7c-1.4,0.1-3.3,0.4-4.7,0c-1.9-0.5-1.8-1.4,0.2-2
				c6.3-2,8.2-10.8,7.7-16.6c-0.4-4.6-2-9.4-0.2-13.7c1.3-3.3,4.2-4.9,7-6.8c3.1-2.1,6.4-1.5,9.9-2.5c3.6-1,6.6-3.9,10.3-4.6
				c3.9-0.8,7.8,1,11.7,1.7c3.2,0.6,6.6,0.6,9.8-0.1c2.9-0.6,5.7-1.8,8.6-1.8c4.4,0,8.4,2.8,10.9,6.3c3.6,5,5.9,13.6,4.7,20.1
				c0.2-1-3.2-4.7-3.9-5.5c-1.5-1.7-3.3-3.3-5.6-3.5C340.2,93.6,334,96.2,329.9,99.2z"/>
		</g>
	</g>
	<g>
		<g>
			<path class="st0" d="M924.6,267.7c-0.3-0.3-0.5-0.5-0.8-0.7c-2.9-1.6-5.5-0.7-8.7-1.5c-1.5-0.3-2.7-4-5-1.8
				c-0.8,0.8-2.6,3-4.4,4.8c-2.6,2.5-7.3,4.1-11.4,4.7c-15.8,2.3-31.8,0.2-47.6-2.3c-0.9-0.1-1.8-0.3-2.6-0.9
				c-1.3-1-1.6-2.8-1.7-4.4c-0.8-7.5-2.3-15-4.4-22.2c-1.9-6.5-4.5-12.9-9-17.9c-4.5-5-11.4-8.3-18-7.2c-5,0.9-9.4,4.3-11.6,8.8
				c-5.3,11.3,7,24.9,12.5,34.1c5.3,8.7,11.1,17,17.6,24.9c0.8,1,1.6,2,2.7,2.5c1.2,0.6,2.6,0.7,3.9,0.8c17.2,1,34.4,0.4,51.6-0.5
				c4.7-0.2,8.7-3,13.1-3.1c2.8-0.1,5.1,1.8,7.7,2.3c2.6,0.5,6.2,0.4,8.8-0.1c5.2-1.1,7.4-6,9.9-10.1c0.6-1,1-1.7,1.1-2.8
				c0.1-1.8-0.9-3.3-1.9-4.7C926,269.2,925.3,268.4,924.6,267.7z"/>
		</g>
		<g>
			<path class="st1" d="M803.7,262.2c3.9,5.8,7.8,11.7,11.1,18c2.2,4.2,4.4,8.7,8.3,11.3c2.5,1.7,5.4,2.5,8.4,3.2
				c18.1,4.4,37,5.4,55.4,3c1.7-0.2,3.5-0.5,4.9-1.6c2.4-1.9,2.6-5.3,2.6-8.3c0-3.5,0-7.1,0-10.6c0-1,0-2.2-0.7-3
				c-0.6-0.8-1.6-1.1-2.6-1.3c-11.4-3.1-23-5.5-34.7-7.1c-3.7-0.5-7.7-1.1-10.6-3.5c-6.1-5.3-6.2-25-7.6-33.1
				c-1.6-9.3-2.9-18.7-4.7-27.9c-2-10.3-4.2-20.9-10.3-29.4c-13.1-18.1-41.7-11.3-43.3,11.8c-1.1,17.4,2.1,35.2,8.4,51.4
				C792.3,244.9,797.9,253.5,803.7,262.2z"/>
		</g>
	</g>
	<g>
		<path class="st0" d="M470.1,157.3c0.4,0,0.7,0.1,1.1,0.2c3.1,1.1,4,3.5,6.6,5.5c1.2,0.9,4.6-0.5,4.5,2.5c-0.1,1.1-0.6,3.8-0.8,6.2
			c-0.2,3.5,1.6,8,3.7,11.3c8.2,13.1,19.8,23.6,31.5,33.6c0.7,0.6,1.4,1.2,2.2,1.4c1.5,0.4,3-0.6,4.3-1.5c6-4.1,12.4-7.7,19.1-10.7
			c6-2.6,12.3-4.8,18.9-4.6c6.5,0.2,13.3,3.1,16.6,8.8c2.5,4.2,2.8,9.6,0.8,14.1c-5,11-22.7,10.5-33,12.1
			c-9.7,1.6-19.5,2.4-29.3,2.6c-1.2,0-2.5,0-3.6-0.4c-1.2-0.5-2.1-1.4-3-2.4c-11.5-12-21.9-25-32-38.3c-2.8-3.6-3.3-8.3-5.9-11.6
			c-1.7-2.1-4.5-2.6-6.5-4.3c-2-1.7-4.2-4.3-5.4-6.6c-2.5-4.5-0.2-9.3,1.3-13.6c0.4-1.1,0.6-1.8,1.4-2.6c1.3-1.2,3-1.4,4.7-1.6
			C468.1,157.3,469.1,157.3,470.1,157.3z"/>
	</g>
	<g>
		<path class="st4" d="M550.1,244.2c-8.5,1-17,1.2-25.3,0.5c-3-0.2-5.9-0.6-8.7-1.7c-4.3-1.7-7.6-5.2-10.8-8.5
			c-11.4-12-23-24.1-31.8-38.2c4.1-2.5,8.3-4.9,12.4-7.4c0.8-0.5,1.6-1,2.6-0.9c1.2,0,2.1,0.9,3,1.7c7.3,7.1,14.5,14.2,21.8,21.3
			c1.1,1.1,2.4,2.3,3.9,2.6c1.2,0.2,2.4-0.1,3.5-0.4c19.9-5.7,37.6-20.4,55.5-30.4c8.8-5,18-10,28.1-10.8
			c21.6-1.7,34.5,23.7,18.4,39.3C603.7,229.7,577,241.1,550.1,244.2z"/>
	</g>
	<g>
		<g>
			<g>
				<g>
					<g>
						<polygon class="st0" points="575.3,556.6 575.7,581.2 561.1,581.4 560.7,554.1 						"/>
					</g>
				</g>
				<g>
					<g>
						<path class="st3" d="M562.4,577.5l12.7,4.2l3.8,4.1l-0.6,9.6l-34.3,2.7l0,0c-2.9-4.2-1-9.9,3.8-11.6l1.6-0.5L562.4,577.5z"/>
					</g>
				</g>
			</g>
		</g>
		<g>
			<g>
				<g>
					<g>
						<g>
							<g>
								<polygon class="st0" points="680.3,533 690,555.6 676.6,561.3 665.9,536.3 								"/>
							</g>
						</g>
						<g>
							<g>
								<path class="st3" d="M676.8,561.8c0.5-0.5,1-1,1.7-1.5c1.6-1.2,14.6-8.1,15.7-5c0.2,0.5,0.1,1.1,0.1,1.6
									c-1.1,8.9-3.2,17.7-6.2,26.2c-1.3,3.6-3.3,7.6-7,8.5c-1.6,0.4-3.4,0.1-5-0.3c-2.4-0.5-4.8-1.3-7.1-2.2
									c-0.8-0.3-1.8-0.7-2.2-1.5c-0.9-1.6,0.7-3.5,2.3-4.3c1.6-0.9,3.6-1.5,4.4-3.1c0.4-0.7,0.4-1.6,0.4-2.4
									C674.1,571.7,673.1,565.9,676.8,561.8z"/>
							</g>
						</g>
					</g>
				</g>
				<g>
					<path class="st5" d="M588.8,442.6c4.8,21.9,18.4,37.6,33,53.6c16.7,18.4,32.4,37.7,47.1,57.8c6.3-2.6,12.6-5.3,19-7.9
						c-5.3-30.7-19.9-58.9-31.2-88c-7.8-20.2-14.2-41.5-14.5-63.4c-0.2-10.9,2.5-20.8,3.9-31.3c1.7-13.1,1.8-26.5,3.4-39.6
						c0.5-4.4,0.8-9.6-2.6-12.5c-1.5-1.3-3.5-1.8-5.4-2.2C569.5,295.3,579.7,401.1,588.8,442.6z"/>
				</g>
			</g>
		</g>
		<path class="st5" d="M647.4,328c0-13.3-1.6-26-4.1-35.8c-20.5-1.1-43.6,1.2-63.8,5.3c-19.8,4-32.1,8.3-32.3,29.8
			c-0.3,39.5-15.7,73.1-22.3,111c-3.9,22,2.8,41.8,10.2,62.2c8.5,23.4,15.7,47.2,21.6,71.3c6.9,0,13.7-0.1,20.6-0.1
			c6.8-30.4,4-62,4.5-93.2c0.4-21.7,2.6-43.8,10.6-64.1c8.7-22.3,21.3-13.4,35.8-26.4C642.3,375.2,647.3,350.9,647.4,328z"/>
	</g>
	<g>
		<path class="st4" d="M624.1,176.1c2.3,1.8,4.2,3.9,6.2,6c1.8,1.9,3.5,3.7,5.3,5.6c6.1,6.5,9.1,16.1,11.7,24.4
			c13.7,43.7,18.7,103.6,9.8,149.2c-33.8,2.9-73-5.6-106.7-10.2c-3.3-0.4-7-1.2-8.7-4c-1-1.7-1.1-3.8-1.1-5.8
			c0-29,6.1-60.1,11.9-88.6c2.4-12,5.4-24,9.2-35.7c4.1-12.4,8.6-25.7,18.1-35.1c10.1-10,29.6-15,42.3-7.1
			C622.8,175.1,623.5,175.6,624.1,176.1z"/>
	</g>
	<g>
		<g>
			<g>
				<path class="st0" d="M621.1,182.3c0.9-3.9,0.7-8.5,1.2-11.9c0.8-0.4,1.6-0.8,2.3-1.3c14.1-9,37.8-57.4,0.2-68.2
					c-34.1-9.8-32.4,37.1-25.7,56.7c1.1,3.4,2.7,6.5,4.9,9.3c1.5,1.9,1.9,1.5,1.7,3.7c-0.3,3.3-2.9,6.1-3.3,9.5
					c-0.7,5.2,1.2,12,2.4,17.1c4.2-2.7,8.3-5.5,12.5-8.2C619.4,187.5,620.5,185.1,621.1,182.3z"/>
			</g>
		</g>
		<g>
			<g>
				<g>
					<g>
						<path class="st3" d="M591.1,139.9c2.1,6.2,5,12.2,8.7,17.7c-0.2-11.6,1.2-23.1,4.2-34.3c0.2-0.9,0.4-1.8,0-2.6
							c-0.4-0.7-1.3-1-2.1-1.1C587.4,116.4,587.4,129,591.1,139.9z"/>
					</g>
				</g>
			</g>
			<g>
				<g>
					<g>
						<g>
							<path class="st3" d="M628.8,157.3c2.3,3.2,7.4,2.4,10.9,0.6c14.6-7.3,23.2-25,20-41.1c-2.7-13.4-19.6-23.5-23-6.9
								c-1.2,5.9,2.4,14.1,1.6,20.6C637.1,139.9,632.7,148.9,628.8,157.3z"/>
						</g>
					</g>
				</g>
				<g>
					<g>
						<g>
							<path class="st3" d="M591.2,88.6c-1.6,0.6-3.3,1.3-5.1,2c-3.6,1.4-6.3,1.9-10-0.2c-1.1-0.6-8.3-7.4-6.5-8.8
								c-11.5,9.3-2,23,2.3,32.6c2.9,6.5,3.5,15.7,10,19.9c7.2,4.7,12.1-1.2,18.6-3.9c5.7-2.3,11.9-3.6,17.8-5.7
								c9.7-3.5,24.1-9.5,20.9-22.4c-3.7-15-19-18.8-32.6-17.6C600.6,85.1,596,86.7,591.2,88.6z"/>
						</g>
					</g>
				</g>
			</g>
		</g>
	</g>
	<path class="st5" d="M599.6,213.8c-1.6,9.9-1.6,20-3,30c-0.8,5.5-2,10.8-3,16.2c-2.8,15.4-3.7,31-4.6,46.6
		c-0.2,3.1-0.4,6.2-0.6,9.2c-0.1,1.9-0.9,5.2,0,7c1,1.9,3.4,2.1,5.2,2.8c2.6,1.1,5,2.5,7.2,4.4c4-1.2,6.6-5.1,7.5-9.1
		c0.9-4,0.4-8.2,0-12.3c-3.9-36-3.2-72.6,2.1-108.4c1.6,0.7,3.5-0.5,4.3-2c0.7-1.6,0.6-3.4,0.5-5.2c0,0.3-8.3,0-9-0.1
		c-5-0.2-6.4,0.9-6.4,6.4c2.4,1.2,2,4.7,1.3,7.3C600.5,209,600,211.4,599.6,213.8z"/>
	<g>
		<g>
			<g>
				<g>
					<g>
						<path class="st0" d="M384.6,581.5c3.1,0.1,6-0.6,9.1-0.9c1.6-30-1.3-61.5-2.5-91.7c-7.7,0.4-15.4,0.8-23.1,1.2
							c5.4,16.1,9.2,32.8,11.5,49.6C379.8,542.5,384.1,581.5,384.6,581.5z"/>
					</g>
					<g>
						<path class="st3" d="M394.6,574.9c1.9-0.3,3,0.5,4.3,1.7c0.7,0.7,1.2,1.6,2.1,2.1c0.9,0.5,1.8,0.6,2.8,0.7
							c5.6,0.6,18.4,0.3,11.6,9.6c-6.2,8.5-22.7,5.1-32.2,2.8c-0.6-0.2-1.3-0.2-1.7-0.7c-0.5-0.5-0.8-1.2-1-1.9
							c-1.1-4-2.6-8.9,2.3-10.6c2.1-0.7,4,0.7,6.2-0.1C390.8,577.8,392.7,575.2,394.6,574.9z"/>
					</g>
				</g>
			</g>
			<path class="st5" d="M408.5,507.1c-15.7-0.3-31.5-0.6-47.2-0.9c-12.7-60.6-23.9-121.5-33.6-182.7c-0.8-4.7-1.5-9.7-0.1-14.3
				c2.6-8.7,11.9-13.7,20.8-15.3c13.9-2.6,39.4,1,46.5,15.4c7.5,15.2,6.3,42.5,8.1,59.3C407.9,414.6,409.7,460.9,408.5,507.1z"/>
		</g>
		<g>
			<g>
				<g>
					<g>
						<path class="st0" d="M294.6,581.5c-3.1,0.1-6-0.6-9.1-0.9c-1.6-30,1.3-61.5,2.5-91.7c7.7,0.4,15.4,0.8,23.1,1.2
							c-5.4,16.1-9.2,32.8-11.5,49.6C299.4,542.5,295,581.5,294.6,581.5z"/>
					</g>
					<g>
						<path class="st3" d="M284.6,574.9c-1.9-0.3-3,0.5-4.3,1.7c-0.7,0.7-1.2,1.6-2.1,2.1c-0.9,0.5-1.8,0.6-2.8,0.7
							c-5.6,0.6-18.4,0.3-11.6,9.6c6.2,8.5,22.7,5.1,32.2,2.8c0.6-0.2,1.3-0.2,1.7-0.7c0.5-0.5,0.8-1.2,1-1.9
							c1.1-4,2.6-8.9-2.3-10.6c-2.1-0.7-4,0.7-6.2-0.1C288.3,577.8,286.5,575.2,284.6,574.9z"/>
					</g>
				</g>
			</g>
			<path class="st5" d="M270.7,507.1c15.7-0.3,31.5-0.6,47.2-0.9c12.7-60.6,23.9-121.5,33.6-182.7c0.8-4.7,1.5-9.7,0.1-14.3
				c-2.6-8.7-11.9-13.7-20.8-15.3c-13.9-2.6-39.4,1-46.5,15.4c-7.5,15.2-6.3,42.5-8.1,59.3C271.3,414.6,269.4,460.9,270.7,507.1z"/>
		</g>
	</g>
	<g>
		<g>
			<path class="st0" d="M416.6,78.2c-0.2,0.2-0.4,0.5-0.6,0.7c-1.2,2.5-0.4,4.5-0.9,7.3c-0.2,1.2-3.2,2.4-1.3,4.2
				c0.7,0.7,2.6,2,4.1,3.4c2.2,2,3.7,5.9,4.4,9.2c2.6,13,1.6,26.3,0.2,39.4c-0.1,0.7-0.2,1.5-0.6,2.2c-0.7,1.1-2.2,1.4-3.6,1.6
				c-6.2,1-12.3,2.5-18.2,4.6c-5.3,1.9-10.5,4.3-14.4,8.2s-6.4,9.7-5.2,15.2c0.9,4.1,3.9,7.6,7.8,9.2c9.6,3.9,20.3-6.8,27.6-11.8
				c6.9-4.7,13.6-10,19.8-15.6c0.8-0.7,1.5-1.4,2-2.4c0.5-1,0.5-2.2,0.5-3.3c0.1-14.2-1.1-28.4-2.6-42.6c-0.4-3.9-2.8-7.1-3.2-10.7
				c-0.2-2.3,1.3-4.3,1.5-6.5c0.3-2.2,0.1-5.2-0.5-7.3c-1.1-4.2-5.3-5.9-8.8-7.7c-0.9-0.5-1.5-0.8-2.4-0.8c-1.5,0-2.7,0.9-3.8,1.8
				C417.8,77.1,417.2,77.6,416.6,78.2z"/>
		</g>
		<g>
			<path class="st6" d="M417.7,179.5c6.2-4.3,11.9-9.2,17.9-14.1c1.1-0.9,2.2-1.8,2.8-3.1c0.5-1.1,0.6-2.4,0.7-3.6
				c0.9-16.8,0.5-33.6-1.1-50.4c-5.4,0.4-10.7,0.8-16.1,1.2c-0.2,7.9-0.3,15.9-0.5,23.8c0,2.4-0.1,4.9-1.4,6.9
				c-1.4,2.3-3.9,3.5-6.4,4.6c-7.5,3.4-13.7,3.7-21.7,3.7c-13.6,0.1-27.3,2.2-40.3,6.2c-2.5,0.8-5.2,1.8-6.3,4.1
				c-0.6,1.3-0.6,2.8-0.6,4.2c0,6.7,0,13.4,1.4,19.9c1.1,5.2,4.3,14.6,9.4,17.3c5,2.6,13.7-0.1,19-1.3c11.1,0,23.5-8.3,32.9-13.3
				C411.1,184,414.4,181.8,417.7,179.5z"/>
		</g>
	</g>
	<g>
		<path class="st6" d="M311.1,174.8c-3.4,4.3-7.7,8-11.1,12.5c-7.1,9.4-12.7,19.9-16.6,30.9c-10.1,28.3-10.3,58.5-10.4,88.1
			c0,9.9-0.1,19.7-0.1,29.6c0,9.7,0.8,11.8,11.4,10.5c19.5-2.4,39.8-6.4,57.5-15.1c8.4-4.1,16.3-9.3,25.1-12.6
			c12.8-4.7,26-2.6,38.7-5.7c-5.5-16.7-9.5-30.9-12.3-48c-2.9-17.7-5.6-37-9.8-54.4c-2.6-10.5-7.3-20.2-12.2-29.9
			c-1.8-3.6-3.7-7.2-5.9-10.6c-1.2-1.8-2.5-3.4-4-5c-1.1-1.1-2.1-3-3.5-3.5c-4-1.2-8.1-2.1-12.2-2.8c-0.7-0.8-0.2-2.4-1.2-2.8
			c-0.3-0.1-0.6-0.1-0.8-0.1c-5.8,0.4-11.6,0.9-17.3,1.3c-0.2,1.1,0.1,2.1,0.3,3.2c0.2,1.1,0.1,2.3-0.7,3c-0.5,0.4-1.1,0.6-1.8,0.8
			c-0.2,0.1-0.4,0.1-0.6,0.2c-5.6,1.9-8.7,5.5-12.1,9.9C311.3,174.6,311.2,174.7,311.1,174.8z"/>
	</g>
	<g>
		<g>
			<g>
				<circle class="st1" cx="473.9" cy="388.2" r="183.6"/>
			</g>
			<g>
				<circle class="st7" cx="473.9" cy="388.2" r="159.1"/>
			</g>
			<g class="st8">
				<g>
					<path class="st9" d="M537,243c31.6,18,57.2,46.8,70.7,83.6c30.2,82.5-12.3,173.9-94.8,204.1c-39.7,14.5-81.5,12.2-117.5-3.3
						c39.2,22.3,87.7,27.9,133.4,11.2c82.5-30.2,125-121.6,94.8-204.1C608,291.7,575.9,259.7,537,243z"/>
				</g>
			</g>
			<g>
				<g>
					<path class="st1" d="M463.2,392l1.9,6c0.5,1.6,2.2,2.5,3.8,2l145.3-46.4c1.6-0.5,2.5-2.2,2-3.8l-1.9-6c-0.5-1.6-2.2-2.5-3.8-2
						l-145.3,46.4C463.6,388.7,462.7,390.4,463.2,392z"/>
				</g>
				<g>
					<path class="st3" d="M476,376.2l-26.8-73.4c-1.2-3.2-4.7-4.8-7.9-3.6l0,0c-3.2,1.2-4.8,4.7-3.6,7.9l26.8,73.4
						c-2.7,3.2-3.7,7.8-2.1,12c2.3,6.3,9.4,9.6,15.7,7.3c6.3-2.3,9.6-9.4,7.3-15.7C483.8,379.8,480.1,376.9,476,376.2z"/>
				</g>
			</g>
		</g>
	</g>
	<g>
		<g>
			<path class="st5" d="M22.5,270.2l194.1-23c12.9-1.5,24.6,7.6,26.1,20.5l15.6,132.1c1.5,12.8-7.7,24.5-20.6,26l-194.1,23
				c-12.9,1.5-24.6-7.6-26.1-20.5L1.9,296.2C0.3,283.3,9.6,271.7,22.5,270.2z"/>
			<g>
				<path class="st7" d="M179.1,348.4l46.3-5.5c3.5-0.4,6-3.6,5.6-7l-5.4-45.9c-0.4-3.5-3.6-5.9-7.1-5.5l-46.3,5.5
					c-3.5,0.4-6,3.6-5.6,7l5.4,45.9C172.5,346.3,175.7,348.8,179.1,348.4z"/>
				<path class="st7" d="M187.7,417.8l46.3-5.5c3.5-0.4,6-3.6,5.6-7l-5.4-45.9c-0.4-3.5-3.6-5.9-7.1-5.5l-46.3,5.5
					c-3.5,0.4-6,3.6-5.6,7l5.4,45.9C181.1,415.8,184.3,418.2,187.7,417.8z"/>
				<path class="st7" d="M106.9,356.9l46.3-5.5c3.5-0.4,6-3.6,5.6-7l-5.4-45.9c-0.4-3.5-3.6-5.9-7.1-5.5l-46.3,5.5
					c-3.5,0.4-6,3.6-5.6,7l5.4,45.9C100.3,354.9,103.4,357.4,106.9,356.9z"/>
				<path class="st7" d="M115.5,426.4l46.3-5.5c3.5-0.4,6-3.6,5.6-7l-5.4-45.9c-0.4-3.5-3.6-5.9-7.1-5.5l-46.3,5.5
					c-3.5,0.4-6,3.6-5.6,7l5.4,45.9C108.9,424.3,112,426.8,115.5,426.4z"/>
				<path class="st7" d="M34.7,365.5L81,360c3.5-0.4,6-3.6,5.6-7l-5.4-45.9c-0.4-3.5-3.6-5.9-7.1-5.5L27.8,307c-3.5,0.4-6,3.6-5.6,7
					l5.4,45.9C28.1,363.4,31.2,365.9,34.7,365.5z"/>
				<path class="st7" d="M43.3,434.9l46.3-5.5c3.5-0.4,6-3.6,5.6-7l-5.4-45.9c-0.4-3.5-3.6-5.9-7.1-5.5l-46.3,5.5
					c-3.5,0.4-6,3.6-5.6,7l5.4,45.9C36.7,432.9,39.8,435.3,43.3,434.9z"/>
			</g>
			<g>
				<path class="st6" d="M188.6,231.3l6.7-0.8c3.7-0.4,7,2.2,7.5,5.8l2.9,24.8c0.4,3.7-2.2,7-5.9,7.4l-6.7,0.8
					c-3.7,0.4-7-2.2-7.5-5.8l-2.9-24.8C182.3,235,184.9,231.7,188.6,231.3z"/>
				<path class="st6" d="M37.5,249.1l6.7-0.8c3.7-0.4,7,2.2,7.5,5.8l2.9,24.8c0.4,3.7-2.2,7-5.9,7.4l-6.7,0.8
					c-3.7,0.4-7-2.2-7.5-5.8l-2.9-24.8C31.2,252.9,33.8,249.6,37.5,249.1z"/>
			</g>
		</g>
	</g>
	<g>
		<g>
			<path class="st0" d="M126.1,322.1c0-0.3,0-0.7-0.1-0.9c-1-2.7-3.1-3.6-4.8-5.9c-0.7-1.1,0.5-4.1-2.2-4c-1,0-3.4,0.5-5.5,0.6
				c-3.1,0.2-7.1-1.5-10.1-3.4c-11.6-7.5-20.8-17.9-29.6-28.5c-0.5-0.6-1-1.2-1.2-2c-0.3-1.4,0.6-2.7,1.4-3.8c3.8-5.3,7-11,9.7-16.9
				c2.4-5.3,4.4-10.9,4.3-16.8s-2.6-11.9-7.6-14.9c-3.7-2.3-9.5-3.9-12.5-0.8c-5.5,5.5-9.6,20.1-11.2,29.3
				c-1.5,8.6-2.4,17.4-2.7,26.1c0,1.1-0.1,2.2,0.3,3.2c0.4,1.1,1.3,1.9,2.1,2.7c10.6,10.4,22.1,19.8,33.8,29
				c3.2,2.5,7.4,3.1,10.3,5.4c1.9,1.5,2.3,4.1,3.7,5.9c1.4,1.8,3.8,3.8,5.8,4.9c4,2.2,8.3,0.3,12.2-1c1-0.3,1.6-0.5,2.3-1.2
				c1.1-1.1,1.2-2.6,1.5-4.1C126.1,323.8,126.1,322.9,126.1,322.1z"/>
		</g>
		<g>
			<path class="st1" d="M53.7,252.6c0,0,0,0.1,0,0.1c-1.8,9.7-2.7,19.7-2.3,29.5c0.2,4.6,2.9,5.7,6.3,8.6c3.9,3.3,7.8,6.6,11.6,9.8
				c4.2-5,8.8-9.6,13.9-13.8c-2-2.6-6.9-7.3-6.2-10.4c0.8-3.6,4.6-8.1,6.3-11.5c3.9-8.1,7-16.5,10-24.9c4.4-12,8.6-24,12.8-36
				c1-3,2-6,2.1-9.1c0-3.1-1.1-6.4-3.6-8.2c-2.7-1.9-6.4-1.8-9.4-0.5c-3,1.3-5.4,3.6-7.7,6c-4,4.3-7.7,8.9-10.9,13.7
				c-3,4.6-5.7,9.3-8.4,14.1c-2.3,4.1-4.6,8.2-6.9,12.2c-1.3,2.4-2.6,4.7-3.7,7.2C55.6,243.7,54.5,248.1,53.7,252.6z"/>
		</g>
	</g>
	<g>
		<g>
			<path class="st0" d="M325.3,302.2c0-0.3,0.1-0.6,0-0.9c-0.4-2.8-2.3-3.9-3.4-6.5c-0.5-1.1,1.2-3.8-1.3-4.2
				c-0.9-0.1-3.3-0.2-5.3-0.5c-2.9-0.4-6.4-2.7-8.8-5.1c-3.3-3.1-6.6-6.5-9.3-10.1c-5.7-7.5-11.3-16.5-15.5-24.9
				c13.7-7.6,22.4-23.2,21.7-38.8c-0.1-1.6-0.3-3.3-1.1-4.7c-0.7-1.2-1.8-2.1-3-2.8c-12.5-7.6-19.1,4.5-24.9,14.1
				c-3.6,6-6.9,12.2-9.6,18.7c-3.8,9-0.8,16.9,4.4,24.8c5.5,8.4,11.3,16.9,18.5,24c3.5,3.4,7.4,6,11.3,8.9c3.8,2.9,2.3,4.4,5.1,7.8
				c1.5,1.9,2.7,4.1,4.5,5.7c3.3,2.8,7.7,1.8,11.6,1.3c1-0.1,1.6-0.2,2.4-0.7c1.2-0.9,1.7-2.3,2.1-3.6
				C324.9,303.9,325.1,303,325.3,302.2z"/>
		</g>
		<path class="st6" d="M307.1,164.9c-16,10.8-28.6,26.9-36.1,44.7c-3.4,8-9,14.3-10.5,23.1c-1.5,8.8-0.2,18.2,3.4,26.4
			c6.2,14.2,18,25.2,30.3,34.7c2.8-4.2,5.5-8.3,8.3-12.5c0.5-0.7,1-1.5,1-2.4c0-0.9-0.4-1.8-0.9-2.6c-3.9-7.1-7.9-14.2-11.8-21.3
			c-0.8-1.5-1.6-3-1.8-4.6c-0.4-4.6,4.4-8.2,5.1-12.7c0.5,0.4,0.9,0.7,1.3,1.1c-0.4-0.3,25.6-28.2,27.1-29.9
			c5.7-6.5,11.6-13.3,14-21.6C342,169.5,323,154.2,307.1,164.9z"/>
	</g>
	<g>
		<g>
			<path class="st0" d="M618.4,347.1c-0.2-0.3-0.4-0.6-0.5-0.9c-1.1-3.1,0.2-5.3,0.1-8.6c-0.1-1.4-3.3-3.3-0.9-5.1
				c0.9-0.7,3.3-1.9,5.3-3.3c2.8-2,5.2-6.3,6.5-10c2.4-7.1,0.9-28.6,10.2-31c21.8-5.6,1.6,35.5,0.6,39.5c-0.6,2.6,0.8,5.1,0.8,7.8
				c0,2.6-0.7,6-1.7,8.4c-1.9,4.7-7,6-11.4,7.6c-1.1,0.4-1.8,0.7-2.9,0.5c-1.7-0.2-2.9-1.5-4.2-2.6
				C619.6,348.6,618.9,347.9,618.4,347.1z"/>
		</g>
	</g>
	<path class="st4" d="M640.2,192.2c0.8,1.1,1.6,2.7,2.8,4.5c6.5,9.7,9.3,24.5,11.6,35.8c4.9,24,4.5,49-1.4,72.8
		c-0.2,0.9-0.5,1.8-1.3,2.3c-0.8,0.5-1.7,0.3-2.6,0.1c-5.4-1.1-10.8-2.2-16.3-3.3c-1.2-0.2-2.4-0.5-3.3-1.3
		c-1.7-1.5-1.5-4.3-1.2-6.6c2.1-15.1,2.3-30.4,0.6-45.5c-0.8-7.1-4.5-15.9-4-23c0.4-6.3,4.1-13.2,4.6-20.1
		c0.3-4.2,0.8-10.3,3.7-13.6C637.4,190.1,638.7,190.1,640.2,192.2z"/>
	<g>
		<g>
			<g id="XMLID_11_">
				<path id="XMLID_12_" class="st0" d="M798.9,462.9l0.7,44.4c-0.3,12.3,0.8,24.6,1.6,36.9c0.7,11.4-1.6,23.1,3.8,33.7
					c1.7,3.3,5.3,5.6,8.1,1.8c2.1-2.9,1.1-8.1,1.7-11.5c3.9-25.7,11.2-50.8,14.9-76.6C833.5,464.6,823,465.3,798.9,462.9z"/>
			</g>
			<polygon class="st3" points="801.5,570.3 798.6,577.7 812.6,590 825.5,590.5 829.7,583.8 812.4,568.7 			"/>
		</g>
		<g>
			<g id="XMLID_9_">
				<path id="XMLID_10_" class="st0" d="M767.5,463.3c0,0-8.1,43.6-8.1,43.6c-2.8,19.5-9.2,38.5-12,58.1c-0.6,4.5-0.3,9.4-2.2,13.6
					c-1.8,4.1-5.4,4.3-8.6,1.5c-4.2-3.8-2.3-10.5-2.2-15.6c0.5-34.3-2.2-68-2.8-102.4c0-0.4,0-1,0.4-1.3c0.3-0.2,0.7-0.2,1.1-0.2
					C736.3,460.9,767.3,464.3,767.5,463.3z"/>
			</g>
			<polygon class="st3" points="734.3,572.1 729.9,578.6 740.7,593.8 753.2,597.3 758.7,591.6 745.3,573 			"/>
		</g>
		<polygon class="st1" points="822.4,569 832.4,482 835.7,386.5 825.9,352.8 772.9,344.6 707.3,355.8 704.2,368.5 731.4,502 
			731.4,572 749.4,573 767.4,504 780.4,391 796.4,483 798.4,568 		"/>
	</g>
	<path class="st1" d="M838.1,250.2c0-0.3-0.1-0.6-0.1-0.9c-5.4-29.3,5.8-51.7-15.5-77.8c-11.5-14.1-17.3-12.4-32.6-16.1
		c-3.5-0.9-10.8-3.4-10.4,2c-4.8-0.1-9.7,0.3-14.4,1.4l-0.2-2c-8.5,2-19.7,2.6-27.5,6.1c-8.4,3.8-16,16.1-20.3,23.8
		c-14.8,26.5-8.8,58.8-8.8,88c0,8.1-5.5,95-1.3,95.2c26,1.3,51.4-7.7,77.1-5.3c15.2,1.4,30.3,5.2,45.2,7.3c1,0.1,2.2,0.2,2.9-0.5
		c0.9-0.7,1-2,1.1-3.1c1.6-21.2,1.6-43.1,2.8-64.5C837.2,286.3,839.7,267.8,838.1,250.2z"/>
	<g>
		<path class="st10" d="M788.9,33.3l17.3,75.7c4.8,21,24.7,35,45.8,33.2c-1.2,0.4-2.4,0.9-3.5,1.4c-17.8,8-28.1,27.4-23.6,47.1
			l17.3,75.7l108.9-22.9l-17.3-75.7c-4.8-21-24.7-35-45.8-33.2c1.2-0.4,2.4-0.9,3.5-1.4c17.8-8,28.1-27.4,23.6-47.1l-17.3-75.7
			L788.9,33.3z"/>
		<path class="st3" d="M911.3,14.3l-133.2,28c-3.7,0.8-7.4-1.5-8.2-5.2l0,0c-0.8-3.6,1.5-7.2,5.2-8l133.2-28
			c3.7-0.8,7.4,1.5,8.2,5.2h0C917.3,10,915,13.5,911.3,14.3z"/>
		<path class="st3" d="M964.5,247.5l-133.2,28c-3.7,0.8-7.4-1.5-8.2-5.2l0,0c-0.8-3.6,1.5-7.2,5.2-8l133.2-28
			c3.7-0.8,7.4,1.5,8.2,5.2l0,0C970.6,243.2,968.2,246.8,964.5,247.5z"/>
		<g>
			<path class="st11" d="M931.3,174.4c-10.1-28.1-31.6-29.1-34.5-29.3c-1.4,0-2.7-1-3.1-2.5c-0.4-1.7,0.7-3.4,2.4-3.7
				c0.2,0,0.4-0.1,0.6-0.1c0,0,0,0,0,0c0,0,0.1,0,0.1,0c0.2,0,0.4,0,0.6,0.1C924.9,142.9,931.3,174.4,931.3,174.4z"/>
			<path class="st11" d="M889.9,143.8c-1.3,0.3-2.7-0.6-3-1.9c-0.3-1.3,0.5-2.6,1.9-2.9c1.3-0.3,2.7,0.6,3,1.9
				C892,142.2,891.2,143.5,889.9,143.8z"/>
		</g>
		<path class="st7" d="M809.7,95.6l2.7,12c2.1,9.3,7.8,17.3,16,22.5c8.2,5.2,17.9,7,27.4,5l1.8-0.4c5,0.5,9.5,4.4,10.7,9.4l10,43.8
			c1.4,6.1-2.5,12.1-8.7,13.4l1.3-0.3c-9.5,2-17.5,7.5-22.7,15.5c-5.2,8-6.9,17.6-4.7,26.9l2.7,12l96.3-20.2l-2.7-12
			c-2.1-9.3-7.8-17.3-16-22.5c-8.2-5.2-17.9-7-27.4-5l0.8-0.2c-6.2,1.3-12.4-2.6-13.8-8.7l-10-43.8c-1.1-5,1.1-10.3,5.3-12.8
			l2.6-0.5c9.5-2,17.5-7.5,22.7-15.5c5.2-8,6.9-17.6,4.7-26.9l-2.7-12L809.7,95.6z"/>
	</g>
	<path class="st7" d="M760.5,194c-1.9,11-1.1,22.2-0.4,33.3c0.3,4.7,0.7,9.4,2.3,13.8c2,5.5,5.9,10,9.4,14.7
		c7.8,10.5,16.3,73.8,20.6,86.2c3.6-13.5,4.9-78.6,8.5-92.1c2.4-9.2,4.8-18.4,5-27.9c0.3-18.5-7.9-36-15.9-52.7
		c-1.2-2.5-2.4-5-4.3-7c-5.2-5.7-16.9-6.5-21,0.7c-1.9,3.4-1,7.8-1.2,11.4C763.1,181.1,761.6,187.5,760.5,194z"/>
	<path class="st3" d="M785.8,197.8c1.6,9.9,1.6,20,3,30c0.8,5.5,2,10.8,3,16.2c2.8,15.4,3.7,31,4.6,46.6c0.2,3.1,0.4,6.2,0.6,9.2
		c0.1,1.9,0.9,5.2,0,7c-1,1.9-3.4,2.1-5.2,2.8c-2.6,1.1-5,2.5-7.2,4.4c-4-1.2-6.6-5.1-7.5-9.1c-0.9-4-0.4-8.2,0-12.3
		c3.9-36,3.2-72.6-2.1-108.4c-1.6,0.7-3.5-0.5-4.3-2c-0.7-1.6-0.6-3.4-0.5-5.2c0,0.3,8.3,0,9-0.1c5-0.2,6.4,0.9,6.4,6.4
		c-2.4,1.2-2,4.7-1.3,7.3C784.9,193,785.4,195.4,785.8,197.8z"/>
	<g>
		<g>
			<path class="st0" d="M889.1,236.6c-0.3-0.2-0.7-0.3-1-0.4c-3.3-0.5-5.4,1.2-8.7,1.5c-1.5,0.2-3.9-2.8-5.3,0c-0.5,1-1.4,3.7-2.5,6
				c-1.6,3.2-5.5,6.4-9.1,8.3c-14.1,7.6-29.8,11.1-45.5,14c-0.9,0.2-1.8,0.3-2.7,0.1c-1.6-0.5-2.4-2.1-3.1-3.6
				c-3.3-6.8-7.2-13.3-11.7-19.4c-4-5.4-8.6-10.6-14.6-13.8c-6-3.2-13.5-4-19.4-0.6c-4.4,2.5-7.4,7.2-7.9,12.3
				c-1.1,12.5,15,21.1,23.4,27.8c7.9,6.4,16.3,12.2,25,17.4c1.1,0.6,2.2,1.3,3.4,1.5c1.3,0.2,2.7-0.2,3.9-0.6
				c16.5-4.9,32.4-11.3,48.4-18c4.4-1.8,7.2-5.8,11.3-7.4c2.6-1.1,5.4,0,8.1-0.5c2.6-0.5,6-1.7,8.3-3.1c4.5-2.8,4.9-8.2,5.8-12.9
				c0.2-1.2,0.4-2,0-3c-0.5-1.7-2-2.7-3.4-3.8C890.9,237.6,890.1,237,889.1,236.6z"/>
		</g>
		<g>
			<path class="st1" d="M773.5,272.6c5.6,4.2,11.3,8.3,16.6,13.1c3.5,3.2,7.1,6.6,11.7,7.8c2.9,0.8,6,0.5,9,0.2
				c18.5-2,36.6-7.5,53.1-16.1c1.5-0.8,3.1-1.7,4.1-3.2c1.6-2.6,0.6-5.9-0.4-8.7c-1.2-3.3-2.4-6.6-3.6-10c-0.4-1-0.8-2-1.7-2.6
				c-0.8-0.5-1.9-0.5-2.9-0.4c-11.8,1-23.5,2.7-35,5.2c-3.7,0.8-7.6,1.6-11.1,0.3c-7.5-2.9-14.4-21.4-18.5-28.5
				c-4.7-8.2-9.1-16.6-13.9-24.6c-5.4-9-11.1-18.2-19.7-24.1c-18.5-12.6-43.1,3.6-36.6,25.9c4.9,16.8,14,32.3,25.5,45.4
				C756.9,260.3,765.2,266.4,773.5,272.6z"/>
		</g>
	</g>
	<g>
		<g>
			<path class="st3" d="M790.9,101.2c2.6,4.6,3.9,10,4.1,15.3c0.1,1.4,0.2,3.1,1.3,3.9c1.2,0.9,0.1,2.9,1.1,1.7
				c0.9-1.2,4.1-5.4,4.2-6.9c0.3-3.5,0.3-7.1,0-10.6c-0.3-3.1-0.9-6.3-2.9-8.6c-1.2-1.4-2.8-2.4-4.4-3.3c-2.3-1.4-4.6-2.8-7.2-3.2
				c-4.5-0.8-7.3,0.8-3.3,3.9C786.7,95.4,789.1,98,790.9,101.2z"/>
			<g>
				<path class="st0" d="M762.6,161.6c0,1.9,0,3.6,0.3,5.1c4.6,3.5,8.9,7.4,12.9,11.5c2.6-3.4,5.2-7,6-11.2
					c0.3-1.8,0.3-19.7,1.3-19.9c5.4-0.9,11.7-2.7,13.6-8.3c0.6-1.8,0.6-3.7,0.6-5.6c0.1-7.8,0.1-15.7,0.2-23.5c0-2.7,0-5.5-0.9-8
					c-1.6-4.4-5.8-7-9.8-8.7c-10.3-4.2-22.4-4.1-32,2c-2.5,1.6-4.9,3.7-6.4,6.4c-2.3,4.3-2,9.6-1.6,14.6c0.3,4.6,0.6,9.2,1,13.7
					c0.4,5.3,1.2,11.3,5.3,14.1c2.2,1.5,5,1.7,6.9,3.7C762.9,150.6,762.6,156.5,762.6,161.6z"/>
			</g>
			<path class="st3" d="M799.2,130c-0.1-1.5-0.7-5.7-2.9-3c-0.6,0.7-0.7,1.7-0.7,2.6c0,0.9,0,1.9-0.3,2.8c-0.7,2-2.9,2.9-4.9,2.9
				c-0.8,0-1.6-0.1-2.3-0.5c-0.7-0.4-1.2-1-1.7-1.6c-1.3-1.5-2.5-2.9-3.8-4.4c-2.2-2.5-6.5-1.4-9.5-1c-3.4,0.4-6.8,1.5-9.6,3.7
				c-0.3,0.2-0.6,0.5-0.8,0.7c-0.7,0.6-1.3,1.1-2.1,1.5c-2.6,1.3-5.9-0.1-7.7-2.4c-0.8-1.1-1.6-2.5-2.9-2.7c-1-0.1-2,0.6-2.5,1.5
				c-0.5,1-0.7,2.1-0.7,3.2c-0.3,4,0.3,8.2,2.1,11.8c3.8,7.8,11.2,8.7,18.5,8.6c2.9-0.1,5.8-0.1,8.8-0.2c5.3-0.1,11-0.3,15.5-3.5
				c4-2.7,6.3-7.4,7.3-12.3C799.2,135.2,799.4,132.6,799.2,130z M779.7,141.1c-2.8,1.9-5.9,2-9,1c-1.3-0.4-0.8-2.6,0.6-2.2
				c2.6,0.8,5,0.8,7.4-0.8C779.8,138.3,780.9,140.3,779.7,141.1z"/>
			<path class="st3" d="M800.3,87.6c0.5-1.9,0.9-3.8,1.1-5.8c-1.8,0.6-3.8,0.8-5.7,0.5c0-1.1,0-2.3,0-3.4c0-0.9-12.7-1.6-13.7-1.7
				c-9.6-0.8-18.5-1.5-27.2,3.6c-7.4,4.4-12.2,11-13.4,19.6c-1.1,8.2,1.6,18.9,6.3,25.7c0-2.2-1.3-7.3-0.8-9.4c0.3-2.1,1-4.1,2-5.9
				c2-3.7,5-6.8,8.6-9c5.6-3.5,12.2-5.4,18.8-6.3c6-0.8,13.3-1.6,19.3,0c2.9,0.8,3.3,1.5,5.1-1.4c0.3-0.5,2.7-6.4,2.5-6.4
				C802.3,87.6,801.3,87.6,800.3,87.6z"/>
		</g>
	</g>
	<path class="st12" d="M39.1,606.4l305,12.5c0.3,0,0.5,0,0.8,0l486.5-12.8c5.1-0.1,9.5-3.6,10.6-8.5l1.5-6.6
		c1.5-6.7-3.8-13.1-11-13.1l-793,6.9c-1.2,0-2.3,0.2-3.4,0.5v0C24.2,589.2,26.7,605.9,39.1,606.4z"/>
</g>
</svg>
