<svg xmlns="http://www.w3.org/2000/svg" width="470.584" height="80" viewBox="0 0 470.584 80">
  <g id="ctct_ripple_logo_horizontal_white_orange" transform="translate(0 -0.028)">
    <path id="Path_7068" data-name="Path 7068" d="M238.012,42.544a1.9,1.9,0,0,0-2.838-.568,13.81,13.81,0,0,1-6.386,1.7C222.4,43.68,218,39.28,218,33.036s4.4-10.643,10.785-10.643a12.663,12.663,0,0,1,6.386,1.7c1.277.71,2.129.568,2.838-.568l.71-.993A1.9,1.9,0,0,0,238.3,19.7,16.447,16.447,0,0,0,228.93,17a17.356,17.356,0,0,0-12.488,4.825A15.745,15.745,0,0,0,211.9,33.178a15.745,15.745,0,0,0,4.541,11.353,17.122,17.122,0,0,0,12.488,4.825,16.406,16.406,0,0,0,9.65-2.838,1.828,1.828,0,0,0,.284-2.7Z" transform="translate(88.814 7.114)" fill="#1a53e5" fill-rule="evenodd"/>
    <path id="Path_7069" data-name="Path 7069" d="M244.5,22.9a11.86,11.86,0,1,0,12.346,11.779A12.246,12.246,0,0,0,244.5,22.9Zm0,18.591a6.543,6.543,0,0,1-6.528-6.67,6.534,6.534,0,1,1,13.056,0A6.728,6.728,0,0,1,244.5,41.491Z" transform="translate(97.364 9.586)" fill="#1a53e5" fill-rule="evenodd"/>
    <path id="Path_7070" data-name="Path 7070" d="M265.114,22.9c-3.264,0-5.818,1.419-6.954,3.832V25.454a1.8,1.8,0,0,0-1.987-1.987h-1.987a1.8,1.8,0,0,0-1.987,1.987V44.187a1.8,1.8,0,0,0,1.987,1.987h1.987a1.8,1.8,0,0,0,1.987-1.987V35.1c0-2.413,1.135-7.1,5.677-7.1,2.413,0,3.832,1.987,3.832,5.393V44.045a1.8,1.8,0,0,0,1.987,1.987h1.987a1.8,1.8,0,0,0,1.987-1.987V33.118C273.629,26.732,270.365,22.9,265.114,22.9Z" transform="translate(105.705 9.586)" fill="#1a53e5" fill-rule="evenodd"/>
    <path id="Path_7071" data-name="Path 7071" d="M305.122,23.368h-1.987a1.8,1.8,0,0,0-1.987,1.987v.993a9.082,9.082,0,0,0-7.38-3.548c-6.386,0-11.069,4.967-11.069,11.779S287.383,46.5,293.769,46.5a8.891,8.891,0,0,0,7.38-3.548v.993a1.8,1.8,0,0,0,1.987,1.987h1.987a1.8,1.8,0,0,0,1.987-1.987V25.5A1.838,1.838,0,0,0,305.122,23.368ZM294.9,41.533c-3.69,0-6.244-2.838-6.244-6.812s2.554-6.812,6.244-6.812,6.386,2.838,6.386,6.812C301.291,38.836,298.594,41.533,294.9,41.533Z" transform="translate(118.488 9.545)" fill="#1a53e5" fill-rule="evenodd"/>
    <path id="Path_7072" data-name="Path 7072" d="M315.9,28.051a9.854,9.854,0,0,1,3.832.851c1.277.568,2.129.426,2.838-.568l.568-.71a1.779,1.779,0,0,0,.426-1.561,2.624,2.624,0,0,0-.993-1.277,14.144,14.144,0,0,0-6.954-1.987c-7.663,0-12.914,4.967-12.914,12.063,0,6.812,5.393,11.637,12.914,11.637A13.843,13.843,0,0,0,322,44.938a2.948,2.948,0,0,0,1.419-1.561,1.69,1.69,0,0,0-.426-1.561l-.568-.71c-.71-.993-1.561-1.135-2.838-.426a9.047,9.047,0,0,1-3.832.851c-4.257,0-7.238-2.838-7.238-6.812C308.518,30.889,311.641,28.051,315.9,28.051Z" transform="translate(126.871 9.545)" fill="#1a53e5" fill-rule="evenodd"/>
    <path id="Path_7073" data-name="Path 7073" d="M336.188,43.919l-1.419-1.845c-.284-.284-.426-.426-.71-.426a1.226,1.226,0,0,0-.851.426l-.142.142h0a2.682,2.682,0,0,1-1.7.993h0c-.284,0-.568.142-.851,0-1.277-.142-1.987-.993-1.987-2.7V29.585h5.393a1.044,1.044,0,0,0,1.135-1.135V26.179a1.044,1.044,0,0,0-1.135-1.135h-5.393V23.057h0V20.787a1.8,1.8,0,0,0-1.987-1.987h-1.845a1.8,1.8,0,0,0-1.987,1.987V24.9h-2.271a1.044,1.044,0,0,0-1.135,1.135v2.271a1.044,1.044,0,0,0,1.135,1.135h2.271V31.43h0v8.941c0,6.954,4.825,7.947,7.663,7.947a15.718,15.718,0,0,0,2.7-.284h0a5.041,5.041,0,0,0,1.277-.568,4.895,4.895,0,0,0,1.7-1.277,3.761,3.761,0,0,0,.71-.851A2.033,2.033,0,0,0,336.188,43.919Z" transform="translate(133.828 7.868)" fill="#1a53e5" fill-rule="evenodd"/>
    <path id="Path_7074" data-name="Path 7074" d="M284.81,42.074c-.284-.284-.426-.426-.71-.426a1.226,1.226,0,0,0-.851.426l-.142.142h0a2.682,2.682,0,0,1-1.7.993h0c-.284,0-.568.142-.852,0-1.277-.142-1.987-.993-1.987-2.7V29.585h5.393a1.044,1.044,0,0,0,1.135-1.135V26.179a1.044,1.044,0,0,0-1.135-1.135h-5.393V20.787a1.8,1.8,0,0,0-1.987-1.987h-1.987a1.8,1.8,0,0,0-1.987,1.987V24.9h-2.271a1.044,1.044,0,0,0-1.135,1.135v2.271a1.044,1.044,0,0,0,1.135,1.135h2.271V40.371c0,6.954,4.825,7.947,7.663,7.947a15.718,15.718,0,0,0,2.7-.284h0a5.042,5.042,0,0,0,1.277-.568,4.9,4.9,0,0,0,1.7-1.277,3.765,3.765,0,0,0,.71-.851c.426-.426.284-.993-.142-1.561Z" transform="translate(112.83 7.868)" fill="#1a53e5" fill-rule="evenodd"/>
    <path id="Path_7075" data-name="Path 7075" d="M93.612,42.444a1.9,1.9,0,0,0-2.838-.568,13.81,13.81,0,0,1-6.386,1.7C78,43.58,73.6,39.18,73.6,32.936S78,22.293,84.388,22.293A12.663,12.663,0,0,1,90.774,24c1.277.71,2.129.568,2.838-.568l.71-.993A1.9,1.9,0,0,0,93.9,19.6a16.447,16.447,0,0,0-9.366-2.7,17.356,17.356,0,0,0-12.488,4.825A15.745,15.745,0,0,0,67.5,33.078a15.745,15.745,0,0,0,4.541,11.353A17.122,17.122,0,0,0,84.53,49.256a16.406,16.406,0,0,0,9.65-2.838,1.828,1.828,0,0,0,.284-2.7Z" transform="translate(28.291 7.072)" fill="#1a53e5" fill-rule="evenodd"/>
    <path id="Path_7076" data-name="Path 7076" d="M100.1,22.9a11.86,11.86,0,1,0,12.346,11.779A12.246,12.246,0,0,0,100.1,22.9Zm0,18.591a6.543,6.543,0,0,1-6.528-6.67,6.534,6.534,0,1,1,13.056,0A6.728,6.728,0,0,1,100.1,41.491Z" transform="translate(36.842 9.586)" fill="#1a53e5" fill-rule="evenodd"/>
    <path id="Path_7077" data-name="Path 7077" d="M120.714,22.9c-3.264,0-5.818,1.419-6.954,3.832V25.454a1.8,1.8,0,0,0-1.987-1.987h-1.987a1.8,1.8,0,0,0-1.987,1.987V44.187a1.8,1.8,0,0,0,1.987,1.987h1.987a1.8,1.8,0,0,0,1.987-1.987V35.1c0-2.413,1.135-7.1,5.677-7.1,2.413,0,3.832,1.987,3.832,5.393V44.045a1.8,1.8,0,0,0,1.987,1.987h1.987a1.8,1.8,0,0,0,1.987-1.987V33.118C129.229,26.732,125.965,22.9,120.714,22.9Z" transform="translate(45.182 9.586)" fill="#1a53e5" fill-rule="evenodd"/>
    <path id="Path_7078" data-name="Path 7078" d="M136.781,32.834l-2.98-.993c-1.561-.426-2.129-1.135-2.129-2.129a2.3,2.3,0,0,1,2.554-2.129,2.646,2.646,0,0,1,2.271.993,2.52,2.52,0,0,0,2.554.993l.993-.284a1.724,1.724,0,0,0,1.419-1.135,1.656,1.656,0,0,0-.284-1.561c-1.419-2.413-3.832-3.69-7.1-3.69C129.4,22.9,126,25.88,126,30c0,2.98,1.987,5.251,6.1,6.386l2.838.993c1.7.568,2.271,1.277,2.271,2.129,0,1.277-1.277,2.271-3.122,2.271a4.406,4.406,0,0,1-3.548-1.561c-.71-.851-1.277-1.419-2.554-1.135l-1.135.284a1.87,1.87,0,0,0-1.419.993,2.056,2.056,0,0,0,.142,1.561h0c1.419,2.838,4.541,4.541,8.515,4.541,5.96,0,8.657-3.548,8.657-7.1C142.741,37.233,141.606,34.395,136.781,32.834Z" transform="translate(52.531 9.586)" fill="#1a53e5" fill-rule="evenodd"/>
    <path id="Path_7079" data-name="Path 7079" d="M174.522,23.368h-1.987a1.8,1.8,0,0,0-1.987,1.987v.993a9.082,9.082,0,0,0-7.379-3.548c-6.386,0-11.069,4.967-11.069,11.779S156.783,46.5,163.169,46.5a8.891,8.891,0,0,0,7.379-3.548v.993a1.8,1.8,0,0,0,1.987,1.987h1.987a1.8,1.8,0,0,0,1.987-1.987V25.354C176.651,24.077,175.8,23.368,174.522,23.368ZM164.3,41.533c-3.69,0-6.244-2.838-6.244-6.812s2.554-6.812,6.244-6.812,6.386,2.838,6.386,6.812S167.994,41.533,164.3,41.533Z" transform="translate(63.75 9.545)" fill="#1a53e5" fill-rule="evenodd"/>
    <path id="Path_7080" data-name="Path 7080" d="M186.014,22.9c-3.264,0-5.818,1.419-6.954,3.832V25.454a1.8,1.8,0,0,0-1.987-1.987h-1.987a1.8,1.8,0,0,0-1.987,1.987V44.187a1.8,1.8,0,0,0,1.987,1.987h1.987a1.8,1.8,0,0,0,1.987-1.987V35.1c0-2.413,1.135-7.1,5.677-7.1,2.413,0,3.832,1.987,3.832,5.393V44.045a1.8,1.8,0,0,0,1.987,1.987h1.987a1.8,1.8,0,0,0,1.987-1.987V33.118C194.529,26.732,191.265,22.9,186.014,22.9Z" transform="translate(72.551 9.586)" fill="#1a53e5" fill-rule="evenodd"/>
    <path id="Path_7081" data-name="Path 7081" d="M205.469,41.932c-.284-.284-.426-.426-.71-.426a1.227,1.227,0,0,0-.852.426l-.142.142h0a2.682,2.682,0,0,1-1.7.993h0c-.284,0-.568.142-.851,0-1.277-.142-1.987-.993-1.987-2.7V29.443h5.393a1.044,1.044,0,0,0,1.135-1.135V26.179a1.044,1.044,0,0,0-1.135-1.135h-5.393V20.787a1.8,1.8,0,0,0-1.987-1.987h-1.845a1.8,1.8,0,0,0-1.987,1.987V24.9h-2.271A1.044,1.044,0,0,0,190,26.038v2.271a1.044,1.044,0,0,0,1.135,1.135h2.271V40.371c0,6.954,4.825,7.947,7.663,7.947a15.718,15.718,0,0,0,2.7-.284h0a5.04,5.04,0,0,0,1.277-.568,4.894,4.894,0,0,0,1.7-1.277,3.764,3.764,0,0,0,.71-.851c.426-.426.284-.993-.142-1.561Z" transform="translate(79.635 7.868)" fill="#1a53e5" fill-rule="evenodd"/>
    <path id="Path_7082" data-name="Path 7082" d="M154.469,41.932c-.284-.284-.426-.426-.71-.426a1.227,1.227,0,0,0-.851.426l-.142.142h0a2.682,2.682,0,0,1-1.7.993h0c-.284,0-.568.142-.851,0-1.277-.142-1.987-.993-1.987-2.7V29.443h5.393a1.044,1.044,0,0,0,1.135-1.135V26.179a1.044,1.044,0,0,0-1.135-1.135h-5.393V23.057h0V20.787a1.8,1.8,0,0,0-1.987-1.987h-1.845a1.8,1.8,0,0,0-1.987,1.987V24.9h-2.271A1.044,1.044,0,0,0,139,26.038v2.271a1.044,1.044,0,0,0,1.135,1.135h2.271V40.371c0,6.954,4.825,7.947,7.663,7.947a15.718,15.718,0,0,0,2.7-.284h0a5.04,5.04,0,0,0,1.277-.568,4.894,4.894,0,0,0,1.7-1.277,3.763,3.763,0,0,0,.71-.851c.426-.426.284-.993-.142-1.561Z" transform="translate(58.259 7.868)" fill="#1a53e5" fill-rule="evenodd"/>
    <path id="Path_7083" data-name="Path 7083" d="M38.609,27.421a5.077,5.077,0,0,0,4.967,3.406,7.123,7.123,0,0,0,1.7-.284,5.211,5.211,0,0,0,3.122-6.67A18.769,18.769,0,0,0,38.184,13.23a5.418,5.418,0,0,0-6.954,2.554,5.418,5.418,0,0,0,2.554,6.954A8.256,8.256,0,0,1,38.609,27.421Z" transform="translate(12.905 5.349)" fill="#ff9e1a" fill-rule="evenodd"/>
    <path id="Path_7084" data-name="Path 7084" d="M36.933.13a5.2,5.2,0,1,0-1.987,10.218c11.779,2.271,19.726,10.218,21.713,21.713a5.164,5.164,0,0,0,5.109,4.257,1.8,1.8,0,0,0,.851-.142,5.322,5.322,0,0,0,4.257-5.96C64.18,14.605,52.969,3.252,36.933.13Z" transform="translate(12.879 0)" fill="#ff9e1a" fill-rule="evenodd"/>
    <path id="Path_7085" data-name="Path 7085" d="M31.416,44.915a8.657,8.657,0,0,1,0-17.313,5.239,5.239,0,0,0,5.251-5.251A5.151,5.151,0,0,0,31.416,17.1,19.016,19.016,0,1,0,50.433,36.116a5.251,5.251,0,1,0-10.5,0A8.517,8.517,0,0,1,31.416,44.915Z" transform="translate(5.197 7.156)" fill="#1a53e5" fill-rule="evenodd"/>
    <path id="Path_7086" data-name="Path 7086" d="M67.976,36.3a5.239,5.239,0,0,0-5.251,5.251A26.254,26.254,0,1,1,36.472,15.3a5.251,5.251,0,0,0,0-10.5A36.614,36.614,0,1,0,73.227,41.414,5.121,5.121,0,0,0,67.976,36.3Z" transform="translate(0 2)" fill="#1a53e5" fill-rule="evenodd"/>
  </g>
</svg>
