<svg xmlns="http://www.w3.org/2000/svg" width="441" height="225" viewBox="0 0 441 225">
  <g id="Group_7298" data-name="Group 7298" transform="translate(-843 -273)">
    <path id="Rectangle_2772" data-name="Rectangle 2772" d="M8,0H433a8,8,0,0,1,8,8V225a0,0,0,0,1,0,0H0a0,0,0,0,1,0,0V8A8,8,0,0,1,8,0Z" transform="translate(843 273)" fill="#ffa0a0"/>
    <g id="Group_7292" data-name="Group 7292" transform="translate(-43 -35)">
      <g id="Group_7228" data-name="Group 7228" transform="translate(1091.925 404.953)">
        <path id="iconfinder_2867908_hashtag_icon" d="M16.421,11.382h6.585L24.777,4.3a1.671,1.671,0,1,1,3.242.8l-1.571,6.284h4.964a1.671,1.671,0,0,1,0,3.343h-5.8L23.941,21.41H28.07a1.671,1.671,0,0,1,0,3.343H23.106l-1.772,7.1a1.672,1.672,0,1,1-3.242-.819l1.571-6.284H13.078l-1.772,7.1a1.672,1.672,0,1,1-3.242-.819l1.571-6.284H4.671a1.671,1.671,0,0,1,0-3.343h5.8l1.671-6.685H8.014a1.671,1.671,0,1,1,0-3.343h4.964L14.749,4.3a1.671,1.671,0,1,1,3.242.8Zm-.836,3.343L13.914,21.41H20.5l1.671-6.685Z" transform="translate(-3 -2.962)" fill="#fff"/>
      </g>
      <g id="Rectangle_2678" data-name="Rectangle 2678" transform="translate(1060 385)" fill="none" stroke="#fff" stroke-width="3">
        <rect width="93" height="71" rx="8" stroke="none"/>
        <rect x="1.5" y="1.5" width="90" height="68" rx="6.5" fill="none"/>
      </g>
    </g>
  </g>
</svg>
