<svg xmlns="http://www.w3.org/2000/svg" width="282.123" height="80" viewBox="0 0 282.123 80">
  <g id="Layer_2" transform="translate(0 0.01)">
    <g id="Group_7280" data-name="Group 7280" transform="translate(0 13.233)">
      <path id="Path_7119" data-name="Path 7119" d="M30.552,27.47V50.028H9.836V27.47H0V81.317H9.836V59.492H30.552V81.317h9.836V27.47Z" transform="translate(0 -27.47)" fill="#33475a"/>
      <path id="Path_7120" data-name="Path 7120" d="M121.6,78.294a8.137,8.137,0,0,1-16.274,0V55.23H96V78.294a17.45,17.45,0,1,0,34.9,0V55.23h-9.3Z" transform="translate(-49.738 -41.853)" fill="#33475a"/>
      <path id="Path_7121" data-name="Path 7121" d="M280.555,43.223c0-4.727,3.128-6.226,6.554-6.226,2.761,0,6.409,2.1,8.795,4.65l6.11-7.2c-3.05-4.125-9.238-6.978-14.3-6.978-10.12,0-17.44,5.927-17.44,15.753,0,18.23,22.283,12.447,22.283,22.649,0,3.147-3.055,5.927-6.554,5.927-5.518,0-7.306-2.7-9.84-5.551l-6.78,7.05c4.337,5.325,9.686,8.028,16.1,8.028,9.614,0,17.348-6,17.348-15.377,0-20.24-22.283-13.951-22.283-22.726" transform="translate(-139.566 -27.47)" fill="#33475a"/>
      <path id="Path_7122" data-name="Path 7122" d="M560.849,77.057c-5.513,0-7.079-2.385-7.079-6.038V54.851h8.568V46.659H553.77V35.85L544.31,40.1V73.028c0,8.424,5.812,12.669,13.782,12.669a19.093,19.093,0,0,0,3.73-.3l2.308-8.5c-1.041.072-2.236.145-3.282.145" transform="translate(-282.008 -31.812)" fill="#33475a"/>
      <path id="Path_7123" data-name="Path 7123" d="M200.987,41.464a14.316,14.316,0,0,0-10.963,4.4V28.14H180.68V60.991c0,12.3,8.891,20.722,18.881,20.722,11.084,0,20.832-8.573,20.832-20.119,0-11.4-8.973-20.124-19.406-20.124m-.058,30.841a10.6,10.6,0,1,1,10.6-10.6,10.6,10.6,0,0,1-10.6,10.6" transform="translate(-93.611 -27.817)" fill="#33475a"/>
      <path id="Path_7124" data-name="Path 7124" d="M390.663,74.909c0-11.566-9.73-20.119-20.832-20.119-9.99,0-18.881,8.424-18.881,20.722v32.87h9.344V90.634a14.323,14.323,0,0,0,10.958,4.4c10.433,0,19.406-8.718,19.406-20.124m-8.843-.116a10.6,10.6,0,1,1-10.6-10.6,10.6,10.6,0,0,1,10.6,10.6" transform="translate(-181.828 -41.625)" fill="#33475a"/>
    </g>
    <g id="Group_7281" data-name="Group 7281" transform="translate(181.208 -0.01)">
      <path id="Path_7125" data-name="Path 7125" d="M433.843,25.945V16.558a7.228,7.228,0,0,0,4.168-6.515V9.826A7.229,7.229,0,0,0,430.783,2.6h-.217a7.228,7.228,0,0,0-7.228,7.228v.217a7.229,7.229,0,0,0,4.168,6.515v9.387a20.471,20.471,0,0,0-9.734,4.284L392.029,10.177a8.07,8.07,0,0,0,.289-2.029,8.144,8.144,0,1,0-8.154,8.13,8.057,8.057,0,0,0,4.009-1.089l25.353,19.724a20.534,20.534,0,0,0,.313,23.131l-7.71,7.71a6.622,6.622,0,0,0-1.928-.313,6.689,6.689,0,1,0,6.694,6.692,6.6,6.6,0,0,0-.313-1.926l7.628-7.628a20.567,20.567,0,1,0,15.633-36.634m-3.161,30.87a23.637,23.637,0,1,1,.01,0" transform="translate(-376.03 0.01)" fill="#fe7a59"/>
    </g>
  </g>
</svg>
