<svg id="MailerLite_logo" data-name="MailerLite logo" xmlns="http://www.w3.org/2000/svg" width="317.277" height="80" viewBox="0 0 317.277 80">
  <path id="Path_7090" data-name="Path 7090" d="M41.482,58.5a14.577,14.577,0,0,0-12.474,6.237A11.584,11.584,0,0,0,18.493,58.5,13.437,13.437,0,0,0,7.615,63.428V62.7A3.869,3.869,0,0,0,3.771,58.86,3.807,3.807,0,0,0,0,62.7V91.929a3.765,3.765,0,0,0,3.989,3.626,3.787,3.787,0,0,0,3.626-3.626V71.7c1.74-2.828,4.351-6.019,9.065-6.019,4.5,0,6.237,2.176,6.237,7.832v18.42a3.812,3.812,0,0,0,7.615,0V71.7c1.74-2.828,4.351-6.019,9.065-6.019,4.5,0,6.237,2.176,6.237,7.832v18.42a3.812,3.812,0,0,0,7.615,0V72.276C53.593,65.6,49.822,58.5,41.482,58.5Z" transform="translate(0 -16.072)"/>
  <path id="Path_7091" data-name="Path 7091" d="M101.307,58.5a29.88,29.88,0,0,0-12.038,2.538A3.448,3.448,0,0,0,87.021,64.3a3.3,3.3,0,0,0,3.191,3.336h.073a5.6,5.6,0,0,0,1.088-.145,26.155,26.155,0,0,1,8.848-1.6c5.874,0,8.34,2.176,8.412,7.542H101.09C90.864,73.367,84.7,77.718,84.7,85.115c0,7.18,5.947,10.951,11.821,10.951a18.027,18.027,0,0,0,12.111-4.206v.073a3.812,3.812,0,0,0,7.615,0V72.642C116.246,65.607,111.605,58.5,101.307,58.5ZM98.842,89.176c-4.279,0-6.527-1.6-6.527-4.714,0-1.16,0-4.641,9.573-4.641h6.744v4.714C106.6,86.711,102.9,89.176,98.842,89.176Z" transform="translate(-23.275 -16.075)"/>
  <path id="Path_7092" data-name="Path 7092" d="M146.706,39.7h.435a4.209,4.209,0,0,1,4.206,4.206v.29a4.209,4.209,0,0,1-4.206,4.206h-.435A4.209,4.209,0,0,1,142.5,44.2v-.29A4.209,4.209,0,0,1,146.706,39.7Z" transform="translate(-39.158 -10.909)"/>
  <path id="Path_7093" data-name="Path 7093" d="M147.071,58.9a3.745,3.745,0,0,0-3.771,3.771v29.3a3.812,3.812,0,0,0,7.615,0V62.744a3.822,3.822,0,0,0-3.844-3.844Z" transform="translate(-39.378 -16.185)"/>
  <path id="Path_7094" data-name="Path 7094" d="M173.771,38.2A3.745,3.745,0,0,0,170,41.971v44.31a3.812,3.812,0,0,0,7.615,0V42.044a3.807,3.807,0,0,0-3.771-3.844Z" transform="translate(-46.715 -10.497)"/>
  <path id="Path_7095" data-name="Path 7095" d="M210.442,58.5c-5.439,0-9.935,2.031-12.981,5.874A20.931,20.931,0,0,0,193.4,77.283c0,11.748,6.889,18.783,18.348,18.783,6.309,0,9.428-1.45,12.328-3.118a3.94,3.94,0,0,0,2.176-3.191,3.39,3.39,0,0,0-3.336-3.408h-.073a2.788,2.788,0,0,0-1.523.363,18.02,18.02,0,0,1-8.847,2.031c-6.382,0-10.153-2.973-11.1-8.63h22.191a3.717,3.717,0,0,0,3.844-3.554v-.29c0-12.183-8.775-17.768-16.97-17.768Zm0,6.672a9.089,9.089,0,0,1,9.283,8.485H201.16C201.885,67.783,206.236,65.172,210.442,65.172Z" transform="translate(-53.145 -16.075)"/>
  <path id="Path_7096" data-name="Path 7096" d="M269.984,58.473h-.363c-3.626,0-6.962,1.74-10.008,5.076v-.87a3.869,3.869,0,0,0-3.844-3.844A3.761,3.761,0,0,0,252,62.679V91.9a3.812,3.812,0,0,0,7.615,0V71.381a11.874,11.874,0,0,1,9.863-5.512h.363a3.6,3.6,0,0,0,3.844-3.408v-.218a3.778,3.778,0,0,0-3.626-3.844.071.071,0,0,1-.073.073Z" transform="translate(-69.247 -16.048)"/>
  <g id="Group_7276" data-name="Group 7276" transform="translate(218.287)">
    <path id="Path_7097" data-name="Path 7097" d="M389.04,0H311.878A10.864,10.864,0,0,0,301,10.878V79.99l15.012-14.867h73.1a10.864,10.864,0,0,0,10.878-10.878V10.878A10.972,10.972,0,0,0,389.04,0ZM324.134,48.734a2.9,2.9,0,1,1-5.8,0V17.913a2.9,2.9,0,1,1,5.8,0Zm13.489,0a2.9,2.9,0,0,1-5.8,0V28.356a2.9,2.9,0,0,1,5.8,0Zm.363-29.661a3.1,3.1,0,0,1-3.118,3.118h-.29a3.1,3.1,0,0,1-3.118-3.118v-.218a3.1,3.1,0,0,1,3.118-3.118h.29a3.1,3.1,0,0,1,3.118,3.118Zm20.451,31.837a9.479,9.479,0,0,1-4.279.943c-5,0-7.687-2.393-7.687-6.962v-14H343.86a1.549,1.549,0,0,1-1.6-1.523V29.3a1.868,1.868,0,0,1,.725-1.378l6.454-6.309a2.25,2.25,0,0,1,1.305-.653,1.674,1.674,0,0,1,1.668,1.6v3.118h4.641a2.611,2.611,0,1,1,0,5.221h-4.641V44.528c0,1.958,1.015,2.1,2.393,2.1a6.182,6.182,0,0,0,1.668-.218,6.531,6.531,0,0,1,1.16-.218,2.541,2.541,0,0,1,2.466,2.466,2.988,2.988,0,0,1-1.668,2.248Zm17.768-4.5a12.718,12.718,0,0,0,6.092-1.378,2.3,2.3,0,0,1,1.16-.29,2.539,2.539,0,0,1,2.611,2.538v.073a2.833,2.833,0,0,1-1.6,2.393,15.42,15.42,0,0,1-8.7,2.176c-8.122,0-13.054-5-13.054-13.344,0-9.79,6.527-13.344,12.038-13.344,8.267,0,12.038,6.6,12.038,12.691a2.818,2.818,0,0,1-2.683,2.9H368.662C369.46,44.455,372.07,46.413,376.2,46.413Z" transform="translate(-301)" fill="#21c16c"/>
    <path id="Path_7098" data-name="Path 7098" d="M400.564,41.9a6.039,6.039,0,0,0-6.164,5.512h12.4A6.157,6.157,0,0,0,400.564,41.9Z" transform="translate(-326.666 -11.513)" fill="#21c16c"/>
  </g>
</svg>
