<svg xmlns="http://www.w3.org/2000/svg" width="116.483" height="29.375" viewBox="0 0 116.483 29.375">
  <g id="Group_7213" data-name="Group 7213" transform="translate(-8.6 -150.1)">
    <g id="Group_7210" data-name="Group 7210" transform="translate(8.6 173.613)">
      <g id="Group_7204" data-name="Group 7204" transform="translate(0 0)">
        <path id="Path_7144" data-name="Path 7144" d="M10.958,191.652A2.382,2.382,0,0,1,8.6,189.358,2.352,2.352,0,0,1,10.958,187a2.3,2.3,0,0,1,2.294,2.358A2.208,2.208,0,0,1,10.958,191.652Zm-.7-3.823c-.127,0-.191.064-.255.191a.233.233,0,0,0,.255.255c.127,0,.191-.127.191-.255A.2.2,0,0,0,10.257,187.828Z" transform="translate(-8.6 -187)" fill="#b3212c"/>
      </g>
      <g id="Group_7205" data-name="Group 7205" transform="translate(12.298 0)">
        <path id="Path_7145" data-name="Path 7145" d="M30.258,191.652a2.382,2.382,0,0,1-2.358-2.294A2.339,2.339,0,0,1,30.194,187a2.313,2.313,0,0,1,2.358,2.358A2.284,2.284,0,0,1,30.258,191.652Zm-.765-3.823c-.127,0-.255.064-.255.191a.233.233,0,0,0,.255.255c.127,0,.191-.064.191-.255C29.748,187.956,29.684,187.828,29.493,187.828Z" transform="translate(-27.9 -187)" fill="#1171b7"/>
      </g>
      <g id="Group_7206" data-name="Group 7206" transform="translate(6.115 0)">
        <path id="Path_7146" data-name="Path 7146" d="M20.493,191.652a2.261,2.261,0,0,1-2.294-2.358,2.359,2.359,0,0,1,4.715,0A2.407,2.407,0,0,1,20.493,191.652Zm-.7-3.823c-.127,0-.255.064-.255.191a.233.233,0,0,0,.255.255c.127,0,.191-.127.191-.255C20.046,187.956,19.919,187.828,19.792,187.828Z" transform="translate(-18.196 -187)" fill="#93288f"/>
      </g>
      <g id="Group_7207" data-name="Group 7207" transform="translate(1.402 0.828)">
        <path id="Path_7147" data-name="Path 7147" d="M11.055,188.3a.169.169,0,0,1,.191.191c0,.127-.064.191-.191.255a.233.233,0,0,1-.255-.255C10.864,188.427,10.927,188.3,11.055,188.3Z" transform="translate(-10.8 -188.3)" fill="#fefefe"/>
      </g>
      <g id="Group_7208" data-name="Group 7208" transform="translate(13.636 0.828)">
        <path id="Path_7148" data-name="Path 7148" d="M30.255,188.3a.169.169,0,0,1,.191.191c0,.127-.064.191-.191.255a.233.233,0,0,1-.255-.255C30.064,188.427,30.127,188.3,30.255,188.3Z" transform="translate(-30 -188.3)" fill="#fefefe"/>
      </g>
      <g id="Group_7209" data-name="Group 7209" transform="translate(7.455 0.828)">
        <path id="Path_7149" data-name="Path 7149" d="M20.555,188.3a.169.169,0,0,1,.191.191c0,.127-.064.191-.191.255a.233.233,0,0,1-.255-.255C20.364,188.427,20.427,188.3,20.555,188.3Z" transform="translate(-20.3 -188.3)" fill="#fefefe"/>
      </g>
    </g>
    <g id="Group_7211" data-name="Group 7211" transform="translate(27.398 174.187)">
      <path id="Path_7150" data-name="Path 7150" d="M39.374,192.695c-1.02,0-1.274-.255-1.274-1.4V191.1c0-1.147.319-1.4,1.274-1.4H39.5c.956,0,1.211.255,1.211.956v.064h-.446v-.064c0-.51-.127-.637-.765-.637h-.064c-.637,0-.828.127-.828,1.02v.191c0,.828.127,1.02.828,1.02H39.5c.573,0,.765-.127.765-.637v-.064h.446v.064c0,.765-.255,1.02-1.211,1.02h-.127Z" transform="translate(-38.1 -188.553)" fill="#8d9091"/>
      <path id="Path_7151" data-name="Path 7151" d="M43.71,192.042H43.2V187.9h.51Z" transform="translate(-39.95 -187.9)" fill="#8d9091"/>
      <path id="Path_7152" data-name="Path 7152" d="M46.438,192.695c-1.02,0-1.338-.319-1.338-1.4V191.1c0-1.083.319-1.4,1.338-1.4h.127c1.02,0,1.338.319,1.338,1.4v.191c0,1.083-.319,1.4-1.338,1.4Zm.127-.319c.7,0,.828-.191.828-1.02v-.191c0-.828-.127-1.02-.828-1.02H46.5c-.7,0-.828.191-.828,1.02v.191c0,.828.127,1.02.828,1.02Z" transform="translate(-40.639 -188.553)" fill="#8d9091"/>
      <path id="Path_7153" data-name="Path 7153" d="M53.076,192.768h-.51v-.446h0c-.127.319-.382.51-1.02.51h-.064c-.828,0-1.083-.255-1.083-1.147V189.9h.51v1.72c0,.765.127.892.765.892h.064c.573,0,.828-.127.828-.892V189.9h.51Z" transform="translate(-42.562 -188.626)" fill="#8d9091"/>
      <path id="Path_7154" data-name="Path 7154" d="M58.413,192.078h-.446v-.446h0c-.127.319-.382.446-.956.446h-.064c-.892,0-1.147-.319-1.147-1.4v-.127c0-1.147.255-1.4,1.147-1.4h.064c.573,0,.828.127.956.446h0V188h.51v4.078Zm-1.274-.382c.637,0,.828-.127.828-.956v-.319c0-.765-.191-.956-.828-.956h-.064c-.637,0-.828.191-.828,1.02v.191c0,.828.191,1.02.828,1.02Z" transform="translate(-44.521 -187.936)" fill="#8d9091"/>
      <path id="Path_7155" data-name="Path 7155" d="M65.2,192.042c-.573,0-.828-.127-.956-.446h0v.446H63.8V187.9h.51v1.593h0c.127-.319.382-.446.956-.446h.064c.892,0,1.147.255,1.147,1.4v.127c-.064,1.211-.319,1.466-1.274,1.466Zm-.064-.382c.637,0,.828-.191.828-1.02v-.127c0-.892-.127-1.02-.828-1.02h-.064c-.637,0-.828.127-.828.956v.319c0,.765.191.956.828.956h.064Z" transform="translate(-47.424 -187.9)" fill="#8d9091"/>
      <path id="Path_7156" data-name="Path 7156" d="M71.385,192.731h-.446v-.319h0c-.127.255-.382.382-.892.382h-.064c-.828,0-1.083-.191-1.083-.892v-.064c0-.637.255-.828,1.02-.828h.064c.574,0,.828.064.956.255h0v-.191c0-.828-.064-.892-.765-.892h-.064c-.573,0-.7.127-.7.446v.064h-.446v-.064c0-.7.255-.828,1.147-.828h.127c1.02,0,1.211.191,1.211,1.338v1.593Zm-1.211-.319c.573,0,.765-.127.765-.51v-.064c0-.446-.127-.51-.828-.51h-.064c-.573,0-.7.127-.7.51v.064c0,.382.127.51.828.51Z" transform="translate(-49.274 -188.589)" fill="#8d9091"/>
      <path id="Path_7157" data-name="Path 7157" d="M75.111,192.731c-1.02,0-1.211-.191-1.211-.828v-.064h.446v.064c0,.446.127.51.765.51h.127c.574,0,.7-.064.7-.446V191.9c0-.319-.064-.446-.892-.446-.892-.064-1.083-.255-1.083-.765v-.127c0-.573.255-.765,1.083-.765h.127c.956,0,1.147.127,1.147.828v.064h-.446v-.064c0-.382-.127-.51-.7-.51h-.127c-.573,0-.7.064-.7.446v.064c0,.255.064.382.765.382.956.064,1.211.255,1.211.828v.064c0,.637-.255.828-1.147.828h-.064Z" transform="translate(-51.088 -188.589)" fill="#8d9091"/>
      <path id="Path_7158" data-name="Path 7158" d="M80.074,192.731c-1.02,0-1.274-.255-1.274-1.4V191.2c0-1.147.255-1.4,1.274-1.4H80.2c.956,0,1.211.255,1.211,1.211v.319h-2.1v.127c0,.828.127.956.828.956H80.2c.637,0,.765-.127.765-.573v-.064h.446v.064c0,.7-.319.956-1.211.956h-.127Zm.892-1.72v-.127c0-.637-.127-.765-.765-.765h-.064c-.7,0-.828.127-.828.892Z" transform="translate(-52.865 -188.589)" fill="#8d9091"/>
      <path id="Path_7159" data-name="Path 7159" d="M86.613,192.078h-.446v-.446h0c-.127.319-.382.446-.956.446h-.064c-.892,0-1.147-.319-1.147-1.4v-.127c0-1.147.255-1.4,1.147-1.4h.064c.573,0,.828.127.956.446h0V188h.51v4.078Zm-1.338-.382c.637,0,.828-.127.828-.956v-.319c0-.765-.191-.956-.828-.956h-.064c-.637,0-.828.191-.828,1.02v.191c0,.828.191,1.02.828,1.02Z" transform="translate(-54.752 -187.936)" fill="#8d9091"/>
      <path id="Path_7160" data-name="Path 7160" d="M94.413,192.078h-.446v-.446h0c-.127.319-.382.446-.956.446h-.064c-.892,0-1.147-.319-1.147-1.4v-.127c0-1.147.255-1.4,1.147-1.4h.064c.574,0,.828.127.956.446h0V188h.51v4.078Zm-1.338-.382c.637,0,.828-.127.828-.956v-.319c0-.765-.191-.956-.828-.956h-.064c-.637,0-.828.191-.828,1.02v.191c0,.828.191,1.02.828,1.02Z" transform="translate(-57.582 -187.936)" fill="#8d9091"/>
      <path id="Path_7161" data-name="Path 7161" d="M97.61,188.51H97.1V188h.51Zm0,3.568H97.1v-2.931h.51Z" transform="translate(-59.504 -187.936)" fill="#8d9091"/>
      <path id="Path_7162" data-name="Path 7162" d="M100.311,193.787c-.892,0-1.147-.127-1.147-.828v-.064h.446v.064c0,.382.127.51.7.51h.127c.765,0,.828-.064.828-.892v-.382h0c-.127.319-.382.446-.956.446h-.064c-.828,0-1.147-.255-1.147-1.274v-.127c0-1.083.255-1.338,1.147-1.338h.064c.574,0,.828.127.956.446h0v-.382h.446v2.676c0,1.083-.255,1.274-1.338,1.274h-.064Zm.127-1.529c.7,0,.828-.191.828-.956v-.127c0-.828-.127-.956-.828-.956h-.064c-.637,0-.765.191-.765.956v.127c0,.765.191.956.765.956Z" transform="translate(-60.23 -188.626)" fill="#8d9091"/>
      <path id="Path_7163" data-name="Path 7163" d="M105.01,188.51h-.51V188h.51Zm0,3.568h-.51v-2.931h.51Z" transform="translate(-62.189 -187.936)" fill="#8d9091"/>
      <path id="Path_7164" data-name="Path 7164" d="M107.338,192.3c-.7,0-.892-.127-.892-1.147v-1.466H106v-.319h.446V188.6h.51v.765h1.4v.319h-1.4v1.4c0,.7.064.765.446.765h.064c.382,0,.446-.064.446-.765v-.255h.382v.319c0,.828-.191,1.02-.892,1.02h-.064Z" transform="translate(-62.733 -188.154)" fill="#8d9091"/>
      <path id="Path_7165" data-name="Path 7165" d="M112.985,192.731h-.446v-.319h0c-.127.255-.382.382-.892.382h-.064c-.828,0-1.083-.191-1.083-.892v-.064c0-.637.255-.828,1.02-.828h.064c.573,0,.828.064.956.255h0v-.191c0-.828-.064-.892-.765-.892h-.064c-.573,0-.7.127-.7.446v.064h-.446v-.064c0-.7.255-.828,1.147-.828h.064c1.02,0,1.211.191,1.211,1.338v1.593Zm-1.211-.319c.573,0,.765-.127.765-.51v-.064c0-.446-.127-.51-.828-.51h-.064c-.573,0-.7.127-.7.51v.064c0,.382.127.51.828.51Z" transform="translate(-64.366 -188.589)" fill="#8d9091"/>
      <path id="Path_7166" data-name="Path 7166" d="M116.11,192.042h-.51V187.9h.51Z" transform="translate(-66.216 -187.9)" fill="#8d9091"/>
      <path id="Path_7167" data-name="Path 7167" d="M121.311,192.731c-1.02,0-1.211-.191-1.211-.828v-.064h.446v.064c0,.446.127.51.765.51h.127c.574,0,.7-.064.7-.446V191.9c0-.319-.064-.446-.892-.446-.892-.064-1.083-.255-1.083-.765v-.127c0-.573.255-.765,1.083-.765h.127c.956,0,1.147.127,1.147.828v.064h-.446v-.064c0-.382-.127-.51-.7-.51h-.127c-.573,0-.7.064-.7.446v.064c0,.255.064.382.765.382.956.064,1.211.255,1.211.828v.064c0,.637-.255.828-1.147.828h-.064Z" transform="translate(-67.848 -188.589)" fill="#8d9091"/>
      <path id="Path_7168" data-name="Path 7168" d="M125.61,188.51h-.51V188h.51Zm0,3.568h-.51v-2.931h.51Z" transform="translate(-69.662 -187.936)" fill="#8d9091"/>
      <path id="Path_7169" data-name="Path 7169" d="M128.311,193.787c-.892,0-1.147-.127-1.147-.828v-.064h.446v.064c0,.382.127.51.7.51h.127c.765,0,.828-.064.828-.892v-.382h0c-.127.319-.382.446-.956.446h-.064c-.828,0-1.147-.255-1.147-1.274v-.127c0-1.083.255-1.338,1.147-1.338h.064c.574,0,.828.127.956.446h0v-.382h.446v2.676c0,1.083-.255,1.274-1.338,1.274h-.064Zm.064-1.529c.7,0,.828-.191.828-.956v-.127c0-.828-.127-.956-.828-.956h-.064c-.637,0-.765.191-.765.956v.127c0,.765.191.956.765.956Z" transform="translate(-70.388 -188.626)" fill="#8d9091"/>
      <path id="Path_7170" data-name="Path 7170" d="M135.076,192.695h-.51v-1.72c0-.7-.127-.828-.765-.828h-.064c-.574,0-.828.191-.828.828v1.72h-.51v-2.931h.51v.446h0c.127-.319.382-.51,1.02-.51h.064c.828,0,1.083.255,1.083,1.083Z" transform="translate(-72.311 -188.553)" fill="#8d9091"/>
      <path id="Path_7171" data-name="Path 7171" d="M140.285,192.731h-.446v-.319h0c-.127.255-.382.382-.892.382h-.064c-.828,0-1.083-.191-1.083-.892v-.064c0-.637.255-.828,1.02-.828h.064c.573,0,.828.064.956.255h0v-.191c0-.828-.064-.892-.765-.892h-.064c-.573,0-.7.127-.7.446v.064h-.446v-.064c0-.7.255-.828,1.147-.828h.064c1.02,0,1.211.191,1.211,1.338Zm-1.274-.319c.573,0,.765-.127.765-.51v-.064c0-.446-.127-.51-.828-.51h-.064c-.573,0-.7.127-.7.51v.064c0,.382.127.51.828.51Z" transform="translate(-74.27 -188.589)" fill="#8d9091"/>
      <path id="Path_7172" data-name="Path 7172" d="M144.011,193.787c-.892,0-1.147-.127-1.147-.828v-.064h.446v.064c0,.382.127.51.7.51h.127c.765,0,.828-.064.828-.892v-.382h0c-.127.319-.382.446-.956.446h-.064c-.828,0-1.147-.255-1.147-1.274v-.127c0-1.083.255-1.338,1.147-1.338h.064c.573,0,.828.127.956.446h0v-.382h.446v2.676c0,1.083-.255,1.274-1.338,1.274h-.064Zm.064-1.529c.7,0,.828-.191.828-.956v-.127c0-.828-.127-.956-.828-.956h-.064c-.637,0-.765.191-.765.956v.127c0,.765.191.956.765.956Z" transform="translate(-76.083 -188.626)" fill="#8d9091"/>
      <path id="Path_7173" data-name="Path 7173" d="M149.274,192.731c-1.02,0-1.274-.255-1.274-1.4V191.2c0-1.147.255-1.4,1.274-1.4h.127c.956,0,1.211.255,1.211,1.211v.319h-2.1v.127c0,.828.127.956.828.956h.064c.637,0,.765-.127.765-.573v-.064h.446v.064c0,.7-.319.956-1.211.956h-.127Zm.892-1.72v-.127c0-.637-.127-.765-.765-.765h-.127c-.7,0-.828.127-.828.892Z" transform="translate(-77.97 -188.589)" fill="#8d9091"/>
      <path id="Path_7174" data-name="Path 7174" d="M157.166,192.695c-.573,0-.828-.127-.956-.446h0v1.466h-.51v-3.951h.446v.382h0c.127-.319.382-.446.956-.446h.064c.892,0,1.147.255,1.147,1.4v.127c.064,1.211-.191,1.466-1.147,1.466Zm-.064-.382c.637,0,.828-.191.828-1.02v-.127c0-.892-.127-1.02-.828-1.02h-.064c-.637,0-.828.127-.828.956v.319c0,.765.191.956.828.956h.064Z" transform="translate(-80.763 -188.553)" fill="#8d9091"/>
      <path id="Path_7175" data-name="Path 7175" d="M161.51,192.042H161V187.9h.51Z" transform="translate(-82.686 -187.9)" fill="#8d9091"/>
      <path id="Path_7176" data-name="Path 7176" d="M165.485,192.731h-.446v-.319h0c-.127.255-.382.382-.892.382h-.064c-.828,0-1.083-.191-1.083-.892v-.064c0-.637.255-.828,1.02-.828h.064c.573,0,.828.064.956.255h0v-.191c0-.828-.064-.892-.765-.892h-.064c-.574,0-.7.127-.7.446v.064h-.446v-.064c0-.7.255-.828,1.147-.828h.064c1.02,0,1.211.191,1.211,1.338v1.593Zm-1.211-.319c.573,0,.765-.127.765-.51v-.064c0-.446-.127-.51-.828-.51h-.064c-.573,0-.7.127-.7.51v.064c0,.382.127.51.828.51Z" transform="translate(-83.412 -188.589)" fill="#8d9091"/>
      <path id="Path_7177" data-name="Path 7177" d="M168.938,192.3c-.7,0-.892-.127-.892-1.147v-1.466H167.6v-.319h.446V188.6h.51v.765h1.4v.319h-1.466v1.4c0,.7.064.765.446.765H169c.382,0,.446-.064.446-.765v-.255h.382v.319c0,.828-.191,1.02-.892,1.02h0Z" transform="translate(-85.081 -188.154)" fill="#8d9091"/>
      <path id="Path_7178" data-name="Path 7178" d="M172.592,192.078h-.51v-2.549H171.7v-.319h.382v-.255c0-.765.255-.956.892-.956h.446v.319H173.1c-.446,0-.51.127-.51.637v.255h.7v.319h-.7v2.549Z" transform="translate(-86.568 -187.936)" fill="#8d9091"/>
      <path id="Path_7179" data-name="Path 7179" d="M175.938,192.695c-1.02,0-1.338-.319-1.338-1.4V191.1c0-1.083.319-1.4,1.338-1.4h.127c1.02,0,1.338.319,1.338,1.4v.191c0,1.083-.319,1.4-1.338,1.4Zm.064-.319c.7,0,.828-.191.828-1.02v-.191c0-.828-.127-1.02-.828-1.02h-.064c-.7,0-.828.191-.828,1.02v.191c0,.828.127,1.02.828,1.02Z" transform="translate(-87.62 -188.553)" fill="#8d9091"/>
      <path id="Path_7180" data-name="Path 7180" d="M180.51,192.695H180v-2.931h.446v.51h0a.805.805,0,0,1,.892-.573h.064c.7,0,.828.191.828.892v.255h-.446v-.127c0-.51-.064-.574-.573-.574h-.064c-.446,0-.7.191-.7.892v1.657Z" transform="translate(-89.579 -188.553)" fill="#8d9091"/>
      <path id="Path_7181" data-name="Path 7181" d="M188.824,192.695h-.51v-1.72c0-.7-.127-.828-.7-.828h-.064c-.51,0-.765.127-.765.828v1.72h-.51v-1.72c0-.765-.127-.828-.637-.828h-.064c-.51,0-.765.191-.765.828v1.72h-.51v-2.931h.51v.446h0a.832.832,0,0,1,.892-.51h.064c.637,0,.828.191.956.574h0a.961.961,0,0,1,.956-.574h.064c.828,0,1.02.255,1.02,1.083v1.912Z" transform="translate(-91.139 -188.553)" fill="#8d9091"/>
    </g>
    <g id="Group_7212" data-name="Group 7212" transform="translate(9.172 150.1)">
      <path id="Path_7182" data-name="Path 7182" d="M11.028,164.675a2.111,2.111,0,0,0,2.1,2.23,1.924,1.924,0,0,0,2.039-1.975c0-1.4-1.083-1.912-2.23-2.23a4.988,4.988,0,0,1-2.1-1.02,2.989,2.989,0,0,1-.956-2.23,3.253,3.253,0,0,1,3.377-3.25,3.294,3.294,0,0,1,3.25,3.186H14.915a1.641,1.641,0,0,0-1.784-1.657,1.593,1.593,0,0,0-1.593,1.657c0,1.274,1.02,1.657,2.039,1.975,1.72.573,3.25,1.338,3.25,3.441a3.665,3.665,0,1,1-7.328,0h1.529Z" transform="translate(-9.497 -152.313)" fill="#999"/>
      <path id="Path_7183" data-name="Path 7183" d="M23.9,150.1h1.593v2.676H23.9Zm0,4.078h1.593V165.9H23.9Z" transform="translate(-14.722 -150.1)" fill="#999"/>
      <path id="Path_7184" data-name="Path 7184" d="M42.007,166.423c0,1.848-.064,2.931-1.338,4.333a6.257,6.257,0,0,1-4.588,1.912,5.927,5.927,0,0,1-5.735-4.333h1.529a4.682,4.682,0,0,0,4.333,2.8,4.426,4.426,0,0,0,3.823-2.039,4.814,4.814,0,0,0,.51-2.676v-.637h-.064a4.691,4.691,0,0,1-4.524,2.613,6.1,6.1,0,0,1-4.206-1.72,5.916,5.916,0,0,1-1.848-4.4,6.774,6.774,0,0,1,1.083-3.632,5.8,5.8,0,0,1,4.843-2.549,4.968,4.968,0,0,1,4.588,2.549h.064v-2.294h1.529v10.068ZM31.493,162.09a4.456,4.456,0,0,0,4.461,4.715,4.15,4.15,0,0,0,3.186-1.338,5.126,5.126,0,0,0,1.338-3.25,4.544,4.544,0,0,0-4.652-4.588A4.406,4.406,0,0,0,31.493,162.09Z" transform="translate(-16.899 -152.277)" fill="#999"/>
      <path id="Path_7185" data-name="Path 7185" d="M53.064,156.355h1.466v1.72h.064a4.085,4.085,0,0,1,3.568-1.975,5.38,5.38,0,0,1,4.142,1.975,5.819,5.819,0,0,1,1.083,3.887v6.181H61.794v-6.181a4.314,4.314,0,0,0-.7-2.8,3.683,3.683,0,0,0-2.995-1.529,3.477,3.477,0,0,0-2.867,1.466,4.895,4.895,0,0,0-.637,2.867v6.181H53V156.355Z" transform="translate(-25.279 -152.277)" fill="#999"/>
      <path id="Path_7186" data-name="Path 7186" d="M85.162,168.043H83.633v-2.23h-.064a4.835,4.835,0,0,1-4.461,2.485,6.97,6.97,0,0,1-5.161-2.485,6.168,6.168,0,0,1-1.147-3.76A6.089,6.089,0,0,1,79.045,156a4.935,4.935,0,0,1,4.524,2.485h.064v-2.23h1.529v11.788Zm-10.769-5.8a4.72,4.72,0,0,0,4.715,4.588,4.627,4.627,0,0,0,4.524-4.524,4.62,4.62,0,1,0-9.24-.064Z" transform="translate(-32.462 -152.24)" fill="#999"/>
      <path id="Path_7187" data-name="Path 7187" d="M107.807,166.423c0,1.848-.064,2.931-1.338,4.333a6.257,6.257,0,0,1-4.588,1.912,5.927,5.927,0,0,1-5.735-4.333h1.529a4.682,4.682,0,0,0,4.333,2.8,4.426,4.426,0,0,0,3.823-2.039,4.814,4.814,0,0,0,.51-2.676v-.637h-.064a4.691,4.691,0,0,1-4.524,2.613,6.1,6.1,0,0,1-4.206-1.72,5.916,5.916,0,0,1-1.848-4.4,6.774,6.774,0,0,1,1.083-3.632,5.8,5.8,0,0,1,4.843-2.549,4.968,4.968,0,0,1,4.588,2.549h.064v-2.294h1.529ZM97.229,162.09a4.456,4.456,0,0,0,4.461,4.715,4.15,4.15,0,0,0,3.186-1.338,5.126,5.126,0,0,0,1.338-3.25,4.544,4.544,0,0,0-4.652-4.588A4.448,4.448,0,0,0,97.229,162.09Z" transform="translate(-40.77 -152.277)" fill="#999"/>
      <path id="Path_7188" data-name="Path 7188" d="M119.829,162.827a4.486,4.486,0,0,0,4.4,4.078,4.618,4.618,0,0,0,4.206-2.549h1.657a6.185,6.185,0,0,1-5.671,4.078,6.118,6.118,0,1,1,4.652-9.941,6.447,6.447,0,0,1,1.338,4.4H119.829Zm8.921-1.466a4.564,4.564,0,0,0-8.985,0Z" transform="translate(-48.969 -152.313)" fill="#999"/>
      <path id="Path_7189" data-name="Path 7189" d="M140.6,150.1h1.593v15.867H140.6Z" transform="translate(-57.059 -150.1)" fill="#222"/>
      <path id="Path_7190" data-name="Path 7190" d="M147.3,150.1h1.593v2.676H147.3Zm0,4.078h1.593V165.9H147.3Z" transform="translate(-59.49 -150.1)" fill="#222"/>
      <path id="Path_7191" data-name="Path 7191" d="M152.2,156.5h1.72l4.014,9.686,4.014-9.686h1.72l-4.907,11.725h-1.657Z" transform="translate(-61.267 -152.422)" fill="#222"/>
      <path id="Path_7192" data-name="Path 7192" d="M173.429,162.827a4.486,4.486,0,0,0,4.4,4.078,4.618,4.618,0,0,0,4.206-2.549h1.657a6.185,6.185,0,0,1-5.671,4.078,6.118,6.118,0,1,1,4.652-9.941,6.448,6.448,0,0,1,1.338,4.4H173.429Zm8.985-1.466a4.564,4.564,0,0,0-8.985,0Z" transform="translate(-68.414 -152.313)" fill="#222"/>
    </g>
  </g>
</svg>
