<svg xmlns="http://www.w3.org/2000/svg" width="441" height="225" viewBox="0 0 441 225">
  <g id="Group_7654" data-name="Group 7654" transform="translate(-12498 -6799)">
    <path id="Path_7232" data-name="Path 7232" d="M8,0H433a8,8,0,0,1,8,8V225H0V8A8,8,0,0,1,8,0Z" transform="translate(12498 6799)" fill="#72af9a"/>
    <g id="Rectangle_2679" data-name="Rectangle 2679" transform="translate(12672 6876)" fill="none" stroke="#fff" stroke-width="3">
      <rect width="93" height="71" rx="8" stroke="none"/>
      <rect x="1.5" y="1.5" width="90" height="68" rx="6.5" fill="none"/>
    </g>
    <g id="noun-tag-124944" transform="matrix(0.695, 0.719, -0.719, 0.695, 12735.993, 6687.072)">
      <path id="Path_7138" data-name="Path 7138" d="M138.847,155.52a3.16,3.16,0,0,0-2.153.884l-9.8,9.764a3.039,3.039,0,0,0,0,4.306l3.267,3.267v-.192a.485.485,0,0,0,.154.346l1.23,1.192,5.152,5.189a3.158,3.158,0,0,0,2.153.884l19.934.173a3.445,3.445,0,0,0,3.46-3.46v-18.76a3.438,3.438,0,0,0-3.46-3.422Zm0,1.038,19.934.173a2.4,2.4,0,0,1,2.422,2.384v18.8a2.4,2.4,0,0,1-2.422,2.383l-19.934-.173a1.974,1.974,0,0,1-1.422-.576l-5.152-5.19h-.039l-1.038-1.038v.193a.418.418,0,0,0-.153-.346l-3.422-3.422a1.974,1.974,0,0,1,0-2.845l9.8-9.765a1.976,1.976,0,0,1,1.423-.576Zm1.858,8a3.709,3.709,0,1,0,3.729,3.69A3.725,3.725,0,0,0,140.706,164.557Zm0,1a2.691,2.691,0,1,1-2.691,2.691A2.7,2.7,0,0,1,140.706,165.557Z" fill="#fff" stroke="#fff" stroke-width="2"/>
    </g>
  </g>
</svg>
