<svg xmlns="http://www.w3.org/2000/svg" width="88" height="88" viewBox="0 0 88 88">
  <g id="Group_6551" data-name="Group 6551" transform="translate(3256 9501)">
    <rect id="Rectangle_312" data-name="Rectangle 312" width="88" height="88" rx="12" transform="translate(-3256 -9501)" fill="#313a53"/>
    <path id="Path_1" data-name="Path 1" d="M6.589,38.8A6.6,6.6,0,0,1,0,32.205V23.012H4.822v9.193a1.755,1.755,0,0,0,1.755,1.753H40.7a1.753,1.753,0,0,0,1.753-1.753V23.012h4.841v9.193a6.586,6.586,0,0,1-6.58,6.592ZM21.234,30.51V8.259L13.4,16.095l-.342-.34L9.982,12.671l.342-.338L21.941.71a2.411,2.411,0,0,1,3.421,0L37.328,12.673l-3.421,3.421L26.073,8.259V30.51Z" transform="translate(-3235.472 -9476.104)" fill="#fff"/>
  </g>
</svg>
