<svg xmlns="http://www.w3.org/2000/svg" xmlns:xlink="http://www.w3.org/1999/xlink" width="205" height="200" viewBox="0 0 205 200">
  <defs>
    <clipPath id="clip-path">
      <circle id="Ellipse_150" data-name="Ellipse 150" cx="100" cy="100" r="100" transform="translate(0)" fill="#f7f8f8"/>
    </clipPath>
    <filter id="Rectangle_412" x="30" y="46" width="134" height="99" filterUnits="userSpaceOnUse">
      <feOffset dy="3" input="SourceAlpha"/>
      <feGaussianBlur stdDeviation="3" result="blur"/>
      <feFlood flood-opacity="0.161"/>
      <feComposite operator="in" in2="blur"/>
      <feComposite in="SourceGraphic"/>
    </filter>
    <clipPath id="clip-Artboard_35">
      <rect width="205" height="200"/>
    </clipPath>
  </defs>
  <g id="Artboard_35" data-name="Artboard – 35" clip-path="url(#clip-Artboard_35)">
    <g id="Group_283" data-name="Group 283" transform="translate(-1045 -546)">
      <g id="Group_283-2" data-name="Group 283" transform="translate(1048 546)">
        <circle id="Ellipse_149" data-name="Ellipse 149" cx="100" cy="100" r="100" transform="translate(0)" fill="#f7f8f8"/>
      </g>
      <g id="Group_284" data-name="Group 284" transform="translate(1084.453 598.217)">
        <g id="Group_281" data-name="Group 281" transform="translate(0 0)">
          <g transform="matrix(1, 0, 0, 1, -39.45, -52.22)" filter="url(#Rectangle_412)">
            <rect id="Rectangle_412-2" data-name="Rectangle 412" width="116" height="81" rx="3" transform="translate(39 52)" fill="#fff"/>
          </g>
          <path id="Rectangle_413" data-name="Rectangle 413" d="M3,0H113a3,3,0,0,1,3,3V15a0,0,0,0,1,0,0H0a0,0,0,0,1,0,0V3A3,3,0,0,1,3,0Z" transform="translate(-0.453 -0.217)" fill="#445a65"/>
          <g id="Group_280" data-name="Group 280" transform="translate(4.927 4.926)">
            <circle id="Ellipse_170" data-name="Ellipse 170" cx="2.5" cy="2.5" r="2.5" transform="translate(-0.38 -0.143)" fill="#fff"/>
            <circle id="Ellipse_171" data-name="Ellipse 171" cx="2.5" cy="2.5" r="2.5" transform="translate(9.62 -0.143)" fill="#fff"/>
            <circle id="Ellipse_172" data-name="Ellipse 172" cx="2.5" cy="2.5" r="2.5" transform="translate(17.62 -0.143)" fill="#fff"/>
          </g>
          <text id="API" transform="translate(27.547 43.783)" fill="#fd3d4c" font-size="28" font-family="Inter-SemiBold, Inter" font-weight="600"><tspan x="-22.989" y="0">API</tspan></text>
        </g>
        <path id="Icon_ionic-ios-settings" data-name="Icon ionic-ios-settings" d="M79.281,45.255a10.489,10.489,0,0,1,6.729-9.785,41.575,41.575,0,0,0-5.031-12.12,10.629,10.629,0,0,1-4.266.913A10.465,10.465,0,0,1,67.139,9.531,41.449,41.449,0,0,0,55.04,4.5a10.48,10.48,0,0,1-19.571,0,41.575,41.575,0,0,0-12.12,5.031,10.465,10.465,0,0,1-9.573,14.731,10.283,10.283,0,0,1-4.267-.913A42.494,42.494,0,0,0,4.5,35.491a10.477,10.477,0,0,1,6.729,9.785,10.5,10.5,0,0,1-6.708,9.785,41.575,41.575,0,0,0,5.031,12.12A10.47,10.47,0,0,1,23.37,81a41.817,41.817,0,0,0,12.12,5.031,10.461,10.461,0,0,1,19.528,0A41.575,41.575,0,0,0,67.139,81,10.48,10.48,0,0,1,80.958,67.182a41.818,41.818,0,0,0,5.031-12.12A10.539,10.539,0,0,1,79.281,45.255ZM45.446,62.215A16.981,16.981,0,1,1,62.427,45.234,16.976,16.976,0,0,1,45.446,62.215Z" transform="translate(40.155 31.487)" fill="#b6d2fc"/>
      </g>
    </g>
  </g>
</svg>
