<svg width="50" height="50" viewBox="0 0 50 50" fill="none" xmlns="http://www.w3.org/2000/svg">
<g id="hired">
<path id="Shape" fill-rule="evenodd" clip-rule="evenodd" d="M44.6626 39.8473C45.1985 39.1066 45.5156 38.1978 45.5156 37.2158V31.3477C45.5156 30.8083 45.0783 30.3711 44.5391 30.3711H40.1746C38.157 30.3711 36.5156 32.0125 36.5156 34.0301V37.2158C36.5156 38.1972 36.8323 39.1054 37.3676 39.8458C36.7 39.9541 36.0577 40.168 35.4587 40.4811C34.1019 38.4564 31.8789 37.0602 29.3244 36.8246C29.3145 36.8218 29.3043 36.8197 29.2942 36.8173C30.2082 35.7967 30.7653 34.4502 30.7653 32.9756V25C30.7653 24.4606 30.328 24.0234 29.7888 24.0234H23.8569C21.3082 24.0234 19.2347 26.097 19.2347 28.6457V32.9755C19.2347 34.4501 19.7918 35.7966 20.7058 36.8172C20.6957 36.8196 20.6855 36.8218 20.6756 36.8245C18.1208 37.0601 15.8978 38.4565 14.541 40.4814C13.9418 40.1685 13.2994 39.9544 12.6321 39.8461C13.1675 39.1057 13.4844 38.1973 13.4844 37.2158V31.3477C13.4844 30.8083 13.0471 30.3711 12.5078 30.3711H8.14336C6.12578 30.3711 4.48438 32.0125 4.48438 34.0301V37.2158C4.48438 38.1979 4.80147 39.1066 5.3374 39.8473C2.31465 40.3413 0 42.9701 0 46.1304V49.0234C0 49.5628 0.437305 50 0.976562 50H49.0234C49.5627 50 50 49.5628 50 49.0234V46.1304C50 42.9701 47.6854 40.3413 44.6626 39.8473ZM6.4375 34.0301C6.4375 33.0895 7.20273 32.3242 8.14336 32.3242H11.5312V33.5136C11.5312 34.0968 11.0568 34.5712 10.4737 34.5712H6.4375V34.0301ZM10.4737 36.5242H6.4375V37.2158C6.4375 38.6201 7.57998 39.7627 8.98438 39.7627C10.3888 39.7627 11.5312 38.6201 11.5312 37.2158V36.3319C11.2021 36.456 10.8458 36.5242 10.4737 36.5242ZM9.61397 41.7158L8.98438 42.3454L8.35478 41.7158H9.61397ZM13.1398 48.0469V45.0914C13.1398 44.0827 13.3211 43.1156 13.652 42.2205C13.2336 42.0004 12.7847 41.8499 12.3179 41.7739L9.6749 44.417C9.4917 44.6001 9.24336 44.703 8.98438 44.703C8.72539 44.703 8.47705 44.6001 8.29385 44.417L5.65166 41.7748C3.55693 42.118 1.95312 43.94 1.95312 46.1304V48.0469H13.1398ZM25.0001 36.7878C22.898 36.7878 21.1879 35.0776 21.1879 32.9756V31.6849H27.0242C27.6714 31.6849 28.2808 31.5195 28.8123 31.2291V32.9756C28.8123 35.0776 27.1021 36.7878 25.0001 36.7878ZM25 40.4432L26.7023 38.7408H23.2977L25 40.4432ZM21.1877 28.6457H21.1878C21.1878 27.1739 22.3852 25.9766 23.8569 25.9766H28.8122V27.9437C28.8122 28.9297 28.0101 29.7318 27.0241 29.7318H21.1877V28.6457ZM33.0078 48.0469H34.9069V45.0914C34.9069 41.8779 32.5071 39.2161 29.406 38.7993L25.6905 42.5147C25.4998 42.7055 25.2499 42.8008 25 42.8008C24.7501 42.8008 24.5002 42.7055 24.3095 42.5147L20.594 38.7993C17.8047 39.1742 15.583 41.3651 15.1645 44.1406H21.4519C21.9911 44.1406 22.4284 44.5778 22.4284 45.1172C22.4284 45.6565 21.9911 46.0938 21.4519 46.0938H15.0931V48.0469H16.9922H33.0078ZM38.4688 34.0301C38.4688 33.0895 39.234 32.3242 40.1746 32.3242H43.5625V33.5136C43.5625 34.0968 43.0881 34.5712 42.505 34.5712H38.4688V34.0301ZM42.505 36.5242H38.4688V37.2158C38.4688 38.6201 39.6112 39.7627 41.0156 39.7627C42.42 39.7627 43.5625 38.6201 43.5625 37.2158V36.3319C43.2333 36.456 42.8771 36.5242 42.505 36.5242ZM41.6452 41.7158L41.0156 42.3454L40.386 41.7158H41.6452ZM36.8601 45.0914V48.0469H48.0468V46.1304C48.0468 43.94 46.443 42.1181 44.3482 41.7748L41.7061 44.417C41.5229 44.6001 41.2745 44.703 41.0155 44.703C40.7565 44.703 40.5082 44.6001 40.325 44.417L37.6817 41.7737C37.2148 41.8496 36.766 42 36.3479 42.2203C36.6788 43.1155 36.8601 44.0826 36.8601 45.0914Z" fill="#323232"/>
<path id="Path" fill-rule="evenodd" clip-rule="evenodd" d="M29.8127 6.37976C29.4312 5.99841 28.8131 5.99841 28.4315 6.37976L23.6395 11.1719L21.5679 9.10027C21.1865 8.71882 20.5683 8.71882 20.1869 9.10017C19.8055 9.48152 19.8055 10.0999 20.1869 10.4813L22.949 13.2434C23.1322 13.4265 23.3805 13.5295 23.6395 13.5295C23.8985 13.5295 24.1469 13.4265 24.3301 13.2434L29.8127 7.76082C30.194 7.37947 30.194 6.76111 29.8127 6.37976Z" fill="#323232"/>
<path id="Path_2" fill-rule="evenodd" clip-rule="evenodd" d="M28.9928 0.846615C28.5003 0.626987 27.9229 0.848178 27.7031 1.34076C27.4834 1.83333 27.7047 2.41078 28.1973 2.6304C31.0292 3.89339 32.8591 6.71244 32.8591 9.81224C32.8591 14.1458 29.3334 17.6715 24.9998 17.6715C20.6662 17.6715 17.1405 14.1458 17.1405 9.81224C17.1405 6.72845 18.9572 3.91527 21.7688 2.64544C22.2603 2.42347 22.4788 1.84496 22.2567 1.35345C22.0348 0.86185 21.456 0.643393 20.9648 0.865365C17.4553 2.45052 15.1875 5.96234 15.1875 9.81214C15.1874 15.2228 19.5893 19.6246 24.9998 19.6246C30.4104 19.6246 34.8122 15.2228 34.8122 9.81224C34.8122 5.94242 32.5279 2.42318 28.9928 0.846615Z" fill="#323232"/>
<path id="Path_3" fill-rule="evenodd" clip-rule="evenodd" d="M25.035 0H25C24.4607 0 24.0234 0.437207 24.0234 0.976562C24.0234 1.51592 24.4607 1.95312 25 1.95312H25.0258C25.0273 1.95312 25.0288 1.95312 25.0305 1.95312C25.5677 1.95312 26.0044 1.51895 26.0069 0.981152C26.0095 0.441797 25.5743 0.00253906 25.035 0Z" fill="#323232"/>
<path id="Path_4" fill-rule="evenodd" clip-rule="evenodd" d="M25.6903 44.4268C25.5088 44.2451 25.2568 44.1406 25 44.1406C24.7432 44.1406 24.4912 44.2451 24.3096 44.4268C24.1279 44.6084 24.0234 44.8604 24.0234 45.1172C24.0234 45.374 24.1278 45.626 24.3096 45.8076C24.4913 45.9893 24.7432 46.0938 25 46.0938C25.2568 46.0938 25.5088 45.9893 25.6903 45.8076C25.872 45.626 25.9766 45.374 25.9766 45.1172C25.9766 44.8604 25.8721 44.6084 25.6903 44.4268Z" fill="#323232"/>
</g>
</svg>
