<svg width="49" height="39" viewBox="0 0 49 39" fill="none" xmlns="http://www.w3.org/2000/svg">
<path d="M3.78754 4.87586C3.97644 4.87586 4.16247 4.79915 4.29576 4.6649C4.43 4.53161 4.50672 4.34558 4.50672 4.15668C4.50672 3.96777 4.43 3.78175 4.29576 3.64846C4.16247 3.51421 3.97644 3.4375 3.78754 3.4375C3.59767 3.4375 3.41261 3.51421 3.27932 3.64846C3.14507 3.78175 3.06836 3.96777 3.06836 4.15668C3.06836 4.34558 3.14507 4.53161 3.27932 4.6649C3.41261 4.79915 3.59863 4.87586 3.78754 4.87586Z" fill="#323232"/>
<path d="M6.0893 4.87586C6.2782 4.87586 6.46423 4.79915 6.59751 4.6649C6.73176 4.53161 6.80847 4.34558 6.80847 4.15668C6.80847 3.96777 6.73176 3.78175 6.59751 3.64846C6.46423 3.51421 6.2782 3.4375 6.0893 3.4375C5.90039 3.4375 5.71436 3.51421 5.58108 3.64846C5.44683 3.78175 5.37012 3.96777 5.37012 4.15668C5.37012 4.34558 5.44683 4.53161 5.58108 4.6649C5.71436 4.79915 5.90039 4.87586 6.0893 4.87586Z" fill="#323232"/>
<path d="M8.39057 4.87586C8.57947 4.87586 8.7655 4.79915 8.89878 4.6649C9.03303 4.53161 9.10974 4.34558 9.10974 4.15668C9.10974 3.96777 9.03303 3.78175 8.89878 3.64846C8.7655 3.51421 8.57947 3.4375 8.39057 3.4375C8.20166 3.4375 8.01563 3.51421 7.88235 3.64846C7.7481 3.78175 7.67139 3.96777 7.67139 4.15668C7.67139 4.34558 7.7481 4.53161 7.88235 4.6649C8.01563 4.79915 8.20166 4.87586 8.39057 4.87586Z" fill="#323232"/>
<path d="M36.007 21.8494C35.1346 21.8494 34.4248 21.1396 34.4248 20.2672V17.9659C34.4248 16.3003 33.0698 14.9453 31.4043 14.9453H30.6371C30.24 14.9453 29.918 15.2673 29.918 15.6645C29.918 16.0617 30.24 16.3837 30.6371 16.3837H31.4043C32.2767 16.3837 32.9865 17.0934 32.9865 17.9659V20.2672C32.9865 21.1882 33.4007 22.0142 34.0527 22.5686C33.4007 23.123 32.9865 23.949 32.9865 24.87V27.1713C32.9865 28.0437 32.2767 28.7535 31.4043 28.7535H30.6371C30.24 28.7535 29.918 29.0755 29.918 29.4727C29.918 29.8699 30.24 30.1919 30.6371 30.1919H31.4043C33.0698 30.1919 34.4248 28.8369 34.4248 27.1713V24.87C34.4248 23.9976 35.1346 23.2878 36.007 23.2878C36.4042 23.2878 36.7262 22.9658 36.7262 22.5686C36.7262 22.1714 36.4042 21.8494 36.007 21.8494Z" fill="#323232"/>
<path d="M16.0137 20.2672V17.9659C16.0137 17.0934 16.7234 16.3837 17.5958 16.3837H18.363C18.7601 16.3837 19.0821 16.0617 19.0821 15.6645C19.0821 15.2673 18.7601 14.9453 18.363 14.9453H17.5958C15.9303 14.9453 14.5753 16.3003 14.5753 17.9659V20.2672C14.5753 21.1396 13.8655 21.8494 12.9931 21.8494C12.5959 21.8494 12.2739 22.1714 12.2739 22.5686C12.2739 22.9658 12.5959 23.2878 12.9931 23.2878C13.8655 23.2878 14.5753 23.9976 14.5753 24.87V27.1713C14.5753 28.8369 15.9303 30.1919 17.5958 30.1919H18.363C18.7601 30.1919 19.0821 29.8699 19.0821 29.4727C19.0821 29.0755 18.7601 28.7535 18.363 28.7535H17.5958C16.7234 28.7535 16.0137 28.0437 16.0137 27.1713V24.87C16.0137 23.949 15.5994 23.123 14.9474 22.5686C15.5994 22.0142 16.0137 21.1882 16.0137 20.2672Z" fill="#323232"/>
<path d="M28.3359 25.6836C28.147 25.6836 27.9609 25.7603 27.8277 25.8946C27.6934 26.0278 27.6167 26.2139 27.6167 26.4028C27.6167 26.5917 27.6934 26.7777 27.8277 26.911C27.9609 27.0452 28.147 27.1219 28.3359 27.1219C28.5257 27.1219 28.7108 27.0452 28.8441 26.911C28.9783 26.7777 29.055 26.5917 29.055 26.4028C29.055 26.2139 28.9783 26.0278 28.8441 25.8946C28.7108 25.7603 28.5248 25.6836 28.3359 25.6836Z" fill="#323232"/>
<path d="M24.4999 25.6836C24.311 25.6836 24.125 25.7603 23.9917 25.8946C23.8575 26.0278 23.7808 26.2139 23.7808 26.4028C23.7808 26.5926 23.8575 26.7777 23.9917 26.911C24.125 27.0452 24.311 27.1219 24.4999 27.1219C24.6888 27.1219 24.8749 27.0452 25.0082 26.911C25.1424 26.7777 25.2191 26.5917 25.2191 26.4028C25.2191 26.2139 25.1424 26.0278 25.0082 25.8946C24.8749 25.7603 24.6888 25.6836 24.4999 25.6836Z" fill="#323232"/>
<path d="M20.6645 25.6836C20.4746 25.6836 20.2896 25.7603 20.1563 25.8946C20.022 26.0278 19.9453 26.2139 19.9453 26.4028C19.9453 26.5917 20.022 26.7777 20.1563 26.911C20.2896 27.0452 20.4756 27.1219 20.6645 27.1219C20.8534 27.1219 21.0394 27.0452 21.1727 26.911C21.307 26.7777 21.3837 26.5917 21.3837 26.4028C21.3837 26.2139 21.307 26.0278 21.1727 25.8946C21.0394 25.7603 20.8534 25.6836 20.6645 25.6836Z" fill="#323232"/>
<path d="M11.4589 4.87586H40.6096C41.0068 4.87586 41.3288 4.55386 41.3288 4.15668C41.3288 3.7595 41.0068 3.4375 40.6096 3.4375H11.4589C11.0617 3.4375 10.7397 3.7595 10.7397 4.15668C10.7397 4.55386 11.0617 4.87586 11.4589 4.87586Z" fill="#323232"/>
<path d="M43.6782 4.87586H45.2124C45.6096 4.87586 45.9316 4.55386 45.9316 4.15668C45.9316 3.7595 45.6096 3.4375 45.2124 3.4375H43.6782C43.281 3.4375 42.959 3.7595 42.959 4.15668C42.959 4.55386 43.281 4.87586 43.6782 4.87586Z" fill="#323232"/>
<path d="M45.2123 0.369141H3.78767C1.69918 0.369141 0 2.06832 0 4.15681V34.8417C0 36.9302 1.69918 38.6294 3.78767 38.6294H45.2123C47.3008 38.6294 49 36.9302 49 34.8417V4.15681C49 2.06832 47.3008 0.369141 45.2123 0.369141ZM3.78767 1.8075H45.2123C46.5077 1.8075 47.5616 2.86143 47.5616 4.15681V6.50613H1.43836V4.15681C1.43836 2.86143 2.49229 1.8075 3.78767 1.8075ZM45.2123 37.1911H3.78767C2.49229 37.1911 1.43836 36.1371 1.43836 34.8417V7.94448H47.5616V34.8417C47.5616 36.1371 46.5077 37.1911 45.2123 37.1911Z" fill="#323232"/>
</svg>
