<svg xmlns="http://www.w3.org/2000/svg" xmlns:xlink="http://www.w3.org/1999/xlink" width="321.899" height="209" viewBox="0 0 321.899 209">
  <defs>
    <filter id="Rectangle_2348" x="0" y="0.079" width="182.919" height="208.921" filterUnits="userSpaceOnUse">
      <feOffset dy="3" input="SourceAlpha"/>
      <feGaussianBlur stdDeviation="3" result="blur"/>
      <feFlood flood-opacity="0.161"/>
      <feComposite operator="in" in2="blur"/>
      <feComposite in="SourceGraphic"/>
    </filter>
    <filter id="Rectangle_2348-2" x="138.98" y="0.079" width="182.919" height="208.92" filterUnits="userSpaceOnUse">
      <feOffset dy="3" input="SourceAlpha"/>
      <feGaussianBlur stdDeviation="3" result="blur-2"/>
      <feFlood flood-opacity="0.161"/>
      <feComposite operator="in" in2="blur-2"/>
      <feComposite in="SourceGraphic"/>
    </filter>
    <filter id="Rectangle_2348-3" x="74.45" y="0" width="170" height="206" filterUnits="userSpaceOnUse">
      <feOffset dy="3" input="SourceAlpha"/>
      <feGaussianBlur stdDeviation="3" result="blur-3"/>
      <feFlood flood-opacity="0.161"/>
      <feComposite operator="in" in2="blur-3"/>
      <feComposite in="SourceGraphic"/>
    </filter>
  </defs>
  <g id="Group_6520" data-name="Group 6520" transform="translate(-973.354 -372.187)">
    <g id="Group_6518" data-name="Group 6518" transform="translate(982.354 378.266)">
      <g transform="matrix(1, 0, 0, 1, -9, -6.08)" filter="url(#Rectangle_2348)">
        <rect id="Rectangle_2348-4" data-name="Rectangle 2348" width="135.312" height="168.192" rx="2" transform="translate(9 31.9) rotate(-11)" fill="#fff"/>
      </g>
      <path id="Rectangle_2349" data-name="Rectangle 2349" d="M2,0H133.312a2,2,0,0,1,2,2V107.491a0,0,0,0,1,0,0H0a0,0,0,0,1,0,0V2A2,2,0,0,1,2,0Z" transform="translate(0 25.819) rotate(-11)" fill="#eff1f2" opacity="0.449"/>
      <g id="Group_6512" data-name="Group 6512" transform="translate(36.464 147.764) rotate(-11)">
        <circle id="Ellipse_212" data-name="Ellipse 212" cx="14.296" cy="14.296" r="14.296" transform="translate(0 0)" fill="#eff1f2"/>
        <path id="Path_6506" data-name="Path 6506" d="M2.84,0h29.4a2.84,2.84,0,0,1,2.84,2.84h0a2.84,2.84,0,0,1-2.84,2.84H2.84A2.84,2.84,0,0,1,0,2.84H0A2.84,2.84,0,0,1,2.84,0Z" transform="translate(39.126 5.375)" fill="#eff1f2"/>
        <path id="Path_6507" data-name="Path 6507" d="M2.84,0H63.36A2.84,2.84,0,0,1,66.2,2.84h0a2.84,2.84,0,0,1-2.84,2.84H2.84A2.84,2.84,0,0,1,0,2.84H0A2.84,2.84,0,0,1,2.84,0Z" transform="translate(39.126 19.695)" fill="#eff1f2"/>
      </g>
      <path id="Path_6512" data-name="Path 6512" d="M0,65.9,30.682,19.041,58.59,45.16,100.266,0l35.281,44.7.026,21.2Z" transform="translate(7.673 65.975) rotate(-11)" fill="#eff1f2"/>
    </g>
    <g id="Group_6519" data-name="Group 6519" transform="translate(1121.335 378.266)">
      <g transform="matrix(1, 0, 0, 1, -147.98, -6.08)" filter="url(#Rectangle_2348-2)">
        <rect id="Rectangle_2348-5" data-name="Rectangle 2348" width="135.312" height="168.192" rx="2" transform="translate(280.81 197) rotate(-169)" fill="#fff"/>
      </g>
      <path id="Rectangle_2349-2" data-name="Rectangle 2349" d="M0,0H135.312a0,0,0,0,1,0,0V105.491a2,2,0,0,1-2,2H2a2,2,0,0,1-2-2V0A0,0,0,0,1,0,0Z" transform="translate(144.408 131.335) rotate(-169)" fill="#eff1f2" opacity="0.449"/>
      <g id="Group_6512-2" data-name="Group 6512" transform="translate(24.65 128.525) rotate(10)">
        <ellipse id="Ellipse_212-2" data-name="Ellipse 212" cx="14.296" cy="14.296" rx="14.296" ry="14.296" transform="translate(0 0)" fill="#eff1f2"/>
        <path id="Path_6506-2" data-name="Path 6506" d="M2.84,5.68h29.4a2.84,2.84,0,0,0,2.84-2.84h0A2.84,2.84,0,0,0,32.242,0H2.84A2.84,2.84,0,0,0,0,2.84H0A2.84,2.84,0,0,0,2.84,5.68Z" transform="translate(39.126 17.537)" fill="#eff1f2"/>
        <path id="Path_6507-2" data-name="Path 6507" d="M2.84,5.68H63.36A2.84,2.84,0,0,0,66.2,2.84h0A2.84,2.84,0,0,0,63.36,0H2.84A2.84,2.84,0,0,0,0,2.84H0A2.84,2.84,0,0,0,2.84,5.68Z" transform="translate(39.126 3.216)" fill="#eff1f2"/>
      </g>
      <path id="Path_6512-2" data-name="Path 6512" d="M0,0,30.682,46.859,58.589,20.74,100.266,65.9l35.281-44.7L135.572,0Z" transform="translate(144.671 130.664) rotate(-169)" fill="#eff1f2"/>
    </g>
    <g id="Group_6513" data-name="Group 6513" transform="translate(1056.868 378)">
      <g transform="matrix(1, 0, 0, 1, -83.51, -5.81)" filter="url(#Rectangle_2348-3)">
        <rect id="Rectangle_2348-6" data-name="Rectangle 2348" width="152" height="188" rx="2" transform="translate(83.45 6)" fill="#fff"/>
      </g>
      <path id="Rectangle_2349-3" data-name="Rectangle 2349" d="M2,0H150a2,2,0,0,1,2,2V120a0,0,0,0,1,0,0H0a0,0,0,0,1,0,0V2A2,2,0,0,1,2,0Z" transform="translate(-0.064 0.187)" fill="#eff1f2" opacity="0.26"/>
      <g id="Group_6512-3" data-name="Group 6512" transform="translate(14.192 142.044)" opacity="0.287">
        <circle id="Ellipse_212-3" data-name="Ellipse 212" cx="16.032" cy="16.032" r="16.032" transform="translate(0)" fill="#cbd1d3"/>
        <path id="Path_6506-3" data-name="Path 6506" d="M3.185,0H36.157a3.185,3.185,0,0,1,3.185,3.185h0A3.184,3.184,0,0,1,36.157,6.37H3.185A3.185,3.185,0,0,1,0,3.185H0A3.185,3.185,0,0,1,3.185,0Z" transform="translate(43.877 6.027)" fill="#cbd1d3"/>
        <path id="Path_6507-3" data-name="Path 6507" d="M3.185,0h67.87A3.185,3.185,0,0,1,74.24,3.185h0A3.185,3.185,0,0,1,71.055,6.37H3.185A3.185,3.185,0,0,1,0,3.185H0A3.185,3.185,0,0,1,3.185,0Z" transform="translate(43.877 22.087)" fill="#cbd1d3"/>
      </g>
      <path id="Path_6512-3" data-name="Path 6512" d="M0,73.9,34.408,21.353,65.7,50.644,112.441,0l39.565,50.128.03,23.774Z" transform="translate(0 45.847)" fill="#eff1f2" opacity="0.86"/>
    </g>
    <g id="Group_6517" data-name="Group 6517" transform="translate(1096.723 415.231)">
      <path id="Path_6215" data-name="Path 6215" d="M166.873,92.689,140.4,138.55a9.641,9.641,0,0,0,8.349,14.462H201.7a9.641,9.641,0,0,0,8.349-14.462L183.571,92.689a9.64,9.64,0,0,0-16.7,0L140.4,138.55a9.641,9.641,0,0,0,8.349,14.462H201.7a9.641,9.641,0,0,0,8.349-14.462L183.571,92.689A9.64,9.64,0,0,0,166.873,92.689Z" transform="translate(-139.089 -87.868)" fill="#fc676e"/>
      <g id="Group_6516" data-name="Group 6516" transform="translate(30.95 18.187)">
        <ellipse id="Ellipse_197" data-name="Ellipse 197" cx="5.677" cy="5.677" rx="5.677" ry="5.677" transform="translate(0 26.293)" fill="#fff"/>
        <path id="Path_6217" data-name="Path 6217" d="M247.845,164.434h-2.157a3.228,3.228,0,0,1-3.228-3.228V149.26a3.228,3.228,0,0,1,3.228-3.228h2.157a3.228,3.228,0,0,1,3.228,3.228v11.946A3.228,3.228,0,0,1,247.845,164.434Z" transform="translate(-241.09 -146.032)" fill="#fff"/>
      </g>
    </g>
  </g>
</svg>
