<svg width="347" height="106" viewBox="0 0 347 106" fill="none" xmlns="http://www.w3.org/2000/svg">
<path d="M44.7775 87.4371C70.6453 87.4371 89.4474 67.9165 89.4474 44.0846V43.845C89.4474 20.0131 70.8848 0.732056 45.017 0.732056C19.1492 0.732056 0.347168 20.2527 0.347168 44.0846V44.3241C0.347168 68.156 18.9097 87.4371 44.7775 87.4371ZM45.017 70.4314C30.167 70.4314 19.6283 58.4556 19.6283 44.0846V43.845C19.6283 29.474 29.9275 17.7377 44.7775 17.7377C59.6275 17.7377 70.1663 29.7136 70.1663 44.0846V44.3241C70.1663 58.6951 59.8671 70.4314 45.017 70.4314Z" fill="#1A2029"/>
<path d="M135.388 87.4371C155.387 87.4371 170.237 72.4673 170.237 54.0245V53.785C170.237 35.3422 155.507 20.6119 135.627 20.6119C115.628 20.6119 100.778 35.5817 100.778 54.0245V54.264C100.778 72.7068 115.508 87.4371 135.388 87.4371ZM135.627 71.7487C125.568 71.7487 118.741 63.4854 118.741 54.0245V53.785C118.741 44.3241 124.969 36.3003 135.388 36.3003C145.447 36.3003 152.274 44.5636 152.274 54.0245V54.264C152.274 63.7249 146.046 71.7487 135.627 71.7487Z" fill="#1A2029"/>
<path d="M183.418 96.7782C183.418 101.808 187.49 105.88 192.52 105.88C197.55 105.88 201.622 101.808 201.622 96.7782V77.6169C205.933 82.7665 211.921 87.1976 221.621 87.1976C236.831 87.1976 250.842 75.4612 250.842 54.0245V53.785C250.842 32.3483 236.591 20.6119 221.621 20.6119C212.16 20.6119 206.053 25.043 201.622 31.0309V30.1926C201.622 25.1628 197.55 21.091 192.52 21.091C187.49 21.091 183.418 25.1628 183.418 30.1926V96.7782ZM216.951 71.7487C208.448 71.7487 201.382 64.683 201.382 54.0245V53.785C201.382 43.1265 208.448 36.0608 216.951 36.0608C225.454 36.0608 232.639 43.1265 232.639 53.785V54.0245C232.639 64.8028 225.454 71.7487 216.951 71.7487Z" fill="#1A2029"/>
<path d="M286.746 87.1976C300.638 87.1976 311.297 80.7306 311.297 66.4794V66.2399C311.297 54.5035 300.878 50.1922 291.896 47.1983C284.95 44.8031 278.842 43.1265 278.842 39.5338V39.2942C278.842 36.7793 281.118 34.8632 285.549 34.8632C289.381 34.8632 294.291 36.42 299.441 38.935C300.638 39.5338 301.477 39.7733 302.794 39.7733C306.866 39.7733 310.099 36.6596 310.099 32.5878C310.099 29.4741 308.423 27.0789 305.788 25.7615C299.56 22.6478 292.615 20.8514 285.908 20.8514C272.974 20.8514 262.435 28.1567 262.435 41.2104V41.4499C262.435 53.9047 272.615 58.0963 281.597 60.731C288.662 62.8866 294.89 64.204 294.89 68.156V68.3955C294.89 71.2697 292.495 73.1858 287.225 73.1858C282.076 73.1858 275.968 71.2697 269.86 67.4374C268.902 66.8386 267.585 66.4794 266.268 66.4794C262.196 66.4794 259.082 69.5931 259.082 73.6649C259.082 76.5391 260.639 78.6947 262.555 79.8923C270.339 84.9222 278.842 87.1976 286.746 87.1976Z" fill="#1A2029"/>
<path d="M330.093 52.9467C330.453 56.1802 332.608 58.216 335.602 58.216C338.596 58.216 340.752 56.1802 341.111 52.9467L346.261 7.91755C346.62 4.44456 344.704 1.80988 341.47 1.80988H329.734C326.501 1.80988 324.584 4.44456 324.944 7.91755L330.093 52.9467ZM325.183 76.2996V76.5391C325.183 82.2875 329.614 86.7185 335.602 86.7185C341.59 86.7185 346.021 82.2875 346.021 76.5391V76.2996C346.021 70.5512 341.59 66.1201 335.602 66.1201C329.614 66.1201 325.183 70.5512 325.183 76.2996Z" fill="#1A2029"/>
</svg>
