<svg width="50" height="50" viewBox="0 0 50 50" fill="none" xmlns="http://www.w3.org/2000/svg">
<g id="Round done button - Free interface icons-22">
<path id="Shape" fill-rule="evenodd" clip-rule="evenodd" d="M0 25C0 11.215 11.2141 0 24.9995 0C38.7849 0 50 11.215 50 25C50 38.785 38.7849 50 24.9995 50C11.2141 50 0 38.785 0 25ZM3.27875 25C3.27875 36.977 13.0225 46.7212 24.9995 46.7212C36.9765 46.7212 46.721 36.977 46.7209 25C46.7209 13.023 36.9766 3.27888 24.9995 3.27888C13.0224 3.27888 3.27875 13.0229 3.27875 25Z" fill="#323232"/>
<path id="Path" fill-rule="evenodd" clip-rule="evenodd" d="M34.0505 16.8163L21.1591 29.7071L15.948 24.4971C15.3076 23.8575 14.2703 23.8571 13.6299 24.4975C12.9893 25.1381 12.9893 26.1756 13.6299 26.816L20.0003 33.1853C20.3204 33.5051 20.7398 33.6651 21.1591 33.6651C21.5785 33.6651 21.999 33.5051 22.319 33.1848C22.32 33.1835 22.3208 33.1821 22.3224 33.1805L36.3685 19.1345C37.0091 18.4945 37.0091 17.4562 36.3685 16.8162C35.7283 16.1758 34.6901 16.1758 34.0505 16.8163Z" fill="#323232"/>
</g>
</svg>
