<svg id="Layer_1" data-name="Layer 1" xmlns="http://www.w3.org/2000/svg" viewBox="0 0 20.38 20.93"><defs><style>.cls-1{fill:#6e7073;}</style></defs><title>ugc-grey</title><g id="Group_131" data-name="Group 131"><path id="Path_731" data-name="Path 731" class="cls-1" d="M15,16a.37.37,0,0,1-.52,0l-1-1.06a.37.37,0,0,1,.06-.52.36.36,0,0,1,.46,0l.79.8,2.38-2.38a.36.36,0,0,1,.51,0h0a.37.37,0,0,1,0,.52Z" transform="translate(0 0)"/><path id="Subtraction_2" data-name="Subtraction 2" class="cls-1" d="M15.21,20.93h0l-.77-.31a7,7,0,0,1-2.08-1.35H0v-3.8a6.77,6.77,0,0,1,1.64-4.38A7.71,7.71,0,0,1,5.83,8.62a4.42,4.42,0,0,1-3-5A4.69,4.69,0,0,1,7.52,0,4.69,4.69,0,0,1,12.2,3.65a4.42,4.42,0,0,1-3,5,7.73,7.73,0,0,1,3,1.37l3-1.56L20.38,11v3.57a6.23,6.23,0,0,1-1.17,3.63,6.76,6.76,0,0,1-3.13,2.4Zm0-11-3.73,1.91V14.6a5.07,5.07,0,0,0,3.25,4.64l.46.18.53-.21A5.07,5.07,0,0,0,19,14.56V11.89Z" transform="translate(0 0)"/></g></svg>