<svg xmlns="http://www.w3.org/2000/svg" width="257" height="63.929" viewBox="0 0 257 63.929">
  <g id="_2checkout-logo-is-now-verifone" data-name="2checkout-logo-is-now-verifone" transform="translate(0 -1.16)">
    <g id="Group_1" data-name="Group 1" transform="translate(175.66 11.432)">
      <path id="Path_2" data-name="Path 2" d="M246.926,27.475c0,8.152-5.758,13.6-14.063,13.6-8.465,0-14.143-5.485-14.143-13.6,0-8.152,5.758-13.525,14.143-13.525s14.063,5.413,14.063,13.525m-21.556.12c0,4.795,3.092,8.152,7.614,8.152,4.369,0,7.533-3.325,7.533-8.152,0-4.795-3.092-8.152-7.533-8.152-4.562.072-7.614,3.317-7.614,8.152" transform="translate(-218.72 -13.95)" fill="#11ca79"/>
    </g>
    <g id="Group_2" data-name="Group 2" transform="translate(207.776 11.593)">
      <path id="Path_3" data-name="Path 3" d="M284.209,14.15V40.886H277.72V35.9c-1.9,3.518-5.06,5.212-9.348,5.212-5.991,0-9.662-3.943-9.662-10.28V14.15H265.2v14.8c0,3.783,2.128,5.991,5.758,5.991,4.208-.08,6.682-3.325,6.682-7.614V14.15Z" transform="translate(-258.71 -14.15)" fill="#11ca79"/>
    </g>
    <g id="Group_3" data-name="Group 3" transform="translate(238.56 5.328)">
      <path id="Path_4" data-name="Path 4" d="M315.48,37.728A12.685,12.685,0,0,1,308.8,39.7c-4.369,0-7.887-2.474-7.887-7.959V18.445H297.12l-.08-4.714h3.791V6.35h6.417v7.381h7.614v4.714h-7.614v12.1c0,2.586,1.044,3.437,2.819,3.437a9.133,9.133,0,0,0,3.791-1.124Z" transform="translate(-297.04 -6.35)" fill="#11ca79"/>
    </g>
    <g id="Group_4" data-name="Group 4" transform="translate(150.779 13.681)">
      <path id="Path_5" data-name="Path 5" d="M212.661,41.591,187.74,16.75v9.156l15.765,15.685Z" transform="translate(-187.74 -16.75)" fill="#3474ff"/>
    </g>
    <g id="Group_5" data-name="Group 5" transform="translate(150.779 1.16)">
      <rect id="Rectangle_2" data-name="Rectangle 2" width="6.489" height="37.329" fill="#3474ff"/>
    </g>
    <g id="Group_6" data-name="Group 6" transform="translate(150.779 11.36)">
      <path id="Path_6" data-name="Path 6" d="M203.08,13.86l-8.85,8.73-6.489-6.417v9.164l1.968,1.9,4.522,4.594L212.235,13.86Z" transform="translate(-187.74 -13.86)" fill="#11ca79"/>
    </g>
    <g id="Group_7" data-name="Group 7" transform="translate(0 1.28)">
      <path id="Path_7" data-name="Path 7" d="M25.812,38.358h-25V33.371L12.633,20.778a31.175,31.175,0,0,0,3.59-4.634,7.612,7.612,0,0,0,1.2-3.791,6,6,0,0,0-1.2-3.863,4.446,4.446,0,0,0-3.518-1.349,4.955,4.955,0,0,0-3.863,1.7,6.9,6.9,0,0,0-1.462,4.441H0A11.176,11.176,0,0,1,1.622,7.221,11.224,11.224,0,0,1,6.064,2.852a13.66,13.66,0,0,1,6.61-1.542c3.783,0,6.682.924,8.81,2.747s3.164,4.369,3.164,7.726A12.588,12.588,0,0,1,23.3,17.348a35.253,35.253,0,0,1-4.795,6.61L10.2,32.68H25.965v5.638h-.153Z" transform="translate(0 -1.31)" fill="#3474ff"/>
    </g>
    <g id="Group_8" data-name="Group 8" transform="translate(29.402 11.36)">
      <path id="Path_8" data-name="Path 8" d="M50.488,19.578c-4.289,0-7.268,3.172-7.268,7.887,0,4.795,3.012,7.959,7.268,7.959a8.56,8.56,0,0,0,7.188-3.172l4.016,3.325c-2.321,3.437-6.337,5.413-11.557,5.413-7.959,0-13.525-5.485-13.525-13.525,0-8.152,5.566-13.6,13.6-13.6,4.867,0,8.81,1.815,11.2,4.867L57.475,22.51a9.332,9.332,0,0,0-6.987-2.931" transform="translate(-36.61 -13.86)" fill="#3474ff"/>
    </g>
    <g id="Group_9" data-name="Group 9" transform="translate(60.435 1.272)">
      <path id="Path_9" data-name="Path 9" d="M101.175,21.74V38.428H94.686V23.635c0-3.783-2.241-6.064-5.911-6.064-4.369.08-7.035,3.325-7.035,7.726V38.4H75.25V1.3h6.489V16.72c1.9-3.67,5.22-5.293,9.662-5.293,5.991-.04,9.774,3.9,9.774,10.312" transform="translate(-75.25 -1.3)" fill="#3474ff"/>
    </g>
    <g id="Group_10" data-name="Group 10" transform="translate(91.163 11.504)">
      <path id="Path_10" data-name="Path 10" d="M139.973,29.813H120.192a7.453,7.453,0,0,0,7.614,6.064,9.846,9.846,0,0,0,7.188-3.012l3.518,3.67a14.772,14.772,0,0,1-11.2,4.634c-8.3,0-13.8-5.485-13.8-13.525,0-8.152,5.566-13.6,13.6-13.6,9.413-.072,13.476,6.112,12.858,15.773m-5.919-4.369c-.153-3.943-2.819-6.417-6.843-6.417-3.863,0-6.489,2.474-7.108,6.417Z" transform="translate(-113.51 -14.039)" fill="#3474ff"/>
    </g>
    <g id="Group_11" data-name="Group 11" transform="translate(120.782 11.36)">
      <path id="Path_11" data-name="Path 11" d="M164.268,19.578c-4.289,0-7.268,3.172-7.268,7.887,0,4.795,3.012,7.959,7.268,7.959a8.56,8.56,0,0,0,7.188-3.172l4.016,3.325c-2.321,3.437-6.337,5.413-11.557,5.413-7.959,0-13.525-5.485-13.525-13.525,0-8.152,5.566-13.6,13.6-13.6,4.867,0,8.81,1.815,11.2,4.867l-3.943,3.783a9.383,9.383,0,0,0-6.987-2.931" transform="translate(-150.39 -13.86)" fill="#3474ff"/>
    </g>
    <g id="Group_25" data-name="Group 25" transform="translate(108.631 49.412)">
      <g id="Group_12" data-name="Group 12" transform="translate(0 2.715)">
        <path id="Path_12" data-name="Path 12" d="M137.059,65.56a.9.9,0,1,1-1.8,0,.9.9,0,1,1,1.8,0Zm-.209,2.674v9.292h-1.357V68.234Z" transform="translate(-135.26 -64.62)" fill="#231f20"/>
        <path id="Path_13" data-name="Path 13" d="M143.5,70.195c-1.044,0-1.839.369-1.839,1.253,0,2.1,5.2,1.028,5.2,4.369,0,1.823-1.622,2.634-3.413,2.634a5.266,5.266,0,0,1-3.574-1.309l.53-1a4.735,4.735,0,0,0,3.092,1.181c1.092,0,1.976-.426,2-1.357.056-2.265-5.156-1.116-5.14-4.4,0-1.767,1.534-2.53,3.237-2.53a5.526,5.526,0,0,1,2.972.851l-.53,1.06A4.869,4.869,0,0,0,143.5,70.195Z" transform="translate(-136.168 -65.488)" fill="#231f20"/>
        <path id="Path_14" data-name="Path 14" d="M166.5,72.672V78.4H165.12V73.025a2.428,2.428,0,0,0-2.634-2.65,3.038,3.038,0,0,0-3.124,3.036V78.4H157.98V69.106h1.381v2.048a3.674,3.674,0,0,1,3.606-2.1A3.284,3.284,0,0,1,166.5,72.672Z" transform="translate(-139.733 -65.492)" fill="#231f20"/>
        <path id="Path_15" data-name="Path 15" d="M180.685,73.732a4.723,4.723,0,1,1-4.722-4.682A4.527,4.527,0,0,1,180.685,73.732Zm-8.055.016a3.344,3.344,0,1,0,3.341-3.478A3.266,3.266,0,0,0,172.629,73.748Z" transform="translate(-142.344 -65.492)" fill="#231f20"/>
        <path id="Path_16" data-name="Path 16" d="M185.458,69.12l2.755,7.9,2.707-7.9h1.446l2.739,7.9,2.723-7.9h1.438l-3.445,9.292h-1.43L191.65,70.8l-2.723,7.614H187.5L184.02,69.12Z" transform="translate(-144.86 -65.506)" fill="#231f20"/>
      </g>
      <g id="Group_24" data-name="Group 24" transform="translate(62.242)">
        <g id="Group_13" data-name="Group 13" transform="translate(33.257 0.474)">
          <path id="Path_17" data-name="Path 17" d="M254.17,64.5h3.293l.53-2.674H254.7Z" transform="translate(-254.17 -61.83)" fill="#231f20"/>
        </g>
        <g id="Group_14" data-name="Group 14" transform="translate(31.153 4.859)">
          <path id="Path_18" data-name="Path 18" d="M253.309,67.29h3.3l-2.1,10.537a3.555,3.555,0,0,1-1.277.241c-.883,0-1.687-.345-1.687-1.558a3.738,3.738,0,0,1,.088-.787l1.671-8.433" transform="translate(-251.55 -67.29)" fill="#231f20"/>
        </g>
        <g id="Group_15" data-name="Group 15" transform="translate(57.448 4.626)">
          <path id="Path_19" data-name="Path 19" d="M292.506,67a3.619,3.619,0,0,0-3.478,2.064h-.04l.128-1.823h-3.261A27.194,27.194,0,0,1,285.487,70s-.755,3.823-.891,4.554a13.379,13.379,0,0,0-.305,1.863c0,1.02.522,1.6,1.679,1.6a3.519,3.519,0,0,0,1.285-.241l1.092-5.485a2.855,2.855,0,0,1,2.707-2.506,1.448,1.448,0,0,1,1.558,1.389,9.279,9.279,0,0,1-.241,1.687l-.466,2.353a7,7,0,0,0-.177,1.253c0,1.036.586,1.558,1.7,1.558a3.62,3.62,0,0,0,1.269-.241l.98-4.915a12.058,12.058,0,0,0,.289-2.4A3.21,3.21,0,0,0,292.506,67" transform="translate(-284.29 -67)" fill="#231f20"/>
        </g>
        <g id="Group_16" data-name="Group 16" transform="translate(44.822 4.618)">
          <path id="Path_20" data-name="Path 20" d="M275.043,66.99c-3.927,0-6.473,2.506-6.473,6.208,0,2.7,1.687,4.811,5.22,4.811,3.759,0,6.473-2.337,6.473-6.3,0-2.65-1.815-4.714-5.22-4.714m-1.052,8.473c-1.454,0-2.1-.948-2.1-2.361,0-1.679,1.02-3.558,2.867-3.558a1.978,1.978,0,0,1,2.16,2.136c0,2.385-1.285,3.783-2.931,3.783" transform="translate(-268.57 -66.99)" fill="#231f20"/>
        </g>
        <g id="Group_17" data-name="Group 17" transform="translate(37.153)">
          <path id="Path_21" data-name="Path 21" d="M259.558,74.339a4.861,4.861,0,0,0-.12.972,1.461,1.461,0,0,0,1.662,1.566,3.27,3.27,0,0,0,1.261-.241l1.59-7.983h2.562l.506-2.546h-2.562l.129-.626c.233-1.181.787-1.695,1.743-1.695a5.6,5.6,0,0,1,1.341.161l.482-2.425a10.951,10.951,0,0,0-2.554-.281,4.024,4.024,0,0,0-4.136,3.542l-.265,1.333h-1.671l-.506,2.546h1.671c0-.008-.659,3.293-1.133,5.678" transform="translate(-259.02 -61.24)" fill="#231f20"/>
        </g>
        <g id="Group_18" data-name="Group 18" transform="translate(22.431 4.626)">
          <path id="Path_22" data-name="Path 22" d="M248.36,67a3.1,3.1,0,0,0-2.923,2.064h-.04l.128-1.823h-3.261a25.475,25.475,0,0,1-.49,3.381c-.337,1.7-.667,3.4-1,5.052a4.166,4.166,0,0,0-.08.8c0,.867.426,1.55,1.695,1.55a3.392,3.392,0,0,0,1.269-.241l.972-4.883c.353-1.871.988-3.1,2.827-3.1a7.734,7.734,0,0,1,1.8.225l.562-2.811A4.326,4.326,0,0,0,248.36,67" transform="translate(-240.69 -67)" fill="#231f20"/>
        </g>
        <g id="Group_19" data-name="Group 19" transform="translate(70.298 4.626)">
          <path id="Path_23" data-name="Path 23" d="M311.213,71.586c0-3.2-2.1-4.586-4.915-4.586a5.968,5.968,0,0,0-6.007,6.208c0,2.65,1.7,4.811,5.18,4.811,2.514,0,3.935-1.124,3.935-2.586V75.16a8.3,8.3,0,0,1-2.682.514c-2.594,0-3.245-1.325-3.229-2.1h7.477a11.314,11.314,0,0,0,.241-1.992m-3.285-.08h-4.2a2.576,2.576,0,0,1,2.538-1.96,1.593,1.593,0,0,1,1.662,1.96" transform="translate(-300.29 -67)" fill="#231f20"/>
        </g>
        <g id="Group_20" data-name="Group 20" transform="translate(10.706 4.626)">
          <path id="Path_24" data-name="Path 24" d="M237.013,71.586c0-3.2-2.1-4.586-4.915-4.586a5.968,5.968,0,0,0-6.007,6.208c0,2.65,1.7,4.811,5.18,4.811,2.514,0,3.935-1.124,3.935-2.586V75.16a8.358,8.358,0,0,1-2.682.514c-2.594,0-3.245-1.325-3.229-2.1h7.477a11.313,11.313,0,0,0,.241-1.992m-3.285-.08h-4.2a2.576,2.576,0,0,1,2.538-1.96,1.593,1.593,0,0,1,1.662,1.96" transform="translate(-226.09 -67)" fill="#231f20"/>
        </g>
        <g id="Group_21" data-name="Group 21" transform="translate(0 1.277)">
          <path id="Path_25" data-name="Path 25" d="M212.76,62.83h3.317V73.3c0,1.574.787,2.377,2.048,2.377a.93.93,0,0,0,.233-.024,3.082,3.082,0,0,1-2.915,1.518c-1.743,0-2.682-1.2-2.682-3.02Z" transform="translate(-212.76 -62.83)" fill="#231f20"/>
        </g>
        <g id="Group_22" data-name="Group 22" transform="translate(4.24 1.277)">
          <path id="Path_26" data-name="Path 26" d="M218.04,72.227v1.1c0,1.06.578,1.446,1.2,1.446.643,0,.98-.434,1.3-.932.53-.827,6.971-11.011,6.971-11.011h-3.445Z" transform="translate(-218.04 -62.83)" fill="#00adef"/>
        </g>
        <g id="Group_23" data-name="Group 23" transform="translate(82.847 4.634)">
          <path id="Path_27" data-name="Path 27" d="M317.269,68.488h.361c.337,0,.506-.161.506-.361,0-.12-.064-.3-.377-.3H317.4Zm-.008-.811h.538c.321,0,.522.177.522.426a.554.554,0,0,1-.578.53l.361.891h-.193l-.345-.875h-.321l-.177.875H316.9Zm.145,2.393A1.569,1.569,0,0,0,319,68.632a1.26,1.26,0,0,0-1.277-1.438,1.574,1.574,0,0,0-1.59,1.438,1.26,1.26,0,0,0,1.277,1.438m.329-3.06a1.427,1.427,0,0,1,1.446,1.63,1.8,1.8,0,0,1-1.807,1.622,1.424,1.424,0,0,1-1.446-1.622,1.827,1.827,0,0,1,1.807-1.63" transform="translate(-315.916 -67.01)" fill="#231f20"/>
        </g>
      </g>
    </g>
  </g>
</svg>
