<svg xmlns="http://www.w3.org/2000/svg" width="40" height="40" viewBox="0 0 33.24 35">
  <g id="Group_7648" data-name="Group 7648" transform="translate(-914.999 -1213)">
    <g id="Group_7402" data-name="Group 7402" transform="translate(7653.635 948.145)">
      <rect id="Rectangle_2817" data-name="Rectangle 2817" width="20.273" height="2.161" rx="1" transform="translate(-6725.669 265.855)" fill="#ff4051"/>
      <rect id="Rectangle_2818" data-name="Rectangle 2818" width="10.564" height="2.161" rx="1" transform="translate(-6725.669 270.177)" fill="#ff4051"/>
    </g>
    <g id="Group_7403" data-name="Group 7403" transform="translate(7653.635 961.145)">
      <rect id="Rectangle_2817-2" data-name="Rectangle 2817" width="19.878" height="2.161" rx="1" transform="translate(-6725.669 265.855)" fill="#ff4051"/>
      <rect id="Rectangle_2818-2" data-name="Rectangle 2818" width="11.564" height="2.161" rx="1" transform="translate(-6725.669 270.177)" fill="#ff4051"/>
    </g>
    <g id="Group_7404" data-name="Group 7404" transform="translate(7653.713 974.145)">
      <rect id="Rectangle_2817-3" data-name="Rectangle 2817" width="19.878" height="2.161" rx="1" transform="translate(-6725.669 265.855)" fill="#ff4051"/>
      <rect id="Rectangle_2818-3" data-name="Rectangle 2818" width="11.564" height="2.161" rx="1" transform="translate(-6725.669 270.177)" fill="#ff4051"/>
    </g>
    <g id="Group_7405" data-name="Group 7405" transform="translate(914.855 1225.855)">
      <rect id="Rectangle_5" data-name="Rectangle 5" width="9" height="9" transform="translate(0.145 0.145)" fill="#ff4051"/>
      <path id="XMLID_1420_" d="M36.684,27.395h1.481V23.661h1.041l.1-1.249H38.165V21.7c0-.294.049-.4.343-.4h.8V20H38.275c-1.1,0-1.6.49-1.6,1.42v.992H35.9v1.261h.771l.012,3.722Z" transform="translate(-32.993 -19.036)" fill="#fff"/>
    </g>
    <g id="Group_7406" data-name="Group 7406" transform="translate(915.18 1239.422)">
      <rect id="Rectangle_6" data-name="Rectangle 6" width="9" height="9" transform="translate(-0.18 -0.422)" fill="#ff4051"/>
      <path id="XMLID_1450_" d="M23.4,33.7a4.277,4.277,0,0,0,6.577-3.8,2.883,2.883,0,0,0,.743-.784,3.34,3.34,0,0,1-.867.234,1.481,1.481,0,0,0,.647-.826,2.627,2.627,0,0,1-.963.358A1.508,1.508,0,0,0,28.45,28.4a1.486,1.486,0,0,0-1.459,1.844,4.286,4.286,0,0,1-3.1-1.569,1.51,1.51,0,0,0,.454,2.009,1.474,1.474,0,0,1-.688-.193,1.536,1.536,0,0,0,1.211,1.5,1.241,1.241,0,0,1-.674.014,1.483,1.483,0,0,0,1.4,1.032A2.891,2.891,0,0,1,23.4,33.7Z" transform="translate(-22.476 -27.1)" fill="#fff"/>
    </g>
    <g id="Group_7407" data-name="Group 7407" transform="translate(914.994 1213.455)">
      <rect id="Rectangle_7" data-name="Rectangle 7" width="9" height="9" transform="translate(0.005 -0.455)" fill="#ff4051"/>
      <g id="XMLID_1347_" transform="translate(1.139 0.679)">
        <path id="XMLID_1352_" d="M25.823,23.3c.894,0,.991,0,1.329.012a1.82,1.82,0,0,1,.628.121,1.193,1.193,0,0,1,.387.254,1.077,1.077,0,0,1,.254.387,1.993,1.993,0,0,1,.121.628c.012.35.012.459.012,1.329,0,.894,0,.991-.012,1.329a1.82,1.82,0,0,1-.121.628,1.194,1.194,0,0,1-.254.387,1.077,1.077,0,0,1-.387.254,1.993,1.993,0,0,1-.628.121c-.35.012-.459.012-1.329.012-.894,0-.991,0-1.329-.012a1.82,1.82,0,0,1-.628-.121,1.194,1.194,0,0,1-.387-.254,1.077,1.077,0,0,1-.254-.387,1.993,1.993,0,0,1-.121-.628c-.012-.35-.012-.459-.012-1.329,0-.894,0-.991.012-1.329a1.82,1.82,0,0,1,.121-.628,1.194,1.194,0,0,1,.254-.387,1.077,1.077,0,0,1,.387-.254,1.993,1.993,0,0,1,.628-.121c.35-.012.459-.012,1.329-.012m0-.6c-.894,0-1.015,0-1.365.012a2.341,2.341,0,0,0-.81.157,1.786,1.786,0,0,0-.592.387,1.672,1.672,0,0,0-.387.592,2.664,2.664,0,0,0-.157.81c-.012.35-.012.471-.012,1.365s0,1.015.012,1.365a2.342,2.342,0,0,0,.157.81,1.786,1.786,0,0,0,.387.592,1.672,1.672,0,0,0,.592.387,2.663,2.663,0,0,0,.81.157c.35.012.471.012,1.365.012s1.015,0,1.365-.012a2.341,2.341,0,0,0,.81-.157,1.786,1.786,0,0,0,.592-.387,1.672,1.672,0,0,0,.387-.592,2.663,2.663,0,0,0,.157-.81c.012-.35.012-.471.012-1.365s0-1.015-.012-1.365a2.316,2.316,0,0,0-.169-.81,1.786,1.786,0,0,0-.387-.592,1.672,1.672,0,0,0-.592-.387,2.664,2.664,0,0,0-.81-.157c-.326-.012-.447-.012-1.353-.012" transform="translate(-22.5 -22.7)" fill="#fff"/>
        <path id="XMLID_1349_" d="M37.6,36.1a1.7,1.7,0,1,0,1.7,1.692A1.7,1.7,0,0,0,37.6,36.1m0,2.791a1.112,1.112,0,1,1,1.112-1.112A1.094,1.094,0,0,1,37.6,38.891" transform="translate(-34.281 -34.481)" fill="#fff"/>
        <path id="XMLID_1348_" d="M62.2,32.6a.4.4,0,1,1-.4-.4.41.41,0,0,1,.4.4" transform="translate(-56.7 -31.052)" fill="#fff"/>
      </g>
    </g>
  </g>
</svg>
