<svg xmlns="http://www.w3.org/2000/svg" width="40" height="40" viewBox="0 0 109.063 80">
  <path id="_6518734_display_electronic_screen_smart_tv_icon" data-name="6518734_display_electronic_screen_smart_tv_icon" d="M99.156,5H11.906A10.906,10.906,0,0,0,1,15.906v47.26A10.906,10.906,0,0,0,11.906,74.073h9.379l-4.69,4.69a3.65,3.65,0,0,0,5.162,5.162l9.888-9.852H79.416L89.3,83.925a3.65,3.65,0,1,0,5.162-5.162l-4.69-4.69h9.379a10.906,10.906,0,0,0,10.906-10.906V15.906A10.906,10.906,0,0,0,99.156,5Zm3.635,58.166A3.635,3.635,0,0,1,99.156,66.8H11.906a3.635,3.635,0,0,1-3.635-3.635V15.906a3.635,3.635,0,0,1,3.635-3.635h87.25a3.635,3.635,0,0,1,3.635,3.635Z" transform="translate(-1 -5)" fill="#2b2b2b"/>
</svg>
