<svg width="149" height="28" viewBox="0 0 149 28" fill="none" xmlns="http://www.w3.org/2000/svg">
    <path
        d="M13.8186 0.00012207L16.921 9.54851H26.9608L18.8384 15.4497L21.9409 24.9981L13.8186 19.0969L5.69622 24.9981L8.79868 15.4497L0.676329 9.54851H10.7161L13.8186 0.00012207Z"
        fill="#FB482C"
    ></path>
    <path
        d="M44.1594 0.000152588L47.2618 9.54854H57.3016L49.1793 15.4498L52.2817 24.9982L44.1594 19.0969L36.037 24.9982L39.1395 15.4498L31.0171 9.54854H41.0569L44.1594 0.000152588Z"
        fill="#FB482C"
    ></path>
    <path
        d="M74.5002 0.000152588L77.6027 9.54854H87.6424L79.5201 15.4498L82.6226 24.9982L74.5002 19.0969L66.3779 24.9982L69.4803 15.4498L61.358 9.54854H71.3977L74.5002 0.000152588Z"
        fill="#FB482C"
    ></path>
    <path
        d="M104.841 0.000152588L107.943 9.54854H117.983L109.861 15.4498L112.963 24.9982L104.841 19.0969L96.7187 24.9982L99.8211 15.4498L91.6988 9.54854H101.739L104.841 0.000152588Z"
        fill="#FB482C"
    ></path>
    <path
        d="M135.181 0.000152588L138.284 9.54854H148.324L140.201 15.4498L143.304 24.9982L135.181 19.0969L127.059 24.9982L130.161 15.4498L122.039 9.54854H132.079L135.181 0.000152588Z"
        fill="#FB482C"
    ></path>
</svg>