<svg xmlns="http://www.w3.org/2000/svg" width="45" height="45" viewBox="0 0 45 45">
  <g id="Group_21" data-name="Group 21" transform="translate(-37.5 -37.5)">
    <path id="Path_7" data-name="Path 7" d="M75.91,44.09A22.5,22.5,0,1,0,82.5,60,22.353,22.353,0,0,0,75.91,44.09Z" fill="#db4b20"/>
    <path id="Path_8" data-name="Path 8" d="M191.513,176.082a1.957,1.957,0,0,0-2.767,0l-4.949,4.949-4.949-4.949a1.957,1.957,0,0,0-2.767,2.767l4.949,4.949-4.949,4.949a1.957,1.957,0,1,0,2.767,2.767l4.949-4.949,4.949,4.949a1.957,1.957,0,0,0,2.767-2.767l-4.949-4.949,4.949-4.949A1.956,1.956,0,0,0,191.513,176.082Z" transform="translate(-123.798 -123.798)" fill="#fff"/>
  </g>
</svg>
