<svg xmlns="http://www.w3.org/2000/svg" width="45" height="45" viewBox="0 0 45 45">
  <g id="Group_28" data-name="Group 28" transform="translate(686 -1587)">
    <path id="Path_7" data-name="Path 7" d="M75.91,44.09A22.5,22.5,0,1,0,82.5,60,22.353,22.353,0,0,0,75.91,44.09Z" transform="translate(-723.5 1549.5)" fill="#208cdb"/>
    <g id="Group_27" data-name="Group 27" transform="translate(-904.224 1380.718)">
      <path id="Path_15" data-name="Path 15" d="M246.95,251.24a1.3,1.3,0,0,1-1.3,1.3h-9.121a1.3,1.3,0,1,1,0-2.606h2.606v-7.818h-1.3a1.3,1.3,0,0,1,0-2.606h5.212v10.424h2.606A1.3,1.3,0,0,1,246.95,251.24Z" transform="translate(0 -13.556)" fill="#fff"/>
      <circle id="Ellipse_2" data-name="Ellipse 2" cx="2.433" cy="2.433" r="2.433" transform="translate(237.815 218.282)" fill="#fff"/>
    </g>
  </g>
</svg>
