<svg xmlns="http://www.w3.org/2000/svg" xmlns:xlink="http://www.w3.org/1999/xlink" width="86" height="85" viewBox="0 0 86 85">
  <defs>
    <filter id="Rectangle_2802" x="0" y="0" width="86" height="85" filterUnits="userSpaceOnUse">
      <feOffset dy="1" input="SourceAlpha"/>
      <feGaussianBlur stdDeviation="1.5" result="blur"/>
      <feFlood flood-opacity="0.161"/>
      <feComposite operator="in" in2="blur"/>
      <feComposite in="SourceGraphic"/>
    </filter>
  </defs>
  <g id="Group_7499" data-name="Group 7499" transform="translate(4.272 3.5)">
    <g transform="matrix(1, 0, 0, 1, -4.27, -3.5)" filter="url(#Rectangle_2802)">
      <rect id="Rectangle_2802-2" data-name="Rectangle 2802" width="77" height="76" rx="8" transform="translate(4.5 3.5)" fill="#fff"/>
    </g>
    <g id="Layer_2" transform="translate(7.228 29.007)">
      <g id="Group_7280" data-name="Group 7280" transform="translate(0 2.917)">
        <path id="Path_7119" data-name="Path 7119" d="M6.753,27.47v4.986H2.174V27.47H0v11.9H2.174V34.548H6.753v4.824H8.927V27.47Z" transform="translate(0 -27.47)" fill="#33475a"/>
        <path id="Path_7120" data-name="Path 7120" d="M101.659,60.328a1.8,1.8,0,0,1-3.6,0v-5.1H96v5.1a3.857,3.857,0,1,0,7.714,0v-5.1h-2.055Z" transform="translate(-85.775 -52.273)" fill="#33475a"/>
        <path id="Path_7121" data-name="Path 7121" d="M271.85,30.952a1.277,1.277,0,0,1,1.449-1.376,3.091,3.091,0,0,1,1.944,1.028l1.351-1.591a4.255,4.255,0,0,0-3.161-1.542c-2.237,0-3.855,1.31-3.855,3.482,0,4.029,4.925,2.751,4.925,5.006a1.422,1.422,0,0,1-1.449,1.31,2.531,2.531,0,0,1-2.175-1.227l-1.5,1.558a4.423,4.423,0,0,0,3.558,1.775c2.125,0,3.835-1.326,3.835-3.4,0-4.474-4.925-3.084-4.925-5.023" transform="translate(-240.687 -27.47)" fill="#33475a"/>
        <path id="Path_7122" data-name="Path 7122" d="M547.966,44.958c-1.219,0-1.565-.527-1.565-1.335V40.05h1.894V38.239H546.4V35.85l-2.091.938v7.279c0,1.862,1.285,2.8,3.046,2.8a4.219,4.219,0,0,0,.824-.066l.51-1.878c-.23.016-.494.032-.725.032" transform="translate(-486.333 -34.957)" fill="#33475a"/>
        <path id="Path_7123" data-name="Path 7123" d="M185.169,31.085a3.164,3.164,0,0,0-2.423.972V28.14H180.68V35.4a4.335,4.335,0,0,0,4.173,4.58,4.524,4.524,0,0,0,4.6-4.447,4.371,4.371,0,0,0-4.289-4.448m-.013,6.817A2.343,2.343,0,1,1,187.5,35.56a2.343,2.343,0,0,1-2.343,2.343" transform="translate(-161.435 -28.069)" fill="#33475a"/>
        <path id="Path_7124" data-name="Path 7124" d="M359.728,59.237a4.519,4.519,0,0,0-4.6-4.447,4.335,4.335,0,0,0-4.173,4.58v7.265h2.065V62.713a3.166,3.166,0,0,0,2.422.972,4.37,4.37,0,0,0,4.289-4.448m-1.955-.026a2.343,2.343,0,1,1-2.343-2.343,2.343,2.343,0,0,1,2.343,2.343" transform="translate(-313.569 -51.88)" fill="#33475a"/>
      </g>
      <g id="Group_7281" data-name="Group 7281" transform="translate(40.053 -0.01)">
        <path id="Path_7125" data-name="Path 7125" d="M388.809,5.727V3.652a1.6,1.6,0,0,0,.921-1.44V2.164a1.6,1.6,0,0,0-1.6-1.6h-.048a1.6,1.6,0,0,0-1.6,1.6v.048a1.6,1.6,0,0,0,.921,1.44V5.727a4.525,4.525,0,0,0-2.152.947l-5.69-4.432a1.785,1.785,0,0,0,.064-.448,1.8,1.8,0,1,0-1.8,1.8,1.781,1.781,0,0,0,.886-.241l5.6,4.36a4.539,4.539,0,0,0,.069,5.113l-1.7,1.7a1.463,1.463,0,0,0-.426-.069,1.478,1.478,0,1,0,1.479,1.479,1.457,1.457,0,0,0-.069-.426l1.686-1.686a4.546,4.546,0,1,0,3.455-8.1m-.7,6.823a2.333,2.333,0,1,1,2.335-2.334,2.333,2.333,0,0,1-2.335,2.334" transform="translate(-376.03 0.01)" fill="#fe7a59"/>
      </g>
    </g>
  </g>
</svg>
