<svg xmlns="http://www.w3.org/2000/svg" xmlns:xlink="http://www.w3.org/1999/xlink" width="85" height="85" viewBox="0 0 85 85">
  <defs>
    <filter id="Rectangle_2802" x="0" y="0" width="85" height="85" filterUnits="userSpaceOnUse">
      <feOffset dy="1" input="SourceAlpha"/>
      <feGaussianBlur stdDeviation="1.5" result="blur"/>
      <feFlood flood-opacity="0.161"/>
      <feComposite operator="in" in2="blur"/>
      <feComposite in="SourceGraphic"/>
    </filter>
  </defs>
  <g id="Group_7503" data-name="Group 7503" transform="translate(4.589 3.5)">
    <g transform="matrix(1, 0, 0, 1, -4.59, -3.5)" filter="url(#Rectangle_2802)">
      <rect id="Rectangle_2802-2" data-name="Rectangle 2802" width="76" height="76" rx="8" transform="translate(4.5 3.5)" fill="#fff"/>
    </g>
    <g id="XMLID_854_" transform="translate(7.545 32.351)">
      <g id="XMLID_184_">
        <path id="XMLID_197_" d="M3.356,33.4a2.215,2.215,0,0,1-2.126-2.43,2.224,2.224,0,0,1,2.126-2.43,2.215,2.215,0,0,1,2.126,2.43A2.214,2.214,0,0,1,3.356,33.4m0-6a3.576,3.576,0,0,0,0,7.138,3.576,3.576,0,0,0,0-7.138" transform="translate(0 -23.239)" fill="#555c66" fill-rule="evenodd"/>
        <path id="XMLID_196_" d="M62.981,27.4a2.609,2.609,0,0,0-2.141,1.124H60.6a2.289,2.289,0,0,0-3.751-.273h-.2l-.243-.79h-.8v6.986h1.23V30.468a1.794,1.794,0,0,1,1.7-2.02c1.2,0,1.367,1.276,1.367,2.627v3.371h1.23v-4.07a1.765,1.765,0,0,1,1.7-1.914c1.2,0,1.367,1.276,1.367,2.627v3.371h1.23v-3.8c0-1.929-.835-3.265-2.445-3.265" transform="translate(-47.156 -23.239)" fill="#555c66" fill-rule="evenodd"/>
        <path id="XMLID_195_" d="M136.88,27.4a2.637,2.637,0,0,0-2.05.866h-.167l-.258-.79h-.8v6.986h1.23V30.468a1.882,1.882,0,0,1,1.883-2.02c1.382,0,1.595,1.382,1.595,2.627v3.371h1.23V30.665c-.015-1.944-.9-3.265-2.658-3.265" transform="translate(-113.311 -23.239)" fill="#555c66" fill-rule="evenodd"/>
        <path id="XMLID_194_" d="M212.7,30.092c-.683-.182-1.352-.41-1.352-1.048,0-.577.5-.942,1.154-.942a1.171,1.171,0,0,1,1.291.987h1.139a2.177,2.177,0,0,0-2.43-1.989c-1.291,0-2.308.7-2.308,1.944,0,1.4,1.306,1.777,2.248,2.035.775.213,1.458.44,1.458,1.154,0,.683-.623,1-1.276,1a1.381,1.381,0,0,1-1.519-1.321H210a2.426,2.426,0,0,0,2.658,2.324,2.162,2.162,0,0,0,2.43-2.065c-.015-1.443-1.306-1.807-2.384-2.081" transform="translate(-178.108 -22.984)" fill="#555c66" fill-rule="evenodd"/>
        <path id="XMLID_191_" d="M254.36,29.97a2.083,2.083,0,0,1,2.05-1.838,1.949,1.949,0,0,1,1.914,1.838Zm2.065-2.87a3.341,3.341,0,0,0-3.326,3.508,3.424,3.424,0,0,0,3.341,3.63,3.257,3.257,0,0,0,3.007-2.035h-1.291a1.93,1.93,0,0,1-1.731.9,2.08,2.08,0,0,1-2.126-2.111h5.3c.152-2.642-1.488-3.888-3.174-3.888Z" transform="translate(-214.663 -22.984)" fill="#555c66" fill-rule="evenodd"/>
        <path id="XMLID_190_" d="M310.58,27.1a2.637,2.637,0,0,0-2.05.866h-.167l-.258-.79h-.8v6.986h1.23V30.183a1.882,1.882,0,0,1,1.883-2.02c1.382,0,1.595,1.382,1.595,2.627v3.371h1.23v-3.8c-.015-1.929-.881-3.265-2.658-3.265" transform="translate(-260.631 -22.984)" fill="#555c66" fill-rule="evenodd"/>
        <path id="XMLID_187_" d="M360.426,17.154a2.236,2.236,0,0,1-2.1-2.415,2.236,2.236,0,0,1,2.1-2.415c.926,0,2,.7,2,2.415a2.125,2.125,0,0,1-2,2.415Zm2-8.854v3.979a2.438,2.438,0,0,0-2.111-1.124,3.35,3.35,0,0,0-3.22,3.569,3.35,3.35,0,0,0,3.22,3.569,2.363,2.363,0,0,0,1.989-.972h.228l.258.9h.8V8.3Z" transform="translate(-302.868 -7.04)" fill="#555c66" fill-rule="evenodd"/>
        <path id="XMLID_186_" d="M182.8,19.9v1.063c.972.289,1.124,1.291,1.124,2.582v4.541h1.23V23.135c0-1.929-.775-3.1-2.354-3.235" transform="translate(-155.039 -16.878)" fill="#555c66" fill-rule="evenodd"/>
        <path id="XMLID_185_" d="M187.4,0a.9.9,0,1,0,.9.9.9.9,0,0,0-.9-.9" transform="translate(-158.177)" fill="#555c66" fill-rule="evenodd"/>
      </g>
    </g>
  </g>
</svg>
