<svg xmlns="http://www.w3.org/2000/svg" xmlns:xlink="http://www.w3.org/1999/xlink" width="77" height="77" viewBox="0 0 77 77">
  <defs>
    <filter id="Rectangle_2802" x="0" y="0" width="77" height="77" filterUnits="userSpaceOnUse">
      <feOffset dy="1" input="SourceAlpha"/>
      <feGaussianBlur stdDeviation="1.5" result="blur"/>
      <feFlood flood-opacity="0.161"/>
      <feComposite operator="in" in2="blur"/>
      <feComposite in="SourceGraphic"/>
    </filter>
  </defs>
  <g id="Group_7503" data-name="Group 7503" transform="translate(4.563 3.651)">
    <g transform="matrix(1, 0, 0, 1, -4.56, -3.65)" filter="url(#Rectangle_2802)">
      <rect id="Rectangle_2802-2" data-name="Rectangle 2802" width="68" height="68" rx="8" transform="translate(4.5 3.5)" fill="#fff"/>
    </g>
    <path id="Path_7346" data-name="Path 7346" d="M55.226,88.753a.32.32,0,0,0-.32-.278c-.128,0-2.929-.214-2.929-.214s-1.948-1.944-2.184-2.139a.9.9,0,0,0-.79-.106c-.022,0-.429.128-1.091.342-.665-1.919-1.8-3.636-3.838-3.636h-.192A2.482,2.482,0,0,0,42,81.65c-4.7,0-6.972,5.884-7.675,8.878-1.839.579-3.144.959-3.294,1.027-1.027.32-1.049.342-1.177,1.3-.106.729-2.782,21.427-2.782,21.427l20.816,3.9,11.3-2.44C59.208,115.687,55.248,88.945,55.226,88.753ZM43.738,87.384V87.6c-1.155.365-2.373.726-3.636,1.132.707-2.693,2.053-4.02,3.166-4.513A8.955,8.955,0,0,1,43.738,87.384ZM41.9,82.907a1.017,1.017,0,0,1,.6.214c-1.519.707-3.121,2.482-3.787,6.076-1,.32-1.967.6-2.878.9.761-2.754,2.686-7.205,6.067-7.205Zm.819,15.9A6.441,6.441,0,0,0,40,98.146c-2.2,0-2.312,1.388-2.312,1.73,0,1.884,4.922,2.613,4.922,7.036,0,3.489-2.2,5.734-5.178,5.734a7.112,7.112,0,0,1-5.392-2.239L33,107.241s1.884,1.628,3.467,1.628a1.407,1.407,0,0,0,1.478-1.414c0-2.459-4.023-2.558-4.023-6.633,0-3.4,2.44-6.694,7.381-6.694a5.694,5.694,0,0,1,2.779.534Zm2.29-11.593v-.387a8.232,8.232,0,0,0-.429-2.846c1.071.131,1.733,1.3,2.181,2.677-.524.147-1.139.342-1.759.556Z" transform="translate(-8.95 -67.124)" fill="#95bf47"/>
  </g>
</svg>
