<svg width="94" height="105" viewBox="0 0 94 105" fill="none" xmlns="http://www.w3.org/2000/svg">
<g clip-path="url(#clip0_231_49)">
<path d="M8.10001 81.9L47.6 102L85.6 81.9V3.29999H8.10001V81.9Z" fill="white"/>
<path d="M86.4 3.60001L7.3 83.3L48.3 103.6L86.4 84.1V3.60001Z" fill="#F2F3F2"/>
<path d="M5.5 29.5V83.6L6.9 84.3L46.4 104.4L47.6 105L48.8 104.4L86.9 84.3L88.3 83.6V0.700012H5.5V29.5ZM8.1 82.1V3.30001H85.7V82.1L47.6 102.2L8.1 82.1Z" fill="#DCDEDC"/>
<path d="M46.9 4.60001C47.3 4.60001 47.7 4.60001 48.1 4.70001L46.9 7.00001C45.1 6.90001 43.5 8.30001 43.4 10.1C43.3 11.9 44.7 13.5 46.5 13.6H46.9C47.7 13.6 48.5 13.3 49.1 12.8L50.4 15C49.4 15.7 48.2 16.1 46.9 16.1C43.7 16.2 41 13.8 40.9 10.6C40.8 7.40001 43.2 4.70001 46.4 4.60001H46.9V4.60001ZM51 9.50001L52.5 12L51 14.4L49.6 12H46.7L48.2 9.50001H51ZM48.6 8.60001C48.6 8.20001 48.7 7.80001 48.9 7.50001C49.1 7.20001 49.5 6.90001 49.8 6.70001L50 6.60001C50.4 6.40001 50.5 6.30001 50.5 6.10001C50.5 5.90001 50.2 5.70001 50 5.70001C49.6 5.70001 49.3 5.90001 49.1 6.30001L48.6 5.80001C48.7 5.60001 48.9 5.40001 49.1 5.20001C49.4 5.00001 49.7 5.00001 50 5.00001C50.3 5.00001 50.7 5.10001 50.9 5.30001C51.1 5.50001 51.3 5.80001 51.3 6.10001C51.3 6.60001 51 7.00001 50.4 7.20001L50.1 7.40001C49.8 7.60001 49.6 7.70001 49.5 8.00001H51.3V8.70001L48.6 8.60001V8.60001ZM46.9 21.1L56.4 15.7V0.700012H37.3V15.6L46.9 21.1Z" fill="#FF492C"/>
<path d="M90.2 56.5H3.59999L0.399994 63.5L3.59999 70.5H90.2L93.3 63.5L90.2 56.5Z" fill="#23CCA2"/>
<path d="M24.22 52.12C23.42 52.12 22.7233 51.9933 22.13 51.74C21.5233 51.48 21.06 51.1133 20.74 50.64C20.4133 50.1667 20.25 49.6167 20.25 48.99V48.66C20.25 48.6067 20.2667 48.5633 20.3 48.53C20.34 48.4967 20.3833 48.48 20.43 48.48H22.14C22.1867 48.48 22.23 48.4967 22.27 48.53C22.3033 48.5633 22.32 48.6067 22.32 48.66V48.88C22.32 49.28 22.5067 49.6167 22.88 49.89C23.2467 50.17 23.7467 50.31 24.38 50.31C24.9067 50.31 25.3 50.1967 25.56 49.97C25.82 49.7433 25.95 49.4667 25.95 49.14C25.95 48.8933 25.87 48.69 25.71 48.53C25.55 48.3633 25.3333 48.2167 25.06 48.09C24.78 47.97 24.3433 47.8 23.75 47.58C23.0767 47.3467 22.5067 47.11 22.04 46.87C21.58 46.63 21.19 46.3033 20.87 45.89C20.5567 45.4767 20.4 44.9633 20.4 44.35C20.4 43.75 20.5567 43.2267 20.87 42.78C21.1767 42.3267 21.6033 41.98 22.15 41.74C22.7033 41.5 23.34 41.38 24.06 41.38C24.82 41.38 25.4967 41.5167 26.09 41.79C26.6833 42.0567 27.15 42.4333 27.49 42.92C27.8233 43.4 27.99 43.9633 27.99 44.61V44.83C27.99 44.8833 27.9733 44.9267 27.94 44.96C27.9 44.9933 27.8567 45.01 27.81 45.01H26.09C26.0367 45.01 25.9933 44.9933 25.96 44.96C25.92 44.9267 25.9 44.8833 25.9 44.83V44.71C25.9 44.29 25.73 43.9333 25.39 43.64C25.0433 43.3467 24.57 43.2 23.97 43.2C23.4967 43.2 23.13 43.3 22.87 43.5C22.6033 43.6933 22.47 43.9667 22.47 44.32C22.47 44.5733 22.5467 44.7833 22.7 44.95C22.86 45.1233 23.09 45.2767 23.39 45.41C23.6967 45.5433 24.17 45.7267 24.81 45.96C25.5233 46.22 26.08 46.45 26.48 46.65C26.8867 46.85 27.2533 47.1467 27.58 47.54C27.9067 47.9333 28.07 48.4467 28.07 49.08C28.07 50.02 27.7233 50.76 27.03 51.3C26.3433 51.8467 25.4067 52.12 24.22 52.12V52.12ZM33.91 44.47C33.91 44.4233 33.93 44.38 33.97 44.34C34.0033 44.3067 34.0433 44.29 34.09 44.29H35.85C35.8967 44.29 35.94 44.3067 35.98 44.34C36.0133 44.38 36.03 44.4233 36.03 44.47V51.82C36.03 51.8733 36.0133 51.9167 35.98 51.95C35.94 51.9833 35.8967 52 35.85 52H34.09C34.0433 52 34.0033 51.9833 33.97 51.95C33.93 51.9167 33.91 51.8733 33.91 51.82V51.31C33.91 51.2833 33.9 51.2667 33.88 51.26C33.86 51.2533 33.84 51.2667 33.82 51.3C33.42 51.8333 32.8 52.1 31.96 52.1C31.2 52.1 30.5767 51.8733 30.09 51.42C29.5967 50.96 29.35 50.3133 29.35 49.48V44.47C29.35 44.4233 29.37 44.38 29.41 44.34C29.4433 44.3067 29.4833 44.29 29.53 44.29H31.27C31.3233 44.29 31.3667 44.3067 31.4 44.34C31.4333 44.38 31.45 44.4233 31.45 44.47V48.96C31.45 49.36 31.56 49.6833 31.78 49.93C31.9933 50.1833 32.29 50.31 32.67 50.31C33.01 50.31 33.29 50.2067 33.51 50C33.73 49.7933 33.8633 49.5267 33.91 49.2V44.47V44.47ZM44.47 46.36C44.65 46.8667 44.74 47.4667 44.74 48.16C44.74 48.8533 44.6467 49.48 44.46 50.04C44.2267 50.68 43.8633 51.1867 43.37 51.56C42.8767 51.9333 42.2633 52.12 41.53 52.12C40.81 52.12 40.25 51.87 39.85 51.37C39.83 51.3433 39.81 51.3333 39.79 51.34C39.77 51.3467 39.76 51.3667 39.76 51.4V54.61C39.76 54.6633 39.7433 54.7067 39.71 54.74C39.6767 54.7733 39.6333 54.79 39.58 54.79H37.83C37.7767 54.79 37.7333 54.7733 37.7 54.74C37.6667 54.7067 37.65 54.6633 37.65 54.61V44.47C37.65 44.4233 37.6667 44.38 37.7 44.34C37.7333 44.3067 37.7767 44.29 37.83 44.29H39.58C39.6333 44.29 39.6767 44.3067 39.71 44.34C39.7433 44.38 39.76 44.4233 39.76 44.47V44.96C39.76 44.9933 39.77 45.0133 39.79 45.02C39.81 45.0267 39.83 45.02 39.85 45C40.27 44.4467 40.85 44.17 41.59 44.17C42.2833 44.17 42.8833 44.3633 43.39 44.75C43.89 45.1367 44.25 45.6733 44.47 46.36V46.36ZM42.18 49.72C42.4267 49.3333 42.55 48.8033 42.55 48.13C42.55 47.5033 42.4467 47.0033 42.24 46.63C42.0067 46.2033 41.6367 45.99 41.13 45.99C40.67 45.99 40.3233 46.2033 40.09 46.63C39.8833 46.99 39.78 47.4967 39.78 48.15C39.78 48.8167 39.89 49.3367 40.11 49.71C40.3367 50.11 40.6767 50.31 41.13 50.31C41.5767 50.31 41.9267 50.1133 42.18 49.72V49.72ZM52.99 46.36C53.17 46.8667 53.26 47.4667 53.26 48.16C53.26 48.8533 53.1667 49.48 52.98 50.04C52.7467 50.68 52.3833 51.1867 51.89 51.56C51.3967 51.9333 50.7833 52.12 50.05 52.12C49.33 52.12 48.77 51.87 48.37 51.37C48.35 51.3433 48.33 51.3333 48.31 51.34C48.29 51.3467 48.28 51.3667 48.28 51.4V54.61C48.28 54.6633 48.2633 54.7067 48.23 54.74C48.1967 54.7733 48.1533 54.79 48.1 54.79H46.35C46.2967 54.79 46.2533 54.7733 46.22 54.74C46.1867 54.7067 46.17 54.6633 46.17 54.61V44.47C46.17 44.4233 46.1867 44.38 46.22 44.34C46.2533 44.3067 46.2967 44.29 46.35 44.29H48.1C48.1533 44.29 48.1967 44.3067 48.23 44.34C48.2633 44.38 48.28 44.4233 48.28 44.47V44.96C48.28 44.9933 48.29 45.0133 48.31 45.02C48.33 45.0267 48.35 45.02 48.37 45C48.79 44.4467 49.37 44.17 50.11 44.17C50.8033 44.17 51.4033 44.3633 51.91 44.75C52.41 45.1367 52.77 45.6733 52.99 46.36V46.36ZM50.7 49.72C50.9467 49.3333 51.07 48.8033 51.07 48.13C51.07 47.5033 50.9667 47.0033 50.76 46.63C50.5267 46.2033 50.1567 45.99 49.65 45.99C49.19 45.99 48.8433 46.2033 48.61 46.63C48.4033 46.99 48.3 47.4967 48.3 48.15C48.3 48.8167 48.41 49.3367 48.63 49.71C48.8567 50.11 49.1967 50.31 49.65 50.31C50.0967 50.31 50.4467 50.1133 50.7 49.72V49.72ZM57.99 52.12C57.15 52.12 56.43 51.9 55.83 51.46C55.23 51.02 54.82 50.42 54.6 49.66C54.46 49.1933 54.39 48.6833 54.39 48.13C54.39 47.5433 54.46 47.0133 54.6 46.54C54.8267 45.8 55.24 45.22 55.84 44.8C56.44 44.38 57.1633 44.17 58.01 44.17C58.8233 44.17 59.52 44.3767 60.1 44.79C60.6867 45.21 61.1 45.79 61.34 46.53C61.4933 47.03 61.57 47.5533 61.57 48.1C61.57 48.64 61.5033 49.1467 61.37 49.62C61.1433 50.4 60.7333 51.01 60.14 51.45C59.5467 51.8967 58.83 52.12 57.99 52.12V52.12ZM57.99 50.31C58.3167 50.31 58.5967 50.21 58.83 50.01C59.0567 49.81 59.22 49.5333 59.32 49.18C59.4 48.86 59.44 48.51 59.44 48.13C59.44 47.71 59.4 47.3567 59.32 47.07C59.2133 46.73 59.0433 46.4633 58.81 46.27C58.5833 46.0833 58.3067 45.99 57.98 45.99C57.6333 45.99 57.35 46.0833 57.13 46.27C56.9033 46.4633 56.74 46.73 56.64 47.07C56.56 47.3033 56.52 47.6567 56.52 48.13C56.52 48.5833 56.5533 48.9333 56.62 49.18C56.72 49.5333 56.89 49.81 57.13 50.01C57.3633 50.21 57.65 50.31 57.99 50.31V50.31ZM66.78 44.19C67.14 44.19 67.4267 44.26 67.64 44.4C67.72 44.44 67.75 44.5133 67.73 44.62L67.41 46.33C67.4033 46.45 67.3333 46.4867 67.2 46.44C67.0533 46.3867 66.88 46.36 66.68 46.36C66.5933 46.36 66.4833 46.37 66.35 46.39C65.99 46.4233 65.6833 46.5567 65.43 46.79C65.1833 47.0233 65.06 47.3367 65.06 47.73V51.82C65.06 51.8733 65.04 51.9167 65 51.95C64.9667 51.9833 64.9267 52 64.88 52H63.12C63.0733 52 63.03 51.9833 62.99 51.95C62.9567 51.9167 62.94 51.8733 62.94 51.82V44.47C62.94 44.4233 62.9567 44.38 62.99 44.34C63.03 44.3067 63.0733 44.29 63.12 44.29H64.88C64.9267 44.29 64.9667 44.3067 65 44.34C65.04 44.38 65.06 44.4233 65.06 44.47V45.04C65.06 45.0667 65.07 45.0867 65.09 45.1C65.11 45.1133 65.1233 45.1067 65.13 45.08C65.5433 44.4867 66.0933 44.19 66.78 44.19V44.19ZM73.2 45.81C73.2 45.8567 73.1833 45.8967 73.15 45.93C73.1167 45.97 73.0733 45.99 73.02 45.99H71.58C71.5333 45.99 71.51 46.0133 71.51 46.06V49.24C71.51 49.5667 71.5767 49.8133 71.71 49.98C71.8433 50.14 72.06 50.22 72.36 50.22H72.86C72.9067 50.22 72.9467 50.2367 72.98 50.27C73.02 50.3033 73.04 50.3467 73.04 50.4V51.82C73.04 51.9333 72.98 51.9967 72.86 52.01C72.44 52.03 72.14 52.04 71.96 52.04C71.1267 52.04 70.5067 51.9033 70.1 51.63C69.6867 51.3567 69.4767 50.84 69.47 50.08V46.06C69.47 46.0133 69.4433 45.99 69.39 45.99H68.54C68.4867 45.99 68.4433 45.97 68.41 45.93C68.3767 45.8967 68.36 45.8567 68.36 45.81V44.47C68.36 44.4233 68.3767 44.38 68.41 44.34C68.4433 44.3067 68.4867 44.29 68.54 44.29H69.39C69.4433 44.29 69.47 44.2633 69.47 44.21V42.43C69.47 42.3833 69.4867 42.34 69.52 42.3C69.5533 42.2667 69.5967 42.25 69.65 42.25H71.33C71.3767 42.25 71.4167 42.2667 71.45 42.3C71.49 42.34 71.51 42.3833 71.51 42.43V44.21C71.51 44.2633 71.5333 44.29 71.58 44.29H73.02C73.0733 44.29 73.1167 44.3067 73.15 44.34C73.1833 44.38 73.2 44.4233 73.2 44.47V45.81V45.81ZM38.17 31.53C38.11 31.5567 38.11 31.5867 38.17 31.62C39.1167 32.1067 39.59 32.92 39.59 34.06C39.59 35.0333 39.26 35.7667 38.6 36.26C37.94 36.7533 37.0767 37 36.01 37H32.12C32.0733 37 32.0333 36.9833 32 36.95C31.96 36.9167 31.94 36.8733 31.94 36.82V26.68C31.94 26.6333 31.96 26.59 32 26.55C32.0333 26.5167 32.0733 26.5 32.12 26.5H35.89C38.2567 26.5 39.44 27.46 39.44 29.38C39.44 30.38 39.0167 31.0967 38.17 31.53ZM34.13 28.31C34.0833 28.31 34.06 28.3367 34.06 28.39V30.73C34.06 30.7833 34.0833 30.81 34.13 30.81H35.89C36.3567 30.81 36.7233 30.7 36.99 30.48C37.2433 30.26 37.37 29.96 37.37 29.58C37.37 29.1867 37.2433 28.8767 36.99 28.65C36.7233 28.4233 36.3567 28.31 35.89 28.31H34.13ZM36.01 35.17C36.47 35.17 36.83 35.0533 37.09 34.82C37.35 34.5867 37.48 34.2633 37.48 33.85C37.48 33.4433 37.35 33.12 37.09 32.88C36.83 32.6467 36.4633 32.53 35.99 32.53H34.13C34.0833 32.53 34.06 32.5567 34.06 32.61V35.09C34.06 35.1433 34.0833 35.17 34.13 35.17H36.01V35.17ZM47.93 32.35C47.99 32.73 48.01 33.1533 47.99 33.62C47.9833 33.7467 47.92 33.81 47.8 33.81H43.16C43.1 33.81 43.08 33.8333 43.1 33.88C43.1333 34.08 43.19 34.28 43.27 34.48C43.53 35.04 44.06 35.32 44.86 35.32C45.5 35.3133 46.0033 35.0533 46.37 34.54C46.41 34.48 46.4567 34.45 46.51 34.45C46.5367 34.45 46.57 34.47 46.61 34.51L47.69 35.57C47.7433 35.6233 47.77 35.67 47.77 35.71C47.77 35.73 47.75 35.77 47.71 35.83C47.3767 36.2433 46.95 36.56 46.43 36.78C45.9167 37.0067 45.3467 37.12 44.72 37.12C43.86 37.12 43.1333 36.9267 42.54 36.54C41.9467 36.1467 41.52 35.6 41.26 34.9C41.0467 34.4 40.94 33.7467 40.94 32.94C40.94 32.3867 41.0167 31.9 41.17 31.48C41.3967 30.7733 41.8 30.21 42.38 29.79C42.9533 29.37 43.6333 29.16 44.42 29.16C45.42 29.16 46.2233 29.45 46.83 30.03C47.4367 30.61 47.8033 31.3833 47.93 32.35V32.35ZM44.44 30.99C43.8067 30.99 43.39 31.2833 43.19 31.87C43.15 32.0033 43.1167 32.1633 43.09 32.35C43.09 32.3967 43.1133 32.42 43.16 32.42H45.76C45.82 32.42 45.84 32.3967 45.82 32.35C45.7667 32.0633 45.74 31.9233 45.74 31.93C45.6533 31.63 45.4967 31.3967 45.27 31.23C45.0433 31.07 44.7667 30.99 44.44 30.99V30.99ZM52.27 37.1C51.5967 37.1 51.01 37.0067 50.51 36.82C50.01 36.6333 49.6233 36.37 49.35 36.03C49.0767 35.69 48.94 35.3033 48.94 34.87V34.72C48.94 34.6733 48.9567 34.63 48.99 34.59C49.0233 34.5567 49.0667 34.54 49.12 34.54H50.78C50.8333 34.54 50.8767 34.5567 50.91 34.59C50.9433 34.63 50.96 34.6733 50.96 34.72V34.73C50.96 34.9567 51.0833 35.1467 51.33 35.3C51.5767 35.4533 51.8833 35.53 52.25 35.53C52.59 35.53 52.8667 35.4633 53.08 35.33C53.2867 35.19 53.39 35.0233 53.39 34.83C53.39 34.65 53.3 34.5133 53.12 34.42C52.94 34.3333 52.6467 34.24 52.24 34.14C51.7667 34.02 51.3967 33.9033 51.13 33.79C50.49 33.57 49.98 33.3 49.6 32.98C49.22 32.66 49.03 32.2 49.03 31.6C49.03 30.86 49.3167 30.2733 49.89 29.84C50.4633 29.4067 51.2267 29.19 52.18 29.19C52.82 29.19 53.38 29.29 53.86 29.49C54.34 29.6967 54.7133 29.9867 54.98 30.36C55.24 30.7267 55.37 31.1467 55.37 31.62C55.37 31.6667 55.3533 31.7067 55.32 31.74C55.2867 31.7733 55.2433 31.79 55.19 31.79H53.59C53.5367 31.79 53.4933 31.7733 53.46 31.74C53.4267 31.7067 53.41 31.6667 53.41 31.62C53.41 31.4 53.2967 31.2133 53.07 31.06C52.8433 30.9067 52.5467 30.83 52.18 30.83C51.8467 30.83 51.5767 30.8933 51.37 31.02C51.1567 31.14 51.05 31.3033 51.05 31.51C51.05 31.71 51.1533 31.86 51.36 31.96C51.5667 32.06 51.91 32.1667 52.39 32.28C52.4967 32.3067 52.62 32.3367 52.76 32.37C52.9 32.4033 53.05 32.4467 53.21 32.5C53.9233 32.7133 54.4833 32.9833 54.89 33.31C55.3033 33.6433 55.51 34.1233 55.51 34.75C55.51 35.49 55.2167 36.0667 54.63 36.48C54.0433 36.8933 53.2567 37.1 52.27 37.1V37.1ZM61.13 30.81C61.13 30.8567 61.1133 30.8967 61.08 30.93C61.0467 30.97 61.0033 30.99 60.95 30.99H59.51C59.4633 30.99 59.44 31.0133 59.44 31.06V34.24C59.44 34.5667 59.5067 34.8133 59.64 34.98C59.7733 35.14 59.9933 35.22 60.3 35.22H60.79C60.8367 35.22 60.88 35.2367 60.92 35.27C60.9533 35.3033 60.97 35.3467 60.97 35.4V36.82C60.97 36.9333 60.91 36.9967 60.79 37.01C60.37 37.03 60.07 37.04 59.89 37.04C59.0567 37.04 58.4367 36.9033 58.03 36.63C57.6167 36.3567 57.4067 35.84 57.4 35.08V31.06C57.4 31.0133 57.3733 30.99 57.32 30.99H56.47C56.4167 30.99 56.3733 30.97 56.34 30.93C56.3067 30.8967 56.29 30.8567 56.29 30.81V29.47C56.29 29.4233 56.3067 29.38 56.34 29.34C56.3733 29.3067 56.4167 29.29 56.47 29.29H57.32C57.3733 29.29 57.4 29.2633 57.4 29.21V27.43C57.4 27.3833 57.4167 27.34 57.45 27.3C57.4833 27.2667 57.5267 27.25 57.58 27.25H59.26C59.3067 27.25 59.35 27.2667 59.39 27.3C59.4233 27.34 59.44 27.3833 59.44 27.43V29.21C59.44 29.2633 59.4633 29.29 59.51 29.29H60.95C61.0033 29.29 61.0467 29.3067 61.08 29.34C61.1133 29.38 61.13 29.4233 61.13 29.47V30.81V30.81Z" fill="#252530"/>
<path d="M31.2 67.4C31.1267 67.4 31.08 67.3667 31.06 67.3L29.24 60.53L29.23 60.49C29.23 60.43 29.2667 60.4 29.34 60.4H30.32C30.3933 60.4 30.44 60.4333 30.46 60.5L31.6 65.06C31.6067 65.08 31.6167 65.09 31.63 65.09C31.6433 65.09 31.6533 65.08 31.66 65.06L32.75 60.5C32.77 60.4333 32.8133 60.4 32.88 60.4H33.84C33.9133 60.4 33.96 60.4333 33.98 60.5L35.14 65.07C35.1467 65.09 35.1567 65.1 35.17 65.1C35.1833 65.1 35.1933 65.09 35.2 65.07L36.32 60.5C36.34 60.4333 36.3867 60.4 36.46 60.4H37.39C37.4833 60.4 37.52 60.4433 37.5 60.53L35.77 67.3C35.75 67.3667 35.7033 67.4 35.63 67.4H34.7C34.6267 67.4 34.58 67.3667 34.56 67.3L33.39 62.53C33.3833 62.51 33.3733 62.4967 33.36 62.49C33.3467 62.49 33.3367 62.5033 33.33 62.53L32.21 67.3C32.19 67.3667 32.1467 67.4 32.08 67.4H31.2V67.4ZM38.61 67.4C38.5767 67.4 38.5467 67.3867 38.52 67.36C38.5 67.34 38.49 67.3133 38.49 67.28V60.52C38.49 60.4867 38.5 60.46 38.52 60.44C38.5467 60.4133 38.5767 60.4 38.61 60.4H39.53C39.5633 60.4 39.59 60.4133 39.61 60.44C39.6367 60.46 39.65 60.4867 39.65 60.52V67.28C39.65 67.3133 39.6367 67.34 39.61 67.36C39.59 67.3867 39.5633 67.4 39.53 67.4H38.61ZM45.18 60.52C45.18 60.4867 45.19 60.46 45.21 60.44C45.2367 60.4133 45.2667 60.4 45.3 60.4H46.22C46.2533 60.4 46.28 60.4133 46.3 60.44C46.3267 60.46 46.34 60.4867 46.34 60.52V67.28C46.34 67.3133 46.3267 67.34 46.3 67.36C46.28 67.3867 46.2533 67.4 46.22 67.4H45.33C45.2633 67.4 45.2167 67.3733 45.19 67.32L42.31 62.6C42.2967 62.58 42.2833 62.57 42.27 62.57C42.2567 62.5767 42.25 62.5933 42.25 62.62L42.27 67.28C42.27 67.3133 42.2567 67.34 42.23 67.36C42.21 67.3867 42.1833 67.4 42.15 67.4H41.23C41.1967 67.4 41.1667 67.3867 41.14 67.36C41.12 67.34 41.11 67.3133 41.11 67.28V60.52C41.11 60.4867 41.12 60.46 41.14 60.44C41.1667 60.4133 41.1967 60.4 41.23 60.4H42.12C42.1867 60.4 42.2333 60.4267 42.26 60.48L45.13 65.2C45.1433 65.22 45.1567 65.2267 45.17 65.22C45.1833 65.22 45.19 65.2067 45.19 65.18L45.18 60.52V60.52ZM52.4 60.4C52.4333 60.4 52.46 60.4133 52.48 60.44C52.5067 60.46 52.52 60.4867 52.52 60.52V61.29C52.52 61.3233 52.5067 61.35 52.48 61.37C52.46 61.3967 52.4333 61.41 52.4 61.41H50.56C50.5267 61.41 50.51 61.4267 50.51 61.46V67.28C50.51 67.3133 50.5 67.34 50.48 67.36C50.4533 67.3867 50.4233 67.4 50.39 67.4H49.47C49.4367 67.4 49.41 67.3867 49.39 67.36C49.3633 67.34 49.35 67.3133 49.35 67.28V61.46C49.35 61.4267 49.3333 61.41 49.3 61.41H47.53C47.4967 61.41 47.4667 61.3967 47.44 61.37C47.42 61.35 47.41 61.3233 47.41 61.29V60.52C47.41 60.4867 47.42 60.46 47.44 60.44C47.4667 60.4133 47.4967 60.4 47.53 60.4H52.4V60.4ZM58.33 61.28C58.33 61.3133 58.3167 61.34 58.29 61.36C58.27 61.3867 58.2433 61.4 58.21 61.4H54.8C54.7667 61.4 54.75 61.4167 54.75 61.45V63.32C54.75 63.3533 54.7667 63.37 54.8 63.37H57.09C57.1233 63.37 57.1533 63.38 57.18 63.4C57.2 63.4267 57.21 63.4567 57.21 63.49V64.25C57.21 64.2833 57.2 64.3133 57.18 64.34C57.1533 64.36 57.1233 64.37 57.09 64.37H54.8C54.7667 64.37 54.75 64.3867 54.75 64.42V66.35C54.75 66.3833 54.7667 66.4 54.8 66.4H58.21C58.2433 66.4 58.27 66.4133 58.29 66.44C58.3167 66.46 58.33 66.4867 58.33 66.52V67.28C58.33 67.3133 58.3167 67.34 58.29 67.36C58.27 67.3867 58.2433 67.4 58.21 67.4H53.71C53.6767 67.4 53.6467 67.3867 53.62 67.36C53.6 67.34 53.59 67.3133 53.59 67.28V60.52C53.59 60.4867 53.6 60.46 53.62 60.44C53.6467 60.4133 53.6767 60.4 53.71 60.4H58.21C58.2433 60.4 58.27 60.4133 58.29 60.44C58.3167 60.46 58.33 60.4867 58.33 60.52V61.28V61.28ZM63.44 67.4C63.3733 67.4 63.3267 67.37 63.3 67.31L61.98 64.43C61.9667 64.4033 61.9467 64.39 61.92 64.39H60.72C60.6867 64.39 60.67 64.4067 60.67 64.44V67.28C60.67 67.3133 60.6567 67.34 60.63 67.36C60.61 67.3867 60.5833 67.4 60.55 67.4H59.63C59.5967 67.4 59.5667 67.3867 59.54 67.36C59.52 67.34 59.51 67.3133 59.51 67.28V60.52C59.51 60.4867 59.52 60.46 59.54 60.44C59.5667 60.4133 59.5967 60.4 59.63 60.4H62.38C62.7867 60.4 63.1467 60.4833 63.46 60.65C63.7733 60.8233 64.0167 61.0633 64.19 61.37C64.3633 61.6833 64.45 62.04 64.45 62.44C64.45 62.9 64.33 63.29 64.09 63.61C63.8567 63.9367 63.53 64.1633 63.11 64.29C63.0967 64.29 63.0867 64.2967 63.08 64.31C63.0733 64.3233 63.0733 64.3367 63.08 64.35L64.49 67.26C64.5033 67.2867 64.51 67.3067 64.51 67.32C64.51 67.3733 64.4733 67.4 64.4 67.4H63.44V67.4ZM60.72 61.4C60.6867 61.4 60.67 61.4167 60.67 61.45V63.44C60.67 63.4733 60.6867 63.49 60.72 63.49H62.22C62.54 63.49 62.8 63.3933 63 63.2C63.1933 63.0133 63.29 62.7633 63.29 62.45C63.29 62.1367 63.1933 61.8833 63 61.69C62.8 61.4967 62.54 61.4 62.22 61.4H60.72V61.4Z" fill="#242530"/>
<path d="M34.03 85.46C34.01 85.48 34.0033 85.5 34.01 85.52C34.0233 85.54 34.0433 85.55 34.07 85.55H38C38.0467 85.55 38.0867 85.5667 38.12 85.6C38.16 85.6333 38.18 85.6733 38.18 85.72V87.13C38.18 87.1767 38.16 87.2167 38.12 87.25C38.0867 87.2833 38.0467 87.3 38 87.3H31.48C31.4267 87.3 31.3833 87.2833 31.35 87.25C31.3167 87.2167 31.3 87.1767 31.3 87.13V85.79C31.3 85.7033 31.33 85.63 31.39 85.57C31.8633 85.11 32.3467 84.6067 32.84 84.06C33.3333 83.5133 33.6433 83.1733 33.77 83.04C34.0367 82.72 34.31 82.4133 34.59 82.12C35.47 81.1467 35.91 80.4233 35.91 79.95C35.91 79.61 35.79 79.33 35.55 79.11C35.31 78.8967 34.9967 78.79 34.61 78.79C34.2233 78.79 33.91 78.8967 33.67 79.11C33.4233 79.33 33.3 79.62 33.3 79.98V80.34C33.3 80.3867 33.2833 80.4267 33.25 80.46C33.2167 80.4933 33.1767 80.51 33.13 80.51H31.42C31.3733 80.51 31.3333 80.4933 31.3 80.46C31.26 80.4267 31.24 80.3867 31.24 80.34V79.66C31.2733 79.14 31.44 78.6767 31.74 78.27C32.04 77.87 32.4367 77.5633 32.93 77.35C33.43 77.1367 33.99 77.03 34.61 77.03C35.2967 77.03 35.8933 77.16 36.4 77.42C36.9067 77.6733 37.2967 78.0167 37.57 78.45C37.85 78.89 37.99 79.3733 37.99 79.9C37.99 80.3067 37.8867 80.7233 37.68 81.15C37.48 81.5767 37.1767 82.0367 36.77 82.53C36.47 82.9033 36.1467 83.2767 35.8 83.65C35.4533 84.0167 34.9367 84.5467 34.25 85.24L34.03 85.46V85.46ZM42.89 87.46C41.8233 87.46 40.9833 87.1633 40.37 86.57C39.75 85.9767 39.44 85.1667 39.44 84.14V80.31C39.44 79.3033 39.75 78.5067 40.37 77.92C40.9833 77.3267 41.8233 77.03 42.89 77.03C43.95 77.03 44.7933 77.3267 45.42 77.92C46.04 78.5067 46.35 79.3033 46.35 80.31V84.14C46.35 85.1667 46.04 85.9767 45.42 86.57C44.7933 87.1633 43.95 87.46 42.89 87.46ZM42.89 85.71C43.3233 85.71 43.6667 85.5767 43.92 85.31C44.18 85.0433 44.31 84.6867 44.31 84.24V80.25C44.31 79.81 44.18 79.4567 43.92 79.19C43.6667 78.9233 43.3233 78.79 42.89 78.79C42.4633 78.79 42.1233 78.9233 41.87 79.19C41.61 79.4567 41.48 79.81 41.48 80.25V84.24C41.48 84.6867 41.61 85.0433 41.87 85.31C42.1233 85.5767 42.4633 85.71 42.89 85.71ZM50.41 85.46C50.39 85.48 50.3867 85.5 50.4 85.52C50.4067 85.54 50.4267 85.55 50.46 85.55H54.39C54.4367 85.55 54.4767 85.5667 54.51 85.6C54.5433 85.6333 54.56 85.6733 54.56 85.72V87.13C54.56 87.1767 54.5433 87.2167 54.51 87.25C54.4767 87.2833 54.4367 87.3 54.39 87.3H47.86C47.8133 87.3 47.7733 87.2833 47.74 87.25C47.7067 87.2167 47.69 87.1767 47.69 87.13V85.79C47.69 85.7033 47.7167 85.63 47.77 85.57C48.25 85.11 48.7333 84.6067 49.22 84.06C49.7133 83.5133 50.0233 83.1733 50.15 83.04C50.4233 82.72 50.7 82.4133 50.98 82.12C51.86 81.1467 52.3 80.4233 52.3 79.95C52.3 79.61 52.18 79.33 51.94 79.11C51.6933 78.8967 51.3767 78.79 50.99 78.79C50.6033 78.79 50.29 78.8967 50.05 79.11C49.81 79.33 49.69 79.62 49.69 79.98V80.34C49.69 80.3867 49.6733 80.4267 49.64 80.46C49.6067 80.4933 49.5633 80.51 49.51 80.51H47.8C47.7533 80.51 47.7133 80.4933 47.68 80.46C47.6467 80.4267 47.63 80.3867 47.63 80.34V79.66C47.6567 79.14 47.82 78.6767 48.12 78.27C48.42 77.87 48.82 77.5633 49.32 77.35C49.82 77.1367 50.3767 77.03 50.99 77.03C51.6767 77.03 52.2733 77.16 52.78 77.42C53.2933 77.6733 53.6867 78.0167 53.96 78.45C54.2333 78.89 54.37 79.3733 54.37 79.9C54.37 80.3067 54.27 80.7233 54.07 81.15C53.8633 81.5767 53.5567 82.0367 53.15 82.53C52.85 82.9033 52.5267 83.2767 52.18 83.65C51.8333 84.0167 51.3167 84.5467 50.63 85.24L50.41 85.46V85.46ZM61.87 82.46C62.0633 82.9 62.16 83.41 62.16 83.99C62.16 84.5167 62.0733 85 61.9 85.44C61.6667 86.06 61.2767 86.5433 60.73 86.89C60.1833 87.2433 59.5367 87.42 58.79 87.42C58.0567 87.42 57.4133 87.2367 56.86 86.87C56.3067 86.4967 55.9067 85.9967 55.66 85.37C55.5267 84.9967 55.45 84.59 55.43 84.15C55.43 84.0367 55.4867 83.98 55.6 83.98H57.32C57.4333 83.98 57.49 84.0367 57.49 84.15C57.53 84.47 57.5833 84.7067 57.65 84.86C57.7367 85.1133 57.88 85.31 58.08 85.45C58.2733 85.59 58.5067 85.66 58.78 85.66C59.32 85.66 59.6933 85.4233 59.9 84.95C60.0333 84.6633 60.1 84.3267 60.1 83.94C60.1 83.48 60.0267 83.1067 59.88 82.82C59.66 82.3667 59.29 82.14 58.77 82.14C58.6633 82.14 58.55 82.17 58.43 82.23C58.3167 82.2967 58.1767 82.3867 58.01 82.5C57.97 82.5267 57.9333 82.54 57.9 82.54C57.84 82.54 57.7967 82.5133 57.77 82.46L56.91 81.25C56.89 81.2233 56.88 81.19 56.88 81.15C56.88 81.09 56.9 81.0433 56.94 81.01L59.24 78.99C59.26 78.97 59.27 78.95 59.27 78.93C59.2633 78.91 59.2467 78.9 59.22 78.9H55.81C55.7633 78.9 55.72 78.8833 55.68 78.85C55.6467 78.8167 55.63 78.7767 55.63 78.73V77.32C55.63 77.2733 55.6467 77.2333 55.68 77.2C55.72 77.1667 55.7633 77.15 55.81 77.15H61.85C61.9033 77.15 61.9467 77.1667 61.98 77.2C62.0133 77.2333 62.03 77.2733 62.03 77.32V78.92C62.03 78.9933 61.9967 79.0667 61.93 79.14L60.03 80.88C60.01 80.9 60.0033 80.9167 60.01 80.93C60.01 80.95 60.03 80.96 60.07 80.96C60.91 81.1267 61.51 81.6267 61.87 82.46Z" fill="#252530"/>
</g>
<defs>
<clipPath id="clip0_231_49">
<rect width="94" height="105" fill="white"/>
</clipPath>
</defs>
</svg>
