<svg width="94" height="105" viewBox="0 0 94 105" fill="none" xmlns="http://www.w3.org/2000/svg">
<g clip-path="url(#clip0_231_41)">
<path d="M8.10001 81.9L47.6 102L85.6 81.9V3.29999H8.10001V81.9Z" fill="white"/>
<path d="M86.4 3.60001L7.29999 83.3L48.3 103.6L86.4 84.1V3.60001Z" fill="#F2F3F2"/>
<path d="M5.5 29.5V83.6L6.9 84.3L46.4 104.4L47.6 105L48.8 104.4L86.9 84.3L88.3 83.6V0.700012H5.5V29.5ZM8.1 82.1V3.30001H85.7V82.1L47.6 102.2L8.1 82.1Z" fill="#DCDEDC"/>
<path d="M46.9 4.60001C47.3 4.60001 47.7 4.60001 48.1 4.70001L46.9 7.00001C45.1 6.90001 43.5 8.30001 43.4 10.1C43.3 11.9 44.7 13.5 46.5 13.6H46.9C47.7 13.6 48.5 13.3 49.1 12.8L50.4 15C49.4 15.7 48.2 16.1 46.9 16.1C43.7 16.2 41 13.8 40.9 10.6C40.8 7.40001 43.2 4.70001 46.4 4.60001H46.9V4.60001ZM51 9.50001L52.5 12L51 14.4L49.6 12H46.7L48.2 9.50001H51ZM48.6 8.60001C48.6 8.20001 48.7 7.80001 48.9 7.50001C49.1 7.20001 49.5 6.90001 49.8 6.70001L50 6.60001C50.4 6.40001 50.5 6.30001 50.5 6.10001C50.5 5.90001 50.2 5.70001 50 5.70001C49.6 5.70001 49.3 5.90001 49.1 6.30001L48.6 5.80001C48.7 5.60001 48.9 5.40001 49.1 5.20001C49.4 5.00001 49.7 5.00001 50 5.00001C50.3 5.00001 50.7 5.10001 50.9 5.30001C51.1 5.50001 51.3 5.80001 51.3 6.10001C51.3 6.60001 51 7.00001 50.4 7.20001L50.1 7.40001C49.8 7.60001 49.6 7.70001 49.5 8.00001H51.3V8.70001L48.6 8.60001V8.60001ZM46.9 21.1L56.4 15.7V0.700012H37.3V15.6L46.9 21.1ZM90.2 56.5H3.59999L0.399994 63.5L3.59999 70.5H90.2L93.3 63.5L90.2 56.5Z" fill="#FF492C"/>
<path d="M19.09 52C19.03 52 18.98 51.98 18.94 51.94C18.9 51.8933 18.88 51.84 18.88 51.78V39.62C18.88 39.56 18.9 39.5067 18.94 39.46C18.98 39.42 19.03 39.4 19.09 39.4H21.2C21.26 39.4 21.31 39.42 21.35 39.46C21.3967 39.5067 21.42 39.56 21.42 39.62V49.73C21.42 49.79 21.45 49.82 21.51 49.82H27.39C27.45 49.82 27.5033 49.84 27.55 49.88C27.59 49.9267 27.61 49.98 27.61 50.04V51.78C27.61 51.84 27.59 51.8933 27.55 51.94C27.5033 51.98 27.45 52 27.39 52H19.09V52ZM37.2 46.42C37.2733 46.8733 37.2967 47.3833 37.27 47.95C37.2633 48.0967 37.1867 48.17 37.04 48.17H31.48C31.4067 48.17 31.3833 48.2 31.41 48.26C31.4433 48.5 31.5067 48.74 31.6 48.98C31.9133 49.6467 32.55 49.98 33.51 49.98C34.2767 49.9733 34.8833 49.6633 35.33 49.05C35.3767 48.9767 35.43 48.94 35.49 48.94C35.53 48.94 35.5733 48.9633 35.62 49.01L36.91 50.29C36.97 50.35 37 50.4033 37 50.45C37 50.4767 36.9767 50.5267 36.93 50.6C36.5367 51.0867 36.0267 51.4667 35.4 51.74C34.78 52.0067 34.0967 52.14 33.35 52.14C32.3167 52.14 31.4433 51.9067 30.73 51.44C30.0167 50.9733 29.5033 50.32 29.19 49.48C28.9367 48.88 28.81 48.0933 28.81 47.12C28.81 46.46 28.9 45.88 29.08 45.38C29.36 44.5267 29.8433 43.8467 30.53 43.34C31.2233 42.84 32.0433 42.59 32.99 42.59C34.19 42.59 35.1533 42.9367 35.88 43.63C36.6067 44.3233 37.0467 45.2533 37.2 46.42V46.42ZM33.01 44.78C32.25 44.78 31.75 45.1333 31.51 45.84C31.4633 46 31.4233 46.1933 31.39 46.42C31.39 46.48 31.42 46.51 31.48 46.51H34.59C34.6633 46.51 34.6867 46.48 34.66 46.42C34.6 46.0733 34.57 45.9067 34.57 45.92C34.4633 45.56 34.2767 45.28 34.01 45.08C33.7367 44.88 33.4033 44.78 33.01 44.78V44.78ZM42.44 42.6C43.22 42.6 43.9167 42.7367 44.53 43.01C45.1433 43.2767 45.62 43.6467 45.96 44.12C46.3 44.5867 46.47 45.1067 46.47 45.68V51.78C46.47 51.84 46.45 51.8933 46.41 51.94C46.37 51.98 46.32 52 46.26 52H44.15C44.09 52 44.04 51.98 44 51.94C43.9533 51.8933 43.93 51.84 43.93 51.78V51.19C43.93 51.1567 43.92 51.1333 43.9 51.12C43.8733 51.1067 43.85 51.1167 43.83 51.15C43.3233 51.81 42.5133 52.14 41.4 52.14C40.46 52.14 39.7033 51.9133 39.13 51.46C38.55 51.0067 38.26 50.3333 38.26 49.44C38.26 48.52 38.5867 47.8033 39.24 47.29C39.8867 46.7833 40.81 46.53 42.01 46.53H43.84C43.9 46.53 43.93 46.5 43.93 46.44V46.04C43.93 45.6467 43.81 45.3367 43.57 45.11C43.33 44.89 42.97 44.78 42.49 44.78C42.1233 44.78 41.8167 44.8467 41.57 44.98C41.3233 45.1133 41.1633 45.3 41.09 45.54C41.0567 45.6733 40.98 45.7333 40.86 45.72L38.68 45.43C38.5333 45.4033 38.4667 45.35 38.48 45.27C38.5267 44.7633 38.7267 44.3067 39.08 43.9C39.4333 43.4933 39.9033 43.1767 40.49 42.95C41.07 42.7167 41.72 42.6 42.44 42.6V42.6ZM42.08 50.25C42.5933 50.25 43.03 50.1133 43.39 49.84C43.75 49.5667 43.93 49.2133 43.93 48.78V48.13C43.93 48.07 43.9 48.04 43.84 48.04H42.55C42.01 48.04 41.5867 48.1433 41.28 48.35C40.9733 48.55 40.82 48.8367 40.82 49.21C40.82 49.5367 40.9333 49.79 41.16 49.97C41.3867 50.1567 41.6933 50.25 42.08 50.25ZM54 39.62C54 39.56 54.02 39.5067 54.06 39.46C54.1 39.42 54.15 39.4 54.21 39.4H56.32C56.38 39.4 56.43 39.42 56.47 39.46C56.51 39.5067 56.53 39.56 56.53 39.62V51.78C56.53 51.84 56.51 51.8933 56.47 51.94C56.43 51.98 56.38 52 56.32 52H54.21C54.15 52 54.1 51.98 54.06 51.94C54.02 51.8933 54 51.84 54 51.78V51.19C54 51.1567 53.9867 51.1367 53.96 51.13C53.9333 51.1233 53.91 51.13 53.89 51.15C53.3833 51.81 52.6933 52.14 51.82 52.14C50.98 52.14 50.2567 51.9067 49.65 51.44C49.0433 50.9733 48.6067 50.3333 48.34 49.52C48.14 48.8933 48.04 48.1667 48.04 47.34C48.04 46.4867 48.1467 45.7433 48.36 45.11C48.64 44.3367 49.0767 43.7267 49.67 43.28C50.2633 42.8267 50.9967 42.6 51.87 42.6C52.7367 42.6 53.41 42.9 53.89 43.5C53.91 43.54 53.9333 43.5533 53.96 43.54C53.9867 43.5267 54 43.5033 54 43.47V39.62V39.62ZM53.62 49.19C53.86 48.75 53.98 48.1433 53.98 47.37C53.98 46.57 53.8467 45.94 53.58 45.48C53.3067 45.0133 52.9067 44.78 52.38 44.78C51.8133 44.78 51.3867 45.0133 51.1 45.48C50.8 45.9533 50.65 46.59 50.65 47.39C50.65 48.11 50.7767 48.71 51.03 49.19C51.33 49.71 51.7733 49.97 52.36 49.97C52.9 49.97 53.32 49.71 53.62 49.19V49.19ZM66.63 46.42C66.7033 46.8733 66.7267 47.3833 66.7 47.95C66.6933 48.0967 66.6167 48.17 66.47 48.17H60.91C60.8367 48.17 60.8133 48.2 60.84 48.26C60.8733 48.5 60.9367 48.74 61.03 48.98C61.3433 49.6467 61.98 49.98 62.94 49.98C63.7067 49.9733 64.3133 49.6633 64.76 49.05C64.8067 48.9767 64.86 48.94 64.92 48.94C64.96 48.94 65.0033 48.9633 65.05 49.01L66.34 50.29C66.4 50.35 66.43 50.4033 66.43 50.45C66.43 50.4767 66.4067 50.5267 66.36 50.6C65.9667 51.0867 65.4567 51.4667 64.83 51.74C64.21 52.0067 63.5267 52.14 62.78 52.14C61.7467 52.14 60.8733 51.9067 60.16 51.44C59.4467 50.9733 58.9333 50.32 58.62 49.48C58.3667 48.88 58.24 48.0933 58.24 47.12C58.24 46.46 58.33 45.88 58.51 45.38C58.79 44.5267 59.2733 43.8467 59.96 43.34C60.6533 42.84 61.4733 42.59 62.42 42.59C63.62 42.59 64.5833 42.9367 65.31 43.63C66.0367 44.3233 66.4767 45.2533 66.63 46.42V46.42ZM62.44 44.78C61.68 44.78 61.18 45.1333 60.94 45.84C60.8933 46 60.8533 46.1933 60.82 46.42C60.82 46.48 60.85 46.51 60.91 46.51H64.02C64.0933 46.51 64.1167 46.48 64.09 46.42C64.03 46.0733 64 45.9067 64 45.92C63.8933 45.56 63.7067 45.28 63.44 45.08C63.1667 44.88 62.8333 44.78 62.44 44.78ZM72.88 42.62C73.3133 42.62 73.6533 42.7033 73.9 42.87C74 42.9233 74.0367 43.0133 74.01 43.14L73.63 45.2C73.6233 45.34 73.54 45.38 73.38 45.32C73.2 45.26 72.99 45.23 72.75 45.23C72.6567 45.23 72.5267 45.2433 72.36 45.27C71.9267 45.3033 71.56 45.46 71.26 45.74C70.96 46.0267 70.81 46.4033 70.81 46.87V51.78C70.81 51.84 70.79 51.8933 70.75 51.94C70.7033 51.98 70.65 52 70.59 52H68.49C68.43 52 68.3767 51.98 68.33 51.94C68.29 51.8933 68.27 51.84 68.27 51.78V42.96C68.27 42.9 68.29 42.85 68.33 42.81C68.3767 42.77 68.43 42.75 68.49 42.75H70.59C70.65 42.75 70.7033 42.77 70.75 42.81C70.79 42.85 70.81 42.9 70.81 42.96V43.65C70.81 43.6833 70.82 43.7067 70.84 43.72C70.8667 43.7333 70.8867 43.7267 70.9 43.7C71.3933 42.98 72.0533 42.62 72.88 42.62V42.62Z" fill="#252530"/>
<path d="M31.2 67.4C31.1267 67.4 31.08 67.3667 31.06 67.3L29.24 60.53L29.23 60.49C29.23 60.43 29.2667 60.4 29.34 60.4H30.32C30.3933 60.4 30.44 60.4333 30.46 60.5L31.6 65.06C31.6067 65.08 31.6167 65.09 31.63 65.09C31.6433 65.09 31.6533 65.08 31.66 65.06L32.75 60.5C32.77 60.4333 32.8133 60.4 32.88 60.4H33.84C33.9133 60.4 33.96 60.4333 33.98 60.5L35.14 65.07C35.1467 65.09 35.1567 65.1 35.17 65.1C35.1833 65.1 35.1933 65.09 35.2 65.07L36.32 60.5C36.34 60.4333 36.3867 60.4 36.46 60.4H37.39C37.4833 60.4 37.52 60.4433 37.5 60.53L35.77 67.3C35.75 67.3667 35.7033 67.4 35.63 67.4H34.7C34.6267 67.4 34.58 67.3667 34.56 67.3L33.39 62.53C33.3833 62.51 33.3733 62.4967 33.36 62.49C33.3467 62.49 33.3367 62.5033 33.33 62.53L32.21 67.3C32.19 67.3667 32.1467 67.4 32.08 67.4H31.2V67.4ZM38.61 67.4C38.5767 67.4 38.5467 67.3867 38.52 67.36C38.5 67.34 38.49 67.3133 38.49 67.28V60.52C38.49 60.4867 38.5 60.46 38.52 60.44C38.5467 60.4133 38.5767 60.4 38.61 60.4H39.53C39.5633 60.4 39.59 60.4133 39.61 60.44C39.6367 60.46 39.65 60.4867 39.65 60.52V67.28C39.65 67.3133 39.6367 67.34 39.61 67.36C39.59 67.3867 39.5633 67.4 39.53 67.4H38.61ZM45.18 60.52C45.18 60.4867 45.19 60.46 45.21 60.44C45.2367 60.4133 45.2667 60.4 45.3 60.4H46.22C46.2533 60.4 46.28 60.4133 46.3 60.44C46.3267 60.46 46.34 60.4867 46.34 60.52V67.28C46.34 67.3133 46.3267 67.34 46.3 67.36C46.28 67.3867 46.2533 67.4 46.22 67.4H45.33C45.2633 67.4 45.2167 67.3733 45.19 67.32L42.31 62.6C42.2967 62.58 42.2833 62.57 42.27 62.57C42.2567 62.5767 42.25 62.5933 42.25 62.62L42.27 67.28C42.27 67.3133 42.2567 67.34 42.23 67.36C42.21 67.3867 42.1833 67.4 42.15 67.4H41.23C41.1967 67.4 41.1667 67.3867 41.14 67.36C41.12 67.34 41.11 67.3133 41.11 67.28V60.52C41.11 60.4867 41.12 60.46 41.14 60.44C41.1667 60.4133 41.1967 60.4 41.23 60.4H42.12C42.1867 60.4 42.2333 60.4267 42.26 60.48L45.13 65.2C45.1433 65.22 45.1567 65.2267 45.17 65.22C45.1833 65.22 45.19 65.2067 45.19 65.18L45.18 60.52V60.52ZM52.4 60.4C52.4333 60.4 52.46 60.4133 52.48 60.44C52.5067 60.46 52.52 60.4867 52.52 60.52V61.29C52.52 61.3233 52.5067 61.35 52.48 61.37C52.46 61.3967 52.4333 61.41 52.4 61.41H50.56C50.5267 61.41 50.51 61.4267 50.51 61.46V67.28C50.51 67.3133 50.5 67.34 50.48 67.36C50.4533 67.3867 50.4233 67.4 50.39 67.4H49.47C49.4367 67.4 49.41 67.3867 49.39 67.36C49.3633 67.34 49.35 67.3133 49.35 67.28V61.46C49.35 61.4267 49.3333 61.41 49.3 61.41H47.53C47.4967 61.41 47.4667 61.3967 47.44 61.37C47.42 61.35 47.41 61.3233 47.41 61.29V60.52C47.41 60.4867 47.42 60.46 47.44 60.44C47.4667 60.4133 47.4967 60.4 47.53 60.4H52.4V60.4ZM58.33 61.28C58.33 61.3133 58.3167 61.34 58.29 61.36C58.27 61.3867 58.2433 61.4 58.21 61.4H54.8C54.7667 61.4 54.75 61.4167 54.75 61.45V63.32C54.75 63.3533 54.7667 63.37 54.8 63.37H57.09C57.1233 63.37 57.1533 63.38 57.18 63.4C57.2 63.4267 57.21 63.4567 57.21 63.49V64.25C57.21 64.2833 57.2 64.3133 57.18 64.34C57.1533 64.36 57.1233 64.37 57.09 64.37H54.8C54.7667 64.37 54.75 64.3867 54.75 64.42V66.35C54.75 66.3833 54.7667 66.4 54.8 66.4H58.21C58.2433 66.4 58.27 66.4133 58.29 66.44C58.3167 66.46 58.33 66.4867 58.33 66.52V67.28C58.33 67.3133 58.3167 67.34 58.29 67.36C58.27 67.3867 58.2433 67.4 58.21 67.4H53.71C53.6767 67.4 53.6467 67.3867 53.62 67.36C53.6 67.34 53.59 67.3133 53.59 67.28V60.52C53.59 60.4867 53.6 60.46 53.62 60.44C53.6467 60.4133 53.6767 60.4 53.71 60.4H58.21C58.2433 60.4 58.27 60.4133 58.29 60.44C58.3167 60.46 58.33 60.4867 58.33 60.52V61.28V61.28ZM63.44 67.4C63.3733 67.4 63.3267 67.37 63.3 67.31L61.98 64.43C61.9667 64.4033 61.9467 64.39 61.92 64.39H60.72C60.6867 64.39 60.67 64.4067 60.67 64.44V67.28C60.67 67.3133 60.6567 67.34 60.63 67.36C60.61 67.3867 60.5833 67.4 60.55 67.4H59.63C59.5967 67.4 59.5667 67.3867 59.54 67.36C59.52 67.34 59.51 67.3133 59.51 67.28V60.52C59.51 60.4867 59.52 60.46 59.54 60.44C59.5667 60.4133 59.5967 60.4 59.63 60.4H62.38C62.7867 60.4 63.1467 60.4833 63.46 60.65C63.7733 60.8233 64.0167 61.0633 64.19 61.37C64.3633 61.6833 64.45 62.04 64.45 62.44C64.45 62.9 64.33 63.29 64.09 63.61C63.8567 63.9367 63.53 64.1633 63.11 64.29C63.0967 64.29 63.0867 64.2967 63.08 64.31C63.0733 64.3233 63.0733 64.3367 63.08 64.35L64.49 67.26C64.5033 67.2867 64.51 67.3067 64.51 67.32C64.51 67.3733 64.4733 67.4 64.4 67.4H63.44V67.4ZM60.72 61.4C60.6867 61.4 60.67 61.4167 60.67 61.45V63.44C60.67 63.4733 60.6867 63.49 60.72 63.49H62.22C62.54 63.49 62.8 63.3933 63 63.2C63.1933 63.0133 63.29 62.7633 63.29 62.45C63.29 62.1367 63.1933 61.8833 63 61.69C62.8 61.4967 62.54 61.4 62.22 61.4H60.72V61.4Z" fill="white"/>
<path d="M34.03 85.46C34.01 85.48 34.0033 85.5 34.01 85.52C34.0233 85.54 34.0433 85.55 34.07 85.55H38C38.0467 85.55 38.0867 85.5667 38.12 85.6C38.16 85.6333 38.18 85.6733 38.18 85.72V87.13C38.18 87.1767 38.16 87.2167 38.12 87.25C38.0867 87.2833 38.0467 87.3 38 87.3H31.48C31.4267 87.3 31.3833 87.2833 31.35 87.25C31.3167 87.2167 31.3 87.1767 31.3 87.13V85.79C31.3 85.7033 31.33 85.63 31.39 85.57C31.8633 85.11 32.3467 84.6067 32.84 84.06C33.3333 83.5133 33.6433 83.1733 33.77 83.04C34.0367 82.72 34.31 82.4133 34.59 82.12C35.47 81.1467 35.91 80.4233 35.91 79.95C35.91 79.61 35.79 79.33 35.55 79.11C35.31 78.8967 34.9967 78.79 34.61 78.79C34.2233 78.79 33.91 78.8967 33.67 79.11C33.4233 79.33 33.3 79.62 33.3 79.98V80.34C33.3 80.3867 33.2833 80.4267 33.25 80.46C33.2167 80.4933 33.1767 80.51 33.13 80.51H31.42C31.3733 80.51 31.3333 80.4933 31.3 80.46C31.26 80.4267 31.24 80.3867 31.24 80.34V79.66C31.2733 79.14 31.44 78.6767 31.74 78.27C32.04 77.87 32.4367 77.5633 32.93 77.35C33.43 77.1367 33.99 77.03 34.61 77.03C35.2967 77.03 35.8933 77.16 36.4 77.42C36.9067 77.6733 37.2967 78.0167 37.57 78.45C37.85 78.89 37.99 79.3733 37.99 79.9C37.99 80.3067 37.8867 80.7233 37.68 81.15C37.48 81.5767 37.1767 82.0367 36.77 82.53C36.47 82.9033 36.1467 83.2767 35.8 83.65C35.4533 84.0167 34.9367 84.5467 34.25 85.24L34.03 85.46V85.46ZM42.89 87.46C41.8233 87.46 40.9833 87.1633 40.37 86.57C39.75 85.9767 39.44 85.1667 39.44 84.14V80.31C39.44 79.3033 39.75 78.5067 40.37 77.92C40.9833 77.3267 41.8233 77.03 42.89 77.03C43.95 77.03 44.7933 77.3267 45.42 77.92C46.04 78.5067 46.35 79.3033 46.35 80.31V84.14C46.35 85.1667 46.04 85.9767 45.42 86.57C44.7933 87.1633 43.95 87.46 42.89 87.46ZM42.89 85.71C43.3233 85.71 43.6667 85.5767 43.92 85.31C44.18 85.0433 44.31 84.6867 44.31 84.24V80.25C44.31 79.81 44.18 79.4567 43.92 79.19C43.6667 78.9233 43.3233 78.79 42.89 78.79C42.4633 78.79 42.1233 78.9233 41.87 79.19C41.61 79.4567 41.48 79.81 41.48 80.25V84.24C41.48 84.6867 41.61 85.0433 41.87 85.31C42.1233 85.5767 42.4633 85.71 42.89 85.71ZM50.41 85.46C50.39 85.48 50.3867 85.5 50.4 85.52C50.4067 85.54 50.4267 85.55 50.46 85.55H54.39C54.4367 85.55 54.4767 85.5667 54.51 85.6C54.5433 85.6333 54.56 85.6733 54.56 85.72V87.13C54.56 87.1767 54.5433 87.2167 54.51 87.25C54.4767 87.2833 54.4367 87.3 54.39 87.3H47.86C47.8133 87.3 47.7733 87.2833 47.74 87.25C47.7067 87.2167 47.69 87.1767 47.69 87.13V85.79C47.69 85.7033 47.7167 85.63 47.77 85.57C48.25 85.11 48.7333 84.6067 49.22 84.06C49.7133 83.5133 50.0233 83.1733 50.15 83.04C50.4233 82.72 50.7 82.4133 50.98 82.12C51.86 81.1467 52.3 80.4233 52.3 79.95C52.3 79.61 52.18 79.33 51.94 79.11C51.6933 78.8967 51.3767 78.79 50.99 78.79C50.6033 78.79 50.29 78.8967 50.05 79.11C49.81 79.33 49.69 79.62 49.69 79.98V80.34C49.69 80.3867 49.6733 80.4267 49.64 80.46C49.6067 80.4933 49.5633 80.51 49.51 80.51H47.8C47.7533 80.51 47.7133 80.4933 47.68 80.46C47.6467 80.4267 47.63 80.3867 47.63 80.34V79.66C47.6567 79.14 47.82 78.6767 48.12 78.27C48.42 77.87 48.82 77.5633 49.32 77.35C49.82 77.1367 50.3767 77.03 50.99 77.03C51.6767 77.03 52.2733 77.16 52.78 77.42C53.2933 77.6733 53.6867 78.0167 53.96 78.45C54.2333 78.89 54.37 79.3733 54.37 79.9C54.37 80.3067 54.27 80.7233 54.07 81.15C53.8633 81.5767 53.5567 82.0367 53.15 82.53C52.85 82.9033 52.5267 83.2767 52.18 83.65C51.8333 84.0167 51.3167 84.5467 50.63 85.24L50.41 85.46V85.46ZM61.87 82.46C62.0633 82.9 62.16 83.41 62.16 83.99C62.16 84.5167 62.0733 85 61.9 85.44C61.6667 86.06 61.2767 86.5433 60.73 86.89C60.1833 87.2433 59.5367 87.42 58.79 87.42C58.0567 87.42 57.4133 87.2367 56.86 86.87C56.3067 86.4967 55.9067 85.9967 55.66 85.37C55.5267 84.9967 55.45 84.59 55.43 84.15C55.43 84.0367 55.4867 83.98 55.6 83.98H57.32C57.4333 83.98 57.49 84.0367 57.49 84.15C57.53 84.47 57.5833 84.7067 57.65 84.86C57.7367 85.1133 57.88 85.31 58.08 85.45C58.2733 85.59 58.5067 85.66 58.78 85.66C59.32 85.66 59.6933 85.4233 59.9 84.95C60.0333 84.6633 60.1 84.3267 60.1 83.94C60.1 83.48 60.0267 83.1067 59.88 82.82C59.66 82.3667 59.29 82.14 58.77 82.14C58.6633 82.14 58.55 82.17 58.43 82.23C58.3167 82.2967 58.1767 82.3867 58.01 82.5C57.97 82.5267 57.9333 82.54 57.9 82.54C57.84 82.54 57.7967 82.5133 57.77 82.46L56.91 81.25C56.89 81.2233 56.88 81.19 56.88 81.15C56.88 81.09 56.9 81.0433 56.94 81.01L59.24 78.99C59.26 78.97 59.27 78.95 59.27 78.93C59.2633 78.91 59.2467 78.9 59.22 78.9H55.81C55.7633 78.9 55.72 78.8833 55.68 78.85C55.6467 78.8167 55.63 78.7767 55.63 78.73V77.32C55.63 77.2733 55.6467 77.2333 55.68 77.2C55.72 77.1667 55.7633 77.15 55.81 77.15H61.85C61.9033 77.15 61.9467 77.1667 61.98 77.2C62.0133 77.2333 62.03 77.2733 62.03 77.32V78.92C62.03 78.9933 61.9967 79.0667 61.93 79.14L60.03 80.88C60.01 80.9 60.0033 80.9167 60.01 80.93C60.01 80.95 60.03 80.96 60.07 80.96C60.91 81.1267 61.51 81.6267 61.87 82.46Z" fill="#252530"/>
</g>
<defs>
<clipPath id="clip0_231_41">
<rect width="94" height="105" fill="white"/>
</clipPath>
</defs>
</svg>
