<svg width="112" height="139" viewBox="0 0 112 139" fill="none" xmlns="http://www.w3.org/2000/svg">
<g clip-path="url(#clip0_706_581)">
<path d="M9.81426 0.492188H103.093C107.82 0.492188 111.635 4.71953 111.635 9.92241V99.8783C111.635 103.28 109.985 106.413 107.312 108.079L60.693 137.258C58.0678 138.899 54.8557 138.899 52.2463 137.242L5.58692 107.896C2.9141 106.207 1.28027 103.09 1.28027 99.7038V9.92241C1.28027 4.71159 5.09518 0.492188 9.81426 0.492188Z" fill="white"/>
<path d="M31.8266 55.8213V47.4403H37.1957V48.713H33.3449V50.9883H36.8274V52.261H33.3449V55.8213H31.8266ZM40.2659 55.9481C39.8676 55.9481 39.5088 55.8772 39.1896 55.7354C38.8732 55.5908 38.6222 55.378 38.4367 55.097C38.2539 54.816 38.1625 54.4695 38.1625 54.0575C38.1625 53.7029 38.228 53.4096 38.3589 53.1777C38.4899 52.9458 38.6686 52.7603 38.895 52.6211C39.1214 52.482 39.3765 52.377 39.6602 52.306C39.9467 52.2324 40.2427 52.1792 40.5483 52.1464C40.9166 52.1082 41.2153 52.0741 41.4445 52.0441C41.6736 52.0114 41.8401 51.9623 41.9437 51.8968C42.0501 51.8286 42.1033 51.7236 42.1033 51.5817V51.5572C42.1033 51.2489 42.0119 51.0102 41.8291 50.841C41.6464 50.6719 41.3831 50.5873 41.0393 50.5873C40.6765 50.5873 40.3887 50.6664 40.1759 50.8246C39.9658 50.9829 39.8239 51.1698 39.7503 51.3853L38.3671 51.1888C38.4762 50.8069 38.6563 50.4877 38.9073 50.2313C39.1583 49.9721 39.4652 49.7784 39.828 49.6502C40.1909 49.5192 40.5919 49.4537 41.0312 49.4537C41.334 49.4537 41.6354 49.4892 41.9355 49.5601C42.2356 49.6311 42.5098 49.7484 42.7581 49.9121C43.0064 50.073 43.2055 50.2926 43.3556 50.5709C43.5083 50.8492 43.5847 51.197 43.5847 51.6144V55.8213H42.1606V54.9578H42.1115C42.0215 55.1324 41.8946 55.2961 41.7309 55.4489C41.57 55.5989 41.3667 55.7203 41.1212 55.8131C40.8784 55.9031 40.5933 55.9481 40.2659 55.9481ZM40.6506 54.8596C40.9479 54.8596 41.2058 54.801 41.424 54.6836C41.6423 54.5636 41.8101 54.4054 41.9274 54.2089C42.0474 54.0125 42.1074 53.7983 42.1074 53.5665V52.8258C42.061 52.8639 41.9819 52.8994 41.8701 52.9322C41.7609 52.9649 41.6382 52.9935 41.5018 53.0181C41.3654 53.0426 41.2303 53.0645 41.0966 53.0836C40.963 53.1027 40.847 53.119 40.7488 53.1327C40.5278 53.1627 40.33 53.2118 40.1554 53.28C39.9808 53.3482 39.843 53.4437 39.7421 53.5665C39.6412 53.6865 39.5907 53.842 39.5907 54.033C39.5907 54.3058 39.6903 54.5118 39.8894 54.6509C40.0886 54.79 40.3423 54.8596 40.6506 54.8596ZM46.5557 47.4403V55.8213H45.0743V47.4403H46.5557ZM49.5605 47.4403V55.8213H48.0791V47.4403H49.5605ZM53.9259 55.8213V54.7246L56.8355 51.8723C57.1137 51.5913 57.3456 51.3416 57.5312 51.1234C57.7167 50.9051 57.8558 50.6937 57.9486 50.4891C58.0413 50.2845 58.0877 50.0662 58.0877 49.8343C58.0877 49.5697 58.0277 49.3432 57.9076 49.155C57.7876 48.964 57.6225 48.8167 57.4125 48.713C57.2024 48.6094 56.9637 48.5575 56.6963 48.5575C56.4208 48.5575 56.1793 48.6148 55.972 48.7294C55.7647 48.8413 55.6037 49.0009 55.4891 49.2082C55.3773 49.4155 55.3213 49.6624 55.3213 49.9489H53.8768C53.8768 49.4169 53.9982 48.9545 54.241 48.5616C54.4838 48.1688 54.818 47.8646 55.2436 47.649C55.6719 47.4335 56.163 47.3258 56.7168 47.3258C57.2788 47.3258 57.7726 47.4308 58.1982 47.6409C58.6238 47.8509 58.9539 48.1387 59.1885 48.5043C59.4259 48.8699 59.5445 49.2873 59.5445 49.7566C59.5445 50.0703 59.4845 50.3786 59.3645 50.6814C59.2445 50.9842 59.033 51.3198 58.7302 51.6881C58.4301 52.0564 58.0086 52.5025 57.4657 53.0263L56.0211 54.4954V54.5527H59.6714V55.8213H53.9259ZM64.1811 55.9809C63.5072 55.9809 62.9288 55.8104 62.446 55.4694C61.9658 55.1256 61.5961 54.6304 61.337 53.9839C61.0805 53.3346 60.9523 52.5529 60.9523 51.639C60.955 50.7251 61.0846 49.9475 61.3411 49.3064C61.6002 48.6626 61.9699 48.1715 62.4501 47.8332C62.9329 47.4949 63.51 47.3258 64.1811 47.3258C64.8522 47.3258 65.4292 47.4949 65.9121 47.8332C66.395 48.1715 66.7647 48.6626 67.0211 49.3064C67.2803 49.9503 67.4099 50.7278 67.4099 51.639C67.4099 52.5557 67.2803 53.3387 67.0211 53.988C66.7647 54.6345 66.395 55.1283 65.9121 55.4694C65.4319 55.8104 64.8549 55.9809 64.1811 55.9809ZM64.1811 54.7C64.7049 54.7 65.1182 54.4422 65.421 53.9266C65.7266 53.4082 65.8794 52.6457 65.8794 51.639C65.8794 50.9733 65.8098 50.414 65.6707 49.9612C65.5315 49.5083 65.3351 49.1673 65.0814 48.9381C64.8277 48.7062 64.5276 48.5903 64.1811 48.5903C63.66 48.5903 63.248 48.8494 62.9452 49.3678C62.6424 49.8834 62.4896 50.6405 62.4869 51.639C62.4842 52.3074 62.551 52.8694 62.6874 53.325C62.8265 53.7806 63.023 54.1244 63.2767 54.3563C63.5304 54.5854 63.8319 54.7 64.1811 54.7ZM68.7695 55.8213V54.7246L71.6791 51.8723C71.9574 51.5913 72.1893 51.3416 72.3748 51.1234C72.5603 50.9051 72.6995 50.6937 72.7922 50.4891C72.885 50.2845 72.9314 50.0662 72.9314 49.8343C72.9314 49.5697 72.8713 49.3432 72.7513 49.155C72.6313 48.964 72.4662 48.8167 72.2561 48.713C72.0461 48.6094 71.8074 48.5575 71.54 48.5575C71.2644 48.5575 71.023 48.6148 70.8157 48.7294C70.6083 48.8413 70.4474 49.0009 70.3328 49.2082C70.2209 49.4155 70.165 49.6624 70.165 49.9489H68.7204C68.7204 49.4169 68.8418 48.9545 69.0846 48.5616C69.3274 48.1688 69.6616 47.8646 70.0872 47.649C70.5156 47.4335 71.0066 47.3258 71.5605 47.3258C72.1225 47.3258 72.6163 47.4308 73.0419 47.6409C73.4674 47.8509 73.7976 48.1387 74.0322 48.5043C74.2695 48.8699 74.3882 49.2873 74.3882 49.7566C74.3882 50.0703 74.3282 50.3786 74.2081 50.6814C74.0881 50.9842 73.8767 51.3198 73.5738 51.6881C73.2737 52.0564 72.8522 52.5025 72.3093 53.0263L70.8648 54.4954V54.5527H74.5151V55.8213H68.7695ZM75.9269 55.8213V54.7246L78.8365 51.8723C79.1148 51.5913 79.3467 51.3416 79.5322 51.1234C79.7177 50.9051 79.8568 50.6937 79.9496 50.4891C80.0423 50.2845 80.0887 50.0662 80.0887 49.8343C80.0887 49.5697 80.0287 49.3432 79.9087 49.155C79.7886 48.964 79.6236 48.8167 79.4135 48.713C79.2034 48.6094 78.9647 48.5575 78.6974 48.5575C78.4218 48.5575 78.1804 48.6148 77.973 48.7294C77.7657 48.8413 77.6047 49.0009 77.4901 49.2082C77.3783 49.4155 77.3224 49.6624 77.3224 49.9489H75.8778C75.8778 49.4169 75.9992 48.9545 76.242 48.5616C76.4848 48.1688 76.819 47.8646 77.2446 47.649C77.6729 47.4335 78.164 47.3258 78.7178 47.3258C79.2798 47.3258 79.7736 47.4308 80.1992 47.6409C80.6248 47.8509 80.9549 48.1387 81.1895 48.5043C81.4269 48.8699 81.5456 49.2873 81.5456 49.7566C81.5456 50.0703 81.4856 50.3786 81.3655 50.6814C81.2455 50.9842 81.034 51.3198 80.7312 51.6881C80.4311 52.0564 80.0096 52.5025 79.4667 53.0263L78.0221 54.4954V54.5527H81.6724V55.8213H75.9269Z" fill="#2B2B2B"/>
<path d="M50.8116 82.9064V70.2334H48.5885V75.4014H41.9955V70.2334H39.7725V82.9064H41.9955V77.3584H48.5885V82.9064H50.8116Z" fill="#2B2B2B"/>
<path d="M54.4538 72.6077C55.1378 72.6077 55.6888 72.0567 55.6888 71.3727C55.6888 70.6887 55.1378 70.1377 54.4538 70.1377C53.7698 70.1377 53.2188 70.6887 53.2188 71.3727C53.2188 72.0567 53.7698 72.6077 54.4538 72.6077ZM55.4417 82.9057V73.7287H53.4468V82.9057H55.4417Z" fill="#2B2B2B"/>
<path d="M61.7725 86.63C64.0145 86.63 66.4845 85.737 66.4845 82.431V73.729H64.4895V75.002C63.7485 74.014 62.7035 73.501 61.5445 73.501C59.1695 73.501 57.4785 75.23 57.4785 78.213C57.4785 81.234 59.2075 82.925 61.5445 82.925C62.7415 82.925 63.7865 82.317 64.4895 81.386V82.431C64.4895 84.388 63.0835 84.996 61.7725 84.996C60.5565 84.996 59.6065 84.673 58.8465 83.818L57.9155 85.262C59.0555 86.288 60.2145 86.63 61.7725 86.63ZM62.1335 81.139C60.5375 81.139 59.5305 79.98 59.5305 78.213C59.5305 76.446 60.5375 75.268 62.1335 75.268C63.0645 75.268 64.0335 75.819 64.4895 76.484V79.923C64.0335 80.588 63.0645 81.139 62.1335 81.139Z" fill="#2B2B2B"/>
<path d="M77.2779 82.9064V76.4084C77.2779 74.5274 76.2899 73.5014 74.3139 73.5014C72.8699 73.5014 71.6919 74.2424 71.0839 74.9644V70.2334H69.0889V82.9064H71.0839V76.4844C71.5399 75.8764 72.4139 75.2684 73.4399 75.2684C74.5609 75.2684 75.2829 75.6864 75.2829 77.1304V82.9064H77.2779Z" fill="#2B2B2B"/>
<path d="M19.6556 101.907V97.1564H23.0186C25.6596 97.1564 27.1416 95.3514 27.1416 93.2044C27.1416 91.0384 25.6786 89.2334 23.0186 89.2334H17.4326V101.907H19.6556ZM22.7146 95.1994H19.6556V91.1904H22.7146C23.9686 91.1904 24.8616 91.9884 24.8616 93.2044C24.8616 94.4014 23.9686 95.1994 22.7146 95.1994Z" fill="#2B2B2B"/>
<path d="M32.932 102.134C34.376 102.134 35.725 101.659 36.656 100.785L35.744 99.474C35.079 100.139 34.034 100.5 33.122 100.5C31.393 100.5 30.367 99.341 30.215 97.973H37.283V97.479C37.283 94.591 35.535 92.501 32.78 92.501C30.063 92.501 28.125 94.648 28.125 97.308C28.125 100.215 30.158 102.134 32.932 102.134ZM35.364 96.548H30.196C30.272 95.446 31.07 94.135 32.761 94.135C34.566 94.135 35.307 95.465 35.364 96.548Z" fill="#2B2B2B"/>
<path d="M41.247 101.906V95.655C41.646 94.99 42.767 94.42 43.622 94.42C43.869 94.42 44.0589 94.439 44.2299 94.477V92.501C43.0519 92.501 41.95 93.185 41.247 94.059V92.729H39.252V101.906H41.247Z" fill="#2B2B2B"/>
<path d="M48.3285 101.906V94.458H50.1905V92.729H48.3285V92.216C48.3285 91.19 48.8035 90.677 49.6015 90.677C50.0385 90.677 50.3805 90.829 50.6465 91.076L51.4255 89.841C50.8745 89.252 50.0575 89.043 49.2215 89.043C47.4925 89.043 46.3335 90.221 46.3335 92.216V92.729H44.8135V94.458H46.3335V101.906H48.3285Z" fill="#2B2B2B"/>
<path d="M55.8634 102.134C58.7894 102.134 60.5754 99.93 60.5754 97.308C60.5754 94.667 58.7894 92.501 55.8634 92.501C52.9374 92.501 51.1514 94.667 51.1514 97.308C51.1514 99.93 52.9374 102.134 55.8634 102.134ZM55.8634 100.367C54.1724 100.367 53.2224 98.942 53.2224 97.308C53.2224 95.693 54.1724 94.268 55.8634 94.268C57.5734 94.268 58.5044 95.693 58.5044 97.308C58.5044 98.942 57.5734 100.367 55.8634 100.367Z" fill="#2B2B2B"/>
<path d="M64.6073 101.906V95.655C65.0063 94.99 66.1273 94.42 66.9823 94.42C67.2293 94.42 67.4193 94.439 67.5903 94.477V92.501C66.4123 92.501 65.3103 93.185 64.6073 94.059V92.729H62.6123V101.906H64.6073Z" fill="#2B2B2B"/>
<path d="M82.4612 101.906V95.275C82.4612 93.413 81.4923 92.501 79.8203 92.501C78.4333 92.501 77.2172 93.356 76.7042 94.173C76.4002 93.185 75.5643 92.501 74.1963 92.501C72.7902 92.501 71.5932 93.413 71.1942 93.964V92.729H69.1992V101.906H71.1942V95.484C71.6122 94.895 72.4292 94.268 73.3222 94.268C74.4052 94.268 74.8232 94.933 74.8232 95.921V101.906H76.8182V95.484C77.2172 94.876 78.0533 94.268 78.9463 94.268C80.0292 94.268 80.4662 94.933 80.4662 95.921V101.906H82.4612Z" fill="#2B2B2B"/>
<path d="M89.3012 102.134C90.7452 102.134 92.0942 101.659 93.0252 100.785L92.1132 99.474C91.4482 100.139 90.4032 100.5 89.4912 100.5C87.7622 100.5 86.7362 99.341 86.5842 97.973H93.6522V97.479C93.6522 94.591 91.9042 92.501 89.1492 92.501C86.4322 92.501 84.4941 94.648 84.4941 97.308C84.4941 100.215 86.5272 102.134 89.3012 102.134ZM91.7332 96.548H86.5651C86.6411 95.446 87.4392 94.135 89.1302 94.135C90.9352 94.135 91.6762 95.465 91.7332 96.548Z" fill="#2B2B2B"/>
<path d="M97.6161 101.906V95.655C98.0151 94.99 99.1361 94.42 99.9911 94.42C100.238 94.42 100.428 94.439 100.599 94.477V92.501C99.4211 92.501 98.3191 93.185 97.6161 94.059V92.729H95.6211V101.906H97.6161Z" fill="#2B2B2B"/>
<path d="M41.1426 0.492188V19.9792C41.1426 28.2039 48.2648 34.8661 57.0447 34.8661C65.8245 34.8661 72.9468 28.2039 72.9468 19.9792V0.492188" fill="#FF4050"/>
<path d="M9.68733 0.492188H102.966C107.685 0.492188 111.508 4.71953 111.508 9.92241V99.8783C111.508 103.28 109.859 106.413 107.186 108.079L60.5661 137.258C57.9409 138.899 54.7287 138.899 52.1194 137.242L5.45999 107.896C2.78716 106.207 1.15333 103.09 1.15333 99.7038V9.92241C1.1454 4.71159 4.96825 0.492188 9.68733 0.492188Z" stroke="#FF4050" stroke-width="0.991403" stroke-miterlimit="10"/>
<path d="M57.3464 26.4593C57.505 26.4593 57.6716 26.4593 57.8381 26.4355C58.2981 26.3879 58.7582 26.3561 59.2102 26.2768C60.4634 26.0548 61.6293 25.5948 62.7158 24.9285C62.8903 24.8175 63.0648 24.7065 63.2314 24.5875C63.3186 24.524 63.3265 24.4844 63.2789 24.3892C63.2631 24.3654 63.2472 24.3337 63.2314 24.3099C62.692 23.374 62.1448 22.4302 61.6055 21.4943C61.4706 21.2643 61.3437 21.0422 61.2089 20.8122C61.1534 20.725 61.1296 20.7171 61.0423 20.7805C61.0185 20.7964 60.9948 20.8122 60.9789 20.8281C60.5823 21.1295 60.162 21.3912 59.7099 21.6053C58.8057 22.0257 57.8619 22.1923 56.8705 22.0971C56.3233 22.0416 55.7998 21.9067 55.2843 21.7243C53.1508 20.955 51.6756 18.9484 51.5328 16.6483C51.5011 16.1645 51.5328 15.6807 51.628 15.1969C51.9294 13.6979 52.6828 12.4924 53.9122 11.5882C54.8956 10.8665 55.9981 10.4937 57.2195 10.4541C57.3147 10.4541 57.3781 10.4065 57.4178 10.3192C57.5447 10.0416 57.6795 9.77197 57.8064 9.49438C58.2902 8.47918 58.7819 7.45605 59.2657 6.44086C59.3292 6.30602 59.3133 6.2743 59.1864 6.25844C58.7978 6.20292 58.4012 6.1474 58.0126 6.10774C57.4416 6.06016 56.8705 6.07602 56.3074 6.13947C55.6888 6.20292 55.0781 6.32982 54.4753 6.5043C53.3253 6.83742 52.2625 7.35295 51.2949 8.06676C50.4462 8.70125 49.7245 9.47058 49.1059 10.3272C48.0113 11.842 47.3213 13.5076 47.1786 15.3793C47.131 16.0297 47.1468 16.6801 47.2182 17.3225C47.2896 17.9253 47.4165 18.528 47.5831 19.1149C48.2096 21.296 49.4231 23.0806 51.2473 24.4289C53.0556 25.7772 55.1098 26.4196 57.3702 26.4672L57.3464 26.4593ZM64.4766 23.5168C64.5162 23.4533 64.5479 23.4057 64.5717 23.3581C65.349 22.0098 66.1263 20.6695 66.9035 19.3212C66.959 19.226 66.9749 19.1387 66.9114 19.0356C66.1263 17.6794 65.3411 16.3232 64.5638 14.9669C64.5004 14.8559 64.421 14.8083 64.2941 14.8083C62.7317 14.8083 61.1772 14.8083 59.6147 14.8083C59.4799 14.8083 59.4006 14.8559 59.3292 14.9669C58.544 16.3311 57.7588 17.6953 56.9736 19.0515C56.9578 19.0832 56.9498 19.1149 56.9419 19.1625H57.0688C58.6312 19.1625 60.1937 19.1625 61.7562 19.1625C61.891 19.1625 61.9941 19.2101 62.0575 19.3291C62.8427 20.6933 63.6279 22.0574 64.4131 23.4216C64.429 23.4533 64.4528 23.4771 64.4845 23.5168H64.4766ZM61.1454 9.06609C61.201 8.97885 61.2486 8.8916 61.3041 8.81229C61.7086 8.18572 62.3113 7.96365 62.9458 8.08262C63.2948 8.14607 63.509 8.37607 63.5407 8.70125C63.5645 8.96298 63.4534 9.17713 63.2552 9.33575C63.1045 9.45472 62.93 9.56576 62.7555 9.66093C62.351 9.86714 61.9386 10.0734 61.5658 10.343C61.0503 10.7237 60.6696 11.1917 60.4634 11.8024C60.3127 12.2544 60.273 12.7303 60.2651 13.2062C60.2651 13.341 60.2809 13.3569 60.4158 13.3569C61.5737 13.3569 62.7396 13.3569 63.8976 13.3569C64.1752 13.3569 64.4448 13.3569 64.7224 13.3569C64.8335 13.3569 64.8573 13.3331 64.8573 13.222C64.8573 13.0634 64.8573 12.9048 64.8573 12.7462C64.8573 12.5876 64.8573 12.421 64.8573 12.2624C64.8573 12.1434 64.8255 12.1196 64.7145 12.1117C64.6907 12.1117 64.6669 12.1117 64.6352 12.1117C63.7469 12.1117 62.8586 12.1117 61.9703 12.1117C61.8355 12.1117 61.8037 12.072 61.8434 11.9451C61.9306 11.6596 62.1131 11.4375 62.3748 11.2868C62.7476 11.0727 63.1362 10.8744 63.5169 10.6682C63.8262 10.5016 64.1038 10.3034 64.3497 10.0575C64.7383 9.66886 64.8969 9.19299 64.8811 8.65367C64.8652 8.12227 64.659 7.66226 64.2307 7.34501C63.4931 6.79776 62.6762 6.67086 61.7958 6.93259C61.1454 7.12294 60.6537 7.51157 60.3127 8.09848C60.2809 8.154 60.2572 8.20952 60.3127 8.26504C60.5823 8.5347 60.852 8.80436 61.1296 9.07402L61.1454 9.06609Z" fill="white"/>
<path d="M57.3456 26.4594C55.0852 26.4197 53.031 25.7694 51.2227 24.4211C49.3985 23.0648 48.185 21.2882 47.5585 19.1072C47.3919 18.5202 47.265 17.9254 47.1936 17.3147C47.1143 16.6643 47.0984 16.0219 47.154 15.3716C47.2967 13.4998 47.9867 11.8263 49.0812 10.3194C49.6999 9.46277 50.4216 8.69345 51.2703 8.05895C52.2299 7.34514 53.3007 6.82961 54.4507 6.4965C55.0535 6.32201 55.6642 6.19511 56.2828 6.13166C56.8538 6.06821 57.417 6.05235 57.988 6.09994C58.3846 6.13166 58.7732 6.19511 59.1618 6.25063C59.2887 6.26649 59.3046 6.30615 59.2411 6.43305C58.7573 7.44824 58.2656 8.47137 57.7818 9.48657C57.647 9.76416 57.5201 10.0338 57.3932 10.3114C57.3535 10.3987 57.2901 10.4383 57.1949 10.4463C55.9735 10.478 54.8631 10.8508 53.8876 11.5804C52.6662 12.4846 51.9048 13.6981 51.6034 15.1891C51.5082 15.665 51.4765 16.1488 51.5082 16.6405C51.6589 18.9406 53.1341 20.9472 55.2597 21.7165C55.7752 21.9069 56.3066 22.0417 56.8459 22.0893C57.8373 22.1845 58.7811 22.0179 59.6853 21.5976C60.1374 21.3834 60.5577 21.1296 60.9543 20.8203C60.9781 20.8044 61.0019 20.7886 61.0177 20.7727C61.105 20.7172 61.1288 20.7172 61.1843 20.8044C61.3191 21.0344 61.446 21.2565 61.5808 21.4865C62.1202 22.4224 62.6674 23.3662 63.2068 24.3021C63.2226 24.3259 63.2385 24.3576 63.2543 24.3814C63.3019 24.4766 63.3019 24.5162 63.2068 24.5797C63.0402 24.6987 62.8657 24.8097 62.6912 24.9207C61.6046 25.5949 60.4388 26.047 59.1856 26.269C58.7335 26.3484 58.2735 26.3801 57.8135 26.4277C57.647 26.4435 57.4804 26.4435 57.3218 26.4515L57.3456 26.4594Z" fill="white"/>
<path d="M64.4762 23.5161C64.4445 23.4765 64.4207 23.4527 64.4048 23.421C63.6196 22.0568 62.8344 20.6926 62.0492 19.3284C61.9779 19.2095 61.8827 19.1619 61.7478 19.1619C60.1854 19.1619 58.6229 19.1619 57.0605 19.1619H56.9336C56.9495 19.1222 56.9495 19.0826 56.9653 19.0509C57.7505 17.6867 58.5357 16.3304 59.3209 14.9663C59.3843 14.8473 59.4716 14.8076 59.6064 14.8076C61.1689 14.8076 62.7234 14.8076 64.2858 14.8076C64.4127 14.8076 64.492 14.8552 64.5555 14.9663C65.3407 16.3225 66.1179 17.6787 66.9031 19.035C66.9666 19.1381 66.9507 19.2253 66.8952 19.3205C66.1179 20.6609 65.3407 22.0092 64.5634 23.3575C64.5396 23.4051 64.5079 23.4527 64.4683 23.5161H64.4762Z" fill="white"/>
<path d="M61.1448 9.06601C60.8672 8.78842 60.5975 8.52669 60.3279 8.25703C60.2724 8.20151 60.2882 8.14599 60.3279 8.09047C60.6689 7.50356 61.1607 7.11493 61.811 6.92458C62.6914 6.67078 63.5083 6.79768 64.2459 7.33701C64.6742 7.65425 64.8804 8.10633 64.8963 8.64566C64.9121 9.18498 64.7535 9.66085 64.3649 10.0495C64.119 10.2954 63.8335 10.4937 63.5321 10.6602C63.1514 10.8664 62.7707 11.0647 62.39 11.2789C62.1362 11.4295 61.9538 11.6437 61.8586 11.9371C61.8189 12.064 61.8507 12.1037 61.9855 12.1037C62.8738 12.1037 63.7621 12.1037 64.6504 12.1037C64.6742 12.1037 64.698 12.1037 64.7297 12.1037C64.8407 12.1037 64.8725 12.1354 64.8725 12.2544C64.8725 12.413 64.8725 12.5796 64.8725 12.7382C64.8725 12.8968 64.8725 13.0554 64.8725 13.2141C64.8725 13.3251 64.8487 13.3489 64.7376 13.3489C64.46 13.3489 64.1904 13.3489 63.9128 13.3489C62.7548 13.3489 61.5889 13.3489 60.431 13.3489C60.2882 13.3489 60.2803 13.333 60.2803 13.1982C60.2803 12.7223 60.3279 12.2544 60.4786 11.7944C60.6768 11.1837 61.0655 10.7157 61.581 10.335C61.9538 10.0654 62.3583 9.85913 62.7707 9.65292C62.9452 9.56568 63.1117 9.45464 63.2704 9.32774C63.4686 9.16912 63.5797 8.95497 63.5559 8.69324C63.5242 8.36806 63.3021 8.13806 62.961 8.07461C62.3265 7.95564 61.7238 8.17772 61.3193 8.80428C61.2638 8.88359 61.2162 8.97084 61.1607 9.05808L61.1448 9.06601Z" fill="white"/>
</g>
<defs>
<clipPath id="clip0_706_581">
<rect width="112" height="139" fill="white"/>
</clipPath>
</defs>
</svg>
