<svg width="112" height="139" viewBox="0 0 112 139" fill="none" xmlns="http://www.w3.org/2000/svg">
<g clip-path="url(#clip0_706_488)">
<path d="M8.53401 0.492188H101.813C106.54 0.492188 110.355 4.71953 110.355 9.92241V99.8783C110.355 103.28 108.697 106.413 106.032 108.079L59.4128 137.258C56.7876 138.899 53.5754 138.899 50.966 137.242L4.30667 107.896C1.63385 106.207 1.23181e-05 103.09 1.23181e-05 99.7038V9.92241C-0.00791868 4.71159 3.81493 0.492188 8.53401 0.492188Z" fill="white" stroke="#5626ED" stroke-width="0.991403" stroke-miterlimit="10"/>
<path d="M30.8266 55.8213V47.4403H36.1957V48.713H32.3449V50.9883H35.8274V52.261H32.3449V55.8213H30.8266ZM39.2659 55.9481C38.8676 55.9481 38.5088 55.8772 38.1896 55.7354C37.8732 55.5908 37.6222 55.378 37.4367 55.097C37.2539 54.816 37.1625 54.4695 37.1625 54.0575C37.1625 53.7029 37.228 53.4096 37.3589 53.1777C37.4899 52.9458 37.6686 52.7603 37.895 52.6211C38.1214 52.482 38.3765 52.377 38.6602 52.306C38.9467 52.2324 39.2427 52.1792 39.5483 52.1464C39.9166 52.1082 40.2153 52.0741 40.4445 52.0441C40.6736 52.0114 40.8401 51.9623 40.9437 51.8968C41.0501 51.8286 41.1033 51.7236 41.1033 51.5817V51.5572C41.1033 51.2489 41.0119 51.0102 40.8291 50.841C40.6464 50.6719 40.3831 50.5873 40.0393 50.5873C39.6765 50.5873 39.3887 50.6664 39.1759 50.8246C38.9658 50.9829 38.8239 51.1698 38.7503 51.3853L37.3671 51.1888C37.4762 50.8069 37.6563 50.4877 37.9073 50.2313C38.1583 49.9721 38.4652 49.7784 38.828 49.6502C39.1909 49.5192 39.5919 49.4537 40.0312 49.4537C40.334 49.4537 40.6354 49.4892 40.9355 49.5601C41.2356 49.6311 41.5098 49.7484 41.7581 49.9121C42.0064 50.073 42.2055 50.2926 42.3556 50.5709C42.5083 50.8492 42.5847 51.197 42.5847 51.6144V55.8213H41.1606V54.9578H41.1115C41.0215 55.1324 40.8946 55.2961 40.7309 55.4489C40.57 55.5989 40.3667 55.7203 40.1212 55.8131C39.8784 55.9031 39.5933 55.9481 39.2659 55.9481ZM39.6506 54.8596C39.9479 54.8596 40.2058 54.801 40.424 54.6836C40.6423 54.5636 40.8101 54.4054 40.9274 54.2089C41.0474 54.0125 41.1074 53.7983 41.1074 53.5665V52.8258C41.061 52.8639 40.9819 52.8994 40.8701 52.9322C40.7609 52.9649 40.6382 52.9935 40.5018 53.0181C40.3654 53.0426 40.2303 53.0645 40.0966 53.0836C39.963 53.1027 39.847 53.119 39.7488 53.1327C39.5278 53.1627 39.33 53.2118 39.1554 53.28C38.9808 53.3482 38.843 53.4437 38.7421 53.5665C38.6412 53.6865 38.5907 53.842 38.5907 54.033C38.5907 54.3058 38.6903 54.5118 38.8894 54.6509C39.0886 54.79 39.3423 54.8596 39.6506 54.8596ZM45.5557 47.4403V55.8213H44.0743V47.4403H45.5557ZM48.5605 47.4403V55.8213H47.0791V47.4403H48.5605ZM52.9259 55.8213V54.7246L55.8355 51.8723C56.1137 51.5913 56.3456 51.3416 56.5312 51.1234C56.7167 50.9051 56.8558 50.6937 56.9486 50.4891C57.0413 50.2845 57.0877 50.0662 57.0877 49.8343C57.0877 49.5697 57.0277 49.3432 56.9076 49.155C56.7876 48.964 56.6225 48.8167 56.4125 48.713C56.2024 48.6094 55.9637 48.5575 55.6963 48.5575C55.4208 48.5575 55.1793 48.6148 54.972 48.7294C54.7647 48.8413 54.6037 49.0009 54.4891 49.2082C54.3773 49.4155 54.3213 49.6624 54.3213 49.9489H52.8768C52.8768 49.4169 52.9982 48.9545 53.241 48.5616C53.4838 48.1688 53.818 47.8646 54.2436 47.649C54.6719 47.4335 55.163 47.3258 55.7168 47.3258C56.2788 47.3258 56.7726 47.4308 57.1982 47.6409C57.6238 47.8509 57.9539 48.1387 58.1885 48.5043C58.4259 48.8699 58.5445 49.2873 58.5445 49.7566C58.5445 50.0703 58.4845 50.3786 58.3645 50.6814C58.2445 50.9842 58.033 51.3198 57.7302 51.6881C57.4301 52.0564 57.0086 52.5025 56.4657 53.0263L55.0211 54.4954V54.5527H58.6714V55.8213H52.9259ZM63.1811 55.9809C62.5072 55.9809 61.9288 55.8104 61.446 55.4694C60.9658 55.1256 60.5961 54.6304 60.337 53.9839C60.0805 53.3346 59.9523 52.5529 59.9523 51.639C59.955 50.7251 60.0846 49.9475 60.3411 49.3064C60.6002 48.6626 60.9699 48.1715 61.4501 47.8332C61.9329 47.4949 62.51 47.3258 63.1811 47.3258C63.8522 47.3258 64.4292 47.4949 64.9121 47.8332C65.395 48.1715 65.7647 48.6626 66.0211 49.3064C66.2803 49.9503 66.4099 50.7278 66.4099 51.639C66.4099 52.5557 66.2803 53.3387 66.0211 53.988C65.7647 54.6345 65.395 55.1283 64.9121 55.4694C64.4319 55.8104 63.8549 55.9809 63.1811 55.9809ZM63.1811 54.7C63.7049 54.7 64.1182 54.4422 64.421 53.9266C64.7266 53.4082 64.8794 52.6457 64.8794 51.639C64.8794 50.9733 64.8098 50.414 64.6707 49.9612C64.5315 49.5083 64.3351 49.1673 64.0814 48.9381C63.8277 48.7062 63.5276 48.5903 63.1811 48.5903C62.66 48.5903 62.248 48.8494 61.9452 49.3678C61.6424 49.8834 61.4896 50.6405 61.4869 51.639C61.4842 52.3074 61.551 52.8694 61.6874 53.325C61.8265 53.7806 62.023 54.1244 62.2767 54.3563C62.5304 54.5854 62.8319 54.7 63.1811 54.7ZM67.7695 55.8213V54.7246L70.6791 51.8723C70.9574 51.5913 71.1893 51.3416 71.3748 51.1234C71.5603 50.9051 71.6995 50.6937 71.7922 50.4891C71.885 50.2845 71.9314 50.0662 71.9314 49.8343C71.9314 49.5697 71.8713 49.3432 71.7513 49.155C71.6313 48.964 71.4662 48.8167 71.2561 48.713C71.0461 48.6094 70.8074 48.5575 70.54 48.5575C70.2644 48.5575 70.023 48.6148 69.8157 48.7294C69.6083 48.8413 69.4474 49.0009 69.3328 49.2082C69.2209 49.4155 69.165 49.6624 69.165 49.9489H67.7204C67.7204 49.4169 67.8418 48.9545 68.0846 48.5616C68.3274 48.1688 68.6616 47.8646 69.0872 47.649C69.5156 47.4335 70.0066 47.3258 70.5605 47.3258C71.1225 47.3258 71.6163 47.4308 72.0419 47.6409C72.4674 47.8509 72.7976 48.1387 73.0322 48.5043C73.2695 48.8699 73.3882 49.2873 73.3882 49.7566C73.3882 50.0703 73.3282 50.3786 73.2081 50.6814C73.0881 50.9842 72.8767 51.3198 72.5738 51.6881C72.2737 52.0564 71.8522 52.5025 71.3093 53.0263L69.8648 54.4954V54.5527H73.5151V55.8213H67.7695ZM74.9269 55.8213V54.7246L77.8365 51.8723C78.1148 51.5913 78.3467 51.3416 78.5322 51.1234C78.7177 50.9051 78.8568 50.6937 78.9496 50.4891C79.0423 50.2845 79.0887 50.0662 79.0887 49.8343C79.0887 49.5697 79.0287 49.3432 78.9087 49.155C78.7886 48.964 78.6236 48.8167 78.4135 48.713C78.2034 48.6094 77.9647 48.5575 77.6974 48.5575C77.4218 48.5575 77.1804 48.6148 76.973 48.7294C76.7657 48.8413 76.6047 49.0009 76.4901 49.2082C76.3783 49.4155 76.3224 49.6624 76.3224 49.9489H74.8778C74.8778 49.4169 74.9992 48.9545 75.242 48.5616C75.4848 48.1688 75.819 47.8646 76.2446 47.649C76.6729 47.4335 77.164 47.3258 77.7178 47.3258C78.2798 47.3258 78.7736 47.4308 79.1992 47.6409C79.6248 47.8509 79.9549 48.1387 80.1895 48.5043C80.4269 48.8699 80.5456 49.2873 80.5456 49.7566C80.5456 50.0703 80.4856 50.3786 80.3655 50.6814C80.2455 50.9842 80.034 51.3198 79.7312 51.6881C79.4311 52.0564 79.0096 52.5025 78.4667 53.0263L77.0221 54.4954V54.5527H80.6724V55.8213H74.9269Z" fill="#2B2B2B"/>
<path d="M40.4883 0.492188V19.9792C40.4883 28.2039 47.6105 34.8661 56.3904 34.8661C65.1702 34.8661 72.2925 28.2039 72.2925 19.9792V0.492188" fill="#613986"/>
<path d="M9.03303 0.492188H102.313C107.04 0.492188 110.855 4.71953 110.855 9.92241V99.8783C110.855 103.28 109.197 106.413 106.532 108.079L59.9118 137.258C57.2866 138.899 54.0744 138.899 51.465 137.242L4.80569 107.896C2.13287 106.207 0.499036 103.09 0.499036 99.7038V9.92241C0.491105 4.71159 4.31395 0.492188 9.03303 0.492188Z" stroke="#613986" stroke-width="0.991403" stroke-miterlimit="10"/>
<path d="M22.6709 84.0001V71.3271H19.5359L16.0969 80.0291L12.6389 71.3271H9.50391V84.0001H11.7269V74.2151L15.6219 84.0001H16.5719L20.4479 74.2151V84.0001H22.6709Z" fill="#2B2B2B"/>
<path d="M29.4727 84.2287C32.3987 84.2287 34.1847 82.0247 34.1847 79.4027C34.1847 76.7617 32.3987 74.5957 29.4727 74.5957C26.5467 74.5957 24.7607 76.7617 24.7607 79.4027C24.7607 82.0247 26.5467 84.2287 29.4727 84.2287ZM29.4727 82.4617C27.7817 82.4617 26.8317 81.0367 26.8317 79.4027C26.8317 77.7877 27.7817 76.3627 29.4727 76.3627C31.1827 76.3627 32.1137 77.7877 32.1137 79.4027C32.1137 81.0367 31.1827 82.4617 29.4727 82.4617Z" fill="#2B2B2B"/>
<path d="M49.4837 84.0007V77.3697C49.4837 75.5077 48.5147 74.5957 46.8427 74.5957C45.4557 74.5957 44.2397 75.4507 43.7267 76.2677C43.4227 75.2797 42.5867 74.5957 41.2187 74.5957C39.8127 74.5957 38.6157 75.5077 38.2167 76.0587V74.8237H36.2217V84.0007H38.2167V77.5787C38.6347 76.9897 39.4517 76.3627 40.3447 76.3627C41.4277 76.3627 41.8457 77.0277 41.8457 78.0157V84.0007H43.8407V77.5787C44.2397 76.9707 45.0757 76.3627 45.9687 76.3627C47.0517 76.3627 47.4887 77.0277 47.4887 78.0157V84.0007H49.4837Z" fill="#2B2B2B"/>
<path d="M56.3236 84.2287C57.7676 84.2287 59.1166 83.7537 60.0476 82.8797L59.1356 81.5687C58.4706 82.2337 57.4256 82.5947 56.5136 82.5947C54.7846 82.5947 53.7586 81.4357 53.6066 80.0677H60.6746V79.5737C60.6746 76.6857 58.9266 74.5957 56.1716 74.5957C53.4546 74.5957 51.5166 76.7427 51.5166 79.4027C51.5166 82.3097 53.5496 84.2287 56.3236 84.2287ZM58.7556 78.6427H53.5876C53.6636 77.5407 54.4616 76.2297 56.1526 76.2297C57.9576 76.2297 58.6986 77.5597 58.7556 78.6427Z" fill="#2B2B2B"/>
<path d="M70.8516 84.0007V77.5407C70.8516 75.6597 69.8636 74.5957 67.8876 74.5957C66.4436 74.5957 65.2466 75.3367 64.6386 76.0587V74.8237H62.6436V84.0007H64.6386V77.5787C65.1136 76.9707 65.9876 76.3627 66.9946 76.3627C68.1156 76.3627 68.8566 76.8187 68.8566 78.2627V84.0007H70.8516Z" fill="#2B2B2B"/>
<path d="M76.2168 84.2284C77.1288 84.2284 77.7178 83.9624 78.0788 83.6394L77.6038 82.1194C77.4518 82.2904 77.1098 82.4614 76.7298 82.4614C76.1598 82.4614 75.8558 81.9864 75.8558 81.3594V76.5524H77.7178V74.8234H75.8558V72.3154H73.8608V74.8234H72.3408V76.5524H73.8608V81.8534C73.8608 83.3924 74.6588 84.2284 76.2168 84.2284Z" fill="#2B2B2B"/>
<path d="M87.6988 84.0002V74.8232H85.7038V81.2642C85.2478 81.8722 84.3738 82.4612 83.3668 82.4612C82.2268 82.4612 81.5048 82.0052 81.5048 80.5802V74.8232H79.5098V81.3212C79.5098 83.1832 80.4978 84.2282 82.4738 84.2282C83.9178 84.2282 85.0578 83.5062 85.7038 82.7842V84.0002H87.6988Z" fill="#2B2B2B"/>
<path d="M103.552 84.0007V77.3697C103.552 75.5077 102.583 74.5957 100.911 74.5957C99.524 74.5957 98.308 75.4507 97.795 76.2677C97.491 75.2797 96.655 74.5957 95.287 74.5957C93.881 74.5957 92.684 75.5077 92.285 76.0587V74.8237H90.29V84.0007H92.285V77.5787C92.703 76.9897 93.52 76.3627 94.413 76.3627C95.496 76.3627 95.914 77.0277 95.914 78.0157V84.0007H97.909V77.5787C98.308 76.9707 99.144 76.3627 100.037 76.3627C101.12 76.3627 101.557 77.0277 101.557 78.0157V84.0007H103.552Z" fill="#2B2B2B"/>
<path d="M36.3471 105V103.043H30.7611V92.3271H28.5381V105H36.3471Z" fill="#2B2B2B"/>
<path d="M42.222 105.229C43.666 105.229 45.015 104.754 45.946 103.88L45.034 102.569C44.369 103.234 43.324 103.595 42.412 103.595C40.683 103.595 39.657 102.436 39.505 101.068H46.573V100.574C46.573 97.6857 44.825 95.5957 42.07 95.5957C39.353 95.5957 37.415 97.7427 37.415 100.403C37.415 103.31 39.448 105.229 42.222 105.229ZM44.654 99.6427H39.486C39.562 98.5407 40.36 97.2297 42.051 97.2297C43.856 97.2297 44.597 98.5597 44.654 99.6427Z" fill="#2B2B2B"/>
<path d="M56.1608 105.001V98.9017C56.1608 96.4507 54.3748 95.5957 52.3228 95.5957C50.8598 95.5957 49.5298 96.0517 48.4658 97.0777L49.3018 98.4647C50.0808 97.6667 50.9928 97.2867 52.0188 97.2867C53.2728 97.2867 54.1658 97.9327 54.1658 98.9967V100.365C53.4818 99.5857 52.4368 99.1867 51.1828 99.1867C49.6818 99.1867 48.0098 100.061 48.0098 102.189C48.0098 104.203 49.7008 105.229 51.1828 105.229C52.3988 105.229 53.4818 104.792 54.1658 103.994V105.001H56.1608ZM51.9808 103.861C50.8598 103.861 50.0048 103.215 50.0048 102.208C50.0048 101.22 50.8598 100.555 51.9808 100.555C52.8358 100.555 53.6908 100.878 54.1658 101.505V102.911C53.6908 103.538 52.8358 103.861 51.9808 103.861Z" fill="#2B2B2B"/>
<path d="M67.2023 105V92.3271H65.2073V97.0961C64.4853 96.1081 63.4213 95.5951 62.2623 95.5951C59.9063 95.5951 58.1963 97.4381 58.1963 100.402C58.1963 103.442 59.9253 105.228 62.2623 105.228C63.4593 105.228 64.5043 104.658 65.2073 103.746V105H67.2023ZM62.8513 103.461C61.2553 103.461 60.2483 102.188 60.2483 100.402C60.2483 98.6351 61.2553 97.3621 62.8513 97.3621C63.7823 97.3621 64.7703 97.9131 65.2073 98.5971V102.226C64.7703 102.91 63.7823 103.461 62.8513 103.461Z" fill="#2B2B2B"/>
<path d="M74.0433 105.229C75.4873 105.229 76.8363 104.754 77.7673 103.88L76.8553 102.569C76.1903 103.234 75.1453 103.595 74.2333 103.595C72.5043 103.595 71.4783 102.436 71.3263 101.068H78.3943V100.574C78.3943 97.6857 76.6463 95.5957 73.8913 95.5957C71.1743 95.5957 69.2363 97.7427 69.2363 100.403C69.2363 103.31 71.2693 105.229 74.0433 105.229ZM76.4753 99.6427H71.3073C71.3833 98.5407 72.1813 97.2297 73.8723 97.2297C75.6773 97.2297 76.4183 98.5597 76.4753 99.6427Z" fill="#2B2B2B"/>
<path d="M82.3583 105.001V98.7497C82.7573 98.0847 83.8783 97.5147 84.7333 97.5147C84.9803 97.5147 85.1703 97.5337 85.3413 97.5717V95.5957C84.1633 95.5957 83.0613 96.2797 82.3583 97.1537V95.8237H80.3633V105.001H82.3583Z" fill="#2B2B2B"/>
<path d="M56.6911 26.4592C56.8497 26.4592 57.0163 26.4592 57.1828 26.4354C57.6428 26.3878 58.1029 26.3561 58.5549 26.2768C59.8081 26.0547 60.974 25.5947 62.0605 24.9285C62.235 24.8175 62.4095 24.7064 62.5761 24.5875C62.6633 24.524 62.6712 24.4844 62.6236 24.3892C62.6078 24.3654 62.5919 24.3337 62.5761 24.3099C62.0367 23.374 61.4895 22.4302 60.9502 21.4943C60.8153 21.2643 60.6884 21.0422 60.5536 20.8122C60.4981 20.725 60.4743 20.717 60.387 20.7805C60.3633 20.7963 60.3395 20.8122 60.3236 20.8281C59.927 21.1294 59.5067 21.3912 59.0546 21.6053C58.1504 22.0257 57.2066 22.1922 56.2152 22.0971C55.668 22.0415 55.1445 21.9067 54.629 21.7243C52.4955 20.955 51.0203 18.9484 50.8775 16.6483C50.8458 16.1645 50.8775 15.6807 50.9727 15.1969C51.2741 13.6979 52.0275 12.4923 53.2569 11.5882C54.2404 10.8664 55.3428 10.4937 56.5642 10.454C56.6594 10.454 56.7228 10.4064 56.7625 10.3192C56.8894 10.0416 57.0242 9.77197 57.1511 9.49437C57.6349 8.47918 58.1266 7.45605 58.6105 6.44085C58.6739 6.30602 58.658 6.2743 58.5311 6.25844C58.1425 6.20292 57.7459 6.1474 57.3573 6.10774C56.7863 6.06016 56.2152 6.07602 55.6521 6.13947C55.0335 6.20292 54.4228 6.32982 53.82 6.5043C52.67 6.83742 51.6072 7.35295 50.6396 8.06675C49.7909 8.70125 49.0692 9.47058 48.4506 10.3271C47.3561 11.842 46.666 13.5075 46.5233 15.3793C46.4757 16.0297 46.4915 16.68 46.5629 17.3225C46.6343 17.9252 46.7612 18.528 46.9278 19.1149C47.5543 21.296 48.7678 23.0805 50.592 24.4288C52.4003 25.7771 54.4545 26.4196 56.7149 26.4672L56.6911 26.4592ZM63.8213 23.5167C63.8609 23.4533 63.8926 23.4057 63.9164 23.3581C64.6937 22.0098 65.471 20.6694 66.2482 19.3211C66.3037 19.226 66.3196 19.1387 66.2561 19.0356C65.471 17.6794 64.6858 16.3231 63.9085 14.9669C63.8451 14.8558 63.7657 14.8083 63.6388 14.8083C62.0764 14.8083 60.5219 14.8083 58.9594 14.8083C58.8246 14.8083 58.7453 14.8558 58.6739 14.9669C57.8887 16.3311 57.1035 17.6952 56.3183 19.0515C56.3025 19.0832 56.2945 19.1149 56.2866 19.1625H56.4135C57.976 19.1625 59.5384 19.1625 61.1009 19.1625C61.2357 19.1625 61.3388 19.2101 61.4022 19.3291C62.1874 20.6932 62.9726 22.0574 63.7578 23.4216C63.7737 23.4533 63.7975 23.4771 63.8292 23.5167H63.8213ZM60.4901 9.06609C60.5457 8.97885 60.5933 8.8916 60.6488 8.81229C61.0533 8.18572 61.656 7.96365 62.2905 8.08262C62.6395 8.14607 62.8537 8.37607 62.8854 8.70125C62.9092 8.96298 62.7981 9.17713 62.5999 9.33575C62.4492 9.45472 62.2747 9.56576 62.1002 9.66093C61.6957 9.86714 61.2833 10.0733 60.9105 10.343C60.395 10.7237 60.0143 11.1916 59.8081 11.8023C59.6574 12.2544 59.6177 12.7303 59.6098 13.2062C59.6098 13.341 59.6256 13.3568 59.7605 13.3568C60.9184 13.3568 62.0843 13.3568 63.2423 13.3568C63.5199 13.3568 63.7895 13.3568 64.0671 13.3568C64.1782 13.3568 64.202 13.3331 64.202 13.222C64.202 13.0634 64.202 12.9048 64.202 12.7461C64.202 12.5875 64.202 12.421 64.202 12.2623C64.202 12.1434 64.1702 12.1196 64.0592 12.1116C64.0354 12.1116 64.0116 12.1116 63.9799 12.1116C63.0916 12.1116 62.2033 12.1116 61.315 12.1116C61.1802 12.1116 61.1484 12.072 61.1881 11.9451C61.2753 11.6596 61.4578 11.4375 61.7195 11.2868C62.0923 11.0727 62.4809 10.8744 62.8616 10.6682C63.1709 10.5016 63.4485 10.3033 63.6944 10.0575C64.083 9.66886 64.2416 9.19299 64.2258 8.65367C64.2099 8.12227 64.0037 7.66226 63.5754 7.34501C62.8378 6.79776 62.0209 6.67086 61.1405 6.93259C60.4901 7.12294 59.9984 7.51157 59.6574 8.09848C59.6256 8.154 59.6019 8.20952 59.6574 8.26504C59.927 8.5347 60.1967 8.80436 60.4743 9.07402L60.4901 9.06609Z" fill="white"/>
<path d="M56.6913 26.4594C54.4309 26.4197 52.3767 25.7694 50.5684 24.4211C48.7442 23.0648 47.5307 21.2882 46.9041 19.1072C46.7376 18.5202 46.6107 17.9254 46.5393 17.3147C46.46 16.6643 46.4441 16.0219 46.4996 15.3716C46.6424 13.4998 47.3324 11.8263 48.4269 10.3194C49.0456 9.46277 49.7673 8.69345 50.6159 8.05895C51.5756 7.34514 52.6463 6.82961 53.7964 6.4965C54.3991 6.32201 55.0098 6.19511 55.6285 6.13166C56.1995 6.06821 56.7626 6.05235 57.3337 6.09994C57.7302 6.13166 58.1189 6.19511 58.5075 6.25063C58.6344 6.26649 58.6503 6.30615 58.5868 6.43305C58.103 7.44824 57.6113 8.47137 57.1275 9.48657C56.9926 9.76416 56.8657 10.0338 56.7388 10.3114C56.6992 10.3987 56.6357 10.4383 56.5406 10.4463C55.3192 10.478 54.2088 10.8508 53.2332 11.5804C52.0118 12.4846 51.2504 13.6981 50.9491 15.1891C50.8539 15.665 50.8222 16.1488 50.8539 16.6405C51.0046 18.9406 52.4798 20.9472 54.6053 21.7165C55.1209 21.9069 55.6523 22.0417 56.1916 22.0893C57.183 22.1845 58.1268 22.0179 59.031 21.5976C59.483 21.3834 59.9034 21.1296 60.3 20.8203C60.3238 20.8044 60.3476 20.7886 60.3634 20.7727C60.4507 20.7172 60.4744 20.7172 60.53 20.8044C60.6648 21.0344 60.7917 21.2565 60.9265 21.4865C61.4659 22.4224 62.0131 23.3662 62.5524 24.3021C62.5683 24.3259 62.5842 24.3576 62.6 24.3814C62.6476 24.4766 62.6476 24.5162 62.5524 24.5797C62.3859 24.6987 62.2114 24.8097 62.0369 24.9207C60.9503 25.5949 59.7844 26.047 58.5313 26.269C58.0792 26.3484 57.6192 26.3801 57.1592 26.4277C56.9926 26.4435 56.8261 26.4435 56.6675 26.4515L56.6913 26.4594Z" fill="white"/>
<path d="M63.8219 23.5161C63.7902 23.4765 63.7664 23.4527 63.7505 23.421C62.9653 22.0568 62.1801 20.6926 61.3949 19.3284C61.3235 19.2095 61.2284 19.1619 61.0935 19.1619C59.5311 19.1619 57.9686 19.1619 56.4062 19.1619H56.2793C56.2951 19.1222 56.2951 19.0826 56.311 19.0509C57.0962 17.6867 57.8814 16.3304 58.6666 14.9663C58.73 14.8473 58.8173 14.8076 58.9521 14.8076C60.5146 14.8076 62.0691 14.8076 63.6315 14.8076C63.7584 14.8076 63.8377 14.8552 63.9012 14.9663C64.6864 16.3225 65.4636 17.6787 66.2488 19.035C66.3123 19.1381 66.2964 19.2253 66.2409 19.3205C65.4636 20.6609 64.6864 22.0092 63.9091 23.3575C63.8853 23.4051 63.8536 23.4527 63.8139 23.5161H63.8219Z" fill="white"/>
<path d="M60.4915 9.06601C60.2139 8.78842 59.9442 8.52669 59.6745 8.25703C59.619 8.20151 59.6349 8.14599 59.6745 8.09047C60.0156 7.50356 60.5073 7.11493 61.1577 6.92458C62.038 6.67078 62.855 6.79768 63.5926 7.33701C64.0208 7.65425 64.2271 8.10633 64.2429 8.64566C64.2588 9.18498 64.1002 9.66085 63.7115 10.0495C63.4657 10.2954 63.1801 10.4937 62.8788 10.6602C62.4981 10.8664 62.1174 11.0647 61.7367 11.2789C61.4829 11.4295 61.3004 11.6437 61.2053 11.9371C61.1656 12.064 61.1973 12.1037 61.3322 12.1037C62.2205 12.1037 63.1088 12.1037 63.9971 12.1037C64.0209 12.1037 64.0446 12.1037 64.0764 12.1037C64.1874 12.1037 64.2191 12.1354 64.2191 12.2544C64.2191 12.413 64.2191 12.5796 64.2191 12.7382C64.2191 12.8968 64.2191 13.0554 64.2191 13.2141C64.2191 13.3251 64.1953 13.3489 64.0843 13.3489C63.8067 13.3489 63.537 13.3489 63.2595 13.3489C62.1015 13.3489 60.9356 13.3489 59.7776 13.3489C59.6349 13.3489 59.627 13.333 59.627 13.1982C59.627 12.7223 59.6745 12.2544 59.8252 11.7944C60.0235 11.1837 60.4121 10.7157 60.9277 10.335C61.3004 10.0654 61.7049 9.85913 62.1174 9.65292C62.2918 9.56568 62.4584 9.45464 62.617 9.32774C62.8153 9.16912 62.9263 8.95497 62.9025 8.69324C62.8708 8.36806 62.6487 8.13806 62.3077 8.07461C61.6732 7.95564 61.0704 8.17772 60.6659 8.80428C60.6104 8.88359 60.5628 8.97084 60.5073 9.05808L60.4915 9.06601Z" fill="white"/>
</g>
<defs>
<clipPath id="clip0_706_488">
<rect width="112" height="139" fill="white"/>
</clipPath>
</defs>
</svg>
