<svg id="Layer_1" data-name="Layer 1" xmlns="http://www.w3.org/2000/svg" width="108" height="108" viewBox="0 0 108 108"><defs><style>.cls-1{fill:#ff4051;}</style></defs><path class="cls-1" d="M100.67,61.62a8.43,8.43,0,0,1-2.43,6.66l-23,23a17.62,17.62,0,0,1-12.48,5.1H34.36l-7.19,7.17A2.5,2.5,0,1,1,23.63,100l7.9-7.9a2.46,2.46,0,0,1,1.77-.73H62.76a12.65,12.65,0,0,0,9-3.72l23-23a3.41,3.41,0,0,0-4.82-4.82L71.79,78.18l-.06,0a8.42,8.42,0,0,1-5.87,2.43H48.31a2.5,2.5,0,0,1,0-5H65.87A3.38,3.38,0,0,0,66.6,69a3,3,0,0,0-.73-.08H35.58A10.48,10.48,0,0,0,28.11,72L23.69,76.4a2.5,2.5,0,0,1-3.79-3.26,1.72,1.72,0,0,1,.27-.27l4.42-4.41a15.45,15.45,0,0,1,11-4.56H65.87a8.31,8.31,0,0,1,7.73,5.18L86.34,56.34a8.41,8.41,0,0,1,14.33,5.28Zm-20-33a6.09,6.09,0,0,0-3.42-3.44l-6.43-2.54-1.24-6.8a6.08,6.08,0,0,0-7.07-4.9l-.43.1-6.71,1.69L50.37,8a6.08,6.08,0,0,0-8.6.2c-.1.1-.19.21-.28.32l-4.4,5.33-6.85-.92A6.08,6.08,0,0,0,23.4,18.1c0,.14,0,.29,0,.44l-.43,6.9-6.1,3.28A6.08,6.08,0,0,0,14.41,37l.18.31,3.71,5.84-3,6.23a6.07,6.07,0,0,0,2.85,8.11l.4.18,7.72,3A2.5,2.5,0,0,0,28.11,56h0l-7.72-3a1.08,1.08,0,0,1-.61-1.4l0-.07L23.4,44a2.51,2.51,0,0,0-.14-2.42l-4.45-7a1.09,1.09,0,0,1,.33-1.5l.07,0,7.31-3.94a2.52,2.52,0,0,0,1.31-2l.52-8.28a1.09,1.09,0,0,1,.39-.77,1,1,0,0,1,.83-.24L37.8,19a2.5,2.5,0,0,0,2.26-.88l5.29-6.4a1.08,1.08,0,0,1,1.52-.15l.06.06,6,5.73a2.52,2.52,0,0,0,2.35.61l8-2.07a1.07,1.07,0,0,1,1.31.77s0,.05,0,.08l1.56,8.15a2.5,2.5,0,0,0,1.54,1.88l7.72,3.05A1.07,1.07,0,0,1,76,31.22l0,.06-3.59,7.48a2.51,2.51,0,0,0,.14,2.42l4.45,7a1.08,1.08,0,0,1-.33,1.49l-.07,0-7.31,3.94A2.49,2.49,0,0,0,68.13,57a2.52,2.52,0,0,0,3.36,1.12l.13-.07,7.31-3.94a6.09,6.09,0,0,0,2.45-8.25l-.21-.35-3.71-5.84,3-6.23a6.11,6.11,0,0,0,.19-4.85Zm-32.8,25a4.54,4.54,0,0,1-4.19-2.79,2.5,2.5,0,1,0-4.61,1.94,9.54,9.54,0,0,0,8.8,5.85c5.44,0,9.54-3.85,9.54-9,0-2.54-1.16-7.07-8.89-8.87h-.08c-5.1-1.16-5.1-3.31-5.1-4,0-2.71,2.35-4,4.54-4a4.52,4.52,0,0,1,4.19,2.78,2.5,2.5,0,0,0,4.67-1.79l-.06-.14a9.5,9.5,0,0,0-6.3-5.5V26.34a2.5,2.5,0,1,0-5,0v1.79a8.81,8.81,0,0,0-7,8.65c0,2.54,1.16,7.07,8.89,8.87h.08c5.1,1.17,5.1,3.31,5.1,4-.06,2.75-2.41,4-4.6,4Z"/></svg>