<svg xmlns="http://www.w3.org/2000/svg" width="42" height="42" viewBox="0 0 42 42">
  <g id="Group_1004" data-name="Group 1004" transform="translate(7760 3524)">
    <rect id="Rectangle_387" data-name="Rectangle 387" width="42" height="42" rx="21" transform="translate(-7760 -3524)" fill="#0078d4"/>
    <g id="Group_1003" data-name="Group 1003" transform="translate(-0.118 -0.135)">
      <path id="Path_1021" data-name="Path 1021" d="M25.208,39.328a1.079,1.079,0,0,1-.7-.293l-7.43-7.43a.708.708,0,0,1,0-.936,7.759,7.759,0,0,0,1.755-3.276l.059-.293,11.76,3.218-.059.293a19.964,19.964,0,0,1-4.68,8.425A1.079,1.079,0,0,1,25.208,39.328ZM19.3,27.861a8.8,8.8,0,0,1-1.814,3.218v.176l7.372,7.372a.459.459,0,0,0,.644,0,19.238,19.238,0,0,0,4.446-7.9Z" transform="translate(-7760.069 -3528.271)" fill="#fff"/>
      <path id="Back_Plate_1_" d="M1.47,12.3H13a1.174,1.174,0,0,1,1.17,1.17V25.113A1.174,1.174,0,0,1,13,26.283H1.47A1.174,1.174,0,0,1,.3,25.113V13.47A1.213,1.213,0,0,1,1.47,12.3Z" transform="translate(-7753.182 -3522.13)" fill="#fff"/>
      <path id="Path_1022" data-name="Path 1022" d="M9.484,20.4a1.859,1.859,0,0,1,.176.527h0l.176-.527,1.814-3.335a.812.812,0,0,1,.7-.41h0a.774.774,0,0,1,.761.761,1.085,1.085,0,0,1-.117.41L10.654,22.1a.846.846,0,0,0-.117.41v2.106a.774.774,0,0,1-.761.761H9.6a.774.774,0,0,1-.761-.761h0V22.509a1.085,1.085,0,0,0-.117-.41l-2.4-4.329a.767.767,0,0,1,.293-1.053.846.846,0,0,1,.41-.117h.117a.812.812,0,0,1,.7.41Z" transform="translate(-7755.637 -3523.914)" fill="#0078d4"/>
      <path id="Path_1023" data-name="Path 1023" d="M35.487,14.544h0a.906.906,0,0,0-.468-.644,1.17,1.17,0,0,0-.761-.117L20.1,17.528l.059.293a9.241,9.241,0,0,1,.059,3.8l.585.176a8.349,8.349,0,0,0,0-3.8l13.632-3.627a.436.436,0,0,1,.527.293A22.371,22.371,0,0,1,34.9,25.075c0,.117-.117.176-.176.234a.742.742,0,0,1-.351.059l-2.953-.727.145.083.218.129v.456l2.473.7a1,1,0,0,0,.819-.117.846.846,0,0,0,.41-.585A24.749,24.749,0,0,0,35.487,14.544Z" transform="translate(-7761.397 -3522.736)" fill="#fff"/>
      <path id="Path_1024" data-name="Path 1024" d="M18.788,12.283l-.059-.293.527-.117a9.529,9.529,0,0,0-1.872-3.218h0V8.6l7.43-7.547a.459.459,0,0,1,.644,0A20.148,20.148,0,0,1,29.9,9.007l.527-.176A19.851,19.851,0,0,0,25.808.582a1.024,1.024,0,0,0-1.463,0L16.974,8.129l-.117.117a.622.622,0,0,0,.117.7,9.611,9.611,0,0,1,1.814,3.335Z" transform="translate(-7760.026 -3517.14)" fill="#fff"/>
    </g>
  </g>
</svg>
