<svg id="stripe-seeklogo.com" xmlns="http://www.w3.org/2000/svg" width="185.587" height="77.225" viewBox="0 0 185.587 77.225">
  <path id="Path_29" data-name="Path 29" d="M13.043,30.261c0-2.01,1.65-2.784,4.382-2.784a28.754,28.754,0,0,1,12.785,3.3V18.662A34,34,0,0,0,17.425,16.29C6.96,16.29,0,21.755,0,30.88,0,45.108,19.59,42.84,19.59,48.974c0,2.371-2.062,3.145-4.949,3.145-4.279,0-9.743-1.753-14.074-4.124V60.264A35.735,35.735,0,0,0,14.641,63.2c10.723,0,18.095-5.31,18.095-14.537C32.684,33.3,13.043,36.035,13.043,30.261ZM47.892,5.98,35.313,8.661l-.052,41.293A12.953,12.953,0,0,0,48.614,63.2c4.227,0,7.32-.773,9.021-1.7V51.036c-1.65.67-9.795,3.042-9.795-4.588v-18.3h9.795V17.167H47.84Zm25.776,15-.825-3.815H61.708V62.275H74.6V31.7c3.042-3.969,8.2-3.248,9.795-2.681V17.167C82.741,16.548,76.709,15.414,73.668,20.982Zm13.867-3.815h12.94V62.275H87.535Zm0-3.918,12.94-2.784V0L87.535,2.732Zm39.85,3.042a14.562,14.562,0,0,0-10.1,4.021l-.67-3.2H105.269v60.11l12.888-2.732.052-14.589a14.517,14.517,0,0,0,9.125,3.248c9.228,0,17.631-7.423,17.631-23.765C144.912,24.436,136.406,16.29,127.385,16.29ZM124.292,51.81a7.706,7.706,0,0,1-6.083-2.423l-.052-19.126a7.673,7.673,0,0,1,6.135-2.526c4.691,0,7.939,5.258,7.939,12.011C132.231,46.654,129.034,51.81,124.292,51.81Zm61.3-11.908c0-13.2-6.393-23.611-18.61-23.611-12.269,0-19.693,10.413-19.693,23.508,0,15.517,8.764,23.353,21.342,23.353a28.745,28.745,0,0,0,14.28-3.351V49.49a27.371,27.371,0,0,1-12.63,2.836c-5,0-9.434-1.753-10-7.836h25.209C185.484,43.819,185.587,41.138,185.587,39.9ZM160.12,35c0-5.825,3.557-8.248,6.805-8.248,3.144,0,6.5,2.423,6.5,8.248Z" fill="#6772e5"/>
</svg>
