<svg xmlns="http://www.w3.org/2000/svg" width="45" height="45" viewBox="0 0 45 45">
  <g id="Group_20" data-name="Group 20" transform="translate(-2.5 -2.5)">
    <path id="Path_9" data-name="Path 9" d="M25,2.5A22.5,22.5,0,1,0,47.5,25,22.52,22.52,0,0,0,25,2.5Z" fill="#6ac259"/>
    <path id="Path_10" data-name="Path 10" d="M45.2,33.266,35.629,44.113,30.418,38.9a2.03,2.03,0,0,0-2.889,0,1.974,1.974,0,0,0,0,2.842l6.726,6.726a2.054,2.054,0,0,0,1.421.616h.047a2.123,2.123,0,0,0,1.468-.663L48.134,35.966a1.976,1.976,0,0,0-.189-2.842A1.907,1.907,0,0,0,45.2,33.266Z" transform="translate(-12.855 -15.845)" fill="#fff"/>
  </g>
</svg>
