<svg xmlns="http://www.w3.org/2000/svg" xmlns:xlink="http://www.w3.org/1999/xlink" width="72" height="72" viewBox="0 0 207 207">
    <defs>
        <style>
            .tb_svg_loader_linear_gradient_circle_ {
            fill: url(#tb_svg_loader_linear_gradient_circle_);
            }
            .tb_svg_fill_light {
            fill: #F2F6F8;
            }
            .tb_svg_clip_path__ {
            clip-path: url(#tb_svg_clip_path__);
            }
            .tb_svg_wave__shape_01 {
            opacity: 0.502;
            }
            .tb_svg_wave__shape_01, .tb_svg_wave__shape_02 {
            fill: url(#tb_svg_wave__shape);
            }
            .tb_svg_wave_stroke__ {
            fill: url(#tb_svg_wave_stroke__);
            }
        </style>
        <linearGradient id="tb_svg_loader_linear_gradient_circle_" x1="0.5" y1="1.193" x2="0.5" y2="-0.23" gradientUnits="objectBoundingBox">
            <stop offset="0" stop-color="#eb5c99"/>
            <stop offset="1" stop-color="#613983"/>
        </linearGradient>
        <clipPath id="tb_svg_clip_path__">
            <path id="mask_tagg_shape" class="tb_svg_fill_light" d="M189.1,172.2h-76v23.732h22.01v28.9l32.837-28.9H189.1Z" transform="translate(-111.1 -173.2)"/>
        </clipPath>
        <linearGradient id="tb_svg_wave__shape" x1="0" y1="0.5" x2="1" y2="0.5" xlink:href="#tb_svg_loader_linear_gradient_circle_"/>
        <linearGradient id="tb_svg_wave_stroke__" x1="-0.473" y1="0.421" x2="1.507" y2="0.43" gradientUnits="objectBoundingBox">
            <stop offset="0" stop-color="#eb5c99"/>
            <stop offset="0.759" stop-color="#613983"/>
            <stop offset="1" stop-color="#733e86"/>
            <stop offset="1" stop-color="#613983"/>
        </linearGradient>
    </defs>
    <g id="tb_svg_preloader_wrapper__00" transform="translate(28.995 29)">
        <path id="taggbox-stroke" class="tb_svg_loader_linear_gradient_circle_" style="fill:url(#tb_svg_loader_linear_gradient_circle_);" d="M148.2,78.3a70,70,0,1,1-70-70,70,70,0,0,1,70,70Z" transform="translate(50% -50%)">
            <animateTransform attributeName="transform" dur="0.8s" repeatCount="indefinite" type="rotate" values="0 78.3 78.3; 360 78.3 78.3"/>
        </path>
        <path id="Path_7" data-name="Path 7" class="tb_svg_fill_light" fill="#F2F6F8" d="M134.2,71.3a63,63,0,1,1-63-63,63,63,0,0,1,63,63Z" transform="translate(78.3 -22.6) rotate(45)"/>
        <path id="taggbox-stroke-inner" class="tb_svg_loader_linear_gradient_circle_" style="fill:url(#tb_svg_loader_linear_gradient_circle_);" d="M129.2,68.8A60.5,60.5,0,1,1,68.7,8.3a60.5,60.5,0,0,1,60.5,60.5Z" transform="translate(78.3 -19) rotate(45)"/>
        <path id="taggbox_inner_space" class="tb_svg_fill_light" fill="#F2F6F8" d="M126.493,67.446A59.146,59.146,0,1,1,67.346,8.3a59.146,59.146,0,0,1,59.146,59.146Z" transform="translate(78.3 -17) rotate(45)"/>
        <g id="tb_shape_mask_group" data-name="Group 1" transform="translate(964.882 107.54)">
            <g id="tb_shape_mask_2" data-name="Mask Group 2" class="tb_svg_clip_path__" transform="translate(-926 -47)">
                <path id="tagg-wave-2" class="tb_svg_wave__shape_01" style="fill:url(#tb_svg_wave_stroke__);" opacity="0.502" d="M-17.943,358.62c-1.133-.448-2.213-.79-3.424-1.212a15.5,15.5,0,0,0-4-.737,10.252,10.252,0,0,0-4.9.658c-.869.4-1.633.711-2.476,1.133a10.4,10.4,0,0,1-3.74,1.054,12.564,12.564,0,0,1-6.19-.764c-.711-.316-1.317-.553-1.975-.869-.553-.263-1.08-.527-1.712-.764a10.361,10.361,0,0,0-6.322,0,14.493,14.493,0,0,0-1.817.816c-.632.29-1.212.527-1.87.817a13.146,13.146,0,0,1-9.3,0c-.922-.4-1.712-.764-2.581-1.185a8.484,8.484,0,0,0-3.292-.9,10.219,10.219,0,0,0-4.03.421,16.92,16.92,0,0,0-1.844.817c-.738.342-1.37.632-2.213.948a13.069,13.069,0,0,1-9.008-.105c-.922-.4-1.712-.764-2.608-1.185a8.161,8.161,0,0,0-2.054-.711v.026a10.53,10.53,0,0,0-5.373.263,14.507,14.507,0,0,0-1.817.817c-.632.29-1.212.527-1.87.817a13.146,13.146,0,0,1-9.3,0c-.922-.4-1.712-.764-2.581-1.185a8.484,8.484,0,0,0-3.292-.9,10.218,10.218,0,0,0-4.03.421,16.9,16.9,0,0,0-1.844.816c-.738.342-1.37.632-2.213.948a13.069,13.069,0,0,1-9.008-.105c-.922-.4-1.712-.764-2.608-1.185a8.351,8.351,0,0,0-3.292-.9,9.96,9.96,0,0,0-4.083.421c-.711.263-1.343.579-1.975.869-.685.316-1.291.579-2.055.869a13.072,13.072,0,0,1-8.956-.105c-.606-.263-1.133-.448-1.686-.711-.421-.211-.79-.421-1.238-.606a11.8,11.8,0,0,0-6.717-.579,18.19,18.19,0,0,0-3.74,1.027c-.817.316-1.607.553-2.423.9V412.3H-17.626V358.752C-17.732,358.7-17.837,358.673-17.943,358.62Z" transform="translate(135.4 -360.599)">
                <animateTransform attributeName="transform" attributeType="XML"
                    type="translate" from="210 -300.599" to="135.4 -360.599"
                    begin="0s" dur="4s" repeatCount="indefinite" />
                </path>
            </g>
            <g id="tb_shape_mask_1" data-name="Mask Group 1" class="tb_svg_clip_path__" transform="translate(-926 -47)">
                <path id="tagg-wave-1" class="tb_svg_wave__shape_02 slide-trs" style="fill:url(#tb_svg_wave_stroke__);" d="M-17.943,358.62c-1.133-.448-2.213-.79-3.424-1.212a15.5,15.5,0,0,0-4-.737,10.252,10.252,0,0,0-4.9.658c-.869.4-1.633.711-2.476,1.133a10.4,10.4,0,0,1-3.74,1.054,12.564,12.564,0,0,1-6.19-.764c-.711-.316-1.317-.553-1.975-.869-.553-.263-1.08-.527-1.712-.764a10.361,10.361,0,0,0-6.322,0,14.493,14.493,0,0,0-1.817.816c-.632.29-1.212.527-1.87.817a13.146,13.146,0,0,1-9.3,0c-.922-.4-1.712-.764-2.581-1.185a8.484,8.484,0,0,0-3.292-.9,10.219,10.219,0,0,0-4.03.421,16.92,16.92,0,0,0-1.844.817c-.738.342-1.37.632-2.213.948a13.069,13.069,0,0,1-9.008-.105c-.922-.4-1.712-.764-2.608-1.185a8.161,8.161,0,0,0-2.054-.711v.026a10.53,10.53,0,0,0-5.373.263,14.507,14.507,0,0,0-1.817.817c-.632.29-1.212.527-1.87.817a13.146,13.146,0,0,1-9.3,0c-.922-.4-1.712-.764-2.581-1.185a8.484,8.484,0,0,0-3.292-.9,10.218,10.218,0,0,0-4.03.421,16.9,16.9,0,0,0-1.844.816c-.738.342-1.37.632-2.213.948a13.069,13.069,0,0,1-9.008-.105c-.922-.4-1.712-.764-2.608-1.185a8.351,8.351,0,0,0-3.292-.9,9.96,9.96,0,0,0-4.083.421c-.711.263-1.343.579-1.975.869-.685.316-1.291.579-2.055.869a13.072,13.072,0,0,1-8.956-.105c-.606-.263-1.133-.448-1.686-.711-.421-.211-.79-.421-1.238-.606a11.8,11.8,0,0,0-6.717-.579,18.19,18.19,0,0,0-3.74,1.027c-.817.316-1.607.553-2.423.9V412.3H-17.626V358.752C-17.732,358.7-17.837,358.673-17.943,358.62Z" transform="translate(135.4 -360.599)">
                <animateTransform attributeName="transform" attributeType="XML"
                    type="translate" from="50 -300.599" to="135.4 -360.599"
                    begin="0s" dur="4s" repeatCount="indefinite" />
                </path>
            </g>
        </g>
        <path id="tagg_shape" class="tb_svg_wave_stroke__" style="fill:url(#tb_svg_wave_stroke__);" d="M112.1,171.2h76v24.9H166.888l-33.273,29.279V196.1H112.1Zm74.3,1.7H113.8v21.5h21.52v27.221L166.25,194.4H186.4Z" transform="translate(-71.2 -111.631)"/>
    </g>
    </svg>